<?xml version="1.0" encoding="utf-8"?>
<!-- Generator: Adobe Illustrator 24.0.2, SVG Export Plug-In . SVG Version: 6.00 Build 0)  -->
<svg version="1.1" id="Layer_1" xmlns="http://www.w3.org/2000/svg" xmlns:xlink="http://www.w3.org/1999/xlink" x="0px" y="0px"
	 viewBox="0 0 488 476" style="enable-background:new 0 0 488 476;" height="476" width="488" xml:space="preserve">
<style type="text/css">
	.st0{fill:#C56728;}
	.st1{fill:#EA9554;}
	.st2{fill:#006899;}
</style>
<g>
	<circle class="st0" cx="254.6" cy="242.2" r="233.4"/>
	<circle class="st1" cx="233.4" cy="233.8" r="233.4"/>
	<g>
		<path class="st2" d="M93,247.3h15.3c15.3,0,26.2,10.2,26.2,24.9s-10.8,24.9-26.2,24.9H93V247.3z M107.7,288.1
			c11,0,16.1-6.6,16.1-15.9s-5-15.9-16.1-15.9h-4.5v31.7H107.7z"/>
		<path class="st2" d="M143.3,247.3h10.2v49.7h-10.2V247.3z"/>
		<path class="st2" d="M164.1,247.3h15.3c15.3,0,26.2,10.2,26.2,24.9s-10.8,24.9-26.2,24.9h-15.3V247.3z M178.8,288.1
			c11,0,16.1-6.6,16.1-15.9s-5-15.9-16.1-15.9h-4.5v31.7H178.8z"/>
		<path class="st2" d="M245.6,281.3l-18.9-33.9H238l8.8,16c1.9,3.5,4,9.4,4,9.4s2-5.8,3.9-9.4l8.4-16h10.5l-17.7,33.2v16.5h-10.3
			V281.3z"/>
		<path class="st2" d="M273.8,272.2c0-14.7,11.4-25.5,25.7-25.5s25.7,10.8,25.7,25.5s-11.4,25.5-25.7,25.5S273.8,286.9,273.8,272.2z
			 M314.8,272.2c0-9.3-6.1-16.4-15.2-16.4c-9.1,0-15.2,7.1-15.2,16.4s6.1,16.4,15.2,16.4C308.6,288.6,314.8,281.5,314.8,272.2z"/>
		<path class="st2" d="M333.8,279.1v-31.7H344v31.2c0,7.2,3.1,10,9.9,10c6.7,0,9.8-2.8,9.8-10v-31.2H374v31.7
			c0,12.6-8.7,18.6-20,18.6C342.5,297.7,333.8,291.7,333.8,279.1z"/>
		<path class="st2" d="M122,352.9l13.2-17.8h11.6l-16.7,22.5l18.7,27.2h-12.4l-13.2-19.5l-4.8,5.8v13.7h-10.2v-49.7h10.2v17.2
			c0,2.4-0.4,5.8-0.7,8.3C118.9,358,120.4,354.9,122,352.9z"/>
		<path class="st2" d="M170.4,361.7c-2.5-2.3-5.9-6.8-5.9-6.8s0.7,5.5,0.7,9.1v20.8h-9.6v-50.2h1l25.1,23.5c2.4,2.3,5.9,6.8,5.9,6.8
			s-0.7-5.6-0.7-9.1v-20.8h9.6v50.2h-1L170.4,361.7z"/>
		<path class="st2" d="M205.2,360c0-14.7,11.4-25.5,25.7-25.5c14.3,0,25.7,10.8,25.7,25.5s-11.4,25.5-25.7,25.5
			C216.6,385.5,205.2,374.7,205.2,360z M246.2,360c0-9.3-6.1-16.4-15.2-16.4c-9.1,0-15.2,7.1-15.2,16.4s6.1,16.4,15.2,16.4
			C240,376.4,246.2,369.3,246.2,360z"/>
		<path class="st2" d="M258.6,335.1h10.8l7.2,20c1.2,3.4,2.6,9,2.6,9s1.5-5.6,3.1-9l9.6-20.4h1l9.7,20.4c1.6,3.4,3.1,9,3.1,9
			s1.4-5.6,2.6-9l7.2-20h9.9l-18.1,50.2h-1l-11.2-24c-1.3-2.8-2.8-7.4-2.8-7.4s-1.5,4.6-2.9,7.4l-11.6,24h-1L258.6,335.1z"/>
		<path class="st2" d="M339,356.3h3.4c6,0,8.2-3.3,8.2-6.9c0-3.1-2.3-6.1-6.1-6.1c-4,0-6,1.8-7.8,4.8l-7.9-4.6
			c2.6-5.8,8-8.9,15.6-8.9c10.5,0,16.2,7.2,16.2,14.9c0,7.8-4.4,13.1-12.4,14.3v4.3H339V356.3z M337.3,379.1c0-3.6,2.9-6.1,6.2-6.1
			c3.3,0,6.1,2.6,6.1,6.1c0,3.7-2.9,6.2-6.1,6.2C340.2,385.3,337.3,382.7,337.3,379.1z"/>
	</g>
	<g>
		<path class="st2" d="M136.6,161.7l-44.9,1.9c0,0,12.5,20.1,36.2,19.1c23.7-1,36.3-22.2,37.1-28.4l137.9-5.7
			c0,0,9.6,26.4,38.4,25.2c25.6-1.1,35.5-22.1,35.5-22.1l-44.9,1.9l-1.7-40.1l44.9-1.9c0,0-10.6-20.2-36.2-19.1
			c-25.6,1.1-35.1,22.1-37.1,28.5l-137.9,5.7c0,0-9.8-26.4-39.4-25.2C99.6,102.5,90,123.5,90,123.5l45.3-1.9L136.6,161.7z"/>
		<path class="st2" d="M169.2,140.1c-0.2-5.7,4.3-10.5,10.1-10.7l106.8-4.3c5.8-0.2,10.7,4.2,10.9,9.9c0.2,5.7-4.3,10.5-10.1,10.7
			l-106.8,4.3C174.3,150.3,169.4,145.8,169.2,140.1z"/>
		<path class="st2" d="M292.1,135.2c-0.1-3.1-2.8-5.5-5.9-5.3l-106.8,4.3c-3.1,0.1-5.5,2.7-5.4,5.8c0.1,3.1,2.8,5.5,5.9,5.3
			l106.8-4.3C289.8,140.9,292.2,138.3,292.1,135.2z"/>
		<path class="st2" d="M324,107.4l2.2,53.1l46.1-1.9c3.1-3.8,4.4-6.7,4.4-6.7l-44.9,1.9l-1.7-40.1l44.9-1.9c0,0-1.5-2.8-4.7-6.3
			L324,107.4z"/>
		<path class="st2" d="M322.9,106.4l2.3,55.2l46.2-2c0.9-1.1,0.9-1.1,0.9-1.1l-46.1,1.9l-2.2-53.1l46.4-2c-0.3-0.3-0.6-0.7-1-1
			L322.9,106.4z"/>
		<path class="st2" d="M142.8,167.7l-2.2-53.1l-46.1,1.9c-3.1,3.8-4.4,6.7-4.4,6.7l44.9-1.9l1.7,40.1l-44.9,1.9c0,0,1.5,2.8,4.7,6.3
			L142.8,167.7z"/>
		<path class="st2" d="M143.9,168.7l-2.3-55.2l-46.2,2c-0.9,1.1-0.9,1.1-0.9,1.1l46.1-1.9l2.2,53.1l-46.4,2c0.3,0.3,0.6,0.7,1,1
			L143.9,168.7z"/>
	</g>
</g>
</svg>
