<?xml version="1.0" encoding="utf-8"?>
<!-- Generator: Adobe Illustrator 24.0.2, SVG Export Plug-In . SVG Version: 6.00 Build 0)  -->
<svg version="1.1" id="Layer_1" xmlns="http://www.w3.org/2000/svg" xmlns:xlink="http://www.w3.org/1999/xlink" x="0px" y="0px"
	 viewBox="0 0 504 338" style="enable-background:new 0 0 504 338;" height="338" width="504" xml:space="preserve">
<style type="text/css">
	.st0{fill:#006899;}
	.st1{fill:#E0E0E0;}
	.st2{fill:none;stroke:#006899;stroke-miterlimit:10;}
	.st3{fill:#FFFFFF;}
</style>
<g>
	<g>
		<path class="st0" d="M91.9,28.7V0h59.7v28.8l59.7,39.8c0,0,19.9,17.7,17.7,55.3c0,0,28.8,208-22.1,196.9l-24.3,13.3
			c0,0-19.9,8.9-31,0c0,0-11.1-25.3-26.6,3.9c0,0-48.7,0.5-84.1-12.8c0,0-35.4-4.4-39.8-79.7L34.4,77.4c0,0-8.9-17.7,24.3-33.2
			L91.9,28.7z"/>
		<path class="st1" d="M67.5,128.3l13.3-50.9c0,0-19.9-26.6-33.2,25.4S47.6,201.3,67.5,128.3z"/>
	</g>
	<path class="st2" d="M261.7,65c-68,30.6-42.4-122.8-163.6,15.7"/>
	<polygon class="st3" points="456.9,214.8 272.6,129.5 253.1,58.9 319.3,27.7 503.6,113 	"/>
	<g>
		<g>
			<path class="st0" d="M305.8,98.4l11.6-1c0.4,3.9,1.7,8,6.7,11.3c0,0,4.9-10.8,4.9-10.7c-10.6-8.2-12.5-15.6-9.3-22.6
				c3.2-7,11.2-11.5,22.8-7l4.3-9.4l6.3,2.9l-4.4,9.6c6.6,4.4,9.5,10.3,10.5,14.7l-10.9,2.5c-0.3-1.9-1.3-4.9-4.1-7.4l-4.3,9.3
				c10.2,7.8,13.8,15.8,10.2,23.6c-4.2,9.1-12.1,12-24.3,7.3l-4.6,10.1l-6.3-2.9l4.6-10.2C309.2,112.6,306.1,104.4,305.8,98.4z
				 M337.9,110.1c0.9-2.1,0.9-4.4-3.3-7.9l-4.3,9.5C335.2,113.3,337,112,337.9,110.1z M331.6,79.5c-0.9,2.1-0.9,3.7,2.8,6.7l3.8-8.4
				C334.4,76.5,332.5,77.5,331.6,79.5z"/>
			<path class="st0" d="M373.8,96.2l-9.3-4.3l4.8-10.5l22.1,10.1l-22.2,48.7l-12.8-5.8L373.8,96.2z"/>
			<path class="st0" d="M389.9,120.2c6.8-14.8,23.9-19.4,37.3-13.3c13.5,6.2,21.3,22.1,14.5,36.9c-6.7,14.7-23.9,19.6-37.5,13.5
				C390.7,151.1,383.1,134.9,389.9,120.2z M428.3,137.7c4-8.7,0.8-16.4-6.3-19.7c-7-3.2-14.9-0.5-18.8,8.2c-4,8.7-0.9,16.6,6.1,19.8
				C416.4,149.3,424.3,146.4,428.3,137.7z"/>
		</g>
	</g>
	<g>
		<path class="st3" d="M63.9,183h-5.7v-6.3h13.4v29.6h-7.8V183z"/>
		<path class="st3" d="M77.5,191.4c0-9,7.5-15.2,15.7-15.2c8.2,0,15.7,6.2,15.7,15.2c0,8.9-7.5,15.3-15.7,15.3
			C85,206.7,77.5,200.4,77.5,191.4z M100.8,191.4c0-5.3-3.3-8.4-7.6-8.4c-4.2,0-7.6,3.2-7.6,8.4c0,5.3,3.3,8.5,7.6,8.5
			C97.4,200,100.8,196.7,100.8,191.4z"/>
		<path class="st3" d="M112.8,191.4c0-9,7.5-15.2,15.7-15.2c8.2,0,15.7,6.2,15.7,15.2c0,8.9-7.5,15.3-15.7,15.3
			C120.4,206.7,112.8,200.4,112.8,191.4z M136.1,191.4c0-5.3-3.3-8.4-7.6-8.4c-4.2,0-7.6,3.2-7.6,8.4c0,5.3,3.3,8.5,7.6,8.5
			C132.8,200,136.1,196.7,136.1,191.4z"/>
		<path class="st3" d="M148.2,191.4c0-9,7.5-15.2,15.7-15.2c8.2,0,15.7,6.2,15.7,15.2c0,8.9-7.5,15.3-15.7,15.3
			C155.7,206.7,148.2,200.4,148.2,191.4z M171.5,191.4c0-5.3-3.3-8.4-7.6-8.4c-4.2,0-7.6,3.2-7.6,8.4c0,5.3,3.3,8.5,7.6,8.5
			C168.2,200,171.5,196.7,171.5,191.4z"/>
		<path class="st3" d="M69.5,246.8c0-9.5,6.7-16.4,16.4-16.4c5.2,0,9,1.4,11.6,4.4l-4.5,4.4c-1.6-1.7-3.4-2.9-7.2-2.9
			c-5.8,0-9.6,4.5-9.6,10.5c0,6,3.9,10.6,10.6,10.6c2.1,0,4.6-0.4,6.3-1.2v-4.7h-7.7v-5.8h13.8v13.9c-1.8,1.5-6.5,3.7-12.3,3.7
			C76.4,263.3,69.5,256.3,69.5,246.8z"/>
		<path class="st3" d="M116.2,230.5h0.6l14.7,32.4h-6.9l-1.5-3.6h-13l-1.5,3.6h-6.4L116.2,230.5z M120.7,253.7l-2.3-5.6
			c-0.9-2.3-1.9-5.8-1.9-5.8s-0.9,3.5-1.9,5.8l-2.3,5.6H120.7z"/>
		<path class="st3" d="M135.8,230.8h6.6V257h14.5v5.8h-21.1V230.8z"/>
		<path class="st3" d="M161.3,259.1c0-2.3,1.8-4,4-4c2.1,0,4,1.7,4,4c0,2.4-1.8,4-4,4C163.1,263.1,161.3,261.5,161.3,259.1z"/>
	</g>
</g>
</svg>
