<?xml version="1.0" encoding="utf-8"?>
<!-- Generator: Adobe Illustrator 24.0.2, SVG Export Plug-In . SVG Version: 6.00 Build 0)  -->
<svg version="1.1" id="Layer_1" xmlns="http://www.w3.org/2000/svg" xmlns:xlink="http://www.w3.org/1999/xlink" x="0px" y="0px"
	 viewBox="0 0 504 338" style="enable-background:new 0 0 504 338;" height="338" width="504" xml:space="preserve">
<style type="text/css">
	.st0{fill:#D45653;}
	.st1{fill:#EA9554;}
	.st2{fill:#F5C75F;}
	.st3{fill:none;stroke:#006899;stroke-miterlimit:10;}
	.st4{fill:#FFFFFF;}
	.st5{fill:#006899;}
</style>
<g>
	<rect x="199.8" y="17" class="st0" width="303.4" height="101"/>
	<rect x="199.8" y="116.5" class="st1" width="303.4" height="101"/>
	<rect x="199.8" y="220" class="st2" width="303.4" height="101"/>
	<g>
		<line class="st3" x1="199.8" y1="17" x2="199.8" y2="320.1"/>
		<line class="st3" x1="503.2" y1="17" x2="503.2" y2="320.1"/>
		<line class="st3" x1="0.8" y1="118" x2="503.2" y2="118"/>
		<line class="st3" x1="0.8" y1="219.1" x2="503.2" y2="219.1"/>
		<line class="st3" x1="199.8" y1="320.1" x2="503.2" y2="320.1"/>
		<line class="st3" x1="199.8" y1="17" x2="503.2" y2="17"/>
	</g>
	<g>
		<path class="st4" d="M280,79.2l9.6-5.4c1.8,3.2,4.5,6.2,10.2,7.1c0,0,0-11.2,0-11.1c-12.3-2.9-16.8-8.5-16.8-15.8
			s5.1-14.2,16.8-14.9v-9.8h6.5v10c7.3,1.2,12.2,5.1,14.8,8.5l-8.4,6.4c-1-1.5-3-3.7-6.4-4.7v9.7c11.8,2.7,18,8.1,18,16.2
			c0,9.5-5.7,15.1-18,15.8v10.4h-6.5V91C288.4,90,282.6,84.2,280,79.2z M294.7,52.9c0,2.1,0.7,3.5,5,4.6v-8.7
			C296,49.2,294.7,50.9,294.7,52.9z M312.1,76.7c0-2.1-1-4.2-5.9-5.5V81C311.1,80.5,312.1,78.6,312.1,76.7z"/>
		<path class="st4" d="M328.6,79.2l9.6-5.4c1.8,3.2,4.5,6.2,10.2,7.1c0,0,0-11.2,0-11.1c-12.3-2.9-16.8-8.5-16.8-15.8
			s5.1-14.2,16.8-14.9v-9.8h6.5v10c7.3,1.2,12.2,5.1,14.8,8.5l-8.4,6.4c-1-1.5-3-3.7-6.4-4.7v9.7c11.8,2.7,18,8.1,18,16.2
			c0,9.5-5.7,15.1-18,15.8v10.4h-6.5V91C337,90,331.2,84.2,328.6,79.2z M343.3,52.9c0,2.1,0.7,3.5,5,4.6v-8.7
			C344.5,49.2,343.3,50.9,343.3,52.9z M360.7,76.7c0-2.1-1-4.2-5.9-5.5V81C359.6,80.5,360.7,78.6,360.7,76.7z"/>
		<path class="st4" d="M377.1,79.2l9.6-5.4c1.8,3.2,4.5,6.2,10.2,7.1c0,0,0-11.2,0-11.1C384.6,66.8,380,61.2,380,54
			s5.1-14.2,16.8-14.9v-9.8h6.5v10c7.3,1.2,12.2,5.1,14.8,8.5l-8.4,6.4c-1-1.5-3-3.7-6.4-4.7v9.7c11.8,2.7,18,8.1,18,16.2
			c0,9.5-5.7,15.1-18,15.8v10.4h-6.5V91C385.5,90,379.7,84.2,377.1,79.2z M391.8,52.9c0,2.1,0.7,3.5,5,4.6v-8.7
			C393.1,49.2,391.8,50.9,391.8,52.9z M409.2,76.7c0-2.1-1-4.2-5.9-5.5V81C408.2,80.5,409.2,78.6,409.2,76.7z"/>
	</g>
	<g>
		<path class="st4" d="M304.3,182.7l9.6-5.4c1.8,3.2,4.5,6.2,10.2,7.1c0,0,0-11.2,0-11.1c-12.3-2.9-16.8-8.5-16.8-15.8
			c0-7.3,5.1-14.2,16.8-14.9v-9.8h6.5v10c7.3,1.2,12.2,5.1,14.8,8.5l-8.4,6.4c-1-1.5-3-3.7-6.4-4.7v9.7c11.8,2.7,18,8.1,18,16.2
			c0,9.5-5.7,15.1-18,15.8V205H324v-10.5C312.7,193.5,306.9,187.7,304.3,182.7z M319,156.4c0,2.1,0.7,3.5,5,4.6v-8.7
			C320.3,152.7,319,154.4,319,156.4z M336.4,180.2c0-2.1-1-4.2-5.9-5.5v9.9C335.3,183.9,336.4,182.1,336.4,180.2z"/>
		<path class="st4" d="M352.8,182.7l9.6-5.4c1.8,3.2,4.5,6.2,10.2,7.1c0,0,0-11.2,0-11.1c-12.3-2.9-16.8-8.5-16.8-15.8
			c0-7.3,5.1-14.2,16.8-14.9v-9.8h6.5v10c7.3,1.2,12.2,5.1,14.8,8.5l-8.4,6.4c-1-1.5-3-3.7-6.4-4.7v9.7c11.8,2.7,18,8.1,18,16.2
			c0,9.5-5.7,15.1-18,15.8V205h-6.5v-10.5C361.3,193.5,355.5,187.7,352.8,182.7z M367.5,156.4c0,2.1,0.7,3.5,5,4.6v-8.7
			C368.8,152.7,367.5,154.4,367.5,156.4z M384.9,180.2c0-2.1-1-4.2-5.9-5.5v9.9C383.9,183.9,384.9,182.1,384.9,180.2z"/>
	</g>
	<g>
		<path class="st4" d="M328.6,286.2l9.6-5.4c1.8,3.2,4.5,6.2,10.1,7.1c0,0,0-11.2,0-11.1c-12.3-2.9-16.8-8.5-16.8-15.8
			c0-7.3,5.1-14.2,16.8-14.9v-9.8h6.5v10c7.3,1.2,12.2,5.1,14.8,8.5l-8.4,6.4c-1-1.5-3-3.7-6.4-4.7v9.7c11.8,2.7,18,8.1,18,16.2
			c0,9.5-5.7,15.1-18,15.8v10.4h-6.5V298C337,297,331.2,291.2,328.6,286.2z M343.3,259.9c0,2.1,0.7,3.5,5,4.6v-8.7
			C344.5,256.2,343.3,257.8,343.3,259.9z M360.7,283.6c0-2.1-1-4.2-5.9-5.5v9.9C359.6,287.4,360.7,285.6,360.7,283.6z"/>
	</g>
	<path class="st5" d="M59.7,58.2L59.7,58.2l-0.4-0.6c-0.3-0.4-0.5-0.9-0.8-1.3L40,26.4c-0.8-1.3-2.7-1.3-3.5,0L18,56.3
		c-0.3,0.4-0.5,0.8-0.7,1.2l-0.4,0.7h0c-2,3.5-3.1,7.6-3.1,12c0,13.6,11,24.6,24.6,24.6s24.6-11,24.6-24.6
		C62.9,65.8,61.7,61.7,59.7,58.2z"/>
	<path class="st5" d="M119.5,58.2L119.5,58.2l-0.4-0.6c-0.3-0.4-0.5-0.9-0.8-1.3L99.8,26.4c-0.8-1.3-2.7-1.3-3.5,0L77.7,56.3
		c-0.3,0.4-0.5,0.8-0.7,1.2l-0.4,0.7h0c-2,3.5-3.1,7.6-3.1,12c0,13.6,11,24.6,24.6,24.6s24.6-11,24.6-24.6
		C122.6,65.8,121.5,61.7,119.5,58.2z"/>
	<path class="st5" d="M179.3,58.2L179.3,58.2l-0.4-0.6c-0.3-0.4-0.5-0.9-0.8-1.3l-18.6-29.9c-0.8-1.3-2.7-1.3-3.5,0l-18.6,29.9
		c-0.3,0.4-0.5,0.8-0.7,1.2l-0.4,0.7h0c-2,3.5-3.1,7.6-3.1,12c0,13.6,11,24.6,24.6,24.6c13.6,0,24.6-11,24.6-24.6
		C182.4,65.8,181.3,61.7,179.3,58.2z"/>
	<g>
		<path class="st5" d="M89.6,165.6L89.6,165.6l-0.4-0.6c-0.3-0.4-0.5-0.9-0.8-1.3l-18.6-29.9c-0.8-1.3-2.7-1.3-3.5,0l-18.6,29.9
			c-0.3,0.4-0.5,0.8-0.7,1.2l-0.4,0.7h0c-2,3.5-3.1,7.6-3.1,12c0,13.6,11,24.6,24.6,24.6s24.6-11,24.6-24.6
			C92.7,173.2,91.6,169.2,89.6,165.6z"/>
		<path class="st5" d="M149.4,165.6L149.4,165.6L149,165c-0.3-0.4-0.5-0.9-0.8-1.3l-18.6-29.9c-0.8-1.3-2.7-1.3-3.5,0l-18.6,29.9
			c-0.3,0.4-0.5,0.8-0.7,1.2l-0.4,0.7h0c-2,3.5-3.1,7.6-3.1,12c0,13.6,11,24.6,24.6,24.6s24.6-11,24.6-24.6
			C152.5,173.2,151.4,169.2,149.4,165.6z"/>
	</g>
	<path class="st5" d="M119.5,273.1L119.5,273.1l-0.4-0.6c-0.3-0.4-0.5-0.9-0.8-1.3l-18.6-29.9c-0.8-1.3-2.7-1.3-3.5,0l-18.6,29.9
		c-0.3,0.4-0.5,0.8-0.7,1.2l-0.4,0.7h0c-2,3.5-3.1,7.6-3.1,12c0,13.6,11,24.6,24.6,24.6s24.6-11,24.6-24.6
		C122.6,280.7,121.5,276.6,119.5,273.1z"/>
</g>
</svg>
