<?xml version="1.0" encoding="utf-8"?>
<!-- Generator: Adobe Illustrator 24.0.2, SVG Export Plug-In . SVG Version: 6.00 Build 0)  -->
<svg version="1.1" id="Layer_1" xmlns="http://www.w3.org/2000/svg" xmlns:xlink="http://www.w3.org/1999/xlink" x="0px" y="0px"
	 viewBox="0 0 1074 662" style="enable-background:new 0 0 1074 662;" height="662" width="1074" xml:space="preserve">
<style type="text/css">
	.st0{fill:#F3F4F5;}
	.st1{fill:#E0E0E0;}
	.st2{fill:#231F20;}
	.st3{fill:#F3E162;}
	.st4{fill:#006899;}
	.st5{fill:#151515;}
	.st6{fill:none;stroke:#006899;stroke-miterlimit:10;}
</style>
<g>
	<rect x="506.9" y="1.9" class="st0" width="567.1" height="658.2"/>
	<rect x="879.5" y="32.3" class="st1" width="152" height="24.7"/>
	<rect x="533.8" y="268.6" class="st1" width="497.7" height="24.7"/>
	<rect x="533.8" y="609.8" class="st1" width="497.7" height="24.7"/>
	<rect x="533.8" y="571.9" class="st1" width="497.7" height="24.7"/>
	<g>
		<path class="st2" d="M7.6,430.2h-6V428h14.5v2.2h-6v17.5H7.6V430.2z"/>
		<path class="st2" d="M17.8,427h2.6v8.8h0.1c0.4-0.7,1-1.4,1.8-1.8c0.8-0.4,1.7-0.7,2.6-0.7c1.9,0,4.9,1.2,4.9,6v8.4h-2.6v-8.1
			c0-2.3-0.8-4.2-3.3-4.2c-1.7,0-3,1.2-3.4,2.6c-0.1,0.3-0.2,0.7-0.2,1.2v8.5h-2.6V427z"/>
		<path class="st2" d="M36.5,429.6c0,0.9-0.6,1.6-1.6,1.6c-0.9,0-1.5-0.7-1.5-1.6c0-0.9,0.7-1.6,1.6-1.6
			C35.9,428,36.5,428.7,36.5,429.6z M33.7,447.7v-14.1h2.6v14.1H33.7z"/>
		<path class="st2" d="M39.8,445.1c0.8,0.5,2.1,1,3.4,1c1.9,0,2.7-0.9,2.7-2.1c0-1.2-0.7-1.9-2.6-2.6c-2.5-0.9-3.7-2.3-3.7-4
			c0-2.3,1.8-4.1,4.9-4.1c1.4,0,2.7,0.4,3.5,0.9l-0.6,1.9c-0.6-0.3-1.6-0.8-2.9-0.8c-1.5,0-2.4,0.9-2.4,1.9c0,1.2,0.8,1.7,2.7,2.4
			c2.4,0.9,3.7,2.2,3.7,4.3c0,2.5-1.9,4.2-5.3,4.2c-1.5,0-3-0.4-4-1L39.8,445.1z"/>
		<path class="st2" d="M67.3,447.2c-0.7,0.4-2.2,0.8-4,0.8c-4.3,0-7-2.9-7-7.2c0-4.3,3-7.5,7.6-7.5c1.5,0,2.9,0.4,3.6,0.7l-0.6,2
			c-0.6-0.3-1.6-0.7-3-0.7c-3.2,0-5,2.4-5,5.3c0,3.3,2.1,5.3,4.9,5.3c1.5,0,2.4-0.4,3.1-0.7L67.3,447.2z"/>
		<path class="st2" d="M82.6,440.5c0,5.2-3.6,7.5-7,7.5c-3.8,0-6.8-2.8-6.8-7.3c0-4.7,3.1-7.5,7-7.5
			C79.9,433.2,82.6,436.2,82.6,440.5z M71.4,440.7c0,3.1,1.8,5.4,4.3,5.4c2.4,0,4.3-2.3,4.3-5.5c0-2.4-1.2-5.4-4.2-5.4
			C72.7,435.2,71.4,438,71.4,440.7z"/>
		<path class="st2" d="M85.6,437.4c0-1.5,0-2.7-0.1-3.8h2.2l0.1,2.3h0.1c0.8-1.3,2.1-2.6,4.4-2.6c1.9,0,3.4,1.2,4,2.8h0.1
			c0.4-0.8,1-1.4,1.6-1.8c0.8-0.6,1.8-1,3.1-1c1.9,0,4.6,1.2,4.6,6.1v8.3h-2.5v-8c0-2.7-1-4.3-3.1-4.3c-1.5,0-2.6,1.1-3,2.3
			c-0.1,0.3-0.2,0.8-0.2,1.3v8.7h-2.5v-8.5c0-2.2-1-3.9-2.9-3.9c-1.6,0-2.8,1.3-3.2,2.6c-0.1,0.4-0.2,0.8-0.2,1.3v8.5h-2.5V437.4z"
			/>
		<path class="st2" d="M109.5,438.2c0-1.8-0.1-3.3-0.1-4.6h2.3l0.1,2.4h0.1c1-1.7,2.7-2.7,5-2.7c3.4,0,6,2.9,6,7.2
			c0,5.1-3.1,7.6-6.4,7.6c-1.9,0-3.5-0.8-4.3-2.2h-0.1v7.7h-2.5V438.2z M112.1,441.9c0,0.4,0.1,0.7,0.1,1c0.5,1.8,2,3,3.8,3
			c2.7,0,4.3-2.2,4.3-5.5c0-2.8-1.5-5.3-4.2-5.3c-1.7,0-3.4,1.3-3.9,3.2c-0.1,0.3-0.2,0.7-0.2,1V441.9z"/>
		<path class="st2" d="M138.6,440.5c0,5.2-3.6,7.5-7,7.5c-3.8,0-6.8-2.8-6.8-7.3c0-4.7,3.1-7.5,7-7.5
			C135.8,433.2,138.6,436.2,138.6,440.5z M127.4,440.7c0,3.1,1.8,5.4,4.3,5.4c2.4,0,4.3-2.3,4.3-5.5c0-2.4-1.2-5.4-4.2-5.4
			C128.7,435.2,127.4,438,127.4,440.7z"/>
		<path class="st2" d="M141.5,437.4c0-1.5,0-2.7-0.1-3.8h2.3l0.1,2.3h0.1c0.7-1.3,2.3-2.7,4.7-2.7c2,0,5,1.2,5,6v8.4h-2.6v-8.1
			c0-2.3-0.8-4.2-3.3-4.2c-1.7,0-3,1.2-3.4,2.6c-0.1,0.3-0.2,0.8-0.2,1.2v8.5h-2.6V437.4z"/>
		<path class="st2" d="M158.8,441.1c0.1,3.5,2.3,4.9,4.8,4.9c1.8,0,2.9-0.3,3.9-0.7l0.4,1.8c-0.9,0.4-2.4,0.9-4.7,0.9
			c-4.3,0-6.9-2.9-6.9-7.1c0-4.3,2.5-7.6,6.6-7.6c4.6,0,5.8,4.1,5.8,6.7c0,0.5-0.1,0.9-0.1,1.2H158.8z M166.3,439.3
			c0-1.6-0.7-4.2-3.6-4.2c-2.6,0-3.7,2.4-3.9,4.2H166.3z"/>
		<path class="st2" d="M171.7,437.4c0-1.5,0-2.7-0.1-3.8h2.3l0.1,2.3h0.1c0.7-1.3,2.3-2.7,4.7-2.7c2,0,5,1.2,5,6v8.4h-2.6v-8.1
			c0-2.3-0.8-4.2-3.3-4.2c-1.7,0-3,1.2-3.4,2.6c-0.1,0.3-0.2,0.8-0.2,1.2v8.5h-2.6V437.4z"/>
		<path class="st2" d="M190.5,429.5v4.1h3.7v2h-3.7v7.6c0,1.8,0.5,2.7,1.9,2.7c0.7,0,1.2-0.1,1.5-0.2l0.1,1.9
			c-0.5,0.2-1.3,0.4-2.3,0.4c-1.2,0-2.2-0.4-2.8-1.1c-0.7-0.8-1-2-1-3.7v-7.7h-2.2v-2h2.2v-3.4L190.5,429.5z"/>
		<path class="st2" d="M215.4,440.5c0,5.2-3.6,7.5-7,7.5c-3.8,0-6.8-2.8-6.8-7.3c0-4.7,3.1-7.5,7-7.5
			C212.6,433.2,215.4,436.2,215.4,440.5z M204.2,440.7c0,3.1,1.8,5.4,4.3,5.4c2.4,0,4.3-2.3,4.3-5.5c0-2.4-1.2-5.4-4.2-5.4
			C205.5,435.2,204.2,438,204.2,440.7z"/>
		<path class="st2" d="M218.6,447.7v-12.2h-2v-2h2v-0.7c0-2,0.4-3.8,1.6-4.9c1-0.9,2.2-1.3,3.4-1.3c0.9,0,1.7,0.2,2.2,0.4l-0.3,2
			c-0.4-0.2-0.9-0.3-1.6-0.3c-2.2,0-2.7,1.9-2.7,4.1v0.8h3.4v2h-3.4v12.2H218.6z"/>
		<path class="st2" d="M235.5,429.5v4.1h3.7v2h-3.7v7.6c0,1.8,0.5,2.7,1.9,2.7c0.7,0,1.2-0.1,1.5-0.2l0.1,1.9
			c-0.5,0.2-1.3,0.4-2.3,0.4c-1.2,0-2.2-0.4-2.8-1.1c-0.7-0.8-1-2-1-3.7v-7.7h-2.2v-2h2.2v-3.4L235.5,429.5z"/>
		<path class="st2" d="M241.7,427h2.6v8.8h0.1c0.4-0.7,1-1.4,1.8-1.8c0.8-0.4,1.7-0.7,2.6-0.7c1.9,0,4.9,1.2,4.9,6v8.4h-2.6v-8.1
			c0-2.3-0.8-4.2-3.3-4.2c-1.7,0-3,1.2-3.4,2.6c-0.1,0.3-0.2,0.7-0.2,1.2v8.5h-2.6V427z"/>
		<path class="st2" d="M259,441.1c0.1,3.5,2.3,4.9,4.8,4.9c1.8,0,2.9-0.3,3.9-0.7l0.4,1.8c-0.9,0.4-2.4,0.9-4.7,0.9
			c-4.3,0-6.9-2.9-6.9-7.1c0-4.3,2.5-7.6,6.6-7.6c4.6,0,5.8,4.1,5.8,6.7c0,0.5-0.1,0.9-0.1,1.2H259z M266.5,439.3
			c0-1.6-0.7-4.2-3.6-4.2c-2.6,0-3.7,2.4-3.9,4.2H266.5z"/>
		<path class="st2" d="M277.7,447.7c0.1-1,0.1-2.4,0.1-3.6V427h2.5v8.9h0.1c0.9-1.6,2.5-2.6,4.8-2.6c3.5,0,6,2.9,5.9,7.2
			c0,5-3.2,7.6-6.3,7.6c-2,0-3.7-0.8-4.7-2.7H280l-0.1,2.3H277.7z M280.3,442c0,0.3,0.1,0.6,0.1,0.9c0.5,1.8,2,3,3.8,3
			c2.7,0,4.3-2.2,4.3-5.4c0-2.8-1.5-5.3-4.2-5.3c-1.7,0-3.4,1.2-3.9,3.2c-0.1,0.3-0.1,0.6-0.1,1V442z"/>
		<path class="st2" d="M296.9,429.6c0,0.9-0.6,1.6-1.6,1.6c-0.9,0-1.5-0.7-1.5-1.6c0-0.9,0.7-1.6,1.6-1.6
			C296.3,428,296.9,428.7,296.9,429.6z M294.1,447.7v-14.1h2.6v14.1H294.1z"/>
		<path class="st2" d="M300.6,427h2.6v20.7h-2.6V427z"/>
		<path class="st2" d="M307.1,427h2.6v20.7h-2.6V427z"/>
		<path class="st2" d="M319.3,445.1c0.8,0.5,2.1,1,3.4,1c1.9,0,2.7-0.9,2.7-2.1c0-1.2-0.7-1.9-2.6-2.6c-2.5-0.9-3.7-2.3-3.7-4
			c0-2.3,1.8-4.1,4.9-4.1c1.4,0,2.7,0.4,3.5,0.9l-0.6,1.9c-0.6-0.3-1.6-0.8-2.9-0.8c-1.5,0-2.4,0.9-2.4,1.9c0,1.2,0.8,1.7,2.7,2.4
			c2.4,0.9,3.7,2.2,3.7,4.3c0,2.5-1.9,4.2-5.3,4.2c-1.5,0-3-0.4-4-1L319.3,445.1z"/>
		<path class="st2" d="M330.8,427h2.6v8.8h0.1c0.4-0.7,1-1.4,1.8-1.8c0.8-0.4,1.7-0.7,2.6-0.7c1.9,0,4.9,1.2,4.9,6v8.4h-2.6v-8.1
			c0-2.3-0.8-4.2-3.3-4.2c-1.7,0-3,1.2-3.4,2.6c-0.1,0.3-0.2,0.7-0.2,1.2v8.5h-2.6V427z"/>
		<path class="st2" d="M359.5,440.5c0,5.2-3.6,7.5-7,7.5c-3.8,0-6.8-2.8-6.8-7.3c0-4.7,3.1-7.5,7-7.5
			C356.7,433.2,359.5,436.2,359.5,440.5z M348.3,440.7c0,3.1,1.8,5.4,4.3,5.4c2.4,0,4.3-2.3,4.3-5.5c0-2.4-1.2-5.4-4.2-5.4
			C349.6,435.2,348.3,438,348.3,440.7z"/>
		<path class="st2" d="M363.2,433.6l1.9,7.2c0.4,1.6,0.8,3,1,4.5h0.1c0.3-1.4,0.8-2.9,1.3-4.5l2.3-7.2h2.2l2.2,7.1
			c0.5,1.7,0.9,3.2,1.3,4.6h0.1c0.2-1.4,0.6-2.9,1.1-4.6l2-7.1h2.5l-4.5,14.1h-2.3L372,441c-0.5-1.6-0.9-3-1.3-4.6h-0.1
			c-0.3,1.7-0.8,3.2-1.3,4.7l-2.3,6.7h-2.3l-4.3-14.1H363.2z"/>
		<path class="st2" d="M382.8,445.1c0.8,0.5,2.1,1,3.4,1c1.9,0,2.7-0.9,2.7-2.1c0-1.2-0.7-1.9-2.6-2.6c-2.5-0.9-3.7-2.3-3.7-4
			c0-2.3,1.8-4.1,4.9-4.1c1.4,0,2.7,0.4,3.5,0.9l-0.6,1.9c-0.6-0.3-1.6-0.8-2.9-0.8c-1.5,0-2.4,0.9-2.4,1.9c0,1.2,0.8,1.7,2.7,2.4
			c2.4,0.9,3.7,2.2,3.7,4.3c0,2.5-1.9,4.2-5.3,4.2c-1.5,0-3-0.4-4-1L382.8,445.1z"/>
		<path class="st2" d="M400.3,427h2.6v8.8h0.1c0.4-0.7,1-1.4,1.8-1.8c0.8-0.4,1.7-0.7,2.6-0.7c1.9,0,4.9,1.2,4.9,6v8.4h-2.6v-8.1
			c0-2.3-0.8-4.2-3.3-4.2c-1.7,0-3,1.2-3.4,2.6c-0.1,0.3-0.2,0.7-0.2,1.2v8.5h-2.6V427z"/>
		<path class="st2" d="M428.9,440.5c0,5.2-3.6,7.5-7,7.5c-3.8,0-6.8-2.8-6.8-7.3c0-4.7,3.1-7.5,7-7.5
			C426.1,433.2,428.9,436.2,428.9,440.5z M417.7,440.7c0,3.1,1.8,5.4,4.3,5.4c2.4,0,4.3-2.3,4.3-5.5c0-2.4-1.2-5.4-4.2-5.4
			C419,435.2,417.7,438,417.7,440.7z"/>
		<path class="st2" d="M432.6,433.6l1.9,7.2c0.4,1.6,0.8,3,1,4.5h0.1c0.3-1.4,0.8-2.9,1.3-4.5l2.3-7.2h2.2l2.2,7.1
			c0.5,1.7,0.9,3.2,1.3,4.6h0.1c0.2-1.4,0.6-2.9,1.1-4.6l2-7.1h2.5l-4.5,14.1h-2.3l-2.2-6.7c-0.5-1.6-0.9-3-1.3-4.6h-0.1
			c-0.3,1.7-0.8,3.2-1.3,4.7l-2.3,6.7h-2.3l-4.3-14.1H432.6z"/>
		<path class="st2" d="M3.8,472.4c0-1.5,0-2.7-0.1-3.8h2.2l0.1,2.3h0.1c0.8-1.3,2.1-2.6,4.4-2.6c1.9,0,3.4,1.2,4,2.8h0.1
			c0.4-0.8,1-1.4,1.6-1.8c0.8-0.6,1.8-1,3.1-1c1.9,0,4.6,1.2,4.6,6.1v8.3h-2.5v-8c0-2.7-1-4.3-3.1-4.3c-1.5,0-2.6,1.1-3,2.3
			c-0.1,0.3-0.2,0.8-0.2,1.3v8.7h-2.5v-8.5c0-2.2-1-3.9-2.9-3.9c-1.6,0-2.8,1.3-3.2,2.6c-0.1,0.4-0.2,0.8-0.2,1.3v8.5H3.8V472.4z"/>
		<path class="st2" d="M39.6,478.8c0,1.5,0,2.7,0.1,3.9h-2.3l-0.1-2.3h-0.1c-0.7,1.1-2.2,2.6-4.7,2.6c-2.2,0-4.9-1.2-4.9-6.2v-8.3
			h2.6v7.8c0,2.7,0.8,4.5,3.1,4.5c1.7,0,2.9-1.2,3.4-2.3c0.1-0.4,0.2-0.8,0.2-1.3v-8.7h2.6V478.8z"/>
		<path class="st2" d="M53.6,482.2c-0.7,0.4-2.2,0.8-4,0.8c-4.3,0-7-2.9-7-7.2c0-4.3,3-7.5,7.6-7.5c1.5,0,2.9,0.4,3.6,0.7l-0.6,2
			c-0.6-0.3-1.6-0.7-3-0.7c-3.2,0-5,2.4-5,5.3c0,3.3,2.1,5.3,4.9,5.3c1.5,0,2.4-0.4,3.1-0.7L53.6,482.2z"/>
		<path class="st2" d="M56.3,462h2.6v8.8h0.1c0.4-0.7,1-1.4,1.8-1.8c0.8-0.4,1.7-0.7,2.6-0.7c1.9,0,4.9,1.2,4.9,6v8.4h-2.6v-8.1
			c0-2.3-0.8-4.2-3.3-4.2c-1.7,0-3,1.2-3.4,2.6c-0.1,0.3-0.2,0.7-0.2,1.2v8.5h-2.6V462z"/>
		<path class="st2" d="M79.1,468.6l1.9,7.2c0.4,1.6,0.8,3,1,4.5h0.1c0.3-1.4,0.8-2.9,1.3-4.5l2.3-7.2h2.2l2.2,7.1
			c0.5,1.7,0.9,3.2,1.3,4.6h0.1c0.2-1.4,0.6-2.9,1.1-4.6l2-7.1h2.5l-4.5,14.1H90l-2.2-6.7c-0.5-1.6-0.9-3-1.3-4.6h-0.1
			c-0.3,1.7-0.8,3.2-1.3,4.7l-2.3,6.7h-2.3l-4.3-14.1H79.1z"/>
		<path class="st2" d="M106.9,482.7l-0.2-1.8h-0.1c-0.8,1.1-2.3,2.1-4.3,2.1c-2.9,0-4.3-2-4.3-4.1c0-3.4,3-5.3,8.5-5.3v-0.3
			c0-1.2-0.3-3.3-3.2-3.3c-1.3,0-2.7,0.4-3.7,1l-0.6-1.7c1.2-0.8,2.9-1.3,4.6-1.3c4.3,0,5.4,2.9,5.4,5.8v5.3c0,1.2,0.1,2.4,0.2,3.4
			H106.9z M106.5,475.5c-2.8-0.1-6,0.4-6,3.2c0,1.7,1.1,2.5,2.4,2.5c1.8,0,3-1.2,3.4-2.4c0.1-0.3,0.1-0.6,0.1-0.8V475.5z"/>
		<path class="st2" d="M115.8,464.5v4.1h3.7v2h-3.7v7.6c0,1.8,0.5,2.7,1.9,2.7c0.7,0,1.2-0.1,1.5-0.2l0.1,1.9
			c-0.5,0.2-1.3,0.4-2.3,0.4c-1.2,0-2.2-0.4-2.8-1.1c-0.7-0.8-1-2-1-3.7v-7.7h-2.2v-2h2.2v-3.4L115.8,464.5z"/>
		<path class="st2" d="M123.3,476.1c0.1,3.5,2.3,4.9,4.8,4.9c1.8,0,2.9-0.3,3.9-0.7l0.4,1.8c-0.9,0.4-2.4,0.9-4.7,0.9
			c-4.3,0-6.9-2.9-6.9-7.1s2.5-7.6,6.6-7.6c4.6,0,5.8,4.1,5.8,6.7c0,0.5-0.1,0.9-0.1,1.2H123.3z M130.8,474.3c0-1.6-0.7-4.2-3.6-4.2
			c-2.6,0-3.7,2.4-3.9,4.2H130.8z"/>
		<path class="st2" d="M136.1,473c0-1.7,0-3.1-0.1-4.4h2.2l0.1,2.8h0.1c0.6-1.9,2.2-3.1,3.9-3.1c0.3,0,0.5,0,0.7,0.1v2.4
			c-0.3-0.1-0.5-0.1-0.9-0.1c-1.8,0-3.1,1.4-3.4,3.3c-0.1,0.4-0.1,0.8-0.1,1.2v7.5h-2.5V473z"/>
		<path class="st2" d="M152.3,468.6l1.9,7.2c0.4,1.6,0.8,3,1,4.5h0.1c0.3-1.4,0.8-2.9,1.3-4.5l2.3-7.2h2.2l2.2,7.1
			c0.5,1.7,0.9,3.2,1.3,4.6h0.1c0.2-1.4,0.6-2.9,1.1-4.6l2-7.1h2.5l-4.5,14.1h-2.3l-2.2-6.7c-0.5-1.6-0.9-3-1.3-4.6h-0.1
			c-0.3,1.7-0.8,3.2-1.3,4.7l-2.3,6.7h-2.3l-4.3-14.1H152.3z"/>
		<path class="st2" d="M180.1,482.7l-0.2-1.8h-0.1c-0.8,1.1-2.3,2.1-4.3,2.1c-2.9,0-4.3-2-4.3-4.1c0-3.4,3-5.3,8.5-5.3v-0.3
			c0-1.2-0.3-3.3-3.2-3.3c-1.3,0-2.7,0.4-3.7,1l-0.6-1.7c1.2-0.8,2.9-1.3,4.6-1.3c4.3,0,5.4,2.9,5.4,5.8v5.3c0,1.2,0.1,2.4,0.2,3.4
			H180.1z M179.7,475.5c-2.8-0.1-6,0.4-6,3.2c0,1.7,1.1,2.5,2.4,2.5c1.8,0,3-1.2,3.4-2.4c0.1-0.3,0.1-0.6,0.1-0.8V475.5z"/>
		<path class="st2" d="M185.7,480.1c0.8,0.5,2.1,1,3.4,1c1.9,0,2.7-0.9,2.7-2.1c0-1.2-0.7-1.9-2.6-2.6c-2.5-0.9-3.7-2.3-3.7-4
			c0-2.3,1.8-4.1,4.9-4.1c1.4,0,2.7,0.4,3.5,0.9l-0.6,1.9c-0.6-0.3-1.6-0.8-2.9-0.8c-1.5,0-2.4,0.9-2.4,1.9c0,1.2,0.8,1.7,2.7,2.4
			c2.4,0.9,3.7,2.2,3.7,4.3c0,2.5-1.9,4.2-5.3,4.2c-1.5,0-3-0.4-4-1L185.7,480.1z"/>
		<path class="st2" d="M213.2,482.2c-0.7,0.4-2.2,0.8-4,0.8c-4.3,0-7-2.9-7-7.2c0-4.3,3-7.5,7.6-7.5c1.5,0,2.9,0.4,3.6,0.7l-0.6,2
			c-0.6-0.3-1.6-0.7-3-0.7c-3.2,0-5,2.4-5,5.3c0,3.3,2.1,5.3,4.9,5.3c1.5,0,2.4-0.4,3.1-0.7L213.2,482.2z"/>
		<path class="st2" d="M215.9,462h2.6v8.8h0.1c0.4-0.7,1-1.4,1.8-1.8c0.8-0.4,1.7-0.7,2.6-0.7c1.9,0,4.9,1.2,4.9,6v8.4h-2.6v-8.1
			c0-2.3-0.8-4.2-3.3-4.2c-1.7,0-3,1.2-3.4,2.6c-0.1,0.3-0.2,0.7-0.2,1.2v8.5h-2.6V462z"/>
		<path class="st2" d="M239.5,482.7l-0.2-1.8h-0.1c-0.8,1.1-2.3,2.1-4.3,2.1c-2.9,0-4.3-2-4.3-4.1c0-3.4,3-5.3,8.5-5.3v-0.3
			c0-1.2-0.3-3.3-3.2-3.3c-1.3,0-2.7,0.4-3.7,1l-0.6-1.7c1.2-0.8,2.9-1.3,4.6-1.3c4.3,0,5.4,2.9,5.4,5.8v5.3c0,1.2,0.1,2.4,0.2,3.4
			H239.5z M239.2,475.5c-2.8-0.1-6,0.4-6,3.2c0,1.7,1.1,2.5,2.4,2.5c1.8,0,3-1.2,3.4-2.4c0.1-0.3,0.1-0.6,0.1-0.8V475.5z"/>
		<path class="st2" d="M245.5,473c0-1.7,0-3.1-0.1-4.4h2.2l0.1,2.8h0.1c0.6-1.9,2.2-3.1,3.9-3.1c0.3,0,0.5,0,0.7,0.1v2.4
			c-0.3-0.1-0.5-0.1-0.9-0.1c-1.8,0-3.1,1.4-3.4,3.3c-0.1,0.4-0.1,0.8-0.1,1.2v7.5h-2.5V473z"/>
		<path class="st2" d="M266.6,468.6c-0.1,1-0.1,2.2-0.1,3.9v8.2c0,3.2-0.6,5.2-2,6.4c-1.4,1.3-3.3,1.7-5.1,1.7
			c-1.7,0-3.6-0.4-4.7-1.2l0.6-2c0.9,0.6,2.4,1.1,4.1,1.1c2.6,0,4.5-1.4,4.5-4.9v-1.6h-0.1c-0.8,1.3-2.3,2.4-4.5,2.4
			c-3.5,0-6-3-6-6.9c0-4.8,3.1-7.5,6.3-7.5c2.4,0,3.8,1.3,4.4,2.5h0.1l0.1-2.1H266.6z M264,474.1c0-0.4,0-0.8-0.1-1.2
			c-0.5-1.5-1.7-2.7-3.6-2.7c-2.4,0-4.2,2.1-4.2,5.3c0,2.8,1.4,5.1,4.2,5.1c1.6,0,3-1,3.6-2.6c0.1-0.4,0.2-0.9,0.2-1.4V474.1z"/>
		<path class="st2" d="M271.9,476.1c0.1,3.5,2.3,4.9,4.8,4.9c1.8,0,2.9-0.3,3.9-0.7l0.4,1.8c-0.9,0.4-2.4,0.9-4.7,0.9
			c-4.3,0-6.9-2.9-6.9-7.1s2.5-7.6,6.6-7.6c4.6,0,5.8,4.1,5.8,6.7c0,0.5-0.1,0.9-0.1,1.2H271.9z M279.4,474.3c0-1.6-0.7-4.2-3.6-4.2
			c-2.6,0-3.7,2.4-3.9,4.2H279.4z"/>
		<path class="st2" d="M296.9,462V479c0,1.3,0,2.7,0.1,3.6h-2.3l-0.1-2.5h-0.1c-0.8,1.6-2.5,2.8-4.8,2.8c-3.4,0-6-2.9-6-7.2
			c0-4.7,2.9-7.6,6.3-7.6c2.2,0,3.6,1,4.3,2.2h0.1V462H296.9z M294.3,474.3c0-0.3,0-0.8-0.1-1.1c-0.4-1.6-1.8-3-3.7-3
			c-2.6,0-4.2,2.3-4.2,5.5c0,2.9,1.4,5.2,4.2,5.2c1.7,0,3.3-1.1,3.8-3.1c0.1-0.4,0.1-0.7,0.1-1.1V474.3z"/>
		<path class="st2" d="M314.5,482.7l-0.2-1.8h-0.1c-0.8,1.1-2.3,2.1-4.3,2.1c-2.9,0-4.3-2-4.3-4.1c0-3.4,3-5.3,8.5-5.3v-0.3
			c0-1.2-0.3-3.3-3.2-3.3c-1.3,0-2.7,0.4-3.7,1l-0.6-1.7c1.2-0.8,2.9-1.3,4.6-1.3c4.3,0,5.4,2.9,5.4,5.8v5.3c0,1.2,0.1,2.4,0.2,3.4
			H314.5z M314.2,475.5c-2.8-0.1-6,0.4-6,3.2c0,1.7,1.1,2.5,2.4,2.5c1.8,0,3-1.2,3.4-2.4c0.1-0.3,0.1-0.6,0.1-0.8V475.5z"/>
		<path class="st2" d="M323.5,464.5v4.1h3.7v2h-3.7v7.6c0,1.8,0.5,2.7,1.9,2.7c0.7,0,1.2-0.1,1.5-0.2l0.1,1.9
			c-0.5,0.2-1.3,0.4-2.3,0.4c-1.2,0-2.2-0.4-2.8-1.1c-0.7-0.8-1-2-1-3.7v-7.7h-2.2v-2h2.2v-3.4L323.5,464.5z"/>
		<path class="st2" d="M337,476.1c0.1,3.5,2.3,4.9,4.8,4.9c1.8,0,2.9-0.3,3.9-0.7l0.4,1.8c-0.9,0.4-2.4,0.9-4.7,0.9
			c-4.3,0-6.9-2.9-6.9-7.1s2.5-7.6,6.6-7.6c4.6,0,5.8,4.1,5.8,6.7c0,0.5-0.1,0.9-0.1,1.2H337z M344.5,474.3c0-1.6-0.7-4.2-3.6-4.2
			c-2.6,0-3.7,2.4-3.9,4.2H344.5z"/>
		<path class="st2" d="M357.7,482.7l-0.2-1.8h-0.1c-0.8,1.1-2.3,2.1-4.3,2.1c-2.9,0-4.3-2-4.3-4.1c0-3.4,3-5.3,8.5-5.3v-0.3
			c0-1.2-0.3-3.3-3.2-3.3c-1.3,0-2.7,0.4-3.7,1l-0.6-1.7c1.2-0.8,2.9-1.3,4.6-1.3c4.3,0,5.4,2.9,5.4,5.8v5.3c0,1.2,0.1,2.4,0.2,3.4
			H357.7z M357.3,475.5c-2.8-0.1-6,0.4-6,3.2c0,1.7,1.1,2.5,2.4,2.5c1.8,0,3-1.2,3.4-2.4c0.1-0.3,0.1-0.6,0.1-0.8V475.5z"/>
		<path class="st2" d="M373.7,482.2c-0.7,0.4-2.2,0.8-4,0.8c-4.3,0-7-2.9-7-7.2c0-4.3,3-7.5,7.6-7.5c1.5,0,2.9,0.4,3.6,0.7l-0.6,2
			c-0.6-0.3-1.6-0.7-3-0.7c-3.2,0-5,2.4-5,5.3c0,3.3,2.1,5.3,4.9,5.3c1.5,0,2.4-0.4,3.1-0.7L373.7,482.2z"/>
		<path class="st2" d="M376.4,462h2.6v8.8h0.1c0.4-0.7,1-1.4,1.8-1.8c0.8-0.4,1.7-0.7,2.6-0.7c1.9,0,4.9,1.2,4.9,6v8.4h-2.6v-8.1
			c0-2.3-0.8-4.2-3.3-4.2c-1.7,0-3,1.2-3.4,2.6c-0.1,0.3-0.2,0.7-0.2,1.2v8.5h-2.6V462z"/>
		<path class="st2" d="M410.9,475.5c0,5.2-3.6,7.5-7,7.5c-3.8,0-6.8-2.8-6.8-7.3c0-4.7,3.1-7.5,7-7.5
			C408.1,468.3,410.9,471.2,410.9,475.5z M399.7,475.7c0,3.1,1.8,5.4,4.3,5.4c2.4,0,4.3-2.3,4.3-5.5c0-2.4-1.2-5.4-4.2-5.4
			C401,470.2,399.7,473,399.7,475.7z"/>
		<path class="st2" d="M414.1,482.7v-12.2h-2v-2h2v-0.7c0-2,0.4-3.8,1.6-4.9c1-0.9,2.2-1.3,3.4-1.3c0.9,0,1.7,0.2,2.2,0.4l-0.3,2
			c-0.4-0.2-0.9-0.3-1.6-0.3c-2.2,0-2.7,1.9-2.7,4.1v0.8h3.4v2h-3.4v12.2H414.1z"/>
		<path class="st2" d="M431,464.5v4.1h3.7v2H431v7.6c0,1.8,0.5,2.7,1.9,2.7c0.7,0,1.2-0.1,1.5-0.2l0.1,1.9c-0.5,0.2-1.3,0.4-2.3,0.4
			c-1.2,0-2.2-0.4-2.8-1.1c-0.7-0.8-1-2-1-3.7v-7.7h-2.2v-2h2.2v-3.4L431,464.5z"/>
		<path class="st2" d="M437.2,462h2.6v8.8h0.1c0.4-0.7,1-1.4,1.8-1.8c0.8-0.4,1.7-0.7,2.6-0.7c1.9,0,4.9,1.2,4.9,6v8.4h-2.6v-8.1
			c0-2.3-0.8-4.2-3.3-4.2c-1.7,0-3,1.2-3.4,2.6c-0.1,0.3-0.2,0.7-0.2,1.2v8.5h-2.6V462z"/>
		<path class="st2" d="M454.5,476.1c0.1,3.5,2.3,4.9,4.8,4.9c1.8,0,2.9-0.3,3.9-0.7l0.4,1.8c-0.9,0.4-2.4,0.9-4.7,0.9
			c-4.3,0-6.9-2.9-6.9-7.1s2.5-7.6,6.6-7.6c4.6,0,5.8,4.1,5.8,6.7c0,0.5-0.1,0.9-0.1,1.2H454.5z M462,474.3c0-1.6-0.7-4.2-3.6-4.2
			c-2.6,0-3.7,2.4-3.9,4.2H462z"/>
		<path class="st2" d="M6.9,499.5v4.1h3.7v2H6.9v7.6c0,1.8,0.5,2.7,1.9,2.7c0.7,0,1.2-0.1,1.5-0.2l0.1,1.9c-0.5,0.2-1.3,0.4-2.3,0.4
			c-1.2,0-2.2-0.4-2.8-1.1c-0.7-0.8-1-2-1-3.7v-7.7H2.2v-2h2.2v-3.4L6.9,499.5z"/>
		<path class="st2" d="M13.2,497h2.6v8.8h0.1c0.4-0.7,1-1.4,1.8-1.8c0.8-0.4,1.7-0.7,2.6-0.7c1.9,0,4.9,1.2,4.9,6v8.4h-2.6v-8.1
			c0-2.3-0.8-4.2-3.3-4.2c-1.7,0-3,1.2-3.4,2.6c-0.1,0.3-0.2,0.7-0.2,1.2v8.5h-2.6V497z"/>
		<path class="st2" d="M29,508c0-1.7,0-3.1-0.1-4.4h2.2l0.1,2.8h0.1c0.6-1.9,2.2-3.1,3.9-3.1c0.3,0,0.5,0,0.7,0.1v2.4
			c-0.3-0.1-0.5-0.1-0.9-0.1c-1.8,0-3.1,1.4-3.4,3.3c-0.1,0.4-0.1,0.8-0.1,1.2v7.5H29V508z"/>
		<path class="st2" d="M39.4,511.1c0.1,3.5,2.3,4.9,4.8,4.9c1.8,0,2.9-0.3,3.9-0.7l0.4,1.8c-0.9,0.4-2.4,0.9-4.7,0.9
			c-4.3,0-6.9-2.9-6.9-7.1s2.5-7.6,6.6-7.6c4.6,0,5.8,4.1,5.8,6.7c0,0.5-0.1,0.9-0.1,1.2H39.4z M46.9,509.3c0-1.6-0.7-4.2-3.6-4.2
			c-2.6,0-3.7,2.4-3.9,4.2H46.9z"/>
		<path class="st2" d="M53.7,511.1c0.1,3.5,2.3,4.9,4.8,4.9c1.8,0,2.9-0.3,3.9-0.7l0.4,1.8c-0.9,0.4-2.4,0.9-4.7,0.9
			c-4.3,0-6.9-2.9-6.9-7.1s2.5-7.6,6.6-7.6c4.6,0,5.8,4.1,5.8,6.7c0,0.5-0.1,0.9-0.1,1.2H53.7z M61.2,509.3c0-1.6-0.7-4.2-3.6-4.2
			c-2.6,0-3.7,2.4-3.9,4.2H61.2z"/>
		<path class="st2" d="M72.4,508.2c0-1.8-0.1-3.3-0.1-4.6h2.3l0.1,2.4h0.1c1-1.7,2.7-2.7,5-2.7c3.4,0,6,2.9,6,7.2
			c0,5.1-3.1,7.6-6.4,7.6c-1.9,0-3.5-0.8-4.3-2.2H75v7.7h-2.5V508.2z M75,511.9c0,0.4,0.1,0.7,0.1,1c0.5,1.8,2,3,3.8,3
			c2.7,0,4.3-2.2,4.3-5.5c0-2.8-1.5-5.3-4.2-5.3c-1.7,0-3.4,1.3-3.9,3.2c-0.1,0.3-0.2,0.7-0.2,1.1V511.9z"/>
		<path class="st2" d="M88.7,508c0-1.7,0-3.1-0.1-4.4h2.2l0.1,2.8H91c0.6-1.9,2.2-3.1,3.9-3.1c0.3,0,0.5,0,0.7,0.1v2.4
			c-0.3-0.1-0.5-0.1-0.9-0.1c-1.8,0-3.1,1.4-3.4,3.3c-0.1,0.4-0.1,0.8-0.1,1.2v7.5h-2.5V508z"/>
		<path class="st2" d="M100.9,499.6c0,0.9-0.6,1.6-1.6,1.6c-0.9,0-1.5-0.7-1.5-1.6c0-0.9,0.7-1.6,1.6-1.6
			C100.3,498,100.9,498.7,100.9,499.6z M98,517.7v-14.1h2.6v14.1H98z"/>
		<path class="st2" d="M114.6,517.2c-0.7,0.4-2.2,0.8-4,0.8c-4.3,0-7-2.9-7-7.2c0-4.3,3-7.5,7.6-7.5c1.5,0,2.9,0.4,3.6,0.7l-0.6,2
			c-0.6-0.3-1.6-0.7-3-0.7c-3.2,0-5,2.4-5,5.3c0,3.3,2.1,5.3,4.9,5.3c1.5,0,2.4-0.4,3.1-0.7L114.6,517.2z"/>
		<path class="st2" d="M118.6,511.1c0.1,3.5,2.3,4.9,4.8,4.9c1.8,0,2.9-0.3,3.9-0.7l0.4,1.8c-0.9,0.4-2.4,0.9-4.7,0.9
			c-4.3,0-6.9-2.9-6.9-7.1s2.5-7.6,6.6-7.6c4.6,0,5.8,4.1,5.8,6.7c0,0.5-0.1,0.9-0.1,1.2H118.6z M126.1,509.3c0-1.6-0.7-4.2-3.6-4.2
			c-2.6,0-3.7,2.4-3.9,4.2H126.1z"/>
		<path class="st2" d="M140.4,499.5v4.1h3.7v2h-3.7v7.6c0,1.8,0.5,2.7,1.9,2.7c0.7,0,1.2-0.1,1.5-0.2l0.1,1.9
			c-0.5,0.2-1.3,0.4-2.3,0.4c-1.2,0-2.2-0.4-2.8-1.1c-0.7-0.8-1-2-1-3.7v-7.7h-2.2v-2h2.2v-3.4L140.4,499.5z"/>
		<path class="st2" d="M149.5,499.6c0,0.9-0.6,1.6-1.6,1.6c-0.9,0-1.5-0.7-1.5-1.6c0-0.9,0.7-1.6,1.6-1.6
			C148.9,498,149.5,498.7,149.5,499.6z M146.7,517.7v-14.1h2.6v14.1H146.7z"/>
		<path class="st2" d="M154.6,511.1c0.1,3.5,2.3,4.9,4.8,4.9c1.8,0,2.9-0.3,3.9-0.7l0.4,1.8c-0.9,0.4-2.4,0.9-4.7,0.9
			c-4.3,0-6.9-2.9-6.9-7.1s2.5-7.6,6.6-7.6c4.6,0,5.8,4.1,5.8,6.7c0,0.5-0.1,0.9-0.1,1.2H154.6z M162.1,509.3c0-1.6-0.7-4.2-3.6-4.2
			c-2.6,0-3.7,2.4-3.9,4.2H162.1z"/>
		<path class="st2" d="M167.5,508c0-1.7,0-3.1-0.1-4.4h2.2l0.1,2.8h0.1c0.6-1.9,2.2-3.1,3.9-3.1c0.3,0,0.5,0,0.7,0.1v2.4
			c-0.3-0.1-0.5-0.1-0.9-0.1c-1.8,0-3.1,1.4-3.4,3.3c-0.1,0.4-0.1,0.8-0.1,1.2v7.5h-2.5V508z"/>
		<path class="st2" d="M176.3,515.1c0.8,0.5,2.1,1,3.4,1c1.9,0,2.7-0.9,2.7-2.1c0-1.2-0.7-1.9-2.6-2.6c-2.5-0.9-3.7-2.3-3.7-4
			c0-2.3,1.8-4.1,4.9-4.1c1.4,0,2.7,0.4,3.5,0.9l-0.6,1.9c-0.6-0.3-1.6-0.8-2.9-0.8c-1.5,0-2.4,0.9-2.4,1.9c0,1.2,0.8,1.7,2.7,2.4
			c2.4,0.9,3.7,2.2,3.7,4.3c0,2.5-1.9,4.2-5.3,4.2c-1.5,0-3-0.4-4-1L176.3,515.1z"/>
		<path class="st2" d="M187,516.2c0-1.1,0.7-1.8,1.7-1.8s1.7,0.8,1.7,1.8c0,1-0.7,1.8-1.7,1.8C187.7,518,187,517.2,187,516.2z"/>
	</g>
	<rect x="521.1" y="367.9" class="st3" width="527.1" height="180.6"/>
	<g>
		<g>
			<path class="st4" d="M542.4,75.9h8.3c4,0,6.3,2.5,6.3,5.6c0,2-1.2,3.4-3,4c2.9,0.7,4.4,2.7,4.4,5.3c0,3.8-2.7,6.6-7.2,6.6h-8.7
				V75.9z M550.3,83.8c1.4,0,2.4-0.8,2.4-2c0-1.2-0.8-2-2.1-2h-3.6v4.1H550.3z M550.9,93.5c1.8,0,2.9-1.2,2.9-3
				c0-1.7-1.2-2.9-3.2-2.9h-3.8v5.9H550.9z"/>
			<path class="st4" d="M561.8,75.9h4.4v21.5h-4.4V75.9z"/>
			<path class="st4" d="M570.7,75.9h4.4v17.6h9.7v3.9h-14.1V75.9z"/>
			<path class="st4" d="M588.5,75.9h4.4v17.6h9.7v3.9h-14.1V75.9z"/>
			<path class="st4" d="M606.3,75.9h4.4v21.5h-4.4V75.9z"/>
			<path class="st4" d="M621.6,87.4c-1.1-1-2.6-2.9-2.6-2.9s0.3,2.4,0.3,3.9v9h-4.1V75.7h0.4l10.8,10.2c1,1,2.5,2.9,2.5,2.9
				s-0.3-2.4-0.3-3.9v-9h4.1v21.7h-0.4L621.6,87.4z"/>
			<path class="st4" d="M636.6,86.7c0-6.4,4.5-11,11-11c3.5,0,6,0.9,7.8,3l-3,3c-1.1-1.1-2.3-2-4.8-2c-3.9,0-6.4,3-6.4,7
				s2.6,7.1,7.1,7.1c1.4,0,3.1-0.3,4.2-0.8v-3.2h-5.2v-3.9h9.2v9.3c-1.2,1-4.3,2.5-8.2,2.5C641.3,97.7,636.6,93,636.6,86.7z"/>
			<path class="st4" d="M667.7,75.9h6.6c6.6,0,11.3,4.4,11.3,10.8c0,6.4-4.7,10.8-11.3,10.8h-6.6V75.9z M674.1,93.5
				c4.8,0,6.9-2.8,6.9-6.9s-2.2-6.9-6.9-6.9h-2v13.7H674.1z"/>
			<path class="st4" d="M689.3,75.9h14.2v3.9h-9.8v6.8h8.6v3.8h-8.6v3.1H704v3.9h-14.6V75.9z"/>
			<path class="st4" d="M713,79.8h-6.1v-3.9h16.7v3.9h-6.1v17.6H713V79.8z"/>
			<path class="st4" d="M731.6,75.7h0.4l9.8,21.7h-4.6l-1-2.4h-8.7l-1,2.4h-4.3L731.6,75.7z M734.6,91.3l-1.5-3.7
				c-0.6-1.5-1.3-3.9-1.3-3.9s-0.6,2.3-1.3,3.9l-1.5,3.7H734.6z"/>
			<path class="st4" d="M744.8,75.9h4.4v21.5h-4.4V75.9z"/>
			<path class="st4" d="M753.8,75.9h4.4v17.6h9.7v3.9h-14.1V75.9z"/>
			<path class="st1" d="M547.2,131.1h0.3l6.9,15.2h-3.2l-0.7-1.7h-6.1l-0.7,1.7h-3L547.2,131.1z M549.3,141.9l-1.1-2.6
				c-0.4-1.1-0.9-2.7-0.9-2.7s-0.4,1.6-0.9,2.7l-1.1,2.6H549.3z"/>
			<path class="st1" d="M556.4,131h0.2l7.4,8.1l7.3-8.1h0.3v15.2h-3v-5.6c0-1,0.1-2.6,0.1-2.6s-0.9,1.3-1.6,2.1l-3,3.3h-0.3l-3-3.3
				c-0.7-0.8-1.6-2.1-1.6-2.1s0.1,1.6,0.1,2.6v5.6h-3V131z"/>
			<path class="st1" d="M574.2,138.7c0-4.4,3.4-7.7,7.8-7.7c4.3,0,7.8,3.3,7.8,7.7c0,4.4-3.4,7.7-7.8,7.7
				C577.7,146.4,574.2,143.2,574.2,138.7z M586.6,138.7c0-2.8-1.9-5-4.6-5c-2.7,0-4.6,2.1-4.6,5c0,2.8,1.9,5,4.6,5
				C584.7,143.7,586.6,141.5,586.6,138.7z"/>
			<path class="st1" d="M592.3,140.8v-9.6h3.1v9.4c0,2.2,0.9,3,3,3c2,0,3-0.8,3-3v-9.4h3.1v9.6c0,3.8-2.6,5.6-6,5.6
				C594.9,146.4,592.3,144.6,592.3,140.8z"/>
			<path class="st1" d="M612,139.3c-0.8-0.7-1.8-2.1-1.8-2.1s0.2,1.7,0.2,2.7v6.3h-2.9v-15.2h0.3l7.6,7.1c0.7,0.7,1.8,2.1,1.8,2.1
				s-0.2-1.7-0.2-2.7v-6.3h2.9v15.2h-0.3L612,139.3z"/>
			<path class="st1" d="M626.4,133.9h-4.3v-2.7h11.7v2.7h-4.3v12.3h-3.1V133.9z"/>
			<path class="st1" d="M640.4,138.7c0-4.4,3.4-7.7,7.8-7.7c4.3,0,7.8,3.3,7.8,7.7c0,4.4-3.4,7.7-7.8,7.7
				C643.8,146.4,640.4,143.2,640.4,138.7z M652.8,138.7c0-2.8-1.9-5-4.6-5c-2.7,0-4.6,2.1-4.6,5c0,2.8,1.9,5,4.6,5
				C650.9,143.7,652.8,141.5,652.8,138.7z"/>
			<path class="st1" d="M656.5,131.2h3.3l2.2,6c0.4,1,0.8,2.7,0.8,2.7s0.4-1.7,0.9-2.7l2.9-6.2h0.3l2.9,6.2c0.5,1,0.9,2.7,0.9,2.7
				s0.4-1.7,0.8-2.7l2.2-6h3l-5.4,15.2h-0.3l-3.4-7.3c-0.4-0.8-0.8-2.2-0.8-2.2s-0.5,1.4-0.9,2.2l-3.5,7.3H662L656.5,131.2z"/>
			<path class="st1" d="M678.7,131.2h9.9v2.7h-6.8v4.8h6v2.7h-6v2.2h7.1v2.7h-10.2V131.2z"/>
			<path class="st1" d="M691.8,131.2h4.6c4.6,0,7.9,3.1,7.9,7.5c0,4.4-3.3,7.5-7.9,7.5h-4.6V131.2z M696.3,143.5
				c3.3,0,4.9-2,4.9-4.8c0-2.8-1.5-4.8-4.9-4.8h-1.4v9.6H696.3z"/>
			<path class="st1" d="M711.8,131.2h9.7v2.7h-6.6v5h6v2.8h-6v4.6h-3.1V131.2z"/>
			<path class="st1" d="M735.2,146.2h-3.6l-2.5-3.8c-0.3,0-0.6,0.1-0.9,0.1h-1.1v3.7h-3.1v-15h4.1c4.2,0,6.7,2,6.7,5.7
				c0,2.3-1,3.8-2.9,4.7L735.2,146.2z M728.1,139.8c2.5,0,3.6-0.8,3.6-2.9s-1.1-3-3.6-3h-1v5.9H728.1z"/>
			<path class="st1" d="M737.1,138.7c0-4.4,3.4-7.7,7.8-7.7c4.3,0,7.8,3.3,7.8,7.7c0,4.4-3.4,7.7-7.8,7.7
				C740.6,146.4,737.1,143.2,737.1,138.7z M749.5,138.7c0-2.8-1.9-5-4.6-5c-2.7,0-4.6,2.1-4.6,5c0,2.8,1.9,5,4.6,5
				C747.6,143.7,749.5,141.5,749.5,138.7z"/>
			<path class="st1" d="M755.3,131h0.2l7.4,8.1l7.3-8.1h0.3v15.2h-3v-5.6c0-1,0.1-2.6,0.1-2.6s-0.9,1.3-1.6,2.1l-3,3.3h-0.3l-3-3.3
				c-0.7-0.8-1.6-2.1-1.6-2.1s0.1,1.6,0.1,2.6v5.6h-3V131z"/>
			<path class="st1" d="M778.5,131.2h3.1v12.3h6.8v2.7h-9.9V131.2z"/>
			<path class="st1" d="M796.3,131.1h0.3l6.9,15.2h-3.2l-0.7-1.7h-6.1l-0.7,1.7h-3L796.3,131.1z M798.4,141.9l-1.1-2.6
				c-0.4-1.1-0.9-2.7-0.9-2.7s-0.4,1.6-0.9,2.7l-1.1,2.6H798.4z"/>
			<path class="st1" d="M804.1,143.3l2.5-1.5c0.7,1.1,1.5,1.9,3,1.9c1.3,0,2.1-0.6,2.1-1.5c0-1.1-0.8-1.4-2.3-2.1l-0.8-0.3
				c-2.2-1-3.7-2.1-3.7-4.7c0-2.3,1.8-4.1,4.5-4.1c2,0,3.4,0.7,4.4,2.5l-2.4,1.5c-0.5-1-1.1-1.3-2-1.3c-0.9,0-1.5,0.6-1.5,1.3
				c0,0.9,0.6,1.3,1.9,1.9l0.8,0.3c2.6,1.1,4.1,2.3,4.1,4.9c0,2.8-2.2,4.3-5.1,4.3C806.9,146.4,805,145.1,804.1,143.3z"/>
			<path class="st1" d="M820.2,133.9h-4.3v-2.7h11.6v2.7h-4.3v12.3h-3.1V133.9z"/>
			<path class="st1" d="M834.7,131.2h5.8c2.8,0,4.4,1.8,4.4,3.9c0,1.4-0.8,2.3-2.1,2.8c2.1,0.5,3,1.9,3,3.7c0,2.7-1.9,4.6-5,4.6
				h-6.1V131.2z M840.2,136.8c1,0,1.7-0.6,1.7-1.4s-0.6-1.4-1.5-1.4h-2.5v2.8H840.2z M840.7,143.5c1.3,0,2.1-0.8,2.1-2.1
				c0-1.2-0.8-2.1-2.2-2.1h-2.7v4.1H840.7z"/>
			<path class="st1" d="M848.3,131.2h3.1v15h-3.1V131.2z"/>
			<path class="st1" d="M854.5,131.2h3.1v12.3h6.8v2.7h-9.9V131.2z"/>
			<path class="st1" d="M866.9,131.2h3.1v12.3h6.8v2.7h-9.9V131.2z"/>
			<path class="st1" d="M969.1,143.7l2.2-1.2c0.4,0.7,1,1.4,2.3,1.6c0,0,0-2.6,0-2.5c-2.8-0.7-3.8-1.9-3.8-3.6s1.2-3.3,3.8-3.4v-2.2
				h1.5v2.3c1.7,0.3,2.8,1.2,3.4,1.9l-1.9,1.5c-0.2-0.4-0.7-0.8-1.5-1.1v2.2c2.7,0.6,4.1,1.9,4.1,3.7c0,2.2-1.3,3.4-4.1,3.6v2.4
				h-1.5v-2.4C971.1,146.2,969.7,144.8,969.1,143.7z M972.5,137.7c0,0.5,0.2,0.8,1.1,1.1v-2C972.8,136.8,972.5,137.2,972.5,137.7z
				 M976.5,143.1c0-0.5-0.2-1-1.3-1.3v2.3C976.2,144,976.5,143.6,976.5,143.1z"/>
			<path class="st1" d="M982.3,137.2H980v-2.5h5.2v11.5h-3V137.2z"/>
			<path class="st1" d="M987.1,145.4l2.6-1.3c0.5,1.3,1.4,1.8,2.6,1.8c1.2,0,2.2-0.8,2.2-2.3c0-1.4-1.1-2.2-2.5-2.2
				c-1,0-1.5,0.2-1.9,0.4l-0.2-0.3l2.6-3.6c0.4-0.5,0.8-0.9,0.8-0.9s-0.7,0.1-1.3,0.1h-3.5v-2.5h9v0.2l-2.7,3.8
				c-0.3,0.4-0.6,0.7-0.6,0.7c1.9,0.4,3.6,1.9,3.6,4.3c0,2.5-1.7,4.9-5.3,4.9C989.5,148.5,987.9,147.1,987.1,145.4z"/>
			<path class="st1" d="M998.7,145.6l2.6-1.3c0.3,0.9,1,1.6,2.3,1.6c1.3,0,2-0.9,2-2c0-1.2-0.8-2.1-2.3-2.1c-1.3,0-2.3,0.6-2.9,1.1
				l-0.3-0.1v-8.1h7.5v2.5h-5v2.4c0.3-0.2,0.9-0.3,1.6-0.3c2.8,0,4.6,2.1,4.6,4.6c0,2.5-1.7,4.6-5.2,4.6
				C1000.9,148.5,999.3,147.1,998.7,145.6z"/>
			<path class="st1" d="M1010.4,144.5c0-1.1,0.9-1.9,1.9-1.9c1,0,1.9,0.8,1.9,1.9c0,1.1-0.9,1.9-1.9,1.9
				C1011.3,146.4,1010.4,145.6,1010.4,144.5z"/>
			<path class="st1" d="M1015.8,142.1c0-1.8,1.1-3,2.6-3.6c-0.9-0.5-1.6-1.3-1.6-2.5c0-1.7,1.5-3.4,4.2-3.4c2.7,0,4.1,1.8,4.1,3.4
				c0,1.2-0.7,2-1.5,2.5c1.5,0.6,2.6,1.7,2.6,3.6c0,2.6-2.1,4.4-5.2,4.4C1018,146.5,1015.8,144.6,1015.8,142.1z M1023,141.8
				c0-1.1-0.8-2.1-2.1-2.1c-1.3,0-2.1,1-2.1,2.1c0,1.1,0.8,2,2.1,2C1022.3,143.8,1023,142.9,1023,141.8z M1022.2,136.2
				c0-0.7-0.5-1.2-1.2-1.2s-1.2,0.5-1.2,1.2c0,0.7,0.6,1.2,1.2,1.2S1022.2,136.9,1022.2,136.2z"/>
			<path class="st1" d="M1027.7,140.4c0-3.5,2.9-5.9,6.1-5.9c3.2,0,6.1,2.4,6.1,5.9c0,3.5-2.9,6-6.1,6
				C1030.6,146.4,1027.7,143.9,1027.7,140.4z M1036.8,140.4c0-2.1-1.3-3.3-3-3.3c-1.7,0-3,1.2-3,3.3s1.3,3.3,3,3.3
				C1035.5,143.8,1036.8,142.5,1036.8,140.4z"/>
			<path class="st1" d="M545.2,182.7h-4.3V180h11.6v2.7h-4.3v12.3h-3.1V182.7z"/>
			<path class="st1" d="M553.4,187.5c0-4.4,3.4-7.7,7.8-7.7c4.3,0,7.8,3.3,7.8,7.7c0,4.4-3.4,7.7-7.8,7.7
				C556.9,195.3,553.4,192,553.4,187.5z M565.8,187.5c0-2.8-1.9-5-4.6-5c-2.7,0-4.6,2.1-4.6,5c0,2.8,1.9,5,4.6,5
				C563.9,192.5,565.8,190.3,565.8,187.5z"/>
			<path class="st1" d="M574.1,182.7h-4.3V180h11.6v2.7h-4.3v12.3h-3.1V182.7z"/>
			<path class="st1" d="M587.2,179.9h0.3l6.9,15.2H591l-0.7-1.7h-6.1l-0.7,1.7h-3L587.2,179.9z M589.2,190.8l-1.1-2.6
				c-0.4-1.1-0.9-2.7-0.9-2.7s-0.4,1.6-0.9,2.7l-1.1,2.6H589.2z"/>
			<path class="st1" d="M596.3,180h3.1v12.3h6.8v2.7h-9.9V180z"/>
			<path class="st1" d="M613.6,180h4.1c4.2,0,6.7,2.2,6.7,5.8s-2.5,5.8-6.7,5.8h-1.1v3.4h-3.1V180z M617.6,188.9
				c2.5,0,3.6-1,3.6-3.1c0-2.1-1.1-3.1-3.6-3.1h-1v6.2H617.6z"/>
			<path class="st1" d="M630.7,179.9h0.3l6.9,15.2h-3.2l-0.7-1.7h-6.1l-0.7,1.7h-3L630.7,179.9z M632.8,190.8l-1.1-2.6
				c-0.4-1.1-0.9-2.7-0.9-2.7s-0.4,1.6-0.9,2.7l-1.1,2.6H632.8z"/>
			<path class="st1" d="M641.8,190.3l-5.7-10.3h3.4l2.6,4.8c0.6,1.1,1.2,2.9,1.2,2.9s0.6-1.8,1.2-2.9l2.5-4.8h3.2l-5.3,10v5h-3.1
				V190.3z"/>
			<path class="st1" d="M652.2,179.9h0.2l7.4,8.1l7.3-8.1h0.3v15.2h-3v-5.6c0-1,0.1-2.6,0.1-2.6s-0.9,1.3-1.6,2.1l-3,3.3h-0.3
				l-3-3.3c-0.7-0.8-1.6-2.1-1.6-2.1s0.1,1.6,0.1,2.6v5.6h-3V179.9z"/>
			<path class="st1" d="M670.5,180h9.9v2.7h-6.8v4.8h6v2.7h-6v2.2h7.1v2.7h-10.2V180z"/>
			<path class="st1" d="M688.1,188.1c-0.8-0.7-1.8-2.1-1.8-2.1s0.2,1.7,0.2,2.7v6.3h-2.9v-15.2h0.3l7.6,7.1c0.7,0.7,1.8,2.1,1.8,2.1
				s-0.2-1.7-0.2-2.7V180h2.9v15.2h-0.3L688.1,188.1z"/>
			<path class="st1" d="M702.5,182.7h-4.3V180h11.7v2.7h-4.3v12.3h-3.1V182.7z"/>
			<path class="st1" d="M710.8,192.1l2.5-1.5c0.7,1.1,1.5,1.9,3,1.9c1.3,0,2.1-0.6,2.1-1.5c0-1.1-0.8-1.4-2.3-2.1l-0.8-0.3
				c-2.2-1-3.7-2.1-3.7-4.7c0-2.3,1.8-4.1,4.5-4.1c2,0,3.4,0.7,4.4,2.5l-2.4,1.5c-0.5-1-1.1-1.3-2-1.3c-0.9,0-1.5,0.6-1.5,1.3
				c0,0.9,0.6,1.3,1.9,1.9l0.8,0.3c2.6,1.1,4.1,2.3,4.1,4.9c0,2.8-2.2,4.3-5.1,4.3C713.5,195.3,711.7,193.9,710.8,192.1z"/>
			<path class="st1" d="M739.9,195.1h-3.6l-2.5-3.8c-0.3,0-0.6,0.1-0.9,0.1h-1.1v3.7h-3.1v-15h4.1c4.2,0,6.7,2,6.7,5.7
				c0,2.3-1,3.8-2.9,4.7L739.9,195.1z M732.9,188.6c2.5,0,3.6-0.8,3.6-2.9s-1.1-3-3.6-3h-1v5.9H732.9z"/>
			<path class="st1" d="M742.4,180h9.9v2.7h-6.8v4.8h6v2.7h-6v2.2h7.1v2.7h-10.2V180z"/>
			<path class="st1" d="M754.7,187.5c0-4.4,3.4-7.7,7.7-7.7c2.7,0,4.7,1,6,3.1l-2.4,1.7c-0.7-1.1-1.9-2-3.6-2
				c-2.7,0-4.5,2.1-4.5,4.9c0,2.8,1.8,5,4.5,5c1.9,0,3-0.9,3.9-2.2l2.4,1.7c-1.3,2-3.4,3.3-6.3,3.3
				C758.2,195.3,754.7,192,754.7,187.5z"/>
			<path class="st1" d="M771,180h9.9v2.7h-6.8v4.8h6v2.7h-6v2.2h7.1v2.7H771V180z"/>
			<path class="st1" d="M784.2,180h3.1v15h-3.1V180z"/>
			<path class="st1" d="M789.4,180h3.3l2.6,5.8c0.6,1.3,1.2,3.4,1.2,3.4s0.6-2.1,1.1-3.4l2.5-5.8h3l-6.6,15.2h-0.3L789.4,180z"/>
			<path class="st1" d="M805.1,180h9.9v2.7h-6.8v4.8h6v2.7h-6v2.2h7.1v2.7h-10.2V180z"/>
			<path class="st1" d="M818.2,180h4.6c4.6,0,7.9,3.1,7.9,7.5c0,4.4-3.3,7.5-7.9,7.5h-4.6V180z M822.7,192.3c3.3,0,4.9-2,4.9-4.8
				c0-2.8-1.5-4.8-4.9-4.8h-1.4v9.6H822.7z"/>
			<path class="st1" d="M966.7,186h-2.2v-2.5h5.2v11.5h-3V186z"/>
			<path class="st1" d="M971.6,194.2l2.6-1.3c0.5,1.3,1.4,1.8,2.6,1.8c1.2,0,2.2-0.8,2.2-2.3c0-1.4-1.1-2.2-2.5-2.2
				c-1,0-1.5,0.2-1.9,0.4l-0.2-0.3l2.6-3.6c0.4-0.5,0.8-0.9,0.8-0.9s-0.7,0.1-1.3,0.1h-3.5v-2.5h9v0.2l-2.7,3.8
				c-0.3,0.4-0.6,0.7-0.6,0.7c1.9,0.4,3.6,1.9,3.6,4.3c0,2.5-1.7,4.9-5.3,4.9C974,197.3,972.4,195.9,971.6,194.2z"/>
			<path class="st1" d="M983.2,194.4l2.6-1.3c0.3,0.9,1,1.6,2.3,1.6c1.3,0,2-0.9,2-2c0-1.2-0.8-2.1-2.3-2.1c-1.3,0-2.3,0.6-2.9,1.1
				l-0.3-0.1v-8.1h7.5v2.5h-5v2.4c0.3-0.2,0.9-0.3,1.6-0.3c2.8,0,4.6,2.1,4.6,4.6c0,2.5-1.7,4.6-5.2,4.6
				C985.4,197.3,983.8,195.9,983.2,194.4z"/>
			<path class="st1" d="M994.9,193.3c0-1.1,0.9-1.9,1.9-1.9c1,0,1.9,0.8,1.9,1.9c0,1.1-0.9,1.9-1.9,1.9
				C995.8,195.2,994.9,194.4,994.9,193.3z"/>
			<path class="st1" d="M1000.3,190.9c0-1.8,1.1-3,2.6-3.6c-0.9-0.5-1.6-1.3-1.6-2.5c0-1.7,1.5-3.4,4.2-3.4c2.7,0,4.1,1.8,4.1,3.4
				c0,1.2-0.7,2-1.5,2.5c1.5,0.6,2.6,1.7,2.6,3.6c0,2.6-2.1,4.4-5.2,4.4C1002.5,195.3,1000.3,193.5,1000.3,190.9z M1007.5,190.6
				c0-1.1-0.8-2.1-2.1-2.1c-1.3,0-2.1,1-2.1,2.1c0,1.1,0.8,2,2.1,2C1006.7,192.6,1007.5,191.8,1007.5,190.6z M1006.7,185
				c0-0.7-0.5-1.2-1.2-1.2c-0.7,0-1.2,0.5-1.2,1.2c0,0.7,0.6,1.2,1.2,1.2C1006.2,186.2,1006.7,185.8,1006.7,185z"/>
			<path class="st1" d="M1012.2,189.3c0-3.5,2.9-5.9,6.1-5.9c3.2,0,6.1,2.4,6.1,5.9c0,3.5-2.9,6-6.1,6
				C1015.1,195.3,1012.2,192.8,1012.2,189.3z M1021.3,189.3c0-2.1-1.3-3.3-3-3.3c-1.7,0-3,1.2-3,3.3s1.3,3.3,3,3.3
				C1020,192.6,1021.3,191.3,1021.3,189.3z"/>
			<path class="st1" d="M552.8,243.9h-3.6l-2.5-3.8c-0.3,0-0.6,0.1-0.9,0.1h-1.1v3.7h-3.1v-15h4.1c4.2,0,6.7,2,6.7,5.7
				c0,2.3-1,3.8-2.9,4.7L552.8,243.9z M545.8,237.4c2.5,0,3.6-0.8,3.6-2.9s-1.1-3-3.6-3h-1v5.9H545.8z"/>
			<path class="st1" d="M555.3,228.8h9.9v2.7h-6.8v4.8h6v2.7h-6v2.2h7.1v2.7h-10.2V228.8z"/>
			<path class="st1" d="M568.4,228.7h0.2l7.4,8.1l7.3-8.1h0.3v15.2h-3v-5.6c0-1,0.1-2.6,0.1-2.6s-0.9,1.3-1.6,2.1l-3,3.3h-0.3
				l-3-3.3c-0.7-0.8-1.6-2.1-1.6-2.1s0.1,1.6,0.1,2.6v5.6h-3V228.7z"/>
			<path class="st1" d="M592.2,228.7h0.3l6.9,15.2h-3.2l-0.7-1.7h-6.1l-0.7,1.7h-3L592.2,228.7z M594.3,239.6l-1.1-2.6
				c-0.4-1.1-0.9-2.7-0.9-2.7s-0.4,1.6-0.9,2.7l-1.1,2.6H594.3z"/>
			<path class="st1" d="M601.4,228.8h3.1v15h-3.1V228.8z"/>
			<path class="st1" d="M612.2,236.9c-0.8-0.7-1.8-2.1-1.8-2.1s0.2,1.7,0.2,2.7v6.3h-2.9v-15.2h0.3l7.6,7.1c0.7,0.7,1.8,2.1,1.8,2.1
				s-0.2-1.7-0.2-2.7v-6.3h2.9V244h-0.3L612.2,236.9z"/>
			<path class="st1" d="M623.2,228.8h3.1v15h-3.1V228.8z"/>
			<path class="st1" d="M634,236.9c-0.8-0.7-1.8-2.1-1.8-2.1s0.2,1.7,0.2,2.7v6.3h-2.9v-15.2h0.3l7.6,7.1c0.7,0.7,1.8,2.1,1.8,2.1
				s-0.2-1.7-0.2-2.7v-6.3h2.9V244h-0.3L634,236.9z"/>
			<path class="st1" d="M644.5,236.4c0-4.4,3.1-7.7,7.7-7.7c2.4,0,4.2,0.7,5.4,2.1l-2.1,2.1c-0.8-0.8-1.6-1.4-3.4-1.4
				c-2.7,0-4.5,2.1-4.5,4.9c0,2.8,1.8,5,5,5c1,0,2.2-0.2,2.9-0.6v-2.2h-3.6v-2.7h6.4v6.5c-0.9,0.7-3,1.7-5.8,1.7
				C647.7,244.1,644.5,240.8,644.5,236.4z"/>
			<path class="st1" d="M666.2,228.8h5.8c2.8,0,4.4,1.8,4.4,3.9c0,1.4-0.8,2.3-2.1,2.8c2.1,0.5,3,1.9,3,3.7c0,2.7-1.9,4.6-5,4.6
				h-6.1V228.8z M671.6,234.4c1,0,1.7-0.6,1.7-1.4s-0.6-1.4-1.5-1.4h-2.5v2.8H671.6z M672.1,241.2c1.3,0,2.1-0.8,2.1-2.1
				c0-1.2-0.8-2.1-2.2-2.1h-2.7v4.1H672.1z"/>
			<path class="st1" d="M684.8,228.7h0.3l6.9,15.2h-3.2l-0.7-1.7h-6.1l-0.7,1.7h-3L684.8,228.7z M686.9,239.6l-1.1-2.6
				c-0.4-1.1-0.9-2.7-0.9-2.7s-0.4,1.6-0.9,2.7l-1.1,2.6H686.9z"/>
			<path class="st1" d="M693.9,228.8h3.1v12.3h6.8v2.7h-9.9V228.8z"/>
			<path class="st1" d="M711.8,228.7h0.3l6.9,15.2h-3.2l-0.7-1.7h-6.1l-0.7,1.7h-3L711.8,228.7z M713.9,239.6l-1.1-2.6
				c-0.4-1.1-0.9-2.7-0.9-2.7s-0.4,1.6-0.9,2.7l-1.1,2.6H713.9z"/>
			<path class="st1" d="M725.4,236.9c-0.8-0.7-1.8-2.1-1.8-2.1s0.2,1.7,0.2,2.7v6.3H721v-15.2h0.3l7.6,7.1c0.7,0.7,1.8,2.1,1.8,2.1
				s-0.2-1.7-0.2-2.7v-6.3h2.9V244H733L725.4,236.9z"/>
			<path class="st1" d="M735.9,236.4c0-4.4,3.4-7.7,7.7-7.7c2.7,0,4.7,1,6,3.1l-2.4,1.7c-0.7-1.1-1.9-2-3.6-2
				c-2.7,0-4.5,2.1-4.5,4.9c0,2.8,1.8,5,4.5,5c1.9,0,3-0.9,3.9-2.2l2.4,1.7c-1.3,2-3.4,3.3-6.3,3.3
				C739.3,244.1,735.9,240.8,735.9,236.4z"/>
			<path class="st1" d="M752.2,228.8h9.9v2.7h-6.8v4.8h6v2.7h-6v2.2h7.1v2.7h-10.2V228.8z"/>
			<path class="st1" d="M964.7,238.1c0-3.5,2.9-5.9,6.1-5.9c3.2,0,6.1,2.4,6.1,5.9c0,3.5-2.9,6-6.1,6
				C967.7,244.1,964.7,241.6,964.7,238.1z M973.8,238.1c0-2.1-1.3-3.3-3-3.3c-1.7,0-3,1.2-3,3.3s1.3,3.3,3,3.3
				C972.5,241.4,973.8,240.1,973.8,238.1z"/>
			<path class="st1" d="M978.2,242.1c0-1.1,0.9-1.9,1.9-1.9c1,0,1.9,0.8,1.9,1.9c0,1.1-0.9,1.9-1.9,1.9
				C979,244,978.2,243.2,978.2,242.1z"/>
			<path class="st1" d="M983.1,238.1c0-3.5,2.9-5.9,6.1-5.9c3.2,0,6.1,2.4,6.1,5.9c0,3.5-2.9,6-6.1,6
				C986.1,244.1,983.1,241.6,983.1,238.1z M992.2,238.1c0-2.1-1.3-3.3-3-3.3c-1.7,0-3,1.2-3,3.3s1.3,3.3,3,3.3
				C990.9,241.4,992.2,240.1,992.2,238.1z"/>
			<path class="st1" d="M996.9,238.1c0-3.5,2.9-5.9,6.1-5.9c3.2,0,6.1,2.4,6.1,5.9c0,3.5-2.9,6-6.1,6
				C999.9,244.1,996.9,241.6,996.9,238.1z M1006,238.1c0-2.1-1.3-3.3-3-3.3c-1.7,0-3,1.2-3,3.3s1.3,3.3,3,3.3
				C1004.7,241.4,1006,240.1,1006,238.1z"/>
			<path class="st5" d="M541.6,339.2c0.9,0.5,2.1,1,3.4,1c2,0,3.1-1,3.1-2.5c0-1.4-0.8-2.2-2.8-3c-2.4-0.9-3.9-2.1-3.9-4.2
				c0-2.3,1.9-4,4.8-4c1.5,0,2.6,0.4,3.3,0.7l-0.5,1.6c-0.5-0.3-1.5-0.7-2.8-0.7c-2,0-2.8,1.2-2.8,2.2c0,1.4,0.9,2.1,3,2.9
				c2.5,1,3.8,2.2,3.8,4.4c0,2.3-1.7,4.3-5.2,4.3c-1.4,0-3-0.4-3.8-1L541.6,339.2z"/>
			<path class="st5" d="M553.7,336.5c0,2.6,1.7,3.7,3.7,3.7c1.4,0,2.2-0.2,3-0.6l0.3,1.4c-0.7,0.3-1.9,0.7-3.6,0.7
				c-3.3,0-5.3-2.2-5.3-5.4c0-3.2,1.9-5.8,5-5.8c3.5,0,4.4,3.1,4.4,5c0,0.4,0,0.7-0.1,0.9H553.7z M559.4,335.1
				c0-1.2-0.5-3.2-2.7-3.2c-2,0-2.8,1.8-3,3.2H559.4z"/>
			<path class="st5" d="M563.4,334.2c0-1.3,0-2.3-0.1-3.3h1.7l0.1,2.1h0.1c0.5-1.4,1.7-2.3,3-2.3c0.2,0,0.4,0,0.6,0.1v1.8
				c-0.2,0-0.4-0.1-0.7-0.1c-1.4,0-2.3,1-2.6,2.5c0,0.3-0.1,0.6-0.1,0.9v5.7h-1.9V334.2z"/>
			<path class="st5" d="M571.7,330.8l2.1,6c0.4,1,0.6,1.9,0.9,2.7h0.1c0.2-0.9,0.6-1.8,0.9-2.7l2.1-6h2l-4.2,10.7h-1.9l-4.1-10.7
				H571.7z"/>
			<path class="st5" d="M583.5,327.8c0,0.7-0.5,1.2-1.2,1.2c-0.7,0-1.2-0.5-1.2-1.2c0-0.7,0.5-1.2,1.2-1.2
				C583.1,326.6,583.5,327.1,583.5,327.8z M581.4,341.5v-10.7h1.9v10.7H581.4z"/>
			<path class="st5" d="M593.9,341.1c-0.5,0.3-1.6,0.6-3.1,0.6c-3.2,0-5.3-2.2-5.3-5.5c0-3.3,2.3-5.7,5.7-5.7c1.1,0,2.2,0.3,2.7,0.6
				l-0.4,1.5c-0.5-0.3-1.2-0.5-2.3-0.5c-2.4,0-3.8,1.8-3.8,4c0,2.5,1.6,4,3.7,4c1.1,0,1.8-0.3,2.4-0.5L593.9,341.1z"/>
			<path class="st5" d="M596.9,336.5c0,2.6,1.7,3.7,3.7,3.7c1.4,0,2.2-0.2,3-0.6l0.3,1.4c-0.7,0.3-1.9,0.7-3.6,0.7
				c-3.3,0-5.3-2.2-5.3-5.4c0-3.2,1.9-5.8,5-5.8c3.5,0,4.4,3.1,4.4,5c0,0.4,0,0.7-0.1,0.9H596.9z M602.6,335.1
				c0-1.2-0.5-3.2-2.7-3.2c-2,0-2.8,1.8-3,3.2H602.6z"/>
			<path class="st5" d="M611.2,326.6h8v1.6h-6.1v5h5.6v1.6h-5.6v6.7h-1.9V326.6z"/>
			<path class="st5" d="M622,336.5c0,2.6,1.7,3.7,3.7,3.7c1.4,0,2.2-0.2,3-0.6l0.3,1.4c-0.7,0.3-1.9,0.7-3.6,0.7
				c-3.3,0-5.3-2.2-5.3-5.4c0-3.2,1.9-5.8,5-5.8c3.5,0,4.4,3.1,4.4,5c0,0.4,0,0.7-0.1,0.9H622z M627.7,335.1c0-1.2-0.5-3.2-2.7-3.2
				c-2,0-2.8,1.8-3,3.2H627.7z"/>
			<path class="st5" d="M632.9,336.5c0,2.6,1.7,3.7,3.7,3.7c1.4,0,2.2-0.2,3-0.6l0.3,1.4c-0.7,0.3-1.9,0.7-3.6,0.7
				c-3.3,0-5.3-2.2-5.3-5.4c0-3.2,1.9-5.8,5-5.8c3.5,0,4.4,3.1,4.4,5c0,0.4,0,0.7-0.1,0.9H632.9z M638.6,335.1
				c0-1.2-0.5-3.2-2.7-3.2c-2,0-2.8,1.8-3,3.2H638.6z"/>
			<path class="st5" d="M964.9,341.5v-1.2l1.5-1.5c3.7-3.5,5.3-5.4,5.3-7.5c0-1.5-0.7-2.8-2.8-2.8c-1.3,0-2.4,0.7-3,1.2l-0.6-1.4
				c1-0.8,2.4-1.5,4.1-1.5c3.1,0,4.4,2.1,4.4,4.2c0,2.7-1.9,4.8-4.9,7.7l-1.1,1.1v0h6.4v1.6H964.9z"/>
			<path class="st5" d="M985.6,334.2c0,4.9-1.8,7.6-5,7.6c-2.8,0-4.7-2.6-4.7-7.4c0-4.8,2.1-7.5,5-7.5
				C983.9,326.9,985.6,329.6,985.6,334.2z M977.8,334.4c0,3.7,1.1,5.9,2.9,5.9c2,0,2.9-2.3,2.9-6c0-3.5-0.9-5.9-2.9-5.9
				C979,328.4,977.8,330.5,977.8,334.4z"/>
			<path class="st5" d="M987.3,340.4c0-0.8,0.6-1.4,1.3-1.4c0.8,0,1.3,0.6,1.3,1.4c0,0.8-0.5,1.4-1.3,1.4
				C987.8,341.8,987.3,341.2,987.3,340.4z"/>
			<path class="st5" d="M1001,334.2c0,4.9-1.8,7.6-5,7.6c-2.8,0-4.7-2.6-4.7-7.4c0-4.8,2.1-7.5,5-7.5
				C999.3,326.9,1001,329.6,1001,334.2z M993.2,334.4c0,3.7,1.1,5.9,2.9,5.9c2,0,2.9-2.3,2.9-6c0-3.5-0.9-5.9-2.9-5.9
				C994.5,328.4,993.2,330.5,993.2,334.4z"/>
			<path class="st5" d="M1012.1,334.2c0,4.9-1.8,7.6-5,7.6c-2.8,0-4.7-2.6-4.7-7.4c0-4.8,2.1-7.5,5-7.5
				C1010.4,326.9,1012.1,329.6,1012.1,334.2z M1004.3,334.4c0,3.7,1.1,5.9,2.9,5.9c2,0,2.9-2.3,2.9-6c0-3.5-0.9-5.9-2.9-5.9
				C1005.6,328.4,1004.3,330.5,1004.3,334.4z"/>
			<path class="st5" d="M540.7,375.3h3.3l2.2,6c0.4,1,0.8,2.7,0.8,2.7s0.4-1.7,0.9-2.7l2.9-6.2h0.3l2.9,6.2c0.5,1,0.9,2.7,0.9,2.7
				s0.4-1.7,0.8-2.7l2.2-6h3l-5.4,15.2h-0.3l-3.4-7.3c-0.4-0.8-0.8-2.2-0.8-2.2s-0.5,1.4-0.9,2.2l-3.5,7.3h-0.3L540.7,375.3z"/>
			<path class="st5" d="M566.1,375.2h0.3l6.9,15.2H570l-0.7-1.7h-6.1l-0.7,1.7h-3L566.1,375.2z M568.1,386l-1.1-2.6
				c-0.4-1.1-0.9-2.7-0.9-2.7s-0.4,1.6-0.9,2.7l-1.1,2.6H568.1z"/>
			<path class="st5" d="M576.5,378h-4.3v-2.7h11.7v2.7h-4.3v12.3h-3.1V378z"/>
			<path class="st5" d="M586.2,375.3h9.9v2.7h-6.8v4.8h6v2.7h-6v2.2h7.1v2.7h-10.2V375.3z"/>
			<path class="st5" d="M610.4,390.3h-3.6l-2.5-3.8c-0.3,0-0.6,0.1-0.9,0.1h-1.1v3.7h-3.1v-15h4.1c4.2,0,6.7,2,6.7,5.7
				c0,2.3-1,3.8-2.9,4.7L610.4,390.3z M603.4,383.9c2.5,0,3.6-0.8,3.6-2.9c0-2.1-1.1-3-3.6-3h-1v5.9H603.4z"/>
			<path class="st5" d="M617.2,382.8c0-4.4,3.4-7.7,7.7-7.7c2.7,0,4.7,1,6,3.1l-2.4,1.7c-0.7-1.1-1.9-2-3.6-2
				c-2.7,0-4.5,2.1-4.5,4.9c0,2.8,1.8,5,4.5,5c1.9,0,3-0.9,3.9-2.2l2.4,1.7c-1.3,2-3.4,3.3-6.3,3.3
				C620.6,390.5,617.2,387.3,617.2,382.8z"/>
			<path class="st5" d="M632.8,382.8c0-4.4,3.4-7.7,7.8-7.7c4.3,0,7.8,3.3,7.8,7.7s-3.4,7.7-7.8,7.7
				C636.2,390.5,632.8,387.3,632.8,382.8z M645.1,382.8c0-2.8-1.9-5-4.6-5c-2.7,0-4.6,2.1-4.6,5c0,2.8,1.9,5,4.6,5
				C643.3,387.8,645.1,385.6,645.1,382.8z"/>
			<path class="st5" d="M655.4,383.4c-0.8-0.7-1.8-2.1-1.8-2.1s0.2,1.7,0.2,2.7v6.3h-2.9v-15.2h0.3l7.6,7.1c0.7,0.7,1.8,2.1,1.8,2.1
				s-0.2-1.7-0.2-2.7v-6.3h2.9v15.2H663L655.4,383.4z"/>
			<path class="st5" d="M665.1,387.4l2.5-1.5c0.7,1.1,1.5,1.9,3,1.9c1.3,0,2.1-0.6,2.1-1.5c0-1.1-0.8-1.4-2.3-2.1l-0.8-0.3
				c-2.2-1-3.7-2.1-3.7-4.7c0-2.3,1.8-4.1,4.5-4.1c2,0,3.4,0.7,4.4,2.5l-2.4,1.5c-0.5-1-1.1-1.3-2-1.3c-0.9,0-1.5,0.6-1.5,1.3
				c0,0.9,0.6,1.3,1.9,1.9l0.8,0.3c2.6,1.1,4.1,2.3,4.1,4.9c0,2.8-2.2,4.3-5.1,4.3C667.9,390.5,666,389.2,665.1,387.4z"/>
			<path class="st5" d="M678.2,384.9v-9.6h3.1v9.4c0,2.2,0.9,3,3,3c2,0,3-0.8,3-3v-9.4h3.1v9.6c0,3.8-2.6,5.6-6,5.6
				C680.8,390.5,678.2,388.7,678.2,384.9z"/>
			<path class="st5" d="M693.4,375.1h0.2l7.4,8.1l7.3-8.1h0.3v15.2h-3v-5.6c0-1,0.1-2.6,0.1-2.6s-0.9,1.3-1.6,2.1l-3,3.3h-0.3
				l-3-3.3c-0.7-0.8-1.6-2.1-1.6-2.1s0.1,1.6,0.1,2.6v5.6h-3V375.1z"/>
			<path class="st5" d="M711.7,375.3h4.1c4.2,0,6.7,2.2,6.7,5.8s-2.5,5.8-6.7,5.8h-1.1v3.4h-3.1V375.3z M715.8,384.2
				c2.5,0,3.6-1,3.6-3.1c0-2.1-1.1-3.1-3.6-3.1h-1v6.2H715.8z"/>
			<path class="st5" d="M728.2,378h-4.3v-2.7h11.7v2.7h-4.3v12.3h-3.1V378z"/>
			<path class="st5" d="M737.9,375.3h3.1v15h-3.1V375.3z"/>
			<path class="st5" d="M743.6,382.8c0-4.4,3.4-7.7,7.8-7.7c4.3,0,7.8,3.3,7.8,7.7s-3.4,7.7-7.8,7.7
				C747.1,390.5,743.6,387.3,743.6,382.8z M756,382.8c0-2.8-1.9-5-4.6-5c-2.7,0-4.6,2.1-4.6,5c0,2.8,1.9,5,4.6,5
				C754.1,387.8,756,385.6,756,382.8z"/>
			<path class="st5" d="M766.3,383.4c-0.8-0.7-1.8-2.1-1.8-2.1s0.2,1.7,0.2,2.7v6.3h-2.9v-15.2h0.3l7.6,7.1c0.7,0.7,1.8,2.1,1.8,2.1
				s-0.2-1.7-0.2-2.7v-6.3h2.9v15.2h-0.3L766.3,383.4z"/>
			<path class="st5" d="M781.6,382.8c0-4.4,3.4-7.7,7.7-7.7c2.7,0,4.7,1,6,3.1l-2.4,1.7c-0.7-1.1-1.9-2-3.6-2
				c-2.7,0-4.5,2.1-4.5,4.9c0,2.8,1.8,5,4.5,5c1.9,0,3-0.9,3.9-2.2l2.4,1.7c-1.3,2-3.4,3.3-6.3,3.3
				C785.1,390.5,781.6,387.3,781.6,382.8z"/>
			<path class="st5" d="M797.9,375.3h3.1v7.7h6.4v-7.7h3.1v15h-3.1v-4.6H801v4.6h-3.1V375.3z"/>
			<path class="st5" d="M819.1,375.2h0.3l6.9,15.2H823l-0.7-1.7h-6.1l-0.7,1.7h-3L819.1,375.2z M821.2,386l-1.1-2.6
				c-0.4-1.1-0.9-2.7-0.9-2.7s-0.4,1.6-0.9,2.7l-1.1,2.6H821.2z"/>
			<path class="st5" d="M839.4,390.3h-3.6l-2.5-3.8c-0.3,0-0.6,0.1-0.9,0.1h-1.1v3.7h-3.1v-15h4.1c4.2,0,6.7,2,6.7,5.7
				c0,2.3-1,3.8-2.9,4.7L839.4,390.3z M832.4,383.9c2.5,0,3.6-0.8,3.6-2.9c0-2.1-1.1-3-3.6-3h-1v5.9H832.4z"/>
			<path class="st5" d="M841.3,382.8c0-4.4,3.1-7.7,7.7-7.7c2.4,0,4.2,0.7,5.4,2.1l-2.1,2.1c-0.8-0.8-1.6-1.4-3.4-1.4
				c-2.7,0-4.5,2.1-4.5,4.9c0,2.8,1.8,5,5,5c1,0,2.2-0.2,2.9-0.6V385h-3.6v-2.7h6.4v6.5c-0.9,0.7-3,1.7-5.8,1.7
				C844.6,390.5,841.3,387.3,841.3,382.8z"/>
			<path class="st5" d="M858.2,375.3h9.9v2.7h-6.8v4.8h6v2.7h-6v2.2h7.1v2.7h-10.2V375.3z"/>
			<path class="st5" d="M964.3,387.8l2.2-1.2c0.4,0.7,1,1.4,2.3,1.6c0,0,0-2.6,0-2.5c-2.8-0.7-3.8-1.9-3.8-3.6s1.2-3.3,3.8-3.4v-2.2
				h1.5v2.3c1.7,0.3,2.8,1.2,3.4,1.9l-1.9,1.5c-0.2-0.4-0.7-0.8-1.5-1.1v2.2c2.7,0.6,4.1,1.9,4.1,3.7c0,2.2-1.3,3.4-4.1,3.6v2.4
				h-1.5v-2.4C966.2,390.3,964.9,388.9,964.3,387.8z M967.6,381.8c0,0.5,0.2,0.8,1.1,1.1v-2C967.9,380.9,967.6,381.3,967.6,381.8z
				 M971.6,387.2c0-0.5-0.2-1-1.3-1.3v2.3C971.3,388.1,971.6,387.7,971.6,387.2z"/>
			<path class="st5" d="M986.5,388v2.3H985v2.1h-3v-2.1h-6.4v-2l9.1-9.6h0.3v9.4H986.5z M982,386.1c0-0.5,0.1-1.4,0.1-1.4
				s-0.4,0.5-0.8,0.9l-1.6,1.7c-0.4,0.4-0.9,0.8-0.9,0.8s0.5-0.1,1.1-0.1h2V386.1z"/>
			<path class="st5" d="M987.5,384.5c0-3.5,2.9-5.9,6.1-5.9c3.2,0,6.1,2.4,6.1,5.9c0,3.5-2.9,6-6.1,6
				C990.4,390.5,987.5,388,987.5,384.5z M996.6,384.5c0-2.1-1.3-3.3-3-3.3c-1.7,0-3,1.2-3,3.3c0,2.1,1.3,3.3,3,3.3
				C995.3,387.9,996.6,386.6,996.6,384.5z"/>
			<path class="st5" d="M1000.9,388.6c0-1.1,0.9-1.9,1.9-1.9c1,0,1.9,0.8,1.9,1.9c0,1.1-0.9,1.9-1.9,1.9
				C1001.8,390.5,1000.9,389.7,1000.9,388.6z"/>
			<path class="st5" d="M1006.3,385.9c0-1.7,0.7-3,1.9-4.6l3.2-4.5h3.4l-2.7,3.7c-0.5,0.7-1.4,1.3-1.4,1.3c0.5-0.2,1-0.4,1.7-0.4
				c2.4,0,4.2,1.6,4.2,4.3c0,2.9-2.3,4.7-5.1,4.7C1008.7,390.5,1006.3,388.7,1006.3,385.9z M1013.5,385.9c0-1.1-0.8-2-2.1-2
				s-2.1,1-2.1,2c0,1.1,0.8,2,2.1,2S1013.5,386.9,1013.5,385.9z"/>
			<path class="st5" d="M1017,389.5l2.6-1.3c0.5,1.3,1.4,1.8,2.6,1.8c1.2,0,2.2-0.8,2.2-2.3s-1.1-2.2-2.5-2.2c-1,0-1.5,0.2-1.9,0.4
				l-0.2-0.3l2.6-3.6c0.4-0.5,0.8-0.9,0.8-0.9s-0.7,0.1-1.3,0.1h-3.5v-2.5h9v0.2l-2.7,3.8c-0.3,0.4-0.6,0.7-0.6,0.7
				c1.9,0.4,3.6,1.9,3.6,4.3c0,2.5-1.7,4.9-5.3,4.9C1019.3,392.6,1017.8,391.2,1017,389.5z"/>
			<path class="st5" d="M561.6,425.9h-4.5v-1.6h11v1.6h-4.5v13.3h-1.9V425.9z"/>
			<path class="st5" d="M571.4,425.5c0,0.7-0.5,1.2-1.2,1.2c-0.7,0-1.2-0.5-1.2-1.2c0-0.7,0.5-1.2,1.2-1.2
				C570.9,424.2,571.4,424.8,571.4,425.5z M569.2,439.2v-10.7h1.9v10.7H569.2z"/>
			<path class="st5" d="M575.2,434.2c0,2.6,1.7,3.7,3.7,3.7c1.4,0,2.2-0.2,3-0.6l0.3,1.4c-0.7,0.3-1.9,0.7-3.6,0.7
				c-3.3,0-5.3-2.2-5.3-5.4c0-3.2,1.9-5.8,5-5.8c3.5,0,4.4,3.1,4.4,5c0,0.4,0,0.7-0.1,0.9H575.2z M580.9,432.8
				c0-1.2-0.5-3.2-2.7-3.2c-2,0-2.8,1.8-3,3.2H580.9z"/>
			<path class="st5" d="M585,431.8c0-1.3,0-2.3-0.1-3.3h1.7l0.1,2.1h0.1c0.5-1.4,1.7-2.3,3-2.3c0.2,0,0.4,0,0.6,0.1v1.8
				c-0.2,0-0.4-0.1-0.7-0.1c-1.4,0-2.3,1-2.6,2.5c0,0.3-0.1,0.6-0.1,0.9v5.7H585V431.8z"/>
			<path class="st5" d="M600,426.6L600,426.6l-2.5,1.3l-0.4-1.5l3.1-1.7h1.7v14.4H600V426.6z"/>
			<path class="st5" d="M607.1,430.2c0-0.8,0.6-1.4,1.3-1.4c0.8,0,1.3,0.6,1.3,1.4c0,0.8-0.5,1.4-1.3,1.4
				C607.6,431.6,607.1,431,607.1,430.2z M607.1,438c0-0.8,0.6-1.4,1.3-1.4c0.8,0,1.3,0.6,1.3,1.4c0,0.8-0.5,1.4-1.3,1.4
				C607.6,439.4,607.1,438.8,607.1,438z"/>
			<path class="st5" d="M690.8,426.4h-5.5l-0.6,3.7c0.3,0,0.6-0.1,1.2-0.1c1.1,0,2.2,0.2,3.1,0.8c1.1,0.6,2.1,1.9,2.1,3.7
				c0,2.8-2.2,4.9-5.3,4.9c-1.6,0-2.9-0.4-3.6-0.9l0.5-1.5c0.6,0.4,1.8,0.8,3.1,0.8c1.8,0,3.4-1.2,3.4-3.1c0-1.9-1.3-3.2-4.1-3.2
				c-0.8,0-1.5,0.1-2,0.2l0.9-6.9h6.9V426.4z"/>
			<path class="st5" d="M692.7,441.9c0.5-1.3,1.1-3.7,1.3-5.3l2.2-0.2c-0.5,1.9-1.5,4.3-2.1,5.4L692.7,441.9z"/>
			<path class="st5" d="M707.2,431.8c0,4.9-1.8,7.6-5,7.6c-2.8,0-4.7-2.6-4.7-7.4c0-4.8,2.1-7.5,5-7.5
				C705.5,424.5,707.2,427.2,707.2,431.8z M699.4,432c0,3.7,1.1,5.9,2.9,5.9c2,0,2.9-2.3,2.9-6c0-3.5-0.9-5.9-2.9-5.9
				C700.6,426,699.4,428.1,699.4,432z"/>
			<path class="st5" d="M718.3,431.8c0,4.9-1.8,7.6-5,7.6c-2.8,0-4.7-2.6-4.7-7.4c0-4.8,2.1-7.5,5-7.5
				C716.6,424.5,718.3,427.2,718.3,431.8z M710.5,432c0,3.7,1.1,5.9,2.9,5.9c2,0,2.9-2.3,2.9-6c0-3.5-0.9-5.9-2.9-5.9
				C711.7,426,710.5,428.1,710.5,432z"/>
			<path class="st5" d="M729.4,431.8c0,4.9-1.8,7.6-5,7.6c-2.8,0-4.7-2.6-4.7-7.4c0-4.8,2.1-7.5,5-7.5
				C727.7,424.5,729.4,427.2,729.4,431.8z M721.6,432c0,3.7,1.1,5.9,2.9,5.9c2,0,2.9-2.3,2.9-6c0-3.5-0.9-5.9-2.9-5.9
				C722.8,426,721.6,428.1,721.6,432z"/>
			<path class="st5" d="M745.2,428.5c0,0.8-0.1,1.6-0.1,2.9v6.2c0,2.5-0.5,4-1.5,4.9c-1,1-2.5,1.3-3.9,1.3c-1.3,0-2.7-0.3-3.6-0.9
				l0.5-1.5c0.7,0.4,1.8,0.8,3.1,0.8c2,0,3.4-1,3.4-3.7v-1.2h0c-0.6,1-1.7,1.8-3.4,1.8c-2.6,0-4.5-2.3-4.5-5.2
				c0-3.6,2.4-5.7,4.8-5.7c1.9,0,2.9,1,3.3,1.9h0l0.1-1.6H745.2z M743.2,432.7c0-0.3,0-0.6-0.1-0.9c-0.4-1.1-1.3-2.1-2.7-2.1
				c-1.9,0-3.2,1.6-3.2,4c0,2.1,1.1,3.8,3.2,3.8c1.2,0,2.3-0.8,2.7-2c0.1-0.3,0.2-0.7,0.2-1V432.7z"/>
			<path class="st5" d="M754.1,439.2l-0.2-1.3h-0.1c-0.6,0.8-1.7,1.6-3.3,1.6c-2.2,0-3.3-1.5-3.3-3.1c0-2.6,2.3-4,6.4-4v-0.2
				c0-0.9-0.2-2.5-2.4-2.5c-1,0-2,0.3-2.8,0.8l-0.4-1.3c0.9-0.6,2.2-1,3.5-1c3.3,0,4.1,2.2,4.1,4.4v4c0,0.9,0,1.8,0.2,2.6H754.1z
				 M753.8,433.7c-2.1,0-4.5,0.3-4.5,2.4c0,1.3,0.8,1.9,1.8,1.9c1.4,0,2.3-0.9,2.6-1.8c0.1-0.2,0.1-0.4,0.1-0.6V433.7z"/>
			<path class="st5" d="M758.6,423.5h1.9v15.7h-1.9V423.5z"/>
			<path class="st5" d="M778,440.6c-1.2,0.6-2.4,0.9-3.9,0.9c-3.6,0-6.7-2.7-6.7-6.9c0-4.6,3.2-8.5,8.1-8.5c3.8,0,6.4,2.7,6.4,6.4
				c0,3.3-1.9,5.3-3.9,5.3c-0.9,0-1.7-0.6-1.6-1.9h-0.1c-0.8,1.3-1.8,1.9-3.1,1.9c-1.3,0-2.4-1-2.4-2.8c0-2.7,2.2-5.2,5.2-5.2
				c0.9,0,1.8,0.2,2.4,0.5l-0.8,4c-0.3,1.7-0.1,2.5,0.7,2.5c1.1,0,2.4-1.5,2.4-4c0-3.2-1.9-5.5-5.3-5.5c-3.6,0-6.6,2.9-6.6,7.3
				c0,3.7,2.4,6,5.7,6c1.3,0,2.4-0.3,3.3-0.8L778,440.6z M776.7,431c-0.2-0.1-0.6-0.2-1.1-0.2c-1.9,0-3.5,1.8-3.5,4
				c0,1,0.5,1.7,1.5,1.7c1.3,0,2.4-1.6,2.7-3L776.7,431z"/>
			<path class="st5" d="M791.7,441.1v-2.2c-1.3,0-2.6-0.4-3.4-1l0.5-1.5c0.8,0.5,1.9,1,3.2,1c1.6,0,2.6-0.9,2.6-2.2
				c0-1.2-0.9-2-2.5-2.6c-2.3-0.9-3.6-1.9-3.6-3.8c0-1.8,1.3-3.2,3.3-3.6v-2.2h1.4v2.1c1.3,0,2.2,0.4,2.9,0.8l-0.6,1.5
				c-0.5-0.3-1.4-0.8-2.8-0.8c-1.7,0-2.3,1-2.3,1.9c0,1.2,0.8,1.7,2.7,2.5c2.3,0.9,3.4,2.1,3.4,4c0,1.7-1.2,3.4-3.5,3.8v2.3H791.7z"
				/>
			<path class="st5" d="M808.5,431.8c0,4.9-1.8,7.6-5,7.6c-2.8,0-4.7-2.6-4.7-7.4c0-4.8,2.1-7.5,5-7.5
				C806.8,424.5,808.5,427.2,808.5,431.8z M800.7,432c0,3.7,1.1,5.9,2.9,5.9c2,0,2.9-2.3,2.9-6c0-3.5-0.9-5.9-2.9-5.9
				C802,426,800.7,428.1,800.7,432z"/>
			<path class="st5" d="M810.2,438c0-0.8,0.6-1.4,1.3-1.4c0.8,0,1.3,0.6,1.3,1.4c0,0.8-0.5,1.4-1.3,1.4
				C810.8,439.4,810.2,438.8,810.2,438z"/>
			<path class="st5" d="M824,431.8c0,4.9-1.8,7.6-5,7.6c-2.8,0-4.7-2.6-4.7-7.4c0-4.8,2.1-7.5,5-7.5
				C822.2,424.5,824,427.2,824,431.8z M816.2,432c0,3.7,1.1,5.9,2.9,5.9c2,0,2.9-2.3,2.9-6c0-3.5-0.9-5.9-2.9-5.9
				C817.4,426,816.2,428.1,816.2,432z"/>
			<path class="st5" d="M835.1,431.8c0,4.9-1.8,7.6-5,7.6c-2.8,0-4.7-2.6-4.7-7.4c0-4.8,2.1-7.5,5-7.5
				C833.3,424.5,835.1,427.2,835.1,431.8z M827.3,432c0,3.7,1.1,5.9,2.9,5.9c2,0,2.9-2.3,2.9-6c0-3.5-0.9-5.9-2.9-5.9
				C828.5,426,827.3,428.1,827.3,432z"/>
			<path class="st5" d="M845.2,426.4h-5.5l-0.6,3.7c0.3,0,0.6-0.1,1.2-0.1c1.1,0,2.2,0.2,3.1,0.8c1.1,0.6,2.1,1.9,2.1,3.7
				c0,2.8-2.2,4.9-5.3,4.9c-1.6,0-2.9-0.4-3.6-0.9l0.5-1.5c0.6,0.4,1.8,0.8,3.1,0.8c1.8,0,3.4-1.2,3.4-3.1c0-1.9-1.3-3.2-4.1-3.2
				c-0.8,0-1.5,0.1-2,0.2l0.9-6.9h6.9V426.4z"/>
			<path class="st5" d="M856.3,426.4h-5.5l-0.6,3.7c0.3,0,0.6-0.1,1.2-0.1c1.1,0,2.2,0.2,3.1,0.8c1.1,0.6,2.1,1.9,2.1,3.7
				c0,2.8-2.2,4.9-5.3,4.9c-1.6,0-2.9-0.4-3.6-0.9l0.5-1.5c0.6,0.4,1.8,0.8,3.1,0.8c1.8,0,3.4-1.2,3.4-3.1c0-1.9-1.3-3.2-4.1-3.2
				c-0.8,0-1.5,0.1-2,0.2l0.9-6.9h6.9V426.4z"/>
			<path class="st5" d="M968.8,441.1v-2.2c-1.3,0-2.6-0.4-3.4-1l0.5-1.5c0.8,0.5,1.9,1,3.2,1c1.6,0,2.6-0.9,2.6-2.2
				c0-1.2-0.9-2-2.5-2.6c-2.3-0.9-3.6-1.9-3.6-3.8c0-1.8,1.3-3.2,3.3-3.6v-2.2h1.4v2.1c1.3,0,2.2,0.4,2.9,0.8l-0.6,1.5
				c-0.5-0.3-1.4-0.8-2.8-0.8c-1.7,0-2.3,1-2.3,1.9c0,1.2,0.8,1.7,2.7,2.5c2.3,0.9,3.4,2.1,3.4,4c0,1.7-1.2,3.4-3.5,3.8v2.3H968.8z"
				/>
			<path class="st5" d="M976,439.2V438l1.5-1.5c3.7-3.5,5.3-5.4,5.3-7.5c0-1.5-0.7-2.8-2.8-2.8c-1.3,0-2.4,0.7-3,1.2l-0.6-1.4
				c1-0.8,2.4-1.5,4.1-1.5c3.1,0,4.4,2.1,4.4,4.2c0,2.7-1.9,4.8-4.9,7.7l-1.1,1.1v0h6.4v1.6H976z"/>
			<path class="st5" d="M996.5,424.8v1.3l-6.2,13.1h-2l6.2-12.7v0h-7v-1.6H996.5z"/>
			<path class="st5" d="M998.4,438c0-0.8,0.6-1.4,1.3-1.4c0.8,0,1.3,0.6,1.3,1.4c0,0.8-0.5,1.4-1.3,1.4
				C998.9,439.4,998.4,438.8,998.4,438z"/>
			<path class="st5" d="M1011.1,426.4h-5.5l-0.6,3.7c0.3,0,0.6-0.1,1.2-0.1c1.1,0,2.2,0.2,3.1,0.8c1.1,0.6,2.1,1.9,2.1,3.7
				c0,2.8-2.2,4.9-5.3,4.9c-1.6,0-2.9-0.4-3.6-0.9l0.5-1.5c0.6,0.4,1.8,0.8,3.1,0.8c1.8,0,3.4-1.2,3.4-3.1c0-1.9-1.3-3.2-4.1-3.2
				c-0.8,0-1.5,0.1-2,0.2l0.9-6.9h6.9V426.4z"/>
			<path class="st5" d="M1023.2,431.8c0,4.9-1.8,7.6-5,7.6c-2.8,0-4.7-2.6-4.7-7.4c0-4.8,2.1-7.5,5-7.5
				C1021.5,424.5,1023.2,427.2,1023.2,431.8z M1015.4,432c0,3.7,1.1,5.9,2.9,5.9c2,0,2.9-2.3,2.9-6c0-3.5-0.9-5.9-2.9-5.9
				C1016.7,426,1015.4,428.1,1015.4,432z"/>
			<path class="st5" d="M561.6,474.7h-4.5v-1.6h11v1.6h-4.5V488h-1.9V474.7z"/>
			<path class="st5" d="M571.4,474.3c0,0.7-0.5,1.2-1.2,1.2c-0.7,0-1.2-0.5-1.2-1.2c0-0.7,0.5-1.2,1.2-1.2
				C570.9,473.1,571.4,473.6,571.4,474.3z M569.2,488v-10.7h1.9V488H569.2z"/>
			<path class="st5" d="M575.2,483c0,2.6,1.7,3.7,3.7,3.7c1.4,0,2.2-0.2,3-0.6l0.3,1.4c-0.7,0.3-1.9,0.7-3.6,0.7
				c-3.3,0-5.3-2.2-5.3-5.4c0-3.2,1.9-5.8,5-5.8c3.5,0,4.4,3.1,4.4,5c0,0.4,0,0.7-0.1,0.9H575.2z M580.9,481.6
				c0-1.2-0.5-3.2-2.7-3.2c-2,0-2.8,1.8-3,3.2H580.9z"/>
			<path class="st5" d="M585,480.6c0-1.3,0-2.3-0.1-3.3h1.7l0.1,2.1h0.1c0.5-1.4,1.7-2.3,3-2.3c0.2,0,0.4,0,0.6,0.1v1.8
				c-0.2,0-0.4-0.1-0.7-0.1c-1.4,0-2.3,1-2.6,2.5c0,0.3-0.1,0.6-0.1,0.9v5.7H585V480.6z"/>
			<path class="st5" d="M595.8,488v-1.2l1.5-1.5c3.7-3.5,5.3-5.4,5.3-7.5c0-1.5-0.7-2.8-2.8-2.8c-1.3,0-2.4,0.7-3,1.2l-0.6-1.4
				c1-0.8,2.4-1.5,4.1-1.5c3.1,0,4.4,2.1,4.4,4.2c0,2.7-1.9,4.8-4.9,7.7l-1.1,1.1v0h6.4v1.6H595.8z"/>
			<path class="st5" d="M607.1,479c0-0.8,0.6-1.4,1.3-1.4c0.8,0,1.3,0.6,1.3,1.4c0,0.8-0.5,1.4-1.3,1.4
				C607.6,480.4,607.1,479.8,607.1,479z M607.1,486.9c0-0.8,0.6-1.4,1.3-1.4c0.8,0,1.3,0.6,1.3,1.4c0,0.8-0.5,1.4-1.3,1.4
				C607.6,488.2,607.1,487.6,607.1,486.9z"/>
			<path class="st5" d="M686.4,475.4L686.4,475.4l-2.5,1.3l-0.4-1.5l3.1-1.7h1.7V488h-1.9V475.4z"/>
			<path class="st5" d="M692.7,490.7c0.5-1.3,1.1-3.7,1.3-5.3l2.2-0.2c-0.5,1.9-1.5,4.3-2.1,5.4L692.7,490.7z"/>
			<path class="st5" d="M707,473.6v1.3l-6.2,13.1h-2l6.2-12.7v0h-7v-1.6H707z"/>
			<path class="st5" d="M717.3,475.2h-5.5l-0.6,3.7c0.3,0,0.6-0.1,1.2-0.1c1.1,0,2.2,0.2,3.1,0.8c1.1,0.6,2.1,1.9,2.1,3.7
				c0,2.8-2.2,4.9-5.3,4.9c-1.6,0-2.9-0.4-3.6-0.9l0.5-1.5c0.6,0.4,1.8,0.8,3.1,0.8c1.8,0,3.4-1.2,3.4-3.1c0-1.9-1.3-3.2-4.1-3.2
				c-0.8,0-1.5,0.1-2,0.2l0.9-6.9h6.9V475.2z"/>
			<path class="st5" d="M729.4,480.6c0,4.9-1.8,7.6-5,7.6c-2.8,0-4.7-2.6-4.7-7.4c0-4.8,2.1-7.5,5-7.5
				C727.7,473.4,729.4,476.1,729.4,480.6z M721.6,480.9c0,3.7,1.1,5.9,2.9,5.9c2,0,2.9-2.3,2.9-6c0-3.5-0.9-5.9-2.9-5.9
				C722.8,474.9,721.6,476.9,721.6,480.9z"/>
			<path class="st5" d="M745.2,477.3c0,0.8-0.1,1.6-0.1,2.9v6.2c0,2.5-0.5,4-1.5,4.9c-1,1-2.5,1.3-3.9,1.3c-1.3,0-2.7-0.3-3.6-0.9
				l0.5-1.5c0.7,0.4,1.8,0.8,3.1,0.8c2,0,3.4-1,3.4-3.7v-1.2h0c-0.6,1-1.7,1.8-3.4,1.8c-2.6,0-4.5-2.3-4.5-5.2
				c0-3.6,2.4-5.7,4.8-5.7c1.9,0,2.9,1,3.3,1.9h0l0.1-1.6H745.2z M743.2,481.5c0-0.3,0-0.6-0.1-0.9c-0.4-1.1-1.3-2.1-2.7-2.1
				c-1.9,0-3.2,1.6-3.2,4c0,2.1,1.1,3.8,3.2,3.8c1.2,0,2.3-0.8,2.7-2c0.1-0.3,0.2-0.7,0.2-1V481.5z"/>
			<path class="st5" d="M754.1,488l-0.2-1.3h-0.1c-0.6,0.8-1.7,1.6-3.3,1.6c-2.2,0-3.3-1.5-3.3-3.1c0-2.6,2.3-4,6.4-4v-0.2
				c0-0.9-0.2-2.5-2.4-2.5c-1,0-2,0.3-2.8,0.8l-0.4-1.3c0.9-0.6,2.2-1,3.5-1c3.3,0,4.1,2.2,4.1,4.4v4c0,0.9,0,1.8,0.2,2.6H754.1z
				 M753.8,482.5c-2.1,0-4.5,0.3-4.5,2.4c0,1.3,0.8,1.9,1.8,1.9c1.4,0,2.3-0.9,2.6-1.8c0.1-0.2,0.1-0.4,0.1-0.6V482.5z"/>
			<path class="st5" d="M758.6,472.3h1.9V488h-1.9V472.3z"/>
			<path class="st5" d="M778,489.4c-1.2,0.6-2.4,0.9-3.9,0.9c-3.6,0-6.7-2.7-6.7-6.9c0-4.6,3.2-8.5,8.1-8.5c3.8,0,6.4,2.7,6.4,6.4
				c0,3.3-1.9,5.3-3.9,5.3c-0.9,0-1.7-0.6-1.6-1.9h-0.1c-0.8,1.3-1.8,1.9-3.1,1.9c-1.3,0-2.4-1-2.4-2.8c0-2.7,2.2-5.2,5.2-5.2
				c0.9,0,1.8,0.2,2.4,0.5l-0.8,4c-0.3,1.7-0.1,2.5,0.7,2.5c1.1,0,2.4-1.5,2.4-4c0-3.2-1.9-5.5-5.3-5.5c-3.6,0-6.6,2.9-6.6,7.3
				c0,3.7,2.4,6,5.7,6c1.3,0,2.4-0.3,3.3-0.8L778,489.4z M776.7,479.8c-0.2-0.1-0.6-0.2-1.1-0.2c-1.9,0-3.5,1.8-3.5,4
				c0,1,0.5,1.7,1.5,1.7c1.3,0,2.4-1.6,2.7-3L776.7,479.8z"/>
			<path class="st5" d="M791.7,489.9v-2.2c-1.3,0-2.6-0.4-3.4-1l0.5-1.5c0.8,0.5,1.9,1,3.2,1c1.6,0,2.6-0.9,2.6-2.2
				c0-1.2-0.9-2-2.5-2.6c-2.3-0.9-3.6-1.9-3.6-3.8c0-1.8,1.3-3.2,3.3-3.6v-2.2h1.4v2.1c1.3,0,2.2,0.4,2.9,0.8l-0.6,1.5
				c-0.5-0.3-1.4-0.8-2.8-0.8c-1.7,0-2.3,1-2.3,1.9c0,1.2,0.8,1.7,2.7,2.5c2.3,0.9,3.4,2.1,3.4,4c0,1.7-1.2,3.4-3.5,3.8v2.3H791.7z"
				/>
			<path class="st5" d="M808.5,480.6c0,4.9-1.8,7.6-5,7.6c-2.8,0-4.7-2.6-4.7-7.4c0-4.8,2.1-7.5,5-7.5
				C806.8,473.4,808.5,476.1,808.5,480.6z M800.7,480.9c0,3.7,1.1,5.9,2.9,5.9c2,0,2.9-2.3,2.9-6c0-3.5-0.9-5.9-2.9-5.9
				C802,474.9,800.7,476.9,800.7,480.9z"/>
			<path class="st5" d="M810.2,486.8c0-0.8,0.6-1.4,1.3-1.4c0.8,0,1.3,0.6,1.3,1.4c0,0.8-0.5,1.4-1.3,1.4
				C810.8,488.2,810.2,487.6,810.2,486.8z"/>
			<path class="st5" d="M824,480.6c0,4.9-1.8,7.6-5,7.6c-2.8,0-4.7-2.6-4.7-7.4c0-4.8,2.1-7.5,5-7.5
				C822.2,473.4,824,476.1,824,480.6z M816.2,480.9c0,3.7,1.1,5.9,2.9,5.9c2,0,2.9-2.3,2.9-6c0-3.5-0.9-5.9-2.9-5.9
				C817.4,474.9,816.2,476.9,816.2,480.9z"/>
			<path class="st5" d="M835.1,480.6c0,4.9-1.8,7.6-5,7.6c-2.8,0-4.7-2.6-4.7-7.4c0-4.8,2.1-7.5,5-7.5
				C833.3,473.4,835.1,476.1,835.1,480.6z M827.3,480.9c0,3.7,1.1,5.9,2.9,5.9c2,0,2.9-2.3,2.9-6c0-3.5-0.9-5.9-2.9-5.9
				C828.5,474.9,827.3,476.9,827.3,480.9z"/>
			<path class="st5" d="M845.9,473.6v1.3l-6.2,13.1h-2l6.2-12.7v0h-7v-1.6H845.9z"/>
			<path class="st5" d="M856.3,475.2h-5.5l-0.6,3.7c0.3,0,0.6-0.1,1.2-0.1c1.1,0,2.2,0.2,3.1,0.8c1.1,0.6,2.1,1.9,2.1,3.7
				c0,2.8-2.2,4.9-5.3,4.9c-1.6,0-2.9-0.4-3.6-0.9l0.5-1.5c0.6,0.4,1.8,0.8,3.1,0.8c1.8,0,3.4-1.2,3.4-3.1c0-1.9-1.3-3.2-4.1-3.2
				c-0.8,0-1.5,0.1-2,0.2l0.9-6.9h6.9V475.2z"/>
			<path class="st5" d="M968.8,489.9v-2.2c-1.3,0-2.6-0.4-3.4-1l0.5-1.5c0.8,0.5,1.9,1,3.2,1c1.6,0,2.6-0.9,2.6-2.2
				c0-1.2-0.9-2-2.5-2.6c-2.3-0.9-3.6-1.9-3.6-3.8c0-1.8,1.3-3.2,3.3-3.6v-2.2h1.4v2.1c1.3,0,2.2,0.4,2.9,0.8l-0.6,1.5
				c-0.5-0.3-1.4-0.8-2.8-0.8c-1.7,0-2.3,1-2.3,1.9c0,1.2,0.8,1.7,2.7,2.5c2.3,0.9,3.4,2.1,3.4,4c0,1.7-1.2,3.4-3.5,3.8v2.3H968.8z"
				/>
			<path class="st5" d="M980.3,475.4L980.3,475.4l-2.5,1.3l-0.4-1.5l3.1-1.7h1.7V488h-1.9V475.4z"/>
			<path class="st5" d="M987.6,485.7c0.6,0.4,1.8,0.9,3.2,0.9c2.5,0,3.3-1.6,3.2-2.8c0-2-1.8-2.9-3.7-2.9h-1.1v-1.5h1.1
				c1.4,0,3.2-0.7,3.2-2.4c0-1.1-0.7-2.2-2.5-2.2c-1.1,0-2.3,0.5-2.9,1l-0.5-1.4c0.8-0.6,2.2-1.1,3.8-1.1c2.8,0,4.1,1.7,4.1,3.4
				c0,1.5-0.9,2.7-2.6,3.4v0c1.8,0.4,3.2,1.7,3.2,3.7c0,2.3-1.8,4.3-5.2,4.3c-1.6,0-3-0.5-3.7-1L987.6,485.7z"/>
			<path class="st5" d="M998.4,486.8c0-0.8,0.6-1.4,1.3-1.4c0.8,0,1.3,0.6,1.3,1.4c0,0.8-0.5,1.4-1.3,1.4
				C998.9,488.2,998.4,487.6,998.4,486.8z"/>
			<path class="st5" d="M1006.8,475.4L1006.8,475.4l-2.5,1.3l-0.4-1.5l3.1-1.7h1.7V488h-1.9V475.4z"/>
			<path class="st5" d="M1014.1,485.7c0.6,0.4,1.8,0.9,3.2,0.9c2.5,0,3.3-1.6,3.2-2.8c0-2-1.8-2.9-3.7-2.9h-1.1v-1.5h1.1
				c1.4,0,3.2-0.7,3.2-2.4c0-1.1-0.7-2.2-2.5-2.2c-1.1,0-2.3,0.5-2.9,1l-0.5-1.4c0.8-0.6,2.2-1.1,3.8-1.1c2.8,0,4.1,1.7,4.1,3.4
				c0,1.5-0.9,2.7-2.6,3.4v0c1.8,0.4,3.2,1.7,3.2,3.7c0,2.3-1.8,4.3-5.2,4.3c-1.6,0-3-0.5-3.7-1L1014.1,485.7z"/>
			<path class="st5" d="M561.6,523.5h-4.5v-1.6h11v1.6h-4.5v13.3h-1.9V523.5z"/>
			<path class="st5" d="M571.4,523.1c0,0.7-0.5,1.2-1.2,1.2c-0.7,0-1.2-0.5-1.2-1.2c0-0.7,0.5-1.2,1.2-1.2
				C570.9,521.9,571.4,522.4,571.4,523.1z M569.2,536.8v-10.7h1.9v10.7H569.2z"/>
			<path class="st5" d="M575.2,531.8c0,2.6,1.7,3.7,3.7,3.7c1.4,0,2.2-0.2,3-0.6l0.3,1.4c-0.7,0.3-1.9,0.7-3.6,0.7
				c-3.3,0-5.3-2.2-5.3-5.4c0-3.2,1.9-5.8,5-5.8c3.5,0,4.4,3.1,4.4,5c0,0.4,0,0.7-0.1,0.9H575.2z M580.9,530.4
				c0-1.2-0.5-3.2-2.7-3.2c-2,0-2.8,1.8-3,3.2H580.9z"/>
			<path class="st5" d="M585,529.4c0-1.3,0-2.3-0.1-3.3h1.7l0.1,2.1h0.1c0.5-1.4,1.7-2.3,3-2.3c0.2,0,0.4,0,0.6,0.1v1.8
				c-0.2,0-0.4-0.1-0.7-0.1c-1.4,0-2.3,1-2.6,2.5c0,0.3-0.1,0.6-0.1,0.9v5.7H585V529.4z"/>
			<path class="st5" d="M596.3,534.6c0.6,0.4,1.8,0.9,3.2,0.9c2.5,0,3.3-1.6,3.2-2.8c0-2-1.8-2.9-3.7-2.9h-1.1v-1.5h1.1
				c1.4,0,3.2-0.7,3.2-2.4c0-1.1-0.7-2.2-2.5-2.2c-1.1,0-2.3,0.5-2.9,1l-0.5-1.4c0.8-0.6,2.2-1.1,3.8-1.1c2.8,0,4.1,1.7,4.1,3.4
				c0,1.5-0.9,2.7-2.6,3.4v0c1.8,0.4,3.2,1.7,3.2,3.7c0,2.3-1.8,4.3-5.2,4.3c-1.6,0-3-0.5-3.7-1L596.3,534.6z"/>
			<path class="st5" d="M607.1,527.9c0-0.8,0.6-1.4,1.3-1.4c0.8,0,1.3,0.6,1.3,1.4c0,0.8-0.5,1.4-1.3,1.4
				C607.6,529.2,607.1,528.6,607.1,527.9z M607.1,535.7c0-0.8,0.6-1.4,1.3-1.4c0.8,0,1.3,0.6,1.3,1.4c0,0.8-0.5,1.4-1.3,1.4
				C607.6,537,607.1,536.4,607.1,535.7z"/>
			<path class="st5" d="M691.7,529.5c0,4.9-1.8,7.6-5,7.6c-2.8,0-4.7-2.6-4.7-7.4c0-4.8,2.1-7.5,5-7.5
				C690,522.2,691.7,524.9,691.7,529.5z M684,529.7c0,3.7,1.1,5.9,2.9,5.9c2,0,2.9-2.3,2.9-6c0-3.5-0.9-5.9-2.9-5.9
				C685.2,523.7,684,525.8,684,529.7z"/>
			<path class="st5" d="M707.6,526.1c0,0.8-0.1,1.6-0.1,2.9v6.2c0,2.5-0.5,4-1.5,4.9c-1,1-2.5,1.3-3.9,1.3c-1.3,0-2.7-0.3-3.6-0.9
				l0.5-1.5c0.7,0.4,1.8,0.8,3.1,0.8c2,0,3.4-1,3.4-3.7V535h0c-0.6,1-1.7,1.8-3.4,1.8c-2.6,0-4.5-2.3-4.5-5.2c0-3.6,2.4-5.7,4.8-5.7
				c1.9,0,2.9,1,3.3,1.9h0l0.1-1.6H707.6z M705.6,530.3c0-0.3,0-0.6-0.1-0.9c-0.4-1.1-1.3-2.1-2.7-2.1c-1.9,0-3.2,1.6-3.2,4
				c0,2.1,1.1,3.8,3.2,3.8c1.2,0,2.3-0.8,2.7-2c0.1-0.3,0.2-0.7,0.2-1V530.3z"/>
			<path class="st5" d="M716.4,536.8l-0.2-1.3h-0.1c-0.6,0.8-1.7,1.6-3.3,1.6c-2.2,0-3.3-1.5-3.3-3.1c0-2.6,2.3-4,6.4-4v-0.2
				c0-0.9-0.2-2.5-2.4-2.5c-1,0-2,0.3-2.8,0.8l-0.4-1.3c0.9-0.6,2.2-1,3.5-1c3.3,0,4.1,2.2,4.1,4.4v4c0,0.9,0,1.8,0.2,2.6H716.4z
				 M716.1,531.3c-2.1,0-4.5,0.3-4.5,2.4c0,1.3,0.8,1.9,1.8,1.9c1.4,0,2.3-0.9,2.6-1.8c0.1-0.2,0.1-0.4,0.1-0.6V531.3z"/>
			<path class="st5" d="M720.9,521.1h1.9v15.7h-1.9V521.1z"/>
			<path class="st5" d="M740.3,538.2c-1.2,0.6-2.4,0.9-3.9,0.9c-3.6,0-6.7-2.7-6.7-6.9c0-4.6,3.2-8.5,8.1-8.5c3.8,0,6.4,2.7,6.4,6.4
				c0,3.3-1.9,5.3-3.9,5.3c-0.9,0-1.7-0.6-1.6-1.9h-0.1c-0.8,1.3-1.8,1.9-3.1,1.9c-1.3,0-2.4-1-2.4-2.8c0-2.7,2.2-5.2,5.2-5.2
				c0.9,0,1.8,0.2,2.4,0.5l-0.8,4c-0.3,1.7-0.1,2.5,0.7,2.5c1.1,0,2.4-1.5,2.4-4c0-3.2-1.9-5.5-5.3-5.5c-3.6,0-6.6,2.9-6.6,7.3
				c0,3.7,2.4,6,5.7,6c1.3,0,2.4-0.3,3.3-0.8L740.3,538.2z M739.1,528.7c-0.2-0.1-0.6-0.2-1.1-0.2c-1.9,0-3.5,1.8-3.5,4
				c0,1,0.5,1.7,1.5,1.7c1.3,0,2.4-1.6,2.7-3L739.1,528.7z"/>
			<path class="st5" d="M754.1,538.7v-2.2c-1.3,0-2.6-0.4-3.4-1l0.5-1.5c0.8,0.5,1.9,1,3.2,1c1.6,0,2.6-0.9,2.6-2.2
				c0-1.2-0.9-2-2.5-2.6c-2.3-0.9-3.6-1.9-3.6-3.8c0-1.8,1.3-3.2,3.3-3.6v-2.2h1.4v2.1c1.3,0,2.2,0.4,2.9,0.8l-0.6,1.5
				c-0.5-0.3-1.4-0.8-2.8-0.8c-1.7,0-2.3,1-2.3,1.9c0,1.2,0.8,1.7,2.7,2.5c2.3,0.9,3.4,2.1,3.4,4c0,1.7-1.2,3.4-3.5,3.8v2.3H754.1z"
				/>
			<path class="st5" d="M770.9,529.5c0,4.9-1.8,7.6-5,7.6c-2.8,0-4.7-2.6-4.7-7.4c0-4.8,2.1-7.5,5-7.5
				C769.1,522.2,770.9,524.9,770.9,529.5z M763.1,529.7c0,3.7,1.1,5.9,2.9,5.9c2,0,2.9-2.3,2.9-6c0-3.5-0.9-5.9-2.9-5.9
				C764.3,523.7,763.1,525.8,763.1,529.7z"/>
			<path class="st5" d="M772.6,535.7c0-0.8,0.6-1.4,1.3-1.4c0.8,0,1.3,0.6,1.3,1.4c0,0.8-0.5,1.4-1.3,1.4
				C773.1,537,772.6,536.4,772.6,535.7z"/>
			<path class="st5" d="M786.3,529.5c0,4.9-1.8,7.6-5,7.6c-2.8,0-4.7-2.6-4.7-7.4c0-4.8,2.1-7.5,5-7.5
				C784.6,522.2,786.3,524.9,786.3,529.5z M778.5,529.7c0,3.7,1.1,5.9,2.9,5.9c2,0,2.9-2.3,2.9-6c0-3.5-0.9-5.9-2.9-5.9
				C779.8,523.7,778.5,525.8,778.5,529.7z"/>
			<path class="st5" d="M792.1,524.2L792.1,524.2l-2.5,1.3l-0.4-1.5l3.1-1.7h1.7v14.4h-1.9V524.2z"/>
			<path class="st5" d="M968.8,538.7v-2.2c-1.3,0-2.6-0.4-3.4-1l0.5-1.5c0.8,0.5,1.9,1,3.2,1c1.6,0,2.6-0.9,2.6-2.2
				c0-1.2-0.9-2-2.5-2.6c-2.3-0.9-3.6-1.9-3.6-3.8c0-1.8,1.3-3.2,3.3-3.6v-2.2h1.4v2.1c1.3,0,2.2,0.4,2.9,0.8l-0.6,1.5
				c-0.5-0.3-1.4-0.8-2.8-0.8c-1.7,0-2.3,1-2.3,1.9c0,1.2,0.8,1.7,2.7,2.5c2.3,0.9,3.4,2.1,3.4,4c0,1.7-1.2,3.4-3.5,3.8v2.3H968.8z"
				/>
			<path class="st5" d="M985.6,529.5c0,4.9-1.8,7.6-5,7.6c-2.8,0-4.7-2.6-4.7-7.4c0-4.8,2.1-7.5,5-7.5
				C983.9,522.2,985.6,524.9,985.6,529.5z M977.8,529.7c0,3.7,1.1,5.9,2.9,5.9c2,0,2.9-2.3,2.9-6c0-3.5-0.9-5.9-2.9-5.9
				C979,523.7,977.8,525.8,977.8,529.7z"/>
			<path class="st5" d="M987.3,535.7c0-0.8,0.6-1.4,1.3-1.4c0.8,0,1.3,0.6,1.3,1.4c0,0.8-0.5,1.4-1.3,1.4
				C987.8,537,987.3,536.4,987.3,535.7z"/>
			<path class="st5" d="M1001,529.5c0,4.9-1.8,7.6-5,7.6c-2.8,0-4.7-2.6-4.7-7.4c0-4.8,2.1-7.5,5-7.5
				C999.3,522.2,1001,524.9,1001,529.5z M993.2,529.7c0,3.7,1.1,5.9,2.9,5.9c2,0,2.9-2.3,2.9-6c0-3.5-0.9-5.9-2.9-5.9
				C994.5,523.7,993.2,525.8,993.2,529.7z"/>
			<path class="st5" d="M1012.1,529.5c0,4.9-1.8,7.6-5,7.6c-2.8,0-4.7-2.6-4.7-7.4c0-4.8,2.1-7.5,5-7.5
				C1010.4,522.2,1012.1,524.9,1012.1,529.5z M1004.3,529.7c0,3.7,1.1,5.9,2.9,5.9c2,0,2.9-2.3,2.9-6c0-3.5-0.9-5.9-2.9-5.9
				C1005.6,523.7,1004.3,525.8,1004.3,529.7z"/>
		</g>
	</g>
	<g>
		<path class="st2" d="M7.6,230.7h-6v-2.2h14.5v2.2h-6v17.5H7.6V230.7z"/>
		<path class="st2" d="M17.8,227.5h2.6v8.8h0.1c0.4-0.7,1-1.4,1.8-1.8c0.8-0.4,1.7-0.7,2.6-0.7c1.9,0,4.9,1.2,4.9,6v8.4h-2.6v-8.1
			c0-2.3-0.8-4.2-3.3-4.2c-1.7,0-3,1.2-3.4,2.6c-0.1,0.3-0.2,0.7-0.2,1.2v8.5h-2.6V227.5z"/>
		<path class="st2" d="M36.5,230.1c0,0.9-0.6,1.6-1.6,1.6c-0.9,0-1.5-0.7-1.5-1.6c0-0.9,0.7-1.6,1.6-1.6
			C35.9,228.5,36.5,229.2,36.5,230.1z M33.7,248.2v-14.1h2.6v14.1H33.7z"/>
		<path class="st2" d="M39.8,245.5c0.8,0.5,2.1,1,3.4,1c1.9,0,2.7-0.9,2.7-2.1c0-1.2-0.7-1.9-2.6-2.6c-2.5-0.9-3.7-2.3-3.7-4
			c0-2.3,1.8-4.1,4.9-4.1c1.4,0,2.7,0.4,3.5,0.9l-0.6,1.9c-0.6-0.4-1.6-0.8-2.9-0.8c-1.5,0-2.4,0.9-2.4,1.9c0,1.2,0.8,1.7,2.7,2.4
			c2.4,0.9,3.7,2.2,3.7,4.3c0,2.5-1.9,4.2-5.3,4.2c-1.5,0-3-0.4-4-1L39.8,245.5z"/>
		<path class="st2" d="M67.3,247.6c-0.7,0.4-2.2,0.8-4,0.8c-4.3,0-7-2.9-7-7.2c0-4.3,3-7.5,7.6-7.5c1.5,0,2.9,0.4,3.6,0.7l-0.6,2
			c-0.6-0.4-1.6-0.7-3-0.7c-3.2,0-5,2.4-5,5.3c0,3.3,2.1,5.3,4.9,5.3c1.5,0,2.4-0.4,3.1-0.7L67.3,247.6z"/>
		<path class="st2" d="M82.6,241c0,5.2-3.6,7.5-7,7.5c-3.8,0-6.8-2.8-6.8-7.3c0-4.7,3.1-7.5,7-7.5C79.9,233.7,82.6,236.7,82.6,241z
			 M71.4,241.1c0,3.1,1.8,5.4,4.3,5.4c2.4,0,4.3-2.3,4.3-5.5c0-2.4-1.2-5.4-4.2-5.4C72.7,235.7,71.4,238.5,71.4,241.1z"/>
		<path class="st2" d="M85.6,237.9c0-1.5,0-2.7-0.1-3.8h2.2l0.1,2.3h0.1c0.8-1.3,2.1-2.6,4.4-2.6c1.9,0,3.4,1.2,4,2.8h0.1
			c0.4-0.8,1-1.4,1.6-1.8c0.8-0.6,1.8-1,3.1-1c1.9,0,4.6,1.2,4.6,6.1v8.3h-2.5v-8c0-2.7-1-4.3-3.1-4.3c-1.5,0-2.6,1.1-3,2.3
			c-0.1,0.4-0.2,0.8-0.2,1.3v8.7h-2.5v-8.5c0-2.2-1-3.9-2.9-3.9c-1.6,0-2.8,1.3-3.2,2.6c-0.1,0.4-0.2,0.8-0.2,1.3v8.5h-2.5V237.9z"
			/>
		<path class="st2" d="M109.5,238.7c0-1.8-0.1-3.3-0.1-4.6h2.3l0.1,2.4h0.1c1-1.7,2.7-2.7,5-2.7c3.4,0,6,2.9,6,7.2
			c0,5.1-3.1,7.6-6.4,7.6c-1.9,0-3.5-0.8-4.3-2.2h-0.1v7.7h-2.5V238.7z M112.1,242.4c0,0.4,0.1,0.7,0.1,1.1c0.5,1.8,2,3,3.8,3
			c2.7,0,4.3-2.2,4.3-5.5c0-2.8-1.5-5.3-4.2-5.3c-1.7,0-3.4,1.3-3.9,3.2c-0.1,0.3-0.2,0.7-0.2,1.1V242.4z"/>
		<path class="st2" d="M138.6,241c0,5.2-3.6,7.5-7,7.5c-3.8,0-6.8-2.8-6.8-7.3c0-4.7,3.1-7.5,7-7.5
			C135.8,233.7,138.6,236.7,138.6,241z M127.4,241.1c0,3.1,1.8,5.4,4.3,5.4c2.4,0,4.3-2.3,4.3-5.5c0-2.4-1.2-5.4-4.2-5.4
			C128.7,235.7,127.4,238.5,127.4,241.1z"/>
		<path class="st2" d="M141.5,237.9c0-1.5,0-2.7-0.1-3.8h2.3l0.1,2.3h0.1c0.7-1.3,2.3-2.7,4.7-2.7c2,0,5,1.2,5,6v8.4h-2.6V240
			c0-2.3-0.8-4.2-3.3-4.2c-1.7,0-3,1.2-3.4,2.6c-0.1,0.3-0.2,0.8-0.2,1.2v8.5h-2.6V237.9z"/>
		<path class="st2" d="M158.8,241.6c0.1,3.5,2.3,4.9,4.8,4.9c1.8,0,2.9-0.3,3.9-0.7l0.4,1.8c-0.9,0.4-2.4,0.9-4.7,0.9
			c-4.3,0-6.9-2.9-6.9-7.1c0-4.3,2.5-7.6,6.6-7.6c4.6,0,5.8,4.1,5.8,6.7c0,0.5-0.1,0.9-0.1,1.2H158.8z M166.3,239.7
			c0-1.6-0.7-4.2-3.6-4.2c-2.6,0-3.7,2.4-3.9,4.2H166.3z"/>
		<path class="st2" d="M171.7,237.9c0-1.5,0-2.7-0.1-3.8h2.3l0.1,2.3h0.1c0.7-1.3,2.3-2.7,4.7-2.7c2,0,5,1.2,5,6v8.4h-2.6V240
			c0-2.3-0.8-4.2-3.3-4.2c-1.7,0-3,1.2-3.4,2.6c-0.1,0.3-0.2,0.8-0.2,1.2v8.5h-2.6V237.9z"/>
		<path class="st2" d="M190.5,230v4.1h3.7v2h-3.7v7.6c0,1.8,0.5,2.7,1.9,2.7c0.7,0,1.2-0.1,1.5-0.2l0.1,1.9
			c-0.5,0.2-1.3,0.4-2.3,0.4c-1.2,0-2.2-0.4-2.8-1.1c-0.7-0.8-1-2-1-3.7V236h-2.2v-2h2.2v-3.4L190.5,230z"/>
		<path class="st2" d="M215.4,241c0,5.2-3.6,7.5-7,7.5c-3.8,0-6.8-2.8-6.8-7.3c0-4.7,3.1-7.5,7-7.5
			C212.6,233.7,215.4,236.7,215.4,241z M204.2,241.1c0,3.1,1.8,5.4,4.3,5.4c2.4,0,4.3-2.3,4.3-5.5c0-2.4-1.2-5.4-4.2-5.4
			C205.5,235.7,204.2,238.5,204.2,241.1z"/>
		<path class="st2" d="M218.6,248.2V236h-2v-2h2v-0.7c0-2,0.4-3.8,1.6-4.9c1-0.9,2.2-1.3,3.4-1.3c0.9,0,1.7,0.2,2.2,0.4l-0.3,2
			c-0.4-0.2-0.9-0.3-1.6-0.3c-2.2,0-2.7,1.9-2.7,4.1v0.8h3.4v2h-3.4v12.2H218.6z"/>
		<path class="st2" d="M235.5,230v4.1h3.7v2h-3.7v7.6c0,1.8,0.5,2.7,1.9,2.7c0.7,0,1.2-0.1,1.5-0.2l0.1,1.9
			c-0.5,0.2-1.3,0.4-2.3,0.4c-1.2,0-2.2-0.4-2.8-1.1c-0.7-0.8-1-2-1-3.7V236h-2.2v-2h2.2v-3.4L235.5,230z"/>
		<path class="st2" d="M241.7,227.5h2.6v8.8h0.1c0.4-0.7,1-1.4,1.8-1.8c0.8-0.4,1.7-0.7,2.6-0.7c1.9,0,4.9,1.2,4.9,6v8.4h-2.6v-8.1
			c0-2.3-0.8-4.2-3.3-4.2c-1.7,0-3,1.2-3.4,2.6c-0.1,0.3-0.2,0.7-0.2,1.2v8.5h-2.6V227.5z"/>
		<path class="st2" d="M259,241.6c0.1,3.5,2.3,4.9,4.8,4.9c1.8,0,2.9-0.3,3.9-0.7l0.4,1.8c-0.9,0.4-2.4,0.9-4.7,0.9
			c-4.3,0-6.9-2.9-6.9-7.1c0-4.3,2.5-7.6,6.6-7.6c4.6,0,5.8,4.1,5.8,6.7c0,0.5-0.1,0.9-0.1,1.2H259z M266.5,239.7
			c0-1.6-0.7-4.2-3.6-4.2c-2.6,0-3.7,2.4-3.9,4.2H266.5z"/>
		<path class="st2" d="M277.7,248.2c0.1-1,0.1-2.4,0.1-3.6v-17.1h2.5v8.9h0.1c0.9-1.6,2.5-2.6,4.8-2.6c3.5,0,6,2.9,5.9,7.2
			c0,5-3.2,7.6-6.3,7.6c-2,0-3.7-0.8-4.7-2.7H280l-0.1,2.3H277.7z M280.3,242.5c0,0.3,0.1,0.6,0.1,0.9c0.5,1.8,2,3,3.8,3
			c2.7,0,4.3-2.2,4.3-5.4c0-2.8-1.5-5.3-4.2-5.3c-1.7,0-3.4,1.2-3.9,3.2c-0.1,0.3-0.1,0.6-0.1,1.1V242.5z"/>
		<path class="st2" d="M296.9,230.1c0,0.9-0.6,1.6-1.6,1.6c-0.9,0-1.5-0.7-1.5-1.6c0-0.9,0.7-1.6,1.6-1.6
			C296.3,228.5,296.9,229.2,296.9,230.1z M294.1,248.2v-14.1h2.6v14.1H294.1z"/>
		<path class="st2" d="M300.6,227.5h2.6v20.7h-2.6V227.5z"/>
		<path class="st2" d="M307.1,227.5h2.6v20.7h-2.6V227.5z"/>
		<path class="st2" d="M331.7,234.1c-0.1,1-0.1,2.2-0.1,3.9v8.2c0,3.2-0.6,5.2-2,6.4c-1.4,1.3-3.3,1.7-5.1,1.7
			c-1.7,0-3.6-0.4-4.7-1.2l0.6-2c0.9,0.6,2.4,1.1,4.1,1.1c2.6,0,4.5-1.4,4.5-4.9v-1.6h-0.1c-0.8,1.3-2.3,2.4-4.5,2.4
			c-3.5,0-6-3-6-6.9c0-4.8,3.1-7.5,6.3-7.5c2.4,0,3.8,1.3,4.4,2.5h0.1l0.1-2.1H331.7z M329.1,239.6c0-0.4,0-0.8-0.1-1.2
			c-0.5-1.5-1.7-2.7-3.6-2.7c-2.4,0-4.2,2.1-4.2,5.3c0,2.8,1.4,5.1,4.2,5.1c1.6,0,3-1,3.6-2.6c0.1-0.4,0.2-0.9,0.2-1.4V239.6z"/>
		<path class="st2" d="M348.3,241c0,5.2-3.6,7.5-7,7.5c-3.8,0-6.8-2.8-6.8-7.3c0-4.7,3.1-7.5,7-7.5
			C345.6,233.7,348.3,236.7,348.3,241z M337.2,241.1c0,3.1,1.8,5.4,4.3,5.4c2.4,0,4.3-2.3,4.3-5.5c0-2.4-1.2-5.4-4.2-5.4
			C338.5,235.7,337.2,238.5,337.2,241.1z"/>
		<path class="st2" d="M352.7,241.6c0.1,3.5,2.3,4.9,4.8,4.9c1.8,0,2.9-0.3,3.9-0.7l0.4,1.8c-0.9,0.4-2.4,0.9-4.7,0.9
			c-4.3,0-6.9-2.9-6.9-7.1c0-4.3,2.5-7.6,6.6-7.6c4.6,0,5.8,4.1,5.8,6.7c0,0.5-0.1,0.9-0.1,1.2H352.7z M360.2,239.7
			c0-1.6-0.7-4.2-3.6-4.2c-2.6,0-3.7,2.4-3.9,4.2H360.2z"/>
		<path class="st2" d="M365.2,245.5c0.8,0.5,2.1,1,3.4,1c1.9,0,2.7-0.9,2.7-2.1c0-1.2-0.7-1.9-2.6-2.6c-2.5-0.9-3.7-2.3-3.7-4
			c0-2.3,1.8-4.1,4.9-4.1c1.4,0,2.7,0.4,3.5,0.9l-0.6,1.9c-0.6-0.4-1.6-0.8-2.9-0.8c-1.5,0-2.4,0.9-2.4,1.9c0,1.2,0.8,1.7,2.7,2.4
			c2.4,0.9,3.7,2.2,3.7,4.3c0,2.5-1.9,4.2-5.3,4.2c-1.5,0-3-0.4-4-1L365.2,245.5z"/>
		<path class="st2" d="M6.9,265v4.1h3.7v2H6.9v7.6c0,1.8,0.5,2.7,1.9,2.7c0.7,0,1.2-0.1,1.5-0.2l0.1,1.9c-0.5,0.2-1.3,0.3-2.3,0.3
			c-1.2,0-2.2-0.4-2.8-1.1c-0.7-0.8-1-2-1-3.7V271H2.2v-2h2.2v-3.4L6.9,265z"/>
		<path class="st2" d="M25.7,276c0,5.2-3.6,7.5-7,7.5c-3.8,0-6.8-2.8-6.8-7.3c0-4.7,3.1-7.5,7-7.5C23,268.7,25.7,271.7,25.7,276z
			 M14.6,276.1c0,3.1,1.8,5.4,4.3,5.4c2.4,0,4.3-2.3,4.3-5.5c0-2.4-1.2-5.4-4.2-5.4C15.9,270.7,14.6,273.5,14.6,276.1z"/>
		<path class="st2" d="M29.5,269.1l1.9,7.2c0.4,1.6,0.8,3,1,4.5h0.1c0.3-1.4,0.8-2.9,1.3-4.5l2.3-7.2h2.2l2.2,7.1
			c0.5,1.7,0.9,3.2,1.3,4.6h0.1c0.2-1.4,0.6-2.9,1.1-4.6l2-7.1h2.5l-4.5,14.1h-2.3l-2.2-6.7c-0.5-1.6-0.9-3-1.3-4.6H37
			c-0.3,1.7-0.8,3.2-1.3,4.7l-2.3,6.7h-2.3l-4.3-14.1H29.5z"/>
		<path class="st2" d="M57.3,283.2l-0.2-1.8H57c-0.8,1.1-2.3,2.1-4.3,2.1c-2.9,0-4.3-2-4.3-4.1c0-3.4,3-5.3,8.5-5.3v-0.3
			c0-1.2-0.3-3.3-3.2-3.3c-1.3,0-2.7,0.4-3.7,1.1l-0.6-1.7c1.2-0.8,2.9-1.3,4.6-1.3c4.3,0,5.4,2.9,5.4,5.8v5.3
			c0,1.2,0.1,2.4,0.2,3.4H57.3z M56.9,276c-2.8-0.1-6,0.4-6,3.2c0,1.7,1.1,2.5,2.4,2.5c1.8,0,3-1.2,3.4-2.4c0.1-0.3,0.1-0.6,0.1-0.8
			V276z"/>
		<path class="st2" d="M63.2,273.5c0-1.7,0-3.1-0.1-4.4h2.2l0.1,2.8h0.1c0.6-1.9,2.2-3.1,3.9-3.1c0.3,0,0.5,0,0.7,0.1v2.4
			c-0.3-0.1-0.5-0.1-0.9-0.1c-1.8,0-3.1,1.4-3.4,3.3c-0.1,0.4-0.1,0.8-0.1,1.2v7.5h-2.5V273.5z"/>
		<path class="st2" d="M84.3,262.5v17.1c0,1.3,0,2.7,0.1,3.6h-2.3l-0.1-2.5H82c-0.8,1.6-2.5,2.8-4.8,2.8c-3.4,0-6-2.9-6-7.2
			c0-4.7,2.9-7.6,6.3-7.6c2.2,0,3.6,1,4.3,2.2h0.1v-8.4H84.3z M81.8,274.8c0-0.3,0-0.8-0.1-1.1c-0.4-1.6-1.8-3-3.7-3
			c-2.6,0-4.2,2.3-4.2,5.5c0,2.9,1.4,5.2,4.2,5.2c1.7,0,3.3-1.1,3.8-3.1c0.1-0.4,0.1-0.7,0.1-1.1V274.8z"/>
		<path class="st2" d="M87.9,280.5c0.8,0.5,2.1,1,3.4,1c1.9,0,2.7-0.9,2.7-2.1c0-1.2-0.7-1.9-2.6-2.6c-2.5-0.9-3.7-2.3-3.7-4
			c0-2.3,1.8-4.1,4.9-4.1c1.4,0,2.7,0.4,3.5,0.9l-0.6,1.9c-0.6-0.4-1.6-0.8-2.9-0.8c-1.5,0-2.4,0.9-2.4,1.9c0,1.2,0.8,1.7,2.7,2.4
			c2.4,0.9,3.7,2.2,3.7,4.3c0,2.5-1.9,4.2-5.3,4.2c-1.5,0-3-0.4-4-1L87.9,280.5z"/>
		<path class="st2" d="M105.1,280.5c0.8,0.5,2.1,1,3.4,1c1.9,0,2.7-0.9,2.7-2.1c0-1.2-0.7-1.9-2.6-2.6c-2.5-0.9-3.7-2.3-3.7-4
			c0-2.3,1.8-4.1,4.9-4.1c1.4,0,2.7,0.4,3.5,0.9l-0.6,1.9c-0.6-0.4-1.6-0.8-2.9-0.8c-1.5,0-2.4,0.9-2.4,1.9c0,1.2,0.8,1.7,2.7,2.4
			c2.4,0.9,3.7,2.2,3.7,4.3c0,2.5-1.9,4.2-5.3,4.2c-1.5,0-3-0.4-4-1L105.1,280.5z"/>
		<path class="st2" d="M128.4,279.3c0,1.5,0,2.7,0.1,3.9h-2.3l-0.1-2.3h-0.1c-0.7,1.1-2.2,2.6-4.7,2.6c-2.2,0-4.9-1.2-4.9-6.2v-8.3
			h2.6v7.8c0,2.7,0.8,4.5,3.1,4.5c1.7,0,2.9-1.2,3.4-2.3c0.1-0.4,0.2-0.8,0.2-1.3v-8.7h2.6V279.3z"/>
		<path class="st2" d="M132.4,273.7c0-1.8-0.1-3.3-0.1-4.6h2.3l0.1,2.4h0.1c1-1.7,2.7-2.7,5-2.7c3.4,0,6,2.9,6,7.2
			c0,5.1-3.1,7.6-6.4,7.6c-1.9,0-3.5-0.8-4.3-2.2h-0.1v7.7h-2.5V273.7z M134.9,277.4c0,0.4,0.1,0.7,0.1,1.1c0.5,1.8,2,3,3.8,3
			c2.7,0,4.3-2.2,4.3-5.5c0-2.8-1.5-5.3-4.2-5.3c-1.7,0-3.4,1.3-3.9,3.2c-0.1,0.3-0.2,0.7-0.2,1.1V277.4z"/>
		<path class="st2" d="M148.7,273.7c0-1.8-0.1-3.3-0.1-4.6h2.3l0.1,2.4h0.1c1-1.7,2.7-2.7,5-2.7c3.4,0,6,2.9,6,7.2
			c0,5.1-3.1,7.6-6.4,7.6c-1.9,0-3.5-0.8-4.3-2.2h-0.1v7.7h-2.5V273.7z M151.2,277.4c0,0.4,0.1,0.7,0.1,1.1c0.5,1.8,2,3,3.8,3
			c2.7,0,4.3-2.2,4.3-5.5c0-2.8-1.5-5.3-4.2-5.3c-1.7,0-3.4,1.3-3.9,3.2c-0.1,0.3-0.2,0.7-0.2,1.1V277.4z"/>
		<path class="st2" d="M177.7,276c0,5.2-3.6,7.5-7,7.5c-3.8,0-6.8-2.8-6.8-7.3c0-4.7,3.1-7.5,7-7.5
			C174.9,268.7,177.7,271.7,177.7,276z M166.5,276.1c0,3.1,1.8,5.4,4.3,5.4c2.4,0,4.3-2.3,4.3-5.5c0-2.4-1.2-5.4-4.2-5.4
			C167.8,270.7,166.5,273.5,166.5,276.1z"/>
		<path class="st2" d="M180.6,273.5c0-1.7,0-3.1-0.1-4.4h2.2l0.1,2.8h0.1c0.6-1.9,2.2-3.1,3.9-3.1c0.3,0,0.5,0,0.7,0.1v2.4
			c-0.3-0.1-0.5-0.1-0.9-0.1c-1.8,0-3.1,1.4-3.4,3.3c-0.1,0.4-0.1,0.8-0.1,1.2v7.5h-2.5V273.5z"/>
		<path class="st2" d="M193.6,265v4.1h3.7v2h-3.7v7.6c0,1.8,0.5,2.7,1.9,2.7c0.7,0,1.2-0.1,1.5-0.2l0.1,1.9
			c-0.5,0.2-1.3,0.3-2.3,0.3c-1.2,0-2.2-0.4-2.8-1.1c-0.7-0.8-1-2-1-3.7V271h-2.2v-2h2.2v-3.4L193.6,265z"/>
		<path class="st2" d="M202.7,265.1c0,0.9-0.6,1.6-1.6,1.6c-0.9,0-1.5-0.7-1.5-1.6c0-0.9,0.7-1.6,1.6-1.6
			C202.1,263.5,202.7,264.2,202.7,265.1z M199.9,283.2v-14.1h2.6v14.1H199.9z"/>
		<path class="st2" d="M206.4,272.9c0-1.5,0-2.7-0.1-3.8h2.3l0.1,2.3h0.1c0.7-1.3,2.3-2.7,4.7-2.7c2,0,5,1.2,5,6v8.4h-2.6V275
			c0-2.3-0.8-4.2-3.3-4.2c-1.7,0-3,1.2-3.4,2.6c-0.1,0.3-0.2,0.8-0.2,1.2v8.5h-2.6V272.9z"/>
		<path class="st2" d="M234.4,269.1c-0.1,1-0.1,2.2-0.1,3.9v8.2c0,3.2-0.6,5.2-2,6.4c-1.4,1.3-3.3,1.7-5.1,1.7
			c-1.7,0-3.6-0.4-4.7-1.2l0.6-2c0.9,0.6,2.4,1.1,4.1,1.1c2.6,0,4.5-1.4,4.5-4.9v-1.6h-0.1c-0.8,1.3-2.3,2.4-4.5,2.4
			c-3.5,0-6-3-6-6.9c0-4.8,3.1-7.5,6.3-7.5c2.4,0,3.8,1.3,4.4,2.5h0.1l0.1-2.1H234.4z M231.8,274.6c0-0.4,0-0.8-0.1-1.2
			c-0.5-1.5-1.7-2.7-3.6-2.7c-2.4,0-4.2,2.1-4.2,5.3c0,2.8,1.4,5.1,4.2,5.1c1.6,0,3-1,3.6-2.6c0.1-0.4,0.2-0.9,0.2-1.4V274.6z"/>
		<path class="st2" d="M247.2,265v4.1h3.7v2h-3.7v7.6c0,1.8,0.5,2.7,1.9,2.7c0.7,0,1.2-0.1,1.5-0.2l0.1,1.9
			c-0.5,0.2-1.3,0.3-2.3,0.3c-1.2,0-2.2-0.4-2.8-1.1c-0.7-0.8-1-2-1-3.7V271h-2.2v-2h2.2v-3.4L247.2,265z"/>
		<path class="st2" d="M253.5,262.5h2.6v8.8h0.1c0.4-0.7,1-1.4,1.8-1.8c0.8-0.4,1.7-0.7,2.6-0.7c1.9,0,4.9,1.2,4.9,6v8.4h-2.6v-8.1
			c0-2.3-0.8-4.2-3.3-4.2c-1.7,0-3,1.2-3.4,2.6c-0.1,0.4-0.2,0.7-0.2,1.2v8.5h-2.6V262.5z"/>
		<path class="st2" d="M270.8,276.6c0.1,3.5,2.3,4.9,4.8,4.9c1.8,0,2.9-0.3,3.9-0.7l0.4,1.8c-0.9,0.4-2.4,0.9-4.7,0.9
			c-4.3,0-6.9-2.9-6.9-7.1c0-4.3,2.5-7.6,6.6-7.6c4.6,0,5.8,4.1,5.8,6.7c0,0.5-0.1,0.9-0.1,1.2H270.8z M278.3,274.7
			c0-1.6-0.7-4.2-3.6-4.2c-2.6,0-3.7,2.4-3.9,4.2H278.3z"/>
		<path class="st2" d="M289.5,272.9c0-1.5,0-2.7-0.1-3.8h2.2l0.1,2.3h0.1c0.8-1.3,2.1-2.6,4.4-2.6c1.9,0,3.4,1.2,4,2.8h0.1
			c0.4-0.8,1-1.4,1.6-1.8c0.8-0.6,1.8-1,3.1-1c1.9,0,4.6,1.2,4.6,6.1v8.3h-2.5v-8c0-2.7-1-4.3-3.1-4.3c-1.5,0-2.6,1.1-3,2.3
			c-0.1,0.4-0.2,0.8-0.2,1.3v8.7h-2.5v-8.5c0-2.2-1-3.9-2.9-3.9c-1.6,0-2.8,1.3-3.2,2.6c-0.1,0.4-0.2,0.8-0.2,1.3v8.5h-2.5V272.9z"
			/>
		<path class="st2" d="M321.3,283.2l-0.2-1.8H321c-0.8,1.1-2.3,2.1-4.3,2.1c-2.9,0-4.3-2-4.3-4.1c0-3.4,3-5.3,8.5-5.3v-0.3
			c0-1.2-0.3-3.3-3.2-3.3c-1.3,0-2.7,0.4-3.7,1.1l-0.6-1.7c1.2-0.8,2.9-1.3,4.6-1.3c4.3,0,5.4,2.9,5.4,5.8v5.3
			c0,1.2,0.1,2.4,0.2,3.4H321.3z M320.9,276c-2.8-0.1-6,0.4-6,3.2c0,1.7,1.1,2.5,2.4,2.5c1.8,0,3-1.2,3.4-2.4
			c0.1-0.3,0.1-0.6,0.1-0.8V276z"/>
		<path class="st2" d="M330.1,265.1c0,0.9-0.6,1.6-1.6,1.6c-0.9,0-1.5-0.7-1.5-1.6c0-0.9,0.7-1.6,1.6-1.6
			C329.5,263.5,330.1,264.2,330.1,265.1z M327.2,283.2v-14.1h2.6v14.1H327.2z"/>
		<path class="st2" d="M333.8,272.9c0-1.5,0-2.7-0.1-3.8h2.3l0.1,2.3h0.1c0.7-1.3,2.3-2.7,4.7-2.7c2,0,5,1.2,5,6v8.4h-2.6V275
			c0-2.3-0.8-4.2-3.3-4.2c-1.7,0-3,1.2-3.4,2.6c-0.1,0.3-0.2,0.8-0.2,1.2v8.5h-2.6V272.9z"/>
		<path class="st2" d="M352.6,265v4.1h3.7v2h-3.7v7.6c0,1.8,0.5,2.7,1.9,2.7c0.7,0,1.2-0.1,1.5-0.2l0.1,1.9
			c-0.5,0.2-1.3,0.3-2.3,0.3c-1.2,0-2.2-0.4-2.8-1.1c-0.7-0.8-1-2-1-3.7V271h-2.2v-2h2.2v-3.4L352.6,265z"/>
		<path class="st2" d="M360.1,276.6c0.1,3.5,2.3,4.9,4.8,4.9c1.8,0,2.9-0.3,3.9-0.7l0.4,1.8c-0.9,0.4-2.4,0.9-4.7,0.9
			c-4.3,0-6.9-2.9-6.9-7.1c0-4.3,2.5-7.6,6.6-7.6c4.6,0,5.8,4.1,5.8,6.7c0,0.5-0.1,0.9-0.1,1.2H360.1z M367.6,274.7
			c0-1.6-0.7-4.2-3.6-4.2c-2.6,0-3.7,2.4-3.9,4.2H367.6z"/>
		<path class="st2" d="M373,272.9c0-1.5,0-2.7-0.1-3.8h2.3l0.1,2.3h0.1c0.7-1.3,2.3-2.7,4.7-2.7c2,0,5,1.2,5,6v8.4h-2.6V275
			c0-2.3-0.8-4.2-3.3-4.2c-1.7,0-3,1.2-3.4,2.6c-0.1,0.3-0.2,0.8-0.2,1.2v8.5H373V272.9z"/>
		<path class="st2" d="M396.6,283.2l-0.2-1.8h-0.1c-0.8,1.1-2.3,2.1-4.3,2.1c-2.9,0-4.3-2-4.3-4.1c0-3.4,3-5.3,8.5-5.3v-0.3
			c0-1.2-0.3-3.3-3.2-3.3c-1.3,0-2.7,0.4-3.7,1.1l-0.6-1.7c1.2-0.8,2.9-1.3,4.6-1.3c4.3,0,5.4,2.9,5.4,5.8v5.3
			c0,1.2,0.1,2.4,0.2,3.4H396.6z M396.2,276c-2.8-0.1-6,0.4-6,3.2c0,1.7,1.1,2.5,2.4,2.5c1.8,0,3-1.2,3.4-2.4
			c0.1-0.3,0.1-0.6,0.1-0.8V276z"/>
		<path class="st2" d="M402.6,272.9c0-1.5,0-2.7-0.1-3.8h2.3l0.1,2.3h0.1c0.7-1.3,2.3-2.7,4.7-2.7c2,0,5,1.2,5,6v8.4H412V275
			c0-2.3-0.8-4.2-3.3-4.2c-1.7,0-3,1.2-3.4,2.6c-0.1,0.3-0.2,0.8-0.2,1.2v8.5h-2.6V272.9z"/>
		<path class="st2" d="M428.5,282.6c-0.7,0.3-2.2,0.8-4,0.8c-4.3,0-7-2.9-7-7.2c0-4.3,3-7.5,7.6-7.5c1.5,0,2.9,0.4,3.6,0.7l-0.6,2
			c-0.6-0.4-1.6-0.7-3-0.7c-3.2,0-5,2.4-5,5.3c0,3.3,2.1,5.3,4.9,5.3c1.5,0,2.4-0.4,3.1-0.7L428.5,282.6z"/>
		<path class="st2" d="M432.4,276.6c0.1,3.5,2.3,4.9,4.8,4.9c1.8,0,2.9-0.3,3.9-0.7l0.4,1.8c-0.9,0.4-2.4,0.9-4.7,0.9
			c-4.3,0-6.9-2.9-6.9-7.1c0-4.3,2.5-7.6,6.6-7.6c4.6,0,5.8,4.1,5.8,6.7c0,0.5-0.1,0.9-0.1,1.2H432.4z M439.9,274.7
			c0-1.6-0.7-4.2-3.6-4.2c-2.6,0-3.7,2.4-3.9,4.2H439.9z"/>
		<path class="st2" d="M11.6,318.2l-0.2-1.8h-0.1c-0.8,1.1-2.3,2.1-4.3,2.1c-2.9,0-4.3-2-4.3-4.1c0-3.4,3-5.3,8.5-5.3v-0.3
			c0-1.2-0.3-3.3-3.2-3.3c-1.3,0-2.7,0.4-3.7,1L3.7,305c1.2-0.8,2.9-1.3,4.6-1.3c4.3,0,5.4,2.9,5.4,5.8v5.3c0,1.2,0.1,2.4,0.2,3.4
			H11.6z M11.2,311c-2.8-0.1-6,0.4-6,3.2c0,1.7,1.1,2.5,2.4,2.5c1.8,0,3-1.2,3.4-2.4c0.1-0.3,0.1-0.6,0.1-0.8V311z"/>
		<path class="st2" d="M17.6,307.9c0-1.5,0-2.7-0.1-3.8h2.3l0.1,2.3h0.1c0.7-1.3,2.3-2.7,4.7-2.7c2,0,5,1.2,5,6v8.4H27V310
			c0-2.3-0.8-4.2-3.3-4.2c-1.7,0-3,1.2-3.4,2.6c-0.1,0.3-0.2,0.8-0.2,1.2v8.5h-2.6V307.9z"/>
		<path class="st2" d="M45.6,297.5v17.1c0,1.3,0,2.7,0.1,3.6h-2.3l-0.1-2.5h-0.1c-0.8,1.6-2.5,2.8-4.8,2.8c-3.4,0-6-2.9-6-7.2
			c0-4.7,2.9-7.6,6.3-7.6c2.2,0,3.6,1,4.3,2.2H43v-8.4H45.6z M43,309.8c0-0.3,0-0.8-0.1-1.1c-0.4-1.6-1.8-3-3.7-3
			c-2.6,0-4.2,2.3-4.2,5.5c0,2.9,1.4,5.2,4.2,5.2c1.7,0,3.3-1.1,3.8-3.1c0.1-0.4,0.1-0.7,0.1-1.1V309.8z"/>
		<path class="st2" d="M67.2,314.3c0,1.5,0,2.7,0.1,3.9h-2.3l-0.1-2.3h-0.1c-0.7,1.1-2.2,2.6-4.7,2.6c-2.2,0-4.9-1.2-4.9-6.2v-8.3
			h2.6v7.8c0,2.7,0.8,4.5,3.1,4.5c1.7,0,2.9-1.2,3.4-2.3c0.1-0.4,0.2-0.8,0.2-1.3v-8.7h2.6V314.3z"/>
		<path class="st2" d="M71.2,308.7c0-1.8-0.1-3.3-0.1-4.6h2.3l0.1,2.4h0.1c1-1.7,2.7-2.7,5-2.7c3.4,0,6,2.9,6,7.2
			c0,5.1-3.1,7.6-6.4,7.6c-1.9,0-3.5-0.8-4.3-2.2h-0.1v7.7h-2.5V308.7z M73.7,312.4c0,0.4,0.1,0.7,0.1,1.1c0.5,1.8,2,3,3.8,3
			c2.7,0,4.3-2.2,4.3-5.5c0-2.8-1.5-5.3-4.2-5.3c-1.7,0-3.4,1.3-3.9,3.2c-0.1,0.3-0.2,0.7-0.2,1.1V312.4z"/>
		<path class="st2" d="M90,310.5L90,310.5c0.4-0.5,0.9-1.1,1.3-1.6l4.1-4.9h3.1l-5.4,5.8l6.2,8.3h-3.1l-4.9-6.8l-1.3,1.5v5.3h-2.5
			v-20.7H90V310.5z"/>
		<path class="st2" d="M102.2,311.6c0.1,3.5,2.3,4.9,4.8,4.9c1.8,0,2.9-0.3,3.9-0.7l0.4,1.8c-0.9,0.4-2.4,0.9-4.7,0.9
			c-4.3,0-6.9-2.9-6.9-7.1c0-4.3,2.5-7.6,6.6-7.6c4.6,0,5.8,4.1,5.8,6.7c0,0.5-0.1,0.9-0.1,1.2H102.2z M109.7,309.7
			c0-1.6-0.7-4.2-3.6-4.2c-2.6,0-3.7,2.4-3.9,4.2H109.7z"/>
		<path class="st2" d="M116.5,311.6c0.1,3.5,2.3,4.9,4.8,4.9c1.8,0,2.9-0.3,3.9-0.7l0.4,1.8c-0.9,0.4-2.4,0.9-4.7,0.9
			c-4.3,0-6.9-2.9-6.9-7.1c0-4.3,2.5-7.6,6.6-7.6c4.6,0,5.8,4.1,5.8,6.7c0,0.5-0.1,0.9-0.1,1.2H116.5z M124,309.7
			c0-1.6-0.7-4.2-3.6-4.2c-2.6,0-3.7,2.4-3.9,4.2H124z"/>
		<path class="st2" d="M129.4,308.7c0-1.8-0.1-3.3-0.1-4.6h2.3l0.1,2.4h0.1c1-1.7,2.7-2.7,5-2.7c3.4,0,6,2.9,6,7.2
			c0,5.1-3.1,7.6-6.4,7.6c-1.9,0-3.5-0.8-4.3-2.2h-0.1v7.7h-2.5V308.7z M131.9,312.4c0,0.4,0.1,0.7,0.1,1.1c0.5,1.8,2,3,3.8,3
			c2.7,0,4.3-2.2,4.3-5.5c0-2.8-1.5-5.3-4.2-5.3c-1.7,0-3.4,1.3-3.9,3.2c-0.1,0.3-0.2,0.7-0.2,1.1V312.4z"/>
		<path class="st2" d="M164.3,311c0,5.2-3.6,7.5-7,7.5c-3.8,0-6.8-2.8-6.8-7.3c0-4.7,3.1-7.5,7-7.5
			C161.6,303.7,164.3,306.7,164.3,311z M153.1,311.1c0,3.1,1.8,5.4,4.3,5.4c2.4,0,4.3-2.3,4.3-5.5c0-2.4-1.2-5.4-4.2-5.4
			C154.4,305.7,153.1,308.5,153.1,311.1z"/>
		<path class="st2" d="M167.5,318.2V306h-2v-2h2v-0.7c0-2,0.4-3.8,1.6-4.9c1-0.9,2.2-1.3,3.4-1.3c0.9,0,1.7,0.2,2.2,0.4l-0.3,2
			c-0.4-0.2-0.9-0.3-1.6-0.3c-2.2,0-2.7,1.9-2.7,4.1v0.8h3.4v2H170v12.2H167.5z"/>
		<path class="st2" d="M184.4,300v4.1h3.7v2h-3.7v7.6c0,1.8,0.5,2.7,1.9,2.7c0.7,0,1.2-0.1,1.5-0.2l0.1,1.9
			c-0.5,0.2-1.3,0.4-2.3,0.4c-1.2,0-2.2-0.4-2.8-1.1c-0.7-0.8-1-2-1-3.7V306h-2.2v-2h2.2v-3.4L184.4,300z"/>
		<path class="st2" d="M190.7,297.5h2.6v8.8h0.1c0.4-0.7,1-1.4,1.8-1.8c0.8-0.4,1.7-0.7,2.6-0.7c1.9,0,4.9,1.2,4.9,6v8.4h-2.6v-8.1
			c0-2.3-0.8-4.2-3.3-4.2c-1.7,0-3,1.2-3.4,2.6c-0.1,0.3-0.2,0.7-0.2,1.2v8.5h-2.6V297.5z"/>
		<path class="st2" d="M208,311.6c0.1,3.5,2.3,4.9,4.8,4.9c1.8,0,2.9-0.3,3.9-0.7l0.4,1.8c-0.9,0.4-2.4,0.9-4.7,0.9
			c-4.3,0-6.9-2.9-6.9-7.1c0-4.3,2.5-7.6,6.6-7.6c4.6,0,5.8,4.1,5.8,6.7c0,0.5-0.1,0.9-0.1,1.2H208z M215.5,309.7
			c0-1.6-0.7-4.2-3.6-4.2c-2.6,0-3.7,2.4-3.9,4.2H215.5z"/>
		<path class="st2" d="M227.7,304.1l1.9,7.2c0.4,1.6,0.8,3,1,4.5h0.1c0.3-1.4,0.8-2.9,1.3-4.5l2.3-7.2h2.2l2.2,7.1
			c0.5,1.7,0.9,3.2,1.3,4.6h0.1c0.2-1.4,0.6-2.9,1.1-4.6l2-7.1h2.5l-4.5,14.1h-2.3l-2.2-6.7c-0.5-1.6-0.9-3-1.3-4.6h-0.1
			c-0.3,1.7-0.8,3.2-1.3,4.7l-2.3,6.7h-2.3l-4.3-14.1H227.7z"/>
		<path class="st2" d="M247.8,297.5h2.6v8.8h0.1c0.4-0.7,1-1.4,1.8-1.8c0.8-0.4,1.7-0.7,2.6-0.7c1.9,0,4.9,1.2,4.9,6v8.4h-2.6v-8.1
			c0-2.3-0.8-4.2-3.3-4.2c-1.7,0-3,1.2-3.4,2.6c-0.1,0.3-0.2,0.7-0.2,1.2v8.5h-2.6V297.5z"/>
		<path class="st2" d="M276.4,311c0,5.2-3.6,7.5-7,7.5c-3.8,0-6.8-2.8-6.8-7.3c0-4.7,3.1-7.5,7-7.5
			C273.7,303.7,276.4,306.7,276.4,311z M265.3,311.1c0,3.1,1.8,5.4,4.3,5.4c2.4,0,4.3-2.3,4.3-5.5c0-2.4-1.2-5.4-4.2-5.4
			C266.6,305.7,265.3,308.5,265.3,311.1z"/>
		<path class="st2" d="M279.4,297.5h2.6v20.7h-2.6V297.5z"/>
		<path class="st2" d="M287.4,311.6c0.1,3.5,2.3,4.9,4.8,4.9c1.8,0,2.9-0.3,3.9-0.7l0.4,1.8c-0.9,0.4-2.4,0.9-4.7,0.9
			c-4.3,0-6.9-2.9-6.9-7.1c0-4.3,2.5-7.6,6.6-7.6c4.6,0,5.8,4.1,5.8,6.7c0,0.5-0.1,0.9-0.1,1.2H287.4z M294.9,309.7
			c0-1.6-0.7-4.2-3.6-4.2c-2.6,0-3.7,2.4-3.9,4.2H294.9z"/>
		<path class="st2" d="M305.8,315.5c0.8,0.5,2.1,1,3.4,1c1.9,0,2.7-0.9,2.7-2.1c0-1.2-0.7-1.9-2.6-2.6c-2.5-0.9-3.7-2.3-3.7-4
			c0-2.3,1.8-4.1,4.9-4.1c1.4,0,2.7,0.4,3.5,0.9l-0.6,1.9c-0.6-0.4-1.6-0.8-2.9-0.8c-1.5,0-2.4,0.9-2.4,1.9c0,1.2,0.8,1.7,2.7,2.4
			c2.4,0.9,3.7,2.2,3.7,4.3c0,2.5-1.9,4.2-5.3,4.2c-1.5,0-3-0.4-4-1L305.8,315.5z"/>
		<path class="st2" d="M318.3,304.1l3.1,8.3c0.3,0.9,0.7,2,0.9,2.9h0.1c0.3-0.8,0.6-1.9,0.9-2.9l2.8-8.3h2.7l-3.8,10.1
			c-1.8,4.8-3.1,7.3-4.8,8.8c-1.3,1.1-2.5,1.5-3.1,1.7l-0.6-2.2c0.6-0.2,1.5-0.6,2.2-1.3c0.7-0.6,1.6-1.5,2.2-2.9
			c0.1-0.3,0.2-0.5,0.2-0.6c0-0.1-0.1-0.4-0.2-0.7l-5.2-13H318.3z"/>
		<path class="st2" d="M330.3,315.5c0.8,0.5,2.1,1,3.4,1c1.9,0,2.7-0.9,2.7-2.1c0-1.2-0.7-1.9-2.6-2.6c-2.5-0.9-3.7-2.3-3.7-4
			c0-2.3,1.8-4.1,4.9-4.1c1.4,0,2.7,0.4,3.5,0.9l-0.6,1.9c-0.6-0.4-1.6-0.8-2.9-0.8c-1.5,0-2.4,0.9-2.4,1.9c0,1.2,0.8,1.7,2.7,2.4
			c2.4,0.9,3.7,2.2,3.7,4.3c0,2.5-1.9,4.2-5.3,4.2c-1.5,0-3-0.4-4-1L330.3,315.5z"/>
		<path class="st2" d="M344.9,300v4.1h3.7v2h-3.7v7.6c0,1.8,0.5,2.7,1.9,2.7c0.7,0,1.2-0.1,1.5-0.2l0.1,1.9
			c-0.5,0.2-1.3,0.4-2.3,0.4c-1.2,0-2.2-0.4-2.8-1.1c-0.7-0.8-1-2-1-3.7V306h-2.2v-2h2.2v-3.4L344.9,300z"/>
		<path class="st2" d="M352.4,311.6c0.1,3.5,2.3,4.9,4.8,4.9c1.8,0,2.9-0.3,3.9-0.7l0.4,1.8c-0.9,0.4-2.4,0.9-4.7,0.9
			c-4.3,0-6.9-2.9-6.9-7.1c0-4.3,2.5-7.6,6.6-7.6c4.6,0,5.8,4.1,5.8,6.7c0,0.5-0.1,0.9-0.1,1.2H352.4z M360,309.7
			c0-1.6-0.7-4.2-3.6-4.2c-2.6,0-3.7,2.4-3.9,4.2H360z"/>
		<path class="st2" d="M365.3,307.9c0-1.5,0-2.7-0.1-3.8h2.2l0.1,2.3h0.1c0.8-1.3,2.1-2.6,4.4-2.6c1.9,0,3.4,1.2,4,2.8h0.1
			c0.4-0.8,1-1.4,1.6-1.8c0.8-0.6,1.8-1,3.1-1c1.9,0,4.6,1.2,4.6,6.1v8.3h-2.5v-8c0-2.7-1-4.3-3.1-4.3c-1.5,0-2.6,1.1-3,2.3
			c-0.1,0.4-0.2,0.8-0.2,1.3v8.7h-2.5v-8.5c0-2.2-1-3.9-2.9-3.9c-1.6,0-2.8,1.3-3.2,2.6c-0.1,0.4-0.2,0.8-0.2,1.3v8.5h-2.5V307.9z"
			/>
	</g>
	<rect x="521.2" y="310.8" class="st3" width="526.8" height="42.5"/>
	<polyline class="st6" points="521.2,337.1 521.2,337.1 1.3,337.1 	"/>
	<polyline class="st6" points="521.2,531.8 521.2,531.8 1.3,531.8 	"/>
</g>
</svg>
