<?xml version="1.0" encoding="utf-8"?>
<!-- Generator: Adobe Illustrator 24.0.2, SVG Export Plug-In . SVG Version: 6.00 Build 0)  -->
<svg version="1.1" id="Layer_1" xmlns="http://www.w3.org/2000/svg" xmlns:xlink="http://www.w3.org/1999/xlink" x="0px" y="0px"
	 viewBox="0 0 504 338" style="enable-background:new 0 0 504 338;" height="338" width="504" xml:space="preserve">
<style type="text/css">
	.st0{fill:#FFFFFF;}
	.st1{opacity:0.71;fill:none;stroke:#CCCBCB;stroke-width:0.5;stroke-miterlimit:10;}
	.st2{fill:#006899;}
	.st3{fill:#CEE089;}
	.st4{fill:#B3CD34;}
	.st5{fill:#802919;}
	.st6{fill:#3E160D;}
	.st7{fill:#FFCC30;}
	.st8{fill:#30A96B;}
	.st9{fill:#008946;}
	.st10{fill:#91D3E7;}
	.st11{fill:#26A9E0;}
	.st12{fill:#F7971E;}
	.st13{fill:#D86E27;}
	.st14{fill:#BC3B26;}
	.st15{fill:#E6E7E8;}
</style>
<g>
	<rect x="100.7" y="0.5" class="st0" width="302.5" height="337"/>
	<polyline class="st1" points="389.1,275.2 121.4,275.2 121.4,17.4 	"/>
	<line class="st1" x1="121.4" y1="130.9" x2="389.1" y2="130.9"/>
	<line class="st1" x1="121.4" y1="179" x2="389.1" y2="179"/>
	<line class="st1" x1="121.4" y1="34.7" x2="389.1" y2="34.7"/>
	<line class="st1" x1="121.4" y1="82.8" x2="389.1" y2="82.8"/>
	<line class="st1" x1="121.4" y1="227.1" x2="389.1" y2="227.1"/>
	<line class="st1" x1="121.4" y1="275.2" x2="389.1" y2="275.2"/>
	<rect x="138.9" y="130.9" class="st2" width="43.9" height="144.3"/>
	<rect x="202.1" y="58" class="st2" width="43.9" height="217.2"/>
	<rect x="265.3" y="58" class="st2" width="43.9" height="217.2"/>
	<rect x="328.6" y="130.9" class="st2" width="43.9" height="144.3"/>
	<g>
		<path class="st3" d="M233.7,294c0-0.4,0.1-0.9,0.1-1.3c0-8.2-9.4-13.5-9.8-13.7l-0.8-0.4l-0.8,0.4c-0.4,0.2-9.8,5.5-9.8,13.7
			c0,0.4,0,0.9,0.1,1.3c-2.1,2.6-3.3,5.9-3.3,9.3c0,7.9,6.2,14.4,13.7,14.4s13.7-6.5,13.7-14.4C236.9,299.9,235.8,296.6,233.7,294
			L233.7,294z"/>
		<path class="st4" d="M233.7,294c0-0.4,0.1-0.9,0.1-1.3c0-8.2-9.4-13.5-9.8-13.7l-0.8-0.4v39.1c7.6,0,13.7-6.5,13.7-14.4
			C236.9,299.9,235.8,296.6,233.7,294L233.7,294z"/>
		<path class="st5" d="M230.6,304.5l-2.2-2.2l-3.6,3.6v-8h-3.1v8l-3.6-3.6l-2.2,2.2l5.8,5.8v20h3.1v-20L230.6,304.5z"/>
		<path class="st6" d="M228.4,302.3l-3.6,3.6v-8h-1.6v32.4h1.6v-20l5.8-5.8L228.4,302.3z"/>
		<path class="st3" d="M196.6,328.7h53.2v3.1h-53.2V328.7z"/>
		<path class="st4" d="M223.2,328.7h26.6v3.1h-26.6V328.7z"/>
		<g>
			<g>
				<circle class="st7" cx="299" cy="290.4" r="4"/>
			</g>
			<g>
				<path class="st7" d="M296.7,300.7c0,0-0.1,0-0.1,0c-0.3-0.1-0.4-0.3-0.4-0.6l0.9-3.8c0.1-0.3,0.3-0.4,0.6-0.4
					c0.3,0.1,0.4,0.3,0.4,0.6l-0.9,3.8C297.1,300.5,296.9,300.7,296.7,300.7z"/>
			</g>
			<g>
				<path class="st7" d="M301,300.8c-0.2,0-0.5-0.2-0.5-0.4l-0.8-3.8c-0.1-0.3,0.1-0.5,0.4-0.6c0.3-0.1,0.5,0.1,0.6,0.4l0.8,3.8
					c0.1,0.3-0.1,0.5-0.4,0.6C301.1,300.8,301,300.8,301,300.8z"/>
			</g>
			<g>
				<path class="st7" d="M305,299c-0.2,0-0.3-0.1-0.4-0.2l-2.3-3.1c-0.2-0.2-0.1-0.5,0.1-0.7c0.2-0.2,0.5-0.1,0.7,0.1l2.3,3.1
					c0.2,0.2,0.1,0.5-0.1,0.7C305.2,299,305.1,299,305,299z"/>
			</g>
			<g>
				<path class="st7" d="M307.8,295.8c-0.1,0-0.2,0-0.2-0.1l-3.4-1.9c-0.2-0.1-0.3-0.4-0.2-0.7c0.1-0.2,0.4-0.3,0.7-0.2l3.4,1.9
					c0.2,0.1,0.3,0.4,0.2,0.7C308.2,295.7,308,295.8,307.8,295.8z"/>
			</g>
			<g>
				<path class="st7" d="M309,291.6C309,291.6,309,291.6,309,291.6l-3.9-0.3c-0.3,0-0.5-0.3-0.5-0.5c0-0.3,0.3-0.5,0.5-0.5l3.9,0.3
					c0.3,0,0.5,0.3,0.5,0.5C309.5,291.4,309.3,291.6,309,291.6z"/>
			</g>
			<g>
				<path class="st7" d="M304.8,288.7c-0.2,0-0.4-0.1-0.5-0.3c-0.1-0.3,0-0.6,0.3-0.7l3.6-1.4c0.3-0.1,0.6,0,0.7,0.3
					c0.1,0.3,0,0.6-0.3,0.7l-3.6,1.4C304.9,288.7,304.8,288.7,304.8,288.7z"/>
			</g>
			<g>
				<path class="st7" d="M303.3,286.5c-0.1,0-0.3,0-0.4-0.1c-0.2-0.2-0.2-0.5,0-0.7l2.7-2.8c0.2-0.2,0.5-0.2,0.7,0
					c0.2,0.2,0.2,0.5,0,0.7l-2.7,2.8C303.6,286.5,303.4,286.5,303.3,286.5z"/>
			</g>
			<g>
				<path class="st7" d="M301,285.2c-0.1,0-0.1,0-0.2,0c-0.3-0.1-0.4-0.4-0.3-0.7l1.2-3.7c0.1-0.3,0.4-0.4,0.7-0.3
					c0.3,0.1,0.4,0.4,0.3,0.7l-1.2,3.7C301.4,285,301.2,285.2,301,285.2z"/>
			</g>
			<g>
				<path class="st7" d="M298.4,284.9c-0.3,0-0.5-0.2-0.5-0.5l-0.4-3.8c0-0.3,0.2-0.5,0.5-0.6c0.3,0,0.5,0.2,0.6,0.5l0.4,3.8
					C298.9,284.6,298.7,284.8,298.4,284.9C298.4,284.9,298.4,284.9,298.4,284.9z"/>
			</g>
			<g>
				<path class="st7" d="M295.9,285.7c-0.2,0-0.3-0.1-0.4-0.2l-2-3.3c-0.1-0.2-0.1-0.6,0.2-0.7c0.2-0.1,0.6-0.1,0.7,0.2l2,3.3
					c0.1,0.2,0.1,0.6-0.2,0.7C296.1,285.7,296,285.7,295.9,285.7z"/>
			</g>
			<g>
				<path class="st7" d="M294,287.5c-0.1,0-0.2,0-0.3-0.1l-3.2-2.2c-0.2-0.2-0.3-0.5-0.1-0.7c0.2-0.2,0.5-0.3,0.7-0.1l3.2,2.2
					c0.2,0.2,0.3,0.5,0.1,0.7C294.3,287.5,294.1,287.5,294,287.5z"/>
			</g>
			<g>
				<path class="st7" d="M293,290C293,290,292.9,290,293,290l-3.9-0.6c-0.3,0-0.5-0.3-0.4-0.6c0-0.3,0.3-0.5,0.6-0.4l3.8,0.6
					c0.3,0,0.5,0.3,0.4,0.6C293.5,289.8,293.2,290,293,290z"/>
			</g>
			<g>
				<path class="st7" d="M289.5,293.7c-0.2,0-0.4-0.1-0.5-0.4c-0.1-0.3,0.1-0.6,0.3-0.6l3.7-1.1c0.3-0.1,0.6,0.1,0.6,0.3
					c0.1,0.3-0.1,0.6-0.3,0.6l-3.7,1.1C289.5,293.7,289.5,293.7,289.5,293.7z"/>
			</g>
			<g>
				<path class="st7" d="M291.5,297.5c-0.1,0-0.3-0.1-0.4-0.2c-0.2-0.2-0.2-0.5,0-0.7l2.9-2.6c0.2-0.2,0.5-0.2,0.7,0
					c0.2,0.2,0.2,0.5,0,0.7l-2.9,2.6C291.8,297.5,291.7,297.5,291.5,297.5z"/>
			</g>
		</g>
		<path class="st8" d="M297.8,294c0-0.4,0.1-0.9,0.1-1.3c0-8.2-9.4-13.5-9.8-13.7l-0.8-0.4l-0.8,0.4c-0.4,0.2-9.8,5.5-9.8,13.7
			c0,0.4,0,0.9,0.1,1.3c-2.1,2.6-3.3,5.9-3.3,9.3c0,7.9,6.2,14.4,13.7,14.4c7.6,0,13.7-6.5,13.7-14.4
			C301,299.9,299.9,296.6,297.8,294L297.8,294z"/>
		<path class="st9" d="M297.8,294c0-0.4,0.1-0.9,0.1-1.3c0-8.2-9.4-13.5-9.8-13.7l-0.8-0.4v39.1c7.6,0,13.7-6.5,13.7-14.4
			C301,299.9,299.9,296.6,297.8,294L297.8,294z"/>
		<path class="st5" d="M294.7,304.5l-2.2-2.2l-3.6,3.6v-8h-3.1v8l-3.6-3.6l-2.2,2.2l5.8,5.8v20h3.1v-20L294.7,304.5z"/>
		<path class="st6" d="M292.5,302.3l-3.6,3.6v-8h-1.6v32.4h1.6v-20l5.8-5.8L292.5,302.3z"/>
		<path class="st8" d="M260.7,328.7h53.2v3.1h-53.2V328.7z"/>
		<path class="st9" d="M287.3,328.7h26.6v3.1h-26.6V328.7z"/>
		<path class="st5" d="M166.3,304.5l-2.2-2.2l-3.6,3.6v-16.5h-3.1v16.5l-3.6-3.6l-2.2,2.2l5.8,5.8v20h3.1v-20L166.3,304.5z"/>
		<path class="st6" d="M164.1,302.3l-3.6,3.6v-16.5h-1.6v40.9h1.6v-20l5.8-5.8L164.1,302.3z"/>
		<path class="st10" d="M132.3,328.7h53.2v3.1h-53.2V328.7z"/>
		<path class="st11" d="M158.9,328.7h26.6v3.1h-26.6V328.7z"/>
		<path class="st7" d="M362.1,294c0-0.4,0.1-0.9,0.1-1.3c0-8.2-9.4-13.5-9.8-13.7l-0.8-0.4l-0.8,0.4c-0.4,0.2-9.8,5.5-9.8,13.7
			c0,0.4,0,0.9,0.1,1.3c-2.1,2.6-3.3,5.9-3.3,9.3c0,7.9,6.2,14.4,13.7,14.4c7.6,0,13.7-6.5,13.7-14.4
			C365.3,299.9,364.2,296.6,362.1,294L362.1,294z"/>
		<path class="st12" d="M362.1,294c0-0.4,0.1-0.9,0.1-1.3c0-8.2-9.4-13.5-9.8-13.7l-0.8-0.4v39.1c7.6,0,13.7-6.5,13.7-14.4
			C365.3,299.9,364.2,296.6,362.1,294L362.1,294z"/>
		<path class="st5" d="M359,304.5l-2.2-2.2l-3.6,3.6v-8H350v8l-3.6-3.6l-2.2,2.2l5.8,5.8v20h3.1v-20L359,304.5z"/>
		<path class="st6" d="M356.8,302.3l-3.6,3.6v-8h-1.6v32.4h1.6v-20l5.8-5.8L356.8,302.3z"/>
		<path class="st12" d="M370.4,311.4c-3.4,0-6.2,2.8-6.2,6.2v2.7h3.3c3.4,0,6.2-2.8,6.2-6.2v-2.7H370.4z"/>
		<path class="st12" d="M337,316.1h-2.7v3.3c0,3.4,2.8,6.2,6.2,6.2h2.7v-3.3C343.2,318.9,340.4,316.1,337,316.1z"/>
		<path class="st13" d="M325,328.7h53.2v3.1H325V328.7z"/>
		<path class="st13" d="M370.4,311.4c-3.4,0-6.2,2.8-6.2,6.2v2.7h3.3c3.4,0,6.2-2.8,6.2-6.2v-2.7H370.4z"/>
		<path class="st14" d="M351.6,328.7h26.6v3.1h-26.6V328.7z"/>
		<g>
			<g>
				<path class="st15" d="M158.5,289.2C158.5,289.1,158.5,289.3,158.5,289.2C158.5,289.2,158.5,289.4,158.5,289.2
					C158.5,289.3,158.4,289.4,158.5,289.2C158.5,289.3,158.4,289.3,158.5,289.2C158.5,289.3,158.6,289.3,158.5,289.2
					C158.6,289.3,158.6,289.3,158.5,289.2c0.1,0,0.1,0,0.1,0c0,0,0,0,0,0C158.6,289.3,158.6,289.3,158.5,289.2
					c0.2,0.1,0.1,0,0.1,0.1c0,0,0,0,0.1,0c0.1,0,0,0,0,0c0.1,0.1,0.2,0.2,0.2,0.2c0,0,0.1,0.1,0.1,0.1c0,0,0.1,0.1,0.1,0.1
					c0.2,0.2,0.3,0.4,0.5,0.6c0.4,0.4,0.8,0.7,1.2,0.9c0,0,0.1,0,0.1,0.1c0.1,0,0,0,0,0c-0.1-0.1,0-0.2,0.1-0.3c0,0,0,0,0,0
					c0,0,0.1,0,0.1,0c0,0,0.1,0.1,0,0c0,0,0,0,0,0c-0.1,0-0.1-0.1-0.2-0.1c0,0-0.1-0.1-0.1-0.1c0,0,0,0-0.1,0c-0.1-0.1,0,0,0,0
					c-0.2-0.2-0.4-0.4-0.6-0.6c-0.1-0.1-0.1-0.1-0.2-0.3c-0.1-0.1-0.1-0.2-0.2-0.4c-0.1-0.2-0.5-0.3-0.7-0.2
					c-0.2,0.1-0.3,0.4-0.2,0.7c0.3,0.6,0.8,1.1,1.3,1.5c0.3,0.2,0.7,0.4,1.1,0.4c0.4-0.1,0.8-0.5,0.7-1c-0.1-0.4-0.4-0.5-0.7-0.7
					c-0.3-0.2-0.5-0.3-0.7-0.5c-0.1-0.1-0.2-0.2-0.3-0.3c-0.1-0.1-0.1-0.2-0.3-0.3c-0.2-0.3-0.4-0.6-0.7-0.7c-0.4-0.2-0.8-0.2-1.1,0
					c-0.4,0.2-0.6,0.6-0.4,1.1c0.1,0.3,0.3,0.4,0.6,0.3C158.4,289.8,158.6,289.5,158.5,289.2L158.5,289.2z"/>
			</g>
		</g>
		<g>
			<g>
				<path class="st15" d="M152.6,301.5c-0.4-0.3-0.9-0.2-1.3,0c-0.4,0.2-0.6,0.5-0.8,0.8c-0.1,0.2-0.2,0.4-0.3,0.6
					c-0.1,0.3,0.1,0.6,0.4,0.8c0.2,0.1,0.4,0.1,0.6,0.1c0.2,0,0.4,0.1,0.6,0c0.4,0,0.9-0.1,1.1-0.5c0.3-0.3,0.4-0.7,0.3-1.1
					c-0.1-0.5-0.5-0.7-0.9-0.8c-0.5-0.1-0.9-0.2-1.4,0c-0.5,0.2-0.8,0.8-0.5,1.3c0.2,0.5,0.8,0.8,1.3,0.4c0.2-0.1,0.3-0.4,0.2-0.7
					c-0.1-0.2-0.5-0.3-0.7-0.2c-0.1,0,0,0,0,0c0,0,0,0,0,0c-0.1,0,0,0,0.1,0c-0.1,0,0.1,0,0,0c-0.1,0,0,0,0,0c0,0,0,0-0.1,0
					c0,0,0,0,0.1,0.1c0,0,0,0,0,0c-0.1-0.1,0.1,0.1,0,0c-0.1-0.1,0,0.1,0,0c0-0.1,0,0.1,0,0c0-0.1,0,0.1,0,0c0,0,0,0,0,0
					c0,0,0,0,0,0c0,0,0,0,0-0.1c0-0.1-0.1,0.1,0,0c0,0,0,0,0,0c0.1-0.1-0.1,0.1,0,0c0,0,0.1,0,0.1-0.1c0,0,0,0-0.1,0c0,0,0,0,0.1,0
					c0,0,0.1,0,0.1,0c0,0,0,0-0.1,0c0,0,0,0,0.1,0c0,0,0.1,0,0.1,0c0,0,0,0,0,0c0.1,0,0,0,0,0c0,0,0.1,0,0.1,0c0.1,0,0.2,0,0.2,0.1
					c0,0,0.2,0.1,0.2,0.1c0,0,0,0-0.1,0c0,0,0,0,0.1,0c0,0,0,0,0.1,0c0,0,0,0,0,0c0,0,0,0,0,0c0,0,0,0,0,0c0,0,0,0,0,0
					c0,0,0,0,0,0.1c0,0.1,0-0.1,0,0c0,0.1,0,0.1,0,0c0,0,0,0,0,0.1c0,0.1,0,0.1,0,0c0,0,0,0,0,0.1c0,0,0,0,0,0.1c0-0.1,0-0.1,0,0
					c0,0,0,0,0,0.1c0,0,0,0,0,0c0,0,0,0,0,0c0,0-0.1,0.1-0.1,0.1c0,0-0.1,0,0,0c0,0,0,0-0.1,0c0,0-0.1,0-0.1,0c0,0,0,0,0.1,0
					c0,0,0,0-0.1,0c0,0-0.1,0-0.1,0c0,0,0,0-0.1,0c-0.1,0,0,0,0,0c0,0-0.4,0-0.4,0c0,0-0.1,0-0.1,0c-0.1,0,0.1,0,0,0
					c-0.1,0-0.1,0-0.2,0c-0.1,0-0.1,0-0.2,0c-0.1,0,0.1,0.1,0,0c0,0,0,0,0.1,0c0,0,0,0,0,0c0,0,0,0,0,0.1c0,0.2,0,0.2,0,0.1
					c0,0.1,0,0,0,0c0-0.1,0.1-0.1,0.1-0.2c0-0.1,0.1-0.1,0.1-0.2c0,0,0-0.1,0.1-0.1c0.1-0.1-0.1,0.1,0,0c0-0.1,0.1-0.1,0.2-0.2
					c0,0,0,0,0,0c0,0,0,0,0,0c0,0,0.1-0.1,0.1-0.1c0,0,0.1,0,0.1,0c-0.1,0-0.1,0,0,0c0,0,0,0,0.1,0c0,0,0.1,0,0.1,0c0.1,0,0,0,0,0
					c0,0,0,0,0.1,0c0,0,0.1,0,0.1,0c-0.1,0-0.1,0,0,0c0,0,0,0,0.1,0c0,0,0,0,0,0c0,0,0,0,0,0c0,0,0.1,0,0.1,0.1
					c0.1,0.1,0.3,0.1,0.4,0.1c0.1,0,0.2-0.1,0.3-0.2C152.9,301.9,152.8,301.7,152.6,301.5L152.6,301.5z"/>
			</g>
		</g>
		<g>
			<g>
				<path class="st15" d="M164.9,302.6c-0.4-0.1-0.8,0-1.1,0.3c-0.3,0.3-0.4,0.6-0.4,1c0,0.7,0.7,1.3,1.3,1.5c0.6,0.2,1.3,0,1.9-0.4
					c0.5-0.4,0.8-1.1,0.5-1.8c-0.3-0.7-1-1.3-1.8-1.1c-0.3,0.1-0.4,0.4-0.3,0.6c0.1,0.3,0.3,0.4,0.6,0.3c0,0,0.1,0,0.1,0
					c0,0-0.1,0,0,0c0,0,0,0,0.1,0c0.1,0,0,0,0,0c0,0,0.1,0,0.1,0c0.1,0,0,0,0,0c0,0,0.1,0,0.1,0c0,0,0,0,0.1,0c0.1,0,0,0,0,0
					c0,0,0.1,0.1,0.1,0.1c0,0,0,0,0,0.1c0,0-0.1-0.1,0,0c0,0,0.1,0.1,0.1,0.1c0.1,0.1,0-0.1,0,0c0,0,0,0.1,0,0.1c0,0,0,0,0,0
					c0,0.1,0,0,0,0c0,0,0,0.1,0,0.1c0,0,0,0,0,0.1c0,0.1,0-0.1,0,0c0,0,0,0.1,0,0.1c0,0.1,0-0.1,0,0c0,0,0,0.1-0.1,0.1
					c0,0-0.1,0.1,0,0c0.1-0.1,0,0,0,0c0,0-0.1,0.1-0.1,0.1c-0.1,0.1,0,0,0,0c0,0,0,0-0.1,0c0,0-0.1,0.1-0.1,0.1c0,0,0,0-0.1,0
					c-0.1,0.1,0.1,0,0,0c-0.1,0-0.2,0.1-0.3,0.1c0,0-0.1,0,0,0c0,0-0.1,0-0.1,0c-0.1,0-0.1,0-0.2,0c0,0-0.2,0-0.1,0
					c0.1,0-0.1,0-0.1,0c-0.1,0-0.1,0-0.2,0c-0.1,0,0.1,0,0,0c0,0-0.1,0-0.1,0c0,0-0.1-0.1-0.1-0.1c-0.1-0.1,0,0,0,0c0,0,0,0-0.1-0.1
					c0,0,0,0-0.1-0.1c0,0-0.1-0.1,0,0c0,0.1,0,0,0,0c0,0,0-0.1,0-0.1c0-0.1,0,0,0,0c0,0,0-0.1,0-0.1c0-0.1,0,0,0,0c0,0,0-0.1,0-0.1
					c0-0.1,0,0.1,0,0c0,0,0-0.1,0-0.1c0-0.1,0,0,0,0c0,0,0-0.1,0.1-0.1c0,0,0,0,0-0.1c0,0.1,0,0,0,0c0,0,0,0,0.1-0.1c0,0-0.1,0,0,0
					c0,0,0.1,0,0.1,0c-0.1,0-0.1,0,0,0c0,0,0,0,0.1,0c0,0-0.1,0,0,0c0,0,0.1,0,0,0c0.3,0,0.6-0.1,0.6-0.3
					C165.3,303,165.1,302.6,164.9,302.6L164.9,302.6z"/>
			</g>
		</g>
		<g>
			<g>
				<path class="st15" d="M159.4,290.6c-0.1,0-0.2-0.1-0.3-0.1c0,0,0.1,0,0,0c0,0,0,0-0.1,0c0,0-0.1-0.1-0.1-0.1
					c0,0-0.1-0.1-0.1-0.1c-0.1,0,0.1,0.1,0,0c0,0,0,0-0.1-0.1c-0.1-0.1-0.2-0.2-0.2-0.2c-0.1-0.1,0,0,0,0c0,0,0-0.1,0-0.1
					c0,0-0.1-0.1-0.1-0.1c0,0-0.1-0.1-0.1-0.1c0,0,0-0.1,0-0.1c0,0,0,0.1,0,0c0-0.1-0.1-0.2-0.1-0.3c0,0,0-0.1,0-0.1
					c0-0.1,0,0.1,0,0c0-0.1,0-0.1,0-0.2c0-0.2-0.1-0.4-0.2-0.4c-0.2-0.1-0.5-0.1-0.7-0.1c-0.2,0.1-0.5,0.2-0.6,0.4
					c-0.1,0.2,0,0.5,0.1,0.7c0,0.2,0.1,0.3,0.1,0.5c0.1,0.3,0.3,0.7,0.6,1c0.3,0.3,0.6,0.4,1,0.4c0.4,0,0.8-0.1,1.1-0.4
					c0.2-0.2,0.2-0.5,0-0.7c-0.2-0.2-0.5-0.2-0.7,0c0,0,0,0-0.1,0.1c-0.1,0.1,0.1-0.1,0,0c0,0-0.1,0-0.1,0c0.1,0,0.1,0,0,0
					c0,0,0,0,0,0c0,0-0.1,0-0.1,0c-0.1,0,0.1,0,0,0c-0.1,0-0.1,0-0.2,0c-0.1,0,0.1,0,0,0c0,0-0.1,0-0.1,0c0,0-0.1,0-0.1,0
					c0,0-0.1-0.1,0,0c-0.1,0-0.1-0.1-0.2-0.1c0,0-0.1-0.1,0,0c0,0,0,0-0.1-0.1c0,0-0.1-0.1-0.1-0.1c0,0,0,0,0,0c0,0,0,0,0-0.1
					c0,0,0-0.1-0.1-0.1c0-0.1-0.1-0.1-0.1-0.2c0-0.1,0,0.1,0,0c0,0,0-0.1,0-0.1c-0.1-0.3-0.1-0.6-0.2-0.8c0,0.2-0.1,0.3-0.1,0.5
					c0,0,0,0,0,0c0,0,0,0,0,0c0,0,0,0,0.1,0c-0.1,0-0.1,0,0,0c0.1,0,0,0,0,0c0,0,0,0,0.1,0c-0.1,0-0.1,0,0,0c0.1,0,0,0,0,0
					c-0.1-0.1-0.2-0.3-0.2-0.4c0,1.2,0.9,2.3,2,2.5c0.3,0.1,0.6-0.1,0.6-0.3C159.8,291,159.7,290.7,159.4,290.6L159.4,290.6z"/>
			</g>
		</g>
	</g>
</g>
</svg>
