<?xml version="1.0" encoding="utf-8"?>
<!-- Generator: Adobe Illustrator 24.0.2, SVG Export Plug-In . SVG Version: 6.00 Build 0)  -->
<svg version="1.1" id="Layer_1" xmlns="http://www.w3.org/2000/svg" xmlns:xlink="http://www.w3.org/1999/xlink" x="0px" y="0px"
	 viewBox="0 0 504 564" style="enable-background:new 0 0 504 564;" height="564" width="504" xml:space="preserve">
<style type="text/css">
	.st0{fill:#006899;}
</style>
<g>
	<path class="st0" d="M143.6,482.2l-65.1,78.4c0,0,52.8,9.6,87.2-31.8c34.4-41.4,17.8-94.7,8.6-105.5l200-240.4
		c0,0,59,24,100.7-26.2c37.2-44.7,16.7-93.3,16.7-93.3l-65.1,78.4l-69.9-58.1l65.1-78.4c0,0-50-12.9-87.2,31.8
		c-37.2,44.7-16.2,92.7-8.6,105.7L126,383.1c0,0-59.3-23.7-102.1,27.8c-36.1,43.5-15.3,91.6-15.3,91.6l65.6-79L143.6,482.2z"/>
	<path class="st0" d="M156.9,394.8c-9.9-8.3-11.1-23.2-2.7-33.2l155.1-185.9c8.4-10.1,23.3-11.5,33.2-3.3
		c9.9,8.3,11.1,23.2,2.7,33.3L190.1,391.5C181.7,401.6,166.8,403,156.9,394.8z"/>
	<path class="st0" d="M335.4,180.8c-5.3-4.5-13.4-3.7-17.9,1.8L162.5,368.4c-4.5,5.4-3.9,13.5,1.5,17.9c5.3,4.5,13.4,3.7,17.9-1.8
		l155.1-185.9C341.4,193.3,340.8,185.3,335.4,180.8z"/>
	<path class="st0" d="M337.2,85l92.6,76.9l66.9-80.5c-1.6-10.9-4.5-17.7-4.5-17.7L427,142.1l-69.9-58l65.1-78.4c0,0-7-1.8-17.8-1.7
		L337.2,85z"/>
	<path class="st0" d="M333.9,85.2l96.2,80l66.9-80.6c-0.5-3.2-0.5-3.2-0.5-3.2l-66.9,80.5L337.2,85l67.2-81c-1,0-2.1,0-3.2,0.1
		L333.9,85.2z"/>
	<path class="st0" d="M163.2,481l-92.6-76.9L3.7,484.6c1.6,10.8,4.5,17.6,4.5,17.6l65.1-78.4l69.9,58l-65.1,78.4c0,0,7,1.8,17.8,1.7
		L163.2,481z"/>
	<path class="st0" d="M166.4,480.8l-96.2-80l-67,80.6c0.5,3.2,0.5,3.2,0.5,3.2l66.9-80.5l92.6,76.9L95.9,562c1,0,2.1,0,3.2-0.1
		L166.4,480.8z"/>
</g>
</svg>
