<?xml version="1.0" encoding="utf-8"?>
<!-- Generator: Adobe Illustrator 24.0.2, SVG Export Plug-In . SVG Version: 6.00 Build 0)  -->
<svg version="1.1" id="Layer_1" xmlns="http://www.w3.org/2000/svg" xmlns:xlink="http://www.w3.org/1999/xlink" x="0px" y="0px"
	 viewBox="0 0 1074 662" style="enable-background:new 0 0 1074 662;" height="662" width="1074" xml:space="preserve">
<style type="text/css">
	.st0{fill:#231F20;}
	.st1{fill:none;stroke:#006899;stroke-miterlimit:10;}
	.st2{fill:#F3F4F5;}
	.st3{fill:#F3E162;}
	.st4{fill:#E0E0E0;}
	.st5{fill:#006899;}
	.st6{fill:#151515;}
</style>
<g>
	<g>
		<path class="st0" d="M7.7,230.4h-6v-2.2h14.6v2.2h-6v17.5H7.7V230.4z"/>
		<path class="st0" d="M17.9,227.2h2.6v8.8h0.1c0.4-0.7,1.1-1.4,1.8-1.8c0.8-0.4,1.7-0.7,2.6-0.7c1.9,0,4.9,1.2,4.9,6.1v8.4h-2.6
			v-8.1c0-2.3-0.8-4.2-3.3-4.2c-1.7,0-3,1.2-3.5,2.6c-0.1,0.4-0.2,0.7-0.2,1.2v8.5h-2.6V227.2z"/>
		<path class="st0" d="M36.7,229.8c0,0.9-0.6,1.6-1.6,1.6c-0.9,0-1.5-0.7-1.5-1.6c0-0.9,0.7-1.6,1.6-1.6
			C36.1,228.2,36.7,228.9,36.7,229.8z M33.8,247.9v-14.1h2.6v14.1H33.8z"/>
		<path class="st0" d="M40,245.3c0.8,0.5,2.1,1,3.4,1c1.9,0,2.8-0.9,2.8-2.1c0-1.2-0.7-1.9-2.6-2.6c-2.5-0.9-3.7-2.3-3.7-4
			c0-2.3,1.8-4.2,4.9-4.2c1.4,0,2.7,0.4,3.5,0.9l-0.6,1.9c-0.6-0.4-1.6-0.8-2.9-0.8c-1.5,0-2.4,0.9-2.4,1.9c0,1.2,0.8,1.7,2.7,2.4
			c2.5,0.9,3.7,2.2,3.7,4.3c0,2.5-1.9,4.2-5.3,4.2c-1.5,0-3-0.4-4-1L40,245.3z"/>
		<path class="st0" d="M67.7,247.4c-0.7,0.3-2.2,0.8-4.1,0.8c-4.3,0-7-2.9-7-7.2c0-4.4,3-7.5,7.6-7.5c1.5,0,2.9,0.4,3.6,0.7l-0.6,2
			c-0.6-0.4-1.6-0.7-3-0.7c-3.2,0-5,2.4-5,5.4c0,3.3,2.1,5.3,4.9,5.3c1.5,0,2.4-0.4,3.2-0.7L67.7,247.4z"/>
		<path class="st0" d="M83,240.7c0,5.2-3.6,7.5-7,7.5c-3.8,0-6.8-2.8-6.8-7.3c0-4.7,3.1-7.5,7-7.5C80.3,233.5,83,236.4,83,240.7z
			 M71.8,240.9c0,3.1,1.8,5.4,4.3,5.4c2.5,0,4.3-2.3,4.3-5.5c0-2.4-1.2-5.4-4.2-5.4C73.1,235.4,71.8,238.2,71.8,240.9z"/>
		<path class="st0" d="M86,237.6c0-1.5,0-2.7-0.1-3.8h2.3l0.1,2.3h0.1c0.8-1.3,2.1-2.6,4.4-2.6c1.9,0,3.4,1.2,4,2.8h0.1
			c0.4-0.8,1-1.4,1.6-1.8c0.8-0.6,1.8-1,3.1-1c1.9,0,4.6,1.2,4.6,6.1v8.3h-2.5v-8c0-2.7-1-4.4-3.1-4.4c-1.5,0-2.6,1.1-3,2.3
			c-0.1,0.4-0.2,0.8-0.2,1.3v8.7h-2.5v-8.5c0-2.3-1-3.9-3-3.9c-1.6,0-2.8,1.3-3.2,2.6c-0.1,0.4-0.2,0.8-0.2,1.3v8.5H86V237.6z"/>
		<path class="st0" d="M110.1,238.4c0-1.8-0.1-3.3-0.1-4.6h2.3l0.1,2.4h0.1c1.1-1.7,2.7-2.7,5-2.7c3.4,0,6,2.9,6,7.2
			c0,5.1-3.1,7.6-6.4,7.6c-1.9,0-3.5-0.8-4.4-2.2h-0.1v7.7h-2.5V238.4z M112.6,242.2c0,0.4,0.1,0.7,0.1,1.1c0.5,1.8,2,3,3.9,3
			c2.7,0,4.3-2.2,4.3-5.5c0-2.8-1.5-5.3-4.2-5.3c-1.8,0-3.4,1.3-3.9,3.2c-0.1,0.3-0.2,0.7-0.2,1.1V242.2z"/>
		<path class="st0" d="M139.2,240.7c0,5.2-3.6,7.5-7,7.5c-3.8,0-6.8-2.8-6.8-7.3c0-4.7,3.1-7.5,7-7.5
			C136.5,233.5,139.2,236.4,139.2,240.7z M128,240.9c0,3.1,1.8,5.4,4.3,5.4c2.5,0,4.3-2.3,4.3-5.5c0-2.4-1.2-5.4-4.2-5.4
			C129.3,235.4,128,238.2,128,240.9z"/>
		<path class="st0" d="M142.2,237.6c0-1.5,0-2.7-0.1-3.8h2.3l0.1,2.3h0.1c0.7-1.3,2.3-2.7,4.7-2.7c2,0,5,1.2,5,6v8.4h-2.6v-8.2
			c0-2.3-0.8-4.2-3.3-4.2c-1.7,0-3,1.2-3.5,2.6c-0.1,0.3-0.2,0.8-0.2,1.2v8.5h-2.6V237.6z"/>
		<path class="st0" d="M159.6,241.3c0.1,3.5,2.3,4.9,4.9,4.9c1.8,0,3-0.3,3.9-0.7l0.4,1.8c-0.9,0.4-2.5,0.9-4.7,0.9
			c-4.4,0-7-2.9-7-7.1c0-4.3,2.5-7.6,6.6-7.6c4.6,0,5.8,4.1,5.8,6.7c0,0.5-0.1,0.9-0.1,1.2H159.6z M167.1,239.5
			c0-1.6-0.7-4.2-3.6-4.2c-2.6,0-3.7,2.4-3.9,4.2H167.1z"/>
		<path class="st0" d="M172.5,237.6c0-1.5,0-2.7-0.1-3.8h2.3l0.1,2.3h0.1c0.7-1.3,2.3-2.7,4.7-2.7c2,0,5,1.2,5,6v8.4H182v-8.2
			c0-2.3-0.8-4.2-3.3-4.2c-1.7,0-3,1.2-3.5,2.6c-0.1,0.3-0.2,0.8-0.2,1.2v8.5h-2.6V237.6z"/>
		<path class="st0" d="M191.4,229.7v4.1h3.7v2h-3.7v7.6c0,1.8,0.5,2.7,1.9,2.7c0.7,0,1.2-0.1,1.5-0.2l0.1,1.9
			c-0.5,0.2-1.3,0.4-2.3,0.4c-1.2,0-2.2-0.4-2.8-1.1c-0.7-0.8-1-2-1-3.7v-7.7h-2.2v-2h2.2v-3.4L191.4,229.7z"/>
		<path class="st0" d="M216.4,240.7c0,5.2-3.6,7.5-7,7.5c-3.8,0-6.8-2.8-6.8-7.3c0-4.7,3.1-7.5,7-7.5
			C213.7,233.5,216.4,236.4,216.4,240.7z M205.2,240.9c0,3.1,1.8,5.4,4.3,5.4c2.5,0,4.3-2.3,4.3-5.5c0-2.4-1.2-5.4-4.2-5.4
			C206.5,235.4,205.2,238.2,205.2,240.9z"/>
		<path class="st0" d="M219.6,247.9v-12.2h-2v-2h2v-0.7c0-2,0.4-3.8,1.6-4.9c1-0.9,2.3-1.3,3.5-1.3c0.9,0,1.7,0.2,2.2,0.4l-0.4,2
			c-0.4-0.2-0.9-0.3-1.6-0.3c-2.2,0-2.7,1.9-2.7,4.1v0.8h3.4v2h-3.4v12.2H219.6z"/>
		<path class="st0" d="M236.6,229.7v4.1h3.7v2h-3.7v7.6c0,1.8,0.5,2.7,1.9,2.7c0.7,0,1.2-0.1,1.5-0.2l0.1,1.9
			c-0.5,0.2-1.3,0.4-2.3,0.4c-1.2,0-2.2-0.4-2.8-1.1c-0.7-0.8-1-2-1-3.7v-7.7h-2.2v-2h2.2v-3.4L236.6,229.7z"/>
		<path class="st0" d="M242.9,227.2h2.6v8.8h0.1c0.4-0.7,1.1-1.4,1.8-1.8c0.8-0.4,1.7-0.7,2.6-0.7c1.9,0,4.9,1.2,4.9,6.1v8.4h-2.6
			v-8.1c0-2.3-0.8-4.2-3.3-4.2c-1.7,0-3,1.2-3.5,2.6c-0.1,0.4-0.2,0.7-0.2,1.2v8.5h-2.6V227.2z"/>
		<path class="st0" d="M260.3,241.3c0.1,3.5,2.3,4.9,4.9,4.9c1.8,0,3-0.3,3.9-0.7l0.4,1.8c-0.9,0.4-2.5,0.9-4.7,0.9
			c-4.4,0-7-2.9-7-7.1c0-4.3,2.5-7.6,6.6-7.6c4.6,0,5.8,4.1,5.8,6.7c0,0.5-0.1,0.9-0.1,1.2H260.3z M267.8,239.5
			c0-1.6-0.7-4.2-3.6-4.2c-2.6,0-3.7,2.4-3.9,4.2H267.8z"/>
		<path class="st0" d="M279,247.9c0.1-1,0.1-2.4,0.1-3.7v-17.1h2.5v8.9h0.1c0.9-1.6,2.5-2.6,4.8-2.6c3.5,0,6,2.9,6,7.2
			c0,5.1-3.2,7.6-6.3,7.6c-2,0-3.7-0.8-4.7-2.7h-0.1l-0.1,2.3H279z M281.7,242.3c0,0.3,0.1,0.6,0.1,0.9c0.5,1.8,2,3,3.9,3
			c2.7,0,4.3-2.2,4.3-5.4c0-2.8-1.5-5.3-4.2-5.3c-1.8,0-3.4,1.2-3.9,3.2c-0.1,0.3-0.1,0.6-0.1,1.1V242.3z"/>
		<path class="st0" d="M298.4,229.8c0,0.9-0.6,1.6-1.6,1.6c-0.9,0-1.5-0.7-1.5-1.6c0-0.9,0.7-1.6,1.6-1.6
			C297.7,228.2,298.4,228.9,298.4,229.8z M295.5,247.9v-14.1h2.6v14.1H295.5z"/>
		<path class="st0" d="M302,227.2h2.6v20.8H302V227.2z"/>
		<path class="st0" d="M308.7,227.2h2.6v20.8h-2.6V227.2z"/>
		<path class="st0" d="M333.4,233.8c-0.1,1-0.1,2.2-0.1,3.9v8.2c0,3.2-0.6,5.2-2,6.5c-1.4,1.3-3.4,1.7-5.1,1.7
			c-1.7,0-3.6-0.4-4.7-1.2l0.6-2c0.9,0.6,2.4,1.1,4.2,1.1c2.6,0,4.6-1.4,4.6-4.9v-1.6h-0.1c-0.8,1.3-2.3,2.4-4.5,2.4
			c-3.5,0-6-3-6-6.9c0-4.8,3.1-7.5,6.4-7.5c2.5,0,3.8,1.3,4.4,2.5h0.1l0.1-2.1H333.4z M330.7,239.4c0-0.4,0-0.8-0.1-1.2
			c-0.5-1.5-1.7-2.7-3.6-2.7c-2.5,0-4.2,2.1-4.2,5.4c0,2.8,1.4,5.1,4.2,5.1c1.6,0,3-1,3.6-2.6c0.1-0.4,0.2-0.9,0.2-1.4V239.4z"/>
		<path class="st0" d="M350,240.7c0,5.2-3.6,7.5-7,7.5c-3.8,0-6.8-2.8-6.8-7.3c0-4.7,3.1-7.5,7-7.5C347.3,233.5,350,236.4,350,240.7
			z M338.8,240.9c0,3.1,1.8,5.4,4.3,5.4c2.5,0,4.3-2.3,4.3-5.5c0-2.4-1.2-5.4-4.2-5.4C340.1,235.4,338.8,238.2,338.8,240.9z"/>
		<path class="st0" d="M354.4,241.3c0.1,3.5,2.3,4.9,4.9,4.9c1.8,0,3-0.3,3.9-0.7l0.4,1.8c-0.9,0.4-2.5,0.9-4.7,0.9
			c-4.4,0-7-2.9-7-7.1c0-4.3,2.5-7.6,6.6-7.6c4.6,0,5.8,4.1,5.8,6.7c0,0.5-0.1,0.9-0.1,1.2H354.4z M362,239.5c0-1.6-0.7-4.2-3.6-4.2
			c-2.6,0-3.7,2.4-3.9,4.2H362z"/>
		<path class="st0" d="M367,245.3c0.8,0.5,2.1,1,3.4,1c1.9,0,2.8-0.9,2.8-2.1c0-1.2-0.7-1.9-2.6-2.6c-2.5-0.9-3.7-2.3-3.7-4
			c0-2.3,1.8-4.2,4.9-4.2c1.4,0,2.7,0.4,3.5,0.9l-0.6,1.9c-0.6-0.4-1.6-0.8-2.9-0.8c-1.5,0-2.4,0.9-2.4,1.9c0,1.2,0.8,1.7,2.7,2.4
			c2.5,0.9,3.7,2.2,3.7,4.3c0,2.5-1.9,4.2-5.3,4.2c-1.5,0-3-0.4-4-1L367,245.3z"/>
		<path class="st0" d="M6.9,264.8v4.1h3.7v2H6.9v7.6c0,1.8,0.5,2.7,1.9,2.7c0.7,0,1.2-0.1,1.5-0.2l0.1,1.9c-0.5,0.2-1.3,0.4-2.3,0.4
			c-1.2,0-2.2-0.4-2.8-1.1c-0.7-0.8-1-2-1-3.7v-7.7H2.2v-2h2.2v-3.4L6.9,264.8z"/>
		<path class="st0" d="M25.9,275.8c0,5.2-3.6,7.5-7,7.5c-3.8,0-6.8-2.8-6.8-7.3c0-4.7,3.1-7.5,7-7.5
			C23.1,268.6,25.9,271.5,25.9,275.8z M14.6,276c0,3.1,1.8,5.4,4.3,5.4c2.5,0,4.3-2.3,4.3-5.5c0-2.4-1.2-5.4-4.2-5.4
			C15.9,270.5,14.6,273.3,14.6,276z"/>
		<path class="st0" d="M29.6,268.9l1.9,7.2c0.4,1.6,0.8,3,1.1,4.5h0.1c0.3-1.4,0.8-3,1.3-4.5l2.3-7.2h2.2l2.2,7.1
			c0.5,1.7,0.9,3.2,1.3,4.6h0.1c0.2-1.4,0.6-2.9,1.1-4.6l2-7.1h2.5L43,283h-2.3l-2.2-6.8c-0.5-1.6-0.9-3-1.3-4.6h-0.1
			c-0.4,1.7-0.8,3.2-1.3,4.7l-2.3,6.7h-2.3L27,268.9H29.6z"/>
		<path class="st0" d="M57.6,283l-0.2-1.8h-0.1c-0.8,1.1-2.3,2.1-4.3,2.1c-2.9,0-4.3-2-4.3-4.1c0-3.4,3-5.3,8.5-5.3v-0.3
			c0-1.2-0.3-3.3-3.2-3.3c-1.3,0-2.7,0.4-3.7,1.1l-0.6-1.7c1.2-0.8,2.9-1.3,4.7-1.3c4.3,0,5.4,3,5.4,5.8v5.3c0,1.2,0.1,2.4,0.2,3.4
			H57.6z M57.2,275.8c-2.8-0.1-6,0.4-6,3.2c0,1.7,1.1,2.5,2.4,2.5c1.8,0,3-1.2,3.4-2.4c0.1-0.3,0.1-0.6,0.1-0.8V275.8z"/>
		<path class="st0" d="M63.5,273.3c0-1.7,0-3.1-0.1-4.4h2.3l0.1,2.8h0.1c0.6-1.9,2.2-3.1,3.9-3.1c0.3,0,0.5,0,0.7,0.1v2.4
			c-0.3-0.1-0.5-0.1-0.9-0.1c-1.8,0-3.1,1.4-3.5,3.3c-0.1,0.3-0.1,0.8-0.1,1.2v7.5h-2.5V273.3z"/>
		<path class="st0" d="M84.7,262.3v17.1c0,1.3,0,2.7,0.1,3.7h-2.3l-0.1-2.5h-0.1c-0.8,1.6-2.5,2.8-4.8,2.8c-3.4,0-6.1-2.9-6.1-7.2
			c0-4.7,2.9-7.6,6.3-7.6c2.2,0,3.6,1,4.3,2.2h0.1v-8.4H84.7z M82.2,274.6c0-0.3,0-0.8-0.1-1.1c-0.4-1.6-1.8-3-3.7-3
			c-2.7,0-4.2,2.3-4.2,5.5c0,2.9,1.4,5.2,4.2,5.2c1.7,0,3.3-1.1,3.8-3.1c0.1-0.4,0.1-0.7,0.1-1.1V274.6z"/>
		<path class="st0" d="M88.4,280.4c0.8,0.5,2.1,1,3.4,1c1.9,0,2.8-0.9,2.8-2.1c0-1.2-0.7-1.9-2.6-2.6c-2.5-0.9-3.7-2.3-3.7-4
			c0-2.3,1.8-4.2,4.9-4.2c1.4,0,2.7,0.4,3.5,0.9l-0.6,1.9c-0.6-0.4-1.6-0.8-2.9-0.8c-1.5,0-2.4,0.9-2.4,1.9c0,1.2,0.8,1.7,2.7,2.4
			c2.5,0.9,3.7,2.2,3.7,4.3c0,2.5-1.9,4.2-5.3,4.2c-1.5,0-3-0.4-4-1L88.4,280.4z"/>
		<path class="st0" d="M105.6,280.4c0.8,0.5,2.1,1,3.4,1c1.9,0,2.8-0.9,2.8-2.1c0-1.2-0.7-1.9-2.6-2.6c-2.5-0.9-3.7-2.3-3.7-4
			c0-2.3,1.8-4.2,4.9-4.2c1.4,0,2.7,0.4,3.5,0.9l-0.6,1.9c-0.6-0.4-1.6-0.8-2.9-0.8c-1.5,0-2.4,0.9-2.4,1.9c0,1.2,0.8,1.7,2.7,2.4
			c2.5,0.9,3.7,2.2,3.7,4.3c0,2.5-1.9,4.2-5.3,4.2c-1.5,0-3-0.4-4-1L105.6,280.4z"/>
		<path class="st0" d="M129.1,279.2c0,1.5,0,2.7,0.1,3.9h-2.3l-0.1-2.3h-0.1c-0.7,1.1-2.2,2.6-4.7,2.6c-2.2,0-4.9-1.2-4.9-6.2v-8.3
			h2.6v7.8c0,2.7,0.8,4.5,3.2,4.5c1.7,0,2.9-1.2,3.4-2.3c0.1-0.4,0.2-0.8,0.2-1.3v-8.7h2.6V279.2z"/>
		<path class="st0" d="M133,273.5c0-1.8-0.1-3.3-0.1-4.6h2.3l0.1,2.4h0.1c1.1-1.7,2.7-2.7,5-2.7c3.4,0,6,2.9,6,7.2
			c0,5.1-3.1,7.6-6.4,7.6c-1.9,0-3.5-0.8-4.4-2.2h-0.1v7.7H133V273.5z M135.6,277.3c0,0.4,0.1,0.7,0.1,1.1c0.5,1.8,2,3,3.9,3
			c2.7,0,4.3-2.2,4.3-5.5c0-2.8-1.5-5.3-4.2-5.3c-1.8,0-3.4,1.3-3.9,3.2c-0.1,0.3-0.2,0.7-0.2,1.1V277.3z"/>
		<path class="st0" d="M149.4,273.5c0-1.8-0.1-3.3-0.1-4.6h2.3l0.1,2.4h0.1c1.1-1.7,2.7-2.7,5-2.7c3.4,0,6,2.9,6,7.2
			c0,5.1-3.1,7.6-6.4,7.6c-1.9,0-3.5-0.8-4.4-2.2h-0.1v7.7h-2.5V273.5z M151.9,277.3c0,0.4,0.1,0.7,0.1,1.1c0.5,1.8,2,3,3.9,3
			c2.7,0,4.3-2.2,4.3-5.5c0-2.8-1.5-5.3-4.2-5.3c-1.8,0-3.4,1.3-3.9,3.2c-0.1,0.3-0.2,0.7-0.2,1.1V277.3z"/>
		<path class="st0" d="M178.5,275.8c0,5.2-3.6,7.5-7,7.5c-3.8,0-6.8-2.8-6.8-7.3c0-4.7,3.1-7.5,7-7.5
			C175.8,268.6,178.5,271.5,178.5,275.8z M167.3,276c0,3.1,1.8,5.4,4.3,5.4c2.5,0,4.3-2.3,4.3-5.5c0-2.4-1.2-5.4-4.2-5.4
			C168.6,270.5,167.3,273.3,167.3,276z"/>
		<path class="st0" d="M181.5,273.3c0-1.7,0-3.1-0.1-4.4h2.3l0.1,2.8h0.1c0.6-1.9,2.2-3.1,3.9-3.1c0.3,0,0.5,0,0.7,0.1v2.4
			c-0.3-0.1-0.5-0.1-0.9-0.1c-1.8,0-3.1,1.4-3.5,3.3c-0.1,0.3-0.1,0.8-0.1,1.2v7.5h-2.5V273.3z"/>
		<path class="st0" d="M194.6,264.8v4.1h3.7v2h-3.7v7.6c0,1.8,0.5,2.7,1.9,2.7c0.7,0,1.2-0.1,1.5-0.2l0.1,1.9
			c-0.5,0.2-1.3,0.4-2.3,0.4c-1.2,0-2.2-0.4-2.8-1.1c-0.7-0.8-1-2-1-3.7v-7.7h-2.2v-2h2.2v-3.4L194.6,264.8z"/>
		<path class="st0" d="M203.7,264.9c0,0.9-0.6,1.6-1.6,1.6c-0.9,0-1.5-0.7-1.5-1.6c0-0.9,0.7-1.6,1.6-1.6
			C203.1,263.3,203.7,264,203.7,264.9z M200.9,283v-14.1h2.6V283H200.9z"/>
		<path class="st0" d="M207.4,272.7c0-1.5,0-2.7-0.1-3.8h2.3l0.1,2.3h0.1c0.7-1.3,2.3-2.7,4.7-2.7c2,0,5,1.2,5,6v8.4h-2.6v-8.2
			c0-2.3-0.8-4.2-3.3-4.2c-1.7,0-3,1.2-3.5,2.6c-0.1,0.3-0.2,0.8-0.2,1.2v8.5h-2.6V272.7z"/>
		<path class="st0" d="M235.6,268.9c-0.1,1-0.1,2.2-0.1,3.9v8.2c0,3.2-0.6,5.2-2,6.5c-1.4,1.3-3.4,1.7-5.1,1.7
			c-1.7,0-3.6-0.4-4.7-1.2l0.6-2c0.9,0.6,2.4,1.1,4.2,1.1c2.6,0,4.6-1.4,4.6-4.9v-1.6h-0.1c-0.8,1.3-2.3,2.4-4.5,2.4
			c-3.5,0-6-3-6-6.9c0-4.8,3.1-7.5,6.4-7.5c2.5,0,3.8,1.3,4.4,2.5h0.1l0.1-2.1H235.6z M232.9,274.5c0-0.4,0-0.8-0.1-1.2
			c-0.5-1.5-1.7-2.7-3.6-2.7c-2.5,0-4.2,2.1-4.2,5.4c0,2.8,1.4,5.1,4.2,5.1c1.6,0,3-1,3.6-2.6c0.1-0.4,0.2-0.9,0.2-1.4V274.5z"/>
		<path class="st0" d="M248.4,264.8v4.1h3.7v2h-3.7v7.6c0,1.8,0.5,2.7,1.9,2.7c0.7,0,1.2-0.1,1.5-0.2l0.1,1.9
			c-0.5,0.2-1.3,0.4-2.3,0.4c-1.2,0-2.2-0.4-2.8-1.1c-0.7-0.8-1-2-1-3.7v-7.7h-2.2v-2h2.2v-3.4L248.4,264.8z"/>
		<path class="st0" d="M254.7,262.3h2.6v8.8h0.1c0.4-0.7,1.1-1.4,1.8-1.8c0.8-0.4,1.7-0.7,2.6-0.7c1.9,0,4.9,1.2,4.9,6.1v8.4h-2.6
			v-8.1c0-2.3-0.8-4.2-3.3-4.2c-1.7,0-3,1.2-3.5,2.6c-0.1,0.4-0.2,0.7-0.2,1.2v8.5h-2.6V262.3z"/>
		<path class="st0" d="M272.1,276.4c0.1,3.5,2.3,4.9,4.9,4.9c1.8,0,3-0.3,3.9-0.7l0.4,1.8c-0.9,0.4-2.5,0.9-4.7,0.9
			c-4.4,0-7-2.9-7-7.1c0-4.3,2.5-7.6,6.6-7.6c4.6,0,5.8,4.1,5.8,6.7c0,0.5-0.1,0.9-0.1,1.2H272.1z M279.6,274.6
			c0-1.6-0.7-4.2-3.6-4.2c-2.6,0-3.7,2.4-3.9,4.2H279.6z"/>
		<path class="st0" d="M290.9,272.7c0-1.5,0-2.7-0.1-3.8h2.3l0.1,2.3h0.1c0.8-1.3,2.1-2.6,4.4-2.6c1.9,0,3.4,1.2,4,2.8h0.1
			c0.4-0.8,1-1.4,1.6-1.8c0.8-0.6,1.8-1,3.1-1c1.9,0,4.6,1.2,4.6,6.1v8.3h-2.5v-8c0-2.7-1-4.4-3.1-4.4c-1.5,0-2.6,1.1-3,2.3
			c-0.1,0.4-0.2,0.8-0.2,1.3v8.7h-2.5v-8.5c0-2.3-1-3.9-3-3.9c-1.6,0-2.8,1.3-3.2,2.6c-0.1,0.4-0.2,0.8-0.2,1.3v8.5h-2.5V272.7z"/>
		<path class="st0" d="M322.9,283l-0.2-1.8h-0.1c-0.8,1.1-2.3,2.1-4.3,2.1c-2.9,0-4.3-2-4.3-4.1c0-3.4,3-5.3,8.5-5.3v-0.3
			c0-1.2-0.3-3.3-3.2-3.3c-1.3,0-2.7,0.4-3.7,1.1l-0.6-1.7c1.2-0.8,2.9-1.3,4.7-1.3c4.3,0,5.4,3,5.4,5.8v5.3c0,1.2,0.1,2.4,0.2,3.4
			H322.9z M322.5,275.8c-2.8-0.1-6,0.4-6,3.2c0,1.7,1.1,2.5,2.4,2.5c1.8,0,3-1.2,3.4-2.4c0.1-0.3,0.1-0.6,0.1-0.8V275.8z"/>
		<path class="st0" d="M331.7,264.9c0,0.9-0.6,1.6-1.6,1.6c-0.9,0-1.5-0.7-1.5-1.6c0-0.9,0.7-1.6,1.6-1.6
			C331.1,263.3,331.7,264,331.7,264.9z M328.8,283v-14.1h2.6V283H328.8z"/>
		<path class="st0" d="M335.4,272.7c0-1.5,0-2.7-0.1-3.8h2.3l0.1,2.3h0.1c0.7-1.3,2.3-2.7,4.7-2.7c2,0,5,1.2,5,6v8.4h-2.6v-8.2
			c0-2.3-0.8-4.2-3.3-4.2c-1.7,0-3,1.2-3.5,2.6c-0.1,0.3-0.2,0.8-0.2,1.2v8.5h-2.6V272.7z"/>
		<path class="st0" d="M354.3,264.8v4.1h3.7v2h-3.7v7.6c0,1.8,0.5,2.7,1.9,2.7c0.7,0,1.2-0.1,1.5-0.2l0.1,1.9
			c-0.5,0.2-1.3,0.4-2.3,0.4c-1.2,0-2.2-0.4-2.8-1.1c-0.7-0.8-1-2-1-3.7v-7.7h-2.2v-2h2.2v-3.4L354.3,264.8z"/>
		<path class="st0" d="M361.9,276.4c0.1,3.5,2.3,4.9,4.9,4.9c1.8,0,3-0.3,3.9-0.7l0.4,1.8c-0.9,0.4-2.5,0.9-4.7,0.9
			c-4.4,0-7-2.9-7-7.1c0-4.3,2.5-7.6,6.6-7.6c4.6,0,5.8,4.1,5.8,6.7c0,0.5-0.1,0.9-0.1,1.2H361.9z M369.4,274.6
			c0-1.6-0.7-4.2-3.6-4.2c-2.6,0-3.7,2.4-3.9,4.2H369.4z"/>
		<path class="st0" d="M374.8,272.7c0-1.5,0-2.7-0.1-3.8h2.3l0.1,2.3h0.1c0.7-1.3,2.3-2.7,4.7-2.7c2,0,5,1.2,5,6v8.4h-2.6v-8.2
			c0-2.3-0.8-4.2-3.3-4.2c-1.7,0-3,1.2-3.5,2.6c-0.1,0.3-0.2,0.8-0.2,1.2v8.5h-2.6V272.7z"/>
		<path class="st0" d="M398.6,283l-0.2-1.8h-0.1c-0.8,1.1-2.3,2.1-4.3,2.1c-2.9,0-4.3-2-4.3-4.1c0-3.4,3-5.3,8.5-5.3v-0.3
			c0-1.2-0.3-3.3-3.2-3.3c-1.3,0-2.7,0.4-3.7,1.1l-0.6-1.7c1.2-0.8,2.9-1.3,4.7-1.3c4.3,0,5.4,3,5.4,5.8v5.3c0,1.2,0.1,2.4,0.2,3.4
			H398.6z M398.2,275.8c-2.8-0.1-6,0.4-6,3.2c0,1.7,1.1,2.5,2.4,2.5c1.8,0,3-1.2,3.4-2.4c0.1-0.3,0.1-0.6,0.1-0.8V275.8z"/>
		<path class="st0" d="M404.5,272.7c0-1.5,0-2.7-0.1-3.8h2.3l0.1,2.3h0.1c0.7-1.3,2.3-2.7,4.7-2.7c2,0,5,1.2,5,6v8.4H414v-8.2
			c0-2.3-0.8-4.2-3.3-4.2c-1.7,0-3,1.2-3.5,2.6c-0.1,0.3-0.2,0.8-0.2,1.2v8.5h-2.6V272.7z"/>
		<path class="st0" d="M430.6,282.5c-0.7,0.3-2.2,0.8-4.1,0.8c-4.3,0-7-2.9-7-7.2c0-4.4,3-7.5,7.6-7.5c1.5,0,2.9,0.4,3.6,0.7l-0.6,2
			c-0.6-0.4-1.6-0.7-3-0.7c-3.2,0-5,2.4-5,5.4c0,3.3,2.1,5.3,4.9,5.3c1.5,0,2.4-0.4,3.2-0.7L430.6,282.5z"/>
		<path class="st0" d="M434.5,276.4c0.1,3.5,2.3,4.9,4.9,4.9c1.8,0,3-0.3,3.9-0.7l0.4,1.8c-0.9,0.4-2.5,0.9-4.7,0.9
			c-4.4,0-7-2.9-7-7.1c0-4.3,2.5-7.6,6.6-7.6c4.6,0,5.8,4.1,5.8,6.7c0,0.5-0.1,0.9-0.1,1.2H434.5z M442.1,274.6
			c0-1.6-0.7-4.2-3.6-4.2c-2.6,0-3.7,2.4-3.9,4.2H442.1z"/>
		<path class="st0" d="M11.7,318.1l-0.2-1.8h-0.1c-0.8,1.1-2.3,2.1-4.3,2.1c-2.9,0-4.3-2-4.3-4.1c0-3.4,3-5.3,8.5-5.3v-0.3
			c0-1.2-0.3-3.3-3.2-3.3c-1.3,0-2.7,0.4-3.7,1.1l-0.6-1.7c1.2-0.8,2.9-1.3,4.7-1.3c4.3,0,5.4,3,5.4,5.8v5.3c0,1.2,0.1,2.4,0.2,3.4
			H11.7z M11.3,310.9c-2.8-0.1-6,0.4-6,3.2c0,1.7,1.1,2.5,2.4,2.5c1.8,0,3-1.2,3.4-2.4c0.1-0.3,0.1-0.6,0.1-0.8V310.9z"/>
		<path class="st0" d="M17.6,307.8c0-1.5,0-2.7-0.1-3.8h2.3l0.1,2.3H20c0.7-1.3,2.3-2.7,4.7-2.7c2,0,5,1.2,5,6v8.4h-2.6V310
			c0-2.3-0.8-4.2-3.3-4.2c-1.7,0-3,1.2-3.5,2.6c-0.1,0.3-0.2,0.8-0.2,1.2v8.5h-2.6V307.8z"/>
		<path class="st0" d="M45.8,297.4v17.1c0,1.3,0,2.7,0.1,3.7h-2.3l-0.1-2.5h-0.1c-0.8,1.6-2.5,2.8-4.8,2.8c-3.4,0-6.1-2.9-6.1-7.2
			c0-4.7,2.9-7.6,6.3-7.6c2.2,0,3.6,1,4.3,2.2h0.1v-8.4H45.8z M43.2,309.7c0-0.3,0-0.8-0.1-1.1c-0.4-1.6-1.8-3-3.7-3
			c-2.7,0-4.2,2.3-4.2,5.5c0,2.9,1.4,5.2,4.2,5.2c1.7,0,3.3-1.1,3.8-3.1c0.1-0.4,0.1-0.7,0.1-1.1V309.7z"/>
		<path class="st0" d="M67.5,314.3c0,1.5,0,2.7,0.1,3.9h-2.3l-0.1-2.3h-0.1c-0.7,1.1-2.2,2.6-4.7,2.6c-2.2,0-4.9-1.2-4.9-6.2V304
			h2.6v7.8c0,2.7,0.8,4.5,3.2,4.5c1.7,0,2.9-1.2,3.4-2.3c0.1-0.4,0.2-0.8,0.2-1.3V304h2.6V314.3z"/>
		<path class="st0" d="M71.5,308.6c0-1.8-0.1-3.3-0.1-4.6h2.3l0.1,2.4h0.1c1.1-1.7,2.7-2.7,5-2.7c3.4,0,6,2.9,6,7.2
			c0,5.1-3.1,7.6-6.4,7.6c-1.9,0-3.5-0.8-4.4-2.2h-0.1v7.7h-2.5V308.6z M74.1,312.4c0,0.4,0.1,0.7,0.1,1.1c0.5,1.8,2,3,3.9,3
			c2.7,0,4.3-2.2,4.3-5.5c0-2.8-1.5-5.3-4.2-5.3c-1.8,0-3.4,1.3-3.9,3.2c-0.1,0.3-0.2,0.7-0.2,1.1V312.4z"/>
		<path class="st0" d="M90.4,310.5L90.4,310.5c0.4-0.5,0.9-1.1,1.3-1.6l4.2-4.9H99l-5.5,5.8l6.2,8.3h-3.1l-4.9-6.8l-1.3,1.5v5.3
			h-2.5v-20.8h2.5V310.5z"/>
		<path class="st0" d="M102.7,311.5c0.1,3.5,2.3,4.9,4.9,4.9c1.8,0,3-0.3,3.9-0.7l0.4,1.8c-0.9,0.4-2.5,0.9-4.7,0.9
			c-4.4,0-7-2.9-7-7.1c0-4.3,2.5-7.6,6.6-7.6c4.6,0,5.8,4.1,5.8,6.7c0,0.5-0.1,0.9-0.1,1.2H102.7z M110.3,309.7
			c0-1.6-0.7-4.2-3.6-4.2c-2.6,0-3.7,2.4-3.9,4.2H110.3z"/>
		<path class="st0" d="M117.1,311.5c0.1,3.5,2.3,4.9,4.9,4.9c1.8,0,3-0.3,3.9-0.7l0.4,1.8c-0.9,0.4-2.5,0.9-4.7,0.9
			c-4.4,0-7-2.9-7-7.1c0-4.3,2.5-7.6,6.6-7.6c4.6,0,5.8,4.1,5.8,6.7c0,0.5-0.1,0.9-0.1,1.2H117.1z M124.6,309.7
			c0-1.6-0.7-4.2-3.6-4.2c-2.6,0-3.7,2.4-3.9,4.2H124.6z"/>
		<path class="st0" d="M130,308.6c0-1.8-0.1-3.3-0.1-4.6h2.3l0.1,2.4h0.1c1.1-1.7,2.7-2.7,5-2.7c3.4,0,6,2.9,6,7.2
			c0,5.1-3.1,7.6-6.4,7.6c-1.9,0-3.5-0.8-4.4-2.2h-0.1v7.7H130V308.6z M132.6,312.4c0,0.4,0.1,0.7,0.1,1.1c0.5,1.8,2,3,3.9,3
			c2.7,0,4.3-2.2,4.3-5.5c0-2.8-1.5-5.3-4.2-5.3c-1.8,0-3.4,1.3-3.9,3.2c-0.1,0.3-0.2,0.7-0.2,1.1V312.4z"/>
		<path class="st0" d="M165.1,310.9c0,5.2-3.6,7.5-7,7.5c-3.8,0-6.8-2.8-6.8-7.3c0-4.7,3.1-7.5,7-7.5
			C162.3,303.7,165.1,306.6,165.1,310.9z M153.9,311.1c0,3.1,1.8,5.4,4.3,5.4c2.5,0,4.3-2.3,4.3-5.5c0-2.4-1.2-5.4-4.2-5.4
			C155.2,305.6,153.9,308.4,153.9,311.1z"/>
		<path class="st0" d="M168.3,318.1v-12.2h-2v-2h2v-0.7c0-2,0.4-3.8,1.6-4.9c1-0.9,2.3-1.3,3.5-1.3c0.9,0,1.7,0.2,2.2,0.4l-0.4,2
			c-0.4-0.2-0.9-0.3-1.6-0.3c-2.2,0-2.7,1.9-2.7,4.1v0.8h3.4v2h-3.4v12.2H168.3z"/>
		<path class="st0" d="M185.3,299.9v4.1h3.7v2h-3.7v7.6c0,1.8,0.5,2.7,1.9,2.7c0.7,0,1.2-0.1,1.5-0.2l0.1,1.9
			c-0.5,0.2-1.3,0.4-2.3,0.4c-1.2,0-2.2-0.4-2.8-1.1c-0.7-0.8-1-2-1-3.7v-7.7h-2.2v-2h2.2v-3.4L185.3,299.9z"/>
		<path class="st0" d="M191.6,297.4h2.6v8.8h0.1c0.4-0.7,1.1-1.4,1.8-1.8c0.8-0.4,1.7-0.7,2.6-0.7c1.9,0,4.9,1.2,4.9,6.1v8.4h-2.6
			V310c0-2.3-0.8-4.2-3.3-4.2c-1.7,0-3,1.2-3.5,2.6c-0.1,0.4-0.2,0.7-0.2,1.2v8.5h-2.6V297.4z"/>
		<path class="st0" d="M209,311.5c0.1,3.5,2.3,4.9,4.9,4.9c1.8,0,3-0.3,3.9-0.7l0.4,1.8c-0.9,0.4-2.5,0.9-4.7,0.9
			c-4.4,0-7-2.9-7-7.1c0-4.3,2.5-7.6,6.6-7.6c4.6,0,5.8,4.1,5.8,6.7c0,0.5-0.1,0.9-0.1,1.2H209z M216.5,309.7c0-1.6-0.7-4.2-3.6-4.2
			c-2.6,0-3.7,2.4-3.9,4.2H216.5z"/>
		<path class="st0" d="M228.8,304l1.9,7.2c0.4,1.6,0.8,3,1.1,4.5h0.1c0.3-1.4,0.8-3,1.3-4.5l2.3-7.2h2.2l2.2,7.1
			c0.5,1.7,0.9,3.2,1.3,4.6h0.1c0.2-1.4,0.6-2.9,1.1-4.6l2-7.1h2.5l-4.6,14.1h-2.3l-2.2-6.8c-0.5-1.6-0.9-3-1.3-4.6h-0.1
			c-0.4,1.7-0.8,3.2-1.3,4.7l-2.3,6.7h-2.3l-4.3-14.1H228.8z"/>
		<path class="st0" d="M249,297.4h2.6v8.8h0.1c0.4-0.7,1.1-1.4,1.8-1.8c0.8-0.4,1.7-0.7,2.6-0.7c1.9,0,4.9,1.2,4.9,6.1v8.4h-2.6V310
			c0-2.3-0.8-4.2-3.3-4.2c-1.7,0-3,1.2-3.5,2.6c-0.1,0.4-0.2,0.7-0.2,1.2v8.5H249V297.4z"/>
		<path class="st0" d="M277.8,310.9c0,5.2-3.6,7.5-7,7.5c-3.8,0-6.8-2.8-6.8-7.3c0-4.7,3.1-7.5,7-7.5
			C275,303.7,277.8,306.6,277.8,310.9z M266.6,311.1c0,3.1,1.8,5.4,4.3,5.4c2.5,0,4.3-2.3,4.3-5.5c0-2.4-1.2-5.4-4.2-5.4
			C267.9,305.6,266.6,308.4,266.6,311.1z"/>
		<path class="st0" d="M280.7,297.4h2.6v20.8h-2.6V297.4z"/>
		<path class="st0" d="M288.8,311.5c0.1,3.5,2.3,4.9,4.9,4.9c1.8,0,3-0.3,3.9-0.7l0.4,1.8c-0.9,0.4-2.5,0.9-4.7,0.9
			c-4.4,0-7-2.9-7-7.1c0-4.3,2.5-7.6,6.6-7.6c4.6,0,5.8,4.1,5.8,6.7c0,0.5-0.1,0.9-0.1,1.2H288.8z M296.3,309.7
			c0-1.6-0.7-4.2-3.6-4.2c-2.6,0-3.7,2.4-3.9,4.2H296.3z"/>
		<path class="st0" d="M307.3,315.5c0.8,0.5,2.1,1,3.4,1c1.9,0,2.8-0.9,2.8-2.1c0-1.2-0.7-1.9-2.6-2.6c-2.5-0.9-3.7-2.3-3.7-4
			c0-2.3,1.8-4.2,4.9-4.2c1.4,0,2.7,0.4,3.5,0.9l-0.6,1.9c-0.6-0.4-1.6-0.8-2.9-0.8c-1.5,0-2.4,0.9-2.4,1.9c0,1.2,0.8,1.7,2.7,2.4
			c2.5,0.9,3.7,2.2,3.7,4.3c0,2.5-1.9,4.2-5.3,4.2c-1.5,0-3-0.4-4-1L307.3,315.5z"/>
		<path class="st0" d="M319.9,304l3.1,8.4c0.3,0.9,0.7,2,0.9,2.9h0.1c0.3-0.8,0.6-1.9,0.9-3l2.8-8.3h2.7l-3.9,10.1
			c-1.8,4.9-3.1,7.3-4.9,8.9c-1.3,1.1-2.5,1.5-3.2,1.7l-0.6-2.2c0.6-0.2,1.5-0.6,2.3-1.3c0.7-0.6,1.6-1.5,2.2-2.9
			c0.1-0.3,0.2-0.5,0.2-0.6c0-0.1-0.1-0.4-0.2-0.7l-5.2-13H319.9z"/>
		<path class="st0" d="M331.9,315.5c0.8,0.5,2.1,1,3.4,1c1.9,0,2.8-0.9,2.8-2.1c0-1.2-0.7-1.9-2.6-2.6c-2.5-0.9-3.7-2.3-3.7-4
			c0-2.3,1.8-4.2,4.9-4.2c1.4,0,2.7,0.4,3.5,0.9l-0.6,1.9c-0.6-0.4-1.6-0.8-2.9-0.8c-1.5,0-2.4,0.9-2.4,1.9c0,1.2,0.8,1.7,2.7,2.4
			c2.5,0.9,3.7,2.2,3.7,4.3c0,2.5-1.9,4.2-5.3,4.2c-1.5,0-3-0.4-4-1L331.9,315.5z"/>
		<path class="st0" d="M346.6,299.9v4.1h3.7v2h-3.7v7.6c0,1.8,0.5,2.7,1.9,2.7c0.7,0,1.2-0.1,1.5-0.2l0.1,1.9
			c-0.5,0.2-1.3,0.4-2.3,0.4c-1.2,0-2.2-0.4-2.8-1.1c-0.7-0.8-1-2-1-3.7v-7.7h-2.2v-2h2.2v-3.4L346.6,299.9z"/>
		<path class="st0" d="M354.2,311.5c0.1,3.5,2.3,4.9,4.9,4.9c1.8,0,3-0.3,3.9-0.7l0.4,1.8c-0.9,0.4-2.5,0.9-4.7,0.9
			c-4.4,0-7-2.9-7-7.1c0-4.3,2.5-7.6,6.6-7.6c4.6,0,5.8,4.1,5.8,6.7c0,0.5-0.1,0.9-0.1,1.2H354.2z M361.7,309.7
			c0-1.6-0.7-4.2-3.6-4.2c-2.6,0-3.7,2.4-3.9,4.2H361.7z"/>
		<path class="st0" d="M367.1,307.8c0-1.5,0-2.7-0.1-3.8h2.3l0.1,2.3h0.1c0.8-1.3,2.1-2.6,4.4-2.6c1.9,0,3.4,1.2,4,2.8h0.1
			c0.4-0.8,1-1.4,1.6-1.8c0.8-0.6,1.8-1,3.1-1c1.9,0,4.6,1.2,4.6,6.1v8.3h-2.5v-8c0-2.7-1-4.4-3.1-4.4c-1.5,0-2.6,1.1-3,2.3
			c-0.1,0.4-0.2,0.8-0.2,1.3v8.7H376v-8.5c0-2.3-1-3.9-3-3.9c-1.6,0-2.8,1.3-3.2,2.6c-0.1,0.4-0.2,0.8-0.2,1.3v8.5h-2.5V307.8z"/>
	</g>
	<polyline class="st1" points="523.7,313.7 523.7,337.1 1.3,337.1 	"/>
	<g>
		<path class="st0" d="M7.1,386.7h-6v-2.2h14.6v2.2h-6v17.5H7.1V386.7z"/>
		<path class="st0" d="M17.4,383.5h2.6v8.8H20c0.4-0.7,1.1-1.4,1.8-1.8c0.8-0.4,1.7-0.7,2.6-0.7c1.9,0,4.9,1.2,4.9,6.1v8.4h-2.6
			v-8.1c0-2.3-0.8-4.2-3.3-4.2c-1.7,0-3,1.2-3.5,2.6c-0.1,0.4-0.2,0.7-0.2,1.2v8.5h-2.6V383.5z"/>
		<path class="st0" d="M36.2,386.2c0,0.9-0.6,1.6-1.6,1.6c-0.9,0-1.5-0.7-1.5-1.6c0-0.9,0.7-1.6,1.6-1.6
			C35.6,384.6,36.2,385.3,36.2,386.2z M33.3,404.3v-14.1h2.6v14.1H33.3z"/>
		<path class="st0" d="M39.5,401.7c0.8,0.5,2.1,1,3.4,1c1.9,0,2.8-0.9,2.8-2.1c0-1.2-0.7-1.9-2.6-2.6c-2.5-0.9-3.7-2.3-3.7-4
			c0-2.3,1.8-4.2,4.9-4.2c1.4,0,2.7,0.4,3.5,0.9l-0.6,1.9c-0.6-0.4-1.6-0.8-2.9-0.8c-1.5,0-2.4,0.9-2.4,1.9c0,1.2,0.8,1.7,2.7,2.4
			c2.5,0.9,3.7,2.2,3.7,4.3c0,2.5-1.9,4.2-5.3,4.2c-1.5,0-3-0.4-4-1L39.5,401.7z"/>
		<path class="st0" d="M68.9,400.4c0,1.5,0,2.7,0.1,3.9h-2.3l-0.1-2.3h-0.1c-0.7,1.1-2.2,2.6-4.7,2.6c-2.2,0-4.9-1.2-4.9-6.2v-8.3
			h2.6v7.8c0,2.7,0.8,4.5,3.2,4.5c1.7,0,2.9-1.2,3.4-2.3c0.1-0.4,0.2-0.8,0.2-1.3v-8.7h2.6V400.4z"/>
		<path class="st0" d="M76,386.1v4.1h3.7v2H76v7.6c0,1.8,0.5,2.7,1.9,2.7c0.7,0,1.2-0.1,1.5-0.2l0.1,1.9c-0.5,0.2-1.3,0.3-2.3,0.3
			c-1.2,0-2.2-0.4-2.8-1.1c-0.7-0.8-1-2-1-3.7v-7.7h-2.2v-2h2.2v-3.4L76,386.1z"/>
		<path class="st0" d="M85.1,386.2c0,0.9-0.6,1.6-1.6,1.6c-0.9,0-1.5-0.7-1.5-1.6c0-0.9,0.7-1.6,1.6-1.6
			C84.5,384.6,85.1,385.3,85.1,386.2z M82.3,404.3v-14.1h2.6v14.1H82.3z"/>
		<path class="st0" d="M88.8,383.5h2.6v20.8h-2.6V383.5z"/>
		<path class="st0" d="M98.3,386.2c0,0.9-0.6,1.6-1.6,1.6c-0.9,0-1.5-0.7-1.5-1.6c0-0.9,0.7-1.6,1.6-1.6
			C97.7,384.6,98.3,385.3,98.3,386.2z M95.4,404.3v-14.1H98v14.1H95.4z"/>
		<path class="st0" d="M105.1,386.1v4.1h3.7v2h-3.7v7.6c0,1.8,0.5,2.7,1.9,2.7c0.7,0,1.2-0.1,1.5-0.2l0.1,1.9
			c-0.5,0.2-1.3,0.3-2.3,0.3c-1.2,0-2.2-0.4-2.8-1.1c-0.7-0.8-1-2-1-3.7v-7.7h-2.2v-2h2.2v-3.4L105.1,386.1z"/>
		<path class="st0" d="M112.6,390.1l3.1,8.4c0.3,0.9,0.7,2,0.9,2.9h0.1c0.3-0.8,0.6-1.9,0.9-3l2.8-8.3h2.7l-3.9,10.1
			c-1.8,4.9-3.1,7.3-4.9,8.9c-1.3,1.1-2.5,1.6-3.2,1.7l-0.6-2.2c0.6-0.2,1.5-0.6,2.3-1.3c0.7-0.6,1.6-1.5,2.2-2.9
			c0.1-0.3,0.2-0.5,0.2-0.6c0-0.1-0.1-0.3-0.2-0.7l-5.2-13H112.6z"/>
		<path class="st0" d="M142.9,400.4c0,1.5,0,2.7,0.1,3.9h-2.3l-0.1-2.3h-0.1c-0.7,1.1-2.2,2.6-4.7,2.6c-2.2,0-4.9-1.2-4.9-6.2v-8.3
			h2.6v7.8c0,2.7,0.8,4.5,3.2,4.5c1.7,0,2.9-1.2,3.4-2.3c0.1-0.4,0.2-0.8,0.2-1.3v-8.7h2.6V400.4z"/>
		<path class="st0" d="M146.5,401.7c0.8,0.5,2.1,1,3.4,1c1.9,0,2.8-0.9,2.8-2.1c0-1.2-0.7-1.9-2.6-2.6c-2.5-0.9-3.7-2.3-3.7-4
			c0-2.3,1.8-4.2,4.9-4.2c1.4,0,2.7,0.4,3.5,0.9l-0.6,1.9c-0.6-0.4-1.6-0.8-2.9-0.8c-1.5,0-2.4,0.9-2.4,1.9c0,1.2,0.8,1.7,2.7,2.4
			c2.5,0.9,3.7,2.2,3.7,4.3c0,2.5-1.9,4.2-5.3,4.2c-1.5,0-3-0.4-4-1L146.5,401.7z"/>
		<path class="st0" d="M159.6,397.7c0.1,3.5,2.3,4.9,4.9,4.9c1.8,0,3-0.3,3.9-0.7l0.4,1.8c-0.9,0.4-2.5,0.9-4.7,0.9
			c-4.4,0-7-2.9-7-7.1s2.5-7.6,6.6-7.6c4.6,0,5.8,4.1,5.8,6.7c0,0.5-0.1,0.9-0.1,1.2H159.6z M167.1,395.8c0-1.6-0.7-4.2-3.6-4.2
			c-2.6,0-3.7,2.4-3.9,4.2H167.1z"/>
		<path class="st0" d="M172.1,401.7c0.8,0.5,2.1,1,3.4,1c1.9,0,2.8-0.9,2.8-2.1c0-1.2-0.7-1.9-2.6-2.6c-2.5-0.9-3.7-2.3-3.7-4
			c0-2.3,1.8-4.2,4.9-4.2c1.4,0,2.7,0.4,3.5,0.9l-0.6,1.9c-0.6-0.4-1.6-0.8-2.9-0.8c-1.5,0-2.4,0.9-2.4,1.9c0,1.2,0.8,1.7,2.7,2.4
			c2.5,0.9,3.7,2.2,3.7,4.3c0,2.5-1.9,4.2-5.3,4.2c-1.5,0-3-0.4-4-1L172.1,401.7z"/>
		<path class="st0" d="M197.5,404.3l-0.2-1.8h-0.1c-0.8,1.1-2.3,2.1-4.3,2.1c-2.9,0-4.3-2-4.3-4.1c0-3.4,3-5.3,8.5-5.3V395
			c0-1.2-0.3-3.3-3.2-3.3c-1.3,0-2.7,0.4-3.7,1.1l-0.6-1.7c1.2-0.8,2.9-1.3,4.7-1.3c4.3,0,5.4,3,5.4,5.8v5.3c0,1.2,0.1,2.4,0.2,3.4
			H197.5z M197.2,397.1c-2.8-0.1-6,0.4-6,3.2c0,1.7,1.1,2.5,2.4,2.5c1.8,0,3-1.2,3.4-2.4c0.1-0.3,0.1-0.6,0.1-0.8V397.1z"/>
		<path class="st0" d="M221.3,400.4c0,1.5,0,2.7,0.1,3.9h-2.3l-0.1-2.3h-0.1c-0.7,1.1-2.2,2.6-4.7,2.6c-2.2,0-4.9-1.2-4.9-6.2v-8.3
			h2.6v7.8c0,2.7,0.8,4.5,3.2,4.5c1.7,0,2.9-1.2,3.4-2.3c0.1-0.4,0.2-0.8,0.2-1.3v-8.7h2.6V400.4z"/>
		<path class="st0" d="M225.2,394c0-1.5,0-2.7-0.1-3.8h2.3l0.1,2.3h0.1c0.7-1.3,2.3-2.7,4.7-2.7c2,0,5,1.2,5,6v8.4h-2.6v-8.2
			c0-2.3-0.8-4.2-3.3-4.2c-1.7,0-3,1.2-3.5,2.6c-0.1,0.3-0.2,0.8-0.2,1.2v8.5h-2.6V394z"/>
		<path class="st0" d="M244,386.2c0,0.9-0.6,1.6-1.6,1.6c-0.9,0-1.5-0.7-1.5-1.6c0-0.9,0.7-1.6,1.6-1.6
			C243.4,384.6,244,385.3,244,386.2z M241.2,404.3v-14.1h2.6v14.1H241.2z"/>
		<path class="st0" d="M248,404.3v-12.2h-2v-2h2v-0.7c0-2,0.4-3.8,1.6-4.9c1-0.9,2.3-1.3,3.5-1.3c0.9,0,1.7,0.2,2.2,0.4l-0.4,2
			c-0.4-0.2-0.9-0.3-1.6-0.3c-2.2,0-2.7,1.9-2.7,4.1v0.8h3.4v2h-3.4v12.2H248z"/>
		<path class="st0" d="M268.4,397.1c0,5.2-3.6,7.5-7,7.5c-3.8,0-6.8-2.8-6.8-7.3c0-4.7,3.1-7.5,7-7.5
			C265.7,389.8,268.4,392.8,268.4,397.1z M257.2,397.2c0,3.1,1.8,5.4,4.3,5.4c2.5,0,4.3-2.3,4.3-5.5c0-2.4-1.2-5.4-4.2-5.4
			C258.5,391.7,257.2,394.6,257.2,397.2z"/>
		<path class="st0" d="M271.4,394.6c0-1.7,0-3.1-0.1-4.4h2.3l0.1,2.8h0.1c0.6-1.9,2.2-3.1,3.9-3.1c0.3,0,0.5,0,0.7,0.1v2.4
			c-0.3-0.1-0.5-0.1-0.9-0.1c-1.8,0-3.1,1.4-3.5,3.3c-0.1,0.4-0.1,0.8-0.1,1.2v7.5h-2.5V394.6z"/>
		<path class="st0" d="M280.8,394c0-1.5,0-2.7-0.1-3.8h2.3l0.1,2.3h0.1c0.8-1.3,2.1-2.6,4.4-2.6c1.9,0,3.4,1.2,4,2.8h0.1
			c0.4-0.8,1-1.4,1.6-1.8c0.8-0.6,1.8-1,3.1-1c1.9,0,4.6,1.2,4.6,6.1v8.3h-2.5v-8c0-2.7-1-4.4-3.1-4.4c-1.5,0-2.6,1.1-3,2.3
			c-0.1,0.3-0.2,0.8-0.2,1.3v8.7h-2.5v-8.5c0-2.3-1-3.9-3-3.9c-1.6,0-2.8,1.3-3.2,2.6c-0.1,0.4-0.2,0.8-0.2,1.3v8.5h-2.5V394z"/>
		<path class="st0" d="M310.8,394.6c0-1.7,0-3.1-0.1-4.4h2.3l0.1,2.8h0.1c0.6-1.9,2.2-3.1,3.9-3.1c0.3,0,0.5,0,0.7,0.1v2.4
			c-0.3-0.1-0.5-0.1-0.9-0.1c-1.8,0-3.1,1.4-3.5,3.3c-0.1,0.4-0.1,0.8-0.1,1.2v7.5h-2.5V394.6z"/>
		<path class="st0" d="M327.7,404.3l-0.2-1.8h-0.1c-0.8,1.1-2.3,2.1-4.3,2.1c-2.9,0-4.3-2-4.3-4.1c0-3.4,3-5.3,8.5-5.3V395
			c0-1.2-0.3-3.3-3.2-3.3c-1.3,0-2.7,0.4-3.7,1.1l-0.6-1.7c1.2-0.8,2.9-1.3,4.7-1.3c4.3,0,5.4,3,5.4,5.8v5.3c0,1.2,0.1,2.4,0.2,3.4
			H327.7z M327.3,397.1c-2.8-0.1-6,0.4-6,3.2c0,1.7,1.1,2.5,2.4,2.5c1.8,0,3-1.2,3.4-2.4c0.1-0.3,0.1-0.6,0.1-0.8V397.1z"/>
		<path class="st0" d="M336.7,386.1v4.1h3.7v2h-3.7v7.6c0,1.8,0.5,2.7,1.9,2.7c0.7,0,1.2-0.1,1.5-0.2l0.1,1.9
			c-0.5,0.2-1.3,0.3-2.3,0.3c-1.2,0-2.2-0.4-2.8-1.1c-0.7-0.8-1-2-1-3.7v-7.7H332v-2h2.2v-3.4L336.7,386.1z"/>
		<path class="st0" d="M344.2,397.7c0.1,3.5,2.3,4.9,4.9,4.9c1.8,0,3-0.3,3.9-0.7l0.4,1.8c-0.9,0.4-2.5,0.9-4.7,0.9
			c-4.4,0-7-2.9-7-7.1s2.5-7.6,6.6-7.6c4.6,0,5.8,4.1,5.8,6.7c0,0.5-0.1,0.9-0.1,1.2H344.2z M351.8,395.8c0-1.6-0.7-4.2-3.6-4.2
			c-2.6,0-3.7,2.4-3.9,4.2H351.8z"/>
		<path class="st0" d="M3,436.8c0.8,0.5,2.1,1,3.4,1c1.9,0,2.8-0.9,2.8-2.1c0-1.2-0.7-1.9-2.6-2.6c-2.5-0.9-3.7-2.3-3.7-4
			c0-2.3,1.8-4.2,4.9-4.2c1.4,0,2.7,0.4,3.5,0.9l-0.6,1.9c-0.6-0.4-1.6-0.8-2.9-0.8c-1.5,0-2.4,0.9-2.4,1.9c0,1.2,0.8,1.7,2.7,2.4
			c2.5,0.9,3.7,2.2,3.7,4.3c0,2.5-1.9,4.2-5.3,4.2c-1.5,0-3-0.4-4-1L3,436.8z"/>
		<path class="st0" d="M17.7,421.2v4.1h3.7v2h-3.7v7.6c0,1.8,0.5,2.7,1.9,2.7c0.7,0,1.2-0.1,1.5-0.2l0.1,1.9
			c-0.5,0.2-1.3,0.3-2.3,0.3c-1.2,0-2.2-0.4-2.8-1.1c-0.7-0.8-1-2-1-3.7v-7.7H13v-2h2.2v-3.4L17.7,421.2z"/>
		<path class="st0" d="M24,429.7c0-1.7,0-3.1-0.1-4.4h2.3l0.1,2.8h0.1c0.6-1.9,2.2-3.1,3.9-3.1c0.3,0,0.5,0,0.7,0.1v2.4
			c-0.3-0.1-0.5-0.1-0.9-0.1c-1.8,0-3.1,1.4-3.5,3.3c-0.1,0.4-0.1,0.8-0.1,1.2v7.5H24V429.7z"/>
		<path class="st0" d="M45.1,435.5c0,1.5,0,2.7,0.1,3.9h-2.3l-0.1-2.3h-0.1c-0.7,1.1-2.2,2.6-4.7,2.6c-2.2,0-4.9-1.2-4.9-6.2v-8.3
			h2.6v7.8c0,2.7,0.8,4.5,3.2,4.5c1.7,0,2.9-1.2,3.4-2.3c0.1-0.4,0.2-0.8,0.2-1.3v-8.7h2.6V435.5z"/>
		<path class="st0" d="M59.2,438.9c-0.7,0.4-2.2,0.8-4.1,0.8c-4.3,0-7-2.9-7-7.2c0-4.4,3-7.5,7.6-7.5c1.5,0,2.9,0.4,3.6,0.7l-0.6,2
			c-0.6-0.4-1.6-0.7-3-0.7c-3.2,0-5,2.4-5,5.4c0,3.3,2.1,5.3,4.9,5.3c1.5,0,2.4-0.4,3.2-0.7L59.2,438.9z"/>
		<path class="st0" d="M65.4,421.2v4.1h3.7v2h-3.7v7.6c0,1.8,0.5,2.7,1.9,2.7c0.7,0,1.2-0.1,1.5-0.2l0.1,1.9
			c-0.5,0.2-1.3,0.3-2.3,0.3c-1.2,0-2.2-0.4-2.8-1.1c-0.7-0.8-1-2-1-3.7v-7.7h-2.2v-2h2.2v-3.4L65.4,421.2z"/>
		<path class="st0" d="M83.5,435.5c0,1.5,0,2.7,0.1,3.9h-2.3l-0.1-2.3h-0.1c-0.7,1.1-2.2,2.6-4.7,2.6c-2.2,0-4.9-1.2-4.9-6.2v-8.3
			h2.6v7.8c0,2.7,0.8,4.5,3.2,4.5c1.7,0,2.9-1.2,3.4-2.3c0.1-0.4,0.2-0.8,0.2-1.3v-8.7h2.6V435.5z"/>
		<path class="st0" d="M87.5,429.7c0-1.7,0-3.1-0.1-4.4h2.3l0.1,2.8h0.1c0.6-1.9,2.2-3.1,3.9-3.1c0.3,0,0.5,0,0.7,0.1v2.4
			c-0.3-0.1-0.5-0.1-0.9-0.1c-1.8,0-3.1,1.4-3.5,3.3c-0.1,0.4-0.1,0.8-0.1,1.2v7.5h-2.5V429.7z"/>
		<path class="st0" d="M97.9,432.8c0.1,3.5,2.3,4.9,4.9,4.9c1.8,0,3-0.3,3.9-0.7l0.4,1.8c-0.9,0.4-2.5,0.9-4.7,0.9
			c-4.4,0-7-2.9-7-7.1c0-4.3,2.5-7.6,6.6-7.6c4.6,0,5.8,4.1,5.8,6.7c0,0.5-0.1,0.9-0.1,1.2H97.9z M105.5,430.9
			c0-1.6-0.7-4.2-3.6-4.2c-2.6,0-3.7,2.4-3.9,4.2H105.5z"/>
		<path class="st0" d="M119.8,421.2v4.1h3.7v2h-3.7v7.6c0,1.8,0.5,2.7,1.9,2.7c0.7,0,1.2-0.1,1.5-0.2l0.1,1.9
			c-0.5,0.2-1.3,0.3-2.3,0.3c-1.2,0-2.2-0.4-2.8-1.1c-0.7-0.8-1-2-1-3.7v-7.7h-2.2v-2h2.2v-3.4L119.8,421.2z"/>
		<path class="st0" d="M126.1,418.6h2.6v8.8h0.1c0.4-0.7,1.1-1.4,1.8-1.8c0.8-0.4,1.7-0.7,2.6-0.7c1.9,0,4.9,1.2,4.9,6.1v8.4h-2.6
			v-8.1c0-2.3-0.8-4.2-3.3-4.2c-1.7,0-3,1.2-3.5,2.6c-0.1,0.4-0.2,0.7-0.2,1.2v8.5h-2.6V418.6z"/>
		<path class="st0" d="M149.9,439.4l-0.2-1.8h-0.1c-0.8,1.1-2.3,2.1-4.3,2.1c-2.9,0-4.3-2-4.3-4.1c0-3.4,3-5.3,8.5-5.3v-0.3
			c0-1.2-0.3-3.3-3.2-3.3c-1.3,0-2.7,0.4-3.7,1.1l-0.6-1.7c1.2-0.8,2.9-1.3,4.7-1.3c4.3,0,5.4,3,5.4,5.8v5.3c0,1.2,0.1,2.4,0.2,3.4
			H149.9z M149.5,432.2c-2.8-0.1-6,0.4-6,3.2c0,1.7,1.1,2.5,2.4,2.5c1.8,0,3-1.2,3.4-2.4c0.1-0.3,0.1-0.6,0.1-0.8V432.2z"/>
		<path class="st0" d="M158.9,421.2v4.1h3.7v2h-3.7v7.6c0,1.8,0.5,2.7,1.9,2.7c0.7,0,1.2-0.1,1.5-0.2l0.1,1.9
			c-0.5,0.2-1.3,0.3-2.3,0.3c-1.2,0-2.2-0.4-2.8-1.1c-0.7-0.8-1-2-1-3.7v-7.7h-2.2v-2h2.2v-3.4L158.9,421.2z"/>
		<path class="st0" d="M181.2,438.9c-0.7,0.4-2.2,0.8-4.1,0.8c-4.3,0-7-2.9-7-7.2c0-4.4,3-7.5,7.6-7.5c1.5,0,2.9,0.4,3.6,0.7l-0.6,2
			c-0.6-0.4-1.6-0.7-3-0.7c-3.2,0-5,2.4-5,5.4c0,3.3,2.1,5.3,4.9,5.3c1.5,0,2.4-0.4,3.2-0.7L181.2,438.9z"/>
		<path class="st0" d="M183.9,418.6h2.6v8.8h0.1c0.4-0.7,1.1-1.4,1.8-1.8c0.8-0.4,1.7-0.7,2.6-0.7c1.9,0,4.9,1.2,4.9,6.1v8.4h-2.6
			v-8.1c0-2.3-0.8-4.2-3.3-4.2c-1.7,0-3,1.2-3.5,2.6c-0.1,0.4-0.2,0.7-0.2,1.2v8.5h-2.6V418.6z"/>
		<path class="st0" d="M207.7,439.4l-0.2-1.8h-0.1c-0.8,1.1-2.3,2.1-4.3,2.1c-2.9,0-4.3-2-4.3-4.1c0-3.4,3-5.3,8.5-5.3v-0.3
			c0-1.2-0.3-3.3-3.2-3.3c-1.3,0-2.7,0.4-3.7,1.1l-0.6-1.7c1.2-0.8,2.9-1.3,4.7-1.3c4.3,0,5.4,3,5.4,5.8v5.3c0,1.2,0.1,2.4,0.2,3.4
			H207.7z M207.3,432.2c-2.8-0.1-6,0.4-6,3.2c0,1.7,1.1,2.5,2.4,2.5c1.8,0,3-1.2,3.4-2.4c0.1-0.3,0.1-0.6,0.1-0.8V432.2z"/>
		<path class="st0" d="M213.6,429.7c0-1.7,0-3.1-0.1-4.4h2.3l0.1,2.8h0.1c0.6-1.9,2.2-3.1,3.9-3.1c0.3,0,0.5,0,0.7,0.1v2.4
			c-0.3-0.1-0.5-0.1-0.9-0.1c-1.8,0-3.1,1.4-3.5,3.3c-0.1,0.4-0.1,0.8-0.1,1.2v7.5h-2.5V429.7z"/>
		<path class="st0" d="M234.9,425.2c-0.1,1-0.1,2.2-0.1,3.9v8.2c0,3.2-0.6,5.2-2,6.5c-1.4,1.3-3.4,1.7-5.1,1.7
			c-1.7,0-3.6-0.4-4.7-1.2l0.6-2c0.9,0.6,2.4,1.1,4.2,1.1c2.6,0,4.6-1.4,4.6-4.9V437h-0.1c-0.8,1.3-2.3,2.4-4.5,2.4
			c-3.5,0-6-3-6-6.9c0-4.8,3.1-7.5,6.4-7.5c2.5,0,3.8,1.3,4.4,2.5h0.1l0.1-2.1H234.9z M232.2,430.8c0-0.4,0-0.8-0.1-1.2
			c-0.5-1.5-1.7-2.7-3.6-2.7c-2.5,0-4.2,2.1-4.2,5.4c0,2.8,1.4,5.1,4.2,5.1c1.6,0,3-1,3.6-2.6c0.1-0.4,0.2-0.9,0.2-1.4V430.8z"/>
		<path class="st0" d="M240.2,432.8c0.1,3.5,2.3,4.9,4.9,4.9c1.8,0,3-0.3,3.9-0.7l0.4,1.8c-0.9,0.4-2.5,0.9-4.7,0.9
			c-4.4,0-7-2.9-7-7.1c0-4.3,2.5-7.6,6.6-7.6c4.6,0,5.8,4.1,5.8,6.7c0,0.5-0.1,0.9-0.1,1.2H240.2z M247.7,430.9
			c0-1.6-0.7-4.2-3.6-4.2c-2.6,0-3.7,2.4-3.9,4.2H247.7z"/>
		<path class="st0" d="M252.7,436.8c0.8,0.5,2.1,1,3.4,1c1.9,0,2.8-0.9,2.8-2.1c0-1.2-0.7-1.9-2.6-2.6c-2.5-0.9-3.7-2.3-3.7-4
			c0-2.3,1.8-4.2,4.9-4.2c1.4,0,2.7,0.4,3.5,0.9l-0.6,1.9c-0.6-0.4-1.6-0.8-2.9-0.8c-1.5,0-2.4,0.9-2.4,1.9c0,1.2,0.8,1.7,2.7,2.4
			c2.5,0.9,3.7,2.2,3.7,4.3c0,2.5-1.9,4.2-5.3,4.2c-1.5,0-3-0.4-4-1L252.7,436.8z"/>
		<path class="st0" d="M273.4,421.2v4.1h3.7v2h-3.7v7.6c0,1.8,0.5,2.7,1.9,2.7c0.7,0,1.2-0.1,1.5-0.2l0.1,1.9
			c-0.5,0.2-1.3,0.3-2.3,0.3c-1.2,0-2.2-0.4-2.8-1.1c-0.7-0.8-1-2-1-3.7v-7.7h-2.2v-2h2.2v-3.4L273.4,421.2z"/>
		<path class="st0" d="M279.7,418.6h2.6v8.8h0.1c0.4-0.7,1.1-1.4,1.8-1.8c0.8-0.4,1.7-0.7,2.6-0.7c1.9,0,4.9,1.2,4.9,6.1v8.4h-2.6
			v-8.1c0-2.3-0.8-4.2-3.3-4.2c-1.7,0-3,1.2-3.5,2.6c-0.1,0.4-0.2,0.7-0.2,1.2v8.5h-2.6V418.6z"/>
		<path class="st0" d="M297,432.8c0.1,3.5,2.3,4.9,4.9,4.9c1.8,0,3-0.3,3.9-0.7l0.4,1.8c-0.9,0.4-2.5,0.9-4.7,0.9
			c-4.4,0-7-2.9-7-7.1c0-4.3,2.5-7.6,6.6-7.6c4.6,0,5.8,4.1,5.8,6.7c0,0.5-0.1,0.9-0.1,1.2H297z M304.6,430.9c0-1.6-0.7-4.2-3.6-4.2
			c-2.6,0-3.7,2.4-3.9,4.2H304.6z"/>
		<path class="st0" d="M327.7,435.5c0,1.5,0,2.7,0.1,3.9h-2.3l-0.1-2.3h-0.1c-0.7,1.1-2.2,2.6-4.7,2.6c-2.2,0-4.9-1.2-4.9-6.2v-8.3
			h2.6v7.8c0,2.7,0.8,4.5,3.2,4.5c1.7,0,2.9-1.2,3.4-2.3c0.1-0.4,0.2-0.8,0.2-1.3v-8.7h2.6V435.5z"/>
		<path class="st0" d="M331.4,436.8c0.8,0.5,2.1,1,3.4,1c1.9,0,2.8-0.9,2.8-2.1c0-1.2-0.7-1.9-2.6-2.6c-2.5-0.9-3.7-2.3-3.7-4
			c0-2.3,1.8-4.2,4.9-4.2c1.4,0,2.7,0.4,3.5,0.9l-0.6,1.9c-0.6-0.4-1.6-0.8-2.9-0.8c-1.5,0-2.4,0.9-2.4,1.9c0,1.2,0.8,1.7,2.7,2.4
			c2.5,0.9,3.7,2.2,3.7,4.3c0,2.5-1.9,4.2-5.3,4.2c-1.5,0-3-0.4-4-1L331.4,436.8z"/>
		<path class="st0" d="M344.4,432.8c0.1,3.5,2.3,4.9,4.9,4.9c1.8,0,3-0.3,3.9-0.7l0.4,1.8c-0.9,0.4-2.5,0.9-4.7,0.9
			c-4.4,0-7-2.9-7-7.1c0-4.3,2.5-7.6,6.6-7.6c4.6,0,5.8,4.1,5.8,6.7c0,0.5-0.1,0.9-0.1,1.2H344.4z M352,430.9c0-1.6-0.7-4.2-3.6-4.2
			c-2.6,0-3.7,2.4-3.9,4.2H352z"/>
		<path class="st0" d="M357.4,429.7c0-1.7,0-3.1-0.1-4.4h2.3l0.1,2.8h0.1c0.6-1.9,2.2-3.1,3.9-3.1c0.3,0,0.5,0,0.7,0.1v2.4
			c-0.3-0.1-0.5-0.1-0.9-0.1c-1.8,0-3.1,1.4-3.5,3.3c-0.1,0.4-0.1,0.8-0.1,1.2v7.5h-2.5V429.7z"/>
		<path class="st0" d="M7.6,477v-3c-1.7,0-3.5-0.6-4.5-1.3l0.7-2c1.1,0.7,2.6,1.3,4.2,1.3c2.1,0,3.5-1.2,3.5-2.9
			c0-1.6-1.1-2.6-3.3-3.5c-3-1.2-4.8-2.5-4.8-5.1c0-2.4,1.7-4.3,4.4-4.7v-3h1.8v2.8c1.8,0.1,3,0.5,3.8,1l-0.7,1.9
			c-0.6-0.4-1.8-1-3.7-1c-2.3,0-3.1,1.3-3.1,2.5c0,1.5,1.1,2.3,3.6,3.3c3,1.2,4.5,2.7,4.5,5.4c0,2.3-1.6,4.5-4.6,5v3H7.6z"/>
		<path class="st0" d="M29.8,464.8c0,6.5-2.4,10-6.6,10c-3.7,0-6.2-3.5-6.3-9.8c0-6.4,2.7-9.9,6.6-9.9
			C27.6,455.2,29.8,458.7,29.8,464.8z M19.5,465.1c0,4.9,1.5,7.7,3.9,7.7c2.6,0,3.9-3.1,3.9-7.9c0-4.7-1.2-7.7-3.9-7.7
			C21.2,457.2,19.5,459.9,19.5,465.1z"/>
		<path class="st0" d="M32.1,473c0-1.1,0.7-1.8,1.8-1.8s1.7,0.8,1.7,1.8c0,1.1-0.7,1.8-1.8,1.8C32.8,474.8,32.1,474,32.1,473z"/>
		<path class="st0" d="M50.3,464.8c0,6.5-2.4,10-6.6,10c-3.7,0-6.2-3.5-6.3-9.8c0-6.4,2.7-9.9,6.6-9.9
			C48,455.2,50.3,458.7,50.3,464.8z M40,465.1c0,4.9,1.5,7.7,3.9,7.7c2.6,0,3.9-3.1,3.9-7.9c0-4.7-1.2-7.7-3.9-7.7
			C41.6,457.2,40,459.9,40,465.1z"/>
		<path class="st0" d="M65,464.8c0,6.5-2.4,10-6.6,10c-3.7,0-6.2-3.5-6.3-9.8c0-6.4,2.7-9.9,6.6-9.9C62.7,455.2,65,458.7,65,464.8z
			 M54.7,465.1c0,4.9,1.5,7.7,3.9,7.7c2.6,0,3.9-3.1,3.9-7.9c0-4.7-1.2-7.7-3.9-7.7C56.3,457.2,54.7,459.9,54.7,465.1z"/>
		<path class="st0" d="M67.1,474.5v-1.6l2-2c4.9-4.6,7-7.1,7.1-9.9c0-1.9-0.9-3.7-3.8-3.7c-1.7,0-3.2,0.9-4,1.6l-0.8-1.8
			c1.3-1.1,3.2-1.9,5.4-1.9c4.1,0,5.8,2.8,5.8,5.5c0,3.5-2.5,6.3-6.5,10.2l-1.5,1.4v0.1h8.5v2.1H67.1z"/>
		<path class="st0" d="M83.3,472.7c0.6,0.1,1.2,0,2.1-0.1c1.5-0.2,2.9-0.8,4-1.8c1.3-1.1,2.2-2.8,2.5-5.1h-0.1c-1.1,1.3-2.6,2-4.5,2
			c-3.4,0-5.6-2.6-5.6-5.8c0-3.6,2.6-6.8,6.5-6.8c3.9,0,6.3,3.2,6.3,8c0,4.2-1.4,7.1-3.3,8.9c-1.5,1.4-3.5,2.3-5.5,2.5
			c-0.9,0.1-1.8,0.2-2.4,0.1V472.7z M84.3,461.7c0,2.4,1.4,4,3.7,4c1.7,0,3.1-0.8,3.7-2c0.1-0.2,0.2-0.5,0.2-0.9
			c0-3.2-1.2-5.7-3.9-5.7C85.8,457.1,84.3,459.1,84.3,461.7z"/>
		<path class="st0" d="M107.9,457.7h-7.2l-0.7,4.9c0.4-0.1,0.8-0.1,1.6-0.1c1.5,0,2.9,0.3,4.1,1c1.5,0.8,2.7,2.5,2.7,4.9
			c0,3.7-3,6.5-7.1,6.5c-2.1,0-3.8-0.6-4.7-1.2l0.6-2c0.8,0.5,2.3,1.1,4.1,1.1c2.4,0,4.5-1.6,4.5-4.1c0-2.5-1.7-4.2-5.5-4.2
			c-1.1,0-1.9,0.1-2.6,0.2l1.2-9.1h9.1V457.7z"/>
		<path class="st0" d="M118,465c0-1.8-0.1-3.3-0.1-4.6h2.3l0.1,2.4h0.1c1.1-1.7,2.7-2.7,5-2.7c3.4,0,6,2.9,6,7.2
			c0,5.1-3.1,7.6-6.4,7.6c-1.9,0-3.5-0.8-4.4-2.2h-0.1v7.7H118V465z M120.5,468.7c0,0.4,0.1,0.7,0.1,1.1c0.5,1.8,2,3,3.9,3
			c2.7,0,4.3-2.2,4.3-5.5c0-2.8-1.5-5.3-4.2-5.3c-1.8,0-3.4,1.3-3.9,3.2c-0.1,0.3-0.2,0.7-0.2,1.1V468.7z"/>
		<path class="st0" d="M135.8,467.9c0.1,3.5,2.3,4.9,4.9,4.9c1.8,0,3-0.3,3.9-0.7l0.4,1.8c-0.9,0.4-2.5,0.9-4.7,0.9
			c-4.4,0-7-2.9-7-7.1c0-4.3,2.5-7.6,6.6-7.6c4.6,0,5.8,4.1,5.8,6.7c0,0.5-0.1,0.9-0.1,1.2H135.8z M143.3,466c0-1.6-0.7-4.2-3.6-4.2
			c-2.6,0-3.7,2.4-3.9,4.2H143.3z"/>
		<path class="st0" d="M148.7,464.8c0-1.7,0-3.1-0.1-4.4h2.3l0.1,2.8h0.1c0.6-1.9,2.2-3.1,3.9-3.1c0.3,0,0.5,0,0.7,0.1v2.4
			c-0.3-0.1-0.5-0.1-0.9-0.1c-1.8,0-3.1,1.4-3.5,3.3c-0.1,0.4-0.1,0.8-0.1,1.2v7.5h-2.5V464.8z"/>
		<path class="st0" d="M176.1,460.3c-0.1,1-0.1,2.2-0.1,3.9v8.2c0,3.2-0.6,5.2-2,6.5c-1.4,1.3-3.4,1.7-5.1,1.7
			c-1.7,0-3.6-0.4-4.7-1.2l0.6-2c0.9,0.6,2.4,1.1,4.2,1.1c2.6,0,4.6-1.4,4.6-4.9v-1.6h-0.1c-0.8,1.3-2.3,2.4-4.5,2.4
			c-3.5,0-6-3-6-6.9c0-4.8,3.1-7.5,6.4-7.5c2.5,0,3.8,1.3,4.4,2.5h0.1l0.1-2.1H176.1z M173.4,465.9c0-0.4,0-0.8-0.1-1.2
			c-0.5-1.5-1.7-2.7-3.6-2.7c-2.5,0-4.2,2.1-4.2,5.4c0,2.8,1.4,5.1,4.2,5.1c1.6,0,3-1,3.6-2.6c0.1-0.4,0.2-0.9,0.2-1.4V465.9z"/>
		<path class="st0" d="M187.8,474.5l-0.2-1.8h-0.1c-0.8,1.1-2.3,2.1-4.3,2.1c-2.9,0-4.3-2-4.3-4.1c0-3.4,3-5.3,8.5-5.3v-0.3
			c0-1.2-0.3-3.3-3.2-3.3c-1.3,0-2.7,0.4-3.7,1.1l-0.6-1.7c1.2-0.8,2.9-1.3,4.7-1.3c4.3,0,5.4,3,5.4,5.8v5.3c0,1.2,0.1,2.4,0.2,3.4
			H187.8z M187.4,467.3c-2.8-0.1-6,0.4-6,3.2c0,1.7,1.1,2.5,2.4,2.5c1.8,0,3-1.2,3.4-2.4c0.1-0.3,0.1-0.6,0.1-0.8V467.3z"/>
		<path class="st0" d="M193.7,453.7h2.6v20.8h-2.6V453.7z"/>
		<path class="st0" d="M200.3,453.7h2.6v20.8h-2.6V453.7z"/>
		<path class="st0" d="M219.8,467.3c0,5.2-3.6,7.5-7,7.5c-3.8,0-6.8-2.8-6.8-7.3c0-4.7,3.1-7.5,7-7.5C217,460,219.8,463,219.8,467.3
			z M208.5,467.4c0,3.1,1.8,5.4,4.3,5.4c2.5,0,4.3-2.3,4.3-5.5c0-2.4-1.2-5.4-4.2-5.4C209.8,461.9,208.5,464.8,208.5,467.4z"/>
		<path class="st0" d="M222.7,464.2c0-1.5,0-2.7-0.1-3.8h2.3l0.1,2.3h0.1c0.7-1.3,2.3-2.7,4.7-2.7c2,0,5,1.2,5,6v8.4h-2.6v-8.2
			c0-2.3-0.8-4.2-3.3-4.2c-1.7,0-3,1.2-3.5,2.6c-0.1,0.3-0.2,0.8-0.2,1.2v8.5h-2.6V464.2z"/>
		<path class="st0" d="M250.2,454.2c-2.1,2.9-3.7,6.7-3.7,12c0,5.2,1.6,8.9,3.7,11.9h-2c-1.8-2.4-3.8-6.2-3.8-11.9
			c0-5.8,2-9.5,3.8-12H250.2z"/>
		<path class="st0" d="M251.9,468.4c-0.1-2.9,1.5-4.4,3.5-4.4c1.2,0,2.2,0.4,4.1,1.3c1.5,0.7,2.6,1.2,3.7,1.2c1.1,0,1.5-0.8,1.6-2.5
			h1.8c0.1,3.3-1.5,4.4-3.4,4.4c-1.2,0-2.2-0.3-4.2-1.3c-1.4-0.7-2.5-1.3-3.5-1.3c-1.1,0-1.7,0.7-1.8,2.5H251.9z"/>
		<path class="st0" d="M269.5,471.5c0.7,0.5,2.4,1.2,4.2,1.2c3.3,0,4.3-2.1,4.3-3.7c0-2.7-2.4-3.8-4.9-3.8h-1.4v-1.9h1.4
			c1.9,0,4.2-1,4.2-3.2c0-1.5-1-2.9-3.3-2.9c-1.5,0-3,0.7-3.8,1.3l-0.7-1.9c1-0.7,2.9-1.5,5-1.5c3.7,0,5.4,2.2,5.4,4.5
			c0,2-1.2,3.6-3.5,4.5v0.1c2.3,0.5,4.2,2.2,4.2,4.9c0,3-2.4,5.7-6.9,5.7c-2.1,0-4-0.7-4.9-1.3L269.5,471.5z"/>
		<path class="st0" d="M300.4,474c-0.7,0.4-2.2,0.8-4.1,0.8c-4.3,0-7-2.9-7-7.2c0-4.4,3-7.5,7.6-7.5c1.5,0,2.9,0.4,3.6,0.7l-0.6,2
			c-0.6-0.4-1.6-0.7-3-0.7c-3.2,0-5,2.4-5,5.4c0,3.3,2.1,5.3,4.9,5.3c1.5,0,2.4-0.4,3.2-0.7L300.4,474z"/>
		<path class="st0" d="M304.4,467.9c0.1,3.5,2.3,4.9,4.9,4.9c1.8,0,3-0.3,3.9-0.7l0.4,1.8c-0.9,0.4-2.5,0.9-4.7,0.9
			c-4.4,0-7-2.9-7-7.1c0-4.3,2.5-7.6,6.6-7.6c4.6,0,5.8,4.1,5.8,6.7c0,0.5-0.1,0.9-0.1,1.2H304.4z M312,466c0-1.6-0.7-4.2-3.6-4.2
			c-2.6,0-3.7,2.4-3.9,4.2H312z"/>
		<path class="st0" d="M317.3,464.2c0-1.5,0-2.7-0.1-3.8h2.3l0.1,2.3h0.1c0.7-1.3,2.3-2.7,4.7-2.7c2,0,5,1.2,5,6v8.4h-2.6v-8.2
			c0-2.3-0.8-4.2-3.3-4.2c-1.7,0-3,1.2-3.5,2.6c-0.1,0.3-0.2,0.8-0.2,1.2v8.5h-2.6V464.2z"/>
		<path class="st0" d="M336.3,456.3v4.1h3.7v2h-3.7v7.6c0,1.8,0.5,2.7,1.9,2.7c0.7,0,1.2-0.1,1.5-0.2l0.1,1.9
			c-0.5,0.2-1.3,0.3-2.3,0.3c-1.2,0-2.2-0.4-2.8-1.1c-0.7-0.8-1-2-1-3.7v-7.7h-2.2v-2h2.2v-3.4L336.3,456.3z"/>
		<path class="st0" d="M342.2,471.9c0.8,0.5,2.1,1,3.4,1c1.9,0,2.8-0.9,2.8-2.1c0-1.2-0.7-1.9-2.6-2.6c-2.5-0.9-3.7-2.3-3.7-4
			c0-2.3,1.8-4.2,4.9-4.2c1.4,0,2.7,0.4,3.5,0.9l-0.6,1.9c-0.6-0.4-1.6-0.8-2.9-0.8c-1.5,0-2.4,0.9-2.4,1.9c0,1.2,0.8,1.7,2.7,2.4
			c2.5,0.9,3.7,2.2,3.7,4.3c0,2.5-1.9,4.2-5.3,4.2c-1.5,0-3-0.4-4-1L342.2,471.9z"/>
		<path class="st0" d="M3.6,509.6v-12.2h-2v-2h2v-0.7c0-2,0.4-3.8,1.6-4.9c1-0.9,2.3-1.3,3.5-1.3c0.9,0,1.7,0.2,2.2,0.4l-0.4,2
			c-0.4-0.2-0.9-0.3-1.6-0.3c-2.2,0-2.7,1.9-2.7,4.1v0.8h3.4v2H6.1v12.2H3.6z"/>
		<path class="st0" d="M22.8,502.4c0,5.2-3.6,7.5-7,7.5c-3.8,0-6.8-2.8-6.8-7.3c0-4.7,3.1-7.5,7-7.5
			C20.1,495.1,22.8,498.1,22.8,502.4z M11.6,502.5c0,3.1,1.8,5.4,4.3,5.4c2.5,0,4.3-2.3,4.3-5.5c0-2.4-1.2-5.4-4.2-5.4
			C12.9,497,11.6,499.9,11.6,502.5z"/>
		<path class="st0" d="M24.6,499.9c0-1.7,0-3.1-0.1-4.4h2.3l0.1,2.8H27c0.6-1.9,2.2-3.1,3.9-3.1c0.3,0,0.5,0,0.7,0.1v2.4
			c-0.3-0.1-0.5-0.1-0.9-0.1c-1.8,0-3.1,1.4-3.5,3.3c-0.1,0.4-0.1,0.8-0.1,1.2v7.5h-2.5V499.9z"/>
		<path class="st0" d="M38.9,503c0.1,3.5,2.3,4.9,4.9,4.9c1.8,0,3-0.3,3.9-0.7l0.4,1.8c-0.9,0.4-2.5,0.9-4.7,0.9c-4.4,0-7-2.9-7-7.1
			c0-4.3,2.5-7.6,6.6-7.6c4.6,0,5.8,4.1,5.8,6.7c0,0.5-0.1,0.9-0.1,1.2H38.9z M46.4,501.1c0-1.6-0.7-4.2-3.6-4.2
			c-2.6,0-3.7,2.4-3.9,4.2H46.4z"/>
		<path class="st0" d="M51.6,495.4l2.8,7.9c0.5,1.3,0.8,2.5,1.1,3.6h0.1c0.3-1.2,0.7-2.3,1.2-3.6l2.7-7.9h2.7l-5.6,14.1h-2.5
			l-5.4-14.1H51.6z"/>
		<path class="st0" d="M64.4,503c0.1,3.5,2.3,4.9,4.9,4.9c1.8,0,3-0.3,3.9-0.7l0.4,1.8c-0.9,0.4-2.5,0.9-4.7,0.9c-4.4,0-7-2.9-7-7.1
			c0-4.3,2.5-7.6,6.6-7.6c4.6,0,5.8,4.1,5.8,6.7c0,0.5-0.1,0.9-0.1,1.2H64.4z M71.9,501.1c0-1.6-0.7-4.2-3.6-4.2
			c-2.6,0-3.7,2.4-3.9,4.2H71.9z"/>
		<path class="st0" d="M76.1,499.9c0-1.7,0-3.1-0.1-4.4h2.3l0.1,2.8h0.1c0.6-1.9,2.2-3.1,3.9-3.1c0.3,0,0.5,0,0.7,0.1v2.4
			c-0.3-0.1-0.5-0.1-0.9-0.1c-1.8,0-3.1,1.4-3.5,3.3c-0.1,0.4-0.1,0.8-0.1,1.2v7.5h-2.5V499.9z"/>
		<path class="st0" d="M85.9,495.4l3.1,8.4c0.3,0.9,0.7,2,0.9,2.9H90c0.3-0.8,0.6-1.9,0.9-3l2.8-8.3h2.7l-3.9,10.1
			c-1.8,4.9-3.1,7.3-4.9,8.9c-1.3,1.1-2.5,1.6-3.2,1.7l-0.6-2.2c0.6-0.2,1.5-0.6,2.3-1.3c0.7-0.6,1.6-1.5,2.2-2.9
			c0.1-0.3,0.2-0.5,0.2-0.6c0-0.1-0.1-0.3-0.2-0.7l-5.2-13H85.9z"/>
		<path class="st0" d="M106.8,493L106.8,493l-3.4,1.8l-0.5-2l4.2-2.2h2.2v19h-2.5V493z"/>
		<path class="st0" d="M127.4,499.9c0,6.5-2.4,10-6.6,10c-3.7,0-6.2-3.5-6.3-9.8c0-6.4,2.7-9.9,6.6-9.9
			C125.1,490.3,127.4,493.8,127.4,499.9z M117.1,500.2c0,4.9,1.5,7.7,3.9,7.7c2.6,0,3.9-3.1,3.9-7.9c0-4.7-1.2-7.7-3.9-7.7
			C118.7,492.3,117.1,495,117.1,500.2z"/>
		<path class="st0" d="M146.1,495.4c-0.1,1-0.1,2.2-0.1,3.9v8.2c0,3.2-0.6,5.2-2,6.5c-1.4,1.3-3.4,1.7-5.1,1.7
			c-1.7,0-3.6-0.4-4.7-1.2l0.6-2c0.9,0.6,2.4,1.1,4.2,1.1c2.6,0,4.6-1.4,4.6-4.9v-1.6h-0.1c-0.8,1.3-2.3,2.4-4.5,2.4
			c-3.5,0-6-3-6-6.9c0-4.8,3.1-7.5,6.4-7.5c2.5,0,3.8,1.3,4.4,2.5h0.1l0.1-2.1H146.1z M143.4,501c0-0.4,0-0.8-0.1-1.2
			c-0.5-1.5-1.7-2.7-3.6-2.7c-2.5,0-4.2,2.1-4.2,5.4c0,2.8,1.4,5.1,4.2,5.1c1.6,0,3-1,3.6-2.6c0.1-0.4,0.2-0.9,0.2-1.4V501z"/>
		<path class="st0" d="M156.6,509.6l-0.2-1.8h-0.1c-0.8,1.1-2.3,2.1-4.3,2.1c-2.9,0-4.3-2-4.3-4.1c0-3.4,3-5.3,8.5-5.3v-0.3
			c0-1.2-0.3-3.3-3.2-3.3c-1.3,0-2.7,0.4-3.7,1.1l-0.6-1.7c1.2-0.8,2.9-1.3,4.7-1.3c4.3,0,5.4,3,5.4,5.8v5.3c0,1.2,0.1,2.4,0.2,3.4
			H156.6z M156.2,502.4c-2.8-0.1-6,0.4-6,3.2c0,1.7,1.1,2.5,2.4,2.5c1.8,0,3-1.2,3.4-2.4c0.1-0.3,0.1-0.6,0.1-0.8V502.4z"/>
		<path class="st0" d="M161.4,488.8h2.6v20.8h-2.6V488.8z"/>
		<path class="st0" d="M166.8,488.8h2.6v20.8h-2.6V488.8z"/>
		<path class="st0" d="M185.1,502.4c0,5.2-3.6,7.5-7,7.5c-3.8,0-6.8-2.8-6.8-7.3c0-4.7,3.1-7.5,7-7.5
			C182.3,495.1,185.1,498.1,185.1,502.4z M173.8,502.5c0,3.1,1.8,5.4,4.3,5.4c2.5,0,4.3-2.3,4.3-5.5c0-2.4-1.2-5.4-4.2-5.4
			C175.2,497,173.8,499.9,173.8,502.5z"/>
		<path class="st0" d="M186.9,499.3c0-1.5,0-2.7-0.1-3.8h2.3l0.1,2.3h0.1c0.7-1.3,2.3-2.7,4.7-2.7c2,0,5,1.2,5,6v8.4h-2.6v-8.2
			c0-2.3-0.8-4.2-3.3-4.2c-1.7,0-3,1.2-3.5,2.6c-0.1,0.3-0.2,0.8-0.2,1.2v8.5h-2.6V499.3z"/>
		<path class="st0" d="M201.3,507c0.8,0.5,2.1,1,3.4,1c1.9,0,2.8-0.9,2.8-2.1c0-1.2-0.7-1.9-2.6-2.6c-2.5-0.9-3.7-2.3-3.7-4
			c0-2.3,1.8-4.2,4.9-4.2c1.4,0,2.7,0.4,3.5,0.9l-0.6,1.9c-0.6-0.4-1.6-0.8-2.9-0.8c-1.5,0-2.4,0.9-2.4,1.9c0,1.2,0.8,1.7,2.7,2.4
			c2.5,0.9,3.7,2.2,3.7,4.3c0,2.5-1.9,4.2-5.3,4.2c-1.5,0-3-0.4-4-1L201.3,507z"/>
		<path class="st0" d="M210.2,513.1c2.1-2.9,3.7-6.7,3.7-12c0-5.2-1.6-9-3.7-11.9h2c1.9,2.4,3.8,6.1,3.8,11.9c0,5.7-2,9.4-3.8,11.9
			H210.2z"/>
		<path class="st0" d="M235.2,505.7c0,1.5,0,2.7,0.1,3.9H233l-0.1-2.3h-0.1c-0.7,1.1-2.2,2.6-4.7,2.6c-2.2,0-4.9-1.2-4.9-6.2v-8.3
			h2.6v7.8c0,2.7,0.8,4.5,3.2,4.5c1.7,0,2.9-1.2,3.4-2.3c0.1-0.4,0.2-0.8,0.2-1.3v-8.7h2.6V505.7z"/>
		<path class="st0" d="M238.4,507c0.8,0.5,2.1,1,3.4,1c1.9,0,2.8-0.9,2.8-2.1c0-1.2-0.7-1.9-2.6-2.6c-2.5-0.9-3.7-2.3-3.7-4
			c0-2.3,1.8-4.2,4.9-4.2c1.4,0,2.7,0.4,3.5,0.9l-0.6,1.9c-0.6-0.4-1.6-0.8-2.9-0.8c-1.5,0-2.4,0.9-2.4,1.9c0,1.2,0.8,1.7,2.7,2.4
			c2.5,0.9,3.7,2.2,3.7,4.3c0,2.5-1.9,4.2-5.3,4.2c-1.5,0-3-0.4-4-1L238.4,507z"/>
		<path class="st0" d="M251,503c0.1,3.5,2.3,4.9,4.9,4.9c1.8,0,3-0.3,3.9-0.7l0.4,1.8c-0.9,0.4-2.5,0.9-4.7,0.9c-4.4,0-7-2.9-7-7.1
			c0-4.3,2.5-7.6,6.6-7.6c4.6,0,5.8,4.1,5.8,6.7c0,0.5-0.1,0.9-0.1,1.2H251z M258.5,501.1c0-1.6-0.7-4.2-3.6-4.2
			c-2.6,0-3.7,2.4-3.9,4.2H258.5z"/>
		<path class="st0" d="M275.7,488.8v17.1c0,1.3,0,2.7,0.1,3.7h-2.3l-0.1-2.5h-0.1c-0.8,1.6-2.5,2.8-4.8,2.8c-3.4,0-6.1-2.9-6.1-7.2
			c0-4.7,2.9-7.6,6.3-7.6c2.2,0,3.6,1,4.3,2.2h0.1v-8.4H275.7z M273.1,501.2c0-0.3,0-0.8-0.1-1.1c-0.4-1.6-1.8-3-3.7-3
			c-2.7,0-4.2,2.3-4.2,5.5c0,2.9,1.4,5.2,4.2,5.2c1.7,0,3.3-1.1,3.8-3.1c0.1-0.3,0.1-0.7,0.1-1.1V501.2z"/>
		<path class="st0" d="M297,488.8v17.1c0,1.3,0,2.7,0.1,3.7h-2.3l-0.1-2.5h-0.1c-0.8,1.6-2.5,2.8-4.8,2.8c-3.4,0-6.1-2.9-6.1-7.2
			c0-4.7,2.9-7.6,6.3-7.6c2.2,0,3.6,1,4.3,2.2h0.1v-8.4H297z M294.4,501.2c0-0.3,0-0.8-0.1-1.1c-0.4-1.6-1.8-3-3.7-3
			c-2.7,0-4.2,2.3-4.2,5.5c0,2.9,1.4,5.2,4.2,5.2c1.7,0,3.3-1.1,3.8-3.1c0.1-0.3,0.1-0.7,0.1-1.1V501.2z"/>
		<path class="st0" d="M312.3,505.7c0,1.5,0,2.7,0.1,3.9h-2.3l-0.1-2.3H310c-0.7,1.1-2.2,2.6-4.7,2.6c-2.2,0-4.9-1.2-4.9-6.2v-8.3
			h2.6v7.8c0,2.7,0.8,4.5,3.2,4.5c1.7,0,2.9-1.2,3.4-2.3c0.1-0.4,0.2-0.8,0.2-1.3v-8.7h2.6V505.7z"/>
		<path class="st0" d="M315.9,499.9c0-1.7,0-3.1-0.1-4.4h2.3l0.1,2.8h0.1c0.6-1.9,2.2-3.1,3.9-3.1c0.3,0,0.5,0,0.7,0.1v2.4
			c-0.3-0.1-0.5-0.1-0.9-0.1c-1.8,0-3.1,1.4-3.5,3.3c-0.1,0.4-0.1,0.8-0.1,1.2v7.5h-2.5V499.9z"/>
		<path class="st0" d="M327.7,491.5c0,0.9-0.6,1.6-1.6,1.6c-0.9,0-1.5-0.7-1.5-1.6c0-0.9,0.7-1.6,1.6-1.6
			C327.1,489.9,327.7,490.6,327.7,491.5z M324.8,509.6v-14.1h2.6v14.1H324.8z"/>
		<path class="st0" d="M330.9,499.3c0-1.5,0-2.7-0.1-3.8h2.3l0.1,2.3h0.1c0.7-1.3,2.3-2.7,4.7-2.7c2,0,5,1.2,5,6v8.4h-2.6v-8.2
			c0-2.3-0.8-4.2-3.3-4.2c-1.7,0-3,1.2-3.5,2.6c-0.1,0.3-0.2,0.8-0.2,1.2v8.5h-2.6V499.3z"/>
		<path class="st0" d="M358.6,495.4c-0.1,1-0.1,2.2-0.1,3.9v8.2c0,3.2-0.6,5.2-2,6.5c-1.4,1.3-3.4,1.7-5.1,1.7
			c-1.7,0-3.6-0.4-4.7-1.2l0.6-2c0.9,0.6,2.4,1.1,4.2,1.1c2.6,0,4.6-1.4,4.6-4.9v-1.6h-0.1c-0.8,1.3-2.3,2.4-4.5,2.4
			c-3.5,0-6-3-6-6.9c0-4.8,3.1-7.5,6.4-7.5c2.5,0,3.8,1.3,4.4,2.5h0.1l0.1-2.1H358.6z M356,501c0-0.4,0-0.8-0.1-1.2
			c-0.5-1.5-1.7-2.7-3.6-2.7c-2.5,0-4.2,2.1-4.2,5.4c0,2.8,1.4,5.1,4.2,5.1c1.6,0,3-1,3.6-2.6c0.1-0.4,0.2-0.9,0.2-1.4V501z"/>
		<path class="st0" d="M6.4,526.5v4.1h3.7v2H6.4v7.6c0,1.8,0.5,2.7,1.9,2.7c0.7,0,1.2-0.1,1.5-0.2l0.1,1.9c-0.5,0.2-1.3,0.3-2.3,0.3
			c-1.2,0-2.2-0.4-2.8-1.1c-0.7-0.8-1-2-1-3.7v-7.7H1.7v-2h2.2v-3.4L6.4,526.5z"/>
		<path class="st0" d="M12.3,523.9h2.6v8.8h0.1c0.4-0.7,1.1-1.4,1.8-1.8c0.8-0.4,1.7-0.7,2.6-0.7c1.9,0,4.9,1.2,4.9,6.1v8.4h-2.6
			v-8.1c0-2.3-0.8-4.2-3.3-4.2c-1.7,0-3,1.2-3.5,2.6c-0.1,0.4-0.2,0.7-0.2,1.2v8.5h-2.6V523.9z"/>
		<path class="st0" d="M29.2,538.1c0.1,3.5,2.3,4.9,4.9,4.9c1.8,0,3-0.3,3.9-0.7l0.4,1.8c-0.9,0.4-2.5,0.9-4.7,0.9
			c-4.4,0-7-2.9-7-7.1c0-4.3,2.5-7.6,6.6-7.6c4.6,0,5.8,4.1,5.8,6.7c0,0.5-0.1,0.9-0.1,1.2H29.2z M36.7,536.2c0-1.6-0.7-4.2-3.6-4.2
			c-2.6,0-3.7,2.4-3.9,4.2H36.7z"/>
		<path class="st0" d="M47,544.7c0.1-1,0.1-2.4,0.1-3.7v-17.1h2.5v8.9h0.1c0.9-1.6,2.5-2.6,4.8-2.6c3.5,0,6,2.9,6,7.2
			c0,5.1-3.2,7.6-6.3,7.6c-2,0-3.7-0.8-4.7-2.7h-0.1l-0.1,2.3H47z M49.7,539c0,0.3,0.1,0.6,0.1,0.9c0.5,1.8,2,3,3.9,3
			c2.7,0,4.3-2.2,4.3-5.4c0-2.8-1.5-5.3-4.2-5.3c-1.8,0-3.4,1.2-3.9,3.2c-0.1,0.3-0.1,0.6-0.1,1.1V539z"/>
		<path class="st0" d="M65.9,526.6c0,0.9-0.6,1.6-1.6,1.6c-0.9,0-1.5-0.7-1.5-1.6c0-0.9,0.7-1.6,1.6-1.6
			C65.3,525,65.9,525.7,65.9,526.6z M63.1,544.7v-14.1h2.6v14.1H63.1z"/>
		<path class="st0" d="M69.2,523.9h2.6v20.8h-2.6V523.9z"/>
		<path class="st0" d="M75.4,523.9h2.6v20.8h-2.6V523.9z"/>
		<path class="st0" d="M84.4,526.6c0,0.9-0.6,1.6-1.6,1.6c-0.9,0-1.5-0.7-1.5-1.6c0-0.9,0.7-1.6,1.6-1.6
			C83.8,525,84.4,525.7,84.4,526.6z M81.5,544.7v-14.1h2.6v14.1H81.5z"/>
		<path class="st0" d="M87.6,534.4c0-1.5,0-2.7-0.1-3.8h2.3l0.1,2.3H90c0.7-1.3,2.3-2.7,4.7-2.7c2,0,5,1.2,5,6v8.4h-2.6v-8.2
			c0-2.3-0.8-4.2-3.3-4.2c-1.7,0-3,1.2-3.5,2.6c-0.1,0.3-0.2,0.8-0.2,1.2v8.5h-2.6V534.4z"/>
		<path class="st0" d="M115.3,530.5c-0.1,1-0.1,2.2-0.1,3.9v8.2c0,3.2-0.6,5.2-2,6.5c-1.4,1.3-3.4,1.7-5.1,1.7
			c-1.7,0-3.6-0.4-4.7-1.2l0.6-2c0.9,0.6,2.4,1.1,4.2,1.1c2.6,0,4.6-1.4,4.6-4.9v-1.6h-0.1c-0.8,1.3-2.3,2.4-4.5,2.4
			c-3.5,0-6-3-6-6.9c0-4.8,3.1-7.5,6.4-7.5c2.5,0,3.8,1.3,4.4,2.5h0.1l0.1-2.1H115.3z M112.7,536.1c0-0.4,0-0.8-0.1-1.2
			c-0.5-1.5-1.7-2.7-3.6-2.7c-2.5,0-4.2,2.1-4.2,5.4c0,2.8,1.4,5.1,4.2,5.1c1.6,0,3-1,3.6-2.6c0.1-0.4,0.2-0.9,0.2-1.4V536.1z"/>
		<path class="st0" d="M124.2,535.2c0-1.8-0.1-3.3-0.1-4.6h2.3l0.1,2.4h0.1c1.1-1.7,2.7-2.7,5-2.7c3.4,0,6,2.9,6,7.2
			c0,5.1-3.1,7.6-6.4,7.6c-1.9,0-3.5-0.8-4.4-2.2h-0.1v7.7h-2.5V535.2z M126.8,538.9c0,0.4,0.1,0.7,0.1,1.1c0.5,1.8,2,3,3.9,3
			c2.7,0,4.3-2.2,4.3-5.5c0-2.8-1.5-5.3-4.2-5.3c-1.8,0-3.4,1.3-3.9,3.2c-0.1,0.3-0.2,0.7-0.2,1.1V538.9z"/>
		<path class="st0" d="M141.6,538.1c0.1,3.5,2.3,4.9,4.9,4.9c1.8,0,3-0.3,3.9-0.7l0.4,1.8c-0.9,0.4-2.5,0.9-4.7,0.9
			c-4.4,0-7-2.9-7-7.1c0-4.3,2.5-7.6,6.6-7.6c4.6,0,5.8,4.1,5.8,6.7c0,0.5-0.1,0.9-0.1,1.2H141.6z M149.1,536.2
			c0-1.6-0.7-4.2-3.6-4.2c-2.6,0-3.7,2.4-3.9,4.2H149.1z"/>
		<path class="st0" d="M154.1,535c0-1.7,0-3.1-0.1-4.4h2.3l0.1,2.8h0.1c0.6-1.9,2.2-3.1,3.9-3.1c0.3,0,0.5,0,0.7,0.1v2.4
			c-0.3-0.1-0.5-0.1-0.9-0.1c-1.8,0-3.1,1.4-3.5,3.3c-0.1,0.4-0.1,0.8-0.1,1.2v7.5h-2.5V535z"/>
		<path class="st0" d="M165.9,526.6c0,0.9-0.6,1.6-1.6,1.6c-0.9,0-1.5-0.7-1.5-1.6c0-0.9,0.7-1.6,1.6-1.6
			C165.3,525,165.9,525.7,165.9,526.6z M163,544.7v-14.1h2.6v14.1H163z"/>
		<path class="st0" d="M181.9,537.5c0,5.2-3.6,7.5-7,7.5c-3.8,0-6.8-2.8-6.8-7.3c0-4.7,3.1-7.5,7-7.5
			C179.2,530.2,181.9,533.2,181.9,537.5z M170.7,537.6c0,3.1,1.8,5.4,4.3,5.4c2.5,0,4.3-2.3,4.3-5.5c0-2.4-1.2-5.4-4.2-5.4
			C172,532.1,170.7,535,170.7,537.6z"/>
		<path class="st0" d="M196.7,523.9V541c0,1.3,0,2.7,0.1,3.7h-2.3l-0.1-2.5h-0.1c-0.8,1.6-2.5,2.8-4.8,2.8c-3.4,0-6.1-2.9-6.1-7.2
			c0-4.7,2.9-7.6,6.3-7.6c2.2,0,3.6,1,4.3,2.2h0.1v-8.4H196.7z M194.1,536.3c0-0.3,0-0.8-0.1-1.1c-0.4-1.6-1.8-3-3.7-3
			c-2.7,0-4.2,2.3-4.2,5.5c0,2.9,1.4,5.2,4.2,5.2c1.7,0,3.3-1.1,3.8-3.1c0.1-0.3,0.1-0.7,0.1-1.1V536.3z"/>
		<path class="st0" d="M199.3,543.2c0-1.1,0.7-1.8,1.8-1.8s1.7,0.8,1.7,1.8c0,1.1-0.7,1.8-1.8,1.8C200,545,199.3,544.2,199.3,543.2z
			"/>
	</g>
	<polyline class="st1" points="1.2,563.9 408.9,563.9 408.9,382.8 563.1,382.8 	"/>
	<rect x="503" y="1" class="st2" width="569.9" height="660"/>
	<rect x="517.3" y="361.5" class="st3" width="529.4" height="36.8"/>
	<rect x="517.3" y="314.7" class="st3" width="529.4" height="36.8"/>
	<rect x="536.4" y="473.1" class="st4" width="500.2" height="24.8"/>
	<rect x="883.8" y="31.5" class="st4" width="152.8" height="24.8"/>
	<rect x="536.4" y="268.4" class="st4" width="500.2" height="24.8"/>
	<rect x="536.4" y="513.1" class="st4" width="500.2" height="24.8"/>
	<rect x="536.4" y="553.1" class="st4" width="500.2" height="24.8"/>
	<rect x="536.4" y="593.1" class="st4" width="500.2" height="24.8"/>
</g>
<g>
	<g>
		<path class="st5" d="M538.7,75.2h8.3c4,0,6.3,2.5,6.3,5.6c0,2-1.2,3.4-3,4c3,0.7,4.4,2.7,4.4,5.4c0,3.8-2.7,6.7-7.2,6.7h-8.7V75.2
			z M546.6,83.1c1.4,0,2.4-0.8,2.4-2c0-1.2-0.8-2-2.2-2h-3.6v4.1H546.6z M547.2,92.9c1.8,0,3-1.2,3-3c0-1.7-1.2-3-3.2-3h-3.8v5.9
			H547.2z"/>
		<path class="st5" d="M558.2,75.2h4.4v21.6h-4.4V75.2z"/>
		<path class="st5" d="M567.2,75.2h4.4v17.7h9.8v3.9h-14.2V75.2z"/>
		<path class="st5" d="M585,75.2h4.4v17.7h9.8v3.9H585V75.2z"/>
		<path class="st5" d="M602.9,75.2h4.4v21.6h-4.4V75.2z"/>
		<path class="st5" d="M618.3,86.7c-1.1-1-2.6-3-2.6-3s0.3,2.4,0.3,3.9v9h-4.2V75h0.4l10.9,10.2c1,1,2.5,3,2.5,3s-0.3-2.4-0.3-3.9
			v-9h4.2V97h-0.4L618.3,86.7z"/>
		<path class="st5" d="M633.4,86c0-6.4,4.5-11,11-11c3.5,0,6.1,1,7.8,3l-3,3c-1.1-1.1-2.3-2-4.8-2c-3.9,0-6.4,3-6.4,7
			s2.6,7.1,7.1,7.1c1.4,0,3.1-0.3,4.2-0.8v-3.2h-5.2v-3.9h9.3v9.3c-1.2,1-4.3,2.5-8.3,2.5C638.1,97,633.4,92.4,633.4,86z"/>
		<path class="st5" d="M664.6,75.2h6.6c6.6,0,11.4,4.4,11.4,10.8s-4.7,10.8-11.4,10.8h-6.6V75.2z M671,92.9c4.8,0,7-2.9,7-6.9
			s-2.2-6.9-7-6.9h-2v13.8H671z"/>
		<path class="st5" d="M686.3,75.2h14.3v3.9h-9.8v6.9h8.7v3.8h-8.7v3.1H701v3.9h-14.7V75.2z"/>
		<path class="st5" d="M710.1,79.1h-6.2v-3.9h16.8v3.9h-6.2v17.7h-4.4V79.1z"/>
		<path class="st5" d="M728.8,75h0.4l9.9,21.8h-4.7l-1-2.4h-8.8l-1,2.4h-4.3L728.8,75z M731.8,90.6l-1.6-3.7
			c-0.6-1.5-1.3-3.9-1.3-3.9s-0.6,2.3-1.3,3.9l-1.6,3.7H731.8z"/>
		<path class="st5" d="M742.1,75.2h4.4v21.6h-4.4V75.2z"/>
		<path class="st5" d="M751.1,75.2h4.4v17.7h9.8v3.9h-14.2V75.2z"/>
		<path class="st4" d="M543.6,130.5h0.3l6.9,15.2h-3.3l-0.7-1.7h-6.1l-0.7,1.7h-3L543.6,130.5z M545.6,141.4l-1.1-2.6
			c-0.4-1.1-0.9-2.7-0.9-2.7s-0.4,1.6-0.9,2.7l-1.1,2.6H545.6z"/>
		<path class="st4" d="M552.8,130.5h0.2l7.4,8.2l7.3-8.2h0.3v15.2h-3v-5.7c0-1,0.1-2.6,0.1-2.6s-0.9,1.3-1.6,2.1l-3,3.4h-0.3l-3-3.4
			c-0.7-0.8-1.6-2.1-1.6-2.1s0.1,1.6,0.1,2.6v5.7h-3V130.5z"/>
		<path class="st4" d="M570.7,138.2c0-4.5,3.5-7.7,7.8-7.7c4.3,0,7.8,3.3,7.8,7.7s-3.5,7.7-7.8,7.7
			C574.1,145.9,570.7,142.6,570.7,138.2z M583.1,138.2c0-2.8-1.9-5-4.6-5c-2.7,0-4.6,2.2-4.6,5c0,2.8,1.9,5,4.6,5
			C581.2,143.1,583.1,141,583.1,138.2z"/>
		<path class="st4" d="M588.8,140.3v-9.6h3.1v9.5c0,2.2,1,3,3,3c2,0,3-0.8,3-3v-9.5h3.1v9.6c0,3.8-2.6,5.7-6.1,5.7
			C591.5,145.9,588.8,144.1,588.8,140.3z"/>
		<path class="st4" d="M608.6,138.7c-0.8-0.7-1.8-2.1-1.8-2.1s0.2,1.7,0.2,2.8v6.3h-2.9v-15.2h0.3l7.6,7.1c0.7,0.7,1.8,2.1,1.8,2.1
			s-0.2-1.7-0.2-2.8v-6.3h2.9v15.2h-0.3L608.6,138.7z"/>
		<path class="st4" d="M623.1,133.4h-4.3v-2.7h11.7v2.7h-4.3v12.4h-3.1V133.4z"/>
		<path class="st4" d="M637.2,138.2c0-4.5,3.5-7.7,7.8-7.7c4.3,0,7.8,3.3,7.8,7.7s-3.5,7.7-7.8,7.7
			C640.6,145.9,637.2,142.6,637.2,138.2z M649.6,138.2c0-2.8-1.9-5-4.6-5c-2.8,0-4.6,2.2-4.6,5c0,2.8,1.9,5,4.6,5
			C647.7,143.1,649.6,141,649.6,138.2z"/>
		<path class="st4" d="M653.3,130.6h3.3l2.2,6.1c0.4,1,0.8,2.7,0.8,2.7s0.4-1.7,0.9-2.7l2.9-6.2h0.3l3,6.2c0.5,1,0.9,2.7,0.9,2.7
			s0.4-1.7,0.8-2.7l2.2-6.1h3l-5.5,15.2h-0.3l-3.4-7.3c-0.4-0.8-0.8-2.2-0.8-2.2s-0.5,1.4-0.9,2.2l-3.5,7.3h-0.3L653.3,130.6z"/>
		<path class="st4" d="M675.7,130.6h10v2.7h-6.9v4.8h6.1v2.7h-6.1v2.2h7.2v2.7h-10.3V130.6z"/>
		<path class="st4" d="M688.8,130.6h4.6c4.6,0,7.9,3.1,7.9,7.5s-3.3,7.5-7.9,7.5h-4.6V130.6z M693.3,143c3.3,0,4.9-2,4.9-4.8
			c0-2.8-1.5-4.8-4.9-4.8h-1.4v9.6H693.3z"/>
		<path class="st4" d="M708.9,130.6h9.7v2.7H712v5h6v2.8h-6v4.6h-3.1V130.6z"/>
		<path class="st4" d="M732.4,145.7h-3.6l-2.5-3.8c-0.3,0-0.6,0.1-0.9,0.1h-1.1v3.7h-3.1v-15.1h4.2c4.2,0,6.7,2,6.7,5.7
			c0,2.4-1,3.8-2.9,4.7L732.4,145.7z M725.3,139.3c2.5,0,3.6-0.8,3.6-2.9c0-2.1-1.2-3-3.6-3h-1v5.9H725.3z"/>
		<path class="st4" d="M734.4,138.2c0-4.5,3.5-7.7,7.8-7.7c4.3,0,7.8,3.3,7.8,7.7s-3.5,7.7-7.8,7.7
			C737.8,145.9,734.4,142.6,734.4,138.2z M746.8,138.2c0-2.8-1.9-5-4.6-5c-2.7,0-4.6,2.2-4.6,5c0,2.8,1.9,5,4.6,5
			C744.9,143.1,746.8,141,746.8,138.2z"/>
		<path class="st4" d="M752.6,130.5h0.2l7.4,8.2l7.3-8.2h0.3v15.2h-3v-5.7c0-1,0.1-2.6,0.1-2.6s-0.9,1.3-1.6,2.1l-3,3.4h-0.3l-3-3.4
			c-0.7-0.8-1.6-2.1-1.6-2.1s0.1,1.6,0.1,2.6v5.7h-3V130.5z"/>
		<path class="st4" d="M775.9,130.6h3.1V143h6.8v2.7h-9.9V130.6z"/>
		<path class="st4" d="M793.9,130.5h0.3l6.9,15.2h-3.3l-0.7-1.7H791l-0.7,1.7h-3L793.9,130.5z M796,141.4l-1.1-2.6
			c-0.4-1.1-0.9-2.7-0.9-2.7s-0.4,1.6-0.9,2.7l-1.1,2.6H796z"/>
		<path class="st4" d="M801.7,142.7l2.5-1.5c0.7,1.1,1.5,1.9,3.1,1.9c1.3,0,2.1-0.6,2.1-1.5c0-1.1-0.8-1.4-2.3-2.1l-0.8-0.3
			c-2.2-1-3.7-2.2-3.7-4.7c0-2.3,1.8-4.1,4.5-4.1c2,0,3.4,0.7,4.4,2.5l-2.4,1.6c-0.5-1-1.1-1.3-2-1.3c-0.9,0-1.5,0.6-1.5,1.3
			c0,0.9,0.6,1.3,1.9,1.9l0.8,0.3c2.6,1.1,4.1,2.3,4.1,4.9c0,2.8-2.2,4.3-5.1,4.3C804.4,145.9,802.6,144.5,801.7,142.7z"/>
		<path class="st4" d="M817.9,133.4h-4.3v-2.7h11.7v2.7H821v12.4h-3.1V133.4z"/>
		<path class="st4" d="M832.5,130.6h5.8c2.8,0,4.4,1.8,4.4,3.9c0,1.4-0.8,2.4-2.1,2.8c2.1,0.5,3.1,1.9,3.1,3.7
			c0,2.7-1.9,4.7-5.1,4.7h-6.1V130.6z M838,136.2c1,0,1.7-0.6,1.7-1.4c0-0.9-0.6-1.4-1.5-1.4h-2.6v2.8H838z M838.4,143
			c1.3,0,2.1-0.8,2.1-2.1c0-1.2-0.8-2.1-2.2-2.1h-2.7v4.1H838.4z"/>
		<path class="st4" d="M846.1,130.6h3.1v15.1h-3.1V130.6z"/>
		<path class="st4" d="M852.4,130.6h3.1V143h6.8v2.7h-9.9V130.6z"/>
		<path class="st4" d="M864.8,130.6h3.1V143h6.8v2.7h-9.9V130.6z"/>
		<path class="st4" d="M967.5,143.2l2.2-1.2c0.4,0.7,1,1.4,2.3,1.6c0,0,0-2.6,0-2.6c-2.8-0.7-3.9-2-3.9-3.6c0-1.7,1.2-3.3,3.9-3.4
			v-2.2h1.5v2.3c1.7,0.3,2.8,1.2,3.4,2l-1.9,1.5c-0.2-0.4-0.7-0.8-1.5-1.1v2.2c2.7,0.6,4.1,1.9,4.1,3.7c0,2.2-1.3,3.5-4.1,3.6v2.4
			H972v-2.4C969.5,145.7,968.1,144.3,967.5,143.2z M970.9,137.1c0,0.5,0.2,0.8,1.2,1.1v-2C971.2,136.3,970.9,136.7,970.9,137.1z
			 M974.9,142.6c0-0.5-0.2-1-1.4-1.3v2.3C974.6,143.5,974.9,143,974.9,142.6z"/>
		<path class="st4" d="M980.7,136.6h-2.2v-2.5h5.3v11.6h-3V136.6z"/>
		<path class="st4" d="M985.6,144.9l2.6-1.4c0.5,1.3,1.4,1.8,2.6,1.8s2.2-0.8,2.2-2.3s-1.1-2.2-2.5-2.2c-1,0-1.5,0.2-1.9,0.4
			l-0.2-0.3l2.6-3.6c0.4-0.5,0.8-0.9,0.8-0.9s-0.7,0.1-1.4,0.1h-3.5v-2.5h9.1v0.2l-2.8,3.8c-0.3,0.4-0.6,0.7-0.6,0.7
			c1.9,0.4,3.6,1.9,3.6,4.3c0,2.5-1.8,4.9-5.3,4.9C988,148,986.4,146.6,985.6,144.9z"/>
		<path class="st4" d="M997.2,145.1l2.6-1.3c0.3,0.9,1,1.6,2.3,1.6c1.3,0,2-0.9,2-2c0-1.2-0.8-2.1-2.3-2.1c-1.3,0-2.3,0.6-3,1.1
			l-0.3-0.1v-8.1h7.5v2.5h-5.1v2.4c0.3-0.2,1-0.3,1.6-0.3c2.8,0,4.6,2.1,4.6,4.6c0,2.5-1.7,4.7-5.2,4.7
			C999.4,148,997.8,146.6,997.2,145.1z"/>
		<path class="st4" d="M1009,144c0-1.1,0.9-1.9,1.9-1.9c1,0,1.9,0.8,1.9,1.9c0,1.1-0.9,1.9-1.9,1.9
			C1009.8,145.9,1009,145.1,1009,144z"/>
		<path class="st4" d="M1014.4,141.5c0-1.8,1.1-3,2.6-3.6c-0.9-0.5-1.6-1.3-1.6-2.5c0-1.7,1.5-3.4,4.2-3.4c2.7,0,4.1,1.8,4.1,3.4
			c0,1.2-0.7,2-1.6,2.5c1.5,0.6,2.6,1.8,2.6,3.6c0,2.6-2.2,4.4-5.2,4.4C1016.6,145.9,1014.4,144.1,1014.4,141.5z M1021.7,141.3
			c0-1.1-0.8-2.1-2.1-2.1c-1.3,0-2.1,1-2.1,2.1c0,1.1,0.8,2,2.1,2C1020.9,143.3,1021.7,142.4,1021.7,141.3z M1020.8,135.7
			c0-0.7-0.5-1.2-1.2-1.2s-1.2,0.5-1.2,1.2c0,0.7,0.6,1.2,1.2,1.2S1020.8,136.4,1020.8,135.7z"/>
		<path class="st4" d="M1026.4,139.9c0-3.5,3-6,6.1-6c3.2,0,6.2,2.4,6.2,6c0,3.5-2.9,6-6.2,6
			C1029.3,145.9,1026.4,143.4,1026.4,139.9z M1035.5,139.9c0-2.1-1.3-3.3-3-3.3c-1.7,0-3,1.2-3,3.3c0,2.1,1.3,3.4,3,3.4
			C1034.2,143.3,1035.5,142,1035.5,139.9z"/>
		<path class="st4" d="M541.5,182.3h-4.3v-2.7h11.7v2.7h-4.3v12.4h-3.1V182.3z"/>
		<path class="st4" d="M549.8,187.1c0-4.5,3.5-7.7,7.8-7.7c4.3,0,7.8,3.3,7.8,7.7c0,4.5-3.5,7.7-7.8,7.7
			C553.2,194.9,549.8,191.6,549.8,187.1z M562.2,187.1c0-2.8-1.9-5-4.6-5c-2.8,0-4.6,2.2-4.6,5c0,2.8,1.9,5,4.6,5
			C560.3,192.1,562.2,190,562.2,187.1z"/>
		<path class="st4" d="M570.6,182.3h-4.3v-2.7H578v2.7h-4.3v12.4h-3.1V182.3z"/>
		<path class="st4" d="M583.7,179.5h0.3l6.9,15.2h-3.3l-0.7-1.7h-6.1l-0.7,1.7h-3L583.7,179.5z M585.8,190.4l-1.1-2.6
			c-0.4-1.1-0.9-2.7-0.9-2.7s-0.4,1.6-0.9,2.7l-1.1,2.6H585.8z"/>
		<path class="st4" d="M592.9,179.6h3.1v12.4h6.8v2.7h-9.9V179.6z"/>
		<path class="st4" d="M610.2,179.6h4.2c4.2,0,6.7,2.2,6.7,5.8c0,3.6-2.6,5.8-6.7,5.8h-1.1v3.4h-3.1V179.6z M614.3,188.5
			c2.5,0,3.6-1,3.6-3.1c0-2.1-1.2-3.1-3.6-3.1h-1v6.2H614.3z"/>
		<path class="st4" d="M627.4,179.5h0.3l6.9,15.2h-3.3l-0.7-1.7h-6.1l-0.7,1.7h-3L627.4,179.5z M629.5,190.4l-1.1-2.6
			c-0.4-1.1-0.9-2.7-0.9-2.7s-0.4,1.6-0.9,2.7l-1.1,2.6H629.5z"/>
		<path class="st4" d="M638.6,189.9l-5.7-10.3h3.4l2.7,4.9c0.6,1.1,1.2,2.9,1.2,2.9s0.6-1.8,1.2-2.9l2.6-4.9h3.2l-5.4,10.1v5h-3.1
			V189.9z"/>
		<path class="st4" d="M649.1,179.4h0.2l7.4,8.2l7.3-8.2h0.3v15.2h-3V189c0-1,0.1-2.6,0.1-2.6s-0.9,1.3-1.6,2.1l-3,3.4h-0.3l-3-3.4
			c-0.7-0.8-1.6-2.1-1.6-2.1s0.1,1.6,0.1,2.6v5.7h-3V179.4z"/>
		<path class="st4" d="M667.5,179.6h10v2.7h-6.9v4.8h6.1v2.7h-6.1v2.2h7.2v2.7h-10.3V179.6z"/>
		<path class="st4" d="M685.1,187.7c-0.8-0.7-1.8-2.1-1.8-2.1s0.2,1.7,0.2,2.8v6.3h-2.9v-15.2h0.3l7.6,7.1c0.7,0.7,1.8,2.1,1.8,2.1
			s-0.2-1.7-0.2-2.8v-6.3h2.9v15.2h-0.3L685.1,187.7z"/>
		<path class="st4" d="M699.6,182.3h-4.3v-2.7H707v2.7h-4.3v12.4h-3.1V182.3z"/>
		<path class="st4" d="M707.9,191.7l2.5-1.5c0.7,1.1,1.5,1.9,3.1,1.9c1.3,0,2.1-0.6,2.1-1.5c0-1.1-0.8-1.4-2.3-2.1l-0.8-0.3
			c-2.2-1-3.7-2.2-3.7-4.7c0-2.3,1.8-4.1,4.5-4.1c2,0,3.4,0.7,4.4,2.5l-2.4,1.6c-0.5-1-1.1-1.3-2-1.3c-0.9,0-1.5,0.6-1.5,1.3
			c0,0.9,0.6,1.3,1.9,1.9l0.8,0.3c2.6,1.1,4.1,2.3,4.1,4.9c0,2.8-2.2,4.3-5.1,4.3C710.7,194.9,708.8,193.5,707.9,191.7z"/>
		<path class="st4" d="M737.1,194.7h-3.6l-2.5-3.8c-0.3,0-0.6,0.1-0.9,0.1h-1.1v3.7H726v-15.1h4.2c4.2,0,6.7,2,6.7,5.7
			c0,2.4-1,3.8-2.9,4.7L737.1,194.7z M730.1,188.2c2.5,0,3.6-0.8,3.6-2.9c0-2.1-1.2-3-3.6-3h-1v5.9H730.1z"/>
		<path class="st4" d="M739.6,179.6h10v2.7h-6.9v4.8h6.1v2.7h-6.1v2.2h7.2v2.7h-10.3V179.6z"/>
		<path class="st4" d="M752.1,187.1c0-4.5,3.4-7.7,7.8-7.7c2.7,0,4.7,1,6,3.1l-2.4,1.7c-0.7-1.2-1.9-2-3.7-2c-2.7,0-4.6,2.1-4.6,4.9
			c0,2.8,1.8,5,4.6,5c2,0,3-0.9,3.9-2.2l2.4,1.7c-1.3,2-3.4,3.3-6.3,3.3C755.5,194.9,752.1,191.6,752.1,187.1z"/>
		<path class="st4" d="M768.4,179.6h10v2.7h-6.9v4.8h6.1v2.7h-6.1v2.2h7.2v2.7h-10.3V179.6z"/>
		<path class="st4" d="M781.7,179.6h3.1v15.1h-3.1V179.6z"/>
		<path class="st4" d="M786.8,179.6h3.3l2.6,5.8c0.6,1.3,1.2,3.4,1.2,3.4s0.6-2.1,1.2-3.4l2.5-5.8h3l-6.6,15.2h-0.3L786.8,179.6z"/>
		<path class="st4" d="M802.7,179.6h10v2.7h-6.9v4.8h6.1v2.7h-6.1v2.2h7.2v2.7h-10.3V179.6z"/>
		<path class="st4" d="M815.9,179.6h4.6c4.6,0,7.9,3.1,7.9,7.5c0,4.5-3.3,7.5-7.9,7.5h-4.6V179.6z M820.3,191.9c3.3,0,4.9-2,4.9-4.8
			c0-2.8-1.5-4.8-4.9-4.8H819v9.6H820.3z"/>
		<path class="st4" d="M965.1,185.6h-2.2v-2.5h5.3v11.6h-3V185.6z"/>
		<path class="st4" d="M970,193.9l2.6-1.4c0.5,1.3,1.4,1.8,2.6,1.8s2.2-0.8,2.2-2.3c0-1.4-1.1-2.2-2.5-2.2c-1,0-1.5,0.2-1.9,0.4
			l-0.2-0.3l2.6-3.6c0.4-0.5,0.8-0.9,0.8-0.9s-0.7,0.1-1.4,0.1h-3.5v-2.5h9.1v0.2l-2.8,3.8c-0.3,0.4-0.6,0.7-0.6,0.7
			c1.9,0.4,3.6,1.9,3.6,4.3c0,2.5-1.8,4.9-5.3,4.9C972.4,197,970.8,195.5,970,193.9z"/>
		<path class="st4" d="M981.6,194l2.6-1.3c0.3,0.9,1,1.6,2.3,1.6c1.3,0,2-0.9,2-2c0-1.2-0.8-2.1-2.3-2.1c-1.3,0-2.3,0.6-3,1.1
			l-0.3-0.1v-8.1h7.5v2.5h-5.1v2.4c0.3-0.2,1-0.3,1.6-0.3c2.8,0,4.6,2.1,4.6,4.6c0,2.5-1.7,4.7-5.2,4.7
			C983.9,197,982.2,195.5,981.6,194z"/>
		<path class="st4" d="M993.4,192.9c0-1.1,0.9-1.9,1.9-1.9c1,0,1.9,0.8,1.9,1.9c0,1.1-0.9,1.9-1.9,1.9
			C994.3,194.8,993.4,194,993.4,192.9z"/>
		<path class="st4" d="M998.8,190.5c0-1.8,1.1-3,2.6-3.6c-0.9-0.5-1.6-1.3-1.6-2.5c0-1.7,1.5-3.4,4.2-3.4c2.7,0,4.1,1.8,4.1,3.4
			c0,1.2-0.7,2-1.6,2.5c1.5,0.6,2.6,1.8,2.6,3.6c0,2.6-2.2,4.4-5.2,4.4C1001,194.9,998.8,193.1,998.8,190.5z M1006.1,190.2
			c0-1.1-0.8-2.1-2.1-2.1c-1.3,0-2.1,1-2.1,2.1s0.8,2,2.1,2C1005.3,192.2,1006.1,191.4,1006.1,190.2z M1005.2,184.6
			c0-0.7-0.5-1.2-1.2-1.2s-1.2,0.5-1.2,1.2c0,0.7,0.6,1.2,1.2,1.2S1005.2,185.3,1005.2,184.6z"/>
		<path class="st4" d="M1010.8,188.9c0-3.5,2.9-6,6.1-6c3.2,0,6.2,2.4,6.2,6c0,3.5-3,6-6.2,6
			C1013.7,194.9,1010.8,192.4,1010.8,188.9z M1019.9,188.9c0-2.1-1.3-3.3-3-3.3c-1.7,0-3,1.2-3,3.3c0,2.1,1.3,3.4,3,3.4
			C1018.6,192.2,1019.9,190.9,1019.9,188.9z"/>
		<path class="st4" d="M549.2,243.6h-3.6l-2.5-3.8c-0.3,0-0.6,0.1-0.9,0.1h-1.1v3.7H538v-15.1h4.2c4.2,0,6.7,2,6.7,5.7
			c0,2.4-1,3.8-2.9,4.7L549.2,243.6z M542.1,237.2c2.5,0,3.6-0.8,3.6-2.9c0-2.1-1.2-3-3.6-3h-1v5.9H542.1z"/>
		<path class="st4" d="M551.6,228.5h10v2.7h-6.9v4.8h6.1v2.7h-6.1v2.2h7.2v2.7h-10.3V228.5z"/>
		<path class="st4" d="M564.8,228.4h0.2l7.4,8.2l7.3-8.2h0.3v15.2h-3V238c0-1,0.1-2.6,0.1-2.6s-0.9,1.3-1.6,2.1l-3,3.4h-0.3l-3-3.4
			c-0.7-0.8-1.6-2.1-1.6-2.1s0.1,1.6,0.1,2.6v5.7h-3V228.4z"/>
		<path class="st4" d="M588.7,228.4h0.3l6.9,15.2h-3.3l-0.7-1.7h-6.1l-0.7,1.7h-3L588.7,228.4z M590.8,239.3l-1.1-2.6
			c-0.4-1.1-0.9-2.7-0.9-2.7s-0.4,1.6-0.9,2.7l-1.1,2.6H590.8z"/>
		<path class="st4" d="M598,228.5h3.1v15.1H598V228.5z"/>
		<path class="st4" d="M608.8,236.6c-0.8-0.7-1.8-2.1-1.8-2.1s0.2,1.7,0.2,2.8v6.3h-2.9v-15.2h0.3l7.6,7.1c0.7,0.7,1.8,2.1,1.8,2.1
			s-0.2-1.7-0.2-2.8v-6.3h2.9v15.2h-0.3L608.8,236.6z"/>
		<path class="st4" d="M619.9,228.5h3.1v15.1h-3.1V228.5z"/>
		<path class="st4" d="M630.7,236.6c-0.8-0.7-1.8-2.1-1.8-2.1s0.2,1.7,0.2,2.8v6.3h-2.9v-15.2h0.3l7.6,7.1c0.7,0.7,1.8,2.1,1.8,2.1
			s-0.2-1.7-0.2-2.8v-6.3h2.9v15.2h-0.3L630.7,236.6z"/>
		<path class="st4" d="M641.3,236.1c0-4.5,3.2-7.7,7.7-7.7c2.5,0,4.2,0.7,5.5,2.1l-2.1,2.1c-0.8-0.8-1.6-1.4-3.4-1.4
			c-2.7,0-4.5,2.1-4.5,4.9c0,2.8,1.8,5,5,5c1,0,2.2-0.2,2.9-0.6v-2.2h-3.6v-2.7h6.5v6.5c-0.9,0.7-3,1.8-5.8,1.8
			C644.5,243.8,641.3,240.5,641.3,236.1z"/>
		<path class="st4" d="M663.1,228.5h5.8c2.8,0,4.4,1.8,4.4,3.9c0,1.4-0.8,2.4-2.1,2.8c2.1,0.5,3.1,1.9,3.1,3.7
			c0,2.7-1.9,4.7-5.1,4.7h-6.1V228.5z M668.6,234.1c1,0,1.7-0.6,1.7-1.4c0-0.9-0.6-1.4-1.5-1.4h-2.6v2.8H668.6z M669,240.9
			c1.3,0,2.1-0.8,2.1-2.1c0-1.2-0.8-2.1-2.2-2.1h-2.7v4.1H669z"/>
		<path class="st4" d="M681.8,228.4h0.3l6.9,15.2h-3.3l-0.7-1.7h-6.1l-0.7,1.7h-3L681.8,228.4z M683.9,239.3l-1.1-2.6
			c-0.4-1.1-0.9-2.7-0.9-2.7s-0.4,1.6-0.9,2.7l-1.1,2.6H683.9z"/>
		<path class="st4" d="M691,228.5h3.1v12.4h6.8v2.7H691V228.5z"/>
		<path class="st4" d="M708.9,228.4h0.3l6.9,15.2h-3.3l-0.7-1.7H706l-0.7,1.7h-3L708.9,228.4z M711,239.3l-1.1-2.6
			c-0.4-1.1-0.9-2.7-0.9-2.7s-0.4,1.6-0.9,2.7l-1.1,2.6H711z"/>
		<path class="st4" d="M722.6,236.6c-0.8-0.7-1.8-2.1-1.8-2.1s0.2,1.7,0.2,2.8v6.3h-2.9v-15.2h0.3l7.6,7.1c0.7,0.7,1.8,2.1,1.8,2.1
			s-0.2-1.7-0.2-2.8v-6.3h2.9v15.2h-0.3L722.6,236.6z"/>
		<path class="st4" d="M733.2,236.1c0-4.5,3.4-7.7,7.8-7.7c2.7,0,4.7,1,6,3.1l-2.4,1.7c-0.7-1.2-1.9-2-3.7-2c-2.7,0-4.6,2.1-4.6,4.9
			c0,2.8,1.8,5,4.6,5c2,0,3-0.9,3.9-2.2l2.4,1.7c-1.3,2-3.4,3.3-6.3,3.3C736.6,243.8,733.2,240.5,733.2,236.1z"/>
		<path class="st4" d="M749.5,228.5h10v2.7h-6.9v4.8h6.1v2.7h-6.1v2.2h7.2v2.7h-10.3V228.5z"/>
		<path class="st4" d="M963.1,237.8c0-3.5,2.9-6,6.1-6c3.2,0,6.2,2.4,6.2,6c0,3.5-2.9,6-6.2,6C966,243.8,963.1,241.3,963.1,237.8z
			 M972.2,237.8c0-2.1-1.3-3.3-3-3.3c-1.7,0-3,1.2-3,3.3c0,2.1,1.3,3.4,3,3.4C970.9,241.2,972.2,239.9,972.2,237.8z"/>
		<path class="st4" d="M976.6,241.9c0-1.1,0.9-1.9,1.9-1.9c1,0,1.9,0.8,1.9,1.9c0,1.1-0.9,1.9-1.9,1.9
			C977.5,243.8,976.6,243,976.6,241.9z"/>
		<path class="st4" d="M981.6,237.8c0-3.5,2.9-6,6.1-6c3.2,0,6.2,2.4,6.2,6c0,3.5-3,6-6.2,6C984.5,243.8,981.6,241.3,981.6,237.8z
			 M990.7,237.8c0-2.1-1.3-3.3-3-3.3c-1.7,0-3,1.2-3,3.3c0,2.1,1.3,3.4,3,3.4C989.4,241.2,990.7,239.9,990.7,237.8z"/>
		<path class="st4" d="M995.4,237.8c0-3.5,2.9-6,6.1-6c3.2,0,6.2,2.4,6.2,6c0,3.5-3,6-6.2,6C998.4,243.8,995.4,241.3,995.4,237.8z
			 M1004.6,237.8c0-2.1-1.3-3.3-3-3.3c-1.7,0-3,1.2-3,3.3c0,2.1,1.3,3.4,3,3.4C1003.3,241.2,1004.6,239.9,1004.6,237.8z"/>
		<path class="st6" d="M537.9,339.2c0.9,0.5,2.1,1,3.5,1c2,0,3.1-1,3.1-2.6c0-1.4-0.8-2.2-2.8-3c-2.4-0.9-3.9-2.1-3.9-4.2
			c0-2.3,1.9-4.1,4.8-4.1c1.5,0,2.6,0.4,3.3,0.7l-0.5,1.6c-0.5-0.3-1.5-0.7-2.8-0.7c-2,0-2.8,1.2-2.8,2.2c0,1.4,0.9,2.1,3,2.9
			c2.5,1,3.8,2.2,3.8,4.4c0,2.3-1.7,4.3-5.2,4.3c-1.4,0-3-0.4-3.8-1L537.9,339.2z"/>
		<path class="st6" d="M550,336.5c0,2.6,1.7,3.7,3.7,3.7c1.4,0,2.2-0.2,3-0.6l0.3,1.4c-0.7,0.3-1.9,0.7-3.6,0.7
			c-3.3,0-5.3-2.2-5.3-5.4c0-3.2,1.9-5.8,5-5.8c3.5,0,4.4,3.1,4.4,5.1c0,0.4,0,0.7-0.1,0.9H550z M555.7,335.1c0-1.2-0.5-3.2-2.7-3.2
			c-2,0-2.8,1.8-3,3.2H555.7z"/>
		<path class="st6" d="M559.8,334.2c0-1.3,0-2.4-0.1-3.4h1.7l0.1,2.1h0.1c0.5-1.4,1.7-2.4,3-2.4c0.2,0,0.4,0,0.6,0.1v1.8
			c-0.2,0-0.4-0.1-0.7-0.1c-1.4,0-2.4,1-2.6,2.5c0,0.3-0.1,0.6-0.1,0.9v5.7h-1.9V334.2z"/>
		<path class="st6" d="M568.1,330.8l2.1,6c0.4,1,0.6,1.9,0.9,2.8h0.1c0.2-0.9,0.6-1.8,0.9-2.8l2.1-6h2l-4.2,10.7h-1.9l-4.1-10.7
			H568.1z"/>
		<path class="st6" d="M580,327.8c0,0.7-0.5,1.2-1.2,1.2c-0.7,0-1.2-0.5-1.2-1.2c0-0.7,0.5-1.2,1.2-1.2
			C579.5,326.6,580,327.1,580,327.8z M577.8,341.5v-10.7h2v10.7H577.8z"/>
		<path class="st6" d="M590.5,341.1c-0.5,0.3-1.6,0.6-3.1,0.6c-3.2,0-5.3-2.2-5.3-5.5c0-3.3,2.3-5.7,5.8-5.7c1.2,0,2.2,0.3,2.7,0.6
			l-0.4,1.5c-0.5-0.3-1.2-0.5-2.3-0.5c-2.5,0-3.8,1.8-3.8,4.1c0,2.5,1.6,4,3.7,4c1.1,0,1.8-0.3,2.4-0.5L590.5,341.1z"/>
		<path class="st6" d="M593.5,336.5c0,2.6,1.7,3.7,3.7,3.7c1.4,0,2.2-0.2,3-0.6l0.3,1.4c-0.7,0.3-1.9,0.7-3.6,0.7
			c-3.3,0-5.3-2.2-5.3-5.4c0-3.2,1.9-5.8,5-5.8c3.5,0,4.4,3.1,4.4,5.1c0,0.4,0,0.7-0.1,0.9H593.5z M599.2,335.1
			c0-1.2-0.5-3.2-2.7-3.2c-2,0-2.8,1.8-3,3.2H599.2z"/>
		<path class="st6" d="M607.8,326.6h8.1v1.6h-6.1v5h5.7v1.6h-5.7v6.8h-1.9V326.6z"/>
		<path class="st6" d="M618.7,336.5c0,2.6,1.7,3.7,3.7,3.7c1.4,0,2.2-0.2,3-0.6l0.3,1.4c-0.7,0.3-1.9,0.7-3.6,0.7
			c-3.3,0-5.3-2.2-5.3-5.4c0-3.2,1.9-5.8,5-5.8c3.5,0,4.4,3.1,4.4,5.1c0,0.4,0,0.7-0.1,0.9H618.7z M624.4,335.1
			c0-1.2-0.5-3.2-2.7-3.2c-2,0-2.8,1.8-3,3.2H624.4z"/>
		<path class="st6" d="M629.6,336.5c0,2.6,1.7,3.7,3.7,3.7c1.4,0,2.2-0.2,3-0.6l0.3,1.4c-0.7,0.3-1.9,0.7-3.6,0.7
			c-3.3,0-5.3-2.2-5.3-5.4c0-3.2,1.9-5.8,5-5.8c3.5,0,4.4,3.1,4.4,5.1c0,0.4,0,0.7-0.1,0.9H629.6z M635.3,335.1
			c0-1.2-0.5-3.2-2.7-3.2c-2,0-2.8,1.8-3,3.2H635.3z"/>
		<path class="st6" d="M963.3,341.5v-1.2l1.5-1.5c3.7-3.5,5.3-5.4,5.4-7.5c0-1.5-0.7-2.8-2.9-2.8c-1.3,0-2.4,0.7-3.1,1.2l-0.6-1.4
			c1-0.8,2.4-1.5,4.1-1.5c3.1,0,4.4,2.1,4.4,4.2c0,2.7-1.9,4.8-5,7.7l-1.2,1.1v0h6.5v1.6H963.3z"/>
		<path class="st6" d="M984,334.2c0,4.9-1.8,7.6-5,7.6c-2.8,0-4.7-2.6-4.8-7.4c0-4.8,2.1-7.5,5-7.5C982.3,326.9,984,329.6,984,334.2
			z M976.2,334.4c0,3.8,1.2,5.9,2.9,5.9c2,0,3-2.3,3-6c0-3.6-0.9-5.9-2.9-5.9C977.4,328.4,976.2,330.5,976.2,334.4z"/>
		<path class="st6" d="M985.8,340.4c0-0.8,0.6-1.4,1.3-1.4s1.3,0.6,1.3,1.4c0,0.8-0.5,1.4-1.3,1.4
			C986.3,341.8,985.8,341.2,985.8,340.4z"/>
		<path class="st6" d="M989.8,337.9c0-1.8,1.1-3.1,2.9-3.9l0-0.1c-1.6-0.8-2.3-2-2.3-3.2c0-2.3,1.9-3.8,4.5-3.8
			c2.8,0,4.2,1.8,4.2,3.5c0,1.2-0.6,2.5-2.4,3.4v0.1c1.8,0.7,2.9,2,2.9,3.7c0,2.5-2.2,4.2-4.9,4.2
			C991.6,341.8,989.8,340,989.8,337.9z M997.6,337.8c0-1.8-1.2-2.6-3.2-3.2c-1.7,0.5-2.6,1.6-2.6,3c-0.1,1.5,1,2.8,2.9,2.8
			C996.4,340.4,997.6,339.3,997.6,337.8z M992.2,330.6c0,1.4,1.1,2.2,2.7,2.7c1.2-0.4,2.2-1.3,2.2-2.6c0-1.2-0.7-2.4-2.4-2.4
			C993.1,328.3,992.2,329.3,992.2,330.6z"/>
		<path class="st6" d="M1007.2,341.5v-3.9h-6.7v-1.3l6.4-9.2h2.1v9h2v1.5h-2v3.9H1007.2z M1007.2,336.1v-4.8c0-0.8,0-1.5,0.1-2.3
			h-0.1c-0.4,0.8-0.8,1.5-1.2,2.1l-3.5,4.9v0H1007.2z"/>
		<path class="st6" d="M541.7,377.9L541.7,377.9l-2.6,1.4l-0.4-1.5l3.2-1.7h1.7v14.4h-1.9V377.9z"/>
		<path class="st6" d="M548.6,390.5v-1.2l1.5-1.5c3.7-3.5,5.3-5.4,5.4-7.5c0-1.5-0.7-2.8-2.9-2.8c-1.3,0-2.4,0.7-3.1,1.2l-0.6-1.4
			c1-0.8,2.4-1.5,4.1-1.5c3.1,0,4.4,2.1,4.4,4.2c0,2.7-1.9,4.8-5,7.7l-1.2,1.1v0h6.5v1.6H548.6z"/>
		<path class="st6" d="M559.1,393.2c0.5-1.3,1.1-3.7,1.3-5.3l2.2-0.2c-0.5,1.9-1.5,4.3-2.1,5.4L559.1,393.2z"/>
		<path class="st6" d="M572.7,377.7h-5.5l-0.6,3.7c0.3,0,0.6-0.1,1.2-0.1c1.1,0,2.2,0.2,3.1,0.8c1.1,0.6,2.1,1.9,2.1,3.7
			c0,2.8-2.2,4.9-5.4,4.9c-1.6,0-2.9-0.4-3.6-0.9l0.5-1.5c0.6,0.4,1.8,0.8,3.1,0.8c1.8,0,3.4-1.2,3.4-3.1c0-1.9-1.3-3.2-4.1-3.2
			c-0.8,0-1.5,0.1-2,0.2l0.9-6.9h6.9V377.7z"/>
		<path class="st6" d="M584.9,383.1c0,4.9-1.8,7.6-5,7.6c-2.8,0-4.7-2.6-4.8-7.4c0-4.8,2.1-7.5,5-7.5
			C583.1,375.8,584.9,378.5,584.9,383.1z M577,383.4c0,3.8,1.2,5.9,2.9,5.9c2,0,3-2.3,3-6c0-3.6-0.9-5.9-2.9-5.9
			C578.3,377.3,577,379.4,577,383.4z"/>
		<path class="st6" d="M596,383.1c0,4.9-1.8,7.6-5,7.6c-2.8,0-4.7-2.6-4.8-7.4c0-4.8,2.1-7.5,5-7.5C594.3,375.8,596,378.5,596,383.1
			z M588.2,383.4c0,3.8,1.2,5.9,2.9,5.9c2,0,3-2.3,3-6c0-3.6-0.9-5.9-2.9-5.9C589.4,377.3,588.2,379.4,588.2,383.4z"/>
		<path class="st6" d="M614.1,389.8c-0.9,0.3-2.6,0.8-4.6,0.8c-2.3,0-4.1-0.6-5.6-2c-1.3-1.2-2.1-3.2-2.1-5.6c0-4.5,3.1-7.7,8.1-7.7
			c1.7,0,3.1,0.4,3.7,0.7l-0.5,1.6c-0.8-0.4-1.8-0.6-3.3-0.6c-3.6,0-6,2.3-6,6c0,3.8,2.3,6,5.8,6c1.3,0,2.1-0.2,2.6-0.4v-4.5h-3
			v-1.6h4.9V389.8z"/>
		<path class="st6" d="M622.9,390.5l-0.2-1.4h-0.1c-0.6,0.8-1.8,1.6-3.3,1.6c-2.2,0-3.3-1.5-3.3-3.1c0-2.6,2.3-4,6.5-4v-0.2
			c0-0.9-0.2-2.5-2.4-2.5c-1,0-2,0.3-2.8,0.8l-0.4-1.3c0.9-0.6,2.2-1,3.5-1c3.3,0,4.1,2.2,4.1,4.4v4c0,0.9,0,1.8,0.2,2.6H622.9z
			 M622.6,385c-2.1,0-4.5,0.3-4.5,2.4c0,1.3,0.8,1.9,1.8,1.9c1.4,0,2.3-0.9,2.6-1.8c0.1-0.2,0.1-0.4,0.1-0.6V385z"/>
		<path class="st6" d="M627.4,374.8h2v15.8h-2V374.8z"/>
		<path class="st6" d="M632.4,374.8h2v15.8h-2V374.8z"/>
		<path class="st6" d="M647.2,385c0,4-2.7,5.7-5.3,5.7c-2.9,0-5.1-2.1-5.1-5.5c0-3.6,2.4-5.7,5.3-5.7
			C645.1,379.5,647.2,381.8,647.2,385z M638.7,385.2c0,2.4,1.4,4.1,3.3,4.1c1.9,0,3.3-1.8,3.3-4.2c0-1.8-0.9-4.1-3.2-4.1
			C639.7,381,638.7,383.1,638.7,385.2z"/>
		<path class="st6" d="M649.4,382.7c0-1.1,0-2-0.1-2.9h1.7l0.1,1.8h0c0.5-1,1.8-2,3.5-2c1.5,0,3.8,0.9,3.8,4.6v6.4h-2v-6.2
			c0-1.7-0.6-3.2-2.5-3.2c-1.3,0-2.3,0.9-2.6,2c-0.1,0.2-0.1,0.6-0.1,0.9v6.5h-2V382.7z"/>
		<path class="st6" d="M661.2,388.5c0.6,0.4,1.6,0.8,2.6,0.8c1.4,0,2.1-0.7,2.1-1.6c0-0.9-0.6-1.4-2-2c-1.9-0.7-2.8-1.8-2.8-3
			c0-1.7,1.4-3.2,3.7-3.2c1.1,0,2,0.3,2.6,0.7l-0.5,1.4c-0.4-0.3-1.2-0.6-2.2-0.6c-1.2,0-1.8,0.7-1.8,1.5c0,0.9,0.6,1.3,2,1.8
			c1.9,0.7,2.8,1.6,2.8,3.2c0,1.9-1.5,3.2-4,3.2c-1.2,0-2.3-0.3-3-0.7L661.2,388.5z"/>
		<path class="st6" d="M684.5,391.9c-1.2,0.6-2.5,0.9-3.9,0.9c-3.6,0-6.7-2.7-6.7-6.9c0-4.6,3.2-8.5,8.1-8.5c3.9,0,6.5,2.7,6.5,6.4
			c0,3.3-1.9,5.3-3.9,5.3c-0.9,0-1.7-0.6-1.6-2h-0.1c-0.8,1.3-1.8,2-3.1,2c-1.3,0-2.4-1-2.4-2.8c0-2.8,2.2-5.3,5.3-5.3
			c1,0,1.8,0.2,2.4,0.5l-0.8,4c-0.3,1.7-0.1,2.5,0.7,2.5c1.1,0,2.4-1.5,2.4-4.1c0-3.2-1.9-5.5-5.4-5.5c-3.6,0-6.7,2.9-6.7,7.4
			c0,3.7,2.4,6,5.7,6c1.3,0,2.4-0.3,3.3-0.8L684.5,391.9z M683.3,382.3c-0.2-0.1-0.6-0.2-1.1-0.2c-2,0-3.5,1.8-3.5,4
			c0,1,0.5,1.7,1.5,1.7c1.3,0,2.5-1.6,2.7-3L683.3,382.3z"/>
		<path class="st6" d="M704.1,383.1c0,4.9-1.8,7.6-5,7.6c-2.8,0-4.7-2.6-4.8-7.4c0-4.8,2.1-7.5,5-7.5
			C702.4,375.8,704.1,378.5,704.1,383.1z M696.3,383.4c0,3.8,1.2,5.9,2.9,5.9c2,0,3-2.3,3-6c0-3.6-0.9-5.9-2.9-5.9
			C697.5,377.3,696.3,379.4,696.3,383.4z"/>
		<path class="st6" d="M705.8,389.3c0-0.8,0.6-1.4,1.3-1.4c0.8,0,1.3,0.6,1.3,1.4c0,0.8-0.5,1.4-1.3,1.4
			C706.4,390.7,705.8,390.1,705.8,389.3z"/>
		<path class="st6" d="M719.6,383.1c0,4.9-1.8,7.6-5,7.6c-2.8,0-4.7-2.6-4.8-7.4c0-4.8,2.1-7.5,5-7.5
			C717.9,375.8,719.6,378.5,719.6,383.1z M711.8,383.4c0,3.8,1.2,5.9,2.9,5.9c2,0,3-2.3,3-6c0-3.6-0.9-5.9-2.9-5.9
			C713,377.3,711.8,379.4,711.8,383.4z"/>
		<path class="st6" d="M730.8,383.1c0,4.9-1.8,7.6-5,7.6c-2.8,0-4.7-2.6-4.8-7.4c0-4.8,2.1-7.5,5-7.5
			C729,375.8,730.8,378.5,730.8,383.1z M722.9,383.4c0,3.8,1.2,5.9,2.9,5.9c2,0,3-2.3,3-6c0-3.6-0.9-5.9-2.9-5.9
			C724.2,377.3,722.9,379.4,722.9,383.4z"/>
		<path class="st6" d="M732.3,390.5v-1.2l1.5-1.5c3.7-3.5,5.3-5.4,5.4-7.5c0-1.5-0.7-2.8-2.9-2.8c-1.3,0-2.4,0.7-3.1,1.2l-0.6-1.4
			c1-0.8,2.4-1.5,4.1-1.5c3.1,0,4.4,2.1,4.4,4.2c0,2.7-1.9,4.8-5,7.7l-1.2,1.1v0h6.5v1.6H732.3z"/>
		<path class="st6" d="M744.6,389.1c0.4,0,0.9,0,1.6-0.1c1.1-0.2,2.2-0.6,3-1.4c1-0.9,1.6-2.1,1.9-3.8h-0.1c-0.8,1-2,1.6-3.4,1.6
			c-2.6,0-4.3-2-4.3-4.4c0-2.7,2-5.1,4.9-5.1c2.9,0,4.8,2.4,4.8,6.1c0,3.2-1.1,5.4-2.5,6.8c-1.1,1.1-2.6,1.8-4.2,1.9
			c-0.7,0.1-1.3,0.1-1.8,0.1V389.1z M745.3,380.8c0,1.8,1.1,3.1,2.8,3.1c1.3,0,2.3-0.6,2.8-1.5c0.1-0.2,0.2-0.4,0.2-0.7
			c0-2.5-0.9-4.3-3-4.3C746.5,377.3,745.3,378.8,745.3,380.8z"/>
		<path class="st6" d="M763.3,377.7h-5.5l-0.6,3.7c0.3,0,0.6-0.1,1.2-0.1c1.1,0,2.2,0.2,3.1,0.8c1.1,0.6,2.1,1.9,2.1,3.7
			c0,2.8-2.2,4.9-5.4,4.9c-1.6,0-2.9-0.4-3.6-0.9l0.5-1.5c0.6,0.4,1.8,0.8,3.1,0.8c1.8,0,3.4-1.2,3.4-3.1c0-1.9-1.3-3.2-4.1-3.2
			c-0.8,0-1.5,0.1-2,0.2l0.9-6.9h6.9V377.7z"/>
		<path class="st6" d="M770.9,383.3c0-1.4,0-2.5-0.1-3.5h1.8l0.1,1.8h0c0.8-1.3,2.1-2.1,3.8-2.1c2.6,0,4.5,2.2,4.5,5.5
			c0,3.9-2.4,5.8-4.9,5.8c-1.4,0-2.7-0.6-3.3-1.7h0v5.8h-1.9V383.3z M772.8,386.1c0,0.3,0,0.6,0.1,0.8c0.4,1.4,1.5,2.3,2.9,2.3
			c2.1,0,3.3-1.7,3.3-4.2c0-2.2-1.1-4-3.2-4c-1.3,0-2.6,1-3,2.4c-0.1,0.2-0.1,0.5-0.1,0.8V386.1z"/>
		<path class="st6" d="M784.4,385.5c0,2.6,1.7,3.7,3.7,3.7c1.4,0,2.2-0.2,3-0.6l0.3,1.4c-0.7,0.3-1.9,0.7-3.6,0.7
			c-3.3,0-5.3-2.2-5.3-5.4c0-3.2,1.9-5.8,5-5.8c3.5,0,4.4,3.1,4.4,5.1c0,0.4,0,0.7-0.1,0.9H784.4z M790.1,384.1
			c0-1.2-0.5-3.2-2.7-3.2c-2,0-2.8,1.8-3,3.2H790.1z"/>
		<path class="st6" d="M794.2,383.1c0-1.3,0-2.4-0.1-3.4h1.7l0.1,2.1h0.1c0.5-1.4,1.7-2.4,3-2.4c0.2,0,0.4,0,0.6,0.1v1.8
			c-0.2,0-0.4-0.1-0.7-0.1c-1.4,0-2.4,1-2.6,2.5c0,0.3-0.1,0.6-0.1,0.9v5.7h-1.9V383.1z"/>
		<path class="st6" d="M817.1,389.8c-0.9,0.3-2.6,0.8-4.6,0.8c-2.3,0-4.1-0.6-5.6-2c-1.3-1.2-2.1-3.2-2.1-5.6c0-4.5,3.1-7.7,8.1-7.7
			c1.7,0,3.1,0.4,3.7,0.7l-0.5,1.6c-0.8-0.4-1.8-0.6-3.3-0.6c-3.6,0-6,2.3-6,6c0,3.8,2.3,6,5.8,6c1.3,0,2.1-0.2,2.6-0.4v-4.5h-3
			v-1.6h4.9V389.8z"/>
		<path class="st6" d="M825.9,390.5l-0.2-1.4h-0.1c-0.6,0.8-1.8,1.6-3.3,1.6c-2.2,0-3.3-1.5-3.3-3.1c0-2.6,2.3-4,6.5-4v-0.2
			c0-0.9-0.2-2.5-2.4-2.5c-1,0-2,0.3-2.8,0.8l-0.4-1.3c0.9-0.6,2.2-1,3.5-1c3.3,0,4.1,2.2,4.1,4.4v4c0,0.9,0,1.8,0.2,2.6H825.9z
			 M825.6,385c-2.1,0-4.5,0.3-4.5,2.4c0,1.3,0.8,1.9,1.8,1.9c1.4,0,2.3-0.9,2.6-1.8c0.1-0.2,0.1-0.4,0.1-0.6V385z"/>
		<path class="st6" d="M830.4,374.8h2v15.8h-2V374.8z"/>
		<path class="st6" d="M835.4,374.8h2v15.8h-2V374.8z"/>
		<path class="st6" d="M850.2,385c0,4-2.7,5.7-5.3,5.7c-2.9,0-5.1-2.1-5.1-5.5c0-3.6,2.4-5.7,5.3-5.7
			C848.1,379.5,850.2,381.8,850.2,385z M841.7,385.2c0,2.4,1.4,4.1,3.3,4.1c1.9,0,3.3-1.8,3.3-4.2c0-1.8-0.9-4.1-3.2-4.1
			C842.7,381,841.7,383.1,841.7,385.2z"/>
		<path class="st6" d="M852.4,382.7c0-1.1,0-2-0.1-2.9h1.7l0.1,1.8h0c0.5-1,1.8-2,3.5-2c1.5,0,3.8,0.9,3.8,4.6v6.4h-2v-6.2
			c0-1.7-0.6-3.2-2.5-3.2c-1.3,0-2.3,0.9-2.6,2c-0.1,0.2-0.1,0.6-0.1,0.9v6.5h-2V382.7z"/>
		<path class="st6" d="M963.5,388.3c0.6,0.4,1.8,0.9,3.2,0.9c2.5,0,3.3-1.6,3.3-2.8c0-2-1.8-2.9-3.7-2.9h-1.1V382h1.1
			c1.4,0,3.2-0.7,3.2-2.4c0-1.2-0.7-2.2-2.5-2.2c-1.2,0-2.3,0.5-2.9,1l-0.5-1.4c0.8-0.6,2.2-1.1,3.8-1.1c2.8,0,4.1,1.7,4.1,3.4
			c0,1.5-0.9,2.8-2.7,3.4v0c1.8,0.4,3.2,1.7,3.2,3.7c0,2.3-1.8,4.3-5.3,4.3c-1.6,0-3-0.5-3.7-1L963.5,388.3z"/>
		<path class="st6" d="M982.5,377.5c-0.4,0-0.9,0-1.5,0.1c-3.1,0.5-4.7,2.8-5,5.1h0.1c0.7-0.9,1.9-1.7,3.5-1.7
			c2.6,0,4.3,1.8,4.3,4.7c0,2.6-1.8,5.1-4.8,5.1c-3.1,0-5.1-2.4-5.1-6.1c0-2.8,1-5.1,2.4-6.5c1.2-1.2,2.8-1.9,4.6-2.1
			c0.6-0.1,1.1-0.1,1.4-0.1V377.5z M981.9,385.8c0-2.1-1.2-3.3-3-3.3c-1.2,0-2.3,0.7-2.8,1.8c-0.1,0.2-0.2,0.5-0.2,0.9
			c0,2.4,1.1,4.1,3.2,4.1C980.8,389.2,981.9,387.8,981.9,385.8z"/>
		<path class="st6" d="M985.5,389.3c0-0.8,0.6-1.4,1.3-1.4c0.8,0,1.3,0.6,1.3,1.4c0,0.8-0.5,1.4-1.3,1.4
			C986.1,390.7,985.5,390.1,985.5,389.3z"/>
		<path class="st6" d="M989.6,386.8c0-1.8,1.1-3.1,2.9-3.9l0-0.1c-1.6-0.8-2.3-2-2.3-3.2c0-2.3,1.9-3.8,4.5-3.8
			c2.8,0,4.2,1.8,4.2,3.5c0,1.2-0.6,2.5-2.4,3.4v0.1c1.8,0.7,2.9,2,2.9,3.7c0,2.5-2.2,4.2-4.9,4.2
			C991.4,390.7,989.6,388.9,989.6,386.8z M997.3,386.8c0-1.8-1.2-2.6-3.2-3.2c-1.7,0.5-2.6,1.6-2.6,3c-0.1,1.5,1,2.8,2.9,2.8
			C996.2,389.3,997.3,388.2,997.3,386.8z M992,379.5c0,1.4,1.1,2.2,2.7,2.7c1.2-0.4,2.2-1.3,2.2-2.6c0-1.2-0.7-2.4-2.4-2.4
			C992.9,377.2,992,378.3,992,379.5z"/>
		<path class="st6" d="M1000.7,386.8c0-1.8,1.1-3.1,2.9-3.9l0-0.1c-1.6-0.8-2.3-2-2.3-3.2c0-2.3,1.9-3.8,4.5-3.8
			c2.8,0,4.2,1.8,4.2,3.5c0,1.2-0.6,2.5-2.4,3.4v0.1c1.8,0.7,2.9,2,2.9,3.7c0,2.5-2.2,4.2-4.9,4.2
			C1002.6,390.7,1000.7,388.9,1000.7,386.8z M1008.5,386.8c0-1.8-1.2-2.6-3.2-3.2c-1.7,0.5-2.6,1.6-2.6,3c-0.1,1.5,1,2.8,2.9,2.8
			C1007.4,389.3,1008.5,388.2,1008.5,386.8z M1003.1,379.5c0,1.4,1.1,2.2,2.7,2.7c1.2-0.4,2.2-1.3,2.2-2.6c0-1.2-0.7-2.4-2.4-2.4
			C1004,377.2,1003.1,378.3,1003.1,379.5z"/>
		<path class="st6" d="M537.5,431.9c0-4.5,3.4-7.7,7.8-7.7c2.7,0,4.7,1,6,3.1l-2.4,1.7c-0.7-1.2-1.9-2-3.7-2c-2.7,0-4.6,2.1-4.6,4.9
			c0,2.8,1.8,5,4.6,5c2,0,3-0.9,3.9-2.2l2.4,1.7c-1.3,2-3.4,3.3-6.3,3.3C541,439.7,537.5,436.4,537.5,431.9z"/>
		<path class="st6" d="M553.8,434v-9.6h3.1v9.5c0,2.2,1,3,3,3c2,0,3-0.8,3-3v-9.5h3.1v9.6c0,3.8-2.6,5.7-6.1,5.7
			C556.5,439.7,553.8,437.8,553.8,434z"/>
		<path class="st6" d="M580.2,439.5h-3.6l-2.5-3.8c-0.3,0-0.6,0.1-0.9,0.1h-1.1v3.7h-3.1v-15.1h4.2c4.2,0,6.7,2,6.7,5.7
			c0,2.4-1,3.8-2.9,4.7L580.2,439.5z M573.2,433c2.5,0,3.6-0.8,3.6-2.9c0-2.1-1.2-3-3.6-3h-1v5.9H573.2z"/>
		<path class="st6" d="M593.9,439.5h-3.6l-2.5-3.8c-0.3,0-0.6,0.1-0.9,0.1h-1.1v3.7h-3.1v-15.1h4.2c4.2,0,6.7,2,6.7,5.7
			c0,2.4-1,3.8-2.9,4.7L593.9,439.5z M586.8,433c2.5,0,3.6-0.8,3.6-2.9c0-2.1-1.2-3-3.6-3h-1v5.9H586.8z"/>
		<path class="st6" d="M596.3,424.4h10v2.7h-6.9v4.8h6.1v2.7h-6.1v2.2h7.2v2.7h-10.3V424.4z"/>
		<path class="st6" d="M614,432.5c-0.8-0.7-1.8-2.1-1.8-2.1s0.2,1.7,0.2,2.8v6.3h-2.9v-15.2h0.3l7.6,7.1c0.7,0.7,1.8,2.1,1.8,2.1
			s-0.2-1.7-0.2-2.8v-6.3h2.9v15.2h-0.3L614,432.5z"/>
		<path class="st6" d="M628.5,427.1h-4.3v-2.7h11.7v2.7h-4.3v12.4h-3.1V427.1z"/>
		<path class="st6" d="M642,424.4h3.3l2.2,6.1c0.4,1,0.8,2.7,0.8,2.7s0.4-1.7,0.9-2.7l2.9-6.2h0.3l3,6.2c0.5,1,0.9,2.7,0.9,2.7
			s0.4-1.7,0.8-2.7l2.2-6.1h3l-5.5,15.2h-0.3l-3.4-7.3c-0.4-0.8-0.8-2.2-0.8-2.2s-0.5,1.4-0.9,2.2l-3.5,7.3h-0.3L642,424.4z"/>
		<path class="st6" d="M667.5,424.2h0.3l6.9,15.2h-3.3l-0.7-1.7h-6.1l-0.7,1.7h-3L667.5,424.2z M669.6,435.2l-1.1-2.6
			c-0.4-1.1-0.9-2.7-0.9-2.7s-0.4,1.6-0.9,2.7l-1.1,2.6H669.6z"/>
		<path class="st6" d="M678,427.1h-4.3v-2.7h11.7v2.7h-4.3v12.4H678V427.1z"/>
		<path class="st6" d="M687.7,424.4h10v2.7h-6.9v4.8h6.1v2.7h-6.1v2.2h7.2v2.7h-10.3V424.4z"/>
		<path class="st6" d="M712,439.5h-3.6l-2.5-3.8c-0.3,0-0.6,0.1-0.9,0.1H704v3.7h-3.1v-15.1h4.2c4.2,0,6.7,2,6.7,5.7
			c0,2.4-1,3.8-2.9,4.7L712,439.5z M705,433c2.5,0,3.6-0.8,3.6-2.9c0-2.1-1.2-3-3.6-3h-1v5.9H705z"/>
		<path class="st6" d="M718.9,431.9c0-4.5,3.4-7.7,7.8-7.7c2.7,0,4.7,1,6,3.1l-2.4,1.7c-0.7-1.2-1.9-2-3.7-2c-2.7,0-4.6,2.1-4.6,4.9
			c0,2.8,1.8,5,4.6,5c2,0,3-0.9,3.9-2.2l2.4,1.7c-1.3,2-3.4,3.3-6.3,3.3C722.3,439.7,718.9,436.4,718.9,431.9z"/>
		<path class="st6" d="M735.3,424.4h3.1v7.7h6.5v-7.7h3.1v15.1h-3.1v-4.6h-6.5v4.6h-3.1V424.4z"/>
		<path class="st6" d="M756.6,424.2h0.3l6.9,15.2h-3.3l-0.7-1.7h-6.1l-0.7,1.7h-3L756.6,424.2z M758.7,435.2l-1.1-2.6
			c-0.4-1.1-0.9-2.7-0.9-2.7s-0.4,1.6-0.9,2.7l-1.1,2.6H758.7z"/>
		<path class="st6" d="M776.9,439.5h-3.6l-2.5-3.8c-0.3,0-0.6,0.1-0.9,0.1h-1.1v3.7h-3.1v-15.1h4.2c4.2,0,6.7,2,6.7,5.7
			c0,2.4-1,3.8-2.9,4.7L776.9,439.5z M769.9,433c2.5,0,3.6-0.8,3.6-2.9c0-2.1-1.2-3-3.6-3h-1v5.9H769.9z"/>
		<path class="st6" d="M778.9,431.9c0-4.5,3.1-7.7,7.7-7.7c2.5,0,4.2,0.7,5.5,2.1l-2.1,2.1c-0.8-0.8-1.6-1.4-3.4-1.4
			c-2.7,0-4.5,2.1-4.5,4.9c0,2.8,1.8,5,5,5c1,0,2.2-0.2,2.9-0.6v-2.2h-3.6v-2.7h6.5v6.5c-0.9,0.7-3,1.8-5.8,1.8
			C782.2,439.7,778.9,436.4,778.9,431.9z"/>
		<path class="st6" d="M795.8,424.4h10v2.7h-6.9v4.8h6.1v2.7h-6.1v2.2h7.2v2.7h-10.3V424.4z"/>
		<path class="st6" d="M807.8,436.5l2.5-1.5c0.7,1.1,1.5,1.9,3.1,1.9c1.3,0,2.1-0.6,2.1-1.5c0-1.1-0.8-1.4-2.3-2.1l-0.8-0.3
			c-2.2-1-3.7-2.2-3.7-4.7c0-2.3,1.8-4.1,4.5-4.1c2,0,3.4,0.7,4.4,2.5l-2.4,1.6c-0.5-1-1.1-1.3-2-1.3c-0.9,0-1.5,0.6-1.5,1.3
			c0,0.9,0.6,1.3,1.9,1.9l0.8,0.3c2.6,1.1,4.1,2.3,4.1,4.9c0,2.8-2.2,4.3-5.1,4.3C810.6,439.7,808.7,438.3,807.8,436.5z"/>
		<path class="st6" d="M962.7,438.8l2.6-1.3c0.3,0.9,1,1.6,2.3,1.6c1.3,0,2-0.9,2-2c0-1.2-0.8-2.1-2.3-2.1c-1.3,0-2.3,0.6-3,1.1
			l-0.3-0.1v-8.1h7.5v2.5h-5.1v2.4c0.3-0.2,1-0.3,1.6-0.3c2.8,0,4.6,2.1,4.6,4.6c0,2.5-1.7,4.7-5.2,4.7
			C964.9,441.7,963.3,440.3,962.7,438.8z"/>
		<path class="st6" d="M979.3,430.4h-5.5v-2.5h9.6v0.2l-5.8,13.4h-3.1L979.3,430.4z"/>
		<path class="st6" d="M982.9,437.7c0-1.1,0.9-1.9,1.9-1.9c1,0,1.9,0.8,1.9,1.9c0,1.1-0.9,1.9-1.9,1.9
			C983.8,439.6,982.9,438.8,982.9,437.7z"/>
		<path class="st6" d="M993.3,430.4h-5.5v-2.5h9.6v0.2l-5.8,13.4h-3.1L993.3,430.4z"/>
		<path class="st6" d="M997.8,439.2l4.4-4.7c1.3-1.3,1.9-1.9,1.9-2.9c0-0.8-0.6-1.3-1.4-1.3c-1,0-1.6,0.8-1.9,1.8l-2.8-0.8
			c0.5-2.4,2.4-3.7,4.7-3.7c3.1,0,4.5,1.8,4.5,3.8c0,1.4-1,2.8-2.3,4.2l-0.3,0.4c-0.4,0.4-1.3,1-1.3,1s1.1-0.1,1.5-0.1h2.6v2.6h-9.5
			V439.2z"/>
	</g>
</g>
</svg>
