<?xml version="1.0" encoding="utf-8"?>
<!-- Generator: Adobe Illustrator 24.0.1, SVG Export Plug-In . SVG Version: 6.00 Build 0)  -->
<svg version="1.1" id="Layer_1" xmlns="http://www.w3.org/2000/svg" xmlns:xlink="http://www.w3.org/1999/xlink" x="0px" y="0px"
	 viewBox="0 0 41 51" style="enable-background:new 0 0 41 51;" xml:space="preserve">
<style type="text/css">
	.st0{fill:#93D7F6;}
	.st1{fill:#FFFFFF;}
	.st2{opacity:0.7;fill:#93D7F6;}
	.st3{fill:#3FAEE3;}
	.st4{opacity:5.000000e-02;}
	.st5{fill:#1D1C1A;}
	.st6{opacity:0.7;fill:#73CEE6;}
</style>
<g>
	<g>
		<circle class="st0" cx="9.1" cy="13" r="1.6"/>
		<path class="st1" d="M8.5,12.9c0,0.3-0.2,0.5-0.4,0.5c-0.2,0-0.4-0.2-0.4-0.5s0.2-0.5,0.4-0.5C8.4,12.4,8.5,12.6,8.5,12.9z"/>
	</g>
	<g>
		<circle class="st0" cx="9.5" cy="22.3" r="0.9"/>
		<path class="st1" d="M9.1,22.3c0,0.2-0.1,0.3-0.2,0.3c-0.1,0-0.2-0.1-0.2-0.3S8.8,22,8.9,22C9.1,22,9.1,22.1,9.1,22.3z"/>
	</g>
	<g>
		<path class="st0" d="M35.3,16.3c0,0.5-0.4,0.9-0.9,0.9s-0.9-0.4-0.9-0.9s0.4-0.9,0.9-0.9S35.3,15.8,35.3,16.3z"/>
		<path class="st1" d="M34,16.3c0,0.2-0.1,0.3-0.2,0.3c-0.1,0-0.2-0.1-0.2-0.3c0-0.2,0.1-0.3,0.2-0.3C33.9,16,34,16.1,34,16.3z"/>
	</g>
	<polygon class="st2" points="1.9,0.4 2.5,8.3 5.5,50.3 36.4,50.3 39.5,8.3 40.1,0.4 	"/>
	<path class="st3" d="M4.1,9.7l2.9,39.1c9.1-3.9,18.5-3.7,28.1,0l2.9-39.1H4.1z"/>
	<g>
		<circle class="st0" cx="21.8" cy="22.9" r="1.6"/>
		<path class="st1" d="M21.2,22.9c0,0.3-0.2,0.5-0.4,0.5c-0.2,0-0.4-0.2-0.4-0.5c0-0.3,0.2-0.5,0.4-0.5C21,22.3,21.2,22.6,21.2,22.9
			z"/>
	</g>
	<g>
		<circle class="st0" cx="28.2" cy="27.9" r="1.6"/>
		<path class="st1" d="M27.6,27.9c0,0.3-0.2,0.5-0.4,0.5c-0.2,0-0.4-0.2-0.4-0.5c0-0.3,0.2-0.5,0.4-0.5
			C27.4,27.3,27.6,27.6,27.6,27.9z"/>
	</g>
	<g>
		<circle class="st0" cx="18.4" cy="13.9" r="1.6"/>
		<path class="st1" d="M17.8,13.9c0,0.3-0.2,0.5-0.4,0.5c-0.2,0-0.4-0.2-0.4-0.5c0-0.3,0.2-0.5,0.4-0.5
			C17.6,13.4,17.8,13.6,17.8,13.9z"/>
	</g>
	<g>
		<path class="st0" d="M21.8,31.5c0,0.7-0.6,1.2-1.2,1.2s-1.2-0.6-1.2-1.2c0-0.7,0.6-1.2,1.2-1.2S21.8,30.8,21.8,31.5z"/>
		<path class="st1" d="M20.1,31.5c0,0.2-0.1,0.4-0.3,0.4c-0.2,0-0.3-0.2-0.3-0.4c0-0.2,0.1-0.4,0.3-0.4C20,31.1,20.1,31.3,20.1,31.5
			z"/>
	</g>
	<g>
		<path class="st0" d="M30.5,34.6c0,0.7-0.6,1.2-1.2,1.2S28,35.3,28,34.6c0-0.7,0.6-1.2,1.2-1.2S30.5,34,30.5,34.6z"/>
		<ellipse class="st1" cx="28.5" cy="34.6" rx="0.3" ry="0.4"/>
	</g>
	<g>
		<path class="st0" d="M14.5,34.2c0,0.7-0.6,1.2-1.2,1.2c-0.7,0-1.2-0.6-1.2-1.2c0-0.7,0.6-1.2,1.2-1.2C13.9,33,14.5,33.5,14.5,34.2
			z"/>
		<path class="st1" d="M12.8,34.1c0,0.2-0.1,0.4-0.3,0.4c-0.2,0-0.3-0.2-0.3-0.4c0-0.2,0.1-0.4,0.3-0.4
			C12.6,33.7,12.8,33.9,12.8,34.1z"/>
	</g>
	<g>
		<circle class="st0" cx="24.6" cy="16" r="1.2"/>
		<path class="st1" d="M24.1,16c0,0.2-0.1,0.4-0.3,0.4c-0.2,0-0.3-0.2-0.3-0.4s0.1-0.4,0.3-0.4C24,15.6,24.1,15.8,24.1,16z"/>
	</g>
	<g>
		<path class="st0" d="M30.9,12.5c0,0.7-0.6,1.2-1.2,1.2c-0.7,0-1.2-0.6-1.2-1.2s0.6-1.2,1.2-1.2C30.3,11.2,30.9,11.8,30.9,12.5z"/>
		<path class="st1" d="M29.2,12.4c0,0.2-0.1,0.4-0.3,0.4c-0.2,0-0.3-0.2-0.3-0.4c0-0.2,0.1-0.4,0.3-0.4C29.1,12,29.2,12.2,29.2,12.4
			z"/>
	</g>
	<g>
		<path class="st0" d="M15.8,19.2c0,0.7-0.6,1.2-1.2,1.2c-0.7,0-1.2-0.6-1.2-1.2c0-0.7,0.6-1.2,1.2-1.2C15.3,18,15.8,18.6,15.8,19.2
			z"/>
		<path class="st1" d="M14.2,19.2c0,0.2-0.1,0.4-0.3,0.4c-0.2,0-0.3-0.2-0.3-0.4s0.1-0.4,0.3-0.4C14,18.8,14.2,19,14.2,19.2z"/>
	</g>
	<g>
		<path class="st0" d="M15.1,26.1c0,0.5-0.4,0.9-0.9,0.9c-0.5,0-0.9-0.4-0.9-0.9s0.4-0.9,0.9-0.9C14.7,25.2,15.1,25.6,15.1,26.1z"/>
		<path class="st1" d="M13.8,26.1c0,0.2-0.1,0.3-0.2,0.3c-0.1,0-0.2-0.1-0.2-0.3c0-0.2,0.1-0.3,0.2-0.3
			C13.7,25.8,13.8,25.9,13.8,26.1z"/>
	</g>
	<g>
		<path class="st0" d="M32.7,22.5c0,0.5-0.4,0.9-0.9,0.9c-0.5,0-0.9-0.4-0.9-0.9s0.4-0.9,0.9-0.9C32.3,21.6,32.7,22,32.7,22.5z"/>
		<path class="st1" d="M31.5,22.5c0,0.2-0.1,0.3-0.2,0.3c-0.1,0-0.2-0.1-0.2-0.3c0-0.2,0.1-0.3,0.2-0.3
			C31.4,22.2,31.5,22.3,31.5,22.5z"/>
	</g>
	<path class="st1" d="M10.3,2.4H5l3.3,43.9c1.4-0.6,1.8-0.8,3.2-1.1L10.3,2.4z"/>
	<g class="st4">
		<g>
			<path class="st5" d="M5.3,47.5l0.2,2.8h30.9l1.6-22.3C33.8,39.7,16.8,47.6,5.3,47.5z"/>
		</g>
		<g>
			<path class="st6" d="M5.3,47.5l0.2,2.8h30.9l1.6-22.3C33.8,39.7,16.8,47.6,5.3,47.5z"/>
		</g>
	</g>
</g>
</svg>
