<?xml version="1.0" encoding="utf-8"?>
<!-- Generator: Adobe Illustrator 24.3.0, SVG Export Plug-In . SVG Version: 6.00 Build 0)  -->
<svg version="1.1" xmlns="http://www.w3.org/2000/svg" xmlns:xlink="http://www.w3.org/1999/xlink" x="0px" y="0px"
	 viewBox="0 0 763 500" style="enable-background:new 0 0 763 500;" xml:space="preserve">
<style type="text/css">
	.st0{clip-path:url(#SVGID_2_);}
	.st1{fill:#C7E9F0;}
	.st2{fill:#53B0C7;}
	.st3{fill:#00689A;}
	.st4{fill:none;stroke:#00689A;stroke-miterlimit:10;}
	.st5{fill:#94D8F7;}
	.st6{fill:#FFFFFF;}
	.st7{opacity:0.7;fill:#94D8F7;}
	.st8{fill:#41AFE4;}
	.st9{opacity:0.05;}
	.st10{fill:#1D1D1B;}
	.st11{opacity:0.7;fill:#74CFE7;}
	.st12{fill:none;stroke:#7EA840;stroke-miterlimit:10;}
	.st13{fill:#7EA840;}
	.st14{fill:none;stroke:#FFCE49;stroke-miterlimit:10;}
	.st15{fill:#FFCE49;}
	.st16{fill:none;stroke:#53B0C7;stroke-miterlimit:10;}
	.st17{fill:none;stroke:#F99E45;stroke-miterlimit:10;}
	.st18{fill:#F99E45;}
	.st19{fill:#BCE6FB;}
	.st20{clip-path:url(#SVGID_4_);}
	.st21{fill:#C7E1A3;}
	.st22{clip-path:url(#SVGID_8_);}
	.st23{fill:none;stroke:#FFFFFF;stroke-width:4;stroke-miterlimit:10;}
	.st24{fill:#AAC683;}
	.st25{display:none;}
	.st26{display:inline;fill:#F99E45;}
	.st27{display:inline;}
	.st28{opacity:0.8;fill:#00689A;}
	.st29{opacity:0.15;}
	.st30{fill:#010101;}
	.st31{display:inline;opacity:0.6;}
</style>
<g id="Layer_1">
	<g>
		<defs>
			<rect id="SVGID_7_" x="-207.79" y="96.32" width="171.04" height="155.87"/>
		</defs>
		<clipPath id="SVGID_2_">
			<use xlink:href="#SVGID_7_"  style="overflow:visible;"/>
		</clipPath>
		<g class="st0">
			<g>
				<path class="st1" d="M129.02,269.69c-10.04,0-17.87-3.35-25.45-6.6c-7.54-3.23-14.67-6.28-23.9-6.28
					c-9.23,0-16.36,3.05-23.9,6.28c-7.57,3.24-15.41,6.6-25.45,6.6c-10.04,0-17.87-3.35-25.45-6.6c-7.54-3.23-14.67-6.28-23.9-6.28
					c-9.23,0-16.36,3.05-23.9,6.28c-7.57,3.24-15.41,6.6-25.45,6.6c-10.04,0-17.87-3.35-25.45-6.6c-7.54-3.23-14.67-6.28-23.9-6.28
					c-9.23,0-16.36,3.05-23.9,6.28c-7.58,3.24-15.41,6.6-25.45,6.6c-4.41,0-8.78-0.65-13.35-1.99l1.1-3.77
					c4.21,1.23,8.21,1.83,12.24,1.83c9.23,0,16.36-3.05,23.9-6.28c7.58-3.24,15.41-6.6,25.45-6.6s17.87,3.35,25.45,6.6
					c7.54,3.23,14.67,6.28,23.9,6.28c9.23,0,16.36-3.05,23.9-6.28c7.57-3.24,15.41-6.6,25.45-6.6c10.04,0,17.87,3.35,25.45,6.6
					c7.54,3.23,14.67,6.28,23.9,6.28c9.23,0,16.36-3.05,23.9-6.28c7.57-3.24,15.41-6.6,25.45-6.6c10.04,0,17.87,3.35,25.45,6.6
					c7.54,3.23,14.67,6.28,23.9,6.28c4.03,0,8.03-0.6,12.24-1.83l1.1,3.77C137.79,269.04,133.43,269.69,129.02,269.69z"/>
			</g>
			<g>
				<path class="st1" d="M129.02,250.37c-10.04,0-17.87-3.35-25.45-6.6c-7.54-3.23-14.67-6.28-23.9-6.28
					c-9.23,0-16.36,3.05-23.9,6.28c-7.57,3.24-15.41,6.6-25.45,6.6c-10.04,0-17.87-3.35-25.45-6.6c-7.54-3.23-14.67-6.28-23.9-6.28
					c-9.23,0-16.36,3.05-23.9,6.28c-7.57,3.24-15.41,6.6-25.45,6.6c-10.04,0-17.87-3.35-25.45-6.6c-7.54-3.23-14.67-6.28-23.9-6.28
					c-9.23,0-16.36,3.05-23.9,6.28c-7.58,3.24-15.41,6.6-25.45,6.6c-4.41,0-8.78-0.65-13.35-1.99l1.1-3.77
					c4.21,1.23,8.21,1.83,12.24,1.83c9.23,0,16.36-3.05,23.9-6.28c7.58-3.24,15.41-6.6,25.45-6.6s17.87,3.35,25.45,6.6
					c7.54,3.23,14.67,6.28,23.9,6.28c9.23,0,16.36-3.05,23.9-6.28c7.57-3.24,15.41-6.6,25.45-6.6c10.04,0,17.87,3.35,25.45,6.6
					c7.54,3.23,14.67,6.28,23.9,6.28c9.23,0,16.36-3.05,23.9-6.28c7.57-3.24,15.41-6.6,25.45-6.6c10.04,0,17.87,3.35,25.45,6.6
					c7.54,3.23,14.67,6.28,23.9,6.28c4.03,0,8.03-0.6,12.24-1.83l1.1,3.77C137.79,249.72,133.43,250.37,129.02,250.37z"/>
			</g>
			<g>
				<path class="st1" d="M129.02,231.06c-10.04,0-17.87-3.35-25.45-6.6c-7.54-3.23-14.67-6.28-23.9-6.28
					c-9.23,0-16.36,3.05-23.9,6.28c-7.57,3.24-15.41,6.6-25.45,6.6c-10.04,0-17.87-3.35-25.45-6.6c-7.54-3.23-14.67-6.28-23.9-6.28
					c-9.23,0-16.36,3.05-23.9,6.28c-7.57,3.24-15.41,6.6-25.45,6.6c-10.04,0-17.87-3.35-25.45-6.6c-7.54-3.23-14.67-6.28-23.9-6.28
					c-9.23,0-16.36,3.05-23.9,6.28c-7.58,3.24-15.41,6.6-25.45,6.6c-4.41,0-8.78-0.65-13.35-1.99l1.1-3.77
					c4.2,1.23,8.21,1.83,12.24,1.83c9.23,0,16.36-3.05,23.9-6.28c7.58-3.24,15.41-6.6,25.45-6.6s17.87,3.35,25.45,6.6
					c7.54,3.23,14.67,6.28,23.9,6.28c9.23,0,16.36-3.05,23.9-6.28c7.57-3.24,15.41-6.6,25.45-6.6c10.04,0,17.87,3.35,25.45,6.6
					c7.54,3.23,14.67,6.28,23.9,6.28c9.23,0,16.36-3.05,23.9-6.28c7.57-3.24,15.41-6.6,25.45-6.6c10.04,0,17.87,3.35,25.45,6.6
					c7.54,3.23,14.67,6.28,23.9,6.28c4.03,0,8.04-0.6,12.24-1.83l1.1,3.77C137.79,230.4,133.43,231.06,129.02,231.06z"/>
			</g>
			<g>
				<path class="st1" d="M129.02,211.74c-10.04,0-17.87-3.35-25.45-6.6c-7.54-3.23-14.67-6.28-23.9-6.28
					c-9.23,0-16.36,3.05-23.9,6.28c-7.57,3.24-15.41,6.6-25.45,6.6c-10.04,0-17.87-3.35-25.45-6.6c-7.54-3.23-14.67-6.28-23.9-6.28
					c-9.23,0-16.36,3.05-23.9,6.28c-7.57,3.24-15.41,6.6-25.45,6.6c-10.04,0-17.87-3.35-25.45-6.6c-7.54-3.23-14.67-6.28-23.9-6.28
					c-9.23,0-16.36,3.05-23.9,6.28c-7.58,3.24-15.41,6.6-25.45,6.6c-4.41,0-8.78-0.65-13.35-1.99l1.1-3.77
					c4.21,1.23,8.21,1.83,12.24,1.83c9.23,0,16.36-3.05,23.9-6.28c7.58-3.24,15.41-6.6,25.45-6.6s17.87,3.35,25.45,6.6
					c7.54,3.23,14.67,6.28,23.9,6.28c9.23,0,16.36-3.05,23.9-6.28c7.57-3.24,15.41-6.6,25.45-6.6c10.04,0,17.87,3.35,25.45,6.6
					c7.54,3.23,14.67,6.28,23.9,6.28c9.23,0,16.36-3.05,23.9-6.28c7.57-3.24,15.41-6.6,25.45-6.6c10.04,0,17.87,3.35,25.45,6.6
					c7.54,3.23,14.67,6.28,23.9,6.28c4.03,0,8.04-0.6,12.24-1.83l1.1,3.77C137.79,211.09,133.43,211.74,129.02,211.74z"/>
			</g>
			<g>
				<path class="st1" d="M129.02,192.42c-10.04,0-17.87-3.35-25.45-6.6c-7.54-3.23-14.67-6.28-23.9-6.28
					c-9.23,0-16.36,3.05-23.9,6.28c-7.57,3.24-15.41,6.6-25.45,6.6c-10.04,0-17.87-3.35-25.45-6.6c-7.54-3.23-14.67-6.28-23.9-6.28
					c-9.23,0-16.36,3.05-23.9,6.28c-7.57,3.24-15.41,6.6-25.45,6.6c-10.04,0-17.87-3.35-25.45-6.6c-7.54-3.23-14.67-6.28-23.9-6.28
					c-9.23,0-16.36,3.05-23.9,6.28c-7.58,3.24-15.41,6.6-25.45,6.6c-4.41,0-8.78-0.65-13.35-1.99l1.1-3.77
					c4.2,1.23,8.21,1.83,12.24,1.83c9.23,0,16.36-3.05,23.9-6.28c7.58-3.24,15.41-6.6,25.45-6.6s17.87,3.35,25.45,6.6
					c7.54,3.23,14.67,6.28,23.9,6.28c9.23,0,16.36-3.05,23.9-6.28c7.57-3.24,15.41-6.6,25.45-6.6c10.04,0,17.87,3.35,25.45,6.6
					c7.54,3.23,14.67,6.28,23.9,6.28c9.23,0,16.36-3.05,23.9-6.28c7.57-3.24,15.41-6.6,25.45-6.6c10.04,0,17.87,3.35,25.45,6.6
					c7.54,3.23,14.67,6.28,23.9,6.28c4.03,0,8.04-0.6,12.24-1.83l1.1,3.77C137.79,191.77,133.43,192.42,129.02,192.42z"/>
			</g>
			<g>
				<path class="st1" d="M129.02,173.11c-10.04,0-17.87-3.35-25.45-6.6c-7.54-3.23-14.67-6.28-23.9-6.28
					c-9.23,0-16.36,3.05-23.9,6.28c-7.57,3.24-15.41,6.6-25.45,6.6c-10.04,0-17.87-3.35-25.45-6.6c-7.54-3.23-14.67-6.28-23.9-6.28
					c-9.23,0-16.36,3.05-23.9,6.28c-7.57,3.24-15.41,6.6-25.45,6.6c-10.04,0-17.87-3.35-25.45-6.6c-7.54-3.23-14.67-6.28-23.9-6.28
					c-9.23,0-16.36,3.05-23.9,6.28c-7.58,3.24-15.41,6.6-25.45,6.6c-4.41,0-8.78-0.65-13.35-1.99l1.1-3.77
					c4.21,1.23,8.21,1.83,12.24,1.83c9.23,0,16.36-3.05,23.9-6.28c7.58-3.24,15.41-6.6,25.45-6.6s17.87,3.35,25.45,6.6
					c7.54,3.23,14.67,6.28,23.9,6.28c9.23,0,16.36-3.05,23.9-6.28c7.57-3.24,15.41-6.6,25.45-6.6c10.04,0,17.87,3.35,25.45,6.6
					c7.54,3.23,14.67,6.28,23.9,6.28c9.23,0,16.36-3.05,23.9-6.28c7.57-3.24,15.41-6.6,25.45-6.6c10.04,0,17.87,3.35,25.45,6.6
					c7.54,3.23,14.67,6.28,23.9,6.28c4.03,0,8.04-0.6,12.24-1.83l1.1,3.77C137.8,172.46,133.43,173.11,129.02,173.11z"/>
			</g>
		</g>
	</g>
	<g>
		<g>
		</g>
	</g>
	<path class="st21" d="M117.61,118.57c0,0,298.99,1.09,324.37-0.78c0,0,5.51-1.1,6.37-5.07c0.87-3.97,2.26-6.94,4.35-6.63
		s29.01,15.7,29.01,15.7l26.55,33.24l-7.21,17.35c0,0-0.86,3.36-1.19,5.43c-0.32,2.07-0.87,2.31,2.29,8.69
		c3.15,6.38-6.04,5.12-6.04,5.12l-0.02,9.33c0,0-0.17,3.77,1.38,5.47l-1.48,8.93c0,0,1.95,5.46,7.06,3.62
		c5.11-1.84,6.87-4.37,6.87-4.37l3.77,1.38c0,0,6.71-0.61,7.2-0.58c0.49,0.03,2.3-2.43,2.3-2.43s1.03,3.28,4.32,2.15
		c3.29-1.13,6.62,0.26,6.62,0.26s3.17,0.71,5.95,3.71c2.78,3-2.19,102.17-2.19,102.17l45.2-6.95c0,0-1.26-0.04,3.6,3.44
		c2.24,4.31,0.36,8.38,0.36,8.38l-14.87,12.64c0,0-4.66-0.66-7.35-2c-2.68-1.34-12.95-6.87-12.95-6.87l-10.7,15.21l-4.07,7.31
		l-0.01,7.7c0,0-2.11-1.69-5.06,0.26c-2.95,1.95-23.8-15.65-23.8-15.65l-70.19-56.51l-0.63-13.96c0,0-2.76-5.19-7.43-4.34
		c-4.67,0.85-11.47,4.38-11.47,4.38l-7.46,0.32l-58.48-6.59l-41.48,7.95l-10.58,0.61l-19.75-8.25l-131.07,10.92l-8.06-0.26
		l-37.72-82.39L117.61,118.57z"/>
	<g>
		<path class="st21" d="M143.37,269.06c-0.47-1.51-1.37-3.1-0.69-4.61c0.99-2.2,0.7-4.35,0.36-6.54c-0.33-2.12,0.11-3.34,2.61-2.88
			c2.03,0.38,3.29-0.51,3.66-2.53c1.76-9.57,3.98-19.06,4.4-28.84c0.12-2.87-0.89-4.58-3.8-5.73c-4.54-1.8-8-4.82-7.7-10.42
			c0.06-1.16-0.22-2.31-0.43-3.46c-0.85-4.72,0.1-5.64,4.7-4.65c4.33,0.93,5.09,0.45,5.85-3.74c1.67-9.16,3.19-18.35,4.89-27.51
			c0.25-1.37,0.43-2.76-0.16-4.06c-0.89-1.96-0.63-3.86-0.23-5.89c1.04-5.18,2.73-10.25,2.93-15.58c0.14-3.61,0.08-6.97-4.75-7.89
			c-2.3-0.44-2.39-1.95-0.62-3.63c0.92-0.87,1.83-1.76,2.92-2.44c0.43-0.27,1.02-0.57,0.9-1.17c-0.14-0.74-0.87-0.83-1.48-0.92
			c-1.58-0.23-3.17,0.01-4.76,0.02c-3.75,0.03-4.62-0.74-5.12-4.49c-0.5-3.8-0.8-4.03-4.87-3.71c-10.67,0.51-21.35,0.14-32.03,0.07
			c-2.09-0.01-2.98,0.71-3.43,2.7c-1.12,5.05-2.41,10.06-3.67,15.08c-10.49,42.01-21,84.01-31.45,126.03
			c-1.06,4.27-2.32,8.48-1.22,13.09c0.63,2.64,1.74,3.05,4.1,2.93c15.85-0.78,31.71-0.31,47.57,0.04c4.09,0.09,8.25-0.47,12.31,0.48
			c2.93,0.66,5.87-0.2,8.8,0.02c2.57,0.19,2.85-1.32,2.59-3.2C145.25,273.35,144.07,271.28,143.37,269.06z"/>
		<path class="st21" d="M565.39,284.12c-0.38-0.34-0.88-0.68-1.36-0.73c-5.54-0.63-8.36-5.01-11.53-8.66
			c-2.22-2.56-1.17-5.25,2.21-5.84c2.36-0.41,2.6-1.8,3.67-3.45c2.23-3.46,3.95-6.45,3.43-10.92c-0.21-1.8-0.18-3.08-1.47-4.42
			c-5.27-5.44-10.02-11.42-12.03-18.76c-1.57-5.74-5.5-9.26-9.31-13.4c-0.6,2-1.15,3.72-2.39,5.08c-1.98,2.16-3.72,5.31-6.92,5.01
			c-3.42-0.32-3.83-4.12-5.19-6.65c-0.51-0.95-0.36-2.04-0.29-3.11c0.2-3.05-0.98-6.03-3-8.25c-0.77-0.85-1.36-1.88-2.03-2.82
			c-0.21-0.58-0.38-1.19-0.65-1.75c-0.39-0.79-0.98-1.62-1.91-0.89c-0.99,0.77,0.14,1.25,0.57,1.68c1.05,1.03,0.7,2.35,0.86,3.56
			c0,0,0,0,0,0c0,0,0,0,0,0c-1.2,1.38,0.48,4.53-2.83,4.61c-1.97,1.86-3.91,3.76-1.78,6.69c1.74,2.4,1.95,5,1.5,7.85
			c-0.28,1.76-0.64,3.57-0.49,5.36c0.28,3.47-1.49,5.28-4.35,6.96c-6.21,3.64-12.63,6.92-18.64,10.89
			c-2.08,1.37-3.18,2.95-2.57,5.54c1.82,7.72,3.4,15.5,5.44,23.18c0.47,1.76,1.02,3.64,2.59,4.62c5.04,3.13,7.54,8.01,9.95,13.14
			c3.1,6.59,2.76,9.19-2.64,14.05c-0.63,0.57-1.31,1.08-1.92,1.67c-2.95,2.82-3.03,3.61-0.7,6.9c0.37,0.52,0.81,1.03,0.87,1.67
			c0.26,2.69,1.9,2.57,3.88,2.03c2.75-0.76,5.49-1.57,8.39-1.67c2.84-0.1,4.95,0.85,6.06,3.61c0.4,0.98,0.81,2.2,1.86,2.47
			c4.48,1.13,5.3,4.91,6.06,8.49c1.34,6.33,3.65,12.38,5.17,18.65c0.22,0.92,0.44,1.88,1.12,2.59c1.18,1.23,2.74,1.18,4.12,0.77
			c1.11-0.33,1.25-1.32,0.3-2.21c-1.75-0.4-2.55-1.5-2.06-3.23c0.44-1.54,1.74-2.12,3.23-1.97c1.25,0.12,2.5,0.42,3.71,0.79
			c2.52,0.75,3.46,0.46,2.73-2.61c-1.36-5.73,0.87-8.16,6.37-7.15c-0.45-1.81-0.99-3.49-1.26-5.22c-0.62-4.06,1.79-6.11,5.64-4.8
			c1.49,0.51,2.87,1.36,4.33,1.97c1.46,0.61,3.54,2.48,4.41,0.71c1.05-2.14,3.91-4.16,2.28-7.08c-1.16-2.06-0.51-3,1.3-3.97
			c4.01-2.16,7.97-4.41,11.28-7.61c0.9-0.87,2.11-1.67,1.68-3.16c-0.8-2.75,0.09-5.2,1.1-7.68c0.65-1.58,1.08-3.26,0.66-4.96
			c-1.32-5.39-3.58-10.38-6.73-14.94c-1.02-1.47-2.45-2.5-4.34-1.4C570.63,287.14,567.93,286.4,565.39,284.12z"/>
		<path class="st21" d="M299.09,248.34c-1.83,0.39-3.62,1.12-5.56,0.68c-1.6-1.79-3.61-2.83-5.85-3.65
			c-5.85-2.13-6.77-4.04-4.81-10.05c0.55-1.69,0.15-2.51-1.49-3.12c-2.77-1.02-5.28,0-7.68,0.98c-3.71,1.52-7.48,3.18-8.03,7.97
			c-0.08,0.71-0.65,1.02-1.26,1.28c-3.62,1.54-5.16,0.74-6-3.14c-0.13-0.62-0.26-1.24-0.37-1.87c-0.71-4.27-1.06-4.58-5.42-3.81
			c-5.83,1.04-11.67,2.07-17.44,3.45c-2.77,0.67-5.54,1.44-8.43,1.41c-5.48-0.07-8.55-5.05-6.18-10.02c0.5-1.05,1.25-1.97,1.73-3.03
			c0.54-1.17,0.57-2.32-0.68-3.05c-1.15-0.67-2.03,0.05-2.78,0.84c-1.43,1.52-2.07,3.42-2.49,5.41c-0.72,3.43-2.43,6.41-4.98,8.67
			c-1.79,1.59-2.71,3.01-2.12,5.42c0.48,1.96-0.53,2.78-2.5,2.36c-3.52-0.76-7.07-1.33-10.59-2.09c-1.75-0.38-3.13-1.21-3.75-3.03
			c-0.45-1.32-1.42-2.35-2.17-3.49c-3.28-5.02-8.99-5.22-11.7-0.33c-1.16,2.1-2.38,2.48-4.2,0.88c-0.63-0.56-1.39-0.96-2.08-1.46
			c-2.87-2.04-2.92-2.43-0.56-5.15c1.46-1.69,3.16-3.34,2.75-5.81c-0.49-2.94-0.52-5.89-0.77-8.84c-0.31-3.55-3.14-6.22-6.68-6.43
			c-6.51-0.39-12.57,5.43-12.45,12.44c0.18,10.49-2.48,20.54-4.22,30.74c-0.37,2.15-1.41,3.78-3.92,3.83
			c-2.11,0.04-2.41,1.36-2.1,3.04c0.27,1.47,0.47,2.93-0.08,4.38c-0.68,1.79-0.42,3.52,0.25,5.26c1,2.57,1.94,5.16,2.2,7.93
			c0.18,1.89,1.17,2.39,3,2.3c2.72-0.14,5.46-0.62,8.2-0.11c9.39-0.58,18.8-0.4,28.2-0.65c2.89-0.08,3.87,0.93,3.54,3.63
			c-0.13,1.05-0.22,2.1-0.29,3.15c-0.04,0.63-0.03,1.3,0.61,1.68c1.48,0.89,5.96-1.18,6.17-2.93c0.8-6.7,2.58-6.67,7.9-6.65
			c7.22,0.02,14.54,0.05,21.53,2.48c0.54,0.19,1.32,0.16,1.83-0.09c4.32-2.15,9.01-2.14,13.64-2.28
			c18.18-0.55,36.35-1.01,54.53-1.49c1.13-0.03,2.38-0.37,3.11,0.94c0.58-0.34,1.22-0.29,1.85-0.33c4.72-0.29,4.92-0.49,4.73-5.28
			c-0.25-6.34-0.49-12.67-0.82-19C304.21,248.4,302.97,247.53,299.09,248.34z"/>
		<path class="st21" d="M516.4,375.69c-1.26-1.71-1.51-3.23,0.3-4.66c0.5-0.4,1.17-0.71,1.1-1.42c-0.36-3.82,2.05-6.03,4.66-8.14
			c2.5-1.32,4.88-3.06,7.84-0.79c0.84,0.64,1.79-0.23,2.35-1.07c0.66-0.98,0.41-2.07,0.13-3.08c-2.1-7.53-4.2-15.07-6.31-22.6
			c-0.46-1.64-1.53-2.76-3.26-3.13c-1.49-0.32-2.27-1.36-2.98-2.62c-2.34-4.11-3.62-4.64-8.28-3.62c-2.9,0.63-5.72,1.56-8.61,2.22
			c-1.75,0.4-3.09,0.38-2.42-2.04c0.45-1.63-0.18-2.91-1.29-4.01c-1.71-1.69-1.44-3.34,0-5.04c1.58-1.86,3.2-3.71,5.22-5.08
			c2.83-1.93,3.08-4.48,2.44-7.54c-0.56-2.67-2.56-4.68-3.2-7.19c-0.86-3.44-2.87-5.88-5.64-7.75c-3.1-2.09-4.69-4.98-5.56-8.53
			c-1.62-6.57-2.97-13.21-4.58-19.78c-0.93-3.77-2.04-4.32-5.34-2.31c-9.05,5.48-18.49,10.29-27.27,16.23
			c-5.07,3.43-10.02,7.13-16.06,8.84c-0.78,0.22-2,0.39-1.73,1.79c0.21,4.33,0.44,8.66,0.64,12.99c0.21,4.59,0.21,4.63,4.72,3.68
			c1.33-0.28,2.73-0.73,2.95,1.13c0.4,3.33,1.48,6.54,1.26,10.01c-0.16,2.58-0.95,5.22-0.75,7.64c0.42,5.2,2.87,9.48,8.24,11.38
			c4.15,1.46,7.29,4.18,9.7,7.81c1.52,2.29,3.46,4.36,4.64,6.8c2.43,5.06,6.75,6.98,11.82,7.82c2.71,0.45,4.12,2,3.71,4.56
			c-0.77,4.85-1.13,9.57,1.23,14.12c0.14,0.26,0.06,0.63,0.1,0.94c0.67,5.02,1.39,10.04,2,15.07c0.24,1.96,0.94,2.51,2.88,1.68
			c2.49-1.08,5.23-1.2,7.79-0.48c4.66,1.31,7.66-1.79,10.48-4.24c1.75-1.52,3.22-3.17,5.46-3.96
			C518.65,379.97,518.92,379.11,516.4,375.69z"/>
		<path class="st21" d="M453.52,117.48c0.39,1.39,0.84,2.77,0.35,4.22c-1.03,2.97-0.18,4.94,2.77,6.37c2.94,1.42,5.72,3.21,8.4,5.07
			c1.65,1.15,3.95,0.4,5.24,1.93c1.44,1.71,3.2,1.77,5.15,1.71c2.55-0.08,5.05-0.33,7.43-1.37c1.08-0.47,2.27-0.88,3.27,0.09
			c1.52,1.46,3.18,2.81,4.32,4.62c1.24,1.98,0.82,3.14-1.29,3.87c-3.44,1.19-4.67,2.8-4.85,6.36c-0.11,2.12,0.67,3.64,3.01,3.49
			c2.9-0.18,3.48,1.33,3.11,3.74c-0.22,1.45-0.27,2.93-0.9,4.32c-1.42,3.18,0.07,7.55,3.23,9.04c1.39,0.66,2.48,1.45,3.44,2.64
			c0.96,1.21,2.17,2.16,3.67,0.58c0.39-0.61,0.7-1.28,1.17-1.8c1.5-1.64,5.23-2.49,6.35-1.52c0,0,0,0,0,0
			c0.27,1.71-0.3,3.56,0.82,5.14c0,0,0,0,0,0c0.53,1.96,2.14,2.14,3.75,2.2c0.67,0.03,1.68,0.27,1.8-0.76
			c0.08-0.71-0.69-0.97-1.31-1.13c-1.47-0.38-2.82-0.94-3.59-2.37c-0.27-1.05-0.53-2.09-0.8-3.14c0,0,0,0,0,0c0,0,0,0,0,0
			c1.13-4.3,1.94-4.88,6.06-3.77c1.35,0.36,1.51-0.42,2.12-1.17c1.67-2.09,2.87-4.96,6.1-5.03c2.89-0.06,2.97-1.88,2.66-3.87
			c-0.28-1.78-1.21-3.03-3.29-3.29c-2.34-0.29-3.94-1.51-3.81-4.18c0.13-2.5,2.01-2.62,3.83-2.87c1.46-0.2,3.15-0.07,4.34-0.76
			c5.84-3.44,11.91-5.98,18.8-6.26c1.04-0.04,1.76-1.11,2.48-1.89c0.72-0.78,1.39-1.61,2.18-2.3c1.1-0.97,2.22-0.93,2.73,0.58
			c1.06,3.12,2.55,1.37,3.56,0.2c1.75-2.01,2.45-4.65,3.64-7.01c0.88-1.75,1.38-3.99,3.62-4.53c2.55-0.62,1.57-2.3,1.37-3.75
			c-0.25-1.79-1.22-2.28-2.93-1.58c-1.46,0.61-2.24-0.43-2.62-1.56c-0.33-0.97-0.33-2.07-0.39-3.11c-0.15-2.63-1.05-3.17-3.3-1.73
			c-2.16,1.39-3.85,3.31-5.07,5.58c-1.79,3.33-6.86,3.99-8.75,0.65c-1.63-2.88-3.97-3.88-6.69-4.72c-2.1-0.66-2.97-1.84-2.12-4.05
			c0.58-1.5,0.12-2.9-0.68-4.23c-3.17-5.21-4.82-11-6.39-16.82c-1.16-4.31-1.68-8.7-1.96-13.14c-0.05-0.8,0.39-2.98-1.69-1.8
			c-3.24,1.83-5.73,0.68-8.38-1.28c-4.42-3.27-7.29-3.25-11.86-0.13c-2.66,1.82-5.51,3.17-8.7,3.61c-4.8,0.66-7.48,3.09-8.21,8.09
			c-0.81,5.56-2.14,6.19-7.5,4.72c-0.51-0.14-1.01-0.3-1.52-0.44c-8.17-2.19-12.98,1.71-12.59,10.21c0.02,0.53,0.02,1.06,0.03,1.58
			c0.39,1.32,0.38,2.62,0.11,3.99c-0.32,1.57-1.13,1.85-2.46,1.43c-0.31-0.03-0.62-0.05-0.94-0.05c-1.66,0-3.17-0.9-4.91-0.68
			c-3,0.38-3.8,1.46-2.93,4.41C452.76,112.34,452.92,114.95,453.52,117.48z"/>
		<path class="st21" d="M687.34,303.69c-3.34-12.23-6.52-24.55-13.65-35.33c-6.91-10.45-16.03-17.62-28.84-19.24
			c-2.98-0.38-5.92-0.23-8.71,1.04c-3.91,1.77-4.07,2.98-0.76,5.55c1.34,1.04,2.52,2.22,3.41,3.72c0.67,1.13,1.25,2.44,3.18,3.04
			c-0.15-0.89-0.25-1.39-0.31-1.9c-0.58-5.45,3.58-9.04,8.8-7.3c4.94,1.65,8.63,4.82,10.37,9.95c2.52,7.43,2.7,15.15,2.94,22.87
			c0.07,2.3,0.29,4.57,1.64,6.59c-0.03-2.17-0.68-4.32,0.12-6.44c0.74-1.96,1.81-3.95,4.08-3.91c2.47,0.04,2.72,2.43,2.9,4.26
			c0.2,2.07,1.07,3.33,3,3.99c0.89,0.31,2.09,0.82,1.68,1.94c-1.71,4.7,0.39,9.16,0.64,13.73c0.23,4.19-1.06,7.81-4.79,10.06
			c-5.54,3.34-11.33,6.09-17.84,7.19c-7.39,1.24-14.57,3.03-18.99,10.03c-0.79,1.25-2.17,1.46-3.3,0.39
			c-3.57-3.36-7.91-3.49-12.45-3.44c-12.9,0.16-24.86-2.37-33.8-12.76c-0.8-0.93-1.37-0.64-2.04,0.13
			c-3.17,3.66-7.16,6.22-11.39,8.49c-0.89,0.48-2.08,0.98-1.51,2.37c0.9,2.17-0.05,3.87-1.16,5.62c-0.45,0.71-1.16,1.44-0.13,2.48
			c2.97,3.01,3.01,3.65,0.04,6.56c-1.46,1.43-1.71,2.67-0.83,4.45c0.8,1.62,1.66,3.74,0.71,5.16c-1.32,1.98,0.01,3.35,0,4.95
			c-0.02,4.54,1.12,9.25,0.45,13.42c-0.63,3.9-1.17,9.25-6.54,11.04c2.41,2.3,4.02,2.11,5.23-0.63c1.16-2.65,3.72-3.36,6.18-3.96
			c4-0.99,8.04-1.79,12.19-1.97c7.51-0.33,13.39-3,15.44-11.02c0.74-2.88,2.56-4.18,5.61-3.88c3.5,0.35,6.08-0.98,7.76-4.25
			c1.35-2.63,3.55-3.93,6.59-2.57c1.85,0.83,3.54,0.04,5.25-0.43c4.12-1.12,4.93-0.67,5.84,3.43c0.12,0.51,0.09,1.16,0.74,1.21
			c0.31,0.03,0.88-0.33,0.94-0.6c1.1-4.99,5.59-5.67,9.3-7.12c6.5-2.54,13.51-3.37,20.08-5.78c4.25-1.56,8.66-2.8,13.3-2.7
			c4.6,0.1,7.79,2.76,6.63,6.82c-1.89,6.64-0.76,14.05-5.14,20.02c-0.5,0.68-0.85,1.54,0.06,2.25c1.06,0.83,1.85,0.13,2.42-0.62
			c1.04-1.37,1.64-2.94,1.7-4.7c0.22-6.96,1.54-13.52,5.44-19.56c1.93-2.99,2.2-6.78,2.17-10.44
			C691.92,324.96,690.23,314.23,687.34,303.69z"/>
		<path class="st21" d="M442.15,280.46c3.03-1.27,5.86-2.94,8.62-4.72c18.51-11.9,37.56-22.89,56.54-33.99
			c3.97-2.32,7.07-4.49,6.29-9.66c-0.18-1.2,0.15-2.53,0.37-3.77c0.41-2.31,0.04-4.3-1.35-6.27c-1.08-1.54-1.8-3.35-1.69-5.36
			c0.05-0.87-0.04-1.71-1.01-2.11c-1.75-0.61-3.39-0.43-5.21,0.09c-4.12,1.19-7.49-1.21-7.56-5.14c-0.02-1.04,0.2-2.09,0.31-3.13
			c-3.14-1.7-4.34-1.42-4.64,1.08c-0.62,5.15-1.2,5.78-6.21,6.67c-3.11,0.55-5.68,1.69-6.3,5.26c-0.16,0.93-0.82,1.71-1.33,2.51
			c-1.44,2.27-2.52,2.26-3.79-0.1c-0.69-1.29-1.12-2.65-2.4-3.64c-3.68-2.81-7.25-5.79-10.13-9.46c-3.71-4.74-8.11-7.35-14.3-5.11
			c-0.49,0.18-1.04,0.21-1.55,0.35c-4.03,1.15-4.73,2.59-3.08,6.51c1.07,2.53,2.35,4.97,3.24,7.58c0.4,1.18,0.64,2.44-0.98,2.78
			c-2.24,0.48-2.6,2.15-2.98,3.97c-0.57,2.69-1.02,6.2-3.06,7.43c-3.5,2.12-7.17,4.54-11.01,5.66c-5.57,1.63-9.22,4.23-10.2,10.06
			c-0.18,1.1-0.78,1.97-1.59,2.67c-1.68,1.46-1.89,3.19-1.12,5.17c0.87,2.22,1.11,4.57,0.79,6.87c-0.39,2.76-0.23,5.49-0.09,8.22
			c0.19,3.8,0.42,3.98,4.11,3.73c1.79-0.12,3.59-0.39,5.35-0.44c3.73-0.1,7.5-1.88,11.21,0.05c0.11,2.07,0.23,4.13,0.34,6.2
			C439.2,281.9,440.74,281.05,442.15,280.46z"/>
		<path class="st21" d="M604.25,402.2c-1.25,0.02-1.69,1.18-2.02,2.18c-0.54,1.59-0.89,3.25-1.45,4.84
			c-0.38,1.06-1.22,1.79-2.42,1.72c-1.06-0.06-1.66-0.76-1.93-1.8c-0.6-2.3-2.44-3.02-4.51-3.39c-2.89-0.51-4.39-2.36-4.89-5.11
			c-0.13-0.7,0.07-1.46,0.12-2.19c0.15-2.22-0.73-4.13-1.82-5.96c-0.94-1.59-2.32,0.07-3.47-0.42c-1.03-0.44-2.48-0.18-2.98-1.48
			c-0.74-1.93-1.71-0.98-2.64-0.31c-3.43,2.46-6.84,4.96-10.26,7.44c-2.88,2.1-4.85,4.76-6.26,8.14c-2.11,5.05-4.83,9.85-8.43,14.08
			c-1.29,1.51-2.71,2.12-4.76,1.42c-1.88-0.64-3.88-1.03-5.92-0.42c-1.61,0.49-2.07,1.33-1.04,2.78c2.39,3.34,5.54,5.79,9.11,7.72
			c0.89,0.48,1.99,0.72,2.28-0.64c1.15-5.35,5.79-6.73,9.9-8.36c8.23-3.27,17.04-2.69,25.67-3.11c5.39-0.23,10.78-0.54,16.17-0.65
			c2.57-0.06,3.66-1.28,3.72-3.67c0.09-3.5-0.13-6.98-0.71-10.42C605.57,403.73,605.82,402.17,604.25,402.2z"/>
		<path class="st21" d="M687.84,419.27c-2.21-4.57-4.26-9.24-8.14-12.72c-0.9-0.81-2.07-2.42-3.1-1.62
			c-1.15,0.89,0.37,2.21,0.93,3.22c3.39,6.03,3.12,8.32-1.44,13.51c-2.18,2.48-4.85,4.03-7.93,5.01c-4.48,1.42-9.19,1.3-13.75,2.14
			c-4.52,0.83-8.82,1.34-12.42-2.38c-0.35-0.36-0.9-0.54-1.39-0.74c-0.9-0.37-2.06-0.72-2.69,0.01c-0.75,0.87,0.25,1.74,0.8,2.42
			c1.01,1.23,2.28,2.18,3.66,3c4.85,2.91,10.25,4.48,15.54,6.31c7.91,2.74,16.22,0.32,23.9,1.78c1.5-0.21,2.65-0.35,3.8-0.54
			c6.85-1.11,9.07-5.5,5.96-11.69C690.26,424.43,689.08,421.84,687.84,419.27z"/>
		<path class="st21" d="M492.22,203.84c4.85,0.03,3.71-3.22,3.85-5.96c0.03-0.67,0.6-1.31,0.92-1.96c1.9-3.37,1.9-3.37,9.53-1.06
			c-2.72-4.04-4.14-8.28-6.26-12.17c-1-1.05-0.71-2.34-0.71-3.6c0-0.76,1.07-2.43-0.58-2c-1.53,0.4-3.76-2.07-4.64,1.02
			c-1.23,4.29-4.07,7.41-7.52,10.11c0.06,1.26,3.09,1.98,0.64,3.77c-3.71,2.72-7.09,5.75-8.17,10.56c-0.13,0.6-0.51,1.16-0.87,1.68
			c-1.81,2.59-3.36,5.52-7.4,4.75c-1.26-0.24-1.77,1-2.28,1.87c-0.61,1.05,0.67,1.34,1,2.02c1.62,3.39,6.78,3.34,7.09,7.99
			c1.01-0.95,2.03-1.55,1.94-2.53c-0.28-3.08,1.99-3.93,4.08-4.92c1.33-0.63,2.77-0.97,4.26-1.15c3.3-0.4,4.07-1.45,3.55-4.71
			C490.37,205.87,490.91,203.83,492.22,203.84z"/>
		<path class="st21" d="M543.76,401.93c2.3,0.05,4.15-0.85,5.49-2.65c3.78-5.08,7.51-10.17,13.92-12.69
			c-3.32-2.39-3.26-2.3-5.88-0.33c-4.31,3.26-7.38,8.03-12.1,10.64c-6.01,3.32-12.04,6.55-17.45,10.81c0,0,0,0,0,0s0,0,0,0
			c-0.85,0.25-1.7,0.51-2.55,0.76c0,0,0,0,0,0c0,0,0,0,0,0c-0.31-0.04-0.7,0.02-0.92-0.14c-2.9-2.06-4.01,0.51-5.48,2.1
			c-0.3,0.32-0.44,0.83-0.07,1.1c0.27,0.2,0.83,0.25,1.15,0.11c1.8-0.83,3.56-1.74,5.33-2.62c1.32-0.07,2.7,0.22,3.88-0.66
			c0,0,0,0,0,0c2.28,0.01,4.54-0.21,5.95-2.29C537.15,402.92,540.17,401.85,543.76,401.93z"/>
		<path class="st21" d="M528.86,224.14c0.31,0.91,1.06,1.21,2.05,0.8c1.96-0.81,4.21-4.47,4.02-6.89c0.9-1.58,0.07-2.51-1.65-3.01
			c-1.37-0.4-2.6-1.71-4.15-0.93c-0.89,0.44-2.53,0.77-1.32,2.45c0.33,0.46,0.6,1,0.19,1.44
			C525.72,220.42,528.18,222.17,528.86,224.14z"/>
		<path class="st21" d="M414.72,242.58c-1.01-0.56-1.59-1.37-1.72-2.5c-0.24-2.08-1.48-2.38-3.34-2.25
			c-2.66,0.19-4.82,1.09-8.04-0.73c-7.94-4.49-7.39-8.73-5.43-15.29c1.09-3.67,5.1-5.4,8.84-4.52c2.36,0.56,5.13,0.49,6.25-1.98
			c1.2-2.65,1.57-5.68,2.23-8.56c0.29-1.28-0.18-2.16-1.66-1.88c-4.11,0.79-8.56,0.52-11.94,3.63c-1.46,1.35-2.42,0.83-3.75-0.3
			c-1.85-1.58-2.17-4.23-4.03-5.61c-2.47-1.83-3.95-3.38-0.32-5.45c0.56-0.32,0.96-0.88,0.66-1.61c-0.61-1.47,0.51-2.18,1.37-2.88
			c1.45-1.18,1.99-2.06-0.16-3.08c-1.59-0.76-1.16-1.85,0.02-2.65c0.77-0.53,1.74-0.76,2.57-1.21c1.62-0.86,4.09-0.82,4.54-3.01
			c0.71-3.46,1.99-7.2,0.34-10.47c-1.31-2.6-1-4.56,0.12-6.82c0.8-1.61,1.73-3.17,2.34-4.85c0.97-2.68,0.02-4.66-2.66-5.48
			c-1.94-0.6-3.98-1.62-5.94,0.22c-0.92,0.86-2.04,0.18-3.01-0.12c-3.14-0.95-4.05-0.34-3.61,2.96c0.3,2.31-0.76,2.55-2.53,2.36
			c-1.05-0.11-2.1-0.19-3.15-0.29c-3.34-0.31-4.4-1.67-4.08-5c0.42-4.41,0.66-8.85,1.21-13.24c0.19-1.52-0.41-2-1.54-2.62
			c-8.58-4.75-17.8-4.6-27.14-3.73c-0.31,0.03-0.64,0.11-0.91,0.26c-2.68,1.49-3.75,0.54-3.47-2.31c0.47-4.78-0.53-8.82-5.19-11.25
			c-0.49-0.25-0.71-1-1.06-1.51c-1.11-1.42-2.47-1.89-4.36-1.86c-11,0.19-22,0.21-33,0.29c-8.25,0.07-16.51,0.15-24.76,0.25
			c-0.71,0.01-1.52-0.15-2,0.63c-0.98,1.62,0.73,6.15,2.61,7.04c4.53,2.16,8.57,4.68,7.34,10.78c-0.14,0.72-0.35,1.48-0.24,2.17
			c0.29,1.89-0.35,2.79-2.26,3.46c-3.4,1.2-4.12,2.82-3.46,6.63c0.18,1.05,0.31,2.16-0.75,2.41c-1.84,0.43-1.34,1.61-1.11,2.65
			c0.43,1.96,1.04,3.85,2.07,5.62c3.2,5.5,3.26,5.62-1.41,10.18c-2.12,2.07-3.02,4.1-2.03,7.01c1.05,3.09,0.5,6.21-1.28,8.83
			c-3.06,4.5-2.77,9.39-2.35,14.38c0.09,1.08,0.2,1.92,1.67,1.34c2.21-0.88,3.13,0.42,3.54,2.33c0.31,1.44,0.54,2.9,0.81,4.36
			c0.77,4.14,0.77,4.13,4.8,3.18c1.54-0.37,3.09-0.71,4.63-1.06c0.99-0.22,2.51-0.11,2.36,0.82c-0.52,3.11,2.55,5.88,0.64,9.07
			c-0.8,1.34-0.42,2.84,0.04,4.31c0.34,1.09,0.62,2.36-0.77,3.06c-3.41,1.72-5.01,5.04-6.91,8.02c-1.83,2.88-1.17,4.45,1.96,6.03
			c2.17,1.09,4.81,1.27,6.62,2.97c1.4,1.32,2.85,1.62,4.6,1.36c1.35-0.96,2.94-0.7,4.45-0.85l-0.02,0.01
			c3.5-1.26,3.91-1.03,4.05,2.44c0.34,8.23,0.68,16.46,0.92,24.7c0.05,1.86,0.59,2.63,2.58,2.56c3.48-0.11,6.97,0.22,10.44,0.05
			c13.19-0.62,26.42,0.08,39.59-1.07c1.98-0.17,3.99,0.02,5.07,1.85c0.95,1.61,2.14,1.81,3.71,1.58c5.65-0.83,11.35-1.02,17.05-1.3
			c8.96-0.45,17.9-1.17,26.81-2.3c1.43-0.18,2.82-0.19,2.88-2.13c0.5-0.65,0.55-1.29-0.03-1.92c-0.05-1.06-0.08-2.11-0.15-3.17
			c-0.27-3.99,0.61-8.18-0.95-11.92c-1.14-2.74-0.49-4.37,1.47-6.06C418.18,247.18,417.89,244.32,414.72,242.58z"/>
		<path class="st21" d="M151.41,125.03c2.42-0.19,4.86-0.13,7.24-0.78c1.18-0.32,2.68-0.37,2.86,1.08c0.24,1.96,0.19,4.3-2.26,4.99
			c-1.72,0.49-2.27,1.61-2.83,3c4.19,0.52,5.69,2.53,5.38,7.16c-0.25,3.69-0.73,7.34-1.54,10.96c-1.66,7.43-1.62,7.44,5.77,8.84
			c9.11,1.73,9.17,1.73,9.93,11.07c0.23,2.78,1.44,4.22,4.21,4.59c3.24,0.44,6.47,1,9.68,1.64c2.29,0.46,5.18,1.14,5.93,3.13
			c0.98,2.61,2.18,1.88,3.82,1.49c1.23-0.29,2.51-0.37,3.74-0.69c1.82-0.47,2.68,0.23,2.6,2.03c-0.07,1.68-0.34,3.36-0.45,5.04
			c-0.16,2.34,0.35,3.43,3.26,2.85c9.73-1.93,19.26-4.79,29.08-6.3c3.57-0.55,4.6-0.29,5.54,3.26c0.47,1.77,1.12,1.79,2.64,1.45
			c4.22-0.95,8.51-1.62,12.73-2.56c2.45-0.55,3.78,0.03,4.25,2.67c0.48,2.69,1.09,5.36,1.91,7.99c1.26,4.07,1.9,8.3,2.41,12.72
			c2.72-2.63,4.01-5.59,3.63-9.39c-0.47-4.83-1-9.74,1.87-14.17c2.15-3.32,2.59-6.91,1.3-10.6c-0.74-2.12-0.17-3.68,1.27-5.16
			c0.96-0.98,1.78-2.14,2.85-2.97c2.11-1.64,1.98-3.07,0.62-5.33c-2.54-4.2-5.15-8.62-1.56-13.66c0.27-0.38,0-1.24-0.2-1.82
			c-0.52-1.53-0.18-2.48,1.28-3.4c3.07-1.95,5.52-4.31,5.21-8.54c-0.11-1.51,0.08-2.32-1.7-3.02c-4.7-1.86-8.37-4.76-8.21-10.56
			c0.06-2.17-1.29-2.71-3.29-2.71c-13.95,0-27.9-0.07-41.85-0.13c-14.69-0.06-29.39,0.05-44.08-0.31c-4.83-0.12-9.69,0.62-14.5-0.4
			c0,0,0,0.02,0,0.02c-6.24,0.04-12.47,0.15-18.71,0.08c-2.52-0.03-2.62,1.47-2.67,3.29C148.52,123.9,149.05,125.21,151.41,125.03z"
			/>
		<path class="st21" d="M285.25,215.2c-7.13,1.06-7.11,1.08-8.44-6.41c-0.19-1.07-0.05-2.82-1.21-2.94
			c-1.27-0.13-2.38,1.06-3.16,2.29c-1.35,2.14-2.81,4.21-4.24,6.31c-0.77,1.14-1.53,2.62-3.18,2.02c-1.79-0.65-1.55-2.48-1.23-3.85
			c0.62-2.67,0.11-5.18-0.17-7.82c-0.44-4.05-2.23-7.72-2.7-11.71c-0.29-2.47-1.46-3.24-3.85-2.7c-3.92,0.87-7.87,1.56-11.8,2.4
			c-2.51,0.54-4.37,0.35-4.5-2.89c-0.05-1.23-0.35-2.52-2.34-2.03c-5.23,1.29-10.64,1.59-15.85,3.09
			c-4.66,1.34-9.43,2.34-14.19,3.31c-3.43,0.7-5.15-0.88-5.56-4.27c-0.22-1.81,1.38-4.29-0.35-5.2c-1.34-0.7-3.63,0.39-5.5,0.7
			c-0.21,0.03-0.4,0.13-0.61,0.19c-2.16,0.65-3.6-0.81-3.74-2.35c-0.21-2.41-1.71-2.69-3.34-3.02c-3.11-0.62-6.25-1.06-9.36-1.67
			c-4.91-0.96-6.83-3.28-6.94-8.29c-0.14-6.32-0.14-6.32-6.57-7.24c-0.52-0.07-1.04-0.2-1.57-0.24c-1.77-0.12-3.79-1.43-5.15-0.41
			c-0.8,0.6-0.17,2.92-0.43,4.42c-1.85,10.71-3.75,21.42-5.68,32.12c-0.54,3.02-1.67,3.61-5.05,2.86c-5.1-1.14-5.1-1.14-4.65,4.92
			c-0.01-0.26,0.09,0.38,0.03,1c-0.46,4.44,2.85,6.33,5.81,8.3c1.41,0.94,2.91,0.67,4.11-0.97c1.24-1.69,2.83-3.13,4.28-4.67
			c3.45-3.68,7.81-3.46,12.09-2.42c3.76,0.92,4.94,2.86,5.22,6.72c0.15,2.1,0.42,4.2,0.68,6.3c0.47,3.88,0.62,7.64-2.83,10.48
			c-1.85,1.51-0.26,2.32,0.79,3.11c1.07,0.81,2.13,1.91,3.22-0.18c1.83-3.52,5.43-4.27,8.72-3.94c1.98,0.2,4.97,0.79,5.82,3.4
			c1.44,4.41,3.12,8.26,8.75,8.16c1.24-0.02,2.49,0.44,3.72,0.76c1.99,0.53,3.33,0.45,2.74-2.24c-0.28-1.26-0.22-2.76,1.05-3.42
			c4.29-2.2,5.8-6.11,6.81-10.41c0.57-2.43,1.63-4.6,3.8-6.02c1.81-1.19,3.6-1.17,5.18,0.45c1.53,1.57,1.78,3.3,0.48,5.15
			c-0.67,0.95-1.48,1.82-2.04,2.82c-2.01,3.55-0.05,7.35,4.01,7.41c2.39,0.03,4.85-0.41,7.18-1.02c6.97-1.81,14.09-2.79,21.12-4.25
			c3.43-0.71,4.36,0.1,4.88,3.55c0.25,1.67,0.59,3.33,0.86,4.99c0.15,0.89,0.63,1.26,1.54,1.18c0.93-0.09,1.66-0.3,1.62-1.47
			c-0.03-0.93-0.35-2.14,0.58-2.66c3.46-1.9,6.05-5.25,10.26-5.94c2.83-0.46,5.54-1.48,8.34-2.12c3.47-0.8,7.58-2.26,6.52-7.56
			c-0.09-0.46,0.2-1.03,0.4-1.52c0.81-2.07-2.18-2.55-1.88-4.66C287.86,214.35,286.1,215.07,285.25,215.2z"/>
		<path class="st21" d="M349.41,131.75c-0.09,1.16,0.77,1.28,1.73,1.23c2.64-0.13,5.29-0.34,7.93-0.23c1.65,0.07,2.36-1.96,4.33-1.3
			c5.51,1.84,11.16,3.27,16.5,5.63c2.29,1.01,3.06,2.54,2.72,5.03c-0.55,3.97-0.88,7.97-1.17,11.97c-0.1,1.35-0.65,3.06,1.58,3.54
			c2.19,0.48,2.3-1.1,2.82-2.49c1.2-3.2,2.93-3.97,6.2-2.88c0.69,0.23,1.47,0.88,2.09,0.34c2.64-2.33,5.26-0.66,7.78,0.06
			c3.05,0.87,4.66,2.99,4.67,6.35c0.01,2.73-1.48,4.79-2.55,7.07c-0.61,1.31-1.77,2.66-0.7,4.13c2.49,3.39,0.52,7,0.66,10.48
			c0.16,4.2-2.47,6.46-6.94,7.51c3.29,2,2.36,3.73,0.36,4.9c-2.53,1.48-1.87,4.62-3.74,6.38c-0.34,0.32,3.93,6.44,4.47,6.41
			c0.4-0.03,0.81-0.21,1.16-0.42c4.22-2.58,8.99-2.84,13.73-3.34c2.78-0.29,3.71,0.92,3.37,3.47c-0.57,4.31-1.81,8.46-2.95,12.64
			c-0.17,0.63-0.46,1.58-1.01,1.43c-2.74-0.75-5.31,1.53-8.05,0.32c-1.95-0.86-3.61,0.19-4.92,1.38c-2.76,2.51-2.09,10.02,1.09,11.9
			c3.44,2.03,7.31,3.13,11.13,1.49c2.73-1.17,3.55,0.2,3.46,2.14c-0.13,3.06,2.03,2.98,3.88,3.75c2.1,0.86,2.11-1.21,3.05-1.91
			c0.85-0.64,1.57-1.49,2.64-1.65c2.73-0.41,4.85-1.79,7.16-3.28c2.82-1.82,6.33-2.22,7.76-6.14c0.67-1.84,2.02-3.48,1.6-5.53
			c-0.36-1.78,0.06-2.76,1.9-2.71c2.34,0.06,2-1.05,1.34-2.54c-1.15-2.61-2.32-5.22-3.26-7.91c-0.58-1.67-1.01-3.45,0.85-4.88
			c6.81-5.26,17.47-3.51,22.21,3.73c0.59,0.9,1.06,2.15,2.33,1.02c0.82-0.74,2.35-1.53,0.91-3.06c-1.15-1.21-0.73-2.35,0.31-3.32
			c1.04-0.97,0.87-2.08,0.6-3.23c-1.25-5.2-1.25-5.19,3.36-7.94c0.55-0.32,1.09-0.66,1.6-1.03c3.01-2.19,4-1.99,5.85,1.29
			c0.63,1.13,1.14,2.58,2.77,1.51c1.32-0.86,2.96-1.56,1.81-3.94c-1.33-2.76-0.01-4.99,2.88-5.68c4.48-1.08,6.45-8.02,3.58-11.63
			c-2.55-3.2-5.9-6.48-2.41-11.16c0.46-0.61,0.4-1.62,0.56-2.45c0.29-1.5,0.35-2.69-1.87-2.42c-1.54,0.19-3.15-0.44-3.74-1.91
			c-1.55-3.82,0.41-7.19,1.71-10.64c0.91-2.39,2.97-0.7,4.37-1.29c-1.55-3.9-3.71-5.03-7.21-4.05c-3.79,1.06-7.64,1.85-11.48,0.11
			c-0.48-0.22-0.82-0.35-1.39,0.06c-2.14,1.57-4.98,0.95-5.26-1.5c-0.3-2.67-2-3.45-3.78-4.48c-2.56-1.49-5.12-2.99-7.74-4.37
			c-1.96-1.03-3.44-2-0.99-4.07c1-0.84,0.85-2.08,0.9-3.25c0.11-2.58-0.86-4.98-1.16-7.49c0,0,0.02,0,0.02,0
			c-0.75-1.28-1.51-2.51-2.5-0.18c-1.73,4.05-4.84,5.31-9.13,5.27c-9.41-0.08-18.83,0.23-28.25,0.39
			c-9.84,0.16-19.68,0.39-29.52,0.47c-6.97,0.06-13.95-0.18-20.93-0.08c-5.74,0.08-11.48,0.46-17.21,0.7
			c-0.18,0.2-0.36,0.39-0.55,0.59C347.69,122.58,349.81,126.51,349.41,131.75z"/>
		<path class="st21" d="M471.04,205.38c1.12,1.01,2,1.35,3.13,0.03c2.05-2.41,3.52-5.08,4.56-8.87c-3.49,1.77-5.27,4.32-7.56,6.26
			C470.26,203.56,469.89,204.35,471.04,205.38z"/>
		<path class="st21" d="M477.06,193.5c-0.36-0.77-0.48-2.01-1.88-1.18c-1.45,0.86-2.96,1.65-4.25,2.71
			c-1.43,1.16-0.29,2.27,0.51,3.18C471.72,198.53,477.03,194.13,477.06,193.5z"/>
	</g>
	<g>
		<path class="st6" d="M146.99,279.06l-2.01-0.56c0.46-1.66-0.83-6.14-1.48-7.38c-0.25-0.48-2.44-4.78-1.2-6.47
			c0.29-0.4,0.53-2.43,0.21-5.2c-0.16-1.45-0.25-3.08,0.77-4.05c0.64-0.61,1.58-0.81,2.79-0.6c0.88,0.15,1.55,0.03,1.99-0.35
			c0.7-0.61,0.8-1.88,0.78-2.31l0-0.11l0.02-0.11c1.18-7.24,4.21-26.72,4.02-29.77l0-0.06c-0.08-1.38-0.14-2.29-0.29-2.62
			c-0.06-0.12-0.25-0.22-0.95-0.51c-0.24-0.1-0.5-0.21-0.81-0.35c-2.66-1.19-6.61-4.1-7.7-6.05c-1.1-1.97-1.35-4.44-1.69-8.63
			c-0.15-1.83-0.09-2.96,0.65-3.71c0.84-0.85,2.1-0.75,4.17-0.59c0.71,0.05,1.51,0.11,2.45,0.16c2.21,0.1,2.94-0.22,3.13-0.34
			l-0.23-0.33l0.08-0.43c1.96-10.61,5.7-31.12,5.88-32.76c0.06-0.55-0.11-0.94-0.37-1.53c-0.46-1.06-1.09-2.51-0.28-5.27
			c0.78-2.67,1.83-11.05,2.45-16.06c0.32-2.58,0.49-3.95,0.59-4.41c0.25-1.2-1.82-2.4-3.61-3.2c-1.52-0.68-2.45-1.25-2.68-2.11
			c-0.21-0.78,0.23-1.38,0.55-1.83c0.15-0.21,0.31-0.42,0.43-0.67c0.66-1.32,2.37-2.03,3.74-2.6c0.37-0.15,0.86-0.36,1.04-0.47
			c0.03-0.08,0.04-0.29-0.04-0.55c-0.07-0.23-0.25-0.64-0.74-0.9c-0.43-0.23-1.63-0.05-2.8,0.12c-1.41,0.21-3.17,0.47-5.11,0.35
			c-2.5-0.16-3.62-0.42-3.78-2.24c-0.03-0.3-0.05-0.61-0.23-1.02c-0.94-2.21-0.27-4.93-0.24-5.05l2.02,0.51l-1.01-0.26l1.01,0.25
			c-0.01,0.02-0.53,2.17,0.14,3.72c0.3,0.71,0.35,1.27,0.38,1.65c0,0.04,0.01,0.08,0.01,0.12c0.21,0.06,0.69,0.15,1.82,0.22
			c1.72,0.11,3.29-0.13,4.67-0.33c1.7-0.25,3.05-0.46,4.09,0.1c1.02,0.54,1.72,1.54,1.87,2.67c0.12,0.86-0.11,1.64-0.62,2.12
			c-0.36,0.34-0.92,0.57-1.7,0.9c-0.88,0.37-2.36,0.98-2.67,1.61c-0.2,0.4-0.43,0.71-0.61,0.96c-0.02,0.03-0.05,0.07-0.08,0.11
			c0.21,0.14,0.6,0.37,1.37,0.71c2.33,1.04,5.37,2.75,4.8,5.52c-0.08,0.4-0.3,2.18-0.56,4.25c-0.67,5.4-1.69,13.56-2.52,16.39
			c-0.6,2.04-0.21,2.92,0.19,3.85c0.3,0.7,0.65,1.49,0.53,2.59c-0.22,2.03-5.19,29-5.84,32.57c0.19,0.48,0.24,1.11-0.08,1.7
			c-0.61,1.12-2.24,1.58-5.11,1.46c-0.98-0.04-1.79-0.11-2.52-0.16c-1.08-0.08-2.3-0.18-2.54-0.01c-0.05,0.07-0.18,0.44-0.05,2.06
			c0.34,4.25,0.58,6.27,1.43,7.78c0.78,1.39,4.24,4.05,6.73,5.17c0.29,0.13,0.54,0.23,0.76,0.33c2.28,0.96,2.31,1.56,2.51,4.92
			l0,0.06c0.23,3.83-3.7,28.1-4.03,30.13c0.01,0.56-0.06,2.58-1.47,3.85c-0.93,0.83-2.19,1.12-3.73,0.85
			c-0.59-0.1-0.9-0.04-1.01,0.06c-0.16,0.15-0.31,0.67-0.13,2.3c0.13,1.18,0.48,5.11-0.57,6.63c-0.15,0.51,0.43,2.57,1.34,4.31
			C146.04,271.48,147.68,276.59,146.99,279.06z"/>
	</g>
	<g>
		<path class="st6" d="M265.57,216.01c-0.24,0.01-0.46-0.04-0.68-0.16c-0.29-0.15-1.17-0.79-0.44-2.56c0.39-0.95,0.27-4.19,0.2-6.34
			c-0.04-0.98-0.07-1.91-0.07-2.64c0-0.9-0.37-1.86-0.89-3.19c-0.72-1.83-1.69-4.33-2.14-8.1c-0.2-1.67-0.58-2.71-1.13-3.08
			c-0.69-0.46-2.1-0.07-3.73,0.39c-0.83,0.23-1.78,0.5-2.79,0.69c-1.09,0.21-2.19,0.45-3.24,0.68c-4.56,0.99-7.2,1.5-8.49,0.47
			c-0.7-0.55-0.97-1.36-1.2-2.06c-0.36-1.07-0.64-1.92-2.17-2.38c-1.73-0.52-10.53,1.66-16.95,3.25c-4.56,1.13-8.87,2.2-11.64,2.64
			c-3.23,0.52-4.96,0.35-5.98-0.59c-1.1-1.02-0.97-2.55-0.83-4.33c0.05-0.66,0.11-1.34,0.12-2.09c0.02-1.91-0.16-2.35-0.26-2.44
			c-0.28-0.23-2,0.11-3.51,0.41c-0.47,0.09-0.99,0.2-1.55,0.3c-2.55,0.48-3.77,0.43-4.53-0.21c-0.71-0.6-0.7-1.47-0.68-2.16
			c0.01-0.52,0.02-1.05-0.21-1.57c-0.39-0.86-1.81-1-4.73-1.22c-2.01-0.15-4.52-0.33-7.64-0.91c-7.24-1.35-7.05-6.72-6.92-10.28
			c0.03-0.86,0.06-1.67-0.01-2.31c-0.23-2.04-1.47-2.43-3.35-2.8c-0.33-0.07-0.64-0.13-0.93-0.21c-1.16-0.33-8.27-1.51-10.91-1.93
			l0.33-2.06c0.98,0.16,9.66,1.56,11.15,1.99c0.2,0.06,0.47,0.11,0.76,0.17c1.61,0.32,4.61,0.91,5.02,4.62
			c0.09,0.79,0.06,1.68,0.02,2.61c-0.12,3.51-0.25,7.14,5.22,8.16c3.01,0.56,5.45,0.74,7.41,0.88c3.35,0.24,5.56,0.4,6.48,2.44
			c0.43,0.95,0.41,1.83,0.39,2.47c0,0.17-0.01,0.4,0,0.53c0.22,0.05,0.89,0.1,2.73-0.25c0.56-0.11,1.07-0.21,1.53-0.3
			c2.71-0.54,4.21-0.84,5.25,0.03c0.88,0.73,1.04,2,1.02,4.06c-0.01,0.82-0.07,1.57-0.12,2.23c-0.1,1.18-0.19,2.3,0.17,2.63
			c0.26,0.24,1.15,0.56,4.23,0.07c2.68-0.43,6.95-1.49,11.47-2.6c9.82-2.43,15.93-3.86,18.05-3.22c2.56,0.77,3.16,2.54,3.55,3.71
			c0.17,0.5,0.31,0.92,0.52,1.09c0.66,0.45,4.33-0.35,6.75-0.88c1.07-0.23,2.17-0.47,3.29-0.69c0.92-0.18,1.79-0.42,2.62-0.65
			c2.13-0.59,3.96-1.11,5.45-0.11c1.11,0.74,1.76,2.2,2.04,4.57c0.41,3.51,1.3,5.77,2.01,7.59c0.58,1.49,1.04,2.66,1.04,3.96
			c0,0.69,0.03,1.6,0.06,2.56c0.09,2.38,0.14,4.32-0.02,5.71c0.4-0.49,0.89-1.16,1.49-2.06c3.42-5.12,3.97-6.75,3.5-10.28
			c-0.11-0.84-0.27-1.66-0.42-2.46c-0.57-3-1.11-5.84,0.76-8.91c0.29-0.48,0.58-0.93,0.86-1.37c1.72-2.71,2.97-4.67,2.06-8.3
			l-0.18-0.7c-1.02-4.04-0.94-4.39,1.75-7.4l0.52-0.58c0.83-0.94,1.62-1.63,2.25-2.19c0.81-0.71,1.4-1.23,1.54-1.77
			c0.16-0.61-0.12-1.57-0.88-3.04c-0.78-1.5-1.54-2.61-2.22-3.58c-1.45-2.09-2.59-3.75-1.52-6.68c0.61-1.68,1.41-2.48,1.94-3.01
			c0.51-0.51,0.53-0.53-0.06-1.73c-1.56-3.17,0.12-4.18,1.6-5.07c0.53-0.32,1.13-0.68,1.74-1.19c2.3-1.91,2.85-2.75,2.5-6.02
			l-0.01-0.1c-0.38-3.52-0.39-3.59-3.69-5.22c-4.17-2.06-6.1-4.34-6.07-7.16c0.02-2.18-0.28-3.92-0.28-3.94l2.05-0.36
			c0.01,0.08,0.34,1.94,0.31,4.32c-0.01,1.21,0.48,3.08,4.91,5.27c4.2,2.07,4.41,2.89,4.84,6.87l0.01,0.1
			c0.46,4.28-0.63,5.68-3.24,7.84c-0.73,0.61-1.43,1.03-2,1.37c-1.4,0.85-1.52,0.91-0.8,2.36c1.07,2.17,0.76,3.03-0.33,4.12
			c-0.47,0.47-1,0.99-1.45,2.25c-0.7,1.93-0.12,2.76,1.28,4.78c0.68,0.98,1.52,2.19,2.36,3.81c2.16,4.16,1.03,5.44-1.14,7.34
			c-0.62,0.54-1.32,1.16-2.07,2l-0.52,0.59c-1.07,1.2-1.66,1.86-1.79,2.41c-0.13,0.56,0.1,1.46,0.51,3.09l0.18,0.7
			c1.12,4.5-0.47,7.01-2.33,9.93c-0.27,0.43-0.55,0.87-0.83,1.33c-1.45,2.39-1.02,4.62-0.49,7.44c0.16,0.82,0.32,1.67,0.44,2.57
			c0.58,4.33-0.34,6.5-3.83,11.72C267.98,214.62,266.64,215.96,265.57,216.01z"/>
	</g>
	<g>
		<path class="st6" d="M307.41,275.86l-2.08,0.08c-0.01-0.19-0.72-19.48-0.93-24.64c-0.09-2.25-0.44-2.82-0.64-2.96
			c-0.44-0.3-2.01,0.22-3.68,0.78l-0.66,0.22c-4.47,1.48-5.56,1.05-7-1.17l-0.05-0.08c-0.32-0.49-1.02-0.77-2.32-1.27
			c-1.4-0.53-3.33-1.26-5.7-2.81c-4.96-3.25-3.46-5.66-1.87-8.22c0.16-0.26,0.33-0.53,0.49-0.81c0.42-0.7,0.81-1.42,1.19-2.11
			c1.34-2.46,2.5-4.59,4.47-5.25c0.94-0.31,0.99-0.33,0.5-2.61c-0.05-0.23-0.1-0.48-0.16-0.74c-0.27-1.31-0.19-2.85-0.12-4.49
			c0.09-1.86,0.18-3.79-0.27-5.19c-0.05-0.14-0.16-0.49-0.26-0.74c-0.13,0.05-0.29,0.11-0.43,0.17c-0.81,0.32-2.03,0.81-4.01,1.19
			c-2.78,0.54-4.09,0.72-4.99,0.09c-0.74-0.52-0.87-1.35-1.02-2.32c-0.05-0.33-0.11-0.7-0.19-1.11c-0.18-0.89-0.33-1.79-0.48-2.67
			c-0.31-1.84-0.62-3.75-1.12-4.5c-0.4-0.16-1.89,0.32-3.05,0.99l-1.04-1.81c1.01-0.58,4.43-2.33,5.78-0.4
			c0.78,1.12,1.11,3.09,1.49,5.38c0.14,0.85,0.29,1.74,0.46,2.59c0.09,0.46,0.16,0.86,0.21,1.21c0.05,0.34,0.12,0.76,0.18,0.93
			c0.5,0.13,2.49-0.26,3.36-0.43c1.79-0.35,2.9-0.79,3.64-1.09c0.81-0.32,1.45-0.58,2.13-0.25c0.74,0.35,1.01,1.17,1.31,2.13
			c0.57,1.76,0.47,3.88,0.37,5.93c-0.07,1.5-0.14,2.93,0.08,3.98c0.05,0.25,0.1,0.49,0.15,0.72c0.45,2.11,0.88,4.1-1.88,5.02
			c-1.2,0.4-2.22,2.28-3.3,4.27c-0.39,0.71-0.79,1.45-1.23,2.19c-0.17,0.29-0.35,0.57-0.51,0.84c-1.55,2.49-2.01,3.24,1.24,5.37
			c2.19,1.43,3.91,2.08,5.3,2.61c1.47,0.56,2.63,0.99,3.34,2.09l0.05,0.08c0.81,1.25,0.98,1.51,4.59,0.32l0.66-0.22
			c2.55-0.85,4.23-1.41,5.52-0.52c0.99,0.68,1.43,2.01,1.54,4.59C306.69,256.37,307.4,275.67,307.41,275.86z"/>
	</g>
	<g>
		<path class="st6" d="M262.47,244.1c-3.52,0.15-4.02-4.06-4.36-6.86c-0.07-0.57-0.13-1.12-0.21-1.57
			c-0.49-2.78-1.05-2.71-1.32-2.69c-3.48,0.38-8.65,1.55-13.65,2.68c-7.15,1.62-13.9,3.15-17.37,2.89
			c-3.15-0.23-4.45-1.73-4.99-2.95c-1.19-2.69,0.21-6.37,2.13-8.81c2.15-2.74,1.58-3.19-0.84-5.11c-0.45-0.36-0.76-0.3-1.01-0.21
			c-1.22,0.47-2.58,2.97-2.97,5.45c-0.61,3.8-1.87,5.35-3.96,7.93l-0.16,0.19c-0.76,0.94-1.61,1.69-2.36,2.34
			c-0.95,0.83-1.77,1.55-1.73,2.12l0.01,0.1c0.14,2.16,0.19,4.36-0.93,5.36c-0.45,0.4-1.05,0.56-1.68,0.44
			c-0.31-0.06-0.99-0.1-1.78-0.16c-4.75-0.34-10.01-0.91-12.31-3.48c-1.63-1.81-1.97-3.39-2.27-4.78c-0.25-1.18-0.47-2.19-1.49-3.32
			c-0.82-0.92-1.99-1.43-3.36-1.49c-1.98-0.09-4.11,0.78-5.83,2.38c-3.04,2.83-3.59,3.34-5.37,2.6c-0.11-0.04-0.23-0.09-0.36-0.15
			l-0.09-0.03c-1.47-0.56-4.22-1.6-3.78-4.96c0.24-1.84,1.27-2.79,2.18-3.63c0.64-0.59,1.25-1.16,1.7-2.06
			c0.58-1.18,0.49-1.58,0.19-2.89c-0.2-0.89-0.48-2.1-0.61-3.98c-0.33-4.83-1.12-7.27-3.12-9.69c-1.48-1.79-4.76-0.77-7.94,0.21
			c-0.67,0.21-1.37,0.42-2.03,0.6c-2.8,0.76-6.16,6.18-7.23,8.2l-1.85-0.97c0.43-0.83,4.36-8.11,8.52-9.25
			c0.62-0.17,1.27-0.37,1.96-0.58c3.65-1.13,7.79-2.41,10.16,0.45c2.59,3.13,3.28,6.36,3.59,10.87c0.12,1.72,0.37,2.79,0.57,3.66
			c0.33,1.41,0.56,2.43-0.36,4.28c-0.62,1.25-1.44,2.01-2.16,2.67c-0.83,0.77-1.39,1.28-1.53,2.37c-0.21,1.6,0.79,2.1,2.46,2.74
			l0.09,0.03c0.16,0.06,0.29,0.12,0.42,0.17c0.15,0.06,0.33,0.14,0.39,0.14c0.32-0.08,1.67-1.34,2.76-2.35
			c2.13-1.98,4.8-3.05,7.34-2.94c1.91,0.08,3.62,0.86,4.81,2.18c1.39,1.54,1.7,2.99,1.98,4.28c0.27,1.25,0.52,2.43,1.78,3.83
			c1.94,2.16,8,2.59,10.91,2.8c0.89,0.06,1.55,0.11,1.97,0.18c0.19-0.28,0.36-1.16,0.19-3.6l-0.01-0.1
			c-0.1-1.59,1.13-2.68,2.44-3.82c0.72-0.63,1.46-1.28,2.11-2.08l0.16-0.19c2.06-2.54,3-3.7,3.52-6.94c0.46-2.86,2.07-6.2,4.28-7.06
			c1.04-0.41,2.13-0.22,3.06,0.52c2.79,2.21,4.38,3.97,1.19,8.03c-1.53,1.95-2.66,4.87-1.87,6.68c0.45,1.01,1.54,1.59,3.23,1.71
			c3.16,0.23,10.07-1.33,16.76-2.85c5.06-1.15,10.29-2.33,13.89-2.72c2.78-0.3,3.35,2.99,3.6,4.4c0.09,0.51,0.16,1.08,0.23,1.69
			c0.41,3.44,0.9,5.16,2.33,5.02c0.53-0.05,0.88-0.1,1.1-0.14c-0.04-0.34-0.05-0.81,0.17-1.35c0-0.07-0.09-0.24-0.15-0.35
			c-0.21-0.36-0.55-0.96-0.34-1.72c0.2-0.74,0.84-1.37,2.14-2.09c1.01-0.57,1.85-1.5,2.74-2.48c1.79-1.97,3.83-4.21,7.8-4.29
			c5.46-0.11,10.84-0.22,10.84-0.22l0.04,2.08c0,0-5.38,0.11-10.84,0.22c-3.09,0.06-4.65,1.78-6.3,3.6
			c-0.97,1.06-1.96,2.16-3.26,2.89c-0.73,0.41-1.01,0.67-1.11,0.79c0.03,0.06,0.07,0.12,0.1,0.18c0.23,0.41,0.66,1.16,0.29,2.13
			c-0.07,0.18-0.05,0.3-0.01,0.54c0.05,0.3,0.15,0.86-0.23,1.37c-0.45,0.59-1.25,0.77-2.77,0.91
			C262.63,244.09,262.55,244.09,262.47,244.1z"/>
	</g>
	<g>
		<path class="st6" d="M419.46,245.87c-1.35-0.26-3.81-1.48-3.49-4.28c0.12-1.07-0.73-1.75-2.16-2.76c-0.6-0.43-1.23-0.86-1.69-1.38
			c-0.44-0.09-1.72,0-2.76,0.08c-3.59,0.26-9.01,0.64-11.92-2.36c-1.52-1.57-2.15-3.85-1.85-6.77c0.93-9.17,2.77-10.03,7.39-10
			c1.21,0.01,2.58,0.01,4.18-0.31c4.43-0.89,4.61-1.53,5-2.92c0.16-0.58,0.37-1.31,0.81-2.15c1.84-3.53,1.91-7.29,0.75-8.16
			c-1.71-1.28-7.72-1.31-9.12,0.3c-1.93,2.22-3.04,2.44-5.36,2.75l-0.26,0.04c-3.18,0.42-7.81-4.9-8.5-8.01
			c-0.55-2.46,0.95-3.34,1.84-3.86c0.58-0.34,0.84-0.52,0.92-0.82c0.24-0.85,0.85-1.51,1.45-2.14c1.14-1.22,1.61-1.82,0.77-3.11
			c-0.66-1.02-0.82-1.94-0.47-2.74c0.68-1.53,2.87-1.88,5.19-2.26c0.61-0.1,1.24-0.2,1.8-0.32c0.2-0.04,0.49-0.16,0.76-0.72
			c1.04-2.11,0.34-7.62-1.45-11.33c-1.49-3.11,0.11-6.27,1.51-9.06c0.91-1.81,1.77-3.51,1.71-4.93c-0.07-1.68-1.06-2.75-1.88-3.35
			c-1.5-1.11-3.64-1.51-5.45-1.03c-2.97,0.79-4.2,0.63-6.08,0.41c-0.64-0.08-1.36-0.17-2.27-0.23c-0.56-0.04-0.71,0.06-0.71,0.07
			c-0.09,0.14-0.05,0.81-0.02,1.2c0.07,1.1,0.17,2.62-1.04,3.64c-1.32,1.11-3.39,1.52-5.17,1.03c-1.48-0.41-2.54-1.36-2.99-2.67
			c-0.49-1.44-0.04-4.09,0.75-8.31c0.6-3.22,1.28-6.88,1.02-8.83c-0.45-3.32-5.52-4.27-14.46-5.65c-6.64-1.03-9.95-0.41-13.16,0.18
			c-0.94,0.17-1.91,0.35-2.93,0.49c-1.03,0.13-2.49,0.2-3.3-0.73c-0.83-0.98-0.45-2.3-0.07-3.58c0.19-0.65,0.39-1.32,0.41-1.87
			c0.07-1.84-2.86-6.8-6.88-9.63l1.2-1.71c4.1,2.88,7.87,8.42,7.76,11.41c-0.03,0.81-0.27,1.65-0.49,2.38
			c-0.15,0.51-0.4,1.36-0.34,1.64c0.09,0.04,0.45,0.15,1.43,0.02c0.97-0.13,1.87-0.29,2.82-0.47c3.38-0.63,6.87-1.28,13.86-0.19
			c9.01,1.4,15.52,2.41,16.2,7.44c0.31,2.29-0.37,5.95-1.04,9.5c-0.55,2.93-1.17,6.26-0.83,7.25c0.28,0.83,1.01,1.18,1.57,1.34
			c1.12,0.31,2.47,0.06,3.27-0.61c0.37-0.31,0.36-0.96,0.3-1.9c-0.06-0.96-0.14-2.05,0.63-2.82c0.52-0.52,1.28-0.74,2.32-0.67
			c0.96,0.07,1.71,0.16,2.38,0.24c1.75,0.21,2.71,0.33,5.29-0.35c2.43-0.64,5.2-0.12,7.22,1.37c1.67,1.23,2.64,2.99,2.72,4.94
			c0.08,1.97-0.94,4-1.94,5.96c-1.31,2.59-2.54,5.03-1.5,7.21c1.85,3.85,2.89,10.2,1.44,13.16c-0.62,1.26-1.54,1.7-2.2,1.84
			c-0.61,0.13-1.27,0.24-1.9,0.34c-1.1,0.18-3.4,0.55-3.61,1.04c-0.02,0.05-0.01,0.28,0.31,0.76c1.77,2.72,0.04,4.57-0.99,5.67
			c-0.42,0.45-0.86,0.92-0.96,1.28c-0.32,1.15-1.22,1.68-1.88,2.06c-0.83,0.49-1.08,0.64-0.86,1.61c0.6,2.68,4.67,6.6,6.19,6.39
			l0.27-0.04c2.03-0.27,2.57-0.34,4.06-2.05c2.17-2.5,9.38-2.52,11.95-0.6c2.71,2.03,1.54,7.53-0.15,10.79
			c-0.34,0.66-0.5,1.22-0.65,1.76c-0.64,2.26-1.46,3.36-6.6,4.39c-1.81,0.36-3.36,0.36-4.6,0.35c-3.35-0.02-4.48-0.02-5.31,8.13
			c-0.24,2.31,0.18,3.98,1.27,5.11c2.23,2.3,7.08,1.96,10.28,1.73c2.4-0.17,3.72-0.27,4.39,0.53c0.3,0.36,0.84,0.74,1.41,1.14
			c1.4,0.98,3.31,2.33,3.03,4.71c-0.19,1.6,1.72,1.98,1.8,1.99L419.46,245.87z"/>
	</g>
	<g>
		<path class="st6" d="M415.45,274.46c-0.04-0.5-1.09-12.3-0.63-15.25c0.1-0.62-0.16-0.91-0.87-1.53c-0.84-0.73-2.4-2.09-0.23-4.62
			c1.02-1.19,1.9-1.88,2.54-2.38c1.06-0.83,1.39-1.08,1.46-2.76c0.36-8.64,5.32-10.77,8.25-11.27c5.99-1.03,11.98-4.55,13.93-8.21
			c0.9-1.69,0.7-3.53,0.53-5.02c-0.15-1.35-0.28-2.52,0.48-3.31c0.45-0.47,1.12-0.67,1.98-0.59c1.4,0.12,1.63-0.09,1.65-0.12
			c0.33-0.38-0.24-2.79-0.43-3.58c-0.24-1-0.78-2.18-1.35-3.43c-1.21-2.63-2.46-5.35-1.46-7.62c0.54-1.23,1.68-2.13,3.39-2.69
			c6.59-2.14,14.98-2.19,18.74,4.08c1.96,3.27,4.91,5.11,7.52,6.73c1.74,1.08,3.24,2.02,4.21,3.23c0.92,1.15,1.44,2.5,1.78,3.64
			c1.43-3.61,2.77-6.65,4.6-7.37c0.58-0.23,1.18-0.21,1.74,0.05c1.8,0.86,4.81,0.07,5.56-1.45c0.3-0.61,0.54-1.25,0.8-1.93
			c0.58-1.53,1.17-3.11,2.51-4.52c2.2-2.32,4.73-1.46,4.83-1.42l-0.7,1.97c-0.13-0.04-1.4-0.4-2.62,0.89
			c-1.05,1.11-1.55,2.43-2.08,3.82c-0.26,0.69-0.53,1.41-0.88,2.11c-1.26,2.56-5.46,3.79-8.33,2.42c-0.03-0.01-0.03-0.01-0.08,0
			c-1.13,0.45-2.74,4.48-3.42,6.2c-0.26,0.65-0.48,1.22-0.68,1.64c-0.18,0.39-0.59,1.29-1.51,1.22c-0.93-0.08-1.17-0.96-1.48-2.08
			c-0.31-1.15-0.74-2.72-1.69-3.9c-0.75-0.93-2.11-1.78-3.69-2.76c-2.66-1.66-5.98-3.73-8.2-7.43c-3.14-5.22-10.48-5.06-16.31-3.17
			c-1.13,0.37-1.83,0.87-2.12,1.54c-0.62,1.42,0.43,3.7,1.45,5.92c0.62,1.35,1.2,2.62,1.49,3.82c0.6,2.56,0.93,4.31-0.02,5.42
			c-0.79,0.92-2.11,0.95-3.41,0.83c-0.15-0.01-0.24-0.01-0.3,0c-0.06,0.29,0.02,1.03,0.08,1.59c0.19,1.68,0.45,3.97-0.76,6.23
			c-2.26,4.23-8.75,8.13-15.42,9.28c-2.82,0.48-6.23,2.49-6.52,9.3c-0.11,2.51-0.93,3.27-2.26,4.31c-0.63,0.5-1.35,1.06-2.24,2.09
			c-0.82,0.96-0.76,1.01,0.02,1.69c0.73,0.64,1.84,1.6,1.56,3.42c-0.35,2.25,0.35,11.41,0.65,14.75L415.45,274.46z M476.16,221.59
			C476.16,221.59,476.16,221.59,476.16,221.59S476.16,221.59,476.16,221.59z"/>
	</g>
	<g>
		<path class="st6" d="M438.56,282.82c-0.71,0.03-1.41-0.13-2.13-0.58l1.12-1.76c0.87,0.55,1.78,0.17,3.58-0.69
			c0.54-0.25,1.14-0.54,1.8-0.81c1.19-0.49,15.56-9.05,29.46-17.33c22.28-13.27,38.19-22.72,40.1-23.45
			c1.01-0.39,1.03-0.98,0.58-3.14c-0.34-1.61-0.76-3.62,0.34-5.37c1.09-1.74,0.3-3.72-0.61-6.02c-0.41-1.03-0.83-2.1-1.09-3.19
			c-0.86-3.61-0.27-4.96-0.07-5.29l1.78,1.09c0,0,0.02-0.02,0.04-0.07c0,0.01-0.39,0.96,0.28,3.78c0.23,0.95,0.62,1.94,1,2.9
			c0.98,2.47,2.09,5.26,0.44,7.9c-0.65,1.04-0.37,2.39-0.07,3.83c0.39,1.87,0.93,4.44-1.87,5.51c-1.89,0.72-22.9,13.24-39.78,23.29
			c-17.61,10.49-28.46,16.94-29.73,17.46c-0.61,0.25-1.16,0.52-1.7,0.77C440.84,282.23,439.7,282.77,438.56,282.82z"/>
	</g>
	<g>
		<path class="st6" d="M534.02,359.43c-0.31-0.9-7.7-22.14-9.01-26.31c-0.62-1.96-1.05-2.08-2.08-2.36c-0.84-0.23-2-0.55-3.39-1.77
			c-1.36-1.19-1.78-2.09-2.06-2.69c-0.27-0.58-0.36-0.77-2.4-1.13c-2.2-0.39-2.78-0.24-3.92,0.07c-0.93,0.25-2.21,0.59-4.75,0.75
			c-1.96,0.13-2.72,0.56-3.12,0.79c-0.28,0.16-0.71,0.41-1.25,0.22c-0.57-0.2-0.75-0.66-1.01-1.34c-0.19-0.49-0.48-1.23-1.02-2.37
			c-1.1-2.31-1.21-4.76-0.31-7.08c0.96-2.51,3.1-4.75,5.45-5.72c2.26-0.93,2.4-2.9,2.44-6.31c0-0.25,0.01-0.49,0.01-0.74
			c0.06-3.01-5.73-11.76-8.18-14.65c-1.17-1.38-2.32-1.94-3.33-2.44c-0.91-0.45-1.77-0.87-2.36-1.74
			c-1.01-1.51-5.94-23.64-7.43-30.39l2.04-0.45c2.36,10.71,6.38,28.21,7.14,29.7c0.28,0.4,0.81,0.66,1.53,1.01
			c1.08,0.53,2.55,1.25,4,2.96c1.79,2.1,8.76,11.83,8.68,16.04c0,0.25-0.01,0.49-0.01,0.73c-0.05,3.3-0.09,6.7-3.73,8.2
			c-1.51,0.62-3.42,2.27-4.3,4.54c-0.69,1.81-0.61,3.64,0.25,5.44c0.49,1.02,0.79,1.77,0.99,2.27c0.64-0.29,1.68-0.63,3.4-0.74
			c2.33-0.15,3.45-0.45,4.35-0.69c1.38-0.37,2.28-0.55,4.82-0.11c2.66,0.47,3.32,0.99,3.93,2.31c0.24,0.51,0.51,1.1,1.54,2
			c1.03,0.9,1.81,1.12,2.56,1.33c1.55,0.43,2.63,0.92,3.52,3.75c1.3,4.14,8.92,26.03,8.99,26.25L534.02,359.43z"/>
	</g>
	<g>
		<path class="st6" d="M569.08,337.82l-1.45-1.5l0.72,0.75l-0.73-0.75c0.81-0.79,2.78-3.19,2.22-4.89c-0.79-2.38-0.8-5.78,3.67-8.4
			c3.92-2.3,8.5-5.53,9.89-7.55l1.72,1.18c-2.16,3.16-9.17,7.36-10.55,8.17c-2.66,1.56-3.56,3.51-2.75,5.94
			c0.47,1.41,0.12,3.1-1.01,4.88C570.02,336.91,569.12,337.79,569.08,337.82z"/>
	</g>
	<g>
		<path class="st6" d="M529.97,227.84c-0.32,0.01-0.63-0.01-0.94-0.07c-1.14-0.22-2.04-0.94-2.58-2.09c-0.27-0.56-0.53-1-0.79-1.43
			c-0.98-1.64-1.54-2.79-0.69-5.79c0.76-2.67-0.62-3.42-0.63-3.43l0.91-1.87c0.12,0.06,2.97,1.5,1.72,5.87
			c-0.65,2.28-0.3,2.87,0.47,4.15c0.27,0.45,0.58,0.96,0.89,1.61c0.26,0.54,0.6,0.84,1.09,0.93c0.94,0.18,2.36-0.43,3.53-1.52
			c1.34-1.24,2.57-5.48,3.04-7.86l2.05,0.4c-0.14,0.7-1.4,6.89-3.67,8.99C532.98,227.04,531.39,227.78,529.97,227.84z"/>
	</g>
	<g>
		<path class="st6" d="M467.33,211.67l-1.74-1.15l3.95-5.96l0.88,1.25c0.39,0.55,1.47,1.68,2.3,1.65c0,0,0,0,0,0
			c0.4-0.02,0.81-0.36,1.2-1.01c0.9-1.5,1.59-2.98,2.26-4.42c1.31-2.8,2.44-5.22,4.54-6.49c0.58-0.35,1.16-0.66,1.67-0.93
			c2.23-1.18,2.92-1.64,2.53-3.37c-0.12-0.51-0.24-0.96-0.37-1.4c-0.62-2.21-1.21-4.3,2.88-5.88c2.12-0.82,4.51-3.6,5.44-6.33
			c0.49-1.45,0.5-2.69,0.01-3.49c-0.57-0.93-1.52-1.59-2.53-2.29c-2.05-1.41-4.59-3.17-3.87-7.78c0.35-2.2,1.41-3.83,2.18-5.01
			c0.37-0.57,0.94-1.43,0.84-1.66c-0.1-0.25-0.83-0.95-5.37-2.03l-0.57-0.13l-0.18-0.55c-0.03-0.08-0.63-1.94-0.85-4.15
			c-0.32-3.18,0.31-5.45,1.86-6.74c1.05-0.87,2.22-1.34,3.15-1.72c0.66-0.27,1.49-0.6,1.56-0.87c0.04-0.15,0.07-0.78-1.34-2.74
			c-0.23-0.24-2.58-2.46-8.23-0.09c-5.01,2.11-6.93,1.03-8.96-0.1c-0.89-0.5-1.81-1.01-3.12-1.3c-3.47-0.77-7.45-3.31-10.36-5.16
			c-1.07-0.68-2-1.28-2.73-1.67l-0.06-0.03c-3.11-1.69-4.67-2.86-3.37-8.95c1.23-5.76-0.32-10.23-1.47-10.91l1.07-1.79
			c2.52,1.51,3.64,7.52,2.44,13.14c-1.04,4.85-0.26,5.28,2.33,6.68l0.06,0.03c0.79,0.43,1.74,1.04,2.85,1.74
			c2.77,1.77,6.57,4.19,9.69,4.88c1.61,0.36,2.72,0.98,3.69,1.52c1.84,1.03,3.06,1.71,7.13,0c7.34-3.09,10.51,0.53,10.64,0.68
			l0.05,0.06c1.51,2.08,2.02,3.46,1.69,4.59c-0.36,1.25-1.6,1.75-2.79,2.22c-0.84,0.34-1.8,0.72-2.6,1.38
			c-1.87,1.55-1.1,6.01-0.53,8.08c4.07,1,5.73,1.84,6.24,3.14c0.49,1.24-0.25,2.37-1.03,3.58c-0.75,1.14-1.59,2.44-1.87,4.2
			c-0.52,3.32,1.03,4.39,2.99,5.74c1.15,0.79,2.33,1.61,3.13,2.92c0.82,1.35,0.88,3.17,0.18,5.25c-1.12,3.3-3.99,6.57-6.66,7.61
			c-1.15,0.45-1.81,0.88-1.95,1.3c-0.14,0.42,0.06,1.15,0.32,2.07c0.12,0.44,0.26,0.94,0.39,1.5c0.77,3.37-1.44,4.54-3.58,5.68
			c-0.51,0.27-1.04,0.55-1.57,0.87c-1.56,0.95-2.57,3.1-3.73,5.59c-0.66,1.42-1.41,3.02-2.36,4.61c-0.96,1.6-2.1,1.99-2.9,2.02
			c-0.01,0-0.01,0-0.02,0c-1.26,0.05-2.36-0.72-3.1-1.43L467.33,211.67z"/>
	</g>
	<g>
		<path class="st6" d="M468.88,207.2c-0.14-0.12-1.37-1.23-1.35-3.01c0.01-1.39,0.77-2.72,2.26-3.95
			c8.29-6.86,11.67-6.46,13.69-5.34l-1.01,1.82c-3.09-1.71-9.31,3.43-11.35,5.12c-0.68,0.56-1.49,1.42-1.51,2.34
			c-0.02,0.84,0.63,1.43,0.64,1.44L468.88,207.2z"/>
	</g>
	<g>
		<path class="st6" d="M469.46,201.36c-0.58-1.78-1.78-6.09-0.3-7.6c1.21-1.24,5.44-4.38,7.59-4.7c0.81-0.12,2.86,0.17,4.33,5.52
			l-2.01,0.55c-0.52-1.88-1.52-3.85-2.03-4.01c-1.39,0.23-5.14,2.82-6.39,4.1c-0.36,0.5,0.01,3.12,0.79,5.49L469.46,201.36z"/>
	</g>
	<g>
		<path class="st6" d="M498.62,176.94c-3.44,0.15-5.92-2.46-6.87-4.13l1.81-1.03c0.1,0.17,2.47,4.2,6.46,2.77l0.7,1.96
			C499.99,176.78,499.29,176.91,498.62,176.94z"/>
	</g>
</g>
<g id="Andover" class="st25">
</g>
<g id="Middleton" class="st25">
</g>
<g id="Topsfield" class="st25">
</g>
<g id="Burlington" class="st25">
</g>
<g id="Stoneham" class="st25">
</g>
<g id="weston" class="st25">
</g>
<g id="Wakefield" class="st25">
</g>
<g id="Concord" class="st25">
</g>
<g id="Fitchburg" class="st25">
</g>
<g id="Groton" class="st25">
</g>
<g id="Southborough" class="st25">
</g>
<g id="Wayland" class="st25">
</g>
<g id="Amesbury" class="st25">
</g>
<g id="Haverhill" class="st25">
</g>
<g id="Georgetown" class="st25">
</g>
<g id="Ipswich" class="st25">
</g>
<g id="Blackstone" class="st25">
</g>
<g id="Mendon" class="st25">
</g>
<g id="Lenox" class="st25">
</g>
<g id="Northhampton" class="st25">
</g>
<g id="Hopedale" class="st25">
</g>
<g id="Webster" class="st25">
</g>
<g id="Medfield" class="st25">
</g>
<g id="Plainville" class="st25">
</g>
<g id="Walpole" class="st25">
</g>
<g id="Sharon_1_" class="st25">
</g>
<g id="Natick" class="st25">
</g>
<g id="Dartmouth" class="st25">
</g>
<g id="Fairhaven" class="st25">
</g>
<g id="New_Bedford" class="st25">
</g>
<g id="Falmouth" class="st25">
</g>
<g id="Abington" class="st25">
</g>
<g id="Rockland" class="st25">
</g>
<g id="Weymouth" class="st25">
</g>
<g id="Hanson" class="st25">
</g>
<g id="Norton" class="st25">
</g>
<g id="Taunton" class="st25">
</g>
<g id="Townsend" class="st25">
</g>
<g id="Sharon">
</g>
</svg>
