<?xml version="1.0" encoding="utf-8"?>
<!-- Generator: Adobe Illustrator 24.0.1, SVG Export Plug-In . SVG Version: 6.00 Build 0)  -->
<svg version="1.1" id="Layer_1" xmlns="http://www.w3.org/2000/svg" xmlns:xlink="http://www.w3.org/1999/xlink" x="0px" y="0px"
	 viewBox="0 0 218 327" style="enable-background:new 0 0 218 327;" xml:space="preserve">
<style type="text/css">
	.st0{opacity:0.8;fill:#006899;}
	.st1{opacity:0.15;}
	.st2{fill:#FFFFFF;}
</style>
<g>
	<path class="st0" d="M109,0.7c0,0-108.8,129-108.8,224.6c0,61.9,48.7,101,108.8,101s108.8-39.1,108.8-101
		C217.8,129.7,109,0.7,109,0.7z"/>
	<g class="st1">
		<path d="M117.3,11c29.2,52,61,122.2,61,181.3c0,70.8-48.7,115.4-108.8,115.4c-11.4,0-22.3-1.6-32.6-4.7
			c19.2,15,44.5,23.3,72.1,23.3c60.1,0,108.8-39.1,108.8-101C217.8,145.8,142.7,43.3,117.3,11z"/>
	</g>
	<ellipse class="st2" cx="36.9" cy="228.1" rx="21.3" ry="35.1"/>
</g>
</svg>
