<?xml version="1.0" encoding="utf-8"?>
<!-- Generator: Adobe Illustrator 24.0.2, SVG Export Plug-In . SVG Version: 6.00 Build 0)  -->
<svg version="1.1" id="Layer_1" xmlns="http://www.w3.org/2000/svg" xmlns:xlink="http://www.w3.org/1999/xlink" x="0px" y="0px"
	 viewBox="0 0 790 760" style="enable-background:new 0 0 790 760;" height="760" width="790" xml:space="preserve">
<style type="text/css">
	.st0{fill:#D7CFC8;}
	.st1{fill:#C5B5AB;}
	.st2{fill:#AC9388;}
	.st3{fill:#C0B3AB;}
	.st4{fill:#2798BB;}
	.st5{fill:#62C6D0;}
	.st6{fill:#064963;}
	.st7{opacity:0.6;fill:#BCE4ED;}
	.st8{fill:#006899;}
	.st9{opacity:0.6;fill:#A1DBE8;}
	.st10{fill:#A6DCE5;}
	.st11{opacity:0.5;fill:#AC9388;}
	.st12{fill:#BEE5EB;}
	.st13{fill:#FFFFFF;}
	.st14{fill:#E2F3F8;}
	.st15{fill:#F0EADB;}
	.st16{fill:#FFD27B;}
	.st17{fill:#E99B3D;}
	.st18{fill:#FDC571;}
	.st19{fill:#BF7F2A;}
	.st20{fill:#75A4D7;}
	.st21{fill:#3B84BC;}
	.st22{fill:#5191CC;}
	.st23{fill:#2373A3;}
	.st24{fill:#5C495A;}
	.st25{fill:#039898;}
	.st26{fill:#27B5B5;}
	.st27{fill:#79CDD4;}
	.st28{fill:#54C4CB;}
	.st29{fill:#D6EEF6;}
	.st30{fill:#BDE4EA;}
	.st31{fill:#493545;}
	.st32{fill:#4C3B4C;}
	.st33{fill:#5A4858;}
	.st34{opacity:0.3;fill:#85B9E4;}
	.st35{opacity:0.3;fill:#75A4D7;}
	.st36{fill:#6C5669;}
	.st37{fill:#7A6578;}
	.st38{opacity:0.4;fill:#FFFFFF;}
	.st39{fill:#5B4758;}
	.st40{fill:#F0605C;}
	.st41{fill:#82D1DE;}
	.st42{fill:#F5B259;}
	.st43{fill:#EAEAEA;}
	.st44{fill:#8EBFE6;}
	.st45{fill:#DBDADA;}
	.st46{fill:#474748;}
	.st47{fill:#8F8E9D;}
	.st48{fill:#EAAF28;}
	.st49{fill:#DF9B26;}
	.st50{fill:#96C3E8;}
	.st51{fill:#FFCB5A;}
	.st52{fill:#A1DBE9;}
	.st53{fill:#6B5568;}
	.st54{fill:#EC6289;}
	.st55{fill:#DA497A;}
	.st56{opacity:0.5;fill:#FFFFFF;}
	.st57{opacity:0.3;fill:#FFFFFF;}
	.st58{fill:#9696A4;}
	.st59{fill:#FFD582;}
	.st60{fill:#97D6DA;}
	.st61{fill:#FFD584;}
	.st62{fill:#E99F47;}
	.st63{fill:#387FB4;}
	.st64{fill:#8FBFE6;}
	.st65{fill:#998098;}
	.st66{fill:#E0DDE5;}
	.st67{fill:#CAC9D5;}
	.st68{fill:#B5B5C5;}
	.st69{fill:#F1EFF1;}
	.st70{fill:#EF6080;}
	.st71{fill:#97A3D2;}
</style>
<g>
	<g>
		<g>
			<polygon class="st0" points="395,752.5 787.8,526.7 395,299.9 2.2,525.7 			"/>
			<polygon class="st1" points="395,760 395,752.5 2.2,525.7 2.2,533.2 			"/>
			<polygon class="st2" points="395,752.5 395,760 787.8,534.2 787.8,526.7 			"/>
		</g>
		<g>
			<g>
				<polygon class="st3" points="444.5,724 446,723.2 59.6,500.1 58.2,500.9 				"/>
				<polygon class="st3" points="503.4,690.2 504.9,689.3 119.5,466.8 117.2,467.2 				"/>
				<polygon class="st3" points="561.1,657.3 562.5,656.4 176.2,433.3 174.7,434.2 				"/>
				<polygon class="st3" points="617.5,624.7 619,623.8 232.8,400.8 231.3,401.7 				"/>
				<polygon class="st3" points="670.5,594.2 672.1,593.4 285.9,370.4 284.5,371.2 				"/>
				<polygon class="st3" points="729.4,560.3 730.9,559.4 345,336.6 343.5,337.5 				"/>
			</g>
			<g>
				<polygon class="st3" points="346,724 344.5,723.2 730.8,500.1 732.3,500.9 				"/>
				<polygon class="st3" points="287,690.2 285.6,689.3 671,466.8 673.2,467.2 				"/>
				<polygon class="st3" points="229.4,657.3 227.9,656.4 614.3,433.3 615.8,434.2 				"/>
				<polygon class="st3" points="173,624.7 171.5,623.8 557.7,400.8 559.1,401.7 				"/>
				<polygon class="st3" points="120,594.2 118.4,593.4 504.5,370.4 506,371.2 				"/>
				<polygon class="st3" points="61.1,560.3 59.6,559.4 445.4,336.6 446.9,337.5 				"/>
			</g>
		</g>
		<g>
			<g>
				<g>
					<path class="st4" d="M8.5,229.6v299.7l386.3-221.4V7.9L8.5,229.6z"/>
				</g>
				<polygon class="st5" points="2.2,225.7 2.2,525.7 8.5,529.3 8.5,229.6 				"/>
			</g>
			<polygon class="st6" points="787.8,227.1 787.8,527.1 781.5,530.9 781.5,230.9 			"/>
			<g>
				<g>
					<path class="st7" d="M8.5,286.9v1.5L394.8,67.1v-1.8L8.5,286.9z"/>
				</g>
				<g>
					<path class="st7" d="M8.5,348.8v1.5l386.3-221.4v-1.8L8.5,348.8z"/>
				</g>
				<g>
					<path class="st7" d="M8.5,410.6v1.5l386.3-221.4v-1.8L8.5,410.6z"/>
				</g>
				<g>
					<path class="st7" d="M8.5,472.5v1.5l386.3-221.4v-1.8L8.5,472.5z"/>
				</g>
			</g>
			<polygon class="st8" points="781.5,230.9 781.5,530.9 394.8,307.9 394.8,7.9 			"/>
			<g>
				<g>
					<g>
						<path class="st9" d="M781.1,286.9v1.5L394.8,67.1l0-1.8L781.1,286.9z"/>
					</g>
					<g>
						<path class="st9" d="M781.1,348.8v1.5L394.8,128.9l0-1.8L781.1,348.8z"/>
					</g>
					<g>
						<path class="st9" d="M781.1,410.6v1.5L394.8,190.8l0-1.8L781.1,410.6z"/>
					</g>
					<g>
						<path class="st9" d="M781.1,472.5v1.5L394.8,252.6l0-1.8L781.1,472.5z"/>
					</g>
				</g>
				<g>
					<polygon class="st9" points="730.1,200.4 731.2,201.1 731.2,500.8 730.1,500.1 					"/>
					<polygon class="st9" points="670.9,166.4 672,167.1 672,466.8 670.9,466.1 					"/>
					<polygon class="st9" points="615.3,134.5 616.4,135.1 616.4,434.8 615.3,434.2 					"/>
					<polygon class="st9" points="559.6,102.6 560.8,103.3 560.8,403 559.6,402.3 					"/>
					<polygon class="st9" points="504,70.8 505.2,71.4 505.2,371.1 504,370.5 					"/>
					<polygon class="st9" points="448.4,38.7 449.5,39.3 449.5,339 448.4,338.4 					"/>
				</g>
			</g>
			<polygon class="st10" points="394.8,0 388.2,4.1 781.5,230.9 787.8,227.1 			"/>
			<polygon class="st10" points="394.8,0 394.8,7.9 8.5,229.6 2.2,225.7 			"/>
			<g>
				<polygon class="st7" points="59.5,200.4 58.4,201.1 58.4,500.8 59.5,500.1 				"/>
				<polygon class="st7" points="118.7,166.4 117.6,167.1 117.6,466.8 118.7,466.1 				"/>
				<polygon class="st7" points="174.3,134.5 173.2,135.1 173.2,434.8 174.3,434.2 				"/>
				<polygon class="st7" points="230,102.6 228.8,103.3 228.8,403 230,402.3 				"/>
				<polygon class="st7" points="285.6,70.8 284.5,71.4 284.5,371.1 285.6,370.5 				"/>
				<polygon class="st7" points="341.2,38.7 340.1,39.3 340.1,339 341.2,338.4 				"/>
			</g>
			<g>
				<path class="st6" d="M8.5,518.9v10.4l386.3-221.4v-10.7L8.5,518.9z"/>
			</g>
			<g>
				<path class="st6" d="M781.1,518.9v12l-386.3-223l0-10.7L781.1,518.9z"/>
			</g>
		</g>
	</g>
	<g>
		<polygon class="st11" points="604.4,631.7 449.7,721.2 376.3,678.7 530.6,589.4 		"/>
		<polygon class="st11" points="293.1,421.4 191.7,480.1 143.6,452.2 244.7,393.7 		"/>
		<polygon class="st11" points="365.4,492.5 466.7,551.2 514.9,523.4 413.7,464.8 		"/>
		<path class="st11" d="M754.7,504.6l-176.3-85.6c-16.9-9.8-46.6-8.5-66.1,2.7L475,443.4c-19.5,11.3-11,17.8,5.9,27.5L641,563.3
			c16.9,9.8,35.9,19.2,55.5,7.9l68.9-38C784.9,521.9,771.6,514.4,754.7,504.6z"/>
		<path class="st11" d="M393,308l-105.5,62l0,0c58.3,34.2,152.7,34.2,211,0l0,0L393,308z"/>
		<path class="st11" d="M100.4,477.4l39.6,22.8c14.1,8.2,15.7,20.6,3.4,27.7c-12.2,7.1-33.8,6.2-47.9-2L56,503.1L100.4,477.4z"/>
		<ellipse class="st11" cx="51.6" cy="528.2" rx="27" ry="15.2"/>
	</g>
	<g>
		<g>
			<polygon class="st12" points="525.5,560.2 591,597.6 591,635 525.5,597 			"/>
			<polygon class="st13" points="596.1,583.1 525.5,623.9 460,586.3 530.6,545.5 			"/>
			<polygon class="st12" points="460,586.3 460,623.1 525.5,660.7 525.5,623.9 			"/>
			<polygon class="st14" points="596.1,583.1 596.1,619.9 525.5,660.7 525.5,623.9 			"/>
			<polygon class="st14" points="530.6,633.3 525.5,636.2 525.5,673 530.6,670 			"/>
			<polygon class="st12" points="460,598.2 525.5,635.6 525.5,673 460,635 			"/>
			<polygon class="st14" points="596.1,595.3 591,598.2 591,635 596.1,632.1 			"/>
		</g>
		<g>
			<polygon class="st15" points="532.2,604.5 500.8,586.4 542.4,562.4 573.8,580.5 			"/>
			<path class="st16" d="M532.2,597.7l-31.4-18.1l37.8-21.8c2.4-1.4,5.3-1.4,7.7,0l27.5,15.9L532.2,597.7z"/>
			<path class="st17" d="M500.8,579.6c0,0-1.1,0.7-1.1,2.7c0,2.9,1.1,4.1,1.1,4.1l31.4,18.1v-6.8L500.8,579.6z"/>
			<path class="st18" d="M573.8,573.7c0,0,1.4,0.6,1.4,3.4c0,2.5-1.4,3.3-1.4,3.3l-41.6,24v-6.8L573.8,573.7z"/>
			<path class="st19" d="M502.6,584.2c0,0,1.4,2.6,12.1,8.5c4.5,2.5,17.5,10.3,17.5,10.3v-1.7c0,0-12.3-7.5-16.2-9.9
				C510.1,587.8,502.6,584.2,502.6,584.2z"/>
		</g>
		<g>
			<polygon class="st15" points="532.2,594.5 500.8,576.4 542.4,552.4 573.8,570.5 			"/>
			<path class="st20" d="M532.2,587.8l-31.4-18.1l37.8-21.8c2.4-1.4,5.3-1.4,7.7,0l27.5,15.9L532.2,587.8z"/>
			<path class="st21" d="M500.8,569.7c0,0-1.1,0.7-1.1,2.7c0,2.9,1.1,4.1,1.1,4.1l31.4,18.1v-6.8L500.8,569.7z"/>
			<path class="st22" d="M573.8,563.7c0,0,1.4,0.6,1.4,3.4c0,2.5-1.4,3.3-1.4,3.3l-41.6,24v-6.8L573.8,563.7z"/>
			<path class="st23" d="M502.6,574.2c0,0,1.4,2.6,12.1,8.5c4.5,2.5,17.5,10.3,17.5,10.3v-1.7c0,0-12.3-7.5-16.2-9.9
				C510.1,577.8,502.6,574.2,502.6,574.2z"/>
		</g>
	</g>
	<g>
		<polygon class="st12" points="450.1,604.1 515.7,641.5 515.7,678.9 450.1,640.9 		"/>
		<polygon class="st13" points="520.8,627 450.2,667.7 384.7,630.2 455.2,589.4 		"/>
		<polygon class="st12" points="384.7,630.2 384.7,666.9 450.2,704.5 450.2,667.7 		"/>
		<polygon class="st14" points="520.8,627 520.8,663.8 450.2,704.5 450.2,667.7 		"/>
		<polygon class="st14" points="455.3,677.1 450.2,680.1 450.2,716.8 455.3,713.9 		"/>
		<polygon class="st12" points="384.7,642.1 450.2,679.5 450.2,716.8 384.7,678.9 		"/>
		<polygon class="st14" points="520.8,639.1 515.7,642.1 515.7,678.9 520.8,675.9 		"/>
	</g>
	<g>
		<path class="st12" d="M432,608.4l1.8,17.2c0,3.8,5.8,6.9,12.9,6.9c7.1,0,12.9-3.1,12.9-6.9l1.8-17.2H432z"/>
		<path class="st14" d="M446.7,600.6c-8.1,0-14.7,3.5-14.7,7.8c0,4.3,6.6,7.8,14.7,7.8c8.1,0,14.7-3.5,14.7-7.8
			C461.5,604.1,454.9,600.6,446.7,600.6z"/>
		<g>
			<path class="st12" d="M446.7,603.4c6.9,0,12.6,2.6,13.6,6.1c0.1-0.3,0.1-0.7,0.1-1c0-3.9-6.1-7.1-13.7-7.1
				c-7.6,0-13.7,3.2-13.7,7.1c0,0.4,0.1,0.7,0.1,1C434.1,606,439.8,603.4,446.7,603.4z"/>
			<path class="st24" d="M446.7,615.6c6.9,0,12.6-2.6,13.6-6.1c-1-3.4-6.7-6.1-13.6-6.1c-6.9,0-12.6,2.6-13.6,6.1
				C434.1,612.9,439.8,615.6,446.7,615.6z"/>
		</g>
		<path class="st25" d="M445.2,590.6c-1.7-2-3.5-3-5.8-2c-1.2,0.5-2,2-2,2s2.7,5.5,3.8,8.3c1.1,2.7,3,10.5,3,10.5l2.6,0.2
			C446.7,609.7,449.4,595.3,445.2,590.6z"/>
		<path class="st25" d="M448.4,594.3c-1.2,1.8-3.2,14.1-3.2,14.1l4.4-0.4l5.6-14.9C455.2,593,452.7,588.2,448.4,594.3z"/>
		<g>
			<path class="st26" d="M419.2,589.8c0,0,6.9,3,9.9,5.2c7.1,5.2,13.7,16.1,13.7,16.1l4.4-0.2c0,0-6.8-15.1-14.5-19.4
				C427.1,588.3,419.2,589.8,419.2,589.8z"/>
			<path class="st25" d="M419.2,589.8c0,0,6.8,0.3,12.9,5.5c6.1,5.2,11.2,14.4,11.2,14.4l-2.1,0.3c0,0-7-9.9-11.2-13.8
				C425.7,592.3,419.2,589.8,419.2,589.8z"/>
		</g>
		<path class="st25" d="M446,611.5c0,0,1.4-10.4,5.4-15.5c4.3-5.3,6.2-6.3,8.9-6.9c5.6-1.3,7.3,0.5,7.3,0.5s-5.2,0.4-9.6,5.3
			c-4.1,4.5-6.6,12.8-6.6,12.8l-1,4.2l-3.7,0.7L446,611.5z"/>
		<g>
			<path class="st27" d="M414.2,604.6c0,0,2.7-5.1,8-6.4c5.2-1.3,13,0,15.9,4.6c2.9,4.7,2.9,4.7,2.9,4.7s-7.7-6.2-11.3-6.4
				C426.2,601,414.2,604.6,414.2,604.6z"/>
			<path class="st28" d="M422.7,601.7c0,0-2.5-0.5-4-0.9c1.7-0.6,2-0.5,3.4-0.3c1.8,0.3,2.7,0.3,2.7,0.3s-1.4-1.2-1.9-2.4
				c1.3,0.3,3.9,2,3.9,2s-0.5-1.2-0.6-2.3c0.7,0.4,1.9,2.7,1.9,2.7L422.7,601.7z"/>
			<path class="st26" d="M431.4,601.3c4.6,1.2,7.9,5,10.2,8.2c0.8,1.2,1.7,2.3,2.6,3.2c1.4,0,2.6-0.2,2.6-0.2s-4.3-8.9-12.3-11.8
				c-8-2.9-20.2,3.9-20.2,3.9s2.6-0.7,5.9-1.3C423.2,602.1,428.3,600.5,431.4,601.3z"/>
			<path class="st25" d="M429.7,602.5c6.2,0.6,8.2,7.3,11.3,9.4c0.9,0.6,2.1,0.8,3.1,0.8c-0.8-1-1.2-2.4-2.1-3.6
				c-2.3-3.2-6-6.6-10.7-7.8c-3.1-0.8-8.2,0.8-11.3,2C423.2,602.7,426.8,602.2,429.7,602.5z"/>
		</g>
		<g>
			<path class="st27" d="M456.5,602.2c0,0,5.5-4.2,10.6-3.3c5.1,0.9,5.8,5.1,6.7,9.5C466.2,601.3,456.5,602.2,456.5,602.2z"/>
			<path class="st26" d="M473.7,608.4c0,0-2.4-5.8-7.6-7.2c-4.1-1.1-10.7-1.5-14.4,3.9c-1.9,2.7-3.9,6.7-3.9,6.7s0.9,0.3,2.1,0.3
				c0.2-0.5,0.4-1.2,0.7-1.8c1.4-3.5,5.3-6,9.8-7c5.1-1.1,8,0.9,9.4,2.3C472.4,606.9,473.7,608.4,473.7,608.4z"/>
			<path class="st25" d="M460.3,603.4c-4.5,0.9-8.4,3.5-9.8,7c-0.3,0.7-0.5,1.3-0.7,1.8c1.5,0,3.5-0.3,4.7-1.8c0,0,2.7-6.2,8.1-6.1
				c2.9,0,5.2,0.7,7,1.5C468.3,604.3,465.4,602.3,460.3,603.4z"/>
		</g>
		<g>
			<path class="st26" d="M450.2,586.1c-4.7,7.9-4.6,25-4.6,25s1.2,0.6,1.7,0.3c0-0.1,0-0.3,0.1-0.4c1.6-11,5.2-20.6,7.2-24.1
				c3.4-5.8,5.7-9.3,5.7-9.3S454,579.7,450.2,586.1z"/>
			<path class="st25" d="M456.4,581c0,0-1.4,2.8-1.2,5c0.1,2.1-0.3,2.7-0.3,2.7l-1.4,1.2c0,0-1.2-2.5,0-5
				C454.7,582.2,456.4,581,456.4,581z"/>
			<path class="st25" d="M452,585.7c0,0-1.1,2.9-0.6,5.5c0.4,2.4,1.3,3.2,1.3,3.2l-1.3,1.6c0,0-1.5-1.6-1.5-4.8
				C449.9,587.6,452,585.7,452,585.7z"/>
			<path class="st25" d="M448.4,594.3c0,0-1.1,3.4,0,5.7c1.1,2.4,1.8,2.9,1.8,2.9l0.5-1.9C450.7,601,448.5,598.5,448.4,594.3z"/>
			<path class="st27" d="M454.6,586.9c-2,3.5-5.7,13.1-7.2,24.1l0.8,0.1c0,0,4-12.9,4.8-15.1c1.1-3.2,3.8-8.2,5-11.6
				c1.3-3.4,2.3-6.8,2.3-6.8S458,581,454.6,586.9z"/>
		</g>
		<g>
			<path class="st26" d="M440,611.9c0,0-1-0.8-2.8-0.7c-1.8,0.1-5.2,1.4-5.2,1.4s2.3-3.4,4.6-3.5c2.4-0.1,4.5,2.1,4.5,2.1L440,611.9
				z"/>
			<path class="st25" d="M432,612.5c0,0,2.6-2.2,5.2-2.2c2.6,0,4.4,1.8,4.4,1.8l-1.1,0.3c0,0-1.4-1.2-3.2-1.3
				C435.1,611.1,432,612.5,432,612.5z"/>
		</g>
		<g>
			<path class="st28" d="M457.6,610.7c-3-1.2-6.7,1.5-6.7,1.5l0.3,0.3c1-0.7,3.1-1.2,5.3-0.7c2.8,0.8,3.9,2.9,3.9,2.9
				S461.1,612,457.6,610.7z"/>
			<path class="st26" d="M456.8,612.8c0,0,0.8-0.4,1.8-0.3c0.5,0.1,1.1,0.4,1.1,0.4s-0.5-1.3-1.7-1c-1.2,0.2-1.6,0.6-1.6,0.6
				L456.8,612.8z"/>
			<path class="st26" d="M455.5,612.4c0,0,0.6-0.8,1.3-0.9c0.6-0.1,1.1-0.2,1.1-0.2s-1.2-0.4-1.9,0c-0.7,0.4-1.1,1.1-1.1,1.1H455.5z
				"/>
			<path class="st27" d="M456.5,611.8c-2.2-0.6-4.3-0.1-5.3,0.7c-0.3,0.2-0.5,0.5-0.5,0.7c1.3,0.2,2.4-0.7,4.5-0.2
				c2.2,0.5,5.2,1.7,5.2,1.7S459.3,612.6,456.5,611.8z"/>
		</g>
		<g>
			<path class="st27" d="M429.7,601c-2.4,1.4-2.9,5.5-2.9,5.5s3.7-2.8,5.8-3.8s5.2-0.4,5.2-0.4S433.6,598.7,429.7,601z"/>
			<g>
				<path class="st26" d="M429.4,602.4c0,0,1.6-1,2.9-0.5c1.3,0.4,2.2,1.1,2.2,1.1l-1.3,0.4C433.3,603.4,432.6,602.4,429.4,602.4z"
					/>
				<path class="st26" d="M433,601c0,0,2.2,1.5,3.4,1.8s1.5-0.3,1.5-0.3S435.1,600.8,433,601z"/>
				<path class="st28" d="M436.9,604.5c3.1,0.9,5.5,2.4,6.5,6.3c0.1,0.3,0.1,0.6,0.1,0.9l1.5,0.2c0,0-0.4-6.3-3.1-8.3
					c-2.8-2-5-1.8-5.4-1.8c-3.8,0.3-7.6,2.7-9.5,4.8c0,0,1.8-0.5,3.8-0.9C431.8,605,434.5,603.8,436.9,604.5z"/>
				<path class="st26" d="M440.6,607.6c1.2,1.2,2.4,3.9,2.4,3.9l0.4,0.1c0-0.3,0-0.5-0.1-0.9c-1-3.9-3.4-5.4-6.5-6.3
					c-2.4-0.7-5.1,0.5-6.3,1.2c1-0.2,2-0.4,2.9-0.5C433.7,605.1,437.6,604.6,440.6,607.6z"/>
			</g>
		</g>
		<path class="st27" d="M429.1,582.6c0,0,4.7-2,8.5,1.3c3.4,3,4,8.6,4,8.6L429.1,582.6z"/>
		<path class="st28" d="M429.1,582.6c0,0,5.5,3.8,8.3,8.8c2.7,5,6.8,19.3,6.8,19.3l1.1,0.8c0,0-0.8-6.9-1.1-10.9
			c-0.3-4.1-2-10.5-5-13.8C434.9,582.1,429.1,582.6,429.1,582.6z"/>
		<g>
			<path class="st28" d="M444.1,610.7c2.3,0.1,6.2-1,7.2,1.7c0.2,0.5-0.4,2-0.4,2l-11.9-0.7C439.1,613.8,438.9,610.5,444.1,610.7z"
				/>
			<path class="st27" d="M451.4,612.4c-3.2,0.9-9.5,0.5-11.4-0.6c-0.4,0.2-0.8,1.1-0.9,1.9c-0.3,2.7,1.4,8.1,7.6,10.8
				c3.7-4.1,4.9-5.5,5.2-8.7C452.2,613.3,451.5,612.7,451.4,612.4z"/>
			<path class="st28" d="M445.3,611.5c0,0-2.7,1.1-3.5,2.3c-0.8,1.2-1.2,2.5-1.2,2.5s0.6-0.6,1.5-1.8c0.6-0.8,2.1-1.8,2.1-1.8
				s-0.9,3.5-0.8,5.8c0.1,2.3,0.8,3.9,0.8,3.9s0.3-2.6,0.4-4.9c0.1-2.3,1-4.1,1-4.1s1.8,3,2.2,4.4c0.4,1.3,1.1,3.4,1.1,3.4
				s0.2-2.4-0.5-4.6c-0.7-2.2-1.7-3.1-1.7-3.1s1.4,0.5,2.4,0.9c1,0.4,2.2,1.1,2.2,1.1s-0.7-1-2-2
				C448.5,612.9,445.3,611.5,445.3,611.5z"/>
		</g>
	</g>
	<g>
		<g>
			<g>
				<path class="st29" d="M393.2,307.5l-98.8,58.1h0c54.6,32.1,143.1,32.1,197.6,0l0,0L393.2,307.5z"/>
				<polygon class="st29" points="303.6,358.8 294.4,360.1 294.4,365.5 303.6,366.5 				"/>
				<polygon class="st29" points="485,360.1 485,364.2 492,365.5 492,360.1 				"/>
				<path class="st13" d="M393.2,302l-98.8,58.1l0,0c54.6,32.1,143.1,32.1,197.6,0v0L393.2,302z"/>
			</g>
			<g>
				<path class="st29" d="M393.2,302l-95,55.8v0c52.5,30.8,137.5,30.8,190,0l0,0L393.2,302z"/>
				<polygon class="st29" points="298.2,346.3 298.2,357.8 314,359.4 319.5,343.4 				"/>
				<polygon class="st29" points="488.2,346.3 488.2,357.8 463.9,353.8 480.6,346.3 				"/>
				<path class="st13" d="M393.2,290.5l-95,55.8v0c52.5,30.8,137.5,30.8,190,0l0,0L393.2,290.5z"/>
				<g>
					<path class="st30" d="M404.2,309.9l68.4,40.5c3.1-1.4,6.1-2.9,9.1-4.6L404.2,300h-21.9l-77.4,45.9c2.9,1.7,5.9,3.2,8.9,4.7
						l68.5-40.6H404.2z"/>
					<path class="st29" d="M472.5,350.4l-68.4-40.5h-21.9l-68.5,40.6C360.2,372.7,425.3,372.1,472.5,350.4z"/>
				</g>
				<g>
					<path class="st30" d="M427.8,328.5H359c-1,0-1.8,0.5-1.8,1.1c0,0.6,0.8,1.1,1.8,1.1h68.8c1,0,1.8-0.5,1.8-1.1
						C429.6,329,428.8,328.5,427.8,328.5z"/>
					<path class="st30" d="M432.5,333.6h-10.9h-57.9h-10.9c-1,0-1.8,0.5-1.8,1.1c0,0.6,0.8,1.1,1.8,1.1h10.9h57.9h10.9
						c1,0,1.8-0.5,1.8-1.1C434.3,334.1,433.5,333.6,432.5,333.6z"/>
					<path class="st30" d="M437.8,339h-10.9h-0.9H415h-46.1H358h-0.9h-10.9c-1,0-1.8,0.5-1.8,1.1c0,0.6,0.8,1.1,1.8,1.1h10.9h0.9
						h10.9H415h10.9h0.9h10.9c1,0,1.8-0.5,1.8-1.1C439.5,339.5,438.7,339,437.8,339z"/>
					<path class="st30" d="M443.3,344.5h-10.9h-0.5h-0.4h-10.5h-0.4H420h-10.9h-34.6h-10.9H363h-0.4h-10.5h-0.4h-0.5h-10.9
						c-1,0-1.8,0.5-1.8,1.1c0,0.6,0.8,1.1,1.8,1.1h10.9h0.5h0.4h10.5h0.4h0.5h10.9h34.6H420h0.5h0.4h10.5h0.4h0.5h10.9
						c1,0,1.8-0.5,1.8-1.1C445,345,444.3,344.5,443.3,344.5z"/>
					<path class="st30" d="M451.1,349.9h-10.9h-0.5h-0.4h-1.7h-8.9h-0.4h-0.5h-1.1h-0.5h-0.4h-8.9h-1.7h-0.4h-0.5h-10.9h-21.1h-10.9
						h-0.5h-0.4h-1.7h-8.9h-0.4h-0.5h-1.1h-0.5h-0.4H348h-1.7h-0.4h-0.5h-10.9c-1,0-1.8,0.5-1.8,1.1c0,0.6,0.8,1.1,1.8,1.1h10.9h0.5
						h0.4h1.7h8.9h0.4h0.5h1.1h0.5h0.4h8.9h1.7h0.4h0.5h10.9h21.1h10.9h0.5h0.4h1.7h8.9h0.4h0.5h1.1h0.5h0.4h8.9h1.7h0.4h0.5h10.9
						c1,0,1.8-0.5,1.8-1.1C452.8,350.4,452,349.9,451.1,349.9z"/>
					<path class="st30" d="M454.1,355.4h-6.7h-4.3h-0.5h-0.4h-1.7h-4.1H436h-0.4h-1.7h-2.2h-0.4h-0.5h-1.1h-0.5h-0.4H425h-0.4h-0.5
						H423h-0.5H422h-2.2h-1.7h-0.4h-0.5h-4.1h-1.7h-0.4h-0.5h-4.3h-6.7h-14.4h-6.7h-4.3h-0.5h-0.4h-1.7h-4.1h-0.5h-0.4h-1.7h-2.2
						h-0.4h-0.5h-1.1h-0.5h-0.4h-3.7h-0.4h-0.5h-1.1h-0.5h-0.4H351h-1.7h-0.4h-0.5h-4.1h-1.7h-0.4h-0.5h-4.3h-6.7
						c-1,0-1.8,0.5-1.8,1.1c0,0.1,0,0.2,0,0.2c0.5,0.2,2.5,0.9,2.5,0.9h5.9h4.3h0.5h0.4h1.7h4.1h0.5h0.4h1.7h2.2h0.4h0.5h1.1h0.5
						h0.4h3.7h0.4h0.5h1.1h0.5h0.4h2.2h1.7h0.4h0.5h4.1h1.7h0.4h0.5h4.3h6.7h14.4h6.7h4.3h0.5h0.4h1.7h4.1h0.5h0.4h1.7h2.2h0.4h0.5
						h1.1h0.5h0.4h3.7h0.4h0.5h1.1h0.5h0.4h2.2h1.7h0.4h0.5h4.1h1.7h0.4h0.5h4.3h6.3c0.6-0.2,1.3-0.4,1.8-0.6
						c0.2-0.2,0.3-0.3,0.3-0.5C455.8,355.9,455,355.4,454.1,355.4z"/>
				</g>
			</g>
			<path class="st31" d="M400.8,319c0,2.3-3.3,4.1-7.3,4.1c-4.1,0-7.3-1.9-7.3-4.1c0-2.3,3.3-4.1,7.3-4.1
				C397.5,314.9,400.8,316.7,400.8,319z"/>
			<g>
				<path class="st32" d="M393.4,318c2.6,0,4.9,0.9,5.8,2.3c0.3-0.4,0.4-0.8,0.4-1.2c0-1.9-2.8-3.5-6.2-3.5c-3.4,0-6.2,1.6-6.2,3.5
					c0,0.4,0.2,0.8,0.4,1.2C388.5,318.9,390.8,318,393.4,318z"/>
				<path class="st33" d="M393.4,322.5c2.6,0,4.9-0.9,5.8-2.3c-0.9-1.3-3.1-2.3-5.8-2.3s-4.9,0.9-5.8,2.3
					C388.5,321.6,390.8,322.5,393.4,322.5z"/>
			</g>
		</g>
		<polygon class="st34" points="298.2,346.3 298.2,88.7 393.2,32.8 393.2,290.5 		"/>
		<polygon class="st35" points="393.2,32.8 393.2,290.5 488.2,346.3 488.2,88.7 		"/>
		<rect x="382.3" y="38.5" class="st30" width="21.9" height="261.5"/>
		<g>
			<path class="st31" d="M390.1,171.6v31.9c0,0.9,1.2,1.6,2.8,1.6c1.5,0,2.8-0.7,2.8-1.6v-31.9H390.1z"/>
			<g>
				<rect x="379.6" y="179.7" class="st36" width="26.7" height="3.6"/>
				<rect x="379.6" y="183.3" class="st24" width="26.7" height="3.6"/>
			</g>
			<g>
				<path class="st31" d="M390.1,66.8v113.4c0,0.9,1.2,1.6,2.8,1.6s2.8-0.7,2.8-1.6V66.8H390.1z"/>
				<ellipse class="st36" cx="392.9" cy="66.8" rx="2.8" ry="1.6"/>
				<path class="st31" d="M394.7,66.7c0,0.5-0.8,1-1.7,1s-1.7-0.4-1.7-1c0-0.5,0.8-1,1.7-1S394.7,66.1,394.7,66.7z"/>
			</g>
			<polygon class="st24" points="409.4,75.2 377.1,75.2 377.1,72.6 379.4,61.4 406.1,61.4 409.4,72.6 			"/>
			<polygon class="st36" points="409.4,72.6 377.1,72.6 379.4,58.8 406.1,58.8 			"/>
			<g>
				<path class="st36" d="M400.6,186.9h-1.8c0.2,3.2,0.5,6.3,0.8,9.5c0.9,9.6,1.9,19.5,0.1,33.4c-1.8,14-11.6,19.6-16.6,20.2
					c-4.5,0.6-10.3-2.8-12.5-8.8c-5.5-14.5,1.6-47.4,5.1-63.2c4.7-21.8,4.5-58.1,4.5-58.4l-1.8,0c0,0.4,0.3,36.5-4.5,58.1
					c-3.5,15.9-10.7,49.1-5,64.1c2.4,6.3,8.4,10,13.3,10c0.4,0,0.8,0,1.2-0.1c5.6-0.7,16.2-6.7,18.1-21.7
					c1.8-14.1,0.8-24.1-0.1-33.8C401.1,193.1,400.8,190,400.6,186.9z"/>
			</g>
			<g>
				<path class="st33" d="M377.1,99.6c-0.5,3-0.6,7.3-0.5,12.3c0.1,5,0.5,9.8,2.3,10.1c1.8,0.3,2.9-1.5,2.9-7.3
					c0-4.6,1.8-11.7,1.8-11.7S377.7,96.1,377.1,99.6z"/>
				<g>
					<path class="st33" d="M386.7,95.8c0,3.6-2.2,7.8-4.9,9.3c-2.7,1.6-4.9-0.1-4.9-3.7c0-3.6,2.2-7.8,4.9-9.3
						c1.2-0.7,2.2-0.7,3.1-0.3C386,92.3,386.7,93.7,386.7,95.8z"/>
					<path class="st33" d="M386.1,92.5c0,0-0.7-0.5-1.2-0.7s-0.9,0.7-0.9,0.7s1.3,1.3,1.5,1.3C385.7,93.9,386.1,92.5,386.1,92.5z"/>
					<path class="st33" d="M378.6,105.3l1.1,0.6c0,0,0.6-0.7,0.2-1.2S378.6,105.3,378.6,105.3z"/>
					<path class="st36" d="M387.6,96.3c0,3.6-2.2,7.8-4.9,9.3c-2.7,1.6-4.9-0.1-4.9-3.7s2.2-7.8,4.9-9.3
						C385.4,91.1,387.6,92.7,387.6,96.3z"/>
					<path class="st37" d="M387.6,97.2c0,3-1.8,6.4-4,7.7c-2.2,1.3-4-0.1-4-3.1s1.8-6.4,4-7.7C385.8,92.8,387.6,94.2,387.6,97.2z"/>
					<path class="st33" d="M382.8,104.2c0,0.3-0.2,0.6-0.4,0.7c-0.2,0.1-0.4,0-0.4-0.3c0-0.3,0.2-0.6,0.4-0.7
						C382.6,103.8,382.8,103.9,382.8,104.2z"/>
					<path class="st33" d="M383.5,101.6c0,0.3-0.2,0.6-0.4,0.7c-0.2,0.1-0.4,0-0.4-0.3c0-0.3,0.2-0.6,0.4-0.7
						C383.3,101.2,383.5,101.3,383.5,101.6z"/>
					<path class="st33" d="M384.7,97.6c0,0.3-0.2,0.6-0.4,0.7c-0.2,0.1-0.4,0-0.4-0.3c0-0.3,0.2-0.6,0.4-0.7
						C384.5,97.2,384.7,97.3,384.7,97.6z"/>
					<path class="st33" d="M385.5,94.9c0,0.3-0.2,0.6-0.4,0.7c-0.2,0.1-0.4,0-0.4-0.3s0.2-0.6,0.4-0.7
						C385.3,94.5,385.5,94.6,385.5,94.9z"/>
					<path class="st33" d="M383.1,99.6c0,0.3-0.2,0.6-0.4,0.7c-0.2,0.1-0.4,0-0.4-0.3c0-0.3,0.2-0.6,0.4-0.7
						C383,99.2,383.1,99.3,383.1,99.6z"/>
					<path class="st33" d="M381.5,102.9c0,0.3-0.2,0.6-0.4,0.7c-0.2,0.1-0.4,0-0.4-0.3c0-0.3,0.2-0.6,0.4-0.7
						C381.3,102.5,381.5,102.6,381.5,102.9z"/>
					<path class="st33" d="M381.3,100.5c0,0.3-0.2,0.6-0.4,0.7c-0.2,0.1-0.4,0-0.4-0.3c0-0.3,0.2-0.6,0.4-0.7
						C381.1,100.1,381.3,100.2,381.3,100.5z"/>
					<path class="st33" d="M387.1,98.2c0,0.3-0.2,0.6-0.4,0.7c-0.2,0.1-0.4,0-0.4-0.3c0-0.3,0.2-0.6,0.4-0.7
						C386.9,97.8,387.1,97.9,387.1,98.2z"/>
					<path class="st33" d="M381.9,97.8c0,0.3-0.2,0.6-0.4,0.7c-0.2,0.1-0.4,0-0.4-0.3c0-0.3,0.2-0.6,0.4-0.7
						C381.7,97.4,381.9,97.5,381.9,97.8z"/>
					<path class="st33" d="M386.7,96c0,0.3-0.2,0.6-0.4,0.7c-0.2,0.1-0.4,0-0.4-0.3c0-0.3,0.2-0.6,0.4-0.7
						C386.5,95.6,386.7,95.7,386.7,96z"/>
					<path class="st33" d="M383.5,95.7c0,0.3-0.2,0.6-0.4,0.7c-0.2,0.1-0.4,0-0.4-0.3c0-0.3,0.2-0.6,0.4-0.7
						C383.3,95.3,383.5,95.4,383.5,95.7z"/>
					<path class="st33" d="M385.1,99.6c0,0.3-0.2,0.6-0.4,0.7c-0.2,0.1-0.4,0-0.4-0.3c0-0.3,0.2-0.6,0.4-0.7
						C384.9,99.2,385.1,99.3,385.1,99.6z"/>
					<path class="st33" d="M384.8,102.9c0,0.3-0.2,0.6-0.4,0.7c-0.2,0.1-0.4,0-0.4-0.3c0-0.3,0.2-0.6,0.4-0.7
						C384.6,102.5,384.8,102.6,384.8,102.9z"/>
					<path class="st33" d="M386.1,100.9c0,0.3-0.2,0.6-0.4,0.7c-0.2,0.1-0.4,0-0.4-0.3s0.2-0.6,0.4-0.7
						C386,100.5,386.1,100.6,386.1,100.9z"/>
				</g>
			</g>
			<g>
				<rect x="375.9" y="114.8" class="st36" width="30.4" height="3.6"/>
				<rect x="375.9" y="118.4" class="st24" width="30.4" height="3.6"/>
			</g>
			<path class="st31" d="M390.1,75.2v40.5c0,0.9,1.2,1.6,2.8,1.6s2.8-0.7,2.8-1.6V75.2H390.1z"/>
		</g>
		<path class="st30" d="M382.3,43.8h21.9l69.6,40.7c1.1-0.6,10.6-4.4,11.7-4.9L393.2,26l-91.6,53.5c0.9,0.7,10.1,4.4,11,5
			L382.3,43.8z"/>
		<g>
			<g>
				<polygon class="st35" points="363.7,129.3 301.6,217.5 301.6,224.2 363.7,135.9 				"/>
				<polygon class="st35" points="336.8,97.6 301.6,147.6 301.6,154.9 341,98.9 				"/>
				<polygon class="st35" points="322.2,93 301.6,122.2 301.6,131.6 327.6,94.7 				"/>
				<polygon class="st35" points="301.6,86.6 301.6,119 320.3,92.5 				"/>
				<polygon class="st35" points="363.7,106 359.5,104.7 301.6,186.9 301.6,214.3 363.7,126 				"/>
				<path class="st35" d="M301.6,348.5c0,0,10.9,5.9,24.6,10.6c17,5.8,37.5,8.5,37.5,8.5V197l-62.1,88.2V348.5z"/>
				<polygon class="st35" points="363.7,167.9 301.6,256.1 301.6,269.2 363.7,181 				"/>
				<polygon class="st35" points="341,98.9 301.6,154.9 301.6,186.9 359.5,104.7 				"/>
				<polygon class="st38" points="341,98.9 301.6,154.9 301.6,186.9 359.5,104.7 				"/>
				<polygon class="st35" points="363.7,135.9 301.6,224.2 301.6,256.1 363.7,167.9 				"/>
				<polygon class="st38" points="363.7,135.9 301.6,224.2 301.6,256.1 363.7,167.9 				"/>
				<polygon class="st35" points="327.6,94.7 301.6,131.6 301.6,147.6 336.8,97.6 				"/>
				<polygon class="st38" points="327.6,94.7 301.6,131.6 301.6,147.6 336.8,97.6 				"/>
				<polygon class="st35" points="301.6,269.2 301.6,285.2 363.7,197 363.7,181 				"/>
				<polygon class="st38" points="301.6,269.2 301.6,285.2 363.7,197 363.7,181 				"/>
				<polygon class="st35" points="320.3,92.5 301.6,119 301.6,122.2 322.2,93 				"/>
				<polygon class="st38" points="320.3,92.5 301.6,119 301.6,122.2 322.2,93 				"/>
				<polygon class="st35" points="363.7,126 301.6,214.3 301.6,217.5 363.7,129.3 				"/>
				<polygon class="st38" points="363.7,126 301.6,214.3 301.6,217.5 363.7,129.3 				"/>
			</g>
			<polygon class="st29" points="365.4,106.8 365.4,372.2 362,370.6 362,104.7 			"/>
			<polygon class="st30" points="368.8,104 368.8,365.6 365.4,367.9 365.4,108.7 			"/>
		</g>
		<g>
			<g>
				<polygon class="st35" points="484.8,104.3 422.7,192.6 422.7,217.4 484.8,129.2 				"/>
				<polygon class="st35" points="422.7,106 422.7,137.3 450.9,97.2 				"/>
				<polygon class="st35" points="465.3,92.7 422.7,153.3 422.7,160.6 471.9,90.6 				"/>
				<path class="st35" d="M422.7,226.8v140.8c0,0,20.5-2.7,37.5-8.5c13.7-4.7,24.6-10.6,24.6-10.6v-210L422.7,226.8z"/>
				<polygon class="st35" points="484.8,86.6 471.9,90.6 422.7,160.6 422.7,192.6 484.8,104.3 				"/>
				<polygon class="st38" points="484.8,86.6 471.9,90.6 422.7,160.6 422.7,192.6 484.8,104.3 				"/>
				<polygon class="st35" points="450.9,97.2 422.7,137.3 422.7,153.3 465.3,92.7 				"/>
				<polygon class="st38" points="450.9,97.2 422.7,137.3 422.7,153.3 465.3,92.7 				"/>
				<polygon class="st35" points="484.8,129.2 422.7,217.4 422.7,226.8 484.8,138.5 				"/>
				<polygon class="st38" points="484.8,129.2 422.7,217.4 422.7,226.8 484.8,138.5 				"/>
			</g>
			<polygon class="st29" points="421,106.8 421,372.2 424.4,370.6 424.4,104.7 			"/>
			<polygon class="st30" points="417.6,104 417.6,365.6 421,367.9 421,108.7 			"/>
		</g>
		<path class="st29" d="M488.2,89.4v-9.8c0,0-3.1,1.8-9.1,4.5l-0.6-0.3c-1.1,0.5-2.2,1.1-3.2,1.7l0.3,0.2c-2.3,1-5,2.1-7.9,3.2
			c-13.6,5.1-56.7,14.5-76.1,13.1c-39.5-2.9-63.4-9.4-74.8-14.3c-2.4-1-4.5-2-6.5-2.8c-0.6-0.4-1.2-0.8-1.8-1.3l-0.5,0.3
			c-6.2-2.6-9.8-4.1-9.8-4.1v9.8v0l0,0C350.7,120.2,435.7,120.2,488.2,89.4L488.2,89.4L488.2,89.4z"/>
		<g>
			<path class="st13" d="M393.2,23.8l-95,55.8v0c52.5,30.8,137.5,30.8,190,0l0,0L393.2,23.8z M472.5,83.8
				c-47.2,21.5-112.4,22.1-158.8,0.1c-3-1.4-6-3-8.9-4.6L382.3,34h21.9l77.4,45.3C478.7,80.9,475.6,82.3,472.5,83.8z"/>
		</g>
		<polygon class="st29" points="301.6,86.6 301.6,352.1 298.2,350.5 298.2,84.6 		"/>
		<g>
			<path class="st31" d="M356.8,235.7c0.7,2.6-0.4,5.2-2.5,5.8c-2.1,0.6-4.5-1-5.2-3.7c-0.7-2.6,0.4-5.2,2.5-5.8
				C353.7,231.5,356,233.1,356.8,235.7z"/>
			<polygon class="st31" points="349.7,233 351,232.3 355,241.3 353.4,242.1 			"/>
			<path class="st36" d="M355.6,236.4c0.7,2.6-0.4,5.2-2.5,5.8c-2.1,0.6-4.5-1-5.2-3.7c-0.7-2.6,0.4-5.2,2.5-5.8
				C352.5,232.1,354.8,233.8,355.6,236.4z"/>
		</g>
		<g>
			<path class="st31" d="M430.5,235.7c-0.7,2.6,0.4,5.2,2.5,5.8c2.1,0.6,4.5-1,5.2-3.7c0.7-2.6-0.4-5.2-2.5-5.8
				C433.6,231.5,431.2,233.1,430.5,235.7z"/>
			<polygon class="st31" points="437.6,233 436.3,232.3 432.3,241.3 433.9,242.1 			"/>
			<path class="st36" d="M431.7,236.4c-0.7,2.6,0.4,5.2,2.5,5.8c2.1,0.6,4.5-1,5.2-3.7c0.7-2.6-0.4-5.2-2.5-5.8
				C434.8,232.1,432.5,233.8,431.7,236.4z"/>
		</g>
		<polygon class="st29" points="484.8,86.6 484.8,352 488.2,350.4 488.2,84.5 		"/>
	</g>
	<g>
		<g>
			<polygon class="st36" points="149.8,256.4 82.5,295.3 61.6,283.2 128.9,244.3 			"/>
			<polygon class="st39" points="149.8,256.4 82.5,295.3 82.5,298.5 149.8,259.7 			"/>
			<polygon class="st31" points="61.6,283.2 61.6,286.5 82.5,298.5 82.5,295.3 			"/>
		</g>
		<g>
			<path class="st22" d="M123.9,245.9h-13.4v17.6h0c0,0,0,0,0,0.1c0,2.1,3,3.8,6.7,3.8c3.7,0,6.7-1.7,6.7-3.8c0,0,0,0,0-0.1h0V245.9
				z"/>
			<path class="st40" d="M110.5,245.9c0,2.1,3,3.8,6.7,3.8c3.7,0,6.7-1.7,6.7-3.8c0-2.1-3-3.8-6.7-3.8
				C113.5,242.1,110.5,243.8,110.5,245.9z"/>
			<path class="st31" d="M116.5,253.8c0.6,0.1,1.1,0.2,1.8,0.2c3.1,0,5.7-1.4,5.7-3.2v9.8c0,1.8-2.5,3.2-5.7,3.2
				c-0.6,0-1.2-0.1-1.8-0.2V253.8z"/>
			<path class="st13" d="M116.5,255.7c0.6,0.1,1.1,0.2,1.8,0.2c3.1,0,5.7-1.4,5.7-3.2v6.3c0,1.8-2.5,3.2-5.7,3.2
				c-0.6,0-1.2-0.1-1.8-0.2V255.7z"/>
			<path class="st31" d="M116.5,251.9c0.6,0.1,1.1,0.2,1.8,0.2c3.1,0,5.7-1.4,5.7-3.2v0.8c0,1.8-2.5,3.2-5.7,3.2
				c-0.6,0-1.2-0.1-1.8-0.2V251.9z"/>
			<g>
				<path class="st12" d="M114.4,242.5v6.8c-0.4-0.1-0.8-0.2-1.2-0.4v-6C113.6,242.7,114,242.6,114.4,242.5z"/>
				<path class="st12" d="M122.3,243.4h0.1v4.9c-0.3,0.2-0.7,0.4-1.2,0.6v-6C121.7,243,122,243.2,122.3,243.4z"/>
				<path class="st12" d="M118.5,242.2v7.4c-0.4,0-0.8,0.1-1.2,0.1v-7.5C117.7,242.1,118.1,242.1,118.5,242.2z"/>
				<path class="st12" d="M120.5,242.6v6.6c-0.4,0.1-0.8,0.2-1.2,0.3v-7.2C119.7,242.4,120.1,242.5,120.5,242.6z"/>
				<path class="st12" d="M116.5,242.1v7.5c-0.5,0-0.9-0.1-1.4-0.2v-7.2C115.6,242.2,116,242.2,116.5,242.1z"/>
				<path class="st12" d="M123.9,243.4v2.5c0,0.6-0.3,1.2-0.7,1.7v-4.2H123.9z"/>
				<path class="st12" d="M112.2,243.4c0.1-0.1,0.2-0.1,0.3-0.2v5.3c-0.5-0.3-0.8-0.6-1.2-0.9v-4.2H112.2z"/>
				<path class="st41" d="M123.2,243.4v4.2c-0.2,0.2-0.5,0.5-0.8,0.7v-4.9H123.2z"/>
				<path class="st41" d="M121.3,242.9v6c-0.2,0.1-0.5,0.2-0.8,0.3v-6.6C120.8,242.7,121,242.8,121.3,242.9z"/>
				<path class="st41" d="M119.3,242.3v7.2c-0.3,0-0.5,0.1-0.8,0.1v-7.4C118.8,242.2,119,242.2,119.3,242.3z"/>
				<path class="st41" d="M117.2,242.1C117.3,242.1,117.3,242.1,117.2,242.1l0,7.5c0,0,0,0,0,0c-0.2,0-0.5,0-0.7,0v-7.5
					C116.7,242.1,117,242.1,117.2,242.1z"/>
				<path class="st41" d="M115.2,242.3v7.2c-0.3,0-0.5-0.1-0.8-0.2v-6.8C114.6,242.4,114.9,242.3,115.2,242.3z"/>
				<path class="st41" d="M113.2,242.9v6c-0.3-0.1-0.5-0.2-0.8-0.4v-5.3C112.7,243.1,113,243,113.2,242.9z"/>
				<path class="st41" d="M111.3,247.6c-0.5-0.5-0.8-1.1-0.8-1.8v-2.5h0.8V247.6z"/>
				<path class="st13" d="M110.5,243.4c0,2.1,3,3.8,6.7,3.8c3.7,0,6.7-1.7,6.7-3.8c0-2.1-3-3.8-6.7-3.8
					C113.5,239.6,110.5,241.3,110.5,243.4z"/>
				<path class="st12" d="M111.3,243.4c0,1.9,2.7,3.4,6,3.4c3.3,0,6-1.5,6-3.4c0-1.9-2.7-3.4-6-3.4
					C113.9,240,111.3,241.5,111.3,243.4z"/>
			</g>
		</g>
		<g>
			<path class="st20" d="M125.9,251.9v5c0,2.1,3,3.8,6.8,3.8c3.7,0,6.8-1.7,6.8-3.8v-5H125.9z"/>
			<path class="st12" d="M139.4,251.9c0,2.1-3,3.8-6.8,3.8c-3.7,0-6.8-1.7-6.8-3.8c0-2.1,3-3.8,6.8-3.8
				C136.4,248.1,139.4,249.8,139.4,251.9z"/>
			<rect x="125.9" y="249.7" class="st12" width="13.5" height="2.5"/>
			<path class="st13" d="M139.4,249.7c0,2.1-3,3.8-6.8,3.8c-3.7,0-6.8-1.7-6.8-3.8c0-2.1,3-3.8,6.8-3.8
				C136.4,245.9,139.4,247.6,139.4,249.7z"/>
			<path class="st13" d="M130.9,256.9c0.6,0.1,1.3,0.2,2,0.2c3.6,0,6.5-1.6,6.5-3.7v2.5c0,2-2.9,3.9-6.5,3.9c-0.7,0-1.4-0.1-2-0.2
				V256.9z"/>
			<path class="st31" d="M131.5,257.5c0.6,0.1,1.2,0.2,1.9,0.2c3.4,0,6.1-1.8,6.1-3.7v0.9c0,1.9-2.7,3.6-6.1,3.6
				c-0.7,0-1.3-0.1-1.9-0.2V257.5z"/>
		</g>
		<g>
			<polygon class="st17" points="93.9,285.3 85.1,280.2 85.1,268.5 93.9,273.6 			"/>
			<polygon class="st42" points="93.9,285.3 102.7,280.2 102.7,268.5 93.9,273.6 			"/>
			<polygon class="st13" points="93.9,276.2 102.7,271.1 102.7,269.9 93.9,275 			"/>
			<polygon class="st43" points="93.9,276.2 85.1,271.1 85.1,269.9 93.9,275 			"/>
			<polygon class="st18" points="85.1,268.5 93.7,263.5 102.7,268.6 93.9,273.6 			"/>
			<path class="st31" d="M100.9,277.2c0,1.7-1.1,3.8-2.4,4.5s-2.4,0-2.4-1.8s1.1-3.8,2.4-4.5C99.9,274.7,100.9,275.5,100.9,277.2z"
				/>
			<path class="st13" d="M98.7,274.3c0,0,0.2,1.1-0.4,1.9c-0.5,0.8-0.1,1.3-0.1,1.3s-0.8,0.6-1.1,1.2c-0.4,0.9,0.6,1.2,0.6,1.2
				s-0.6,0.7,0.1,1.1c1.1,0.5,2.1-1.2,2.1-2.1c0-1-0.6-1.4-0.6-1.4s0.4-0.8,0.1-1.8C99.2,274.5,98.7,274.3,98.7,274.3z"/>
		</g>
		<g>
			<polygon class="st22" points="83.6,291.2 74.8,286.1 74.8,274.4 83.6,279.5 			"/>
			<polygon class="st20" points="83.5,291.2 92.4,286.1 92.4,274.4 83.5,279.5 			"/>
			<polygon class="st13" points="83.5,282 92.4,277 92.4,275.8 83.5,280.9 			"/>
			<polygon class="st43" points="83.6,282 74.8,277 74.8,275.8 83.6,280.9 			"/>
			<polygon class="st44" points="74.8,274.4 83.3,269.4 92.3,274.4 83.6,279.5 			"/>
			<path class="st45" d="M90.6,283.1c0,1.7-1.1,3.8-2.4,4.5c-1.3,0.8-2.4,0-2.4-1.8s1.1-3.8,2.4-4.5
				C89.5,280.6,90.6,281.4,90.6,283.1z"/>
			<path class="st13" d="M88.4,280.1c0,0,0.2,1.1-0.4,1.9c-0.5,0.8-0.1,1.3-0.1,1.3s-0.8,0.6-1.1,1.2c-0.4,0.8,0.6,1.2,0.6,1.2
				s-0.6,0.7,0.1,1.1c1.1,0.5,2.1-1.2,2.1-2.1c0-1-0.6-1.4-0.6-1.4s0.4-0.8,0.1-1.8C88.8,280.4,88.4,280.1,88.4,280.1z"/>
		</g>
	</g>
	<g>
		<g>
			<polygon class="st36" points="149.8,209.3 82.5,248.2 61.6,236.1 128.9,197.2 			"/>
			<polygon class="st39" points="149.8,209.3 82.5,248.2 82.5,251.4 149.8,212.6 			"/>
			<polygon class="st31" points="61.6,236.1 61.6,239.3 82.5,251.4 82.5,248.2 			"/>
		</g>
		<g>
			<path class="st42" d="M132,210.2c0,1.5-2.2,2.7-4.9,2.7c-2.7,0-4.9-1.2-4.9-2.7c0-1.5,2.2-2.7,4.9-2.7
				C129.8,207.4,132,208.7,132,210.2z"/>
			<rect x="122.2" y="187.3" class="st42" width="9.7" height="22.9"/>
			<rect x="121.7" y="186.6" class="st41" width="10.8" height="0.9"/>
			<path class="st12" d="M132.5,187.3c0,1.7-2.4,3-5.4,3s-5.4-1.4-5.4-3c0-1.7,2.4-3,5.4-3S132.5,185.7,132.5,187.3z"/>
			<path class="st13" d="M132.5,186.6c0,1.7-2.4,3-5.4,3s-5.4-1.4-5.4-3c0-1.7,2.4-3,5.4-3S132.5,184.9,132.5,186.6z"/>
			<path class="st12" d="M122,181.6v4.9h0c0.1,1.5,2.3,2.8,5,2.8c2.8,0,5-1.2,5-2.8h0v-4.9H122z"/>
			<path class="st13" d="M132.2,181.6c0,1.6-2.3,2.8-5.1,2.8c-2.8,0-5.1-1.3-5.1-2.8c0-1.6,2.3-2.8,5.1-2.8
				C129.9,178.7,132.2,180,132.2,181.6z"/>
			<path class="st31" d="M125.9,193.3c0.5,0.1,0.9,0.1,1.4,0.1c2.6,0,4.6-1.2,4.6-2.6V208c0,1.4-2.1,2.6-4.6,2.6
				c-0.5,0-1-0.1-1.4-0.1V193.3z"/>
			<path class="st13" d="M126.4,194.5c0.4,0.1,0.9,0.1,1.3,0.1c2.3,0,4.2-1.1,4.2-2.4v1.1c0,1.3-1.9,2.2-4.2,2.2
				c-0.5,0-0.9,0-1.3-0.1V194.5z"/>
			<path class="st13" d="M130,198.2c0,0,0.3,1.3-0.5,2.4c-0.7,1-0.1,1.6-0.1,1.6s-1,0.8-1.4,1.5c-0.5,1.1,0.8,1.5,0.8,1.5
				s-0.8,0.9,0.1,1.3c1.4,0.6,2.7-1.5,2.7-2.7c0-1.2-0.7-1.8-0.7-1.8s0.5-1,0.1-2.2C130.5,198.5,130,198.2,130,198.2z"/>
		</g>
		<g>
			<path class="st31" d="M112.9,213.6v4.8c0,2,2.9,3.6,6.5,3.6c3.6,0,6.5-1.6,6.5-3.6v-4.8H112.9z"/>
			<path class="st12" d="M124.6,211.5c-1.2-0.9-3.1-1.5-5.2-1.5c-2.2,0-4.1,0.6-5.2,1.5h-1.2v2.4h0c0.2,1.9,3,3.4,6.4,3.4
				c3.4,0,6.2-1.5,6.4-3.4h0v-2.4H124.6z"/>
			<path class="st13" d="M125.8,211.5c0,2-2.9,3.6-6.5,3.6c-3.6,0-6.5-1.6-6.5-3.6c0-2,2.9-3.6,6.5-3.6
				C122.9,207.8,125.8,209.5,125.8,211.5z"/>
			<path class="st13" d="M117.7,218.3c0.6,0.1,1.3,0.2,1.9,0.2c3.4,0,6.2-1.6,6.2-3.5v2.4c0,1.9-2.8,3.7-6.2,3.7
				c-0.7,0-1.3-0.1-1.9-0.2V218.3z"/>
			<path class="st31" d="M118.2,218.9c0.6,0.1,1.2,0.2,1.8,0.2c3.2,0,5.8-1.7,5.8-3.5v0.8c0,1.8-2.6,3.5-5.8,3.5
				c-0.6,0-1.2-0.1-1.8-0.2V218.9z"/>
		</g>
		<g>
			<g>
				<g>
					<path class="st46" d="M79.5,236.5l-3.2,1.9l0.2,0.1c0,0-1.6,1-2.6,1.1c0.5,0.2,1.3,0.5,1.8,0.6c0.5,0.1,1.1,0.1,1.5-0.1
						c0.7-0.5,2.1-1.7,3.3-2.6l0-0.2C80.6,236.5,80.1,236.2,79.5,236.5z"/>
					<path class="st39" d="M76.3,238.4c0,0-1.5,0-2.5,0.2c-0.7,0.1-0.9,0.5-0.6,0.7c0.1,0,0.1,0.1,0.3,0.2c0.1,0,0.3,0.1,0.5,0.1
						c0.9-0.1,2.6-1.1,2.6-1.1L76.3,238.4z"/>
				</g>
				<path class="st31" d="M80.8,237.6c-1.2,0.9-2.6,2.1-3.3,2.6c-0.4,0.3-1,0.3-1.5,0.1c-0.7-0.2-1.8-0.6-2.2-0.7
					c-0.7-0.2-0.8-0.7,0.2-0.9c1.1-0.2,2.5-0.2,2.5-0.2l3.2-1.9c0.6-0.3,1,0,1,0.8L80.8,237.6z"/>
			</g>
			<g>
				<g>
					<path class="st46" d="M81,237.4l-3.2,1.9l0.2,0.1c0,0-1.6,1-2.6,1.1c0.5,0.2,1.3,0.5,1.8,0.6c0.5,0.1,1.1,0.1,1.5-0.1
						c0.7-0.5,2.1-1.7,3.3-2.6l0-0.2C82,237.4,81.5,237,81,237.4z"/>
					<path class="st39" d="M77.7,239.3c0,0-1.5,0-2.5,0.2c-0.7,0.1-0.9,0.5-0.6,0.7c0.1,0,0.1,0.1,0.3,0.2c0.1,0,0.3,0.1,0.5,0.1
						c0.9-0.1,2.6-1.1,2.6-1.1L77.7,239.3z"/>
				</g>
				<path class="st31" d="M82.2,238.5c-1.2,0.9-2.6,2.1-3.3,2.6c-0.4,0.3-1,0.3-1.5,0.1c-0.7-0.2-1.8-0.6-2.2-0.7
					c-0.7-0.2-0.8-0.7,0.2-0.9c1.1-0.2,2.5-0.2,2.5-0.2l3.2-1.9c0.6-0.3,1,0,1,0.8L82.2,238.5z"/>
			</g>
			<g>
				<g>
					<path class="st46" d="M82,238l-3.2,1.9L79,240c0,0-1.6,1-2.6,1.1c0.5,0.2,1.3,0.5,1.8,0.6c0.5,0.1,1.1,0.1,1.5-0.1
						c0.7-0.5,2.1-1.7,3.3-2.6l0-0.2C83,238,82.6,237.6,82,238z"/>
					<path class="st39" d="M78.8,239.9c0,0-1.5,0-2.5,0.2c-0.7,0.1-0.9,0.5-0.6,0.7c0.1,0,0.1,0.1,0.3,0.2c0.1,0,0.3,0.1,0.5,0.1
						C77.4,241,79,240,79,240L78.8,239.9z"/>
				</g>
				<path class="st31" d="M83.2,239.1c-1.2,0.9-2.6,2.1-3.3,2.6c-0.4,0.3-1,0.3-1.5,0.1c-0.7-0.2-1.8-0.6-2.2-0.7
					c-0.7-0.2-0.8-0.7,0.2-0.9c1.1-0.2,2.5-0.2,2.5-0.2l3.2-1.9c0.6-0.3,1,0,1,0.8L83.2,239.1z"/>
			</g>
			<g>
				<g>
					<path class="st46" d="M83,238.6l-3.2,1.9l0.2,0.1c0,0-1.6,1-2.6,1.1c0.5,0.2,1.3,0.5,1.8,0.6c0.5,0.1,1.1,0.1,1.5-0.1
						c0.7-0.5,2.1-1.7,3.3-2.6l0-0.2C84.1,238.6,83.6,238.2,83,238.6z"/>
					<path class="st39" d="M79.8,240.5c0,0-1.5,0-2.5,0.2c-0.7,0.1-0.9,0.5-0.6,0.7c0.1,0,0.1,0.1,0.3,0.2c0.1,0,0.3,0.1,0.5,0.1
						c0.9-0.1,2.6-1.1,2.6-1.1L79.8,240.5z"/>
				</g>
				<path class="st31" d="M84.3,239.7c-1.2,0.9-2.6,2.1-3.3,2.6c-0.4,0.3-1,0.3-1.5,0.1c-0.7-0.2-1.8-0.6-2.2-0.7
					c-0.7-0.2-0.8-0.7,0.2-0.9c1.1-0.2,2.5-0.2,2.5-0.2l3.2-1.9c0.6-0.3,1,0,1,0.8L84.3,239.7z"/>
			</g>
			<g>
				<g>
					<path class="st46" d="M84.1,239.2l-3.2,1.9l0.2,0.1c0,0-1.6,1-2.6,1.1c0.5,0.2,1.3,0.5,1.8,0.6c0.5,0.1,1.1,0.1,1.5-0.1
						c0.7-0.5,2.1-1.7,3.3-2.6l0-0.2C85.1,239.2,84.7,238.9,84.1,239.2z"/>
					<path class="st39" d="M80.9,241.1c0,0-1.5,0-2.5,0.2c-0.7,0.1-0.9,0.5-0.6,0.7c0.1,0,0.1,0.1,0.3,0.2c0.1,0,0.3,0.1,0.5,0.1
						c0.9-0.1,2.6-1.1,2.6-1.1L80.9,241.1z"/>
				</g>
				<path class="st31" d="M85.3,240.3c-1.2,0.9-2.6,2.1-3.3,2.6c-0.4,0.3-1,0.3-1.5,0.1c-0.7-0.2-1.8-0.6-2.2-0.7
					c-0.7-0.2-0.8-0.7,0.2-0.9c1.1-0.2,2.5-0.2,2.5-0.2l3.2-1.9c0.6-0.3,1,0,1,0.8L85.3,240.3z"/>
			</g>
			<g>
				<path class="st13" d="M81.4,241.2c0.3-0.1,0.7-0.3,0.9-0.4c0.3-0.1,0.3,0,0.3,0.2l0.5-0.2l-5.6-2.9l-1.5,0.5
					c-0.1,0-0.1,0.6-0.1,0.6l4.5,2.6c0.1,0.1,0.3,0.1,0.5,0l0,0C80.8,241.5,80.9,241.3,81.4,241.2z"/>
				<path class="st47" d="M82.3,240.7c-0.2,0.1-0.6,0.2-0.9,0.3c-0.5,0.2-0.6,0.2-0.6,0.3c0,0,0,0.1,0,0.2l1.7-0.6
					C82.6,240.8,82.5,240.6,82.3,240.7z"/>
			</g>
			<path class="st47" d="M80.4,241.6c0,0,0-0.2,0-0.3c0-0.1,0-0.1,0.2-0.2c0.1,0,0.2-0.1,0.3-0.1c0.3-0.1,0.6-0.2,0.6-0.2l-0.2-0.1
				c0,0-0.3,0.1-0.5,0.2c-0.1,0-0.3,0.1-0.4,0.2c-0.1,0-0.1,0.1-0.1,0.2c0,0.2,0,0.3,0,0.3L80.4,241.6z"/>
			<path class="st47" d="M79.8,241.3c0,0,0-0.2,0-0.3c0-0.1,0-0.1,0.2-0.2c0.1,0,0.2-0.1,0.3-0.1c0.3-0.1,0.6-0.2,0.6-0.2l-0.2-0.1
				c0,0-0.3,0.1-0.5,0.2c-0.1,0-0.3,0.1-0.4,0.2c-0.1,0-0.1,0.1-0.1,0.2c0,0.2,0,0.3,0,0.3L79.8,241.3z"/>
			<path class="st47" d="M79.2,241c0,0,0-0.2,0-0.3c0-0.1,0-0.1,0.2-0.2c0.1,0,0.2-0.1,0.3-0.1c0.3-0.1,0.6-0.2,0.6-0.2l-0.2-0.1
				c0,0-0.3,0.1-0.5,0.2c-0.1,0-0.3,0.1-0.4,0.2c-0.1,0-0.1,0.1-0.1,0.2c0,0.2,0,0.3,0,0.3L79.2,241z"/>
			<path class="st47" d="M78.6,240.6c0,0,0-0.2,0-0.3c0-0.1,0-0.1,0.2-0.2c0.1,0,0.2-0.1,0.3-0.1c0.3-0.1,0.6-0.2,0.6-0.2l-0.2-0.1
				c0,0-0.3,0.1-0.5,0.2c-0.1,0-0.3,0.1-0.4,0.2c-0.1,0-0.1,0.1-0.1,0.2c0,0.2,0,0.3,0,0.3L78.6,240.6z"/>
			<path class="st47" d="M78.1,240.3c0,0,0-0.2,0-0.3c0-0.1,0-0.1,0.2-0.2c0.1,0,0.2-0.1,0.3-0.1c0.3-0.1,0.6-0.2,0.6-0.2l-0.2-0.1
				c0,0-0.3,0.1-0.5,0.2c-0.1,0-0.3,0.1-0.4,0.2c-0.1,0-0.1,0.1-0.1,0.2c0,0.2,0,0.3,0,0.3L78.1,240.3z"/>
			<path class="st47" d="M77.6,240c0,0,0-0.2,0-0.3c0-0.1,0-0.1,0.2-0.2c0.1,0,0.2-0.1,0.3-0.1c0.3-0.1,0.6-0.2,0.6-0.2l-0.2-0.1
				c0,0-0.3,0.1-0.5,0.2c-0.1,0-0.3,0.1-0.4,0.2c-0.1,0-0.1,0.1-0.1,0.2c0,0.2,0,0.3,0,0.3L77.6,240z"/>
			<path class="st47" d="M77,239.7c0,0,0-0.2,0-0.3c0-0.1,0-0.1,0.2-0.2c0.1,0,0.2-0.1,0.3-0.1c0.3-0.1,0.6-0.2,0.6-0.2l-0.2-0.1
				c0,0-0.3,0.1-0.5,0.2c-0.1,0-0.3,0.1-0.4,0.2c-0.1,0-0.1,0.1-0.1,0.2c0,0.2,0,0.3,0,0.3L77,239.7z"/>
			<path class="st47" d="M76.4,239.3c0,0,0-0.2,0-0.3c0-0.1,0-0.1,0.2-0.2c0.1,0,0.2-0.1,0.3-0.1c0.3-0.1,0.6-0.2,0.6-0.2l-0.2-0.1
				c0,0-0.3,0.1-0.5,0.2c-0.1,0-0.3,0.1-0.4,0.2c-0.1,0-0.1,0.1-0.1,0.2c0,0.2,0,0.3,0,0.3L76.4,239.3z"/>
			<path class="st47" d="M75.9,239c0,0,0-0.2,0-0.3c0-0.1,0-0.1,0.2-0.2c0.1,0,0.2-0.1,0.3-0.1c0.3-0.1,0.6-0.2,0.6-0.2l-0.2-0.1
				c0,0-0.3,0.1-0.5,0.2c-0.1,0-0.3,0.1-0.4,0.2c-0.1,0-0.1,0.1-0.1,0.2c0,0.2,0,0.3,0,0.3L75.9,239z"/>
			<g>
				<path class="st42" d="M94.7,232.8c2.9-1.4,3.9-2.8,4.1-3.7c-0.2-0.3-0.4-0.7-0.8-1c-2.1-1.6-6.1,0.1-10,2.6
					c-3.4,2.1-11.3,7.1-11.3,7.1l5.4,3.1c0,0,1.9-1.1,3.6-2.3C88.3,236.6,88.4,235.9,94.7,232.8z"/>
				<path class="st48" d="M98.8,229c-0.2,1-1.2,2.3-4.1,3.7c-6.3,3.1-6.4,3.8-9.1,5.7c-1.5,1-2.7,1.8-3.6,2.4v1.3
					c2.2-0.4,3.5-2.6,7-5.2c1.1-0.8,6.7-3.1,8-4.1C98.1,232.1,99.4,230.5,98.8,229z"/>
			</g>
			<g>
				<path class="st31" d="M87.7,233.2c0.2,0.1,0.3,0.2,0.4,0.4c0.1-0.3,0-0.5-0.4-0.7c-0.8-0.5-1-0.6-2.6,0.5
					c-1.7,1.1-3.9,2.7-3.9,2.7l0.3,0.1c0.6-0.5,2.3-1.7,3.6-2.5C86.7,232.6,87,232.7,87.7,233.2z"/>
				<path class="st39" d="M86.6,234.8c0.9-0.6,1.4-1,1.5-1.3c-0.1-0.1-0.2-0.2-0.4-0.4c-0.8-0.5-1-0.6-2.6,0.5
					c-0.4,0.3-0.9,0.6-1.4,0.9c-0.9,0.6-1.8,1.3-2.2,1.6l1.7,1C83.2,237.2,84.9,235.9,86.6,234.8z"/>
			</g>
			<g>
				<g>
					<path class="st48" d="M85.5,235.3c0.4-0.3,0.7-0.3,0.9-0.3l0,0l-1.8-1c0,0-0.4-0.3-1.1,0.2c-0.2,0.2-0.4,0.4-0.5,0.5l2,1.2
						C85.1,235.7,85.3,235.5,85.5,235.3z"/>
					<path class="st49" d="M85.5,235.3c-0.2,0.2-0.4,0.4-0.5,0.6l1.3-0.9C86.1,235,85.9,235,85.5,235.3z"/>
				</g>
				<path class="st49" d="M84.6,236.2l0.4-0.3l-2-1.2c-0.1,0.3-0.2,0.5-0.2,0.5L84.6,236.2z"/>
			</g>
			<path class="st48" d="M91.8,228.5c0,0-0.7,0.5-0.1,0.9c0.5,0.4,1.4,1,1.7,1.2c0.4,0.3,1,0.1,2.2-0.5c1.1-0.6,1.7-0.9,2-1.1
				c0.3-0.2,0.9-0.5,0.1-1.1C97,227.4,95.1,227,91.8,228.5z"/>
			<path class="st39" d="M85.1,235.4l-1.6-0.9c0,0,0-0.2,0.2-0.3c0.2-0.1,0.4,0,0.4,0l1.5,0.9L85.1,235.4z"/>
			<path class="st31" d="M85.3,235.1c-0.2,0.1-0.2,0.3-0.2,0.3l0.1,0l0.5-0.3C85.7,235.1,85.6,234.9,85.3,235.1z"/>
			<path class="st13" d="M92.4,229.3c-0.2-0.1-0.1-0.4,0-0.5c0.5-0.3,1.5-0.7,2.1-0.9c0.4-0.2,0.8-0.1,1.1,0.1
				c0.4,0.3,0.4,0.5-0.1,0.8c-0.6,0.3-1,0.6-1.4,0.8c-0.3,0.2-0.8,0.2-1.1,0L92.4,229.3z"/>
			<path class="st39" d="M92.6,229.2c-0.1-0.1-0.1-0.3,0-0.4c0.5-0.3,1.4-0.7,2-0.9c0.4-0.1,0.7-0.1,1,0.1c0.3,0.2,0.4,0.4-0.1,0.7
				c-0.5,0.3-1,0.6-1.4,0.8c-0.3,0.2-0.7,0.2-1,0L92.6,229.2z"/>
			<g>
				<path class="st13" d="M93.9,229.2c-0.1,0-0.3,0-0.4-0.1l0,0c-0.1-0.1-0.2-0.2-0.1-0.4c0.1-0.2,0.6-0.3,0.9-0.1
					c0.2,0.1,0.2,0.2,0.2,0.3c0,0.1-0.1,0.2-0.3,0.3C94.2,229.1,94,229.2,93.9,229.2z M93.9,228.5c-0.2,0-0.3,0.1-0.4,0.2
					c-0.1,0.1,0,0.2,0.1,0.2h0c0.2,0.2,0.5,0.1,0.6,0.1c0.1-0.1,0.2-0.1,0.2-0.2c0-0.1-0.1-0.1-0.1-0.2
					C94.2,228.6,94,228.5,93.9,228.5z"/>
			</g>
			<g>
				<path class="st13" d="M93.1,229.2C93.1,229.2,93.1,229.2,93.1,229.2l0.8-0.5c0,0,0.1,0,0.1,0c0,0,0,0,0,0.1l-0.7,0.4
					C93.2,229.3,93.2,229.3,93.1,229.2z"/>
			</g>
			<path class="st48" d="M88.3,231.7c-0.8-0.4-1.3-0.4-1.6-0.4c-0.2,0.1-0.4,0.3-0.4,0.3c0.1-0.1,0.9-0.3,1.9,0.3
				c0.4,0.3,1.2,0.8,1.2,1.4c0,0.4-0.3,0.8-1,1.3c-0.1,0.1-1.6,1.2-2.2,1.7c-1,0.8-1.8,1.4-2.4,1.8c-0.9,0.6-1.7,0.1-2.6-0.4
				c-0.1-0.1-0.2-0.1-0.4-0.2c-0.7-0.4-1.1-0.8-1.1-1.2c0-0.2,0.1-0.4,0.2-0.6c0,0-0.3,0.2-0.4,0.3c0,0.1-0.1,0.2-0.1,0.3
				c0,0.5,0.5,1,1.2,1.4c0.1,0.1,0.2,0.1,0.4,0.2c0.6,0.4,1.2,0.7,1.9,0.7c0.3,0,0.6-0.1,1-0.3c0.6-0.3,1.4-1,2.4-1.8
				c0.6-0.4,2.1-1.6,2.2-1.7c0.7-0.5,1-1,1.1-1.4C89.6,232.7,88.8,232,88.3,231.7z"/>
			<g>
				<g>
					<path class="st46" d="M85.1,239.8l-3.2,1.9l0.2,0.1c0,0-1.6,1-2.6,1.1c0.5,0.2,1.3,0.5,1.8,0.6c0.5,0.1,1.1,0.1,1.5-0.1
						c0.7-0.5,2.1-1.7,3.3-2.6l0-0.2C86.1,239.8,85.7,239.5,85.1,239.8z"/>
					<path class="st39" d="M81.9,241.7c0,0-1.5,0-2.5,0.2c-0.7,0.1-0.9,0.5-0.6,0.7c0.1,0,0.1,0.1,0.3,0.2c0.1,0,0.3,0.1,0.5,0.1
						c0.9-0.1,2.6-1.1,2.6-1.1L81.9,241.7z"/>
				</g>
				<path class="st31" d="M86.3,240.9c-1.2,0.9-2.6,2.1-3.3,2.6c-0.4,0.3-1,0.3-1.5,0.1c-0.7-0.2-1.8-0.6-2.2-0.7
					c-0.7-0.2-0.8-0.7,0.2-0.9c1.1-0.2,2.5-0.2,2.5-0.2l3.2-1.9c0.6-0.3,1,0,1,0.8L86.3,240.9z"/>
			</g>
			<polygon class="st48" points="76.6,237.8 76.6,238.2 76.8,238.1 81.7,241 81.7,241.5 82,241.6 82,240.9 			"/>
		</g>
		<g>
			<g>
				<path class="st20" d="M97.5,206.1l1.4,15.8c0,1.5,2.1,2.7,4.8,2.7c2.6,0,4.8-1.2,4.8-2.7l1.4-15.8H97.5z"/>
				<path class="st50" d="M109.7,206.1c0,1.9-2.7,3.4-6.1,3.4s-6.1-1.5-6.1-3.4c0-1.9,2.7-3.4,6.1-3.4S109.7,204.2,109.7,206.1z"/>
				<path class="st22" d="M109,206c0,1.7-2.4,3-5.4,3s-5.4-1.4-5.4-3s2.4-3,5.4-3S109,204.4,109,206z"/>
			</g>
			<g>
				<path class="st42" d="M99.7,199.3c0,0,0.1,2.9,0.1,5.2c0.1,1.7,0.2,3.4,0.2,3.9c0.4,0.2,1.3,0.5,1.3,0.5s-0.5-3.4-0.6-5.5
					c-0.1-1.7-0.1-3.3-0.1-3.3L99.7,199.3z"/>
				<path class="st42" d="M98.8,196.4c0,0,0.2-0.2,0.5-0.2c0.2,0,0,0.3,0,0.3L98.8,196.4z"/>
				<path class="st42" d="M99.4,196.2c-0.8,0-0.8,1.3-0.7,2.7c0.1,1.5,0.4,1.6,1.1,1.8c0.8,0.3,0.8-0.5,0.8-2.3c0-1.1-0.1-1.7-0.4-2
					C100,196.3,99.8,196.2,99.4,196.2z"/>
				<path class="st51" d="M99.2,196.3c-0.8,0-0.8,1.3-0.7,2.7c0.1,1.5,0.4,1.8,1.1,1.8c0.8,0.1,0.8-0.5,0.8-2.3
					c0-1.1-0.2-1.8-0.5-2.1C99.7,196.3,99.4,196.3,99.2,196.3z"/>
				<path class="st12" d="M98.8,200.6c0,0,0.7,0,1-0.1c0.4-0.2,0.3-1.7,0.2-2.7c-0.1-0.9-0.2-1.3-0.6-1.3c-0.4,0-1,0-1,0L98.8,200.6
					z"/>
				<path class="st13" d="M98.7,196.5c-0.4,0-0.8,0-0.9,0c-0.3,0.1-0.3,0.7-0.3,1.8s0.1,2.1,0.5,2.2c0.4,0.1,1.1,0.3,1.1-0.1
					c0-0.3,0-1.8,0-2.9C99,196.8,98.9,196.5,98.7,196.5z"/>
			</g>
			<g>
				<path class="st42" d="M107.7,199.2c0,0-0.1,2.9-0.1,5.2c-0.1,1.7-0.2,3.4-0.2,3.9c-0.4,0.2-1.3,0.5-1.3,0.5s0.5-3.4,0.6-5.5
					c0.1-1.7,0.1-3.3,0.1-3.3L107.7,199.2z"/>
				<path class="st42" d="M108.6,196.3c0,0-0.2-0.2-0.5-0.2c-0.2,0,0,0.3,0,0.3L108.6,196.3z"/>
				<path class="st42" d="M108,196.1c0.8,0,0.8,1.3,0.7,2.7c-0.1,1.5-0.4,1.6-1.1,1.8c-0.8,0.3-0.8-0.5-0.8-2.3c0-1.1,0.1-1.7,0.4-2
					C107.4,196.2,107.6,196.1,108,196.1z"/>
				<path class="st51" d="M108.3,196.2c0.8,0,0.8,1.3,0.7,2.7c-0.1,1.5-0.4,1.8-1.1,1.8c-0.8,0.1-0.8-0.5-0.8-2.3
					c0-1.1,0.2-1.8,0.5-2.1C107.7,196.2,108,196.2,108.3,196.2z"/>
				<path class="st12" d="M108.7,200.5c0,0-0.7,0-1-0.1c-0.4-0.2-0.3-1.7-0.2-2.7c0.1-0.9,0.2-1.3,0.6-1.3c0.4,0,1,0,1,0
					L108.7,200.5z"/>
				<path class="st13" d="M108.8,196.4c0.4,0,0.8,0,0.9,0c0.3,0.1,0.3,0.7,0.3,1.8c0,1.1-0.1,2.1-0.5,2.2c-0.4,0.1-1.1,0.3-1.1-0.1
					c0-0.3,0-1.8,0-2.9C108.4,196.7,108.6,196.4,108.8,196.4z"/>
			</g>
		</g>
	</g>
	<g>
		<g>
			<polygon class="st36" points="149.8,305.5 82.5,344.4 61.6,332.3 128.9,293.4 			"/>
			<polygon class="st39" points="149.8,305.5 82.5,344.4 82.5,347.7 149.8,308.8 			"/>
			<polygon class="st31" points="61.6,332.3 61.6,335.6 82.5,347.7 82.5,344.4 			"/>
		</g>
		<g>
			<path class="st41" d="M105.1,321.3l4.1,2.4c0.2,0.1,0.2,0.3-0.1,0.5l-0.1,0.1l-3.7-2.1l-13.8,8l3.7,2.1l0,0
				c-0.4,0.2-0.9,0.2-1.2,0.1l-1.8-1.1c-0.7-0.4-2-0.4-2.8,0.1l-11.2,6.4l-0.8-0.4c-0.7-0.4-0.6-1.1,0.2-1.6l24.7-14.2
				C103.1,320.9,104.4,320.9,105.1,321.3z"/>
			<path class="st52" d="M78.2,337.1v0.6l-0.8-0.5c0,0-0.3-0.2-0.4-0.6c0-0.2,0-0.4,0-0.7C76.9,335,78.2,337.1,78.2,337.1z"/>
			<polygon class="st41" points="109,323.6 109,324.2 109.3,323.9 109.3,323.2 			"/>
			<polygon class="st41" points="109,323.6 109,324.2 105.3,322.1 105.3,321.5 			"/>
			<polygon class="st41" points="108.3,324 108.3,324.6 104.6,322.5 104.6,321.9 			"/>
			<polygon class="st41" points="107.6,324.4 107.6,325 103.9,322.9 103.9,322.3 			"/>
			<polygon class="st41" points="106.9,324.8 106.9,325.4 103.2,323.3 103.2,322.7 			"/>
			<polygon class="st41" points="106.2,325.3 106.2,325.9 102.5,323.7 102.5,323.1 			"/>
			<polygon class="st41" points="105.4,325.7 105.4,326.3 101.7,324.1 101.7,323.5 			"/>
			<polygon class="st41" points="104.7,326.1 104.7,326.7 101,324.5 101,323.9 			"/>
			<polygon class="st41" points="104,326.5 104,327.1 100.3,324.9 100.3,324.3 			"/>
			<polygon class="st41" points="103.3,326.9 103.3,327.5 99.6,325.4 99.6,324.8 			"/>
			<polygon class="st41" points="102.6,327.3 102.6,327.9 98.9,325.8 98.9,325.2 			"/>
			<polygon class="st41" points="101.9,327.7 101.9,328.3 98.2,326.2 98.2,325.6 			"/>
			<polygon class="st41" points="101.2,328.1 101.2,328.7 97.5,326.6 97.5,326 			"/>
			<polygon class="st41" points="100.5,328.5 100.5,329.1 96.7,327 96.7,326.4 			"/>
			<polygon class="st41" points="99.7,329 99.7,329.6 96,327.4 96,326.8 			"/>
			<polygon class="st41" points="99,329.4 99,330 95.3,327.8 95.3,327.2 			"/>
			<polygon class="st41" points="98.3,329.8 98.3,330.4 94.6,328.2 94.6,327.6 			"/>
			<polygon class="st41" points="97.6,330.2 97.6,330.8 93.9,328.6 93.9,328 			"/>
			<polygon class="st41" points="96.9,330.6 96.9,331.2 93.2,329 93.2,328.4 			"/>
			<polygon class="st41" points="96.2,331 96.2,331.6 92.5,329.4 92.5,328.8 			"/>
			<polygon class="st41" points="95.5,331.4 95.5,332 91.8,329.8 91.8,329.2 			"/>
			<polygon class="st41" points="95.2,331.6 95.2,332.2 94.5,332.3 94.2,331.6 			"/>
			<g>
				<path class="st13" d="M105.1,320.7l4.1,2.4c0.2,0.1,0.2,0.3-0.1,0.5l-0.1,0.1l-3.7-2.1l-13.8,8l3.7,2.1l0,0
					c-0.4,0.2-0.9,0.2-1.2,0.1l-1.8-1.1c-0.7-0.4-2-0.4-2.8,0.1l-11.2,6.4l-0.8-0.4c-0.7-0.4-0.6-1.1,0.2-1.6l24.7-14.2
					C103.1,320.3,104.4,320.3,105.1,320.7z"/>
				<g>
					<polygon class="st13" points="99.7,329 96,326.8 96.4,326.6 100.1,328.7 					"/>
					<polygon class="st13" points="105.4,325.7 101.7,323.5 102.1,323.3 105.8,325.4 					"/>
					<polygon class="st13" points="99,329.4 95.3,327.2 95.7,327 99.4,329.1 					"/>
					<polygon class="st13" points="106.2,325.3 102.4,323.1 102.9,322.9 106.6,325 					"/>
					<polygon class="st13" points="101.2,328.1 97.5,326 97.9,325.7 101.6,327.9 					"/>
					<polygon class="st13" points="102.6,327.3 98.9,325.2 99.3,324.9 103,327.1 					"/>
					<polygon class="st13" points="101.9,327.7 98.2,325.6 98.6,325.3 102.3,327.5 					"/>
					<polygon class="st13" points="104.7,326.1 101,323.9 101.4,323.7 105.1,325.8 					"/>
					<polygon class="st13" points="98.3,329.8 94.6,327.6 95,327.4 98.7,329.5 					"/>
					<polygon class="st13" points="100.5,328.5 96.7,326.4 97.2,326.2 100.9,328.3 					"/>
					<polygon class="st13" points="107.6,324.4 103.9,322.3 104.3,322.1 108,324.2 					"/>
					<polygon class="st13" points="108.3,324 104.6,321.9 105,321.6 108.7,323.8 					"/>
					<polygon class="st13" points="95.5,331.4 91.8,329.2 92.2,329 96,331.1 					"/>
					<polygon class="st13" points="96.2,331 92.5,328.8 92.9,328.6 96.7,330.7 					"/>
					<polygon class="st13" points="103.3,326.9 99.5,324.7 100,324.5 103.7,326.7 					"/>
					<polygon class="st13" points="104,326.5 100.3,324.3 100.7,324.1 104.4,326.2 					"/>
					<polygon class="st13" points="106.9,324.8 103.2,322.7 103.6,322.5 107.3,324.6 					"/>
					<polygon class="st13" points="96.9,330.6 93.2,328.4 93.7,328.2 97.4,330.3 					"/>
					<polygon class="st13" points="97.6,330.2 93.9,328 94.4,327.8 98.1,329.9 					"/>
				</g>
				<path class="st12" d="M90.3,329L90.3,329c0.3,0.2,0.7,0.1,1.1,0l12.8-7.4c0.3-0.2,0.3-0.5,0.1-0.6l0,0c-0.3-0.2-0.7-0.1-1.1,0
					l-12.8,7.4C90.1,328.6,90,328.9,90.3,329z"/>
			</g>
			<polygon class="st12" points="95.5,331.4 95.5,332 96,331.7 96,331.1 			"/>
			<polygon class="st12" points="96.2,331 96.2,331.6 96.7,331.3 96.7,330.7 			"/>
			<polygon class="st12" points="96.9,330.6 96.9,331.2 97.4,330.9 97.4,330.3 			"/>
			<polygon class="st12" points="97.6,330.2 97.6,330.8 98.1,330.5 98.1,329.9 			"/>
			<polygon class="st12" points="98.3,329.8 98.3,330.4 98.7,330.1 98.7,329.5 			"/>
			<polygon class="st12" points="99,329.4 99,330 99.4,329.7 99.4,329.1 			"/>
			<polygon class="st12" points="99.7,329 99.7,329.6 100.1,329.3 100.1,328.7 			"/>
			<polygon class="st12" points="100.5,328.5 100.5,329.1 100.9,328.9 100.9,328.3 			"/>
			<polygon class="st12" points="101.2,328.1 101.2,328.7 101.6,328.5 101.6,327.9 			"/>
			<polygon class="st12" points="101.9,327.7 101.9,328.3 102.3,328.1 102.3,327.5 			"/>
			<polygon class="st12" points="102.6,327.3 102.6,327.9 103,327.7 103,327.1 			"/>
			<polygon class="st12" points="103.3,326.9 103.3,327.5 103.7,327.2 103.7,326.6 			"/>
			<polygon class="st12" points="104,326.5 104,327.1 104.4,326.8 104.4,326.2 			"/>
			<polygon class="st12" points="104.7,326.1 104.7,326.7 105.1,326.4 105.1,325.8 			"/>
			<polygon class="st12" points="105.4,325.7 105.4,326.3 105.8,326 105.8,325.4 			"/>
			<polygon class="st12" points="106.2,325.3 106.2,325.9 106.6,325.6 106.6,325 			"/>
			<polygon class="st12" points="106.9,324.8 106.9,325.4 107.3,325.2 107.3,324.6 			"/>
			<polygon class="st12" points="107.6,324.4 107.6,325 108,324.8 108,324.2 			"/>
			<polygon class="st12" points="108.3,324 108.3,324.6 108.7,324.4 108.7,323.8 			"/>
		</g>
		<g>
			<g>
				<path class="st17" d="M117.8,297.6v6.5c0,1.6,2.3,2.9,5.1,2.9c2.8,0,5.1-1.3,5.1-2.9v-6.5H117.8z"/>
				<path class="st42" d="M128,297.6c0,1.6-2.3,2.9-5.1,2.9c-2.8,0-5.1-1.3-5.1-2.9c0-1.6,2.3-2.9,5.1-2.9
					C125.7,294.7,128,296,128,297.6z"/>
				<g>
					<path class="st12" d="M122.9,296.1c-3.3,0-6-1.5-6-3.4v11.6c0,1.9,2.7,3.4,6,3.4c3.3,0,6-1.5,6-3.4v-11.6
						C128.9,294.6,126.2,296.1,122.9,296.1z"/>
					<ellipse class="st13" cx="122.9" cy="292.8" rx="6" ry="3.4"/>
				</g>
				<g>
					<path class="st53" d="M122.9,289.5c-1.6,0-2.8-0.7-2.8-1.6v1.2c0,0.9,1.3,1.6,2.8,1.6c1.6,0,2.8-0.7,2.8-1.6V288
						C125.7,288.8,124.5,289.5,122.9,289.5z"/>
					<path class="st12" d="M126.4,288c0,1.1-1.6,2-3.5,2c-1.9,0-3.5-0.9-3.5-2v3.3c0,1.1,1.6,2,3.5,2c1.9,0,3.5-0.9,3.5-2V288
						L126.4,288z"/>
					<path class="st13" d="M122.9,286c-1.9,0-3.5,0.9-3.5,2c0,1.1,1.6,2,3.5,2c1.9,0,3.5-0.9,3.5-2C126.4,286.9,124.8,286,122.9,286
						z"/>
					<path class="st36" d="M122.9,284.9c-1.6,0-2.8,0.7-2.8,1.6c0,0.9,1.3,1.6,2.8,1.6c1.6,0,2.8-0.7,2.8-1.6
						C125.7,285.6,124.5,284.9,122.9,284.9z"/>
					<path class="st39" d="M125.4,287.2c-0.5,0.5-1.4,0.8-2.5,0.8c-1.1,0-2-0.3-2.5-0.8c-0.2-0.2-0.3-0.5-0.3-0.7v1.5
						c0,0.9,1.3,1.6,2.8,1.6c1.6,0,2.8-0.7,2.8-1.6v-1.5C125.7,286.7,125.6,287,125.4,287.2z"/>
				</g>
				<g>
					<path class="st31" d="M123,286.3c-0.1-0.1-0.3,0-0.4,0c-0.2,0-0.4-0.1-0.5,0.1c0,0,0,0.1,0,0.1c0.2,0.1,0.4,0.1,0.6,0.2
						c0.1,0,0.3,0.1,0.4-0.1C123.1,286.4,123.1,286.3,123,286.3z"/>
					<path class="st31" d="M121.5,287.1c-0.1-0.1-0.2-0.2-0.3-0.2c-0.2,0.1,0.2,0.5,0.3,0.4C121.5,287.3,121.5,287.2,121.5,287.1z"
						/>
					<path class="st31" d="M121,288.1c0-0.1-0.2-0.3-0.4-0.3c0,0-0.1,0-0.1,0.1c0,0.1,0.1,0.1,0.2,0.2c0.1,0.1,0.1,0.1,0.1,0.2
						c0,0,0,0.1,0,0.1c0,0,0.1,0,0.2,0C121.1,288.3,121.1,288.2,121,288.1z"/>
					<path class="st31" d="M121.5,288.3c-0.1,0-0.1,0-0.2,0.1c-0.1,0.1-0.1,0.2,0,0.3C121.4,288.8,121.5,288.4,121.5,288.3
						C121.6,288.3,121.6,288.3,121.5,288.3z"/>
					<path class="st31" d="M125.4,288c-0.1-0.1-0.5,0.3-0.4,0.4c0.1,0.2,0.3,0.2,0.4,0c0,0,0-0.1,0-0.1c0-0.1,0.1-0.1,0.1-0.2
						C125.4,288.1,125.4,288.1,125.4,288z"/>
					<path class="st31" d="M124.7,288.1c0-0.1-0.1-0.1-0.2-0.1c-0.1,0-0.4,0.1-0.4,0.2c0,0.1,0.3,0.3,0.4,0.2
						C124.7,288.4,124.8,288.2,124.7,288.1z"/>
					<path class="st31" d="M123.7,289c-0.1-0.1,0-0.3-0.1-0.4c-0.1-0.2-0.4,0.1-0.3,0.2c0,0.1,0.1,0.1,0,0.2c0,0,0,0.1,0,0.1
						c0,0.1,0,0.1,0.1,0.1c0.1,0.1,0.3,0,0.3-0.1C123.8,289.1,123.7,289,123.7,289z"/>
					<path class="st31" d="M122.4,288.5c-0.1,0-0.2,0.1-0.2,0.1c0.1,0.2,0.2,0.3,0.2,0.4c0,0,0,0.1,0.1,0.1c0.1,0,0.2-0.1,0.2-0.3
						C122.5,288.7,122.5,288.5,122.4,288.5z"/>
					<path class="st31" d="M120.9,285.9c-0.2-0.1-0.3,0.1-0.4,0.2c-0.1,0.1-0.1,0.1-0.1,0.2c0.1,0.2,0.4,0,0.5-0.1
						c0.1-0.1,0.1-0.1,0.1-0.2C121.1,286,121,286,120.9,285.9z"/>
					<path class="st31" d="M122.1,285.4c-0.1,0-0.2-0.1-0.3-0.1c-0.4,0.1,0,0.5,0.2,0.5c0.1,0,0.2,0,0.3-0.1
						C122.3,285.6,122.2,285.5,122.1,285.4z"/>
					<path class="st31" d="M123.4,285.3c-0.1,0-0.3-0.1-0.5,0c-0.1,0-0.1,0.2,0.1,0.3c0.1,0,0.1,0.1,0.1,0.1c0,0,0,0.1,0.1,0.1
						c0.1,0,0.2,0,0.2,0C123.7,285.6,123.6,285.3,123.4,285.3z"/>
					<path class="st31" d="M125.2,286.5c-0.1-0.1-0.1-0.2-0.1-0.3c0,0-0.1-0.1-0.1,0c-0.2,0.1-0.1,0.5,0,0.6c0.1,0,0.2-0.1,0.2-0.1
						C125.2,286.6,125.2,286.5,125.2,286.5z"/>
					<path class="st31" d="M124.3,286.9C124.3,286.9,124.3,286.9,124.3,286.9c-0.2,0.1-0.3,0.3-0.1,0.3
						C124.5,287.3,124.5,287,124.3,286.9z"/>
				</g>
			</g>
			<g>
				<path class="st54" d="M139.7,304.4c0-1.3-1.8-2.5-3.2-2.9c-0.7-0.2-1.5-0.2-2.2,0.1c-0.3,0.2-0.6,0.7-1.7,1.2
					c-0.8,0.3-1,0.6-0.8,0.8c0.2,0.2,0.4,0.4,0.7,0.5c0.3,0,0.6-0.1,0.8,0c0.1,0,0.1,0.1,0.2,0.1c0-0.2,0-0.4-0.3-0.6
					c0.5-0.1,0.8-0.7,1.1-0.7c0.6,0,0.7,0.9,1.6,0.5c0.4,0.6,1,0.7,1.5,0.4c0.2,0.5,0.8,0.6,1.2,0.5c-0.1,0.4,0.1,0.6,0.3,0.8
					C139.3,305.2,139.7,304.9,139.7,304.4z"/>
				<path class="st55" d="M138.7,304.4C138.7,304.4,138.7,304.3,138.7,304.4c-0.6,0-1-0.2-1.3-0.6c0,0,0,0-0.1,0
					c-0.6,0.2-1.1,0.1-1.5-0.4c0,0-0.1,0-0.1,0c-0.9,0.4-1-0.4-1.6-0.4c-0.3,0-0.5,0.5-1.1,0.7c0.3,0.2,0.3,0.4,0.3,0.6
					c0.1,0.1,0.2,0.3,0.5,0.3c0.4,0.1,0.6-0.1,0.9-0.2c0.4,0,0.3,0.1,0.5,0.2c0.4,0.2,0.7,0.3,1.2,0.3c0.3,0,0.5-0.2,0.8-0.1
					c0,0,0.3,0.3,0.4,0.3c0.3,0.1,0.7,0.2,1.2,0.1C138.6,305.1,138.6,304.8,138.7,304.4z"/>
			</g>
			<g>
				<path class="st54" d="M135.8,309.5c0-0.1-0.1-0.2-0.2-0.3c-0.1-0.1-0.2-0.1-0.3-0.2c-0.1-0.3,0.2-0.9,0-1.3
					c-0.2-0.4-0.7-0.8-1-1.1c-0.6-0.6-1.4-1.7-2.3-1.8c-0.3,0-0.6,0-0.9,0.3c-0.5,0.5-0.4,1-1.2,1.3c-1.1,0.4-2,0.7-2.9,1.4
					c-0.4,0.3-1.5,1.2-1.2,1.9c0.1,0.2,0.2,0.3,0.4,0.3c0.6,0.2,1.1-0.3,1.7,0.3c0.6,0.5,0.9,0.9,1.8,0.7c0.4-0.1,0.7-0.3,1-0.3
					c0.3,0,0.7,0.1,1,0c0.4-0.1,2-1.2,2.2-0.1c0.7,0.2,1.3-0.3,1.5-0.5C135.7,310,135.8,309.7,135.8,309.5z"/>
				<path class="st55" d="M133.9,307.6c-0.2-0.2-0.5-0.3-0.8-0.5c-0.3-0.2-0.4-0.5-0.8-0.7c0,0,0,0,0,0c-0.1,0-0.2-0.1-0.3-0.1
					c-0.1-0.1-0.1-0.3-0.2-0.4c-0.1-0.1-0.3-0.2-0.4-0.1c-0.2,0.1,0.2,0.3,0.2,0.4c0,0.2,0,0.3,0,0.5c0,0.2,0,0.3,0.1,0.4
					c0.2,0.2,0.5,0.4,0.7,0.3c0,0.2,0.2,0.4,0.3,0.5c0.3,0.2,0.6,0.2,0.9,0.2c0,0.1,0.1,0.2,0.2,0.3c0.2,0.1,0.5,0.2,0.7,0.1
					c0.1,0.4,0.2,0.8,0.4,1.1c0,0,0,0,0,0C134.5,308.9,134.6,308.1,133.9,307.6z"/>
				<path class="st55" d="M130.7,309.4c-0.5,0-0.8-0.2-1.3-0.3c-0.4-0.1-0.9-0.1-1.4,0c0.5,0.2,0.6,0.7,1,0.8
					c0.4,0.1,0.8-0.1,1.1-0.1c0.5,0,0.9,0.3,1.3,0.2c0.5-0.1,0.7-0.4,1.2-0.4C132.3,309,131.4,309.4,130.7,309.4z"/>
			</g>
			<g>
				<path class="st54" d="M121.7,307.1c-0.9,0-1.8,0.2-2.6,0.6c0,0-1.2,0.6-1.9,0.9c-0.9,0.4-1.8,0.6-2.4,1.1
					c0.2-0.5,0.4-0.9,0.5-1.5c0-0.2,0-0.5,0.1-0.7c0.1-0.2,0.2-0.2,0.4-0.3c0.1,0,0.3,0,0.5,0c0.4,0,0.2,0.1,0.8-0.2
					c0.3-0.2,0.3-0.1,0.7-0.2c-0.1,0,0.8-0.2,1.1-0.1c0,0,0,0,0,0c-0.2-0.3-0.6-0.4-1-0.4c-0.3,0-0.6,0.1-0.8,0.2
					c-0.5,0.1-1-0.1-1.4,0c-0.3,0.1-0.4,0.3-0.5,0.5c-0.3,0.6-0.2,1.2-0.9,1.7c-0.3,0.2-0.7,0.5-0.9,0.9c-0.3,0.9,0.6,1,1.3,1
					c0.1,0.3,0.2,0.7,0.3,0.8c0.2,0.2,0.4,0.3,0.6,0.3c0.3,0,0.6-0.1,0.8-0.2c0.2-0.3,0.3-0.7,0.5-1.2c0.2-0.4,0.5-0.8,0.8-1
					c0.4-0.2,0.9-0.2,1.3-0.2c0.7,0.1,1.3,0.2,2-0.1c0.4-0.5,0.7-1.2,0.9-1.9C121.8,307.2,121.7,307.1,121.7,307.1z"/>
				<path class="st55" d="M117.7,306.9c-0.3,0-0.4,0-0.7,0.2c-0.6,0.3-0.4,0.2-0.8,0.2c-0.1,0-0.3-0.1-0.5,0c-0.2,0-0.3,0.1-0.4,0.3
					c-0.1,0.2-0.1,0.5-0.1,0.7c-0.1,0.6-0.4,1-0.5,1.5c0.6-0.5,1.5-0.8,2.4-1.1c0.7-0.3,1.9-0.9,1.9-0.9c-0.1-0.1-0.1-0.3-0.1-0.5
					c-0.1-0.2-0.1-0.3-0.2-0.5C118.5,306.7,117.6,306.9,117.7,306.9z"/>
				<path class="st55" d="M118.9,309.2c-0.5,0-0.9-0.1-1.3,0.2c-0.4,0.2-0.7,0.6-0.8,1c-0.2,0.4-0.3,0.8-0.5,1.2
					c0.4-0.3,0.6-0.7,1-1c0.9-0.8,2.2-0.2,3.2-0.9c0.2-0.1,0.4-0.3,0.5-0.5C120.2,309.4,119.6,309.3,118.9,309.2z"/>
			</g>
			<g>
				<path class="st54" d="M117.8,311.9c0-1.3,1.8-2.5,3.2-2.9c0.7-0.2,1.5-0.2,2.2,0.1c0.3,0.2,0.6,0.7,1.7,1.2
					c0.8,0.3,1,0.6,0.8,0.8c-0.2,0.2-0.4,0.4-0.7,0.5c-0.3,0-0.6-0.1-0.8,0c-0.1,0-0.1,0.1-0.2,0.1c0-0.2,0-0.4,0.3-0.6
					c-0.5-0.1-0.8-0.7-1.1-0.7c-0.6,0-0.7,0.9-1.6,0.5c-0.4,0.6-1,0.7-1.5,0.4c-0.2,0.5-0.8,0.6-1.2,0.5c0.1,0.4-0.1,0.6-0.3,0.8
					C118.2,312.6,117.8,312.4,117.8,311.9z"/>
				<path class="st55" d="M118.8,311.9C118.8,311.8,118.8,311.8,118.8,311.9c0.6,0,1-0.2,1.3-0.6c0,0,0,0,0.1,0
					c0.6,0.2,1.1,0.1,1.5-0.4c0,0,0.1,0,0.1,0c0.9,0.4,1-0.4,1.6-0.4c0.3,0,0.5,0.5,1.1,0.7c-0.3,0.2-0.3,0.4-0.3,0.6
					c-0.1,0.1-0.2,0.3-0.5,0.3c-0.4,0.1-0.6-0.1-0.9-0.2c-0.4,0-0.3,0.1-0.5,0.2c-0.4,0.2-0.7,0.3-1.2,0.3c-0.3,0-0.5-0.2-0.8-0.1
					c0,0-0.3,0.3-0.4,0.3c-0.3,0.1-0.7,0.2-1.2,0.1C118.9,312.5,118.9,312.2,118.8,311.9z"/>
			</g>
		</g>
		<g>
			<g>
				<polygon class="st22" points="99.2,306.5 99.2,316.8 102.9,319 102.9,308.7 				"/>
				<polygon class="st20" points="109.7,304.8 109.7,315.1 102.9,319 102.9,308.7 				"/>
				<polygon class="st44" points="99.2,306.5 102.9,308.7 109.7,304.8 106,302.6 				"/>
				<polygon class="st56" points="102.9,320.4 110.6,316 110.6,300.6 102.9,304.9 				"/>
				<polygon class="st38" points="98.2,302.2 98.2,317.6 102.9,320.4 102.9,304.9 				"/>
				<polygon class="st57" points="98.2,302.2 102.9,304.9 110.6,300.6 105.9,297.8 				"/>
			</g>
			<g>
				<rect x="102.8" y="298.2" class="st31" width="3" height="2.2"/>
				<rect x="103.5" y="300.7" class="st36" width="1.7" height="1.2"/>
				<path class="st31" d="M105.8,300.4c0,0.5-0.7,0.8-1.5,0.8c-0.8,0-1.5-0.4-1.5-0.8c0-0.5,0.7-0.8,1.5-0.8
					C105.1,299.5,105.8,299.9,105.8,300.4z"/>
				<path class="st36" d="M105.1,301.9c0,0.3-0.4,0.5-0.8,0.5c-0.5,0-0.8-0.2-0.8-0.5c0-0.3,0.4-0.5,0.8-0.5
					C104.8,301.4,105.1,301.6,105.1,301.9z"/>
				<path class="st36" d="M105.8,298.2c0,0.5-0.7,0.8-1.5,0.8c-0.8,0-1.5-0.4-1.5-0.8c0-0.5,0.7-0.8,1.5-0.8
					C105.1,297.4,105.8,297.7,105.8,298.2z"/>
				<path class="st13" d="M105.6,299.5c0,0.2-0.1,0.5-0.3,0.6c-0.2,0.1-0.3,0-0.3-0.2c0-0.2,0.1-0.5,0.3-0.6
					C105.4,299.2,105.6,299.3,105.6,299.5z"/>
			</g>
		</g>
	</g>
	<g>
		<polygon class="st14" points="136.2,406.1 121.5,414.6 121.5,385.7 136.2,377.2 		"/>
		<g>
			<path class="st31" d="M139.8,369.2c0,2.3-1.4,5-3.1,6c-1.7,1-3.1-0.1-3.1-2.4c0-2.3,1.4-5,3.1-6
				C138.4,365.9,139.8,366.9,139.8,369.2z"/>
			<polygon class="st31" points="135.3,375.8 134.4,375.3 138.6,366.7 139.5,367.2 			"/>
			<path class="st36" d="M140.4,369.6c0,2.3-1.4,5-3.1,6s-3.1-0.1-3.1-2.4s1.4-5,3.1-6C139,366.3,140.4,367.3,140.4,369.6z"/>
			<path class="st39" d="M138.3,370.9c0,0.6-0.3,1.2-0.8,1.5s-0.8,0-0.8-0.6c0-0.6,0.3-1.2,0.8-1.5S138.3,370.3,138.3,370.9z"/>
		</g>
		<path class="st39" d="M139.3,370.9l-1.3-0.7c-0.3,0.7-0.6,1.5-1,2.1l1.2,0.6c2,1.1,3.1,2.6,3.1,3.9c0,1.3-1.1,2.2-2,2.8l-4.4,2.6
			c0.4,0.7,0.7,1.4,1,2.1l4.6-2.7c2.1-1.2,3.2-2.9,3.2-4.8C143.6,374.7,142,372.5,139.3,370.9z"/>
		<g>
			<path class="st31" d="M115,383.4c0,2.3-1.4,5-3.1,6c-1.7,1-3.1-0.1-3.1-2.4c0-2.3,1.4-5,3.1-6C113.6,380,115,381.1,115,383.4z"/>
			<polygon class="st31" points="110.5,390 109.7,389.5 113.9,380.8 114.8,381.4 			"/>
			<path class="st36" d="M115.7,383.8c0,2.3-1.4,5-3.1,6c-1.7,1-3.1-0.1-3.1-2.4c0-2.3,1.4-5,3.1-6
				C114.3,380.5,115.7,381.5,115.7,383.8z"/>
			<path class="st39" d="M113.5,385.1c0,0.6-0.3,1.2-0.8,1.5s-0.8,0-0.8-0.6c0-0.6,0.3-1.2,0.8-1.5S113.5,384.5,113.5,385.1z"/>
		</g>
		<g>
			<path class="st13" d="M135.2,377.3c0,3.9,2.3,8.3,5.2,10c2.9,1.7,5.2-0.1,5.2-4s-2.3-8.3-5.2-10
				C137.5,371.7,135.2,373.4,135.2,377.3z"/>
			<polygon class="st13" points="129.9,395.6 143.8,387.6 137,373.1 122.8,381.2 			"/>
			<path class="st30" d="M121.3,385.3c0,3.9,2.3,8.3,5.2,10c2.9,1.7,5.2-0.1,5.2-4c0-3.9-2.3-8.3-5.2-10
				C123.6,379.7,121.3,381.4,121.3,385.3z"/>
			<path class="st58" d="M124.9,387.3c0,0.9,0.6,2.1,1.3,2.5c0.7,0.4,1.3,0,1.3-1c0-0.9-0.6-2.1-1.3-2.5
				C125.5,386,124.9,386.4,124.9,387.3z"/>
		</g>
		<path class="st39" d="M126.5,386.5c-3.6,1.1-8.6,0.6-12-1.4l-1.3-0.7c-0.4,0.7-0.5,1.5-0.9,2.1l1,0.6c2.6,1.5,5.9,2.3,9.1,2.3
			c1.8,0,3.6-0.3,5.1-0.8C127.4,387.8,127.1,387.1,126.5,386.5z"/>
	</g>
	<g>
		<g>
			<g>
				<path class="st22" d="M419.9,465l-3.7-2.1c-0.6-0.4-1.2-0.3-1.6,0l-45.1,26.1l5.9,5l46.3-26.7
					C421.2,466.2,420.6,465.4,419.9,465z"/>
				<path class="st22" d="M422.2,469.3c0-0.7-0.2-1.5-0.5-2.2l-46.3,26.7l1.8,1.5L422.2,469.3z"/>
				<path class="st22" d="M422.2,469.3c0-0.7-0.2-1.5-0.5-2.2l-46.3,26.7l1.8,1.5L422.2,469.3z"/>
				<polygon class="st57" points="372.9,492.4 420.1,465.1 416.1,462.8 369.2,489.9 				"/>
				<path class="st22" d="M368.8,490.6c0-1.6,1-2.4,2.3-1.7l3.7,2.1c1.2,0.7,2.3,2.7,2.3,4.3L368.8,490.6z"/>
			</g>
			<g>
				<path class="st18" d="M428.1,469.8l-3.7-2.1c-0.6-0.4-1.2-0.3-1.6,0l-45.1,26.1l5.9,5l46.3-26.7
					C429.4,471,428.8,470.2,428.1,469.8z"/>
				<path class="st18" d="M430.4,474.1c0-0.7-0.2-1.5-0.5-2.2l-46.3,26.7l1.8,1.5L430.4,474.1z"/>
				<path class="st17" d="M430.4,474.1c0-0.7-0.2-1.5-0.5-2.2l-46.3,26.7l1.8,1.5L430.4,474.1z"/>
				<polygon class="st59" points="381.1,497.1 428.3,469.9 424.3,467.6 377.4,494.7 				"/>
				<path class="st17" d="M377,495.4c0-1.6,1-2.4,2.3-1.7l3.7,2.1c1.2,0.7,2.3,2.7,2.3,4.3L377,495.4z"/>
			</g>
			<g>
				<path class="st22" d="M436.2,474.4l-3.7-2.1c-0.6-0.4-1.2-0.3-1.6,0l-45.1,26.1l5.9,5l46.3-26.7
					C437.5,475.6,436.9,474.8,436.2,474.4z"/>
				<path class="st22" d="M438.5,478.7c0-0.7-0.2-1.5-0.5-2.2l-46.3,26.7l1.8,1.5L438.5,478.7z"/>
				<path class="st22" d="M438.5,478.7c0-0.7-0.2-1.5-0.5-2.2l-46.3,26.7l1.8,1.5L438.5,478.7z"/>
				<polygon class="st57" points="389.2,501.8 436.4,474.6 432.4,472.3 385.5,499.3 				"/>
				<path class="st22" d="M385.1,500c0-1.6,1-2.4,2.3-1.7l3.7,2.1c1.2,0.7,2.3,2.7,2.3,4.3L385.1,500z"/>
			</g>
			<g>
				<path class="st18" d="M444.3,479.1l-3.7-2.1c-0.6-0.4-1.2-0.3-1.6,0L393.9,503l5.9,5l46.3-26.7
					C445.7,480.3,445,479.5,444.3,479.1z"/>
				<path class="st18" d="M446.6,483.5c0-0.7-0.2-1.5-0.5-2.2L399.8,508l1.8,1.5L446.6,483.5z"/>
				<path class="st17" d="M446.6,483.5c0-0.7-0.2-1.5-0.5-2.2L399.8,508l1.8,1.5L446.6,483.5z"/>
				<polygon class="st59" points="397.4,506.5 444.5,479.3 440.6,477 393.7,504 				"/>
				<path class="st17" d="M393.3,504.7c0-1.6,1-2.4,2.3-1.7l3.7,2.1c1.2,0.7,2.3,2.7,2.3,4.3L393.3,504.7z"/>
			</g>
		</g>
		<g>
			<g>
				<path class="st22" d="M452.3,483.9l-3.7-2.1c-0.6-0.4-1.2-0.3-1.6,0l-45.1,26.1l5.9,5l46.3-26.7
					C453.6,485.1,453,484.3,452.3,483.9z"/>
				<path class="st22" d="M454.6,488.2c0-0.7-0.2-1.5-0.5-2.2l-46.3,26.7l1.8,1.5L454.6,488.2z"/>
				<path class="st22" d="M454.6,488.2c0-0.7-0.2-1.5-0.5-2.2l-46.3,26.7l1.8,1.5L454.6,488.2z"/>
				<polygon class="st57" points="405.3,511.3 452.5,484.1 448.5,481.8 401.6,508.8 				"/>
				<path class="st22" d="M401.2,509.5c0-1.6,1-2.4,2.3-1.7l3.7,2.1c1.2,0.7,2.3,2.7,2.3,4.3L401.2,509.5z"/>
			</g>
			<g>
				<path class="st18" d="M460.5,488.7l-3.7-2.1c-0.6-0.4-1.2-0.3-1.6,0l-45.1,26.1l5.9,5l46.3-26.7
					C461.8,489.9,461.2,489.1,460.5,488.7z"/>
				<path class="st18" d="M462.8,493c0-0.7-0.2-1.5-0.5-2.2l-46.3,26.7l1.8,1.5L462.8,493z"/>
				<path class="st17" d="M462.8,493c0-0.7-0.2-1.5-0.5-2.2l-46.3,26.7l1.8,1.5L462.8,493z"/>
				<polygon class="st59" points="413.5,516 460.7,488.8 456.7,486.5 409.8,513.6 				"/>
				<path class="st17" d="M409.4,514.3c0-1.6,1-2.4,2.3-1.7l3.7,2.1c1.2,0.7,2.3,2.7,2.3,4.3L409.4,514.3z"/>
			</g>
			<g>
				<path class="st22" d="M468.6,493.3l-3.7-2.1c-0.6-0.4-1.2-0.3-1.6,0l-45.1,26.1l5.9,5l46.3-26.7
					C469.9,494.6,469.3,493.7,468.6,493.3z"/>
				<path class="st22" d="M470.9,497.7c0-0.7-0.2-1.5-0.5-2.2L424,522.2l1.8,1.5L470.9,497.7z"/>
				<path class="st22" d="M470.9,497.7c0-0.7-0.2-1.5-0.5-2.2L424,522.2l1.8,1.5L470.9,497.7z"/>
				<polygon class="st57" points="421.7,520.7 468.8,493.5 464.8,491.2 417.9,518.2 				"/>
				<path class="st22" d="M417.5,518.9c0-1.6,1-2.4,2.3-1.7l3.7,2.1c1.2,0.7,2.3,2.7,2.3,4.3L417.5,518.9z"/>
			</g>
			<g>
				<path class="st18" d="M476.7,498l-3.7-2.1c-0.6-0.4-1.2-0.3-1.6,0L426.3,522l5.9,5l46.3-26.7C478.1,499.3,477.4,498.5,476.7,498
					z"/>
				<path class="st18" d="M479,502.4c0-0.7-0.2-1.5-0.5-2.2l-46.3,26.7l1.8,1.5L479,502.4z"/>
				<path class="st17" d="M479,502.4c0-0.7-0.2-1.5-0.5-2.2l-46.3,26.7l1.8,1.5L479,502.4z"/>
				<polygon class="st59" points="429.8,525.4 477,498.2 473,495.9 426.1,523 				"/>
				<path class="st17" d="M425.7,523.6c0-1.6,1-2.4,2.3-1.7l3.7,2.1c1.2,0.7,2.3,2.7,2.3,4.3L425.7,523.6z"/>
			</g>
		</g>
		<g>
			<g>
				<path class="st22" d="M484.7,502.8l-3.7-2.1c-0.6-0.4-1.2-0.3-1.6,0l-45.1,26.1l5.9,5l46.3-26.7
					C486,504,485.4,503.2,484.7,502.8z"/>
				<path class="st22" d="M487,507.2c0-0.7-0.2-1.5-0.5-2.2l-46.3,26.7l1.8,1.5L487,507.2z"/>
				<path class="st22" d="M487,507.2c0-0.7-0.2-1.5-0.5-2.2l-46.3,26.7l1.8,1.5L487,507.2z"/>
				<polygon class="st57" points="437.7,530.2 484.9,503 480.9,500.7 434,527.7 				"/>
				<path class="st22" d="M433.6,528.4c0-1.6,1-2.4,2.3-1.7l3.7,2.1c1.2,0.7,2.3,2.7,2.3,4.3L433.6,528.4z"/>
			</g>
			<g>
				<path class="st18" d="M492.9,507.6l-3.7-2.1c-0.6-0.4-1.2-0.3-1.6,0l-45.1,26.1l5.9,5l46.3-26.7
					C494.2,508.8,493.6,508,492.9,507.6z"/>
				<path class="st18" d="M495.2,511.9c0-0.7-0.2-1.5-0.5-2.2l-46.3,26.7l1.8,1.5L495.2,511.9z"/>
				<path class="st17" d="M495.2,511.9c0-0.7-0.2-1.5-0.5-2.2l-46.3,26.7l1.8,1.5L495.2,511.9z"/>
				<polygon class="st59" points="445.9,534.9 493.1,507.7 489.1,505.4 442.2,532.5 				"/>
				<path class="st17" d="M441.8,533.2c0-1.6,1-2.4,2.3-1.7l3.7,2.1c1.2,0.7,2.3,2.7,2.3,4.3L441.8,533.2z"/>
			</g>
			<g>
				<path class="st22" d="M501,512.2l-3.7-2.1c-0.6-0.4-1.2-0.3-1.6,0l-45.1,26.1l5.9,5l46.3-26.7
					C502.3,513.5,501.7,512.7,501,512.2z"/>
				<path class="st22" d="M503.3,516.6c0-0.7-0.2-1.5-0.5-2.2l-46.3,26.7l1.8,1.5L503.3,516.6z"/>
				<path class="st22" d="M503.3,516.6c0-0.7-0.2-1.5-0.5-2.2l-46.3,26.7l1.8,1.5L503.3,516.6z"/>
				<polygon class="st57" points="454.1,539.6 501.2,512.4 497.2,510.1 450.3,537.2 				"/>
				<path class="st22" d="M449.9,537.8c0-1.6,1-2.4,2.3-1.7l3.7,2.1c1.2,0.7,2.3,2.7,2.3,4.3L449.9,537.8z"/>
			</g>
			<g>
				<path class="st18" d="M509.1,517l-3.7-2.1c-0.6-0.4-1.2-0.3-1.6,0l-45.1,26.1l5.9,5l46.3-26.7
					C510.5,518.2,509.8,517.4,509.1,517z"/>
				<path class="st18" d="M511.4,521.3c0-0.7-0.2-1.5-0.5-2.2l-46.3,26.7l1.8,1.5L511.4,521.3z"/>
				<path class="st17" d="M511.4,521.3c0-0.7-0.2-1.5-0.5-2.2l-46.3,26.7l1.8,1.5L511.4,521.3z"/>
				<polygon class="st59" points="462.2,544.3 509.4,517.1 505.4,514.8 458.5,541.9 				"/>
				<path class="st17" d="M458.1,542.5c0-1.6,1-2.4,2.3-1.7l3.7,2.1c1.2,0.7,2.3,2.7,2.3,4.3L458.1,542.5z"/>
			</g>
		</g>
	</g>
	<g>
		<g>
			<polygon class="st12" points="238.2,273 238.2,397.5 281.5,422.5 281.5,298 			"/>
			<polygon class="st30" points="188.8,456.7 188.8,468.7 275.1,418.9 275.1,406.7 			"/>
			<polygon class="st13" points="283.5,296.8 193.2,348.9 149.9,323.9 240.2,271.7 			"/>
			<polygon class="st12" points="149.9,323.9 149.9,448.5 193.2,473.5 193.2,348.9 			"/>
			<g>
				<polygon class="st14" points="283.5,296.8 193.2,348.9 193.2,473.5 195.5,472.1 195.5,460 281.5,410.3 281.5,422.5 283.5,421.3 
									"/>
			</g>
			<polygon class="st30" points="149.9,329.9 149.9,332.5 193.2,357.5 193.2,354.9 			"/>
			<polygon class="st12" points="283.5,302.8 283.5,305.4 193.2,357.5 193.2,354.9 			"/>
			<polygon class="st12" points="195.5,368.5 195.5,371.1 281.5,321.5 281.5,318.9 			"/>
		</g>
		<polygon class="st12" points="196.5,341.7 272.3,297.9 242,280.4 166.2,324.2 		"/>
		<path class="st30" d="M166.2,324.2c0,0,17.4,3.9,40.3-9.3c21.8-12.6,35.6-34.5,35.6-34.5L166.2,324.2z"/>
		<g>
			<g>
				<path class="st39" d="M209.5,289.2h5.1l0.8,4.6c0,1-1.5,1.8-3.3,1.8s-3.3-0.8-3.3-1.8L209.5,289.2z"/>
				<path class="st22" d="M209.5,289.2c0,0.8,1.1,1.4,2.6,1.4s2.6-0.6,2.6-1.4s-1.1-1.4-2.6-1.4S209.5,288.5,209.5,289.2z"/>
			</g>
			<g>
				<polygon class="st39" points="217.5,295.2 221.4,295.2 221.4,298.4 217.5,300.7 				"/>
				<polygon class="st39" points="203.6,289.7 207.5,289.7 207.5,298.4 203.6,300.6 				"/>
				<polygon class="st36" points="200.4,287.5 217.5,297.5 221.4,295.2 204.3,285.3 				"/>
				<polygon class="st31" points="217.5,297.5 217.5,300.7 214.1,298.7 214.1,297.2 200.4,289.2 200.4,287.5 				"/>
				<polygon class="st31" points="200.4,298.7 203.6,300.6 203.6,289.4 200.4,287.5 				"/>
			</g>
			<g>
				<path class="st39" d="M193.5,298.3h5.1l0.8,4.6c0,1-1.5,1.8-3.3,1.8s-3.3-0.8-3.3-1.8L193.5,298.3z"/>
				<path class="st44" d="M193.5,298.3c0,0.8,1.1,1.4,2.6,1.4c1.4,0,2.6-0.6,2.6-1.4s-1.1-1.4-2.6-1.4
					C194.6,296.9,193.5,297.6,193.5,298.3z"/>
			</g>
		</g>
		<g>
			<path class="st12" d="M203.4,309.1c1-0.6,1.8-2.1,1.8-3.4c0-0.4-0.1-0.7-0.2-1c0.6,0.1,0.9,0.6,0.9,1.5c0,1.3-0.8,2.8-1.8,3.4
				c-0.7,0.4-1.2,0.2-1.5-0.3C202.8,309.3,203.1,309.3,203.4,309.1z"/>
			<path class="st39" d="M204.1,304.9c0.3-0.2,0.6-0.2,0.8-0.2c0.1,0.3,0.2,0.6,0.2,1c0,1.3-0.8,2.8-1.8,3.4
				c-0.3,0.2-0.6,0.2-0.8,0.2c-0.1-0.3-0.2-0.6-0.2-1C202.4,307,203.2,305.5,204.1,304.9z"/>
		</g>
		<g>
			<path class="st30" d="M214.6,322.2c1.5,0,2.7,0.5,3.1,1.3c0.1-0.1,0.1-0.3,0.1-0.4c0-0.9-1.4-1.7-3.2-1.7c-1.8,0-3.2,0.8-3.2,1.7
				c0,0.2,0,0.3,0.1,0.4C211.9,322.7,213.2,322.2,214.6,322.2z"/>
			<path class="st39" d="M214.6,324.7c1.5,0,2.7-0.5,3.1-1.3c-0.4-0.7-1.6-1.3-3.1-1.3c-1.5,0-2.7,0.5-3.1,1.3
				C211.9,324.2,213.2,324.7,214.6,324.7z"/>
		</g>
		<polygon class="st12" points="197.5,458.9 195.5,460 195.5,368.6 197.5,367.5 		"/>
		<polygon class="st12" points="239.5,434.6 237.5,435.8 237.5,344.9 239.5,343.8 		"/>
		<polygon class="st12" points="281.5,410.3 279.5,411.5 279.5,320 281.5,318.9 		"/>
		<g>
			<polygon class="st39" points="234.4,423.2 232,424.6 232,363.1 234.4,361.8 			"/>
			<polygon class="st31" points="231.1,362.6 231.1,424.1 232,424.6 232,363.1 			"/>
			<polygon class="st36" points="234.4,361.8 233.4,361.2 231.1,362.6 232,363.1 			"/>
		</g>
		<g>
			<polygon class="st39" points="246.2,416.5 243.9,417.9 243.9,356.4 246.2,355.1 			"/>
			<polygon class="st31" points="243,355.9 243,417.4 243.9,417.9 243.9,356.4 			"/>
			<polygon class="st36" points="246.2,355.1 245.3,354.5 243,355.9 243.9,356.4 			"/>
		</g>
	</g>
	<g>
		<g>
			<path class="st60" d="M56.9,443.6l21.3-12.3v58.1l-13.3,7.7c0,0,0-26.4,0-32.9c0-8.8-8.1-15.9-8.1-15.9V443.6z"/>
			<path class="st30" d="M60.8,445.9l21.3-12.3v58.1l-13.3,7.7c0,0,0-26.4,0-32.9c0-8.8,0-15.9,0-15.9L60.8,445.9z"/>
			<polygon class="st60" points="64.9,497.1 68.9,499.4 68.9,450.8 64.9,448.6 			"/>
			<g>
				<path class="st12" d="M133.9,457.5v61.7c0.9-1,1.3-2.2,1.3-3.2l0,0v-58.4L133.9,457.5z"/>
				<path class="st12" d="M126.4,457.2v66.1c1.7-0.4,3.3-1,4.7-1.8l0,0c1.2-0.7,2.1-1.5,2.8-2.3v-61.7L126.4,457.2z"/>
				<path class="st60" d="M126.4,457.2v66.1c1.7-0.4,3.3-1,4.7-1.8l0,0c1.2-0.7,2.1-1.5,2.8-2.3v-61.7L126.4,457.2z"/>
			</g>
			<g>
				<path class="st30" d="M105.7,456.2v61l8.5,4.9c3.1,1.8,7.9,2.1,12.2,1.1v-66.1L105.7,456.2z"/>
				<polygon class="st12" points="71.8,454.6 71.8,497.7 105.7,517.2 105.7,456.2 				"/>
				<polygon class="st60" points="71.8,454.6 71.8,497.7 105.7,517.2 105.7,456.2 				"/>
			</g>
			<g>
				<polygon class="st13" points="111.9,369.6 65.1,396.7 48.7,387.3 95.6,360.2 				"/>
				<path class="st14" d="M48.7,387.3v46.3c0,6.2,3.3,11.8,8.6,14.9l7.7,4.5v-56.3L48.7,387.3z"/>
				<path class="st12" d="M111.9,369.6v48.2c0,4.2-2.2,8-5.8,10.1l-36,26.2c0,0-5.1-1.9-5.1-9.5c0-12,0-47.9,0-47.9L111.9,369.6z"/>
				<polygon class="st12" points="65.1,404.1 48.7,394.7 48.7,393 65.1,402.4 				"/>
				<polygon class="st60" points="65.1,404.1 111.9,377.2 111.9,375.4 65.1,402.4 				"/>
			</g>
			<path class="st14" d="M58.8,449.4l15.2,8.7c0,0,2.5,17.8,16.5,27.1c24.8,16.7,59,4.4,59-28.6c-11-10.2-76.7-3.4-79.5-4.3
				c-3.9-2.7-5.1-3.1-5.1-7.7C63.2,445.1,58.8,449.4,58.8,449.4z"/>
			<g>
				<path class="st60" d="M114.6,426.6l23.3,13.6c14.1,8.2,15.7,20.6,3.4,27.7c-12.2,7.1-33.8,6.2-47.9-2l-23.3-13.6L114.6,426.6z"
					/>
				<rect x="70.1" y="450.9" class="st60" width="3.9" height="1.4"/>
				<rect x="147.2" y="454.2" class="st12" width="2.4" height="2.4"/>
				<path class="st13" d="M114.6,425.2l23.3,13.6c14.1,8.2,15.7,20.6,3.4,27.7c-12.2,7.1-33.8,6.2-47.9-2l-23.3-13.6L114.6,425.2z"
					/>
			</g>
			<g>
				<path class="st60" d="M114.6,423.5l23.3,13.6c14.1,8.2,15.7,20.6,3.4,27.7c-12.2,7.1-33.8,6.2-47.9-2l-23.3-13.6L114.6,423.5z"
					/>
				<rect x="70.1" y="446.3" class="st60" width="3.9" height="2.9"/>
				<rect x="147.2" y="449.6" class="st12" width="2.4" height="2.9"/>
				<path class="st13" d="M114.6,420.7l23.3,13.6c14.1,8.2,15.7,20.6,3.4,27.7c-12.2,7.1-33.8,6.2-47.9-2l-23.3-13.6L114.6,420.7z"
					/>
			</g>
		</g>
		<g>
			<path class="st31" d="M71.9,404.9c0,1.7-1.1,3.8-2.4,4.5c-1.3,0.8-2.4,0-2.4-1.8c0-1.7,1.1-3.8,2.4-4.5
				C70.8,402.3,71.9,403.1,71.9,404.9z"/>
			<polygon class="st31" points="69.2,410.2 67.9,409.5 71.1,403 72.2,403.6 			"/>
			<path class="st39" d="M73.1,405.6c0,1.7-1.1,3.8-2.4,4.5c-1.3,0.8-2.4,0-2.4-1.8s1.1-3.8,2.4-4.5C72,403,73.1,403.8,73.1,405.6z"
				/>
		</g>
		<g>
			<path class="st39" d="M69.6,407.6c-0.8,0.6-2.3,1.2-3.2,1.8c-1,0.7-2.1,1.2-2.1,1.2l1.2,0.7c0,0,2.8-0.2,5.1-1.3
				c2.3-1,3.8-1.8,2.2-2.8C71.2,406.4,70.3,407.1,69.6,407.6z"/>
			<polygon class="st39" points="73.5,406.8 73.5,408.2 72.1,408.2 72.1,406.8 			"/>
			<path class="st36" d="M69.6,406.2c-0.8,0.6-2.3,1.6-3.2,2.3c-1,0.7-2.1,1.6-2.1,1.6l1.2,0.7c0,0,2.8-1,5.1-2.1
				c2.3-1,3.8-1.8,2.2-2.8C71.2,405,70.3,405.8,69.6,406.2z"/>
			<polygon class="st31" points="64.3,410.1 64.3,410.7 65.5,411.4 65.5,410.8 			"/>
		</g>
	</g>
	<g>
		<path class="st42" d="M589.5,234.5c0,5.1-0.2,19-0.2,32.2c0,15.9-0.3,31.4-0.3,31.4L529.8,264v-63.6c21.7,15.7,49,28,58.1,31.8
			C588.8,232.6,589.5,233.5,589.5,234.5z"/>
		<path class="st61" d="M589,291.4l-59.3-34.1c0,0,0-1.6,0-4.2l59.3,34.1V291.4z"/>
		<path class="st61" d="M589,283.6l-59.3-34.1c0,0,0-4.7,0-7.3l59.3,34.1V283.6z"/>
		<polygon class="st62" points="589.7,237.5 589.7,297.9 589,298.1 589,237.1 		"/>
		<g>
			<g>
				<path class="st31" d="M614,229.2c0,2.2,1.3,4.6,2.9,5.6c1.6,0.9,2.9-0.1,2.9-2.2s-1.3-4.6-2.9-5.6
					C615.3,226.1,614,227.1,614,229.2z"/>
				<polygon class="st31" points="618.2,235.4 618.9,234.9 615.1,226.8 614.2,227.3 				"/>
				<path class="st36" d="M613.4,229.6c0,2.2,1.3,4.6,2.9,5.6c1.6,0.9,2.9-0.1,2.9-2.2s-1.3-4.6-2.9-5.6
					C614.7,226.5,613.4,227.5,613.4,229.6z"/>
				<path class="st39" d="M615.1,230.7c0,0.7,0.4,1.6,1,1.9c0.5,0.3,1,0,1-0.7c0-0.7-0.4-1.6-1-1.9
					C615.5,229.7,615.1,230,615.1,230.7z"/>
			</g>
			<g>
				<path class="st31" d="M532.2,182.5c0,2.2,1.3,4.7,2.9,5.6c1.6,0.9,2.9-0.1,2.9-2.2c0-2.2-1.3-4.6-2.9-5.6
					C533.5,179.4,532.2,180.4,532.2,182.5z"/>
				<polygon class="st31" points="536.4,188.6 537.2,188.2 533.3,180.1 532.5,180.6 				"/>
				<path class="st36" d="M531.6,182.9c0,2.2,1.3,4.6,2.9,5.6c1.6,0.9,2.9-0.1,2.9-2.2s-1.3-4.6-2.9-5.6
					C532.9,179.8,531.6,180.8,531.6,182.9z"/>
				<path class="st39" d="M533.3,184c0,0.7,0.4,1.6,1,1.9c0.5,0.3,1,0,1-0.7s-0.4-1.6-1-1.9C533.7,183,533.3,183.3,533.3,184z"/>
			</g>
			<g>
				<path class="st39" d="M526.6,187.1l7.1-3.9c0.4,0.9,1,1.7,1.3,2.6l-6.9,3.8c-2.6,1.5-4,3.3-4,5.1c0,1.7,1.4,2.9,2.6,3.6
					l63.2,36.5c4.5,2.6,12.8,2.2,18-0.8l7.5-4.1c0.5,0.8,0.6,1.9,1.1,2.8l-7.2,4c-3.4,1.9-7.7,2.9-11.8,2.9c-3.5,0-6.8-0.7-9.2-2.1
					L525.2,201c-2.7-1.5-4.1-3.7-4.1-6.2C521.1,191.9,523.1,189.1,526.6,187.1z"/>
			</g>
		</g>
		<path class="st62" d="M589.3,234.5c0,0,0.1-0.8-0.5-1.4c-0.3-0.3-1.1-0.6-1.8-0.1c-1.3,0.9-0.7,6.1-0.7,8.8s-0.1,48.2-0.1,48.2
			l-0.7,0.2l-9.1-10.3l5.1-48.8l4.4-0.6c0,0,2.7,1.2,3.6,2.3c0.6,0.8,0.4,2.1,0.4,2.1L589.3,234.5z"/>
		<path class="st18" d="M589,232.3c-1.1-0.7-3.5-0.8-3.5,3.3c0,5.6,0,54.7,0,54.7l-59.3-34.1c0,0,0-46.9,0-53.1s4.6-3.9,4.6-3.9
			S588.3,231.5,589,232.3z"/>
		<g>
			<path class="st56" d="M585.6,284.1L526.3,250c0,0,0-1.6,0-4.2l59.3,34.1V284.1z"/>
			<path class="st56" d="M585.6,276.3l-59.3-34.1c0,0,0-4.7,0-7.3l59.3,34.1V276.3z"/>
		</g>
	</g>
	<g>
		<g>
			<path class="st22" d="M672.3,233.3c0,5-0.2,18.9-0.2,32c0,15.8-0.3,31.2-0.3,31.2l-41.3-23.7v-63.2c21.5,15.6,31,17.7,40.2,21.4
				C671.7,231.5,672.3,232.3,672.3,233.3z"/>
			<polygon class="st57" points="630.6,261.9 671.9,285.7 671.9,289.9 630.6,266.1 			"/>
			<polygon class="st57" points="630.6,251.1 671.9,274.9 671.9,282.1 630.6,258.4 			"/>
			<polygon class="st63" points="672.6,236.3 672.6,296.3 671.9,296.5 671.9,235.9 			"/>
		</g>
		<g>
			<g>
				<path class="st31" d="M707.9,234.8c0,2.1,1.3,4.6,2.9,5.5c1.6,0.9,2.9-0.1,2.9-2.2c0-2.1-1.3-4.6-2.9-5.5
					C709.2,231.6,707.9,232.6,707.9,234.8z"/>
				<polygon class="st31" points="712.1,240.8 712.9,240.4 709,232.4 708.2,232.9 				"/>
				<path class="st36" d="M707.3,235.1c0,2.1,1.3,4.6,2.9,5.5c1.6,0.9,2.9-0.1,2.9-2.2c0-2.1-1.3-4.6-2.9-5.5
					C708.6,232,707.3,233,707.3,235.1z"/>
				<path class="st39" d="M709,236.2c0,0.7,0.4,1.5,1,1.9c0.5,0.3,1,0,1-0.7c0-0.7-0.4-1.5-1-1.9C709.5,235.2,709,235.5,709,236.2z"
					/>
			</g>
			<g>
				<path class="st31" d="M626.8,188.4c0,2.1,1.3,4.6,2.9,5.5c1.6,0.9,2.9-0.1,2.9-2.2c0-2.1-1.3-4.6-2.9-5.5
					C628.1,185.3,626.8,186.3,626.8,188.4z"/>
				<polygon class="st31" points="630.9,194.5 631.7,194 627.9,186 627,186.5 				"/>
				<path class="st36" d="M626.2,188.8c0,2.1,1.3,4.6,2.9,5.5c1.6,0.9,2.9-0.1,2.9-2.2s-1.3-4.6-2.9-5.5
					C627.5,185.7,626.2,186.7,626.2,188.8z"/>
				<path class="st39" d="M627.9,189.9c0,0.7,0.4,1.5,1,1.9c0.5,0.3,1,0,1-0.7c0-0.7-0.4-1.5-1-1.9
					C628.3,188.8,627.9,189.2,627.9,189.9z"/>
			</g>
			<g>
				<path class="st39" d="M621.3,192.8l6.9-3.7c0.4,0.9,1,1.7,1.3,2.7l-6.7,3.6c-2.5,1.5-4,3.3-4,5.1c0,1.7,1.4,2.9,2.6,3.6
					l62.8,36.2c4.5,2.6,12.7,2.2,17.9-0.8l7.2-4c0.5,0.8,0.9,1.8,1.3,2.7l-7.1,3.9c-3.3,1.9-7.6,2.9-11.7,2.9
					c-3.4,0-6.7-0.7-9.2-2.1l-62.8-36.2c-2.6-1.5-4.1-3.7-4.1-6.2C615.8,197.6,617.8,194.8,621.3,192.8z"/>
			</g>
		</g>
		<g>
			<path class="st63" d="M672.2,233.4c0,0,0.1-0.8-0.5-1.4c-0.3-0.3-1.1-0.6-1.8-0.1c-1.3,0.9-0.7,6-0.7,8.7
				c0,2.7-0.1,47.9-0.1,47.9l-0.7,0.2l-9.1-10.3l5.1-48.5l4.4-0.6c0,0,2.7,1.2,3.6,2.3c0.6,0.8,0.4,2.1,0.4,2.1L672.2,233.4z"/>
			<path class="st20" d="M671.9,231.2c-1.1-0.7-3.4-0.8-3.4,3.2c0,5.5,0,54.3,0,54.3L627.2,265c0,0,0-46.6,0-52.8
				c0-6.2,4.6-3.9,4.6-3.9S671.1,230.4,671.9,231.2z"/>
			<g>
				<polygon class="st56" points="627.2,254.7 668.5,278.4 668.5,282.6 627.2,258.9 				"/>
				<polygon class="st56" points="627.2,243.9 668.5,267.7 668.5,274.9 627.2,251.2 				"/>
			</g>
		</g>
	</g>
	<g>
		<g>
			
				<ellipse transform="matrix(0.1555 -0.9878 0.9878 0.1555 -37.3984 367.9818)" class="st22" cx="196.5" cy="205.9" rx="79.2" ry="35"/>
			<polygon class="st22" points="182.5,284.3 177.9,281.7 177.9,279.2 184.9,281.7 			"/>
			<polygon class="st22" points="217.5,131.4 214,129.4 212.2,129.6 216.8,133.2 			"/>
		</g>
		<g>
			<path class="st20" d="M180.9,155.6l56,40.4c0.1-2,0.2-4,0.2-6l-53.7-38.8C182.5,152.6,181.7,154.1,180.9,155.6z"/>
			<path class="st20" d="M175.2,168.2l60.1,43.4c0.5-3.7,1-7.5,1.3-11.2L179.2,159C177.8,161.9,176.4,165,175.2,168.2z"/>
			<path class="st20" d="M200.5,132.6c-0.1,0.1-0.3,0.2-0.4,0.3l33.7,24.3C227.9,134.7,215.2,124.1,200.5,132.6z"/>
			<path class="st20" d="M163.8,229.3c0,41.7,16.4,66.1,36.7,54.4c9.3-5.4,17.8-17.4,24.2-32.9l-59.5-42.9
				C164.3,214.9,163.8,222.1,163.8,229.3z"/>
			<path class="st20" d="M170.7,181.3l61.9,44.7c0.6-2.5,1.1-5,1.6-7.5l-61.2-44.2C172.1,176.6,171.4,178.9,170.7,181.3z"/>
			<path class="st20" d="M165.2,207.8l59.5,42.9c3.2-7.6,5.8-15.9,7.9-24.7l-61.9-44.7C168.3,189.7,166.4,198.6,165.2,207.8z"/>
			<path class="st64" d="M165.2,207.8l59.5,42.9c3.2-7.6,5.8-15.9,7.9-24.7l-61.9-44.7C168.3,189.7,166.4,198.6,165.2,207.8z"/>
			<path class="st20" d="M233.7,157.1l-33.7-24.3c-6,3.6-11.7,10-16.7,18.4l53.7,38.8c0-1,0.1-2,0.1-3
				C237.1,175.6,235.9,165.5,233.7,157.1z"/>
			<path class="st64" d="M233.7,157.1l-33.7-24.3c-6,3.6-11.7,10-16.7,18.4l53.7,38.8c0-1,0.1-2,0.1-3
				C237.1,175.6,235.9,165.5,233.7,157.1z"/>
			<path class="st20" d="M172.9,174.3l61.2,44.2c0.4-2.3,0.8-4.6,1.1-6.9l-60.1-43.4C174.4,170.2,173.6,172.2,172.9,174.3z"/>
			<path class="st64" d="M172.9,174.3l61.2,44.2c0.4-2.3,0.8-4.6,1.1-6.9l-60.1-43.4C174.4,170.2,173.6,172.2,172.9,174.3z"/>
			<path class="st20" d="M179.2,159l57.4,41.4c0.1-1.5,0.2-2.9,0.3-4.4l-56-40.4C180.3,156.7,179.8,157.8,179.2,159z"/>
			<path class="st64" d="M179.2,159l57.4,41.4c0.1-1.5,0.2-2.9,0.3-4.4l-56-40.4C180.3,156.7,179.8,157.8,179.2,159z"/>
		</g>
	</g>
	<g>
		<g>
			<path class="st33" d="M51.9,537.8c1.8-0.1,3.6-0.2,5.3-0.5c-1.5-0.2-3-0.6-4.1-1.2C52.6,536.7,52.2,537.3,51.9,537.8z"/>
			<path class="st33" d="M67.6,533.4c0.6-0.4,1.4-1,1.9-1.5c-0.6-0.4-1.7-0.9-2.6-1.2c0.4,0.5,0.7,1.4,0.7,2
				C67.6,532.9,67.6,533.2,67.6,533.4z"/>
		</g>
		<g>
			<path class="st12" d="M67.1,531.8c-1.7-0.5-3.9-0.6-6.9,0.5c-2.6,0.9-4.9,1.9-6.4,3.2c-0.4,0.3-0.8,0.9-1.1,1.2
				c1.1,0.6,2.9,1.2,4.4,1.4c0.7,0.1,1.3,0.2,2.1,0.2c4.3,0,7.8-1.8,8.3-4.1c0.1-0.2,0.2-1,0.1-1.6
				C67.6,531.9,67.4,532.3,67.1,531.8z"/>
			<g>
				<path class="st13" d="M67.1,530.9c-0.3-0.1-0.7-0.2-1-0.2c0.3,0.4,0.4,0.9,0.4,1.4c0,0.2-0.1,0.4-0.1,0.6
					c-0.5,2-3.5,3.6-7.3,3.6c-0.6,0-1.2-0.1-1.8-0.1c-1.2-0.2-2.3-0.5-3.2-1c-0.3,0.3-0.6,0.6-0.9,0.9c1.1,0.6,2.4,1,3.9,1.2
					c0.7,0.1,1.3,0.2,2.1,0.2c4.3,0,7.8-1.8,8.3-4.1c0.1-0.2,0.1-0.4,0.1-0.7C67.7,532,67.4,531.5,67.1,530.9z"/>
				<path class="st33" d="M59.1,536.2c3.7,0,6.8-1.6,7.3-3.6c0-0.2,0.1-0.4,0.1-0.6c0-0.5-0.2-0.9-0.4-1.4c-1.5-0.2-3.4-0.1-5.8,0.7
					c-2.7,0.9-4.7,2.3-6.1,3.7c0.9,0.5,2,0.8,3.2,1C57.9,536.2,58.5,536.2,59.1,536.2z"/>
			</g>
		</g>
		<path class="st31" d="M72.5,519.7h-2.8c-3.7-3.7-10.8-6.2-18.9-6.2c-8.1,0-15.2,2.5-18.9,6.2h-2.8v5.6h0c0,0.1,0,0.2,0,0.4
			c0,6.7,9.7,12.2,21.7,12.2c0.4,0,0.8,0,1.2,0c1.3-2.1,3.7-4.8,8.2-6.3c4.5-1.5,7.4-0.6,9,0.5c2-1.9,3.2-4,3.2-6.4
			c0-0.1,0-0.2,0-0.4h0V519.7z"/>
		<g>
			<path class="st24" d="M44.1,465.4v65.3c2.1,0.4,4.4,0.6,6.7,0.6c3.8,0,7.5-0.6,10.6-1.6v-64.3H44.1z"/>
			<path class="st24" d="M62.8,465.4v63.8c0.8-0.3,1.6-0.6,2.3-1v-62.8H62.8z"/>
			<path class="st24" d="M39.1,465.4v64c0.6,0.2,1.3,0.4,1.9,0.6v-64.6H39.1z"/>
			<path class="st24" d="M72.5,465.4h-2.2v59c1.4-1.6,2.2-3.4,2.2-5.3V465.4z"/>
			<path class="st24" d="M29.1,465.4V519c0,2.1,0.9,4,2.5,5.7v-59.4H29.1z"/>
			<path class="st12" d="M31.6,465.4v59.4c1.8,1.9,4.3,3.4,7.5,4.6v-64H31.6z"/>
			<path class="st32" d="M31.6,465.4v59.4c1.8,1.9,4.3,3.4,7.5,4.6v-64H31.6z"/>
			<path class="st12" d="M41,465.4v64.6c1,0.3,2,0.5,3.1,0.7v-65.3H41z"/>
			<path class="st32" d="M41,465.4v64.6c1,0.3,2,0.5,3.1,0.7v-65.3H41z"/>
			<path class="st12" d="M65.1,465.4v62.8c2.2-1.1,3.9-2.4,5.2-3.8v-59H65.1z"/>
			<path class="st65" d="M65.1,465.4v62.8c2.2-1.1,3.9-2.4,5.2-3.8v-59H65.1z"/>
			<path class="st12" d="M61.4,465.4v64.3c0.5-0.2,1-0.3,1.5-0.5v-63.8H61.4z"/>
			<path class="st65" d="M61.4,465.4v64.3c0.5-0.2,1-0.3,1.5-0.5v-63.8H61.4z"/>
		</g>
		<g>
			<path class="st31" d="M69.7,459.4c-3.7-3.7-10.8-6.2-18.9-6.2c-8.1,0-15.2,2.5-18.9,6.2l-2.8,1.3v4.7c0,6.7,9.7,12.2,21.7,12.2
				c12,0,21.7-5.5,21.7-12.2v-3.8L69.7,459.4z"/>
			<path class="st24" d="M69.7,455.5c-3.7-3.7-10.8-6.2-18.9-6.2c-8.1,0-15.2,2.5-18.9,6.2l-2.8,4.4v1.6c0,6.7,9.7,12.2,21.7,12.2
				c12,0,21.7-5.5,21.7-12.2v-1.6L69.7,455.5z"/>
			<ellipse class="st13" cx="50.8" cy="459.9" rx="21.7" ry="12.2"/>
			<ellipse class="st12" cx="50.8" cy="457.1" rx="16.1" ry="9.1"/>
		</g>
	</g>
	<g>
		<g>
			<path class="st66" d="M473.7,374v76.3l209.1,121.4V496L473.7,374z"/>
		</g>
		<g>
			<polygon class="st67" points="765.3,524.3 682.8,571.8 682.8,496 765.3,447.9 			"/>
		</g>
		<g>
			<polygon class="st68" points="689.8,492 689.8,567.8 687.9,568.8 687.9,493.1 			"/>
		</g>
		<g>
			<polygon class="st68" points="676.3,492.3 676.3,568 678.2,568.8 678.2,493.3 			"/>
		</g>
		<g>
			<polygon class="st68" points="479.2,377.6 479.2,453.3 481.1,454.6 481.1,378.6 			"/>
		</g>
		<g>
			<polygon class="st68" points="761.7,450.1 761.7,526.2 759.8,527.3 759.8,451.2 			"/>
		</g>
		<polygon class="st69" points="556.2,326.8 765.3,447.9 682.8,496 473.7,374 		"/>
		<g>
			<path class="st67" d="M547.1,406.4l-48.3-28c-3.4-2-3.4-6.9,0-8.8l45.8-26.3c7.3-4.2,16.4-4.2,23.7,0l170.3,98.1
				c4.1,2.4,4.1,8.3,0,10.7l-45.9,26.8c-0.1,0.1-0.2,0.1-0.3,0.2l-124-71.5C561.9,403.9,554,403.4,547.1,406.4z"/>
			<path class="st68" d="M672.4,479l-125.2-72.6c6.8-2.9,14.7-2.5,21.2,1.2l124,71.5C686.2,482.6,678.6,482.5,672.4,479z"/>
		</g>
		<g>
			<path class="st68" d="M525.3,368.9c2.1-1.2,3.8-4.5,3.8-7.3c0-0.9-0.2-1.6-0.5-2.2c1.2,0.2,2.1,1.4,2.1,3.3
				c0,2.8-1.7,6.1-3.8,7.3c-1.4,0.8-2.7,0.5-3.4-0.7C524,369.4,524.6,369.3,525.3,368.9z"/>
			<path class="st39" d="M526.9,359.8c0.7-0.4,1.3-0.5,1.8-0.4c0.3,0.6,0.5,1.3,0.5,2.2c0,2.8-1.7,6.1-3.8,7.3
				c-0.7,0.4-1.3,0.5-1.8,0.4c-0.3-0.6-0.5-1.3-0.5-2.2C523,364.3,524.7,361.1,526.9,359.8z"/>
		</g>
		<g>
			<path class="st39" d="M529.7,340.7h5.5l0.9,5c0,1.1-1.6,1.9-3.6,1.9c-2,0-3.6-0.9-3.6-1.9L529.7,340.7z"/>
			<path class="st70" d="M529.7,340.7c0,0.8,1.2,1.5,2.8,1.5c1.5,0,2.8-0.7,2.8-1.5c0-0.8-1.2-1.5-2.8-1.5
				C530.9,339.2,529.7,339.9,529.7,340.7z"/>
		</g>
		<g>
			<polygon class="st39" points="538.4,347.1 542.5,347.2 542.5,350.6 538.4,353 			"/>
			<polygon class="st39" points="523.4,341.2 527.5,341.3 527.5,350.5 523.4,352.9 			"/>
			<polygon class="st36" points="519.9,338.9 538.3,349.6 542.5,347.2 524.1,336.4 			"/>
			<polygon class="st31" points="538.4,349.6 538.4,353 534.6,350.9 534.6,349.2 519.9,340.7 519.9,338.9 			"/>
			<polygon class="st31" points="519.9,350.9 523.4,352.9 523.4,340.9 519.9,338.9 			"/>
		</g>
		<g>
			<path class="st39" d="M512.4,350.5h5.5l0.9,5c0,1.1-1.6,1.9-3.6,1.9c-2,0-3.6-0.9-3.6-1.9L512.4,350.5z"/>
			<path class="st71" d="M512.4,350.5c0,0.8,1.2,1.5,2.8,1.5c1.5,0,2.8-0.7,2.8-1.5c0-0.8-1.2-1.5-2.8-1.5
				C513.6,349,512.4,349.7,512.4,350.5z"/>
		</g>
	</g>
</g>
</svg>
