<?xml version="1.0" encoding="utf-8"?>
<!-- Generator: Adobe Illustrator 24.0.2, SVG Export Plug-In . SVG Version: 6.00 Build 0)  -->
<svg version="1.1" id="Layer_1" xmlns="http://www.w3.org/2000/svg" xmlns:xlink="http://www.w3.org/1999/xlink" x="0px" y="0px"
	 viewBox="0 0 328 456" style="enable-background:new 0 0 328 456;" height="456" width="328" xml:space="preserve">
<style type="text/css">
	.st0{fill:#7DA73F;}
</style>
<path class="st0" d="M318.6,345.6c1.1-3.1,2.1-6.3,3-9.5c4-14.1,6.2-29,6.2-44.4c0-10.8-2.2-23-6.2-36.2c-6-20.1-16-42.5-28.2-65.6
	c-13.6-25.8-29.9-52.5-46.3-77.8c-14.2-22-28.5-42.9-41.1-61.5C195.5,35.2,186.3,21,177.6,8c-1.2-1.9-3.1-3.7-4.9-4.9
	c-7.4-4.9-17.3-2.5-22.3,4.9c-8,13-17.3,26.6-28.4,42.6c-12.6,18.5-26.9,39.5-41,61.5c-16.3,25.3-32.6,52-46.2,77.8
	c-14.7,27.8-26.2,54.7-31.5,77.8c-2,8.8-3.1,17-3.1,24.6c0,18.6,3.2,36.5,9,53.2c8.2,23.7,21.8,44.9,39.2,62.4
	c5.7,5.6,11.8,10.7,18.2,15.5c27.2,20,60.9,32.1,97.4,32.1c36.3,0,69.8-12,96.9-32.1c6.6-4.9,12.8-10.3,18.6-16.1
	C296.8,390,310.3,369,318.6,345.6z"/>
</svg>
