<?xml version="1.0" encoding="utf-8"?>
<!-- Generator: Adobe Illustrator 24.0.2, SVG Export Plug-In . SVG Version: 6.00 Build 0)  -->
<svg version="1.1" id="Layer_1" xmlns="http://www.w3.org/2000/svg" xmlns:xlink="http://www.w3.org/1999/xlink" x="0px" y="0px"
	 viewBox="0 0 994 756" style="enable-background:new 0 0 994 756;" height="756" width="994" xml:space="preserve">
<style type="text/css">
	.st0{fill:#78A240;}
	.st1{fill:#70973E;}
	.st2{fill:#9AC450;}
	.st3{fill:#B7D564;}
	.st4{opacity:0.15;}
	.st5{fill:#F7C581;}
	.st6{fill:#FFDEB3;}
	.st7{fill:#C49557;}
	.st8{fill:#F58B67;}
	.st9{fill:#CB6D4B;}
	.st10{fill:#B05E40;}
	.st11{fill:#EDB870;}
	.st12{fill:#D6A35D;}
	.st13{fill:#66B4DC;}
	.st14{fill:#A6583C;}
	.st15{fill:#A67667;}
	.st16{fill:#6B9D41;}
	.st17{fill:#7FB942;}
</style>
<g>
	<g>
		<polygon class="st0" points="0.1,470.1 0.1,426.9 497,140 993.9,426.9 993.9,470.1 497,757 		"/>
		<polygon class="st1" points="497,713.8 993.9,426.9 993.9,470.1 497,757 		"/>
		<polygon class="st2" points="497,713.8 0.1,426.9 497,140 993.9,426.9 		"/>
		<polygon class="st3" points="497,676.8 64.1,426.9 497,176.9 929.9,426.9 		"/>
		<polygon class="st2" points="231.4,560.5 562.4,369.4 506.9,284.1 129.8,501.8 		"/>
	</g>
	<polygon class="st4" points="589.3,660.5 863.8,502 669.2,389.7 390.7,545.8 	"/>
	<polygon class="st4" points="770,487.9 602.5,580.9 664.9,616.9 829.1,522.1 	"/>
	<g>
		<g>
			<polygon class="st5" points="676.2,213.2 676.2,223.2 930,369.7 930,359.7 			"/>
			<polygon class="st6" points="676.2,213.2 678.3,213.2 932,359.7 930,359.7 			"/>
			<rect x="930" y="359.7" class="st7" width="2" height="10"/>
		</g>
		<g>
			<polygon class="st7" points="694.4,295.9 698.8,293.4 698.8,202.1 694.4,204.6 			"/>
			<polygon class="st5" points="692,189.6 687.6,192.1 694.4,204.6 698.8,202.1 			"/>
			<polygon class="st6" points="687.6,192.1 682.5,197.7 682.5,289 694.4,295.9 694.4,204.6 			"/>
		</g>
		<g>
			<polygon class="st7" points="715.4,308.1 719.8,305.5 719.8,214.2 715.4,216.7 			"/>
			<polygon class="st5" points="713,201.7 708.6,204.2 715.4,216.7 719.8,214.2 			"/>
			<polygon class="st6" points="708.6,204.2 703.5,209.8 703.5,301.2 715.4,308.1 715.4,216.7 			"/>
		</g>
		<g>
			<polygon class="st7" points="736.4,320.2 740.8,317.7 740.8,226.3 736.4,228.9 			"/>
			<polygon class="st5" points="734,213.9 729.6,216.4 736.4,228.9 740.8,226.3 			"/>
			<polygon class="st6" points="729.6,216.4 724.5,222 724.5,313.3 736.4,320.2 736.4,228.9 			"/>
		</g>
		<g>
			<polygon class="st7" points="757.5,332.3 761.8,329.8 761.8,238.5 757.5,241 			"/>
			<polygon class="st5" points="755,226 750.6,228.5 757.5,241 761.8,238.5 			"/>
			<polygon class="st6" points="750.6,228.5 745.5,234.1 745.5,325.4 757.5,332.3 757.5,241 			"/>
		</g>
		<g>
			<polygon class="st7" points="778.5,344.5 782.9,341.9 782.9,250.6 778.5,253.2 			"/>
			<polygon class="st5" points="776,238.1 771.6,240.7 778.5,253.2 782.9,250.6 			"/>
			<polygon class="st6" points="771.6,240.7 766.5,246.2 766.5,337.6 778.5,344.5 778.5,253.2 			"/>
		</g>
		<g>
			<polygon class="st7" points="799.5,356.6 803.9,354.1 803.9,262.8 799.5,265.3 			"/>
			<polygon class="st5" points="797,250.3 792.6,252.8 799.5,265.3 803.9,262.8 			"/>
			<polygon class="st6" points="792.6,252.8 787.5,258.4 787.5,349.7 799.5,356.6 799.5,265.3 			"/>
		</g>
		<g>
			<polygon class="st7" points="820.5,368.7 824.9,366.2 824.9,274.9 820.5,277.4 			"/>
			<polygon class="st5" points="818,262.4 813.6,264.9 820.5,277.4 824.9,274.9 			"/>
			<polygon class="st6" points="813.6,264.9 808.5,270.5 808.5,361.8 820.5,368.7 820.5,277.4 			"/>
		</g>
		<g>
			<polygon class="st7" points="841.5,380.9 845.9,378.3 845.9,287 841.5,289.6 			"/>
			<polygon class="st5" points="839,274.5 834.6,277.1 841.5,289.6 845.9,287 			"/>
			<polygon class="st6" points="834.6,277.1 829.5,282.7 829.5,374 841.5,380.9 841.5,289.6 			"/>
		</g>
		<g>
			<polygon class="st7" points="862.5,393 866.9,390.5 866.9,299.2 862.5,301.7 			"/>
			<polygon class="st5" points="860,286.7 855.6,289.2 862.5,301.7 866.9,299.2 			"/>
			<polygon class="st6" points="855.6,289.2 850.6,294.8 850.6,386.1 862.5,393 862.5,301.7 			"/>
		</g>
		<g>
			<polygon class="st7" points="883.5,405.1 887.9,402.6 887.9,311.3 883.5,313.8 			"/>
			<polygon class="st5" points="881,298.8 876.7,301.3 883.5,313.8 887.9,311.3 			"/>
			<polygon class="st6" points="876.7,301.3 871.6,306.9 871.6,398.2 883.5,405.1 883.5,313.8 			"/>
		</g>
		<g>
			<polygon class="st7" points="904.5,417.3 908.9,414.7 908.9,323.4 904.5,326 			"/>
			<polygon class="st5" points="902.1,310.9 897.7,313.5 904.5,326 908.9,323.4 			"/>
			<polygon class="st6" points="897.7,313.5 892.6,319.1 892.6,410.4 904.5,417.3 904.5,326 			"/>
		</g>
		<g>
			<polygon class="st7" points="925.5,429.4 929.9,426.9 929.9,335.6 925.5,338.1 			"/>
			<polygon class="st5" points="923.1,323.1 918.7,325.6 925.5,338.1 929.9,335.6 			"/>
			<polygon class="st6" points="918.7,325.6 913.6,331.2 913.6,422.5 925.5,429.4 925.5,338.1 			"/>
		</g>
	</g>
	<g>
		<g>
			<polygon class="st8" points="167.7,417.3 167.7,242.4 167.7,212.1 279.2,164.3 390.7,340.8 390.7,371.2 390.7,546 			"/>
			<polygon class="st9" points="167.7,417.3 390.7,546 390.7,452 167.7,323.2 			"/>
			<polygon class="st9" points="669.2,389.7 669.2,184.3 390.7,340.6 390.7,546 			"/>
			<polygon class="st10" points="390.7,546 669.2,389.7 669.2,295.6 390.7,452 			"/>
			<path class="st5" d="M675.4,183.8L560.1,2.9C558.6,1,556.8,0,555.2,0L440,47.9c-1,0-1.7,0.5-2.2,1.3L161.5,204.3l117.7-39.9
				l119.9,185.3l276.3-155.1c0.9,0,1.6-0.4,2.1-1.2C678.9,191.1,677.9,186.8,675.4,183.8z"/>
			<path class="st11" d="M675.4,183.8L560.7,3.7L265.1,169.1l14.1-4.8l119.9,185.3l276.3-155.1c0.9,0,1.6-0.4,2.1-1.2
				C678.9,191.1,677.9,186.8,675.4,183.8z"/>
			<g>
				<path class="st7" d="M394.4,350.2c1.9,1.1,3.7,1,4.7-0.6c1.4-2.2,0.4-6.4-2.2-9.5L281.7,159.2c-1.5-1.8-3.4-2.9-4.9-2.8
					l-115.2,47.9c-2.6,0.1-3.6,3.2-2.2,7c1.4,3.8,4.5,6.7,7.1,6.7l112.7-47.8L392,348C392.7,349,393.6,349.7,394.4,350.2z"/>
			</g>
		</g>
		<g>
			<polygon class="st8" points="468.5,504.5 468.5,326.5 468.5,308.2 535.5,279.5 602.5,385.6 602.5,403.9 602.5,581.9 			"/>
			<polygon class="st9" points="770,487.9 770,291.5 602.5,385.5 602.5,581.9 			"/>
			<polygon class="st9" points="468.5,504.5 602.5,581.9 602.5,485.1 468.5,407.7 			"/>
			<polygon class="st10" points="602.5,581.9 770,487.9 770,391.1 602.5,485.1 			"/>
			<path class="st11" d="M773.7,291.2l-69.3-108.8c-0.9-1.1-2-1.7-3-1.7l-69.3,28.8c-0.6,0-1,0.3-1.3,0.8l-166.1,93.3l70.8-24
				l72.1,111.4l166.2-93.3c0.5,0,1-0.3,1.3-0.7C775.8,295.6,775.2,293,773.7,291.2z"/>
			<path class="st12" d="M704.8,183.1l-177.9,99.4l8.6-2.9l72.1,111.4l166.2-93.3c0.5,0,1-0.3,1.3-0.7c0.8-1.3,0.2-3.9-1.3-5.7
				L704.8,183.1z"/>
			<g>
				<path class="st7" d="M604.6,391.4c1.1,0.7,2.4,0.4,3-0.5c0.8-1.3,0-3.4-1.3-5.7L537,276.5c-0.9-1.1-2-1.7-3-1.7l-69.3,28.8
					c-1.4,0.7-2.3,2.3-1.5,4.6c0.8,2.3,2.7,3.9,4.4,3.6l67.8-28.7l67.8,107C603.9,390.7,604.1,391.1,604.6,391.4z"/>
			</g>
		</g>
		<g>
			<path class="st5" d="M244.7,241c0,20.9,14.7,46.3,32.8,56.8c6.1,3.5,9.5,7.9,14.2,6.3c11.8-4,18.6-11.4,18.6-25.3
				c0-20.9-14.7-46.3-32.8-56.8c-12.3-7.1-21.4-7.1-30.3,1.8C243.9,227.3,244.7,234.4,244.7,241z"/>
			<path class="st6" d="M240,243.4c0,20.9,14.7,46.3,32.8,56.8c18.1,10.5,32.8,2,32.8-18.9c0-20.9-14.7-46.3-32.8-56.8
				C254.7,214,240,222.5,240,243.4z"/>
			<path class="st13" d="M248.8,248.5c0,15.3,10.7,33.8,23.9,41.4c13.2,7.6,23.9,1.4,23.9-13.8s-10.7-33.8-23.9-41.4
				C259.5,227.1,248.8,233.3,248.8,248.5z"/>
		</g>
		<polygon class="st11" points="658.6,550.5 721.6,515.1 721.6,373.1 658.6,409.5 		"/>
		<g>
			<polygon class="st11" points="721.6,445.8 658.6,482.1 658.6,409.5 721.6,373.1 			"/>
			<polygon class="st13" points="715.4,442.3 664.8,471.5 664.8,413 715.4,383.7 			"/>
			<polygon class="st11" points="693.4,462.1 686.8,465.9 686.8,393.2 693.4,389.4 			"/>
			<polygon class="st11" points="658.6,449.6 658.6,442 721.6,405.7 721.6,413.2 			"/>
		</g>
		<g>
			<g>
				<polygon class="st8" points="552.9,169.7 552.9,102.3 518.3,82.2 518.3,115.3 				"/>
				<polygon class="st9" points="587.6,149.7 552.9,169.7 552.9,102.3 587.6,82.2 				"/>
			</g>
			<g>
				<polygon class="st8" points="596.1,64.6 552.9,39.7 509.8,64.6 552.9,89.5 				"/>
				<polygon class="st14" points="580.2,64.6 552.9,48.8 525.6,64.6 552.9,80.4 				"/>
				<polygon class="st9" points="552.9,80.4 580.2,64.6 552.9,48.8 				"/>
				<polygon class="st9" points="552.9,111.4 509.8,86.5 509.8,64.6 552.9,89.5 				"/>
				<polygon class="st14" points="596.1,86.5 552.9,111.4 552.9,89.5 596.1,64.6 				"/>
			</g>
		</g>
		<g>
			<polygon class="st6" points="494.5,445 560.1,482.9 560.1,407.2 494.5,369.3 			"/>
			<polygon class="st5" points="494.5,369.3 560.1,407.2 568.2,402.5 502.6,364.6 			"/>
			<polygon class="st7" points="568.2,402.5 560.1,407.2 560.1,482.9 568.2,478.2 			"/>
			<polygon class="st13" points="500.9,441.3 553.7,471.8 553.7,410.8 500.9,380.4 			"/>
			<polygon class="st6" points="505.7,451.5 512.6,455.5 512.6,379.7 505.7,375.8 			"/>
			<polygon class="st6" points="517.6,458.4 524.4,462.3 524.4,386.6 517.6,382.6 			"/>
			<polygon class="st6" points="529.5,465.3 536.3,469.2 536.3,393.4 529.5,389.5 			"/>
			<polygon class="st6" points="541.4,472.1 548.2,476.1 548.2,400.3 541.4,396.4 			"/>
		</g>
	</g>
	<g>
		<path class="st4" d="M521.9,628.4c-13.8,7.9-36.1,7.9-49.9,0c-13.8-7.9-13.8-20.8,0-28.8c13.8-7.9,36.1-7.9,49.9,0
			C535.7,607.6,535.7,620.5,521.9,628.4z"/>
		<path class="st15" d="M497,614.1L497,614.1c-5.3,0-9.6-4.3-9.6-9.6v-65.6c0-5.3,4.3-9.6,9.6-9.6l0,0c5.3,0,9.6,4.3,9.6,9.6v65.6
			C506.6,609.7,502.3,614.1,497,614.1z"/>
		<path class="st4" d="M497,606.5c-5.3,0-9.6-4.3-9.6-9.6v7.6c0,5.3,4.3,9.6,9.6,9.6c5.3,0,9.6-4.3,9.6-9.6v-7.6
			C506.6,602.1,502.3,606.5,497,606.5z"/>
		<path class="st4" d="M497,529.3c-5.3,0-9.6,4.3-9.6,9.6v27.3c3.1,0.7,6.3,1,9.6,1c3.3,0,6.5-0.4,9.6-1v-27.3
			C506.6,533.6,502.3,529.3,497,529.3z"/>
		<path class="st16" d="M543.6,509c0,25.8-20.9,46.6-46.6,46.6c-25.8,0-46.6-20.9-46.6-46.6s20.9-92.9,46.6-92.9
			C522.8,416.1,543.6,483.2,543.6,509z"/>
		<path class="st17" d="M487.1,469.3c-3.6,13.8-10.3,23.9-14.8,22.7c-4.6-1.2-5.3-13.3-1.7-27.1c3.6-13.8,10.3-23.9,14.8-22.7
			C490,443.4,490.7,455.6,487.1,469.3z"/>
	</g>
	<g>
		<path class="st4" d="M152.4,438.6c-14,8.1-36.8,8.1-50.8,0c-14-8.1-14-21.2,0-29.3c14-8.1,36.8-8.1,50.8,0
			C166.5,417.4,166.5,430.5,152.4,438.6z"/>
		
			<ellipse transform="matrix(0.2289 -0.9735 0.9735 0.2289 -279.1983 422.4219)" class="st16" cx="127" cy="387.4" rx="47.5" ry="47.5"/>
		<circle class="st17" cx="113.9" cy="374.3" r="18.8"/>
	</g>
	<g>
		<path class="st4" d="M875.9,438.6c-14,8.1-36.8,8.1-50.8,0c-14-8.1-14-21.2,0-29.3c14-8.1,36.8-8.1,50.8,0
			C890,417.4,890,430.5,875.9,438.6z"/>
		
			<ellipse transform="matrix(0.2289 -0.9735 0.9735 0.2289 278.715 1126.7341)" class="st16" cx="850.6" cy="387.4" rx="47.5" ry="47.5"/>
		<circle class="st17" cx="837.4" cy="374.3" r="18.8"/>
	</g>
	<polygon class="st4" points="863.8,545.2 863.8,502 684,605.8 589.3,660.5 589.3,703.7 	"/>
	<polygon class="st4" points="829.1,565.3 829.1,522.1 732.9,577.6 664.9,616.9 664.9,660.1 	"/>
</g>
</svg>
