<?xml version="1.0" encoding="utf-8"?>
<!-- Generator: Adobe Illustrator 24.0.2, SVG Export Plug-In . SVG Version: 6.00 Build 0)  -->
<svg version="1.1" id="Layer_1" xmlns="http://www.w3.org/2000/svg" xmlns:xlink="http://www.w3.org/1999/xlink" x="0px" y="0px"
	 viewBox="0 0 682 682" style="enable-background:new 0 0 682 682;" height="682" width="682" xml:space="preserve">
<style type="text/css">
	.st0{fill:#00699A;}
</style>
<g>
	<path class="st0" d="M79.3,145.3c0.5-0.3,1-0.7,1.4-1.2c0.9-1.2,1.7-2.3,2.6-3.4c1.5-1.9,1.2-4.7-0.8-6.2c-0.9-0.7-1.9-1-3-0.9
		c-0.1,0.5-0.1,0.9,0,1.6c-0.5,0.1-1-0.4-1.4-1.3c-0.7,0.3-1.4,0.7-1.9,1.4c-0.7,0.9-1.5,1.9-2.2,2.8c0.5-0.2,1.1-0.4,1.6-0.6
		C76.9,139.6,78.1,142.5,79.3,145.3z"/>
	<path class="st0" d="M27.9,447.7c-1.6,0.6-2.7,2.1-2.9,3.7c0.2,0.3,0.3,0.7,0.4,1.2c-0.1,0.1-0.2,0.1-0.4,0.2
		c0,0.2,0.1,0.4,0.2,0.6c0.5,1.4,1,2.8,1.5,4.2c0.9,2.3,3.4,3.4,5.7,2.6c0.1,0,0.2-0.1,0.3-0.1c2.1-0.9,3.1-3.4,2.3-5.6
		c-0.5-1.4-1-2.7-1.5-4.1C32.7,448,30.2,446.8,27.9,447.7z"/>
	<path class="st0" d="M9.8,392.6c0.4,2.4,2.6,4,5,3.7c0.4-0.1,0.8-0.2,1.1-0.3c1.8-0.8,2.9-2.7,2.6-4.7c-0.2-1.4-0.4-2.9-0.6-4.3
		c-0.3-2.4-2.6-4.1-5-3.7c-2.4,0.3-4.1,2.6-3.7,5C9.3,389.6,9.6,391.1,9.8,392.6z"/>
	<path class="st0" d="M41,480.3c2.2-1,3.1-3.8,2.2-6c-0.5-1.2-1.1-2.5-1.6-3.7c-1-2.2-3.6-3.3-5.8-2.3c0,0,0,0-0.1,0
		c-2.2,1-3.2,3.6-2.2,5.8c0.5,1.3,1.1,2.5,1.7,3.9l4.1-1.6l-4,1.8C36.2,480.4,38.8,481.3,41,480.3z M36.6,471.2
		c-0.7-2.6,1.2,0.5,1.6-0.6c0.3,0.8,0.6,1.7,0.9,2.5C38,474.9,37.7,469.4,36.6,471.2z"/>
	<path class="st0" d="M5.9,348c0,2.4,2.1,4.4,4.5,4.3c0.6,0,1.2-0.1,1.7-0.4c1.6-0.7,2.6-2.3,2.6-4.1c0-1.5-0.1-2.9-0.1-4.4
		c0-2.4-2-4.4-4.4-4.4c-2.4,0-4.4,2-4.4,4.4C5.8,345,5.8,346.5,5.9,348z"/>
	<path class="st0" d="M22.1,264.2c1.2-0.5,2.1-1.6,2.5-2.9c0.4-1.4,0.7-2.8,1.1-4.2c0.6-2.3-0.8-4.8-3.1-5.4
		c-2.4-0.6-4.8,0.8-5.4,3.1c-0.4,1.4-0.8,2.9-1.1,4.3c-0.2,0.8-0.2,1.5,0,2.3c1.3,0.6,2.6,1.8,3.4,3.1
		C20.4,264.7,21.3,264.6,22.1,264.2z"/>
	<path class="st0" d="M8,303.2c-0.3,2.4,1.5,4.6,3.9,4.9c0.8,0.1,1.6,0,2.3-0.4c1.4-0.6,2.4-1.9,2.6-3.5c0.2-1.4,0.3-2.9,0.5-4.3
		c0.3-2.4-1.4-4.6-3.8-4.9c-2.4-0.3-4.6,1.4-4.9,3.8C8.3,300.2,8.1,301.7,8,303.2z"/>
	<path class="st0" d="M6.4,321.1c-0.1,1.5-0.2,3-0.2,4.5c-0.1,2.4,1.8,4.5,4.2,4.6c0.7,0,1.4-0.1,2-0.4c0.9-0.4,1.7-1.2,2.1-2.1
		c0-0.8,0.1-1.4,0.4-1.5c-0.1,0.1-0.1,0.3-0.1,0.5c0.1-0.2,0.1-0.5,0.1-0.8c0.1-1.5,0.1-2.9,0.2-4.4c0.1-2.4-1.7-4.5-4.1-4.7
		C8.6,316.8,6.6,318.6,6.4,321.1z"/>
	<path class="st0" d="M11.8,374.4c0.5,0,1-0.2,1.4-0.4c1.7-0.7,2.8-2.5,2.6-4.4c-0.1-1.5-0.2-2.9-0.4-4.4c-0.2-2.4-2.3-4.2-4.7-4.1
		c-2.4,0.2-4.2,2.3-4.1,4.7c0.1,1.5,0.2,3,0.4,4.5C7.3,372.8,9.4,374.6,11.8,374.4z M9.5,371.9c1.5-0.5,3.1-1.9,4.3,1.3
		C12.3,373.4,10.6,375.6,9.5,371.9z"/>
	<path class="st0" d="M14.8,286.1c0.9,0.2,1.8,0,2.6-0.3c1.3-0.6,2.3-1.7,2.5-3.2c0.3-1.4,0.5-2.9,0.8-4.3c0.5-2.4-1.1-4.7-3.5-5.2
		c-2.4-0.5-4.7,1.1-5.2,3.5c-0.1,0.4-0.2,0.9-0.3,1.3c0.1-0.1,0.2-0.2,0.4-0.2c0.9,0.9,1.7,2.9,1.5,4.2c-0.8-0.4-1.6-0.7-2.2-2.2
		c-0.1,0.4-0.2,0.9-0.3,1.3C10.8,283.4,12.4,285.7,14.8,286.1z"/>
	<path class="st0" d="M19.3,417.9c0.3-0.1,0.6-0.2,0.8-0.3c1.9-0.8,3-2.9,2.5-5c-0.3-1.4-0.6-2.8-0.9-4.3c-0.5-2.4-2.8-3.9-5.2-3.4
		c-2.4,0.5-3.9,2.8-3.4,5.2c0.3,1.5,0.6,2.9,1,4.4C14.5,417,16.9,418.5,19.3,417.9z"/>
	<path class="st0" d="M141,82.9c0.3-0.1,0.6-0.3,0.9-0.5c1.2-0.9,2.3-1.8,3.5-2.6c1.9-1.5,2.3-4.2,0.9-6.2c-1.5-1.9-4.2-2.3-6.2-0.9
		c-1.2,0.9-2.4,1.8-3.6,2.7c-1.9,1.5-2.3,4.3-0.8,6.2C137,83.3,139.2,83.8,141,82.9z"/>
	<path class="st0" d="M123.9,97c0.4-0.2,0.8-0.4,1.1-0.7c1.1-1,2.2-1.9,3.3-2.9c1.8-1.6,2.1-4.4,0.5-6.2c-1.6-1.8-4.4-2.1-6.2-0.5
		c-0.9,0.8-1.8,1.5-2.6,2.3c0.7,0.1,1.4,1.2,1.9,3c-1,0.6-1.7-0.6-2.4-2.6c-0.1,0.1-0.2,0.2-0.3,0.2c-1.8,1.6-2,4.4-0.4,6.2
		C120.1,97.4,122.2,97.8,123.9,97z"/>
	<path class="st0" d="M158.9,70.1c0.2-0.1,0.4-0.2,0.6-0.4c1.2-0.8,2.4-1.6,3.6-2.4c2-1.3,2.6-4,1.3-6.1c-1.3-2-4-2.6-6.1-1.3
		c-1.3,0.8-2.5,1.6-3.8,2.5c-2,1.3-2.6,4.1-1.2,6.1C154.7,70.3,157,70.9,158.9,70.1z"/>
	<path class="st0" d="M92.9,128.3c0.6-0.3,1.1-0.6,1.5-1.1c0.9-1.1,1.9-2.2,2.9-3.3c1.6-1.8,1.4-4.6-0.4-6.2
		c-1.8-1.6-4.6-1.4-6.2,0.4c-1,1.1-2,2.2-2.9,3.3c-1.6,1.8-1.4,4.6,0.4,6.2C89.5,128.8,91.4,129,92.9,128.3z"/>
	<path class="st0" d="M103,111.3c1.3,1.3,3.3,1.6,4.9,0.9c0.5-0.2,0.9-0.5,1.3-0.9c1-1,2-2.1,3.1-3.1c1.7-1.7,1.8-4.5,0.1-6.2
		s-4.5-1.8-6.2-0.1c-1.1,1-2.1,2.1-3.2,3.2C101.2,106.8,101.2,109.5,103,111.3z M109.6,108.9c-1-0.5-1.8-2.8-2.9-2.8
		C106.6,102.9,109,107.2,109.6,108.9z"/>
	<path class="st0" d="M40.9,201.9c1.2,0.6,2.6,0.6,3.7,0c0.9-0.4,1.7-1.1,2.2-2.1c0.6-1.3,1.3-2.6,1.9-3.9c1.1-2.2,0.2-4.8-2-5.9
		c-2.2-1.1-4.8-0.2-5.9,2c-0.7,1.3-1.3,2.7-2,4C37.8,198.2,38.7,200.9,40.9,201.9z"/>
	<path class="st0" d="M177.7,58.4c0.1-0.1,0.3-0.1,0.4-0.2c1.3-0.7,2.5-1.4,3.8-2.2c2.1-1.2,2.9-3.9,1.7-6c-1.2-2.1-3.9-2.9-6-1.7
		c-1.3,0.7-2.6,1.5-3.9,2.2c-2.1,1.2-2.8,3.9-1.6,6C173.2,58.6,175.7,59.3,177.7,58.4z"/>
	<path class="st0" d="M28.2,243c1.1-0.5,2-1.4,2.4-2.7c0.4-1.4,0.9-2.8,1.4-4.1c0.2-0.5,0.2-1,0.2-1.5c-0.4-0.5-1-1.3-1.2-0.9
		c-0.5-2.3,0.5-0.6,1.1,0.1c-0.3-1.5-1.3-2.8-2.9-3.3c-2.3-0.8-4.8,0.4-5.6,2.8c-0.5,1.4-0.9,2.8-1.4,4.3c-0.7,2.3,0.5,4.8,2.8,5.6
		C26.1,243.5,27.3,243.4,28.2,243z"/>
	<path class="st0" d="M35.7,222.2c1-0.5,1.8-1.3,2.3-2.4c0.5-1.3,1.1-2.7,1.6-4c0.9-2.2-0.1-4.8-2.4-5.8c-2.2-0.9-4.8,0.1-5.8,2.4
		c-0.6,1.4-1.1,2.8-1.7,4.1c-0.9,2.3,0.2,4.8,2.4,5.7C33.5,222.7,34.7,222.7,35.7,222.2z"/>
	<path class="st0" d="M50.9,182.2c1.3,0.7,2.7,0.7,4,0.2c0.8-0.4,1.6-1,2-1.9c0.7-1.3,1.4-2.5,2.2-3.8c1.2-2.1,0.5-4.8-1.6-6
		c-2.1-1.2-4.8-0.5-6,1.6c-0.7,1.3-1.5,2.6-2.2,3.9C48,178.3,48.7,181,50.9,182.2z"/>
	<path class="st0" d="M66.3,163.5c0.7-0.3,1.4-0.9,1.9-1.6c0.8-1.2,1.6-2.4,2.4-3.6c1.4-2,0.8-4.8-1.2-6.1c-2-1.4-4.8-0.8-6.1,1.2
		c-0.8,1.2-1.7,2.5-2.5,3.7c-1.3,2-0.8,4.8,1.3,6.1C63.4,164,65,164.1,66.3,163.5z"/>
	<path class="st0" d="M21.4,426.5c-2.4,0.6-3.7,3.1-3,5.4"/>
	<path class="st0" d="M563.5,94.6c0.8,1.6-0.2,3.5-1.7,3.1c-0.1-0.2-0.1-0.4-0.2-0.6c-0.4,1.5,0,3.3,1.2,4.4c1.1,1,2.1,2,3.2,3
		c0.9,0.9,2.1,1.2,3.3,1.2c-1.1-3.5-1-7.5,0.2-8.9c1.8,2.4,1.9,5.3,2.2,8.1c0.2-0.1,0.4-0.3,0.6-0.5c1.7-1.8,1.6-4.5-0.2-6.2
		c-1.1-1-2.2-2-3.3-3.1C567.3,93.7,565.1,93.6,563.5,94.6z"/>
	<path class="st0" d="M546.4,87.3c1.1,0.9,2.2,1.8,3.4,2.8c1.3,1.1,3.1,1.3,4.6,0.6c0.6-0.3,1.1-0.7,1.6-1.2
		c1.6-1.9,1.3-4.6-0.6-6.2c-1.1-1-2.3-1.9-3.5-2.8c-1.9-1.5-4.7-1.2-6.2,0.7C544.2,83,544.5,85.8,546.4,87.3z"/>
	<path class="st0" d="M529,74.2c1.2,0.8,2.4,1.7,3.5,2.5c1.3,1,3,1.1,4.4,0.5c0.7-0.3,1.3-0.8,1.8-1.4c1.4-2,1-4.7-1-6.2
		c-1.2-0.9-2.4-1.7-3.6-2.6c-2-1.4-4.7-0.9-6.1,1.1C526.5,70.1,527,72.8,529,74.2z"/>
	<path class="st0" d="M495.6,53.6c1.3,0.7,2.7,0.7,3.9,0.1c0.9-0.4,1.6-1,2.1-1.9c1.2-2.1,0.3-4.8-1.8-6c-1.3-0.7-2.6-1.4-3.9-2.1
		c-2.2-1.1-4.8-0.3-5.9,1.9c-1.1,2.2-0.3,4.8,1.9,5.9C493.1,52.3,494.3,52.9,495.6,53.6z"/>
	<path class="st0" d="M472.1,42.2c1.3,0.6,2.7,1.2,4,1.8c1.2,0.5,2.5,0.5,3.6,0c0.9-0.4,1.7-1.2,2.2-2.2c1-2.2,0-4.8-2.2-5.8
		c-1.4-0.6-2.7-1.2-4.1-1.8c-2.2-1-4.8,0-5.8,2.3C468.9,38.6,469.9,41.2,472.1,42.2z"/>
	<path class="st0" d="M455.9,35.6c1.1,0.4,2.3,0.4,3.4-0.1c1-0.5,1.9-1.3,2.3-2.5c0.9-2.3-0.3-4.8-2.6-5.7c-1.4-0.5-2.8-1-4.2-1.6
		c-2.3-0.8-4.8,0.4-5.6,2.6c-0.8,2.3,0.4,4.8,2.6,5.6C453.2,34.6,454.6,35.1,455.9,35.6z"/>
	<path class="st0" d="M629,187.5c0.7,1.3,1.4,2.6,2,3.9c1.1,2.1,3.6,3,5.7,2c0.1,0,0.1-0.1,0.2-0.1c2.2-1.1,3-3.8,1.9-5.9
		c-0.7-1.3-1.4-2.7-2.1-4c-1.1-2.1-3.7-3-6-1.8C628.7,182.7,627.8,185.4,629,187.5z"/>
	<path class="st0" d="M619.5,162.6c-2.1,1.3-2.7,4-1.4,6.1c0.8,1.2,1.5,2.5,2.3,3.7c1.2,1.9,3.6,2.6,5.6,1.8
		c0.2-0.1,0.3-0.2,0.5-0.2c2.1-1.3,2.8-4,1.5-6c-0.8-1.3-1.6-2.6-2.3-3.8C624.3,161.9,621.6,161.3,619.5,162.6z"/>
	<path class="st0" d="M607,144.3c-2,1.4-2.4,4.2-1,6.1c0.8,1.2,1.7,2.4,2.5,3.6c1.2,1.8,3.5,2.4,5.4,1.5c0.2-0.1,0.5-0.2,0.7-0.4
		c2-1.4,2.5-4.1,1.1-6.1c-0.9-1.2-1.7-2.4-2.6-3.7C611.8,143.4,609,143,607,144.3z"/>
	<path class="st0" d="M578.3,116.9c1,1.1,2,2.1,3,3.2c1.3,1.4,3.4,1.8,5,1c0.4-0.2,0.7-0.4,1.1-0.7c-1.2-0.5,0.1-1.8-0.2-2.6
		c1.3,0,0.1,1.3,0.4,2.4c1.7-1.7,1.8-4.4,0.2-6.1c-1-1.1-2-2.2-3.1-3.3c-1.7-1.8-4.5-1.8-6.2-0.2
		C576.7,112.3,576.6,115.1,578.3,116.9z M580.1,112.8c0.4-0.2,0.8-0.3,1.2-0.4c0.3,1.1-0.2,1.6,0.1,2.8c-0.3,0.3-0.5-0.2-0.7-0.7
		C580.5,113.9,580.3,113.4,580.1,112.8z"/>
	<path class="st0" d="M592.7,133.2c0.9,1.1,1.8,2.2,2.7,3.4c1.2,1.5,3.3,2,5,1.3c-0.5-0.5-0.9-1.4-1.3-2.7c0.4-0.2,0.8-0.3,1.3-0.5
		c0.6,1.3,0.6,2,0.7,2.8c0.2-0.1,0.4-0.2,0.5-0.3c1.9-1.5,2.2-4.3,0.7-6.2c-0.9-1.2-1.9-2.3-2.8-3.5c-1.5-1.9-4.3-2.1-6.2-0.6
		C591.4,128.6,591.2,131.3,592.7,133.2z"/>
	<path class="st0" d="M416.1,14.4c-1.4-0.3-2.8-0.6-4.2-0.9c-2.4-0.5-4.7,1-5.2,3.4c-0.5,2.4,1,4.7,3.4,5.2c1.4,0.3,2.8,0.6,4.3,1
		c1,0.2,1.9,0.1,2.8-0.3c1.2-0.5,2.2-1.6,2.5-3c0.4-1.8-0.4-3.7-1.9-4.6c0.2,0.5,0.2,1.1,0.2,1.5C417.1,16.7,416.6,15.8,416.1,14.4z
		"/>
	<path class="st0" d="M258.6,25.2c1.4-0.4,2.8-0.7,4.2-1.1c0.3-0.1,0.5-0.2,0.7-0.3c1.9-0.9,3-3,2.5-5.1c-0.6-2.4-3-3.8-5.3-3.2
		c-1.5,0.4-2.9,0.7-4.3,1.1c-2.4,0.6-3.8,3-3.1,5.4C253.8,24.4,256.2,25.8,258.6,25.2z"/>
	<path class="st0" d="M301.4,17c1.5-0.2,2.9-0.3,4.4-0.5c0.5-0.1,0.9-0.2,1.3-0.4c1.7-0.8,2.8-2.6,2.6-4.5c-0.3-2.4-2.4-4.2-4.9-3.9
		c-1.5,0.2-3,0.3-4.5,0.5c-2.4,0.3-4.1,2.5-3.8,4.9C296.8,15.6,299,17.3,301.4,17z"/>
	<path class="st0" d="M274.7,16.9c0.5,2.4,2.8,4,5.2,3.5c1.4-0.3,2.9-0.5,4.3-0.8c0.4-0.1,0.7-0.2,1-0.3c1.8-0.8,2.9-2.8,2.5-4.8
		c-0.4-2.4-2.7-4-5.1-3.6c-1.5,0.3-2.9,0.5-4.4,0.8C275.8,12.2,274.2,14.5,274.7,16.9z"/>
	<path class="st0" d="M217.2,39.1c1.4-0.6,2.7-1.1,4.1-1.6c0.1,0,0.1,0,0.2-0.1c2.1-1,3.2-3.4,2.3-5.6c-0.9-2.3-3.5-3.4-5.7-2.5
		c-1.4,0.5-2.8,1.1-4.1,1.7c-2.4,0.9-3.3,3.5-2.4,5.7C212.4,38.9,215,40,217.2,39.1z"/>
	<path class="st0" d="M237.7,31.4c1.4-0.5,2.8-0.9,4.1-1.4c0.2-0.1,0.3-0.1,0.5-0.2c2-0.9,3.1-3.2,2.4-5.4c-0.7-2.3-3.2-3.6-5.5-2.9
		c-1.4,0.5-2.8,0.9-4.3,1.4c-2.3,0.8-3.5,3.3-2.8,5.6C232.9,31,235.4,32.2,237.7,31.4z"/>
	<path class="st0" d="M345,14.6c1.5,0,2.9,0,4.4,0.1c0.7,0,1.3-0.1,1.9-0.4c1.5-0.7,2.6-2.1,2.6-3.9c0.1-2.4-1.8-4.5-4.3-4.5
		c-1.5,0-3-0.1-4.5-0.1c-2.4,0-4.4,1.9-4.5,4.4C340.6,12.6,342.6,14.6,345,14.6z"/>
	<path class="st0" d="M318.5,10.9c0.1,2.4,2.2,4.3,4.6,4.2c1.5-0.1,2.9-0.2,4.4-0.2c0.6,0,1.1-0.2,1.6-0.4c1.6-0.7,2.7-2.3,2.6-4.2
		c-0.1-2.4-2.1-4.3-4.6-4.2c-1.5,0.1-3,0.1-4.5,0.2C320.2,6.4,318.4,8.5,318.5,10.9z M328.3,10.5c1.1,3.1,0.2,2.4-1.1,2.3
		C326.2,9.7,327.1,10.5,328.3,10.5z"/>
	<path class="st0" d="M384.8,13.1c-0.4,2.4,1.3,4.6,3.7,5c1.1,0.2,2.1,0.3,3.2,0.5c0,0,0,0,0,0c0.6-1.9,0.4-5.6,2.7-2.9
		c0.4,1.5-0.2,1.9-0.1,3.1c0.4-0.1,0.7-0.2,1.1-0.3c1.3-0.6,2.3-1.8,2.6-3.3c0.4-2.4-1.2-4.7-3.6-5.1c-1.5-0.2-3-0.5-4.4-0.7
		C387.4,9.1,385.1,10.7,384.8,13.1z"/>
	<path class="st0" d="M197.2,48.1c0,0,0.1,0,0.1-0.1c1.3-0.6,2.6-1.3,3.9-1.9c2.2-1,3.1-3.7,2.1-5.9c-1-2.2-3.7-3.2-5.9-2.1
		c-1.4,0.6-2.7,1.3-4,1.9c-2.2,1.1-3.1,3.7-2,5.9C192.5,48.1,195.1,49,197.2,48.1z"/>
	<path class="st0" d="M431.1,27.4c1.4,0.4,2.8,0.8,4.2,1.2c1.1,0.3,2.1,0.2,3.1-0.2c1.1-0.5,2-1.5,2.4-2.8c0.7-2.3-0.6-4.8-2.9-5.5
		c-1.4-0.4-2.9-0.9-4.3-1.3c-2.3-0.7-4.8,0.7-5.4,3C427.4,24.3,428.8,26.7,431.1,27.4z"/>
	<path class="st0" d="M366.8,15.7c1.5,0.1,2.9,0.2,4.4,0.4c0.8,0.1,1.5-0.1,2.2-0.4c1.4-0.6,2.4-2,2.6-3.6c0.2-2.4-1.6-4.6-4-4.8
		c-1.5-0.1-3-0.3-4.5-0.4c-2.4-0.2-4.5,1.6-4.7,4C362.6,13.3,364.4,15.5,366.8,15.7z"/>
	<path class="st0" d="M152.8,607.6c-1.2-0.8-2.4-1.7-3.5-2.5c-2-1.4-4.7-1-6.1,1c-1.4,2-1,4.7,1,6.2c1.2,0.9,2.4,1.7,3.6,2.6
		c1.3,0.9,3,1,4.3,0.4c0.4-0.2,0.7-0.4,1.1-0.7c-0.2-0.4-0.5-0.8-0.7-1.5c0.7-0.7,1.3-0.3,1.9-0.1
		C155.1,611,154.5,608.8,152.8,607.6z"/>
	<path class="st0" d="M613.4,524.4c-0.4,1.3-2.1,0.3-2.3,2.7c-0.5-1.4,0.4-1.5,0-2.8c-1.1,2-0.5,4.5,1.4,5.7c1.3,0.9,2.9,1,4.3,0.4
		c0.7-0.3,1.4-0.8,1.8-1.6c0.8-1.2,1.7-2.5,2.5-3.7c1.3-2,0.8-4.8-1.3-6.1c-2-1.3-4.8-0.8-6.1,1.3c-0.5,0.7-1,1.5-1.5,2.2
		C612.5,523.6,612.9,524.5,613.4,524.4z"/>
	<path class="st0" d="M631,500.1c-1-0.6-2.1-0.7-3.1-0.4c0.3,0.7,0.5,1,0.9,1.1c0.5,3.3-1.3-1.7-2-0.2c0-0.2,0.1-0.3,0.1-0.5
		c-0.7,0.4-1.4,1-1.8,1.8c-0.7,1.3-1.4,2.5-2.2,3.8c-1.2,2.1-0.5,4.8,1.6,6c1.3,0.7,2.8,0.8,4,0.2c0.8-0.4,1.5-1,2-1.8
		c0.8-1.3,1.5-2.6,2.2-3.9c0.1-0.1,0.1-0.2,0.1-0.3c-0.6-0.2-1.1-1.2-1.7-1.1c-0.3-1,0.5-1,0.9-1.3c0.3,0.8,0.6,1.5,0.8,2.3
		C633.7,503.6,632.9,501.2,631,500.1z"/>
	<path class="st0" d="M652.7,451.7c0.2,0.1,0.3,0.1,0.5,0.1c0.4-0.4,1.4-0.2,1.8-0.6c0,0.3,0,0.5-0.1,0.7c0.4-0.1,0.7-0.2,1.1-0.3
		c1.1-0.5,2-1.4,2.4-2.6c0.5-1.4,1-2.8,1.4-4.2c0.1-0.4,0.2-0.8,0.2-1.2c-0.2-0.3-0.3-0.7-0.5-1.1c-0.5-0.6-0.9-1.1-1.2-1.5
		c-0.2-0.1-0.3-0.1-0.6-0.2c0-0.3,0-0.4,0-0.6c-0.1-0.1-0.2-0.3-0.3-0.4c0,0.1,0,0.1,0,0.1l-0.3,0.6l-0.6-0.3
		c-0.8-1.4-2,0.8-2.7-0.9c-1.1,0.5-2.1,1.4-2.5,2.7c-0.5,1.4-0.9,2.8-1.4,4.1C649.1,448.4,650.4,450.9,652.7,451.7z"/>
	<path class="st0" d="M641,480.4c-2.1-1-4.7-0.2-5.8,1.9c0.3-0.1,0.6-0.1,0.8-0.3c0.6,1.5,0.3,2.1-0.6,2.1l0.7,1.2l-0.8-0.2
		c1,4.5,2.6,3.1,3.8,5.2l0.7,1.1l0.1,0.3c0.5-0.4,1-0.9,1.3-1.5c0.7-1.3,1.3-2.7,2-4C644.1,484.1,643.1,481.4,641,480.4z"/>
	<path class="st0" d="M652.3,464.6c-0.4-0.2-0.8-0.5-1.2-0.6c0.2-0.6,0.5-1.1,0.9-1.6c-0.4-1.1-1.3-2-2.4-2.4
		c-2.3-0.9-4.8,0.2-5.7,2.4c-0.5,1.3-1.1,2.7-1.6,4c-0.9,2.2,0.1,4.8,2.4,5.8c1.2,0.5,2.4,0.4,3.5,0c1-0.4,1.8-1.2,2.3-2.3
		c0.6-1.4,1.1-2.8,1.7-4.1C652.2,465.4,652.3,465,652.3,464.6z M649.6,466.4c-1.5-0.3-0.9-1.1-1.6-3.2
		C649,463.1,649.8,465.1,649.6,466.4z"/>
	<path class="st0" d="M606.5,539.3c-0.6-1.5,0.2-1.5,0.4-2.2c-1.9-1.2-4.5-0.8-5.8,1c-0.9,1.2-1.8,2.3-2.7,3.5
		c-1.5,1.9-1.1,4.7,0.8,6.2c1.3,1,3.1,1.2,4.5,0.5c0.5-0.2,1-0.6,1.4-1.1c-0.8-1-1.5-2.4-2.2-3.8c1.4-1.4,2.2-1.5,4-0.5
		c0.2,0.6,0.4,1.1,0.4,1.5c0.3-0.3,0.5-0.7,0.8-1c0.6-0.9,0.9-1.9,0.9-2.9C608.2,540.1,607.2,538.9,606.5,539.3z"/>
	<path class="st0" d="M546.8,604.5c0.4-1.3,0.2-2.8-0.7-3.9c-1.5-1.9-4.3-2.3-6.2-0.8l-3.5,2.6c-1.9,1.5-2.3,4.2-0.9,6.2
		c0.9,1.3,2.4,1.9,3.9,1.7l-0.1-0.3l0.1,0.3c0.3,0,0.7-0.1,1-0.2l-0.5-0.7l-0.1-0.9c-0.1-0.3-0.2-0.6-0.3-0.8
		c-0.2-0.6-0.4-1.1-0.6-1.7c0.4-0.2,0.8-0.3,1.3-0.5c0.3,0.8,0.6,1.7,0.9,2.5l0.7,1.2l-0.3,0.4c0,0,0.1,0,0.1-0.1l3.1-2.3
		c-0.4-1.7-0.5-3.3-0.2-4.2C545.4,602.3,546.1,603.3,546.8,604.5z"/>
	<path class="st0" d="M593.6,554.6c-1.8-1.6-4.6-1.4-6.2,0.4c-0.9,1.1-1.9,2.2-2.9,3.3c-1.6,1.8-1.5,4.6,0.4,6.2
		c1.3,1.2,3.2,1.4,4.7,0.7c0.6-0.2,1.1-0.6,1.5-1.1c1-1.1,2-2.2,2.9-3.4C595.6,559,595.4,556.2,593.6,554.6z"/>
	<path class="st0" d="M527.2,616c-1.6-1.2-0.8-3.2,0.9-1.3l0.8,0.6c-0.1-0.6-0.3-1.1-0.7-1.6c-1.3-2-4.1-2.5-6.1-1.2
		c-1.2,0.8-2.4,1.6-3.6,2.4c-2,1.3-2.6,4-1.3,6.1c1.2,1.9,3.5,2.5,5.5,1.6c0.2-0.1,0.4-0.2,0.6-0.3c1.3-0.8,2.5-1.6,3.8-2.5
		c1.1-0.7,1.8-1.9,1.9-3.1l-0.5-0.4C528.5,616.3,528.1,614.7,527.2,616z M524.1,618c-0.3,0.1-0.6,0.2-0.8,0.3
		c-0.2-0.5-0.4-1.1-0.6-1.7c0.3-0.1,0.6-0.2,0.8-0.3C523.7,616.9,523.9,617.5,524.1,618z"/>
	<path class="st0" d="M578.8,571c-0.7-0.7-1.7-1.1-2.7-1.2c-0.2,0.3-0.4,0.6-0.6,0.9l0,1.4l-0.9-0.1c0.1,0.3,0.2,0.6,0.3,0.8
		l0.8,0.2l0.2,1.3c1.3,0,2.5,1.1,3.7,1.7C580.5,574.3,580.2,572.3,578.8,571z"/>
	<path class="st0" d="M576.6,576l0.3,1.3l-0.8-0.2c-0.4,0.3-0.3,1.2-0.2,1.9c-1.6-0.3-0.4-2.4-0.1-2.8l-0.2-1.3l-0.3-1.3
		c-0.8-1.2-1.7-0.8-2.4-2.8c-0.1,0.1-0.2,0.1-0.3,0.2c-0.8,0.8-1.5,1.5-2.3,2.3c-0.1,0.2-0.2,0.3-0.5,0.5c-0.1,0.1-0.2,0.2-0.4,0.3
		c-1.7,1.7-1.8,4.5,0,6.2c1.3,1.3,3.3,1.7,4.9,0.9c0.5-0.2,0.9-0.5,1.3-0.9c1.1-1,2.1-2.1,3.2-3.1c0.1-0.1,0.2-0.2,0.3-0.4
		C578.3,576.9,577.3,577.2,576.6,576z"/>
	<path class="st0" d="M560.7,593.7l-0.7-1.2c-0.3,0.3-0.8,0.3-0.5,1.2c-0.6,0.2-0.9-1.3-1.5-1.4c-0.3-1,0.3-1.1,0.9-1.3l-0.7-1.2
		l0.8,0.2c-0.6-1.5-0.3-2.1,0.6-2.1l-0.2-1.3l0.8,0.2c-0.1-0.7-0.2-1.2-0.2-1.8c-1.2-0.1-2.4,0.2-3.3,1.1c-1.1,1-2.2,1.9-3.3,2.9
		c-0.1,0.1-0.2,0.2-0.2,0.2c0.1,0.2,0.3,0.2,0.4,0.1c0.3,1-0.5,1-0.9,1.3c-0.1-0.2-0.1-0.3-0.2-0.5c-0.9,1.6-0.8,3.6,0.5,5.1
		c1.3,1.5,3.4,1.9,5.1,1.2c0.4-0.2,0.7-0.4,1.1-0.7c0.8-0.7,1.5-1.3,2.3-2c-0.1-0.1-0.2-0.3-0.3-0.5L560.7,593.7z"/>
	<path class="st0" d="M646.4,214C646.4,214,646.4,214,646.4,214c2.3-1,3.3-3.6,2.3-5.8c-0.6-1.4-1.2-2.7-1.8-4.2l-0.2-0.5
		c-1-2.2-3.6-3.2-5.8-2.2c-2.2,1-3.2,3.6-2.2,5.8l0.3,0.6c0.6,1.3,1.2,2.7,1.8,4C641.6,213.9,644.2,215,646.4,214z"/>
	<path class="st0" d="M663.7,250.4c-0.4-1.4-0.8-2.9-1.3-4.3c-0.4-1.3-1.3-2.3-2.5-2.8c-0.2,0.1-0.4,0-0.6-0.2
		c-0.8-0.2-1.6-0.2-2.4,0c-1.4,0.4-2.5,1.5-2.9,2.9c0.2,0.1,0.3,0.2,0.5,0.1c0.2,0.6,0.4,1.1,0.6,1.7c-0.5,0.4-0.9-0.2-1.3-0.4
		c0,0.4,0,0.8,0.2,1.2c0.4,1.4,0.8,2.8,1.2,4.2c0.7,2.3,3.1,3.7,5.4,3.1c0.2-0.1,0.4-0.1,0.6-0.2
		C663.2,254.7,664.3,252.5,663.7,250.4z M659.9,247.9c1-0.7,1.8,0.6,2.5,2.9C661.5,250.3,660.5,250.7,659.9,247.9z"/>
	<path class="st0" d="M50.8,500.3c0.1,0,0.2-0.1,0.3-0.1c2.1-1.1,3-3.8,1.8-6c-0.7-1.3-1.4-2.6-2-3.9c-1.1-2.2-3.8-3-5.9-1.9
		c-0.4,0.2-0.7,0.5-1,0.8c0.1,0.7-0.2,1.3-1.1,1.6c0,0,0,0,0,0c-0.4,1.1-0.4,2.4,0.2,3.6c0.7,1.3,1.4,2.7,2.1,4
		C46.2,500.4,48.7,501.2,50.8,500.3z"/>
	<path class="st0" d="M669.2,299.1c0.4-0.1,0.8-0.2,1.2-0.3c1.7-0.8,2.8-2.6,2.6-4.6c-0.2-1.5-0.4-2.9-0.7-4.4
		c-0.4-2.4-2.6-4.1-5-3.7c-2.4,0.4-4.1,2.6-3.7,5c0.2,1.4,0.4,2.9,0.6,4.3C664.5,297.8,666.8,299.5,669.2,299.1z"/>
	<path class="st0" d="M507.5,628c0.6-0.5,1.5,0.7,1,1.5c0.3,0.3,0.6,0.5,0.9,0.7c0.8-1.1,1-2.6,0.5-3.9c-0.5-0.4-1-1-1.4-2
		c-1.4-1.1-3.3-1.3-5-0.4c-1.3,0.7-2.5,1.4-3.8,2.1c-1.1,0.6-1.8,1.6-2.1,2.7c1.7,2.9,3.5,4.5,5.3,5.4c0.2-0.1,0.5-0.1,0.7-0.2
		c0.1-0.1,0.2-0.1,0.3-0.2c1.3-0.7,2.6-1.5,3.9-2.2c0.4-0.2,0.7-0.5,0.9-0.8C508.4,630.1,507.9,629.6,507.5,628z"/>
	<path class="st0" d="M648.6,232c0.8,2.3,3.3,3.5,5.6,2.7c0.1,0,0.2-0.1,0.3-0.1c2.1-0.9,3.1-3.3,2.3-5.5c-0.5-1.4-1-2.8-1.5-4.2
		c-0.8-2.3-3.4-3.5-5.7-2.6c-2.3,1-3.4,3.4-2.6,5.7C647.6,229.2,648.1,230.6,648.6,232z"/>
	<path class="st0" d="M667.3,334.5c0,1.5,0,2.9,0.1,4.4c0,2.4,2,4.4,4.4,4.4c0.6,0,1.2-0.1,1.8-0.4c1.5-0.7,2.6-2.3,2.6-4.1
		c0-1.3,0-2.7-0.1-4l0,0l-0.4-1.5c-0.7,0.2-0.8,1-0.6,2.1c-1.4-0.9-0.4-2.5-0.4-4.2c-0.8-0.8-1.9-1.2-3.1-1.2
		c-0.9,0-1.7,0.3-2.3,0.7l0.2,1c0.1-0.1,0.3-0.1,0.4-0.2c1.8,2.9-0.5,2,0.7,4.5c-0.9,0.7-1.5-1.2-2.4-0.1c-1.1-3.4,2.7,0.5,0.8-4.1
		l-0.6-0.5C667.8,332.3,667.3,333.4,667.3,334.5z"/>
	<path class="st0" d="M673.5,383.6c0.2-1.5,0.4-3,0.5-4.5c0.3-2.4-1.5-4.6-3.9-4.9c-2.4-0.3-4.6,1.5-4.9,3.9
		c-0.2,1.5-0.3,2.9-0.5,4.3c-0.3,2.4,1.4,4.6,3.8,4.9c0.8,0.1,1.6,0,2.4-0.3c0.2-0.1,0.3-0.2,0.5-0.3c0-0.5,0.1-0.8,0.6-0.7
		c0,0.1,0.1,0.1,0.1,0.2C672.8,385.6,673.3,384.7,673.5,383.6z"/>
	<path class="st0" d="M668.5,399.7c0.4,0.6,1.3,1.4,2.1,2.3c0-0.2,0.1-0.4,0.1-0.6c0.4-2.4-1.1-4.7-3.5-5.1
		c-2.4-0.4-4.7,1.1-5.1,3.5c-0.3,1.4-0.5,2.9-0.8,4.3c-0.5,2.4,1.1,4.7,3.5,5.2c0.9,0.2,1.8,0.1,2.6-0.3c1.3-0.6,2.2-1.7,2.5-3.2
		c0.1-0.7,0.3-1.4,0.4-2.1C669,402.1,667.6,400.9,668.5,399.7z M667.1,404.9c-1.1,0.1-1.8-1.9-1.6-3.2
		C666.5,401.6,667.3,403.6,667.1,404.9z"/>
	<path class="st0" d="M659.2,430.6c-0.5-0.6-1-1.4-1.4-2.3c0.2-2.2,1.6,0.6,2.8-0.1c0.3,1.2,0.6,1.9,1,2.5c0.3-0.1,0.5-0.1,0.8-0.3
		c1.2-0.5,2.1-1.5,2.5-2.9c0.4-1.4,0.8-2.9,1.1-4.3c0.6-2.4-0.8-4.8-3.2-5.4c-2.4-0.6-4.8,0.8-5.4,3.2c-0.4,1.4-0.7,2.8-1.1,4.2
		C655.6,427.6,657,429.9,659.2,430.6z"/>
	<path class="st0" d="M666.2,312.7c0.1,1.5,0.2,2.9,0.3,4.4c0.2,2.4,2.3,4.2,4.7,4.1c0.4,0,0.8-0.1,1.2-0.3
		c-0.2-0.2-0.3-0.4-0.5-0.4c0.9-2.1-0.7-2-2-3.1l0.2,1.3l-0.8-0.2c0.3,3.1-2.7-1.5-2.1-3c0.7,0,1.2,1.1,1.9,1.2l-0.3-1.3l0.8,0.2
		c2-0.1,2.2-1.9,2.4-3.7c1.9,2.5-0.1,5.1,0.9,8.8c1.5-0.8,2.5-2.4,2.3-4.2c-0.1-1.5-0.2-3-0.4-4.5c-0.2-2.4-2.3-4.2-4.8-4
		C667.8,308.2,666,310.3,666.2,312.7z M668.4,309.4c1,3-1.1,0.3-0.6,2.1C666.1,311.1,667.3,309,668.4,309.4z"/>
	<path class="st0" d="M667,356.4c-0.1,1.5-0.1,2.9-0.2,4.4c-0.2,2.4,1.7,4.5,4.1,4.7c0.7,0,1.4-0.1,2.1-0.4c1.4-0.6,2.5-2.1,2.6-3.7
		c0-0.8,0.1-1.5,0.1-2.3c-0.9,1.1-1.5-0.8-2.4-0.1c-0.3-0.8,0-1.1-0.2-1.8l-0.2-1.3l-0.3-1.3c-0.3,0-0.5,0.1-0.7-0.7l-0.5,0.6
		l-0.3-1.3c-0.4-0.1-0.8,0.3-1.1-0.5c-0.1,0-0.1,0-0.1-0.1C668.3,353,667.1,354.6,667,356.4z M668.4,363.6c0.1,0,0.4-0.2,0.4-0.2
		C670.7,367.3,664.7,360.4,668.4,363.6z"/>
	<path class="st0" d="M665.6,277.3c0.3-0.1,0.6-0.2,0.9-0.3c1.8-0.8,2.9-2.9,2.5-4.9c-0.3-1.5-0.6-2.9-1-4.4
		c-0.5-2.4-2.9-3.9-5.3-3.3c-2.4,0.5-3.9,2.9-3.3,5.3c0.3,1.4,0.6,2.8,0.9,4.3C660.9,276.3,663.2,277.8,665.6,277.3z"/>
	<path class="st0" d="M181.9,636c1.3,0.7,2.6,1.4,4,2.1c1.2,0.6,2.7,0.6,3.8,0.1c0.9-0.4,1.6-1.1,2.1-2c1.1-2.2,0.3-4.8-1.9-5.9
		c-1.3-0.7-2.6-1.3-3.8-2c-1.7-0.9-3.7-0.6-5,0.6c0.2,0.2,0.4,0.2,0.7,0c0.4,1.4-0.6,1.4-1.3,0.7c-0.1,0.1-0.2,0.3-0.3,0.4
		C179,632.2,179.8,634.8,181.9,636z"/>
	<path class="st0" d="M161.2,618.7c-1.3,2.1-0.7,4.8,1.4,6.1c1.3,0.8,2.5,1.6,3.8,2.4c1.3,0.8,2.8,0.8,4.1,0.3
		c0.8-0.4,1.5-0.9,2-1.7c1.3-2.1,0.6-4.8-1.5-6.1c-1.2-0.8-2.5-1.5-3.7-2.3C165.2,616,162.5,616.6,161.2,618.7z M165.6,623.4
		c-0.6-0.2-1.2-0.8-1.8-2.2C164.6,620.5,165.1,622.1,165.6,623.4z"/>
	<path class="st0" d="M225.7,646.3c-2.3-0.9-4.8,0.3-5.7,2.6c-0.9,2.3,0.3,4.8,2.6,5.7c1.4,0.5,2.8,1,4.2,1.6
		c1.1,0.4,2.3,0.3,3.3-0.1c1.1-0.5,1.9-1.4,2.3-2.5c0.8-2.3-0.4-4.8-2.6-5.6C228.5,647.3,227.1,646.8,225.7,646.3z"/>
	<path class="st0" d="M251.2,662.8c1.1-0.5,2.1-1.5,2.4-2.8c0.7-2.3-0.7-4.8-3-5.5c-0.3-0.1-0.7-0.2-1-0.3c-0.3,0.4-0.9,0.1-1.5-0.4
		c-0.6-0.2-1.1-0.3-1.7-0.5c-2.3-0.7-4.8,0.6-5.5,2.9c0.1,0.4,0.3,0.7,0.4,1.1c-0.2,0.2-0.4,0.1-0.6,0c-0.1,1.9,1.2,3.8,3.1,4.4
		c1.4,0.4,2.9,0.9,4.3,1.3C249.2,663.3,250.2,663.2,251.2,662.8z"/>
	<path class="st0" d="M480.4,636c-2.2,1-3.1,3.7-2.1,5.9c1,2.2,3.6,3.1,5.8,2.1"/>
	<path class="st0" d="M125.8,592.3c-1.1,1.3-1.3,3.1-0.6,4.6c0.3,0,0.6,0,1,0.1c-0.1,0.6,0,1,0.1,1.4c0,0,0.1,0.1,0.1,0.1
		c1.1,0.9,2.3,1.9,3.5,2.8c1.3,1.1,3.1,1.2,4.6,0.6c0.6-0.3,1.2-0.7,1.6-1.2c1.5-1.9,1.2-4.7-0.7-6.2c-1.1-0.9-2.2-1.8-3.4-2.8
		C130.2,590.2,127.4,590.4,125.8,592.3z"/>
	<path class="st0" d="M61.8,519.4c0.2-0.1,0.4-0.2,0.5-0.3c2.1-1.3,2.7-4,1.4-6.1c-0.8-1.2-1.5-2.5-2.3-3.7c-1.2-2.1-3.9-2.7-6-1.5
		c-2.1,1.3-2.8,4-1.5,6c0.8,1.3,1.5,2.6,2.3,3.8C57.4,519.6,59.8,520.3,61.8,519.4z"/>
	<path class="st0" d="M74,537.8c0.3-0.1,0.5-0.3,0.8-0.4c2-1.4,2.4-4.2,1-6.1c-0.8-1.2-1.7-2.4-2.5-3.6c-0.8-1.1-2-1.8-3.3-1.9
		c0.2,0.1,0.3,0.2,0.5,0.4c1.3,2.8-0.4,3.5-1.5,2.4c-0.4-1.3-0.3-2.4,0.1-2.8c-0.7,0.1-1.4,0.3-2,0.7c-2,1.4-2.5,4.1-1.1,6.1
		c0.9,1.2,1.7,2.4,2.6,3.7C69.9,538.1,72.1,538.7,74,537.8z"/>
	<path class="st0" d="M109.6,577.4c-1.7,1.8-1.6,4.5,0.2,6.2c1.1,1,2.2,2,3.2,3.1c1.3,1.2,3.2,1.5,4.8,0.8c0.5-0.2,1-0.6,1.4-1
		c1.6-1.7,1.5-4.2,0-5.9c0,0,0,0,0,0c0.3,1.5-0.3,0.5-0.9-0.9c-0.8-0.8-1.7-1.6-2.5-2.4C114,575.6,111.2,575.7,109.6,577.4z"/>
	<path class="st0" d="M89.1,548.5c-0.9-1.1-1.8-2.2-2.7-3.4c-1.5-1.9-4.3-2.2-6.2-0.7c-1.9,1.5-2.2,4.3-0.7,6.2
		c0.9,1.2,1.9,2.3,2.8,3.5c1.3,1.6,3.4,2,5.2,1.2c0.4-0.2,0.7-0.4,1-0.6C90.4,553.2,90.6,550.4,89.1,548.5z"/>
	<path class="st0" d="M102.1,571.9c0.4-0.2,0.9-0.5,1.2-0.8c1.8-1.7,1.9-4.5,0.2-6.2c-1-1.1-2-2.1-3-3.2c-1.6-1.8-4.4-1.9-6.2-0.3
		c-1.8,1.6-1.9,4.4-0.3,6.2c1,1.1,2,2.2,3.1,3.3C98.4,572.3,100.4,572.7,102.1,571.9z"/>
	<path class="st0" d="M211.9,645.5c1-2.2,0-4.8-2.3-5.8c-1.3-0.6-2.7-1.2-4-1.8c-2.2-1-4.8,0-5.8,2.2c-1,2.2,0,4.8,2.2,5.8
		c1.4,0.6,2.7,1.2,4.1,1.8c1.2,0.5,2.5,0.5,3.6,0C210.6,647.3,211.4,646.5,211.9,645.5z"/>
	<path class="st0" d="M405.4,667.4c-1.1-1.2-1.4-4.2-0.1-4.8c-1-0.7-2.2-1.1-3.5-0.8c-1.4,0.3-2.9,0.5-4.3,0.8
		c-2.4,0.4-4,2.7-3.6,5.1c0.4,2.4,2.7,4,5.1,3.6c1.5-0.3,2.9-0.5,4.4-0.8c0.3-0.1,0.7-0.2,1-0.3c1.8-0.8,2.9-2.8,2.5-4.8
		c-0.2-0.8-0.6-1.6-1.1-2.2C405.9,664.6,406.8,667,405.4,667.4z"/>
	<path class="st0" d="M423.1,656.9c-1.4,0.4-2.8,0.7-4.2,1.1c-2.2,0.5-3.5,2.6-3.3,4.7c0.5-0.6,2.2,1.6,2.7,3.6
		c0.8,0.3,1.8,0.5,2.7,0.2c1.5-0.4,2.9-0.7,4.4-1.1c0.2-0.1,0.5-0.1,0.7-0.2c1.9-0.9,3-3,2.5-5.1
		C427.9,657.7,425.5,656.3,423.1,656.9z"/>
	<path class="st0" d="M464.4,643.1c-1.3,0.6-2.7,1.1-4,1.6c-2.3,0.8-3.4,3.4-2.5,5.7c0.6,1.6,2.1,2.6,3.6,2.8
		c-0.1-0.2-0.2-0.4-0.2-0.6c0.3-0.1,0.6-0.2,0.8-0.3c0.1,0.3,0.2,0.6,0.3,0.9c0.4,0,0.8-0.1,1.1-0.3c1.4-0.5,2.8-1.1,4.2-1.7
		c0,0,0.1,0,0.1-0.1c2.2-1,3.2-3.5,2.3-5.7C469.3,643.2,466.7,642.1,464.4,643.1z"/>
	<path class="st0" d="M437,657.5c0.7,2.3,3.2,3.6,5.5,2.9"/>
	<path class="st0" d="M381.4,673.8c0.5-0.1,0.9-0.2,1.3-0.4c1.7-0.8,2.8-2.6,2.6-4.5c-0.3-2.4-2.5-4.1-4.9-3.8
		c-1.5,0.2-2.9,0.3-4.4,0.5c-0.9,0.1-1.6,0.4-2.3,1c0.6-0.3,1.8,0.6,2.3,0.3c0.6,1.3,0.1,1.6,0.5,2.7c-1.2,0.9-1.9-1.9-3-1.8
		c-0.1-0.6-0.1-0.9,0.1-1.1c-1.1,0.9-1.7,2.3-1.5,3.8c0.3,2.4,2.4,4.2,4.9,3.9C378.4,674.1,379.9,674,381.4,673.8z M381.3,665.8
		c1,2-1,2.7-2.2,1.8C377.6,664,380.6,666.1,381.3,665.8z"/>
	<path class="st0" d="M314.9,666.3c-1.4-0.1-2.9-0.2-4.3-0.4c-2.4-0.2-4.6,1.5-4.8,4c-0.2,2.4,1.5,4.6,4,4.8c1.5,0.1,3,0.3,4.5,0.4
		c0.8,0.1,1.5-0.1,2.1-0.4c1.4-0.6,2.5-2,2.6-3.7C319.1,668.7,317.3,666.5,314.9,666.3z"/>
	<path class="st0" d="M293.2,663.8c-1.4-0.2-2.9-0.4-4.3-0.7c-2.4-0.4-4.7,1.2-5.1,3.6c-0.4,2.4,1.2,4.7,3.6,5.1
		c1.5,0.2,3,0.5,4.4,0.7c0.9,0.1,1.7,0,2.4-0.3c1.3-0.6,2.3-1.8,2.6-3.4C297.3,666.4,295.6,664.2,293.2,663.8z M289.5,669.1
		c-0.4,0.2-0.8,0.3-1.3,0.5c-0.3-0.8-0.6-1.7-0.9-2.5c0.6-0.5,1,0.5,1.6,0.4C289.1,668,289.3,668.5,289.5,669.1z"/>
	<path class="st0" d="M271.7,659.9c-1.4-0.3-2.8-0.6-4.3-1c-1.1-0.3-2.1-0.1-3.1,0.4c0.3,0.1,0.6,0.5,1,0.5c0.7,2.2-0.8,2.2-1.9,2.6
		l0.3,1.3l-0.8-0.2c0.7,1.9,0.1,0.9-0.8,0.1c0.2,1.8,1.5,3.4,3.4,3.8c1.5,0.3,2.9,0.7,4.4,1c1,0.2,1.9,0.1,2.7-0.3
		c1.2-0.6,2.2-1.7,2.5-3.1C275.6,662.8,274.1,660.4,271.7,659.9z"/>
	<path class="st0" d="M361.6,668c-0.2,0.1-0.5,0-0.9-0.3c0-0.1-0.1-0.2-0.1-0.3c-0.6-0.3-1.3-0.5-2.1-0.4c-1.5,0.1-2.9,0.1-4.4,0.2
		c-0.2,0-0.3,0-0.5,0.1c0,1.8-0.4,3.7-1,4.3c-0.3-1.4-0.4-2.6-0.5-3.8c-1.4,0.8-2.3,2.3-2.3,4c0.1,2.4,2.2,4.3,4.6,4.2
		c1.5-0.1,3-0.1,4.5-0.2c0.6,0,1.1-0.2,1.6-0.4c1.6-0.7,2.7-2.4,2.6-4.2C363.1,669.8,362.5,668.7,361.6,668z"/>
	<path class="st0" d="M327.9,672.6c0.4,1.9,2.1,3.4,4.2,3.5c1.5,0,3,0.1,4.5,0.1c0.7,0,1.3-0.1,1.9-0.4c1.5-0.7,2.6-2.2,2.6-4
		c0-2.4-1.9-4.4-4.3-4.5c-1.5,0-2.9-0.1-4.4-0.1c-2.4-0.1-4.5,1.9-4.5,4.3c0,0.2,0,0.3,0,0.5c0,0,0,0,0.1,0
		C327.9,672.3,327.9,672.5,327.9,672.6z"/>
	<path class="st0" d="M659.9,247.9c0.6,2.8,1.6,2.4,2.5,2.9C661.7,248.6,660.9,247.3,659.9,247.9"/>
	<path class="st0" d="M606.9,543c-1.9-1-2.7-0.9-4,0.5c0.7,1.4,1.5,2.8,2.2,3.8"/>
	<path class="st0" d="M633.6,485.7c0.8,4.2,3,4.3,2.9,6.5"/>
	<path class="st0" d="M109.6,108.9c-0.6-1.7-3-6-2.9-2.8C107.8,106.1,108.6,108.4,109.6,108.9"/>
	<path class="st0" d="M163.8,621.2c0.5,1.4,1.1,2,1.8,2.2C165.1,622.1,164.6,620.5,163.8,621.2"/>
	<path class="st0" d="M13.8,373.2c-1.1-3.1-2.8-1.8-4.3-1.3"/>
	<path class="st0" d="M140.3,288.7c-1.3-2.6-0.5-3.1,0.4-2.3c-1.5-2-3.2-3.9-5.2-5.6l-8.3,9c4.8,4.2,8,9.2,6.9,17.3
		c-0.5,3.9-2.1,7.2-4.3,9.7c0,0.1,0.1,0.2,0.1,0.3c-0.2,0.1-0.4,0.1-0.6,0.2c-2.8,3-6.7,4.9-11.1,5.6c-0.1,0.3-0.1,0.7,0.1,1.2
		c-0.7,0.5-1.3-0.3-1.9-1c-1.8,0.1-3.6,0.1-5.5-0.2c-11.6-1.6-19.3-10.5-17.7-21.7c0.1-1,0.4-2,0.6-2.9c-0.1-0.9,0.1-1.3,0.5-1.5
		c0.6-1.6,1.4-3.1,2.4-4.4c-0.1-0.4-0.3-0.8-0.4-1.1c0.8-0.3,1.5-0.5,2.2-0.8c1.5-1.4,3.1-2.4,4.9-3.2l-5.6-10.8
		c-5,2.3-8.8,5.5-11.5,9.6c0.1,0.2,0.3,0.3,0.5,0.2c1,0.8,0.2,0.9-0.7,0.2c-1.5,2.4-2.7,5.1-3.5,8.1c0.3,0.3,0.5,0.5,0.9,0.5
		c0.4,1.4-0.4,1.2-1.1,0.4c-0.3,1.3-0.6,2.7-0.8,4.1c-2.5,17.9,9,33.9,27.4,36.5c18.4,2.6,34-9.7,36.5-27.6c1.2-8.8-0.6-16.1-4.7-22
		C141.1,287.7,141,288.4,140.3,288.7z M85.8,294.4c-0.7-2.1,1.3-0.8,1.7-0.6C88.2,296,86.3,292.9,85.8,294.4z M131.7,327
		c0.7-0.4,1.2,0.7,1.9,0.2C134.4,328.6,131.9,329.5,131.7,327z"/>
	<path class="st0" d="M166.8,224.8c0.1,0.1,0.1,0.3,0.2,0.5c-1.4-4.6-3.9-8.9-7.4-12.5c-0.2,0.3-0.4,0.4-1-0.2
		c-0.1-0.4-0.2-0.8-0.3-1.1c-2.2-2.1-4.8-3.9-7.7-5.4c-4.4-2.2-8.9-3.3-13.4-3.5c1.5,0.6,2.8,2.3,3.9,6c-0.8,0.3-1.4-2.1-2.3-1.1
		l-0.5,0.6l-0.7-1.2c-0.4,0.1-0.2,0.8-0.5,1.1l0.7,1.2l-0.8-0.2c1.1,2.7,1.9,5.1,1.3,6.2c-2-0.3-1.2-4.4-2-6.9l-0.7-1.2l0.8,0.2
		c-0.6-1.6-1.2-3.3-1.8-4.9c-11.4,0.4-21.9,7.1-27.5,18.1c-8.2,16.2-2.4,35.2,14.2,43.6c5.4,2.7,11.1,3.8,16.5,3.5
		c-0.3-0.7-0.6-1.8-0.9-2.6c0.7,0,1.3,0.9,1.8,2.5c10.5-0.9,20.1-7.1,25.5-17.1c-0.1,0-0.1-0.1-0.2-0.1c-0.3-1,0.3-1.1,0.9-1.3
		c0,0,0,0,0,0l-0.7-1.2l0.8,0.2c-0.2-1.2,0.4-1.4,0.9-1.2c2.4-6,3-12.2,1.9-18.1c-0.3-0.1-0.7-0.2-1.1-0.3
		C166.4,226.9,165.7,224.9,166.8,224.8z M122,207.9c0.8,1.1,3.4,5,2.9,6.5C123.5,215.6,121.9,208.9,122,207.9z M126.6,264.2
		c-1.9-1.8-0.6-3.4-1-5.3C127.3,258.9,128.1,264,126.6,264.2z M155.1,242.9c0.7,2,1.2,3.8,0.1,4.1c-0.6-0.6-0.9-1.3-1.1-2.1
		c-5.3,9.8-16.6,12.5-26.9,7.3c-10.5-5.3-15-16.3-9.8-26.5c0.8-1.5,1.7-2.8,2.7-4c-0.2-0.4-0.4-0.9-0.6-1.5c1.1-0.4,2.2-0.8,3.3-1.2
		c0,0,0,0.1,0,0.1c5.6-4.3,13.2-5,20.5-1.8c0-0.1,0-0.1,0-0.2c0.2,0.1,0.4,0.2,0.5,0.4c0.2,0.1,0.5,0.2,0.7,0.3
		c1.4,0.7,2.7,1.5,3.9,2.4c0.3,0.1,0.6,0.3,0.9,0.3c0,0.2,0,0.3,0,0.4C155.9,226.6,158.4,234.9,155.1,242.9z M161.3,227.7
		c-2.5-3.7-0.3-3.4,1.5-2.4C163.4,227.1,162.4,227.5,161.3,227.7z"/>
	<path class="st0" d="M190.7,208c-0.4-0.6-0.7-1.4-1-2.1l-0.5,0.6l-0.3-1.3c-0.2-0.6-0.4-1.1-0.6-1.7l-0.6,0.7c0,0-1-1.1-3.6-2
		c-0.6-2.6,1.5,0,2.7,0.9l0.6-0.7l0.9,1.1c0.4-0.2,0.3-0.9,0.5-1.1l-0.3-1.3c0,0,0.1,0,0.2-0.1l-14-14.4c-3.2-3.2-8.7-7.6-8.7-7.6
		s7.1,1,11.4,0.9l4.7-0.1c-0.5-0.2-1-0.8-1.4-2.1c-0.2-2.3,1.9,0.4,1.4-1.4c1.1-0.3,1.1,2.8,1.2,3.3c-0.2,0.1-0.3,0.2-0.5,0.2
		l7.6-0.1c-0.1-0.2-0.2-0.5-0.3-0.7c0.4,0,0.3-0.5,0.1-1c0.4-0.3,0.9,0.7,1.1,1.7l29.6-0.6l0.9-0.9L208,164c0,0.3,0.1,0.7,0.1,1
		c-0.5,0.7-2.8-0.1-2.2,1.8c-2.8-3.3-6.1-3.2-8.4-11.2c-0.1-0.6,0-1.3,0.3-1.9l-20.2-20.7l-4.9,4.8c0.5,1.4,0.6,2.7-0.2,2.3
		c-0.2-0.5-0.4-1-0.6-1.5l-1.9,1.9l0.7,0.5l0.3,1.6c0.4-0.2,0.8-0.3,1.3-0.5c0.3,0.8,0.6,1.7,0.9,2.5c-0.3,0.2-0.6,0.3-0.9,0.2
		l15.1,15.5c3,3.1,8.6,7.6,8.6,7.6s-7.1-1.1-11.3-1l-14.4,0.3c0.2,0.1,0.3,0.2,0.5,0.1c0.4,1.8,0,2-0.9,1.3
		c-0.2-0.5-0.3-0.9-0.5-1.4l-28.1,0.5l-0.9,0.9l44.3,45.4L190.7,208z M184.3,145.1c0.9-0.6,1.3,2.2,2.1,2
		C186.8,150.1,183.6,147.1,184.3,145.1z M193.4,160.8c1.1-0.3,2.1,0.6,2.9,2.8C195.3,162.8,194.1,163.5,193.4,160.8z M200.7,178.1
		C197.5,173.2,202.6,181,200.7,178.1L200.7,178.1z M150.5,176.5c-0.3,0.1-0.6,0.2-0.8,0.3c-0.2-0.6-0.4-1.1-0.6-1.7
		c0.3-0.1,0.6-0.2,0.8-0.3C150.1,175.4,150.3,176,150.5,176.5z M156.9,173.3c0.9-0.6,1.4,2.3,2.2,2.1
		C159.5,177.7,157.2,175.6,156.9,173.3z"/>
	<path class="st0" d="M226.5,154.7l-5.4,8.7c6.9,4.8,16.5,6.2,27,0.5c2.2-1.2,4.1-2.5,5.7-3.9c-0.2-0.1-0.3-0.3-0.5-0.2
		c-0.2-0.7,0.1-1-0.2-1.8c0.4,0,0.7,0.7,1.1,0.5c0.1,0.4,0.1,0.7,0.1,1.1c6-5.5,8.2-12.8,4.8-20.3c-0.2-0.2-0.5-0.4-0.8-0.3
		c-0.2-0.6-0.4-1.1-0.6-1.7c0.1,0,0.2-0.1,0.3-0.1c-5.1-8.9-12.8-10.1-24.4-9.1l-3.5,0.3c-6,0.5-8.9,0.3-10.7-3.1
		c-1.5-2.8-0.5-6,2.8-7.8c3.3-1.8,6.1-1.5,10,0.9l5.8-10.5c-7.3-4.6-13.9-4.3-21.1-0.4c-10.2,5.5-13.2,15.5-8.6,24.1
		c5,9.3,12.8,10.7,22.9,9.8l3.5-0.3c6.4-0.5,10.3-0.8,12.4,3.1c1.8,3.3,0,7.2-4.7,9.8c-5.5,2.9-10.1,1.9-14.6-0.6
		c0.2,1,0.5,2.3,1,4.1C228,158,226.9,156.3,226.5,154.7z M220.3,130C221.5,133.7,217.5,130,220.3,130L220.3,130z M229.4,134.3
		l-0.5,0.7l-0.8-0.2c-1.5,1.6-2.4-2.3-3.9-1.4c-0.7-1.4-0.1-2.4-0.9-2.5c0-0.9,3.2,0.4,4.2,2.3l0.6-0.7l1,1.1
		c0.3-0.1,0.6-0.2,0.8-0.3c0.2,0.5,0.5,1,0.7,0.7C231,134.9,229.9,135.3,229.4,134.3z M236,135.7c0.7-0.4,1.2,0.7,1.9,0.2
		C239.5,138.6,236.3,139,236,135.7z M236.4,131.7c-0.6-0.2-1.2-0.8-1.7-2.2C235.4,129.7,235.9,130.3,236.4,131.7z M243.4,163.4
		c0.8,3-1.4,1.1-2.5,0.9C240.1,161.2,242.4,162.4,243.4,163.4z"/>
	<path class="st0" d="M314.7,128.2l-29.1,7.1l-2.2-8.8l24.5-6l-2.6-10.8l-24.5,6l-4.7-19.4l27.9-6.8l-2.7-11.1l-40.4,9.9l14.9,61.1
		l41.7-10.2L314.7,128.2z M276.5,112.2c1.6-0.2,3.8,5,1.4,5.2C277.1,115.4,276.4,113.4,276.5,112.2z M314.1,129.8
		c0.4,1.1,0.8,2.2,1.2,3.4c-0.5-0.3-1-0.6-1.5-0.4C313.9,131.8,312.7,129.6,314.1,129.8z"/>
	<path class="st0" d="M341.9,123l4.4,0.2c1.2,0,2.5,0,3.7-0.1l9.8,16.3l15,0.5l-12.4-20c7.8-3.2,12.3-9.1,12.8-18.7
		c-0.1,0.2-0.1,0.4-0.2,0.7c-0.7-1.1-1.1-4.5-2-4c0-2.7,0.4-3.4,1.6-3.8c-1.8-8.8-8.2-14.6-18.1-16.9c-0.1,0.1-0.2,0.2-0.4,0.3
		c-0.1-0.1-0.2-0.3-0.3-0.5c-2.4-0.5-5-0.8-7.8-0.9l-17.4-0.6l-2.2,62.8l12.9,0.4L341.9,123z M343.1,87.1l4.1,0.1
		c10.4,0.4,15,4,14.7,12.9c-0.3,8.9-5,12-15.6,11.7l-4.1-0.1L343.1,87.1z M341.7,111.1c-0.9,0.6-1.7,0.5-2.4-0.1
		C338.4,108.5,340.9,107.9,341.7,111.1z M330.2,91.5c1.1-0.1,1.8,1.9,1.6,3.2C331.2,94.7,330.8,92.8,330.2,91.5z"/>
	<path class="st0" d="M450.8,97l-12-3.8l-17.4,19.9c-3.9,4.5-8.9,12.1-8.9,12.1s0.3-9.2-0.4-15.1l-3-26.4L396,79.6l8.1,69.1l1.2,0.4
		L450.8,97z M403.4,90.3c0.3-0.1,0.6-0.2,0.8-0.3c0.3,0.8,0.6,1.7,0.9,2.5c-0.2,0.1-0.5,0.2-0.8,0.3C404,92,403.7,91.1,403.4,90.3z"
		/>
	<path class="st0" d="M446.5,148.6c0.6,1.3,0.1,1.6,0.5,2.6c-0.4,0.4-1.1-1-1.2-1.9l-7.9,11.8l27.5,18.3c-0.1-0.7-0.2-1.5-0.5-2.5
		c1-0.3,1.7,2,1.3,3l7.4,4.9l6.3-9.5l-19.5-13c-0.6,0.2-1.4,0.9-1.9-0.3c-0.1-0.4-0.1-0.7-0.1-1l-3.5-2.3l3.7-5.5
		c-0.1-0.4-0.3-0.9-0.6-1.4c0.3,0.4,0.6,0.7,0.9,1l1.1-1.6l21,14l1-1.5c-1.2-0.4,0.1-1.8-0.2-2.6c1.2,0,0.1,1.3,0.4,2.4l5-7.5
		l-21-14l11.1-16.6l23.9,15.9l6.3-9.5l-34.6-23.1l-26.5,39.7C446.4,148.6,446.5,148.6,446.5,148.6z M469.7,177.1
		c0.8,2.1,1.7,2.3,1.5,4.2c-0.7,0.4-1.3-0.7-2-0.2C468.6,178.9,468.7,177.6,469.7,177.1z M496.5,136.9c-1.1,0.3-2.1-0.6-2.9-2.7
		C494.5,135.2,495.7,134.5,496.5,136.9z M470.2,132.3C471.4,136,467.5,132.3,470.2,132.3L470.2,132.3z"/>
	<path class="st0" d="M271.4,453.9c11.9,12.7,26.9,22.7,43.5,29c5.2,1.9,10.7,3.5,16.2,4.7c24.6,5.3,49.5,2.7,72.2-7.4
		c3.3-1.5,6.5-3.1,9.6-4.8c-0.4-0.5-0.7-1.3-1-2.3c0.8,0.2,1.5,0.8,2.3,1c0.1,0.3,0,0.4,0,0.6c5-2.9,9.7-6.2,14.2-9.7
		c-1.2,0-2.3-0.7-3.4-2.4c0.4-0.2,0.8-0.3,1.3-0.5c0.5,3.3,1.8-0.3,2.4,2.6c5.5-4.4,10.5-9.4,15.1-14.7l-0.2-0.4l0.5-0.7
		c-0.4-0.6-0.7-0.9-1.1-0.5c-0.4-1.1,0.1-1.4-0.5-2.7c1-1,1.8,0.3,2.8-0.1c0.2,0.6,0.5,1.2,0.7,1.8c1.2-1.5,2.4-3,3.5-4.6
		c-0.1-0.5,0-0.5,0.3-0.4c2.5-3.5,4.9-7.2,7-11c2.8-5.1,5.3-10.4,7.4-15.8c0.3-0.8,0.5-1.6,0.8-2.4c-0.3-0.4-0.6-0.8-0.9-1.2
		c-0.1-1,0.6-1.2-0.1-2.8c0.7,0.1,1.2,1,1.8,1.8c5-15,7-31,5.7-46.6c-0.2-2.3-0.4-4.7-0.8-7c-1.5-10.5-4.5-20.8-8.9-30.5
		c-3.2-7.2-8.1-14.5-14.9-22.4c-2.7-3.2-5.8-6.4-9.1-9.6c-0.2,0-0.4-0.2-0.7-0.7c-7-6.9-15.3-14.1-25.1-21.8
		c-13-10.2-28.5-21.1-47.4-33.4c-13.4-8.7-26.4-16.7-39.6-24.9c-6.7-4.2-13-8.1-18.9-11.9l-8.2-5.2c-2.7-1.7-5.9-2.9-8.9-3.4
		c-4.5-0.8-9-0.2-13.1,1.7c-7.2,3.2-12.3,9.8-13.6,17.7l-0.1,0.4c-1.2,8.9-2.9,18.5-5.3,31.2c-0.9,5.2-1.9,10.6-2.8,16.1
		c0.1,0.4,0.3,0.8,0.4,1.1c-0.2,0.1-0.4,0-0.6,0c-1.3,7.3-2.5,14.7-3.7,22.3c0.4,0.5,0.9,1.3,1.2,2.6c-0.6,0.4-1.1,0.1-1.5-0.6
		c-0.2,1.5-0.5,3-0.7,4.6c-0.1,0.9-0.3,1.7-0.4,2.6l0.2,1c0.8-0.1,1.5,1.1,2.1,3.1c-1,0.6-1.9,0.3-2.6-1.9
		c-2.5,16.6-4.2,31.2-5.3,44.5c0.1,0.4,0.3,0.7,0.3,1.1c-0.1,0-0.3-0.1-0.4-0.3c-0.2,2.6-0.4,5.1-0.6,7.6c-0.9,14.1-1,26.4-0.2,37.2
		c0.6,0.2,1.2,0.9,1.8,0.9c0.3,1.3-0.8,1.4-1.7,0.7c0.5,6.3,1.2,12,2.3,17.3c1.3,6.7,3.2,12.6,5.4,17.7
		C255.4,433.8,262.6,444.6,271.4,453.9z M457.4,323.3c-0.2-0.6-0.4-1.1-0.6-1.7c2.1,0.4,1.7,3.4-0.3,3
		C456.1,323.5,456.9,323.6,457.4,323.3z M460.7,336.3c0.4-0.2,0.8-0.3,1.3-0.5c0.6,1.3,0.1,1.6,0.5,2.6c-0.4,0-0.7-0.7-1.1-0.5
		C461.1,337.4,460.9,336.9,460.7,336.3z M459.8,385.1c-2.3-4.5-4.3-8.3-5.1-11.4c1.8,0.5,3.1,5.8,5.2,3.8
		C458.9,379.1,461.4,384.1,459.8,385.1z M466.8,390.1c-1.5,1.4-2.1-5.5-3.5-4.4C463.4,382.3,466.1,386.8,466.8,390.1z M464.9,374.7
		C467.4,375.3,467,378.6,464.9,374.7L464.9,374.7z M437.3,305.9c1.3-0.4,3,4.6,1.1,4.3C437.6,308.4,437.3,307,437.3,305.9z
		 M445.8,322.7c0.5,1.6,1.2,1.7,1.7,3.2l0.8,0.2l0.3,1.3c0.8-0.6,1.6-0.5,2.4,0.1c1.4,3.1-2.3,2.2-2.8,0.1l-0.5,0.6l-0.7-1.2
		C445.1,326.9,444.1,323.5,445.8,322.7z M463.7,367.5c0.5,2.1-0.9,2.5-1.6,3.4c-0.8-0.8-1.6-2.8-2.3-4.9
		C461.2,366.6,462.4,367.3,463.7,367.5z M430.2,298.1c0.3,1.2-0.8,1.1-1.4,1.5C428.2,297.6,429.2,297.2,430.2,298.1z M434.8,314.5
		c1.9-1.7,3.4,2.7,3.8,5.2C437.1,320.2,435.9,317.9,434.8,314.5z M433.2,325.5c1.6-0.8,2.8,1,4.2,1.3l-0.3-0.8l0.4-0.2
		c0.3-0.1,0.6-0.2,0.8-0.3c0.2,0.6,0.4,1.1,0.6,1.7c-0.3,0.1-0.6,0.2-0.8,0.3l0.3,1.3l-0.7-1.2c-0.5,1.5-0.1,3.9-2.4,3.7
		C433.8,328.9,434.2,328.6,433.2,325.5z M434.3,333.6c0.8,0.4,1.4,1.5,2.1,3.1c-0.4,0.2-0.8,0.3-1.3,0.5
		C434.3,335.5,434.6,334.8,434.3,333.6z M382.8,396.3c-0.1-3.1,2.3,0.8,3.1,0.8C386.1,399.6,383.6,396.4,382.8,396.3z M413.9,458
		c-0.2-3-2.1-4.7-1.9-7.8c0.7,0.1,1.2,1.2,1.9,1.2C414,453.7,415.4,457.3,413.9,458z M411.7,441.7c-0.2-2.5,0.9-1.7,2.1-0.8
		C414.4,443,412.1,442.1,411.7,441.7z M385,383.1c1-1.2,1.8,0.8,2.7,0.9C388.5,387.2,385.8,385.9,385,383.1z M414.5,434
		c0.3-0.1,0.6-0.2,0.8-0.3c0.2,0.8,0.5,0.7,0.7,0.7C416.9,436,414.7,436.3,414.5,434z M394.7,389.1c0.7,0.1,1.2,1.2,1.9,1.2
		C397.2,392.4,395,390.9,394.7,389.1z M429.3,452.4c-1.1,1.2-1.7-1.9-2.6-1.9c-0.8-3,1-1,2.1-0.8C429.4,451,428.9,451.3,429.3,452.4
		z M419.9,429.2c-1,0.7-1.7-1.4-2.5-2.9C418.5,426,420.1,427.5,419.9,429.2z M419.6,420.8c-0.3,0.1-0.6,0.2-0.8,0.3
		c-0.2-0.6-0.4-1.1-0.6-1.7c0.3-0.1,0.6-0.2,0.8-0.3C419.2,419.7,419.4,420.2,419.6,420.8z M401.2,377.2c-0.9-0.5-1.9-0.1-2.5-2.9
		C399.6,374.8,400.5,375,401.2,377.2z M395.2,362.2c-1.2,0.9-2.1,0-2.9-2.7C393.3,360.3,394.5,359.6,395.2,362.2z M440.4,438.8
		c-0.7,0.2-1.2,0.7-1.4,1.5l-0.5,0.7l-0.2-1.3c-0.6,0.5-2.6-2.7-0.9-2.5l-0.7-1.2l0.8,0.2c0.7-0.4,1.3-0.3,2,0.2
		C439.7,437.1,440.1,438,440.4,438.8z M409.3,376.1c1-1.1,1.8,0.3,2.8-0.1c0.6,1.3,0.1,1.6,0.5,2.7
		C411.4,379.1,410.1,379.2,409.3,376.1z M417.6,384.5C419.8,386.1,416.2,387.3,417.6,384.5L417.6,384.5z M437.2,416.2
		c-0.2,0.5-0.3,1.1-1,1.3c-0.4-1.1-0.8-2.2-1.2-3.3c0.5,0.3,1,0.6,1.6,0.4C436.8,415.1,437,415.6,437.2,416.2z M423.4,374.7
		c-0.2-0.6-0.4-1.1-0.6-1.7c0.4,0,0.3-0.5,0.1-1C423.6,371.4,424.9,375.6,423.4,374.7z M419.5,362.8c-0.4,0-0.3,0.5-0.1,1
		c-1.2-0.2-2.1-2.4-3.3-2.6c-0.3-3,1.9,1.8,2.8-0.1C419.1,361.7,419.3,362.3,419.5,362.8z M441.6,408.9c-0.2-0.6-0.4-1.1-0.6-1.7
		c0.6-0.5,1,0.5,1.6,0.3C443,409.4,442.6,409.6,441.6,408.9z M454.2,432.8c-0.2-0.7-0.5-0.7-0.7-0.7c-0.3-1,0.5-1,1-1.3
		C455.1,432.1,454.6,432.5,454.2,432.8z M430.4,383.5c0.2-2.6,3.3-1.1,4.5-0.7C435.2,385.8,431.8,386.4,430.4,383.5z M459,411.1
		c-1.5-0.1-1.4-2-2-4l-0.5,0.7l-0.7-1.2c-0.6,0.2-1.1,0.4-1.7,0.6c-0.1-1.4,0.4-2.2,1.5-2.4c0.2,0.6,0.4,1.1,0.6,1.7l0.5-0.6
		l0.7,1.2c0.6,0.9,1.1,1.8,1.7,2.2C459.6,410.2,458.7,410.1,459,411.1z M455.4,392.4c0.8,1.9,1.1,3.2,1.1,4.3
		c-1-0.3-1.9-1.8-2.8-3.7C454.3,392.8,454.8,392.6,455.4,392.4z M395.2,267.2c0.3-0.1,0.6-0.2,0.8-0.3c0.2,0.6,0.4,1.1,0.6,1.7
		c-0.3,0.1-0.6,0.2-0.8,0.3C395.6,268.3,395.5,267.8,395.2,267.2z M423.8,338.5c0.9,0.5,1.8,0.8,2.5,2.9c-0.8,0.7-1.3-0.2-2-0.2
		C424.3,340.4,424.2,339.6,423.8,338.5z M433.7,361.5c0.5-0.2,1.1-0.4,2.6,1.9l0.5-0.7c0,0,0.7,1.2,2.6,1.4c-0.7,0.1-1.4,0.8-2-0.2
		l-0.5,0.6c0,0-0.7-1.2-2,0.3C434.5,363.7,434.1,362.5,433.7,361.5z M437.2,380.1c-1.3-0.6-2.4-2-3.5-4.4c1-0.5,2-0.9,2.8-0.1
		C437.7,378.1,435.4,377.2,437.2,380.1z M393.6,282.1c0.9,1.8-0.3,1.5,0.1,2.8C392.6,284.9,392.5,281.6,393.6,282.1z M418.5,339.4
		l0.5-0.6l0.2,1.3c0.9-0.5,1.6,0.2,2.2,2.1c-1,0.5-1.8-0.8-2.6-1.9l-0.5,0.7l-0.2-1.3C416.2,340.6,417.3,336.1,418.5,339.4z
		 M419.9,344.6c0.2,1.6-0.7,0.4-1.3,0.5C418.4,343.5,419.4,344.7,419.9,344.6z M446.3,402.4c-1.2,0.2-2-1.2-0.6,2.1
		c-2.1,1.5-2.7-2.7-2.7-4.7C444.2,399.9,445.4,399.7,446.3,402.4z M377.4,273.8c1,0.5,2,1.6,3,1.7c1.1,2.2-0.2,2,0.4,3.7
		C379.6,278,378.4,276.6,377.4,273.8z M390.6,306c0.2,1.6-0.7,0.4-1.3,0.5C389.1,304.8,390.1,306,390.6,306z M364,254
		c1.8,1-0.9,1.2-1.3,0.5C362.3,253.6,361.9,252.9,364,254z M369.8,273.7c0.8-0.2,0.5-1.3,1.4-1.5
		C373.1,275.8,370.9,277.5,369.8,273.7z M372.7,280.3c0.4,2.7-1.8,0-2.4-0.1C369.8,277.8,372.1,280.5,372.7,280.3z M375.2,286
		c0.3-1.4,0.6-2.7,0.1-4.8c3.5,1.2,1.9,6.7,2.9,10.3c-2.9,2.3-6.5-1.2-7.4-4.9C370.5,283.7,373.7,285,375.2,286z M348.3,237
		c0.4-0.2,0.8-0.3,1.3-0.5C351,238.7,348.5,239.6,348.3,237z M344,265.1c1.1-0.4,2.7,1.2,2.5,2.9C345.5,268.7,344.7,267.4,344,265.1
		z M365.3,307.7c-1.1-0.9-3.2-2.7-3.1-4.6C363.2,304.5,364.3,305.7,365.3,307.7z M362,311.7c1.5,2.9-1.2,2.1-1.8,1.6
		C359.6,310.6,361,311.8,362,311.7z M351,295.8c-0.3,0.1-0.6,0.2-0.8,0.3C348.3,292.2,351.8,293.8,351,295.8z M339.8,274.3
		c0.9,2.3-0.1,2.8-1.1,3.3C338.6,276,338.3,272.8,339.8,274.3z M368.4,306.9l1-0.5l20,17.7c-0.2-0.3-0.5-0.8-0.7-1.4
		c0.6,0.2,1.3,0.7,1.8,2.2c-0.1,0-0.2-0.1-0.3-0.1l31.3,27.7l-12.4,5.6l-3.4-3.2c-0.4-0.2-0.9-0.1-1.4,0.1c-0.1-0.5,0-1,0.1-1.3
		l-0.9-0.9l-19.7,8.8c0.9,1.3,1.2,2.5-0.4,3c-0.5-0.9-1-1.6-1.4-2.2l-1.7,0.8l0.2,7.7l-11.4,5.1L368.4,306.9z M302.5,459
		c-0.5,0-0.5-0.8-0.3-0.8c-0.2-0.8-0.5-0.8-0.7-0.7c-0.6-2.9,1.2,0.6,1.6,0.4C303.3,459.3,302,457.4,302.5,459z M271.6,383.9
		c-0.5,0-0.6-0.7-0.3-0.8c-0.2-0.7-0.5-0.7-0.7-0.7c-0.3-0.8,0.3-0.8,0.5-1.2c0.2,0.7,0.4,0.7,0.7,0.7
		C272,382.9,271.2,382.8,271.6,383.9z M312.1,473.6c-0.6-1.3-0.1-1.6-0.5-2.7c0.3-0.1,0.5-0.2,0.8-0.3c0.3,1,0.7,1.5,1,1.5
		C313.7,473.3,312.6,473.2,312.1,473.6z M286.7,409.7c0.7,1.4,0.3,1.7-0.2,2c-0.2-0.7-0.5-0.7-0.7-0.7
		C285.5,410,286.3,410,286.7,409.7z M274.6,381.9c0.9,0.5,1.6,2.5,2.4,3.9C275.7,386.9,274.4,383.4,274.6,381.9z M289.4,418.3
		c-0.4-1.8,0-2,0.9-1.3l-0.3-1.3l0.8,0.2c-0.2-0.6-0.4-1.1-0.6-1.7c0.7-0.3,1.3-0.3,1.9,0.2c0.2,1.1,0.1,1.9-0.6,2.1l0.2,1.3
		l-0.8-0.2C291.7,419.7,289.7,418.4,289.4,418.3z M300.6,421.7c0.4,1.1,0.8,2.2,1.2,3.3c-1.9,1.1-3.2-2.8-4.8-3.9
		c-1.6-1-1.8,2.5-3.4-1.6C296.4,418.8,298.4,421.6,300.6,421.7z M291.1,406.2c-0.9-1.9-1.1-3.2-1.1-4.3
		C291.3,401.6,292.5,406.1,291.1,406.2z M299.5,427.8c0.6,1.3,0.1,1.6,0.5,2.7c-0.9-0.5-1.9-0.1-2.5-2.9
		C298.3,426.9,298.8,427.8,299.5,427.8z M313.7,458.7c1.2,3.9-1.7,3.1-3,2.1c0.1-1.4,0.9-2.1,1.9-2.6l0.5-0.6c0,0,0.5-0.7-0.2-1.3
		c-0.3-1.2,0.2-1.6-0.1-2.8c0.7,0,1.2,1.1,1.8,1.2c0.8,2.1-1,2.3-1,2.3l0.7,1.2L313.7,458.7z M317.4,465c-0.3-0.8-0.6-1.7-0.9-2.5
		c1.2-1,2.2-0.1,3.2-0.2C319.2,463.5,318.6,466.1,317.4,465z M295.8,407.3c0.7-0.7,1.3,0.2,1.9,0.2c0.6,1.3,0.1,1.6,0.5,2.7
		C297.3,409.8,296.4,410.2,295.8,407.3z M286.4,383.2c-0.8-3.2,1.9-1.8,2.7,0.9C288,385.3,287.3,383.3,286.4,383.2z M318.2,454.2
		c-1.1-2.2,0.2-2-0.4-3.6C320.9,449.6,321.1,458.1,318.2,454.2z M278.9,356.5c-2,0.9-3-1.8-3-1.8l0,1.4L275,356
		c1.1,3.5,2.6,2.9,3.6,7.2c-1.4,1.8-2.1-2.9-3.4-1.6c0.3-1.5-2-5.5-1.6-7c0.4-0.2,0.7,0.5,1.1,0.5l0.5-0.6c0,0,0.8,0.2,1.5-2.9
		C277.5,354.2,279.3,353.9,278.9,356.5z M342.2,482.5c-0.7-2.3-2.9-6-0.6-5.5C342.2,479.1,343.5,482,342.2,482.5z M346.5,483.8
		c-0.9-2.3,0.2-3.2,1.1-2.3C347.9,483,347.5,483.6,346.5,483.8z M341,463.9c1.1,3.1,1.9,6.3,3.1,8.4c-1,1.5-5.1,0.1-7-1.2
		c-1.6-4-3.8-8.9-4.4-10.7l-0.6,0.7l-1-1.1c-0.6,0-1.2-0.9-1.9-0.2c-0.7-2.4,0.7-1.9,1.6-0.6l0.6-0.7l0.9,1.1
		c0.3-0.3,0.2-0.9-0.2-1.8c3,1.6,4.6,0.8,8,3.7c0.6,1.5,0.3,2.1-0.6,2.1C339.9,464.5,340.5,464.2,341,463.9z M317.6,423.1
		c1.5,1,2.9,2.5,4.5,3.1C323,430,318.6,425,317.6,423.1z M335,453.8c0.7-0.8,1.2,1.3,1.9,1.2C337.4,457.1,335.2,455.6,335,453.8z
		 M323.3,422c0.4-0.2,0.8-0.3,1.3-0.5C326,423.7,323.6,424.6,323.3,422z M316.7,405.3c-0.1,3.4-1-2-1.4-1.4
		C315.3,401.4,316.3,405.8,316.7,405.3z M333.5,434.3c-0.9,1-1.4-1.3-2.3-1c-0.8-2.1,0.8-2.6,1.8-1.6
		C333,432.4,333.1,433.2,333.5,434.3z M327.3,417.6c-1.5-0.8-3.1-1.1-4.3-4.1c1.4-0.3,1.2-2.1,3-2.1
		C327.4,414.4,326.3,415,327.3,417.6z M330.2,420.3c0.6-0.1,1.2-0.3,1-1.3c1.4,0.1,0.3,1.9,1.2,3.3c-0.3,0.1-0.6,0.2-0.8,0.3
		C331.1,422.1,330.7,421.5,330.2,420.3z M343.2,447.9c1.4-1,2.7-0.7,3.9,0.5C348.2,453,345.3,455.5,343.2,447.9z M352.8,462.4
		c-0.7-0.7-1.6,0.3-2.2-2C351.3,461.1,352.2,460.1,352.8,462.4z M360.3,481.5c-0.4,0.2-0.8,0.3-1.3,0.5c-0.4-1.1-0.8-2.2-1.2-3.3
		C358.7,479.2,359.6,479.4,360.3,481.5z M358.4,472.7c-1.2,1.2-2.1-0.3-3.1-0.8C354.5,468.6,357.6,469.6,358.4,472.7z M334.5,425.4
		c1.8-1.6,3,1.8,4.6,1.1C340.1,429.9,335.1,431,334.5,425.4z M326.9,407.3c-0.7-2.1,1.3-0.7,1.7-0.6
		C329.2,408.8,327.2,407.5,326.9,407.3z M334.6,409.2c0.7-0.7,1.3,0.2,2,0.2C337.4,411.9,335.4,412.2,334.6,409.2z M329.7,399.6
		c2.5,0.7,3.2-3.1,5.4,1.8C332.8,399,331.7,406.3,329.7,399.6z M350.2,434.9c0.7,0.5,1.5,0.7,2.4,0.1
		C353.1,436.3,350.5,437.6,350.2,434.9z M370.5,472.1c-1,0.7-1.8-0.6-2.5-2.9C368.9,469.7,369.8,469.3,370.5,472.1z M361.2,450.8
		c-1.1-3.2,0.8-3.3,2.3-2.8C364.3,450.4,362.4,450.2,361.2,450.8z M343.1,401.4c-0.4-1.2-0.9-1.8-1.3-2.3l-0.6,0.7l-0.9-1.1
		c-0.4,2-0.5,0-1.6-0.4c-0.3-1,0.3-1.1,0.9-1.3c0.1,0.3,0.2,0.6,0.3,0.8l0.6-0.7l0.9,1.1c0-2.7,1.8-2.6,3.2-0.2
		C344.2,399.2,344,400.5,343.1,401.4z M336.9,388.4c0.6,0.2,1.1,0.3,1.5,0.4C338.4,388.9,336.9,388.5,336.9,388.4z M338.4,388.8
		C338.4,388.8,338.5,388.8,338.4,388.8l-0.2-1.3c0,0,0.8,0.2,0.6-1.6c0.3-0.1,0.6-0.2,0.8-0.3c0.6,1.5,0.3,2.1-0.6,2.1l0.3,1.3
		C339.3,389,339,388.9,338.4,388.8z M379.9,477.2c-0.1-0.3-0.2-0.6-0.3-0.8l-0.8-0.2l-0.3-1.3c-1.6-0.6-1.2-4.1,0.2-2
		c0.3,0.8,0,1.1,0.2,1.8l0.8,0.2l0.2,1.3c0.4-0.2,0.7,0.5,1.1,0.5C381.5,478,380.4,477.6,379.9,477.2z M374.9,464.8
		c0.4-0.2,0.8-0.3,1.3-0.5C377.6,466.5,375.1,467.4,374.9,464.8z M378.7,470c-0.2-1.6,0.7-0.4,1.3-0.5
		C380.2,471.2,379.2,469.9,378.7,470z M347,394.2c-0.7-0.5-1.5-0.7-2.4-0.1c-0.3-1-0.6-1.5-1-1.5C342.9,389.1,346.3,390.4,347,394.2
		z M383,474.1c-0.2-0.5,0.2-1.2,0.5-1.1C385.5,473.7,383.4,474.8,383,474.1z M374,450.8c-1.4-0.3-1-3.5,0.3-3
		C376.1,450.6,373.1,448.9,374,450.8z M343.2,378.5c-0.2-0.6-0.4-1.1-0.6-1.7c0.4,0,0.3-0.5,0.1-1
		C343.4,375.2,344.7,379.4,343.2,378.5z M371.7,435.5c0.2,1.6,0.3,3.6-1.1,2.3C369.7,435.5,370.8,434.6,371.7,435.5z M386,475.9
		c2.6-1,4.8,2.6,6.8,7C390.4,482.6,388.3,478,386,475.9z M384.1,464.2c-0.9,0-0.1-1.2,0.5-1.1C385.5,463.1,384.8,464.3,384.1,464.2z
		 M374.5,445.9c-0.2-2.7-0.3-5.9,2.1-4.6C376.9,443.7,377.2,448,374.5,445.9z M359.3,403c0.6,2.6-1.2-0.5-1.7,0.6
		c-0.2-0.7,0.1-1-0.2-1.8c0.3-0.1,0.6-0.2,0.8-0.3C358.5,402.5,358.9,403,359.3,403z M367.2,418.2c-0.3,0.1-0.6,0.2-0.8,0.3
		c-0.2-0.6-0.4-1.1-0.6-1.7c0.3-0.1,0.6-0.2,0.8-0.3C366.8,417.1,367,417.6,367.2,418.2z M401.9,476.7c-1.1,1.1-1.7-2-2.7-0.9
		c-0.9-2.5,1.5-1.7,2.5-0.9c0.6-1.8-2-5.5-3-5.6c0-5.4,2.7,3.4,4.6,2.1C404.9,476.3,401.9,473.5,401.9,476.7z M359.4,383
		c1.5,1.1,2.8,3.4,4,7.1C361.2,392.7,356.7,384.4,359.4,383z M407,473.9c-1.2-2.5,0-3.4,1.1-2.3C408.5,473.1,408,473.7,407,473.9z
		 M404.9,464.2c0.3-1.2-0.8-3.7,0.4-4C407,461.9,406.7,464.4,404.9,464.2z M399.7,449c0.1,1.5-1.5,1.6-1.9,2.6
		c1.1,2,2.5,1.5,3.7,2.4c0,2.4,0.5,5.2-0.4,6.8c-4.4,0-7-5.6-9.9-11.6c1.6-0.3,2.4,1,0.8-3.1C394.4,449.5,397.3,447,399.7,449z
		 M390.9,438.9c0.4,0,0.7,0.7,1.1,0.5c0.2,0.5,0.4,1.1,0.6,1.7C391.9,441.8,391.4,440.2,390.9,438.9z M375.8,397.9
		c0.7,1.4,0.3,1.7-0.2,2c-0.2-0.7-0.5-0.7-0.7-0.7C374.5,398.2,375.3,398.2,375.8,397.9z M290.2,216.5c0.5-0.1,0.4-3,1.5,1.4
		c-0.4-1.6-1.5-0.7-1.1,0C290.1,217.4,289.8,216.5,290.2,216.5z M332.1,304.7c-0.6,1.2-0.5,3.1-2,3.6c-0.3-1-0.6-1.5-1-1.5
		C329.7,304.9,330,302.3,332.1,304.7z M297.9,245c-0.8,0.7-1.3-0.2-2-0.2C295.1,242.3,297.2,242,297.9,245z M291,235.2
		c0.6-0.5,1,0.5,1.6,0.4c0.2,0.6,0.4,1.1,0.6,1.7c-0.6,0.5-1-0.5-1.6-0.4C291.4,236.3,291.2,235.8,291,235.2z M311.7,276.1
		c0.6,2.1,1.4,1.5,2,4c-1,0.5-2,0.9-2.8,0.1C310.8,278.5,310.5,276.6,311.7,276.1z M304.4,269.2c0.3-0.1,0.6-0.2,0.8-0.3
		c0.2,0.6,0.4,1.1,0.6,1.7c-0.3,0.1-0.6,0.2-0.8,0.3C304.9,270.3,304.6,269.8,304.4,269.2z M314.5,294l-0.3-1.3l0.8,0.2
		c-0.2-0.6-0.4-1.1-0.6-1.7c0.7-0.5,1.3,0.6,1.9,0.2c1.1,2.2-0.2,1.9-0.3,3l0.2,1.3l-0.8-0.2c0.2,0.6,0.4,1.1,0.6,1.7
		c-0.7,0.2-1.4,0.6-1.9-1.2c-1.3,0.2-0.6,2.3-1.9,2.6c-0.5-2.1-1.4-1.5-2-4.1C311.4,292.3,312.6,295.9,314.5,294z M275.6,219
		c0.3-0.1,0.6-0.2,0.8-0.3c0.2,0.7,0.5,0.7,0.7,0.7C277.9,220.9,275.7,221.3,275.6,219z M311.5,303.7c0.4,1.5,0,2.2-1,2.3
		c-0.3-0.8-0.6-1.7-0.9-2.5C310.2,302.8,310.8,303.6,311.5,303.7z M302.2,286.2c0.7,2.7,0.3,1.7,1.5,4.2
		C302.2,291.7,300.7,286.4,302.2,286.2z M305.4,301.2l-0.3-1.3l0.7,1.2c0.5-0.3,0.2-1.3,0.9-1.3c0.3,0.8,0.6,1.7,0.9,2.5
		c-0.5,0.2-1-0.9-1.6-0.4l0.7,1.2l-0.5,0.6c0.3,2.6-2.2,0.3-2.7-0.9l-0.1-0.9l-0.1-0.9c-0.6,0-0.9-1.2-1.3-2.4
		c0.8,0.3,1.5,1,2.2,2.1l0.5-0.6L305.4,301.2z M272.8,237.1c0.6-0.2,1.1-0.4,1.7-0.6c0,0.9,0.1,1.7,0.6,1.7
		C275.6,240.3,273.2,239.4,272.8,237.1z M275.6,244.6c1.2,0,1.2,3.2,0.1,2.8C274.8,245.7,276,246,275.6,244.6z M291.7,283.4
		c1.1-1.1,1.6,2,2.7,0.9l0-1.4c0,0,0.9,0.1,1.4-1c0.5,0,0.9,1.2,1.3,2.3c-0.7,0.6-1.2-0.8-1.9-1.2l0,1.4c0,0-0.9-0.1-0.3,1.5
		C295.3,287.1,292.4,285.7,291.7,283.4z M305.9,318.1C305.8,321.7,303.6,316.1,305.9,318.1L305.9,318.1z M312.1,331l0.5-0.7
		c0,0,0.7,1.2,1.6-0.1c0.5,2.5,1.4,1.9,2,4c-1.3,0.8-2.9-2.7-2.9-2.7l-0.3,0.6l-0.3,0.6c-1.1,1.1-0.6,0.9-2.1,0.8
		c0.6,2.7,1.8,1.2,2.4,3.9c-0.9,1.5-1.3,0.7-2.8,0.1C309.3,333.9,309.1,331,312.1,331z M285.6,280.9c-0.7,0.8-1.2-1.4-1.9-1.2
		C283.2,277.5,285.3,279,285.6,280.9z M295.1,328.7c0.2,1.6,1.7,4.5,0.3,4.7C294.5,331,293.7,328.8,295.1,328.7z M273.9,289
		c-0.5-1.8,1.9-0.9,2.3,1.1C275.3,291.1,274.8,288.7,273.9,289z M283.4,304.5c1.9,0,1.9,0,3.3-1.2c0.8,0.8,1.6,2.8,2.3,4.9
		c-0.5,0.1-0.7,0.5-0.5,1.1C286.7,308.8,284.9,307.8,283.4,304.5z M297.3,320.3c2,2.1,2.5,5.1,1.6,7c-1,1.1-1.7-2-2.7-0.9
		C296,323.9,295.3,320.8,297.3,320.3z M299.7,330.8c1-0.1,0.2,2.5,1.8,2.2c0.4,1.5,0,2.2-1.1,2.3
		C299.6,333.3,300.1,332.5,299.7,330.8z M312.8,356.9c0,0-0.3-1.3-1.8-5.5c1,0.9,1.7,2.9,1.5,4.2l1,0.7l0.3,1.6
		c1.2-0.9,2.1,0,2.9,2.7c-1.8,0.4-1.2,1.7-2.9,1.1c-0.2-1.3-0.1-2.4-0.4-3.7L312.8,356.9z M306.9,345.3c-0.7-4.1,2.4-0.9,3.5,0.6
		C309.9,346.6,308.6,346,306.9,345.3z M291,308.4c-0.2-1.6,0.7-0.4,1.3-0.5C292.5,309.5,291.5,308.3,291,308.4z M279.1,278.5
		c0.6,1.3,0.1,1.6,0.5,2.7C278.9,281.8,277.6,277.6,279.1,278.5z M261.5,242.2c1.8,4.5-3.6-1.2-0.9,4.1
		C257.5,246.4,259,241.6,261.5,242.2z M261.5,260.3c0.3-0.1,0.6-0.2,0.8-0.3c0.2,0.7,0.4,0.7,0.7,0.7
		C263.8,262.2,261.6,262.6,261.5,260.3z M266.7,267.9c0.8-0.3-2.1-3.7-1.4-5.2c0.7-0.3,1.4-0.5,2.1-0.8c0.7,2,1.4,3.9,2.2,5.9
		c-0.5,1.5-1.2,2.8-3.1,3.1c1,3.8,2.6,2.9,3.8,5.3l0.5-0.7l0.7,1.2c0.7-0.3,1.4-0.5,2.1-0.8c0.4,1.1,0.8,2.2,1.2,3.3
		c-1.2,0.9-2.1-0.4-3-1.7l-0.5,0.6l-0.7-1.2c-2.4,1.6-4-5-6-7.3C266.5,270.6,265.6,266,266.7,267.9z M277.2,299.2
		c0.3,0.8,0.6,1.7,0.9,2.5c-1.8-2.3-2-0.7-0.2,2c-2.3-0.2-2.7-0.2-4.4-0.3c-0.6-3.3-1.2-5-1.6-7C274,294.4,275.2,300.9,277.2,299.2z
		 M297.2,353.6c-1.1,0.1-1.8-2.6-3-1.8c-1.1-3.9-3.7-6.3-1.2-7.2c0.3,2.8,1.4,5,3.1,4.6C297,351.2,296,351.3,297.2,353.6z
		 M277.5,315.2c-0.7-0.9-1.4-2-2-4C277.2,309.4,280.4,315.2,277.5,315.2z M289.2,335.6c-0.9-1.9-1.1-3.2-1.1-4.4
		C289.2,330.8,290.4,335.3,289.2,335.6z M285.9,325.4c-0.7-1-1.7,0.5-2.3-1.1c-0.7-2.5,0.7-3,1.3-4.2
		C285.9,322.5,284.1,322.2,285.9,325.4z M267.7,287.4C268.6,285.8,265.6,291.4,267.7,287.4L267.7,287.4z M270.1,295.1
		c0.4,2.8-3.1-1.2-1.9,2.6l0.4-0.2l0.3,0.8c0.3,0.6,0.6,1.7,1,1.5c0.6,2.1-1.6,0.6-1.9-1.2l-0.8-0.2l0.5-0.7
		C265.3,295.3,268.7,294.3,270.1,295.1z M263,290.1c0.5,2.7-1.5-0.5-2-0.2C260.6,287.2,262.6,289.8,263,290.1z M268.3,304.4
		c0.7,2.2-0.8,2.2-1.9,2.6C265.7,304.8,267.2,304.8,268.3,304.4z M252.7,278.7c1.1-0.3,2.1,2.8,2,4.1
		C253,282.2,252.5,280.8,252.7,278.7z M268.3,311c0.5,1.8-0.5,2.1,0,3.8l0.3,0.8l-0.4,0.2c1.4,2.3,2.9,2.7,4.4,3.1
		c-1.7,0.6-1.2,2.2-2.1,4.6c-0.9-3.1-1.1-5.1-2.8-7.5l-0.8-0.2l0.5-0.7c-0.5-1.1-1.3-0.6-1.9-1.2C266.3,312.2,266.7,310.2,268.3,311
		z M274.6,334.4c1.5-0.3,2.6,3,3.8,5.3C276.9,340.5,275.7,337.9,274.6,334.4z M277.3,347.6l0.9-0.4l13.4,5.8c-0.2-0.5-1-1.9-3.8-4.5
		c1.3,0.1,2.6,0,3.6,3.4l0.8,0.2l0.2,1.3l0.2,0.1c0.2,0,0.4,0.1,0.5,0.2L319,365c0.1-0.6,0.9-0.6,1.4-0.9c0,0.6,0,1.1-0.2,1.4
		l0.2,0.1l13.9-43.5l1-0.5l24.2,54c0.7,0.4,1.1,1.6,1.2,2.6l0.6,1.3l-11.4,5.1l-9.6-21.5c-1.7-3.9-4.1-10.2-4.1-10.2
		s-0.8,4.7-1.9,8.7c0.8,0.2,1.1,3.9,2,3.3c0.3,1-0.5,1-0.9,1.3c-0.4-1.2-0.9-2.4-1.3-3.6c-0.1,0.4-0.2,0.8-0.4,1.2l-5.7,17.8
		l-1.1,0.5l-17.1-7.6c-4.1-1.8-9.8-5.3-9.8-5.3s0.8,1.6,1.9,3.6l0,0c-0.3-0.8-0.6-1.7-0.9-2.5c2,0,2.7,4.8,3.9,4.3
		c0.9,1.9,1.1,3.2,1.2,4.3c-0.4,0.2-0.8,0.2-1.1,0.1c0,0,0,0,0,0.1l8.3,18.5c0.7,0,1.3,0.3,1.8,1.9c-0.3,0.2-0.6,0.1-1-0.1l0.6,1.2
		l-11.3,5.1L277.3,347.6z M258.5,313.6c1.5-0.6,2.7,2.4,4.1,3.3C262.3,319.8,259.4,316.1,258.5,313.6z M261,327
		c0.7,2.6-1.2-0.5-1.6,0.6C258.7,325.5,260.7,326.8,261,327z M266,339.4l-0.5-0.8l-0.1-0.9c-0.1-0.7-0.6-1.7-0.2-1.8l-0.5-0.8
		l-0.1-0.9c-0.6-2,1.7-1.2,2,0.2l0.5,0.8l0.1,0.9c0.7,0,1.2,1.1,1.9,1.2c0.9,2.2-2.6,0.1-0.7,3.1c-0.4,0.2-0.7-0.5-1.1-0.5l0.3,1.3
		l-0.8-0.2c0.3,0.6,0.6,1.6,1,1.5c0.2,1.1,0.1,1.9-0.6,2.1C265.7,343.4,265.4,340.4,266,339.4z M289.4,396.4c-1,0.6-1.9,0.3-2.6-1.9
		C287.6,393.2,288.2,392.9,289.4,396.4z M275.1,370.3l-0.5,0.7l-0.7-1.2c-0.8-2.1-2.1-0.8-3-1.7c0.2-2.1,1.2-3.5,2.7-2.9
		c0.7,1.6,0.2,2,0.8,3.5l0.8,0.2l0.2,1.3C277.7,369.5,276.3,373.7,275.1,370.3z M262.6,349.2c0.4-0.2,0.8-0.3,1.3-0.5
		C265.3,351,262.9,351.9,262.6,349.2z M265.3,346.3c-0.7,0.4-1.3-0.7-2-0.2C262.5,343.6,264.6,343.3,265.3,346.3z M254.5,328.4
		c0.3-0.1,0.6-0.2,0.8-0.3c0.2,0.8,0.5,0.8,0.7,0.7C256.8,330.4,254.6,330.7,254.5,328.4z M254.4,339.9c1.8-2.3,2.2-4.4,3.4-6
		c-0.2,2,1.6,3.5,2.8,3.7c1.2,4.4-2.1,6.9-5,5.6C255.3,342.1,254.8,341,254.4,339.9z M265.1,366.4l0-1.4l0.9,0.1
		c-0.3-1.8,0.3-3.6,1.4-2.4c0.2,1.1,0.1,1.9-0.6,2.1l0.8,1.4l-0.3,1.2c0.5,1.3,1.3,0.3,1.8,2.2c-0.8,0.5-1.6-0.2-2.2-2.1l-0.6,0.7
		l-0.9-1.1C265.4,369.6,262.7,366.2,265.1,366.4z M256.9,354.2c0.2-0.6,0.4-1.1,0.9-1.3c0,0.8,0.1,1.5,0.5,2.6
		c-0.7-0.2-1.5-0.9-2.2-2C255.9,352.1,256.6,353.3,256.9,354.2z M299.5,449.7c0.9-0.6,1.4,2.2,2.2,2.1
		C302,454.7,298.8,451.6,299.5,449.7z M279.5,406.7C277,406.1,277.4,402.7,279.5,406.7L279.5,406.7z M251.9,352.2
		c2.2,1.1-0.6,2.9-1.4,1.5C249.4,349.6,252.4,353.9,251.9,352.2z M287.5,435.1c0.3,0.8,0.6,1.7,0.9,2.5c-1.1,0.3-2.1-0.6-2.9-2.7
		C286.3,434.5,286.8,435.5,287.5,435.1z M298.4,463.4c-0.1,1.9-3.4-3-1.3-2.4C297.3,461.1,298.5,462.5,298.4,463.4z M291.9,449.6
		c0.2,1.1,0.1,1.9-0.6,2.1C289.8,449,290.9,448.7,291.9,449.6z M299.3,473.5c0.6,0.4,1.1,0.7,0.8-0.3
		C302.2,473.5,299.9,477.3,299.3,473.5z M296.5,466c0.1,0.7,0.1,1.5,0.5,2.6c0.3-0.1,0.5-0.2,0.8-0.3c0.3,1.2-0.8,1.1-1.3,1.4
		C295.6,467.6,295.3,466.1,296.5,466z M246.7,359.8c1.5,1.4,0.8,3.1,0.7,4.5C246.2,364,245.1,359.3,246.7,359.8z M265.5,407.1
		c0,0,0.4-0.2,0.4-0.2C267.7,410.8,261.7,403.9,265.5,407.1z M250.1,375.7c-0.9,0.1-1.5-3-2.5-2.9
		C247.2,370.9,249.7,373.3,250.1,375.7z M287.1,457.1c1.5,4.4,1.7-1.2,3.3,2.6c-2.2-1.1-1.1,2.1-3.4,2.2c-1.1-3.2-0.5-0.2-1.6-0.4
		c-0.3-1-0.7-1.4-1-1.5C284.6,458.3,285.6,457.5,287.1,457.1z M263.6,420.1c0.4-0.2,0.8-0.3,1.3-0.5
		C266.4,421.9,263.9,422.8,263.6,420.1z M262.4,427.2c0.6,2.7-1.5-0.5-2-0.2C259.9,424.3,261.9,427.5,262.4,427.2z M253.2,420.1
		c0.7-0.7,1.3,0.2,2,0.2c0.7,1.1-0.9,2.6,0.5,2.7c0.3,1.2-0.8,1.1-1.4,1.5C253.5,422.5,254.5,422.4,253.2,420.1z"/>
	<path class="st0" d="M394.9,344.9l-8.6-8.1c-3.5-3.3-8.1-8.7-8.1-8.7s1.1,7,1.2,11.8l0.3,11.8L394.9,344.9z"/>
	<path class="st0" d="M287.3,556.1c0,0-0.9-7.2-2-11.7l-6.2-26.1l-13.6-1.6l0.3,1.4c0.1,0,0.2-0.1,0.3-0.1c0.2,0.6,0.4,1.1,0.6,1.7
		c-0.2,0.1-0.3,0.1-0.5,0.2l15.1,62.5l1.3,0.1l7.8-12.3c-0.2-0.3-0.3-0.6-0.4-1.1c0.4-0.2,0.8-0.3,1.3-0.5c0,0,0,0.1,0.1,0.1
		l9.3-14.7c2.1-3.3,4.6-8.9,4.6-8.9s1.2,6,2.4,9.7l10.6,31.7l1.3,0.1l11-22.3c-0.7-0.9-1.3-2.2-2-2c-0.4-2.1,2.1,0,2.8-0.1
		c0,0.1,0,0.3,0,0.4l1.5-3.1c-0.3-0.2-0.6-0.6-0.7-1.5c0.3-0.1,0.6-0.2,0.8-0.3l-0.7-1.2l0.8,0.2c-0.3-1.4,0.6-1.5,1.4-0.7l2.1-4.3
		c-0.3-0.5-0.6-1-0.9-1.7c0.2-1.5,0.9-0.5,1.7,0l11.9-24l-12.5-1.4L325.2,549c-0.6,1.2-1.2,2.5-1.8,3.9c0.6,0.5,1.3,1.3,1.8,1.4
		c0.4,2.6-1.7,0.1-2.3-0.1c-1.3,3-2.3,5.7-2.3,5.7s-1-7.3-2.6-11.7c-0.4-0.3-1.1-0.9-1.3-0.3l0.2,1.3l-0.8-0.2
		c0.1,1.5-2.9,0.6-3.8-1.4c0.3-0.3,0.8-0.3,0.5-1.1c0.8,0.7,1.6,2.1,2.7,0.9l0.3-0.6l0.6,0.3c-0.4-1.4,0.5-0.6,1.2-0.1l-8.9-25.8
		l-1.3-0.1l-15,24.3C290,549.3,287.3,556.1,287.3,556.1z M269.8,520.5c0.4,1.5,0,2.2-1.1,2.3C267.9,520.4,269,519.6,269.8,520.5z
		 M281,567.7c-0.4-2.3-0.2-5.9,1.7-4.4C283.8,566.2,282.6,567.1,281,567.7z M274.6,546.3c-0.1-0.3-0.2-0.6-0.3-0.8l-0.7-1.2
		l-0.2-1.3c-0.3-0.4-2.5-0.5-1.5-1.4l-0.8-1.4l0.3-1.2c-1.9-3.9,2.4-0.6,1.1,0.5l0.7,1.2l-0.5,0.6c0.2,0.6,0.4,1.1,0.6,1.7l0.8,0.2
		l0.3,1.3c0.6-0.2,1.1-0.4,1.6-0.6c0.4,1.1,0.8,2.2,1.2,3.3C276.3,547.7,275.5,546.3,274.6,546.3z M279.7,553.9
		c-0.8-3.1,1.5-1.9,2.5-0.9C282.7,555.5,280.4,553.4,279.7,553.9z M287.4,560.6c0.1,2.1,2.2,2.8,1.2,3.3c-0.3,0.1-0.6,0.2-0.8,0.3
		c-0.3-1.2,0-1.8-0.8-3.5l-0.5,0.7l-0.2-1.3c-0.4,0.2-0.7-0.5-1.1-0.5c-0.4-1.3,0.7-0.9,1.3-0.5c0.1,0.3,0.2,0.6,0.3,0.8l0.5-0.6
		L287.4,560.6z M284.8,551c-2,0.7-3.7-4-0.9-2.5l-0.7-1.2l0.8,0.2c0.3-1.2,0.7-1.4,1.7-0.6c0.2,1.1,0.1,1.9-0.6,2.1l-0.3,0.6
		l-0.5-0.3C284.4,549.9,284.6,550.5,284.8,551z M316.7,555.5c0.4,0,0.7,0.7,1.1,0.5c0.2,0.7-0.1,1,0.2,1.8c-0.4,0-0.7-0.7-1.1-0.5
		C316.7,556.6,317,556.4,316.7,555.5z M313.5,536.7c-1,0.6-1.9,0.4-2.6-1.9C311.9,534.9,312.8,534.5,313.5,536.7z M306,525.2
		c0.9-0.6,1.7-0.5,2.4,0.1c0.3,1.1-0.2,1.6,0.1,2.8C307.6,527.6,306.7,527.3,306,525.2z M314.7,559.1c1.3,2.4-0.4,1.8-1.1,2.3
		C313.5,560.1,314,559.5,314.7,559.1z M310.3,555c-0.3,0.1-0.6,0.2-0.8,0.3c-0.3-0.8-0.6-1.6-0.9-2.5c0.3-0.1,0.6-0.2,0.8-0.3
		C309.7,553.3,310,554.2,310.3,555z"/>
	<path class="st0" d="M371.4,518l-1.1,0.2l-3,14.4c0.5,0,1.3,0.6,2,0.7c0.6,1.9-1.6,1-2.2,1.8c-0.1-0.3-0.1-0.6-0.2-0.8l-7.6,36.9
		c0.1,0,0.2-0.1,0.3-0.1c1.3,2.7-1,1.9-0.4,3.9c-0.2,0-0.3-0.2-0.5-0.4l-2.3,11.4l12.2-2.6l1.4-7.6l18.9-4c-1.1-5.4,1.4-5,3.4-7.1
		c1.1,1.4,2,3.8,3,5.6c-3.1-1.7-4.4-0.7-5.7,1.4l5.4-1.1l4.4,6.4l13.3-2.8L371.4,518z M366,556.4c0.3-0.1,0.6-0.2,0.8-0.3
		c0.3,0.8,0.6,1.7,0.9,2.5c-0.3,0.1-0.6,0.2-0.8,0.3C366.7,558.1,366.4,557.2,366,556.4z M367.1,572.1c1.1-2.8,2.4-6.5,7-1.6
		C370.3,568.4,368.9,572.8,367.1,572.1z M382.7,568.3C382.6,571.9,380.4,566.3,382.7,568.3L382.7,568.3z M383.1,562
		c-0.1,0.3-0.3,0.5-0.5,0.6c-0.1-0.2-0.1-0.4-0.2-0.5l-3.6,0.8c-0.3,1.2-1.2,1.5-2.2,0.5l-4.5,1l1.1-5.7c-0.2,0.2-0.3,0.4-0.2,0.9
		c-0.4-0.1-0.7-0.5-1-1.5l-1-0.7l-0.3-1.6c-0.1,0.1-0.3,0.1-0.4,0.2c-0.2-0.5-0.4-0.9-0.7-0.7c-0.3-1,0.3-1.1,1-1.3
		c0.2,0.6,0.4,1.1,0.6,1.7l0.8,0.2l0.2,1.3c0.5-0.2,0.9,0,1.3,0.5l0.9-4.8c0.4-2.3,0.8-5.2,1-7.5c-0.1-0.2-0.2-0.4-0.2-0.7
		c0.1,0,0.2,0.1,0.3,0.1c0.2-2.2,0.3-3.7,0.3-3.7s3.3,6.3,6,10.3l6.7,9.7L383.1,562z M375.9,528c1.1-0.3,2.1,0.6,2.9,2.7
		C377.7,531.6,376.7,530.7,375.9,528z M383.7,544.2c-1.2,0-1.2-3.2-0.1-2.8C383.7,542.3,383,542.6,383.7,544.2z"/>
	<path class="st0" d="M444.5,539.9c-0.3-0.7-0.1-1,0.1-1.1l-14.6-29.5l12.9-6.4c0-1.7-0.5-3.7-0.3-5.1l-0.7-1.2l0.5-0.6
		c-0.4-1-1-0.7-1.6-0.4c-0.7-2.9,1.1-1.3,2,0.2l0.6,0.1l-2.4-4.8l-24.6,12.2c0,0.1,0,0.2,0,0.3c-0.1,0-0.2-0.1-0.3-0.1l-16.9,8.4
		c0.3,0.8,0.6,1.7,0.9,2.5c-1.1-0.1-1,0.9-1.4,1.4l1.6,3.3c0,0,0,0,0-0.1c0.3-0.1,0.6-0.2,0.8-0.3c0.5,1.1,0.4,1.8-0.2,1.6l1.3,2.6
		l4.1-2c-0.2-0.3-0.4-0.7-0.5-1.1c0.4,0.1,0.7,0.4,1.1,0.9l11.4-5.6l8.5,17.1c0.4,0.3,0.8,0.4,1.2,0.5c-0.1,1.9,0.9,1.5,0.8,3.5
		c0,0,0,0-0.1,0l12.4,25.1l11.6-5.7l-7-14.2C445.3,541.3,445,540,444.5,539.9z M439,499.2c0.6,1.8-0.4,2.2-1.5,2.4
		C436.2,498,437.6,499.8,439,499.2z M434.8,533c0.4,0,0.7,0.7,1.1,0.5c0.2,0.6,0.4,1.1,0.6,1.7C435.9,535.9,435.4,534.3,434.8,533z
		 M422.7,508.9c0.2,1.6-0.7,0.4-1.3,0.5C421.2,507.8,422.2,509,422.7,508.9z M424.2,516.9c0.4-0.2,0.8-0.3,1.3-0.5
		c0.7,1.8,0.6,2.8-0.3,3C424.9,518.6,424.5,517.8,424.2,516.9z M437,550.3c-0.2-0.6-0.4-1.1-0.6-1.7c0.6-0.5,1,0.5,1.6,0.4
		C438.3,550.8,437.9,551,437,550.3z M443.6,551.7l0.3,1.3c0,0-0.8-0.2,1.2,3.8c-1.9-1.2-4,0.5-5.7-2.7c1.9,1.7,2-1.3,3.7-1.4
		l-0.2-1.3c0,0,0.8,0.2,2.2-2.3C445.7,551.1,444.7,551.4,443.6,551.7z"/>
	<path class="st0" d="M507.7,517.1l11.9-10.7c-0.8-0.4-1.4-2-2.1-2.8c-0.2,0.7,0.3,2.1-0.6,2.1c-0.3-1.1,0.3-1.6-0.1-2.8
		c1.1,0.3,2.2,1,3.1,3.2l3.7-3.3l-5.3-5.9c0.2,0.4,0.5,1.2,0.6,2.4c-1.6-1.6-1.4-3-0.9-2.7l-2-2.2l-17.2,15.5
		c0.2,0.5,0.5,1.2,1.1,2.1c-0.7,0.4-1.3-0.7-2-0.2c0-0.4,0-0.7,0-1.1l-4.2,3.8l-6.1-6.7l1.2-1.1c-0.2-1.8,0.4-3,1.9-1.8
		c0,0,0,0.1,0,0.1l12.1-10.9c-0.9-1.2-1.5-2.6-1.6-4.4c1.3,0.3,2.1,1.6,2.9,3.3l2.4-2.1l-7.4-8.2l-14.6,13.2
		c0.3,0.3,0.6,0.7,0.8,1.7l0.8,0.2l0.2,1.3c1.6-1,1.8,3.6,0.1,2.8c-0.3-0.8,0-1.1-0.2-1.8l-1-0.8l-0.4-1.6c-0.3,0.1-0.6,0.2-0.8,0.3
		c-0.1-0.5-0.3-1-0.4-1.4l-3.3,3l-13.4-14.8l21.3-19.2l-7.6-8.4L449.5,485l42.2,46.7l15.7-14.2c0-0.2,0-0.4-0.1-0.6
		C507.4,516.9,507.5,517,507.7,517.1z M514.3,496.2c2.1,0.5,0.5,1.8,1.5,4.2c-0.7-0.1-1.2-1.2-1.9-1.2
		C513.1,497.2,516,499,514.3,496.2z M507.1,503.6C508.2,507.5,504.3,503.9,507.1,503.6L507.1,503.6z M458.8,485.3
		c-0.8-3.2,1.5-1.3,2.5-0.9C462.1,487.4,459.8,486.2,458.8,485.3z M481.1,515.1c-0.4,0.2-0.8,0.3-1.3,0.5c-0.5-1.5-1.9-4-0.4-3.6
		C480,512.5,480.6,513.6,481.1,515.1z M486.2,516.1c-1.9-0.1-1.6-2.7-2.8-3.7c-0.3-1.3,0.6,0.1,1.3-0.5
		C485.2,515.3,484.3,513.1,486.2,516.1z M499.3,519.8c-0.7,0.7-1.2-0.9-1.7-2.2c0.4,0,0.7,0.7,1.1,0.5
		C498.9,518.7,499.1,519.2,499.3,519.8z"/>
	<path class="st0" d="M497.5,433.3c1,0.9,1.4,2.6,2.3,5.5c-0.6,0.2-1.1,0.4-1.7,0.6c-0.9-2.3-1.4-3.2-1.7-4.3l-7,11.3l53.4,33.2
		l6.8-11l-13.3-8.2l2.3-3.8c0.6-1,1.2-2.2,1.7-3.3l13.3-0.3c-0.2-0.4-0.5-0.9-0.7-1.5c0.6-0.9,1.1,0.2,1.5,1.4l4.9-0.1l7.9-12.7
		l-13.4,0.4c-0.4,0.3-0.8,0.5-1.3,0.7c0-0.2-0.1-0.5-0.1-0.7l-8.7,0.3c1.1-8.5-1.9-15.4-10.2-20.6c-13-8.1-25.8-3.6-35,11.4
		L497.5,433.3z M496.9,443.2l0.3,1.3c0.1-0.1,0.3-0.1,0.4-0.2c0.1,1.4,0.9,3.4-0.7,3.1c-0.4-1.2-0.9-1.8-1.3-2.4l-0.3-1.3l0.5-0.7
		c-0.3-0.6-0.7-0.9-1.1-0.5c-0.2-0.6-0.4-1.1-0.6-1.7c0.5-0.2,0.2-1.3,0.9-1.3c0.4,1,0.8,2,1.5,1.4c0.4,1.1-0.4,1-0.2,2L496.9,443.2
		z M539.1,462.4C541.6,463,541.2,466.3,539.1,462.4L539.1,462.4z M557,444.4c0.8-0.1,1.5,1.1,2.1,3.1c-0.4,0.2-0.8,0.3-1.3,0.5
		C557.1,446.2,557.4,445.6,557,444.4z M550,443.2c1.2-0.2,0,1.6,1.2,3.3C550.2,446.8,550.1,443.7,550,443.2z M539.9,437.4l-0.2-1.3
		l0.5-0.6c-1.9-1.6-0.3-3.8,1.1-2.3c0.2,1.1,0.1,1.9-0.6,2.1l0.8,1.4l-0.3,1.2c0.2,0.6,0.4,1.1,0.6,1.7
		C540.9,440,540.3,439.1,539.9,437.4z M520.3,462.6c-2-0.6-3.3-2.7-4.8-0.2c-1.8-5,0-3.8,0-3.8l-0.7-1.2l-0.2-1.3
		c-1.6-1.3-2.2-3.6-0.7-4.5c-0.7,4.6,2.2,2.1,1.1,4.4l0.8,1.5c0,0-0.3,1.2,3.3,1.8C519.5,460.4,519.9,461.5,520.3,462.6z
		 M529.7,453.5C527.3,451.5,530,450.2,529.7,453.5L529.7,453.5z M508,438c1.7-2.8,3.5-4.9,5.3-6.4c-0.5-0.3-0.9-1-1.4-1
		c-0.3-1,0.5-1,0.9-1.3c0.3,0.7,0.5,1.4,0.8,2.1c3.8-2.9,7.9-2.9,13,0.2c7.5,4.7,7.9,10.4,2.4,19.3l-2.1,3.5l-20.9-13L508,438z
		 M504.2,442.9c-0.6,0.5-1-0.5-1.6-0.4c-0.2-0.9,0.6-0.9,0.2-2C503.3,440.5,503.7,442,504.2,442.9z"/>
	<path class="st0" d="M486.8,620.4c-0.4-2.7,1.8,0.4,2.5-0.9c0,0.2,0,0.4,0,0.5c7.6-4,15-8.4,22.2-12.9c-0.4-1.4-1.7-2.7-2.3-5.3
		c0.6-0.2,1.1-0.4,1.7-0.6c0.7,2.6,1.5,3.8,2.4,4.8c10.4-6.8,20.3-14.1,29.7-21.9c-0.4-0.6-0.8-1.9-0.4-2.2l-0.5-0.8l-0.1-0.9
		c-0.4-1.1,0.4-1,0.2-2l-0.6-1.7l-0.6-1.7c-0.2,0-0.3-0.1-0.5-0.2c-12.5,10.7-25.9,20.4-40.3,29.1c0.3,0.3,0.7,0.7,0.9,1l0-0.5
		l0.1-0.5c1-0.7,1.8,0.7,2.4,2.9c-0.7,0.5-1.2-0.8-1.8-1.2l0.2,1.3l-0.6-1.2c-0.4,0.1-0.3,0.9-0.5,1.1l0.2,1.3l-0.8-0.2
		c0.7,1.3-0.5,3.4-1.4,1.5l-0.7-1.2l-0.3-1.3c-0.3-0.1-1-0.3-1.6-0.8c-3.8,2.2-7.7,4.4-11.6,6.4c0,0.5-0.3,0.5-0.7,0.4
		c-4.3,2.2-8.6,4.4-13.1,6.5c0,0.1,0,0.2,0,0.2l1,0.8l0.4,1.6c2.1-1.2-0.6,3.2,1.2,3.3c-0.3,1.2-1.5,3.4-2.5,0.9l-0.8-0.2l-0.3-1.3
		c-0.3,0.1-0.6,0.2-0.8,0.3l0,1.4l-0.9-0.1c0.8,1.6-1.4,1.9-1.5-0.4c0.7,0.1,1.1,0.8,1.2-0.5l-0.6-1.7l-0.6-1.7
		c-0.2,0-0.5,0-0.7-0.5c-0.1,0-0.2,0.1-0.3,0.1l-0.2,0.3l-0.3-0.1c-5,2.2-10.1,4.3-15.2,6.2c0,0.6-0.2,1.2-0.8,1.3
		c-0.3-0.8-0.7-0.5-1.1-0.5c-15.8,5.9-31.9,10.4-48.1,13.5l0.6,1c0.3-0.1,0.6-0.2,0.8-0.3c0.2,0.5,0.4,1,0.7,0.7
		c0.4,1.1-0.8,1.5-1.3,0.5l-0.3,0.6l-0.6-0.3c-1.3,0.6-2.4-0.7-3.5-1.5c-14.7,2.7-29.5,4.3-44.3,4.8c-0.1,1.2-0.9,0.8-1.8,0
		c-12.1,0.4-24.2,0-36.1-1.1c-0.2,0.6-0.9,1.3-1.7-0.2c-17.6-1.7-35-4.9-52-9.5l0.8,0.6c0,0,0.3,1.6,1.6,1.2
		c0.5,1.6,1.2,1.7,1.7,3.2c-1.1,0.6-2.2,0.9-3-1.8c0.5-0.5,0.1-1,0.1-1l-1-0.8c0,0-0.4-1.6-1.2-1.3c-0.1-0.2-0.1-0.3-0.1-0.4
		c-6.3-1.7-12.5-3.7-18.7-5.8c1.3,3.5-1.6,1-2.1,0.6c-0.5-2.5,1.3-0.2,2-0.7c-9.8-3.4-19.4-7.3-28.9-11.7c-0.2,0.2-0.4,0.4-0.6,0.6
		c-0.2-0.4-0.4-0.8-0.4-1c-9.6-4.5-19.1-9.5-28.2-15.1c0.5,0.7,0.9,1.6,1.4,2.4c-1.3-0.7-2.4-1.9-3.6-3.7
		c-26.6-16.3-50.8-36.6-71.6-60.7c0.1,0.2,0.2,0.4,0.3,0.7c-0.4-0.1-0.9-0.9-1.4-1.9c-3-3.5-6-7.2-8.9-10.8l16.9-7.6
		c1.2,1.4,2.3,2.9,3.5,4.3c0.3-0.1,0.6-0.2,0.8-0.3c0.1,0.6,0.2,1.1,0.2,1.5c8.3,9.8,17.2,19,26.6,27.5c0.8-0.3,1.3-0.8,0.3-2.9
		c1.4,0.1,1.5,2.6,2,4.9c32.1,28.5,70.1,49.2,110.6,61.2c0.5-0.2,1.3,0.2,2,0.6c3.1,0.9,6.3,1.7,9.4,2.5c0.1,0,0.3,0,0.5,0.1
		c0,0,0,0,0,0.1c1.1,0.3,2.1,0.5,3.2,0.8c-0.4-0.2-0.8-0.4-1.2-0.6c0-0.8-0.1-1.5-0.5-2.7c1.2-1.2,2,0.7,3.2-0.2
		c0.4,1.1,0.8,2.2,1.2,3.4c-0.5,0.3-0.9,0.5-1.3,0.5c5.1,1.2,10.3,2.2,15.4,3.1c0.6-0.8,1.9-0.9,2.7-0.3c0,0.3-0.1,0.5-0.1,0.7
		c20.3,3.4,41,4.6,61.8,3.5c-0.1-0.3-0.3-0.6-0.6-1.1c0.5-0.2,1.1-0.4,1.6-0.6c0.2,0.5,0.4,1.1,0.6,1.6c10.1-0.6,20.2-1.7,30.3-3.3
		c-0.6-0.5-1.2-1.1-1.7-2.3c0.7-2.5,3.7-1.5,5.3-1c0.3,1,0.5,1.8,0.6,2.6c11.9-2.1,23.7-5,35.4-8.7c-0.1-0.1-0.1-0.3-0.2-0.4
		c0.6-0.2,1.1-0.4,1.6-0.6c0.1,0.2,0.1,0.3,0.2,0.5c4.6-1.5,9.2-3.1,13.8-4.8c-0.1-0.2-0.2-0.5-0.3-0.7c0.4,0,0.8,0.1,1.3,0.4
		c5.1-1.9,10.1-4,15.1-6.2c2.7-1.2,5.4-2.5,8-3.7c1.1-0.5,2.2-1.1,3.3-1.6c-0.7-0.8-1.4-2.3-2-3.9c0.2-2,2.2-1.4,3.3-1.2l-0.7-1.5
		l0.2-1.2c-0.2-0.6-0.4-1.1-0.6-1.7c0.3-0.1,0.6-0.2,0.8-0.3c0.2,0.6,0.4,1.1,0.6,1.7c-0.1,0.1-0.3,0.1-0.4,0.2l0.8,1.5l-0.3,1.2
		c0.9,2.6-2.3,1.5-0.8,4.8c6.2-3.1,12.2-6.4,18.1-9.9c0.2-0.3,0.5-0.6,0.8-0.6c0,0,0.1,0,0.1,0c12-7.3,23.4-15.3,34-24
		c-0.1-0.3-0.2-0.5-0.3-0.8c0.6-0.4,1.1-0.4,1.6-0.3c1.8-1.5,3.5-2.9,5.2-4.4c-0.1-0.2-0.2-0.3-0.2-0.5c0.9-2.7,1.4-3.1,1.7-3
		l-0.5-0.8l-0.2-1.3c-1.1-2.2,0.2-2-0.4-3.6c1.1-0.1,1.6,3.6,0.8,3.5l0.8,1.5c0,0-0.1,0.4,1,1.8c3.1-2.8,6.2-5.6,9.1-8.5
		c-0.1-0.2-0.2-0.4-0.2-0.5c0.4-0.2,0.8-0.3,1.2-0.5c2.1-2,4.1-4.1,6.1-6.2c-1.1-1.1-0.4-2.2-1.7-4.9c1.1,0.2,2.7,2.7,2.4,4.2
		c1.6-1.7,3.2-3.4,4.8-5.2c-0.4-1.5,0.2-1.7,0.9-1c1.3-1.5,2.6-2.9,3.9-4.4c0.1-0.7,0.8-0.9,0.5-2c0.2,0.3,0.4,0.5,0.6,0.7
		c2.5-2.9,4.9-5.9,7.2-8.9c-0.1-0.4-0.3-0.8-0.4-1.1c0.4,0,0.8,0,1.2,0.1c2.8-3.6,5.4-7.2,8-10.9c-0.2-0.3-0.3-0.7-0.3-1
		c0.3-0.4,0.6-0.1,0.9,0.3c5.4-7.7,10.4-15.7,15-23.9l-0.8-0.9c-1.7,0.3-3.7,2.6-5.1-1c1.2-1.9,3.7,2.2,3.6-0.4l-0.7-0.7l0.1-1
		c-0.9-2.1-1.7-4.2,0-3.8c0.6,1.4,0.9,2.6,0.8,3.5l0.7,1.2l-0.5,0.6c0.3,0.8,0.7,0.9,1,1.5l0.6-0.7c0,0,0.2,0.3,0.9,0.4
		c1.8-3.2,3.5-6.5,5.2-9.8c-0.1-0.2-0.2-0.5-0.3-0.8c0.1-1.1,0.6-1.1,1.1-0.9c2.1-4.3,4.1-8.6,6-12.9c-0.1-0.3-0.3-0.7-0.4-1
		c0.3-0.1,0.7-0.2,1-0.4c18.1-42.1,26.3-88.3,23.1-134.7c-0.2-0.4-0.4-1-0.4-1.9c0.1,0.1,0.2,0.2,0.3,0.3
		c-0.6-8.6-1.6-17.2-3.1-25.8l3.9-1.7c0.3-0.9,1.1-1.2,2.1-1.5c0.1,0.2,0.1,0.3,0.2,0.5l10.8-4.8c2.5,13.6,4,27.2,4.6,40.7
		c2.2,3.5,4.1,4.3,6.8,10.5c-1.5,0.6-1.9,2.2-3.1,3.1c-0.5-1.9-1.2-1.4-1.8-1.2c-0.3-1-0.9-2.3-1.6-3.8
		c0.7,39.6-6.3,78.8-20.3,115.3c0.2,0.6,0.5,1.3,0.7,1.8c-0.2,1.5-1.1,2.5-2.2,2c-2.2,5.6-4.6,11.1-7.1,16.5
		c0.3,0.1,0.5,0.4,0.8,0.8c0.5,2-2.6,0.5-0.4,4l0.6-0.7c0,0,1,1.1,2.6,0.5c0.3,0.8,0.6,1.7,0.9,2.5c-0.9,0-1.9,0.4-2.6-1.9l-0.6,0.7
		c0,0-0.8-0.9-3.2-1.8c-3.8,7.8-7.9,15.5-12.3,23c1,1,0.8,3.3,2.4,2.2c0.2,0.6,0.4,1.1,0.6,1.7c-0.2,0.5-0.4,1.1-1,1.3
		c-0.3-0.7-0.1-0.8,0.1-1c-0.9-1-1.8-1.4-2.6-3.3c-3.2,5.4-6.6,10.7-10.1,15.9l0.5,0.9l0.3,1.3c0.1-0.1,0.3-0.1,0.4-0.2
		c0.8,1.6-1,3.8-1.7,0.6l-0.9-0.8c-0.2,0.2-0.3,0.4-0.5,0.7l0.5,1l-1.1,0c0,0,0,0.1-0.1,0.1c1.6,3.4-1.1-0.4-0.3,1.9l0.8,1.5
		l-0.3,1.2c0.9,1.3,2.1,0.4,2.8,3.7c-2.6,0.7-5.1,1-4.3,6.3c-1.2-0.1-2.1-2.9-3.4-1.6c-0.3-1,0-1.5,0.2-2l-0.8-1.5l0.3-1.2
		c-0.2-0.4-0.3-0.8-0.6-0.7c-2.2,2.9-4.4,5.8-6.7,8.6c0,0.2,0,0.3,0,0.5c-0.1,0-0.3,0-0.4,0c-0.8,1-1.7,2-2.5,3
		c0.7,0.9,1.2,2.1,1.8,3.2c0.2-0.1,0.4-0.3,0.1-1c3.1,3.6-3.6-0.6-1.6,3.4c-1-0.2-1.9-2-2.8-2.6c-6.5,7.6-13.4,14.9-20.6,21.9l0,0
		l0.4,1.6c0.7-0.4,1.3,0.5,1.8,2.2l0.5-0.6c0,0,0.7,1.2,1.5,0.9c0.3,0.8,0.6,1.7,0.9,2.5c-0.3,0.1-0.6,0.2-0.8,0.3
		c-0.3-0.8-0.6-1.7-0.9-2.5l-0.5,0.7l-0.7-1.2c-0.7,0.3-1.4,0.3-2-0.2c-0.3-0.8,0-1.1-0.2-1.8l-1-0.8l0,0c-3.3,3.1-6.6,6.1-10,9.1
		c0.7,0.4,1.5,0.8,1-0.9c2.4,3.1-1.4,1.7-1.3,4.3l0.7,1.2l-0.5,0.6c0.6,1.4,0.5,2.3,0.1,2.8l0.5,0.8l0.1,0.9
		c0.2,0.5,0.2,0.8,0.2,1.2c15.1-12.6,28.8-26.4,41.1-41.3c-0.4-0.5-0.7-1.2-1.1-2.2c0.7-0.4,1.3,0.2,1.9,1.2
		c5.5-6.7,10.6-13.5,15.5-20.6c0-0.1,0-0.2-0.1-0.3c-1.4-2.9-1.3,0.6-3.2,0.2c0.4-1.6,0.7-3.3,1.7-4.4c0.8,0.8,1.5,2.4,2.2,3.5
		c1-1.5,2-3,3-4.4c-0.5-1.2-0.7-2.6,0.3-2.1c0.1,0.4,0.3,0.7,0.4,1.1c0.7-1.1,1.4-2.2,2.1-3.3c-0.1-0.2-0.1-0.3-0.2-0.5
		c0-1.4,0.5-1.3,1-0.8c1.2-1.9,2.4-3.9,3.6-5.8c-0.1-0.2-0.2-0.4-0.2-0.7c0.1-0.3,0.4-0.2,0.7-0.1c8.7-14.6,16.2-29.8,22.5-45.5
		c-0.3-0.3-0.9-0.6-1.4-0.4c-0.2-0.6-0.4-1.1-0.6-1.7c0.2-0.2,0.4-0.3,1.5,1.4l0.6-0.7l0.3,0.4c0.2-0.5,0.4-1,0.6-1.5l-0.2-0.4
		l0.3-1.2c-0.7-2.3-1.9-0.1-2.5-2.9c0.4,0.1,0.8-0.3,1.1,0.5c0.6-0.3-0.5-2.2,0.6-2.1c-0.5,1.3,1,2.7,1.5,4
		c9.2-24.2,15.4-49.5,18.5-75.3c-0.7,0.5-2.2-1.7-3.4-0.3c-1.6-1.2,3.2-0.9,1.3-4.3c0.8,0.5,1.5,2.2,2.2,3.6
		c3.3-28.4,2.7-57.5-2-86.4c-0.1-0.3-0.2-0.5-0.3-0.8c0.1,0.1,0.1,0.1,0.2,0.2c-1.8-11.1-4.3-22.2-7.3-33.3
		c-0.3,0.5-0.8,0.8-1.3,1.1c-0.7-2.2-0.6-3.5,0.5-4c-4-14-9.1-27.9-15.2-41.6C592.9,130.3,525.8,71.8,447.6,43.8
		c0.5,1.9-0.4,2.2-1.4,1.4c-0.3-1-0.2-1.6,0.2-1.8c-1.8-0.7-3.7-1.3-5.5-1.9c-0.1,0.8-0.3,1.7,0.3,2.7c-1.1-0.4-1.1-1.8-1.1-3
		c-71.2-23.6-151-22-224.9,10.1c0.2,0.3,0.5,0.8,0.8,1.5c-0.4,0.6-1.3-0.7-1.8-1.1c-0.1,0-0.2,0.1-0.3,0.1c0,0.3,0.1,0.7,0.4,1.6
		c-0.5,0-0.9-0.9-0.8-1.4c-0.5,0.2-1.1,0.5-1.6,0.7c-42.5,19-78.7,46.3-107.7,79.2c0,0,0.1,0,0.1,0c-0.2,1.2-0.6,1.5-1.2,1.3
		c-9.6,11-18.4,22.7-26.4,34.8c0.3,0.2,0.6,0.4,0.8,0.3c0.3,1.8-0.6,1.2-1.4,0.6c-1.9,2.9-3.7,5.8-5.5,8.8c0.6,1.8,1.2,4,0.2,4.5
		c-0.4-1.5-0.8-2-1.3-2.7c-2.1,3.6-4.1,7.2-6.1,10.8c0.1,0.4,0.3,0.7,0.4,1.1c-0.3,0.1-0.6,0.2-0.8,0.3c0-0.1-0.1-0.2-0.1-0.4
		C18.2,274.6,11,377.2,52.6,470.1c24.3,54.3,62.1,98.3,107.7,130c0.2-0.4,0.7,0.2,1.5,0c0.1,0.5,0.2,0.9,0.2,1.1
		c33.4,22.9,70.9,39.2,110.3,48c0-0.8,0.3-1.5,0.9-1.7c0.3,0.8,0.6,1.5,0.7,2.1c6.6,1.5,13.3,2.7,20.1,3.7l0.3-1.1
		c-1.1-2.2,0.2-2-0.4-3.7c1.1-0.1,1.6,3.6,1.5,4.2c-0.1,0.1-0.3,0.1-0.4,0.2l0.4,0.7c35.6,5.3,72.4,4.5,108.7-2.9
		c-0.1-0.2-0.1-0.5-0.2-0.7c0.5,0.3,1,0.7,1.6,0.4c0,0,0,0,0,0.1c2.3-0.5,4.6-1,6.9-1.5c-0.2-0.5-0.4-1.1-0.6-1.8
		c0.7,0.4,1.3,0.8,2,1.5c6-1.4,12-3,18-4.8c-0.7-0.7-1.3-1.5-1.8-2.4c1.2,0.4,2.4,1.2,3.7,1.8c2.1-0.6,4.1-1.3,6.2-2
		c-0.3-0.7-0.5-1.5-0.8-2.2l-0.5,0.6l-0.7-1.2c-0.5,0.3-1-0.1-1.5-0.4l-0.5,0.7l-0.2-1.3c-0.3,0.1-0.6,0.2-0.8,0.3
		c-0.2-0.6-0.4-1.1-0.6-1.7c0.3-0.1,0.6-0.2,0.8-0.3c0.1,0.3,0.2,0.6,0.3,0.8l0.5-0.6l0.3,1.3c0.5,0,1.1-0.6,1.5,0.4l0.5-0.7
		l0.7,1.2c0.2-1.8,1.4-0.1,2.4,0.1c0.3,1.3-0.1,2.2-0.6,2.8c3.9-1.3,7.8-2.7,11.7-4.2c-0.3-0.3-0.6-0.6-0.8-1.5
		c1.2-0.5,2.2,0.2,3.3,0.5c5.2-2,10.4-4.2,15.6-6.5c2.9-1.3,5.7-2.6,8.5-4c-0.1-0.5-0.3-1-0.3-1c0.2-0.1,0.5,0.2,0.7,0.8
		c3-1.4,5.9-2.9,8.9-4.5C487.6,620.5,487.2,620.3,486.8,620.4z M552.1,573.5c-0.8-2-1.6-4-1.4-5.2c1.5-1.6,2.5,1.6,3.8,1.5
		C555.3,572.5,552.6,572,552.1,573.5z M566.7,556.8c0.4-0.2,0.8-0.3,1.3-0.5C569.5,558.5,567,559.4,566.7,556.8z M570.6,554.4
		c-0.9-2.2,0.1-2.5,0.8-3.1C571.4,552.6,571.7,554.2,570.6,554.4z M572.8,548.9c0.7-0.3,1.4-0.5,2.1-0.8
		C576.5,550.4,573.1,551.7,572.8,548.9z M602.1,514.3c-0.6,0.2-1.2,0.3-0.9,1.3c-1.4-0.3,0.3-2.2-0.4-3.6c0.3-0.3,0.5,0.2,0.7,0.7
		C601.7,513.2,601.9,513.8,602.1,514.3z M603.1,509.2c-1.1,0.1-2.2,0.2-2.9-2.8c0.9-1.1,1.5,0.8,2.4,0.1
		C602.6,507.3,602.6,508.1,603.1,509.2z M611.2,492.9c1.1-0.3,2.1-0.6,1.5-2.4c0.5,0,0.9,1.5,1.5,1.4
		C614.4,493.9,612.3,496.9,611.2,492.9z M622.6,484c-1.4,1.2-2.7-3-1.2-3.3C621.8,481.8,622.2,482.9,622.6,484z M624.1,470.1
		C621.5,467.6,623.7,465.5,624.1,470.1L624.1,470.1z M630.7,461.1c-0.6,0.5-1-0.5-1.6-0.4c-0.2-0.6-0.4-1.1-0.6-1.7
		c0.4-0.2,0.8-0.3,1.3-0.5C630,459.4,630.4,460.2,630.7,461.1z M635.6,437.4c0.7-0.4,1.2,0.7,2,0.2
		C638.3,439,635.8,439.9,635.6,437.4z M639.4,436l-0.5,0.6l-0.3-1.3c-0.8,0.6-1.3-2.3-2.2-2c0.2-1.4,1.4-2.6,2.2-1.8
		c0.4,1.1-0.1,1.3,0.5,2.6l0.5,0.8l0.1,0.9C642.1,434.7,640.5,440.4,639.4,436z M652.3,383.8c-0.3,0.1-0.6,0.2-0.8,0.3
		c-0.2-0.6-0.4-1.1-0.6-1.7c0.3-0.1,0.6-0.2,0.8-0.3C651.9,382.6,652.1,383.2,652.3,383.8z M649.6,345.8
		C650.8,349.7,646.9,346,649.6,345.8L649.6,345.8z M109.2,518.6c-0.5,0-0.9-1.6-1.5-1.4c-0.5-2.7,1.5,0.6,2,0.2
		C110.1,518.9,108.7,517,109.2,518.6z M116,521.8c-0.3,0.1-0.6,0.2-0.8,0.3c-0.2-0.6-0.4-1.1-0.6-1.7c0.3-0.1,0.6-0.2,0.8-0.3
		C115.6,520.7,115.8,521.3,116,521.8z M141.8,545.7c-0.3-1.6,0.7-0.4,1.2-0.4C143.3,546.8,142.3,545.6,141.8,545.7z M150.3,548.2
		C148.6,549.7,148.1,544.6,150.3,548.2L150.3,548.2z M229.8,601.7c-1.2-2.5,0-3.4,1.1-2.3C231.3,600.9,230.9,601.5,229.8,601.7z
		 M242,610.5c-0.9,0-1.6-2.1-2.7-0.9C238.9,607.9,241.7,607,242,610.5z M260.8,614.1c-0.6,1.1-2.1-2.7-0.9-2.5
		C260.5,611.7,261,613.7,260.8,614.1z M295.7,623.1c-0.3,0.1-0.6,0.2-0.8,0.3c-0.2-0.6-0.4-1.1-0.6-1.7c0.3-0.1,0.6-0.2,0.8-0.3
		C295.3,622,295.5,622.5,295.7,623.1z M303.4,626c-0.3,0.1-0.6,0.2-0.8,0.3c-0.1-0.3-0.2-0.6-0.3-0.8l-0.5,0.6l-0.3-1.3
		c-0.1,0.1-0.3,0.1-0.4,0.2c-0.3,0.1-0.6,0.2-0.8,0.3c-0.3-0.8-0.6-1.7-0.9-2.5c0.4-0.2,0.8-0.3,1.3-0.5c0.2,0.6,0.4,1.1,0.6,1.7
		l0.5-0.6l0.3,1.3c0.3-0.1,0.6-0.2,0.8-0.3C303,624.8,303.2,625.4,303.4,626z M337.5,627.7c0.4-0.2,0.8-0.3,1.3-0.5
		C340.3,629.4,337.8,630.4,337.5,627.7z M423.7,613.1c0.4-0.2,0.8-0.3,1.3-0.5C426.5,614.9,424,615.8,423.7,613.1z M433.7,609.5
		c-1.2,0-0.5-2.5,0.6-2.1C434.7,608.6,433.2,608.1,433.7,609.5z M436.9,613c-0.2-0.8-0.5-0.7-0.7-0.7c-0.3-1,0.5-1,0.9-1.3
		C437.8,612.4,437.3,612.7,436.9,613z M462,601.9c-0.2-1.6,0.7-0.4,1.3-0.5C463.5,603,462.6,601.8,462,601.9z M487.8,584.8
		c-0.3-1.2,0.8-1.1,1.4-1.5C490.7,586.2,488.4,585.3,487.8,584.8z M500.8,576.3c-0.6-2.9,1.2,0.6,1.6,0.4
		C503,579.1,501.2,575.6,500.8,576.3z M509.2,576c-0.6-0.2-1.3-0.7-1.8-2.2C508.2,573.1,508.7,574.7,509.2,576z M556.4,531.1
		c-0.2-0.7,0.1-1-0.2-1.8c0.3-0.1,0.6-0.2,0.8-0.3C557.9,530.7,557,530.8,556.4,531.1z M576.8,500.8c0.6,0.1,0.9,1.6,1.5,1.4
		C578.7,504.6,576.2,502.1,576.8,500.8z M586.2,491.6c-0.1,0.1-0.3,0.1-0.4,0.2l-0.5,0.7l-0.8-0.2c0.3,0.8,0,1.1,0.2,1.8
		c-1-1-2.4-3.8-2.3-4.9c0.5,0,1,0.7,1.4,1.3l0.5-0.6l0.5-0.6c0.3-0.1,0.6-0.2,0.8-0.3C586.2,490.1,586.2,490.9,586.2,491.6z
		 M596.3,475.6c0.2-1-1-3.1,0.3-3C597.4,474.4,597.3,475.4,596.3,475.6z M602.6,451.4c-0.2-0.7-0.5-0.7-0.7-0.7
		c-0.3-1,0.5-1,0.9-1.3C603.5,450.8,603,451.2,602.6,451.4z M607.8,436.2c1,0.5,1.8,2.8,2.9,2.7
		C611.8,442.6,607.3,439.1,607.8,436.2z M618.8,412.2c-0.4,0.2-0.8,0.3-1.3,0.5c-0.3-0.8-0.6-1.7-0.9-2.5c0.6-0.5,1,0.5,1.6,0.4
		C618.4,411.1,618.6,411.6,618.8,412.2z M623.3,378.2c-0.6,0.5-1-0.5-1.5-0.4c-0.2-0.5-0.4-1.1-0.6-1.7c0.4-0.2,0.8-0.3,1.2-0.5
		C622.7,376.6,623,377.4,623.3,378.2z M620.9,371.5C620.8,375.1,618.5,369.5,620.9,371.5L620.9,371.5z M626.4,376.2
		c-1.4-0.9-2.8-1.5-3.8-5.2C624,371.1,625.3,372.2,626.4,376.2z M622.7,366.1c1.8-0.4,3.2,2.6,4.7,4
		C625.7,370.2,624.1,368.8,622.7,366.1z M625.6,353.6c-0.8-1.7-0.5-2.3-0.8-3.5C625.5,349.6,627.3,354.5,625.6,353.6z M621.7,327.5
		c-0.3-1.8,0.3-3.5,1.5-2.4C623.3,326.5,622.3,326.8,621.7,327.5z M622.7,322.4c-0.3-0.8-0.6-1.7-0.9-2.5c0.6-0.2,1.1-0.4,1.6-0.6
		C623,320.2,623.7,322.2,622.7,322.4z M630.1,287.4C626.2,286.2,629.6,282,630.1,287.4L630.1,287.4z M643.8,286.1
		C641.3,284.2,644,282.9,643.8,286.1L643.8,286.1z M654.1,301.4c-0.3,0.1-0.6,0.2-0.8,0.3l0.8,1.5c0,0-0.3,1.2,0.8,2.7
		c0.5,1.6-1.2,1.1-0.3,3c-1.1-0.3-1.9-4.7-0.7-4.5l-0.8-1.5c0,0,0.3-1.2-0.4-2.9c0.3-0.1,0.6-0.2,0.8-0.3
		C653.7,300.3,653.9,300.8,654.1,301.4z M643.8,282.4c-0.5-2.7-1.1-5.4,0.7-6C644.2,278.4,644.8,281.1,643.8,282.4z M644.7,274.4
		c-0.4-1.1-0.8-2.2-1.2-3.4C644.9,269.9,646.1,274.1,644.7,274.4z M640.5,268.3c-0.6-1.5-0.2-2-0.8-3.5c1.1-1.2,1.8,0.9,2.7,0.9
		C642.8,267.7,641.5,269.2,640.5,268.3z M625,209.4c-0.7,0-1.1-2.4-1.8-2.2C622.8,205.3,625.7,208.1,625,209.4z M626.4,214.6
		c1.6-0.5,1.5,0.8,2.1,3.1C627.7,217.7,627,216.5,626.4,214.6z M641.9,248.8c1.5,2.2-1,3.2-1.3,0.5C641,249.1,641.4,249,641.9,248.8
		z M636.3,241.4c1.2,0.5,2.1,2.9,3,5.6c-0.8,0.2-0.5,1.4-1.3,1.4C636,244.8,637.8,244.7,636.3,241.4z M623.7,217.5
		c0.2,1.1,0.1,1.9-0.6,2.1C621.7,216.8,622.7,216.5,623.7,217.5z M592.3,151.1c0,1.6,0.3,3.6-0.9,4.1
		C590,152.2,590.7,151.3,592.3,151.1z M598.1,170.8c1.5,0.1,1.6,2.3,1.2,3.3C598.3,174.4,598.2,171.4,598.1,170.8z M590.3,158.5
		C587.8,162.8,591.9,155.6,590.3,158.5L590.3,158.5z M582.4,150c-0.2-1.2,0.3-1.6-0.1-2.8C583.5,147.1,583.6,150.4,582.4,150z
		 M571.6,125.5c0.4,2.7-1.8,0-2.4-0.1C568.7,122.7,571,125.4,571.6,125.5z M541.8,101.2c0.4,0,0.7,0.7,1.1,0.5
		c0.2,0.7-0.1,1,0.2,1.8c-0.4,0-0.7-0.7-1.1-0.5C541.9,102.3,542.2,102,541.8,101.2z M504.2,73.2c0.3-0.1,0.6-0.2,0.8-0.3
		c0.2,0.6,0.4,1.1,0.6,1.7c-0.3,0.1-0.6,0.2-0.8,0.3C504.6,74.3,504.4,73.8,504.2,73.2z M489.2,64.5c0.3-0.1,0.6-0.2,0.8-0.3
		c0.2,0.8,0.5,0.8,0.7,0.7C491.5,66.4,489.3,66.8,489.2,64.5z M195.8,62.1c0.4-2,3.1-0.9,4.5-0.7c0.4,1.1-0.1,1.3,0.5,2.7l0.3,0.8
		l-0.4,0.2c2.1,3.1-0.6,2.6-1.9,2.6C197.9,64.1,196.6,65.5,195.8,62.1z M162.3,87.7c0.5,0.3,1,0.6,1.6,0.4c0.4,1.8,0,2-0.9,1.3
		C162.7,88.8,162.5,88.2,162.3,87.7z M131.8,110.2c0.4,1.1,0.8,2.2,1.2,3.4C132,115.1,129.4,109.6,131.8,110.2z M109.9,128.8
		c1,2.2-0.1,2.5-0.7,3.1C109.1,130.5,108.3,128.5,109.9,128.8z M32.2,343.6c0.1-1.4,0.1-0.1,0.3,0.8
		C30.6,343.5,29.8,341.5,32.2,343.6z M35.4,375.6c-0.1-0.6,0-0.8,0.3-1c-9.8-89.7,20.6-179.4,82-244.6c-0.7-0.8-1.4-2.1-2.1-3.4
		c1.2,0.1,2.2,0.9,3.2,2.2c19.7-20.7,42.5-38.8,68.1-53.6c-0.1-0.1-0.1-0.3-0.2-0.4c0.3-0.1,0.6-0.2,0.8-0.3l0-1.4l0.9,0.1
		c-0.2-0.6-0.4-1.1-0.6-1.7c0.3-0.1,0.6-0.2,0.8-0.3c0.3,0.8,0.6,1.6,0.9,2.5c8.3-4.7,16.9-9.1,25.9-13.1c6.8-3,13.6-5.8,20.5-8.3
		c-0.2-0.6-0.4-1.2-0.7-2c0.6,0.9,1.3,1.1,1.9,1.5c1.7-0.6,3.5-1.2,5.2-1.8c-1-0.7-1.6-3.1-2.2-5.4c1.5-0.5,2.6,1.6,3.7,4.8
		c37.8-12.6,76.7-17.4,114.8-15.1c-0.3-1.2-0.2-2,0.6-2.1c0.7,0.6,0.9,1.4,0.9,2.2c63.3,4.1,124.2,27.8,173.6,67.7
		c0.1,0,0.2,0,0.3-0.1c0,0.1,0,0.2,0,0.3c19,15.3,36.3,33.1,51.5,53l-16.8,7.5c-1.2-1.5-2.4-3-3.7-4.5c0.9,2.1,1.1,3.5-0.1,3.7
		c-0.6-0.6-1.1-1.7-1.7-3.2c0.5-0.2,1.1-0.4,1.6-0.6c-2.4-2.9-4.8-5.8-7.2-8.6c0,0-0.1-0.1-0.1-0.1c0,0,0,0,0,0
		c-27.1-30.8-60.5-55.5-98.5-72.4c-0.2,0.6-0.6,0.3-0.7-0.3c-7.4-3.3-15-6.3-22.7-9c-16.1-5.6-32.4-9.7-48.8-12.4
		c0,0.9-0.4,1.3-1.2,1.4c0-0.5,0-1-0.2-1.6c-57.8-9.2-117-0.5-170.8,25.5c-39.6,19.2-73.5,46.4-100.1,79.8c0.3,0.1,0.6,0.2,0.7,0.3
		c1.3,4.2-0.9,4.1-2.5,2c-11.9,15.3-22.3,31.8-31,49.3c0,0,0,0,0,0c0.2,0.6,0.4,1.1,0.6,1.7c-0.4,0.4-0.8,0-1.1-0.6
		c-5.2,10.6-9.8,21.6-13.7,32.9c-16.6,47.7-20.2,97.8-11.5,146.2l-16.8,7.5c-1.5-7.9-2.8-15.9-3.7-23.8
		C35.7,375.8,35.5,375.7,35.4,375.6z M557,156.5C558.1,160.4,554.2,156.7,557,156.5L557,156.5z M521.1,119.3
		c0.2,1.1,0.1,1.9-0.6,2.1c-0.6-1.3-0.1-1.6-0.5-2.7C520.4,118.8,520.7,119.4,521.1,119.3z M507.7,114.7c-0.8-1.7-0.5-2.3-0.8-3.5
		C508.1,110.9,509.3,114.8,507.7,114.7z M444.1,75.3c-0.6-0.2-1.3-0.7-1.8-2.2C443,73.3,443.6,73.9,444.1,75.3z M209.7,88.3
		C209.6,91.6,207.1,84.4,209.7,88.3L209.7,88.3z M146,138.3c-0.2,4.2-4.3-3.7-2-4.1C145.5,136.2,144.6,137.4,146,138.3z M140,141.5
		c-0.4,0.2-0.8,0.3-1.3,0.5c-0.5-1.5-2-4.1-0.4-3.7C138.9,139.8,139.5,139.8,140,141.5z M102.4,186.7c1.2,2.6,1,3.9-0.4,4
		C100.6,187.9,101.5,187.3,102.4,186.7z M91,207C91.6,210.2,85.4,205.6,91,207L91,207z M62.5,292.5c-1.5,1-2.3,3.1-4.2,1.5
		C58.3,292.2,61.5,291.7,62.5,292.5z M58.2,368.2l0-1.4c0,0,0.9,0.1,0.8-2.7c0.5,0,0.9,1.2,1.3,2.4c-0.4,0.2-0.8,0.3-1.3,0.5l0,1.4
		c0,0-0.9-0.1-1.1,1.9C58.2,367.6,57.1,369.8,58.2,368.2z M58.9,384.2c1-0.5,2-0.9,2.8-0.1C62.1,385.4,59.3,387,58.9,384.2z
		 M62.6,390.4c0.6,2.6-1.2-0.5-1.7,0.6C60.2,388.9,62.2,390.2,62.6,390.4z M44.1,435.2c-0.3,0.3-0.5-0.2-0.7-0.7
		c-0.2-0.5-0.4-1.1-0.6-1.7c0.4-0.2,0.8-0.3,1.3-0.5C44.3,433.5,43.8,434,44.1,435.2z M37.9,415.6c-0.7-0.2-1.3-0.7-1.8-2.2
		C36.7,413.6,37.3,414.2,37.9,415.6z M95.2,522.8c-0.6,0.4-1,0.1-1.5-0.6l-0.5,0.2c-5-6.8-9.7-13.9-14.1-21.2
		c6.5-2.3,11-2.4,16.3-2.5c7.4-0.1,15.7-0.3,29.3-6.3c13.6-6.1,19.3-12.2,24.3-17.6c0.7-0.7,1.3-1.4,1.9-2.1c-0.3-1-0.2-2,0.7-2
		c0.2,0.2,0.4,0.5,0.5,0.7c3.3-3.3,7-6.2,14.1-9.4c9.3-4.2,14.5-4.3,20.9-4.4c4.5-0.1,9.4-0.2,15.6-1.6c0-0.1,0-0.2-0.1-0.3
		c0.2,0,0.4,0.1,0.5,0.2c3.8-0.9,8.2-2.4,13.3-4.6c13.6-6.1,19.3-12.2,24.3-17.6c0.1-0.1,0.2-0.3,0.4-0.4c-1-2-2.1-3.9-3-5.9
		c-0.5-1.1-0.9-2.2-1.4-3.4c-0.1,0.1-0.2,0.2-0.3,0.3c0-0.1,0-0.2,0-0.3c-2.5,2.2-4.5,4.4-6.4,6.5c-4.4,4.8-7.9,8.5-17.2,12.7
		c-9.3,4.2-14.5,4.3-20.9,4.4c-7.4,0.1-15.7,0.3-29.3,6.3c-13.6,6.1-19.3,12.2-24.3,17.6c-4.4,4.8-7.9,8.5-17.2,12.7
		c-9.3,4.2-14.5,4.3-20.9,4.4c-5.8,0.1-12.3,0.2-21.5,3.3c1.2,3.1,0.8,4.7-0.3,5.7c-1.6-3.5-0.8-4.6,0.2-5.7
		c-1.3,0.4-2.7,0.9-4.2,1.5c-2.9-5.1-5.6-10.2-8.2-15.5c7.8-3.1,12.6-3.2,18.4-3.3c7.4-0.1,15.7-0.3,29.3-6.3
		c6.8-3.1,11.7-6.1,15.4-9.1c-0.7,0.2-1.1-2.7-1.9-1.4c-0.5-2.1,2-1.2,2.3,1.1c0,0,0,0-0.1,0.1c3.5-2.9,6.1-5.6,8.5-8.2
		c2.6-2.8,4.8-5.2,8.2-7.6c0-0.2,0-0.5,0-0.8c0.2,0,0.3,0.2,0.5,0.4c0.3-0.2,0.6-0.4,0.9-0.6c-0.2-0.3-0.3-0.6-0.5-1.1
		c0.5-0.5,0.9-0.1,1.3,0.6c1.9-1.2,4.1-2.4,6.9-3.6c1.6-0.7,3-1.3,4.4-1.8c-0.2-0.4-0.5-0.8-0.7-1.5c1.4-1.3,2.5,0.6,3.7,0.5
		c0.1,0,0.1,0,0.2-0.1l-0.7-1.1l0.8,0.2c0.3-0.1,0.6-0.2,0.8-0.3c0.2,0.5,0.4,1,0.7,0.7c0,0.1,0,0.1,0,0.1c4.2-1,7.6-1,11.6-1.1
		c7.1-0.1,15.1-0.3,27.8-5.7c0.2-0.6,0.8-0.8,1.4-0.6c0,0,0,0,0,0c13.6-6.1,19.3-12.2,24.3-17.6c0.7-0.7,1.3-1.4,2-2.1
		c0-0.2-0.1-0.4-0.1-0.5c-0.7-3.4-1.2-6.9-1.7-10.6c-4.8,3.5-8,6.9-10.9,10.1c-4.4,4.8-7.9,8.5-17.2,12.7
		c-9.3,4.2-14.5,4.3-20.9,4.4c-1.2,0-2.5,0-3.9,0.1c0.1,0.2,0.1,0.4,0.2,0.7c-0.5,0.3-1,0.1-1.5-0.6c-2.8,0.1-5.8,0.5-9.2,1.2
		c0.4,0.4,0.7,0.8,1,1.1c0.1,0.9-1.4,0-2.6-0.7c-3.8,0.9-8.2,2.4-13.3,4.6c-13.6,6.1-19.3,12.2-24.3,17.6
		c-4.4,4.8-7.9,8.5-17.2,12.7c-9.3,4.2-14.5,4.3-20.9,4.4c-6.9,0.1-14.8,0.3-27,5.4c-0.5-1.2-1.1-2.3-1.6-3.4
		c-1.9-4.2-3.6-8.4-5.3-12.6c7.8-3.1,12.5-3.2,18.4-3.3c6-0.1,12.7-0.2,22.3-3.5c-0.2-0.4-0.3-0.9-0.5-1.3c0.5-0.2,1.1,0.1,1.6,0.4
		c0,0.1,0.1,0.3,0.1,0.5c1.8-0.7,3.7-1.4,5.8-2.4c13.6-6.1,19.3-12.2,24.3-17.6c4.4-4.8,7.9-8.5,17.2-12.7
		c9.3-4.2,14.5-4.3,20.9-4.4c7.4-0.1,15.7-0.3,29.3-6.3c13.6-6.1,19.3-12.2,24.3-17.6c0.5-0.5,1-1.1,1.5-1.6c-0.7-0.3-1.3-0.4-2-0.4
		c-0.1-1.7,1.9-1.5,2.3-2.8c0.3,0.8,0.7,1.3,1.1,1.8c2-2,4-3.8,6.8-5.7c0-1.2,0-2.5-0.1-3.7c-0.8,0.5-1.3-1.5-2.1-1.2
		c-1.3-1.7-0.1-3.6-1.2-3.4c0.1-0.1,0.1-0.3,0.2-0.4c-8.6,4.9-13.1,9.7-17.1,14c-4.4,4.8-7.9,8.5-17.2,12.7
		c-9.3,4.2-14.5,4.3-20.9,4.4c-5.3,0.1-11.1,0.2-19,2.5c0.3,0.7,0.5,1.4,0.8,2.2c-0.5,2.4-2.3,3.6-3,5.9c-1.9-1.9-1.7-1.2-3.4-1.6
		c-0.3-1.7-0.5-3.1-0.6-4.4c-1.3,0.5-2.7,1.1-4.1,1.7c-13.6,6.1-19.3,12.2-24.3,17.6c-4.4,4.8-7.9,8.5-17.2,12.7
		c-9.3,4.2-14.5,4.3-20.9,4.4c-1.3,0-2.7,0-4.1,0.1c1,3.5,0.7,7.2,3.7,8.8c-1.6,2.8-4.7-3-6.9-8.6c-4.7,0.4-10.1,1.4-16.9,4
		c0,0,0,0,0,0.1c0,0-0.1,0-0.1,0c-0.6,0.2-1.2,0.5-1.9,0.7c-0.3-0.8-0.5-1.5-0.8-2.3c-0.1,0-0.2-0.1-0.2-0.1c-0.1-0.5-0.2-1-0.3-1.4
		c-1.5-4.2-2.9-8.4-4.1-12.7c6.5-2.3,10.9-2.4,16.2-2.5c5.9-0.1,12.4-0.2,21.6-3.3c-0.3-0.4-0.5-0.9-0.7-1.6c0.7-0.4,1.3,0.7,2,0.2
		c0.1,0.3,0.2,0.6,0.2,0.9c2-0.7,4-1.5,6.3-2.5c13.6-6.1,19.3-12.2,24.3-17.6c4.4-4.8,7.9-8.5,17.2-12.7c9.3-4.2,14.5-4.3,20.9-4.4
		c7.4-0.1,15.7-0.3,29.3-6.3c6.7-3,11.5-6,15.2-8.9c-0.1-0.1-0.3-0.3-0.3-0.3c-0.3-1.8,0.4-1,1.1-0.3c1-0.8,1.8-1.6,2.7-2.3
		c-0.5-0.2-0.9-0.9-1.3-2.1c0.8,0.1,1.6-0.2,2.3,1.1c1.7-1.6,3.2-3.2,4.6-4.8c1.4-1.5,2.8-3,4.2-4.4c-1.1-1-2.1-0.8-2.6-0.8
		l-0.6,0.7l-1-1.1c-1.7-0.4-3.3-1.6-5-2c0.1-2.5,1.8-1,1.5-3c-3,2.5-5.2,5-7.4,7.3c-4.4,4.8-7.9,8.5-17.2,12.7
		c-6.8,3-11.3,3.9-15.8,4.2c0.9,1.1,1.9,0.8,2.8,1.5c-0.3,1.9-2.5-0.4-4-1.5c-1.3,0.1-2.6,0.1-4,0.1c-7.4,0.1-15.7,0.3-29.3,6.3
		c-3.7,1.7-6.8,3.3-9.5,5c0.2,0.4,0.3,0.9,0.5,1.4l0.3,0.8l-0.4,0.2c0.2,0.5,0.4,1,0.7,0.7c0.3,0.8,0,1.1,0.2,1.8
		c-0.4,0.2-0.7-0.5-1.1-0.5c-0.3-0.8,0-1.1-0.2-1.8l-0.4,0.1l-0.3-0.8c-0.2-0.5-0.3-0.8-0.3-1.1c-1.7,1.1-3.2,2.1-4.5,3.2
		c0.2,0.2,0.4,0.4,0.6,0.5c0.1,1.4-0.6,1-1.3,0.1c-3.5,2.8-6.1,5.6-8.5,8.2c-2.5,2.7-4.7,5.1-7.9,7.5c0.2,1.2,0.4,2.3,0.8,3.7
		c-0.7-1-1.5-1.7-2.3-2.7c-2.1,1.4-4.6,2.8-7.8,4.2c-9.3,4.2-14.5,4.3-20.9,4.4c-0.9,0-1.9,0-2.8,0.1c0.2,0.4,0.5,2.4-0.6,2
		c-1-0.4-0.1-1,0.5-1.1c-0.1-0.5-0.1-0.7,0-0.8c-5.5,0.2-11.9,0.8-20.5,3.9c-1-3.9-2-7.7-2.9-11.6l190.2-85.1
		c0.4-3.3,0.7-6.7,1.2-10.2l-21.3,9.5c0.5,0.7,1.1,0.2,1.7,0.8c0.6,2.2-3.2,0.2-0.8,4.1c-1.2,0.2-2.1-3.3-3.2-3.6
		c-0.2,0-0.2,0.1-0.2,0.3c0-0.1,0-0.3,0-0.5l-7.1,3.2c0.3,1.2,1.2,1.8,1,3.1c-0.4,0.2-1.2-1.5-1.6-2.9L64.7,388.6
		c-8-46.2-4.3-94,11.5-139.6c20.7-59.7,60-109.5,112.2-143.2c-0.2-0.6-0.4-1.2-0.7-1.8c0.4,0.5,0.9,0.9,1.3,1.4
		c9.5-6.1,19.5-11.7,29.8-16.7c0.6-0.3,1.1-0.5,1.7-0.8c-0.2-0.3-0.4-0.8-0.6-1.4c0.7,0.5,1.5,0.4,2.2,0.7c1.5-0.7,3.1-1.5,4.6-2.2
		C278,62,333.9,55.1,388.4,64.6c0.1-0.1,0.1-0.2,0.2-0.2c-0.5-1-1.2-1.5-1.8-1.2c-0.3-0.7-0.1-0.8,0.1-1c-0.2-0.6-0.4-1.1-0.6-1.7
		c2.5,1.2,3.1,0.8,5,2c0.2,1.3-0.1,1.9-0.1,2.6c2.4,0.4,4.8,0.9,7.2,1.4c-0.2-0.7-0.5-1.4-1.3-2.4c0.2-0.5,0.5-1,0.2-2
		c2,0.4,2.8,3.9,4.2,1.3c1,2.6,2.2,3.6,3.4,4.5c9.4,2.2,18.8,4.9,28,8.1c51,17.7,94.9,49.1,127.6,90.5l-133.1,59.6
		c0.2,0.5,0.4,0.7,0,0l-7.5,3.4c0.1,0.3,0.2,0.6,0.4,0.9c-0.2,0.2-0.6-0.1-1-0.6l-26.8,12c2.9,2,5.7,4,8.4,5.9l65.5-29.3
		c-0.1-1.8-1.4-4.7,0.1-4.9c0.6,2.1,1.4,1.6,1.9,4l4.6-2c-0.2-0.6-0.3-1.1-0.2-1.4c0.5,0,0.9,0.6,1.3,0.9l16.6-7.4
		c-0.4-0.9-0.2-2.5,0.6-2.2c0.6,1.2,0.3,1.5,0.1,1.9l31.7-14.2c-0.7-1.6,0.4-1.6-0.2-3.1c0.4,0,0.7,0.7,1.1,0.5c0,0.7,0.1,1.5,0,2.1
		l38.3-17.2c0,0,0,0,0,0c-0.2-1.7,0.3-1.1,1-0.4l13-5.8c-0.7-0.9-1.3-1.9-1.1-2.3c0.3-0.5,0.8,1.2,1,1.5c0.2,0.2,0.3,0.4,0.5,0.6
		l13.7-6.1l0.8,0.3c2.2,3.1,4.3,6.2,6.4,9.4c-8.5,4.6-13.2,9.1-17.2,13.3c0.1,0,0.2-0.1,0.3-0.1c0.8,2,1.6,4,1.4,5.2
		c-1.5,0.2-0.2-4.4-2-3.1c-0.2-0.6,0-0.9-0.1-1.5c-0.3,0.3-0.6,0.7-1,1c-1.5,1.6-2.9,3.1-4.5,4.6c0.2,0.5,0.4,1,0.6,1.5
		c-0.3,0.1-0.6,0.2-0.8,0.3c-0.1-0.4-0.3-0.8-0.4-1.2c-2.9,2.5-6.4,4.9-12,7.5c-9.3,4.2-14.5,4.3-20.9,4.4c-7.2,0.1-15.5,0.3-28.6,6
		c2,2.7,2.2,7.5-0.4,7.2c-1-3-2.4-3.9-3.2-5.5c-5.3,2.6-9.3,5.2-12.5,7.8c0.3,0.8,0.6,1.5,0.8,2.3c-0.7,0.3-1.3-0.4-1.8-1.5
		c-3.2,2.7-5.6,5.2-7.8,7.7c-2.2,2.4-4.2,4.5-6.8,6.6c-0.1,1.4-1,2.2-1.9,1.4c-2.2,1.6-4.9,3.1-8.5,4.7c-9.3,4.2-14.5,4.3-20.9,4.4
		c-7.4,0.1-15.7,0.3-29.3,6.3c-3,1.3-5.6,2.7-7.9,4c2.7,2,5.3,4,7.8,6c1.1-0.6,2.3-1.2,3.7-1.8c1.4-0.6,2.7-1.1,3.9-1.6
		c-0.1,0-0.2-0.1-0.2-0.1c-0.1-0.4-0.2-0.7-0.2-0.9c0,0-0.1-0.1-0.1-0.1c0,0.1,0,0.1,0,0.1l-0.5,0.6l-0.8-0.2
		c-1.4,1.7-2.1-2.4-3.3-2.6c-0.3-2.1,2.5-1.3,3,1.8l0.6-0.7c0,0,0.3,0.3,0.9,1c0-0.2-0.1-0.5,0.1,0.1c0.2,0.2,0.5,0.5,0.8,0.8
		c6.8-2.5,11.3-2.6,16.7-2.6c7.4-0.1,15.7-0.3,29.3-6.3c13.6-6.1,19.3-12.2,24.3-17.6c4.4-4.8,7.9-8.5,17.2-12.7
		c9.3-4.2,14.5-4.3,20.9-4.4c1.1,0,2.1,0,3.2-0.1c-0.2-0.1-0.3-0.2-0.5-0.1c-0.3-1,0.6-0.9,0.2-2c0.5,0,0.8,1.1,1.2,2.1
		c6.4-0.3,14-1.3,25.1-6.2c13.6-6.1,19.3-12.2,24.3-17.6c3.6-3.9,6.6-7.1,12.7-10.4c3,4.9,5.9,10,8.7,15.1
		c-11.4,5.6-16.7,11.2-21.3,16.2c-4.4,4.8-7.9,8.5-17.2,12.7c-9.3,4.2-14.5,4.3-20.9,4.4c-1.2,0-2.4,0-3.7,0.1c0,0.1,0,0.3,0,0.4
		c-0.2-0.1-0.3-0.3-0.4-0.4c-6.5,0.3-14.1,1.2-25.3,6.2c-13.6,6.1-19.3,12.2-24.3,17.6c-4.4,4.8-7.9,8.5-17.2,12.7
		c-9.3,4.2-14.5,4.3-20.9,4.4c-5,0.1-10.6,0.2-17.9,2.2c0.2,0.6,0.4,1.1,0.6,1.7c-1.1,0.3-2.1,0.3-3-1c-1.5,0.5-3.1,1-4.8,1.7
		c2.7,2.4,5.3,4.7,7.7,7c4.7-1.2,8.4-1.3,12.7-1.4c7.4-0.1,15.7-0.3,29.3-6.3c13.6-6.1,19.3-12.2,24.3-17.6c4.1-4.4,7.4-8,15.4-11.9
		c-0.8-2.1-0.9-4.5,0.7-4.4c1.1,1.6,0.6,3.1,0.6,3.8c0.1-0.1,0.3-0.1,0.4-0.2c9.3-4.2,14.5-4.3,20.9-4.4c7.4-0.1,15.7-0.3,29.3-6.3
		c13.6-6.1,19.3-12.2,24.3-17.6c3.5-3.8,6.5-7,12.2-10.2c-0.9-1.3,0.5-3.2,0-4.9c0.8-0.5,1.2,2.7,1.9,3.9c0.2-0.1,0.4-0.2,0.6-0.3
		c2,4.1,4,8.2,5.9,12.3c0.5,1.2,1,2.3,1.5,3.5c-5.7,2.7-9.9,5.5-13.3,8.2c0.3,0,0.6,0,0.7,0c1.2,4.1-2.3-0.4-1.8,1.6
		c-0.2-0.2-0.3-0.3-0.4-0.4c-3,2.5-5.2,5-7.4,7.3c-4.4,4.8-7.9,8.5-17.2,12.7c-9.3,4.2-14.5,4.3-20.9,4.4c-0.9,0-1.9,0-2.8,0.1
		c1.1,2-1.1,2.7-1.4,0.1c0.1,0,0.2-0.1,0.3-0.1c-2.2,0.1-4.6,0.3-7.2,0.6c0,0,0,0,0,0.1c-0.3,0.1-0.6,0.2-0.8,0.3
		c0-0.1-0.1-0.2-0.1-0.2c-4.8,0.8-10.4,2.3-17.3,5.5c-13.6,6.1-19.3,12.2-24.3,17.6c-4.4,4.8-7.9,8.5-17.2,12.7
		c-9.3,4.2-14.5,4.3-20.9,4.4c-4.3,0.1-8.9,0.2-14.7,1.4c0.2,0.2,0.5,0.5,0.7,0.8c2.4,2.7,4.4,5.4,6.4,8.1c0.9,0,1.9-0.1,2.9-0.1
		c1,0,2.1,0,3.1-0.1c0-0.8,0.1-1.4,0.7-1.3c0.2,0.5,0.3,0.9,0.4,1.3c0.8,0,1.7-0.1,2.6-0.2c-0.9-2.2-1.8-4.7-3-5
		c-1.2-2.6,1.7-1.3,1.2-3.3c0.9-0.1,1.4,3.7,2.5,2.9l-0.2-1.3l0.8,0.2c-0.9-2.1-0.4-3,0.8-3.1c2.2,3,0.9,3.6,2,6.9
		c-0.4,0.2-0.7-0.5-1.1-0.5l0.3,0.8l-0.4,0.2c-0.7,0.2-0.6,1.1-0.5,2.1c3.5-0.4,7.4-1.2,12.1-2.7c-0.7-1.7-0.6-2.7,0.4-2.8
		c0.6,1.3,0.6,2.2,0.3,2.6c2.4-0.8,4.9-1.8,7.6-3c13.6-6.1,19.3-12.2,24.3-17.6c4.4-4.8,7.9-8.5,17.2-12.7
		c9.3-4.2,14.5-4.3,20.9-4.4c7.4-0.1,15.7-0.3,29.3-6.3c2.9-1.3,5.4-2.6,7.6-3.9c0.1-0.4,0.4-0.6,0.9-0.5c2.7-1.6,4.9-3.2,6.9-4.7
		c-0.1-0.9,0.1-1.4,0.8-1.5c0.1,0.2,0.2,0.5,0.3,0.7c3.2-2.7,5.5-5.2,7.8-7.7c4-4.3,7.2-7.8,14.7-11.5c2.2,5.5,4.2,11,6.1,16.5
		c-11.1,5.5-16.2,11-20.7,16c-4.4,4.8-7.9,8.5-17.2,12.7c-9.3,4.2-14.5,4.3-20.9,4.4c-7.4,0.1-15.7,0.3-29.3,6.3
		c-13.6,6.1-19.3,12.2-24.3,17.6c-1.4,1.6-2.8,3-4.3,4.4c0.1,0.2,0.2,0.3,0.4,0.3c0.2,3.1-0.1,0.9-0.8,0.3l-0.5,0.6l-0.2-0.3
		c-2.8,2.5-6.3,4.8-11.8,7.3c-9.3,4.2-14.5,4.3-20.9,4.4c-2.9,0-6,0.1-9.4,0.5c0.5,1,1.1,2.1,1.6,3.1c1,2.1,1.8,4.3,2.6,6.5
		c0.2,0,0.3,0,0.5,0c7.4-0.1,15.7-0.3,29.3-6.3c1.5-0.7,2.9-1.4,4.3-2.1c-0.1-0.2-0.1-0.4-0.1-0.6c0.3-0.1,0.6-0.2,0.8-0.3
		c0.1,0.2,0.1,0.4,0.2,0.5c9.9-5.2,14.8-10.4,19.1-15.1c4.4-4.8,7.9-8.5,17.2-12.7c9.3-4.2,14.5-4.3,20.9-4.4
		c6.2-0.1,13.1-0.2,23.1-3.8c-0.2-1.5,0.5-2.2,1.1-3c0.1,0.8,0.3,1.7,0.4,2.5c1.5-0.6,3.1-1.2,4.7-2c13.6-6.1,19.3-12.2,24.3-17.6
		c3.6-3.9,6.6-7.1,12.7-10.5c2.2,7.2,4.2,14.4,5.8,21.7c0,0,0,0,0,0l0.1,0.3c0.2,0.9,0.3,1.8,0.5,2.7l-68.5,30.6
		c0.1,0.2,0.1,0.3,0.2,0.5c-0.4,0.2-0.8,0.3-1.3,0.5c-0.1-0.1-0.1-0.3-0.2-0.4l-89.2,39.9c0.5,2.4,0.9,4.8,1.3,7.3
		c0.1,0.6,0.1,1.2,0.2,1.7l103.8-46.4c0.1-0.1,0.2-0.2,0.3-0.4c0,0.1,0.1,0.1,0.1,0.2l19.8-8.8c0-0.2,0-0.4-0.1-0.5l-0.3-1.3
		l0.8,0.2c-0.6-2,0.4-2.3,1.4-1.5c0.3,1.2-0.6,1.3-0.6,2.1l0.2,0.4l8.6-3.8c5.9,37.8,3.9,75.9-5.2,112.1c0,0.1,0,0.1,0.1,0.2
		l0.8,0.2l0.3,1.3c0.4-0.1,0.7,0.5,1.1,0.5c0.7,1.4-1.8,2.3-2-0.2l-0.5,0.7l-0.3-0.6c-0.9,3.5-1.9,7.1-3,10.6
		c0.5,0.4,1.1,0.9,1.4,0.7c0.4,2.2-0.9,0.9-1.6,0.1c-8.8,28.7-22.1,55.9-39.5,80.5c0.1,0,0.3-0.1,0.4-0.1c0,0.8,0.1,1.5,0.5,2.7
		c-0.9-0.1-1.3-0.8-1.3-2c-5.2,7.3-10.7,14.3-16.6,21.1c1.3,2.3-1.2,1,0.3,3.5c-0.5-0.1-0.9-1.2-1.4-2.3c-3.4,3.8-6.9,7.6-10.5,11.3
		c0.7,1.3,1.5,1,2.1,3.1c-1.3,0.8-2-3.5-3.4-1.6c0-0.1,0-0.1-0.1-0.2c-8.4,8.5-17.4,16.4-27,23.8c-0.2,0.5-0.8,0.6-0.4,1.6
		c-0.3-0.1-0.6-0.4-0.8-0.7c-5,3.8-10.1,7.5-15.4,10.9l0.2,0.9l-0.8-0.2c0.4,1.6-0.3,1.1-0.9,0.3c-5.2,3.4-10.6,6.7-16.1,9.8
		c0.4,2,0.1,3.7-1.3,4.2c-0.4-0.7-0.7-1.9-1.1-3c-3.7,2-7.5,4-11.4,5.9c0.4,0.4,0.7,0.8,0.8,1.3l0.7,1.2l-0.8-0.2
		c0.7,1.6,0.1,1.9,0.1,2.8c-1.1,0.2,0.1-1.6-1.2-3.3l-0.5,0.6l-0.3-1.3c-0.2-0.1-0.3-0.2-0.5-0.3c-3.4,1.7-6.9,3.3-10.4,4.8
		c0.2,1.1,0.6,2.4-0.3,2.5c-0.3-0.8-0.4-1.6-0.4-2.1c-16,6.9-32.3,12.2-48.8,15.9c0.4,0.4,0.8,0.7,1.1,0.1c0.2,2.2-0.9,1.1-1.8,0.1
		c-4.7,1.1-9.4,2-14.1,2.8c-0.4,0.7-1,1.1-2.4,1.1l0.6,1.2l-0.8-0.2c-0.8,0.6-1.5-0.3-1.9-1.4c-22,3.4-44,4-65.8,2.2
		c0.6,1.6,0.9,2.8,0.9,3.7c-0.9,1.1-1.5-0.8-2.4-0.1c-0.8-2.1-0.4-3.1,0.4-3.7c-12.4-1.1-24.7-3-36.9-5.8c-0.2,0.1-0.3,0.1-0.4,0.3
		c0-0.1-0.1-0.3-0.1-0.4c-14.6-3.3-28.8-7.8-42.7-13.3l1,0.7l0.4,1.6c0.6-0.1,1,0.9,1.6,0.4c0.7,1.4-1.8,2.4-2-0.2l-0.7-1.2
		l-0.2-1.3c-37.2-15-71.3-37.9-99.5-67.7c-0.3-0.1-0.5-0.1-0.8,0c-0.3-0.6-0.5-1.1-0.6-1.5c-4.1-4.4-8-8.9-11.8-13.5l5.1-2.3
		c0.1-0.1,0.2-0.1,0.3-0.1l0.1-0.1l0.4-0.6l0.6,0.1l0.2-0.1c-0.1-1.4,0.7-1.2,1.4-0.6l39-17.5c-0.5-0.7-0.1-2.2,0.8-1.7
		c0.2,0.8-0.3,0.9-0.3,1.5l31.5-14.1c-0.3-1-0.5-1.8-0.4-2.4c0.6,0.3,1.4,0.8,2.1,1.7l14.7-6.6c-0.4-1.2-0.8-2.5-2-3.4
		c-0.5,0.3,0.2,1.7,0.5,2.7c-0.9,0.6-1.6,0.4-2.4-0.1c0.4-2.2,0.3-4.8,1.5-6.2c1.2,1.4,2.3,3.3,3.6,3.4c-0.2,1.4-0.4,1.9-0.4,3.3
		l3.8-1.7c-0.4-0.9-0.6-1.8-0.5-2.6c1-1.2,1.5,1.3,2.3,1.8l10.5-4.7c-0.2-0.2-0.3-0.5-0.5-0.7c0.4-0.1,0.8,0.1,1.2,0.4l20.5-9.2
		c-2-2.3-3.9-4.7-5.6-7.1l-91,40.7c0.5,4.2-1.7,2.2-0.2,0.1l-13.6,6.1c0.1,1.1-0.8,1.4-1.5,0.7l-51.2,22.9
		C94.9,522.1,95,522.4,95.2,522.8z M167.4,457.4c-0.5-2.2,1.7,1.1,2.4,0.1C170.6,460.7,168.4,458.4,167.4,457.4z M199.8,449.3
		c-0.1-1.5,0.4-2.3,1.4-1.5C201.7,449.8,200.7,450.1,199.8,449.3z M80.7,465.5c0.7,0.1,1.2,1.2,1.9,1.2
		C83.2,468.8,81,467.3,80.7,465.5z M192.7,426.2c-0.2-0.6-0.4-1.1-0.6-1.7c0.3-0.1,0.6-0.2,0.8-0.3c0.2,0.6,0.4,1.1,0.6,1.7
		C193.3,426,193,426.1,192.7,426.2z M205.7,421l0.5-0.7c-0.5-1.5,0-2.2,1-2.3c0.4,1.1,0.5,1.9,0.5,2.7c-0.1,0.1-0.3,0.1-0.4,0.2
		l0.7,1.2l-0.5,0.6c0.4,1.4-0.7,0.9-1.3,0.5c-0.2-0.5-0.3-1,0.1-1L205.7,421z M88.8,442.5c-0.3-1.2,0.8-1.1,1.3-1.4
		C90.7,443.6,89.9,442.3,88.8,442.5z M129.3,419.1c1.2-0.9,2.1,0.6,3.1,0.8C132.6,421.8,129.8,422.1,129.3,419.1z M180,404.3
		c-0.4-1.6-2.4-4.8-0.7-4.5C180,400.4,181.2,404,180,404.3z M198.8,392.6c-0.2-1.1-0.1-1.9,0.6-2.1
		C199.6,391.6,199.5,392.4,198.8,392.6z M211.6,381.2C212.7,385.2,208.8,381.5,211.6,381.2L211.6,381.2z M221.8,375.6
		c-0.5-2.1,2-1.2,2.3,1.1C223.1,378.2,222.8,374.1,221.8,375.6z M132.2,388.6c-0.3-0.8-0.6-1.7-0.9-2.5c0.6,0.1,1.2,1.2,1.9,1.2
		C133.4,388.3,132.6,388.3,132.2,388.6z M160.9,378c0.7-0.4,1.3,0.7,2,0.2C163.5,379.7,161.1,380.6,160.9,378z M90.1,379.3
		c0.8-0.1,1.5,1.1,2.1,3C91.2,383.7,90.8,380.8,90.1,379.3z M95.9,377.2c0,0,0.4-0.2,0.4-0.2C98.2,380.9,92.2,374,95.9,377.2z
		 M172,345.4c0.8,1.2,2-0.9,2.6,1.9C173.6,348,172.7,347.7,172,345.4z M194.1,333.5c-0.1-1.6,1.4-1.6,1.9-2.6
		C196.4,333,195.6,335,194.1,333.5z M199.5,331.5c1-0.5,1.8,0.9,2.7,0.9C202.5,334.5,199.9,334.2,199.5,331.5z M220.2,327.7
		c-0.6-1.3-0.1-1.6-0.5-2.6c0.5,0,0.9,1.5,1.4,1.3C221.5,327.4,220.7,327.4,220.2,327.7z M222.2,320.3c0.6-0.2,1.1-0.4,1.7-0.6
		C225.4,322.8,223.1,323.7,222.2,320.3z M556.8,172.7c0.2,1.1,0.1,1.9-0.6,2.1C554.7,172.1,555.7,171.7,556.8,172.7z M592.4,183.4
		c-0.4,0.2-0.8,0.3-1.3,0.5c-0.3-1.1,0.2-1.6-0.1-2.8C591.5,181,591.9,182.4,592.4,183.4z M558.1,204.5c0.2,0.6,0.4,1.1,0.6,1.7
		c-0.3,0.1-0.6,0.2-0.8,0.3c-0.2-0.6-0.4-1.1-0.6-1.7C557.6,204.7,557.8,204.6,558.1,204.5z M552.5,204.7
		C554.7,206.3,551.1,207.5,552.5,204.7L552.5,204.7z M468.8,247.8c0.9,2.1-0.1,2.5-0.8,3.1c-0.5-0.7-0.9-1.4-1.4-1.3
		C465.8,246.7,467.7,247.8,468.8,247.8z M601.2,204.9c0.3,0.8,0.6,1.7,0.9,2.5c-1.3,0.7-2.3-0.3-3.3-2.6
		C599.6,204.2,600.4,204.3,601.2,204.9z M580.8,227.6C583.2,229.5,580.5,230.9,580.8,227.6L580.8,227.6z M545.9,232.8
		C546.7,235.6,544.2,227,545.9,232.8L545.9,232.8z M528.4,235.4C525.9,233.4,528.6,232.1,528.4,235.4L528.4,235.4z M610.3,234.8
		C608.2,233.3,609.9,230.3,610.3,234.8L610.3,234.8z M582.2,250.8c0.6,1.9-0.4,2.2-1.5,2.5C580.4,251.4,580.7,249.4,582.2,250.8z
		 M556.2,258.5c0.5,2.4,1.1,3.4-0.9,1.3C555,258.7,555.8,258.7,556.2,258.5z M524.2,270.2c0.7,0.8,1.6-0.3,2.2,2
		c-0.6,0.2-1.2,0.3-0.9,1.3C524.3,273.8,525.5,271.9,524.2,270.2z M502.7,288.6c-0.6-1.5-0.2-2-0.8-3.5
		C502.5,284.5,504.3,289.5,502.7,288.6z M630.2,245.5c0.8,1.7,0,1.8-0.6,2.1c-0.2-0.7,0.1-1-0.2-1.8
		C629.7,245.7,630,245.6,630.2,245.5z M613.1,267c-1-0.3-0.6-1.5-0.9-2.5C613.2,264.8,612.8,266,613.1,267z M513.1,313.2
		c0.6,1.3,0.1,1.6,0.5,2.7c-0.4,0-0.7-0.7-1.1-0.5c-0.2-0.6-0.4-1.1-0.6-1.7C512.3,313.5,512.7,313.4,513.1,313.2z M477,322.7
		c-0.9-0.5-1.8-0.1-2.5-2.9C475.5,319.2,476.3,320.5,477,322.7z M522.5,333.6C522.3,337.1,520.1,331.5,522.5,333.6L522.5,333.6z
		 M508.5,337.8C506,338.3,509.9,337.4,508.5,337.8L508.5,337.8z M204.9,478.7c-0.2-0.6-0.4-1.1-0.6-1.7c0.6-0.5,1,0.5,1.6,0.4
		c0.2,0.9-0.6,0.9-0.2,2C205.4,479.7,205.2,479.2,204.9,478.7z M141.4,578.1l0.5-0.7l0.8,0.2c-0.3-2.9,1.9,1.2,2.7,0.9
		c0.6,2-1.5-0.5-2-0.2l-0.5,0.6l-0.8-0.2C142,581.5,139.6,579.3,141.4,578.1z M148.2,588.9c-1.1,0.3-2.1-0.6-2.9-2.7
		c0.7-0.4,1.3,0.7,2,0.2c-0.6-0.5-1.1-2.2-1.8-2.2c-0.3-1,0.2-0.6,0.4-0.2c0.5-1.6,0.1-2.1,1.8-1.6
		C148.5,585.1,147.8,586.5,148.2,588.9z M270,643C271.3,648.1,266.9,640.7,270,643L270,643z M331.6,652.7c-0.8-0.4-1.4-1.5-2.1-3.1
		C330.7,648.7,331.8,651.2,331.6,652.7z M364.8,655.7c-0.7-0.2-1.3-0.8-1.8-2.2C363.8,652.7,364.3,654.4,364.8,655.7z M383.9,648.7
		C386.4,650.6,383.7,651.9,383.9,648.7L383.9,648.7z M409.4,645.9c-0.7,0.4-0.8,0.3-0.8,0.3l0.2,1.3c0,0-0.8-0.2-2.1,1.3
		c-0.4-1.3,0.7-1.1,1.4-1.5l-0.2-1.3c0,0,0.8,0.2-0.2-2.3c0.4-0.2,0.7,0.5,1.1,0.5C408.9,644.8,409.2,645.4,409.4,645.9z
		 M445.2,635.6c-0.6,0.5-1-0.5-1.6-0.4c-0.2-0.6-0.4-1.1-0.6-1.7c0.6-0.5,1,0.5,1.6,0.4C444.8,634.5,445,635.1,445.2,635.6z
		 M462.3,632.2c-0.9,0-0.1-1.2,0.5-1.1C463.8,631.1,463,632.2,462.3,632.2z M481.1,617.7c-0.5,0-0.7,0.4-0.5,1.1
		c-0.5-0.1-0.9-1.6-1.5-1.4c-0.4-1.5,0-2.2,1.1-2.3C480.5,616,480.8,616.9,481.1,617.7z M483.8,622.4c0.1-0.9-0.2-2-0.8-3.5
		c0.7-0.7,1.3,0.2,2,0.2C485.8,621.5,484.8,621.9,483.8,622.4z"/>
	<path class="st0" d="M514.5,64.6c1.3,0.8,2.8,0.9,4.1,0.3c0.8-0.3,1.5-0.9,1.9-1.7c1.3-2.1,0.7-4.8-1.4-6.1
		c-1.3-0.8-2.5-1.6-3.8-2.3c-2.1-1.3-4.8-0.6-6.1,1.5c-1.3,2.1-0.6,4.8,1.5,6.1C512,63,513.2,63.8,514.5,64.6z"/>
</g>
</svg>
