<?xml version="1.0" encoding="utf-8"?>
<!-- Generator: Adobe Illustrator 24.0.2, SVG Export Plug-In . SVG Version: 6.00 Build 0)  -->
<svg version="1.1" id="Layer_1" xmlns="http://www.w3.org/2000/svg" xmlns:xlink="http://www.w3.org/1999/xlink" x="0px" y="0px"
	 viewBox="0 0 760 575" style="enable-background:new 0 0 760 575;" height="575" width="760" xml:space="preserve">
<style type="text/css">
	.st0{fill:#FFFFFF;}
	.st1{fill:#D0D2D3;}
	.st2{fill:#4FA3C8;}
	.st3{fill:none;stroke:#4FA3C8;stroke-miterlimit:10;}
</style>
<g>
	<g>
		<rect x="351.1" y="47.6" class="st0" width="406.2" height="479.9"/>
		<rect x="475" y="65.2" class="st1" width="158.5" height="11.4"/>
		<g>
			<rect x="398.5" y="237.9" class="st1" width="63.3" height="9.3"/>
			<rect x="477.1" y="237.9" class="st1" width="232.9" height="9.3"/>
			<rect x="477.1" y="252.7" class="st1" width="232.9" height="9.3"/>
			<rect x="477.1" y="268" class="st1" width="232.9" height="9.3"/>
			<rect x="477.1" y="283.2" class="st1" width="127" height="9.3"/>
		</g>
		<g>
			<rect x="398.5" y="172.1" class="st1" width="63.3" height="9.3"/>
			<rect x="477.1" y="172.1" class="st1" width="232.9" height="9.3"/>
			<rect x="477.1" y="187" class="st1" width="232.9" height="9.3"/>
			<rect x="477.1" y="202.2" class="st1" width="232.9" height="9.3"/>
			<rect x="477.1" y="217.4" class="st1" width="127" height="9.3"/>
		</g>
		<g>
			<rect x="398.5" y="109.8" class="st1" width="63.3" height="9.3"/>
			<rect x="477.1" y="109.5" class="st1" width="232.9" height="9.3"/>
			<rect x="477.1" y="124.7" class="st1" width="232.9" height="9.3"/>
			<rect x="477.1" y="139.9" class="st1" width="232.9" height="9.3"/>
			<rect x="477.1" y="154.8" class="st1" width="127" height="9.3"/>
		</g>
		<g>
			<rect x="398.9" y="310.5" class="st1" width="63.3" height="9.3"/>
			<rect x="477.4" y="310.5" class="st1" width="232.9" height="9.3"/>
			<rect x="477.4" y="325.7" class="st1" width="232.9" height="9.3"/>
			<rect x="477.4" y="340.6" class="st1" width="232.9" height="9.3"/>
			<rect x="477.4" y="355.8" class="st1" width="127" height="9.3"/>
		</g>
		<rect x="399.2" y="436.1" class="st1" width="82.7" height="6.2"/>
		<rect x="399.2" y="447.5" class="st1" width="82.7" height="6.2"/>
		<rect x="399.2" y="458.9" class="st1" width="82.7" height="6.2"/>
		<rect x="399.2" y="470.4" class="st1" width="65" height="6.2"/>
		<rect x="399.2" y="481.8" class="st1" width="41.5" height="6.2"/>
		<rect x="504.4" y="436.1" class="st1" width="82.7" height="6.2"/>
		<rect x="504.4" y="447.5" class="st1" width="82.7" height="6.2"/>
		<rect x="504.4" y="458.9" class="st1" width="82.7" height="6.2"/>
		<rect x="504.4" y="470.4" class="st1" width="65" height="6.2"/>
		<rect x="504.4" y="481.8" class="st1" width="41.5" height="6.2"/>
		<rect x="613.4" y="436.1" class="st1" width="82.7" height="6.2"/>
		<rect x="613.4" y="447.5" class="st1" width="82.7" height="6.2"/>
		<rect x="613.4" y="458.9" class="st1" width="82.7" height="6.2"/>
		<rect x="613.4" y="470.4" class="st1" width="65" height="6.2"/>
		<rect x="613.4" y="481.8" class="st1" width="41.5" height="6.2"/>
	</g>
	<g>
		<path class="st2" d="M3,135.1l3.8-2.4c1,1.7,2.4,3.1,4.5,3.1s3.1-1,3.1-2.4c0-1.7-1.4-2.4-3.5-3.5l-1-0.7c-3.5-1.7-5.5-3.5-5.5-8
			c0-3.8,2.8-6.9,6.9-6.9c3.1,0,5.2,1,6.6,4.2l-3.8,2.8c-0.7-1.7-1.7-2.1-3.1-2.1s-2.4,1-2.4,2.1c0,1.7,1,2.1,2.8,3.1l1.7,0.7
			c4.2,1.7,6.2,3.8,6.2,8.3c0,4.8-3.5,7.3-8,7.3C7.2,140.6,4.4,138.2,3,135.1z"/>
		<path class="st2" d="M22.4,115h15.2v4.5H27.3v8h9v4.5h-9.3v3.8h10.7v4.5H22.4V115z"/>
		<path class="st2" d="M58.4,140.3h-5.5l-3.8-6.6c-0.3,0-1,0-1.4,0h-1.7v6.2h-4.8v-25.3H48c6.2,0,10.4,3.5,10.4,9.7
			c0,3.8-1.7,6.6-4.5,8L58.4,140.3z M47.7,129.2c3.8,0,5.5-1.4,5.5-4.8c0-3.5-1.7-4.8-5.5-4.8h-1.4v10h1.4V129.2z"/>
		<path class="st2" d="M58.7,115h5.2l3.8,9.7c1,2.1,1.7,5.9,1.7,5.9s1-3.5,1.7-5.9L75,115h4.5l-10,25.6h-0.3L58.7,115z"/>
		<path class="st2" d="M82.3,115h4.8v25.3h-4.8V115z"/>
		<path class="st2" d="M90.2,127.5c0-7.6,5.2-12.8,11.8-12.8c4.2,0,6.9,1.7,9,5.2l-3.5,2.8c-1-2.1-2.8-3.5-5.5-3.5
			c-4.2,0-6.9,3.5-6.9,8.3c0,4.8,2.8,8.3,6.9,8.3c3.1,0,4.5-1.7,5.9-3.8l3.8,2.8c-2.1,3.5-5.2,5.5-9.7,5.5
			C95.4,140.6,90.2,135.1,90.2,127.5z"/>
		<path class="st2" d="M114.5,115h15.2v4.5h-10.4v8h9v4.5h-9v3.8H130v4.5h-15.6V115z"/>
		<path class="st2" d="M139.7,127.5c0-7.6,5.2-12.8,11.8-12.8c4.2,0,6.9,1.7,9,5.2l-3.5,2.8c-1-2.1-2.8-3.5-5.5-3.5
			c-4.2,0-6.9,3.5-6.9,8.3c0,4.8,2.8,8.3,6.9,8.3c3.1,0,4.5-1.7,5.9-3.8l3.8,2.8c-2.1,3.5-5.2,5.5-9.7,5.5
			C144.9,140.6,139.7,135.1,139.7,127.5z"/>
		<path class="st2" d="M163.9,115h4.8v12.8h9.7V115h4.5v25.3h-4.8v-7.6h-9.7v7.6h-4.8V115H163.9z"/>
		<path class="st2" d="M195.4,114.7h0.3l10.4,25.6h-4.8l-1-2.8h-9.3l-1,2.8h-4.5L195.4,114.7z M198.5,133l-1.7-4.5
			c-0.7-1.7-1.4-4.5-1.4-4.5s-0.7,2.8-1.4,4.5l-1.7,4.5H198.5z"/>
		<path class="st2" d="M225.5,140.3H220l-3.8-6.6c-0.3,0-1,0-1.4,0h-1.7v6.2h-4.8v-25.3h6.2c6.2,0,10.4,3.5,10.4,9.7
			c0,3.8-1.7,6.6-4.5,8L225.5,140.3z M214.8,129.2c3.8,0,5.5-1.4,5.5-4.8c0-3.5-1.7-4.8-5.5-4.8h-1.4v10h1.4V129.2z"/>
		<path class="st2" d="M227.9,127.5c0-7.6,4.8-12.8,11.8-12.8c3.8,0,6.6,1,8.3,3.5l-3.1,3.5c-1-1.4-2.4-2.4-5.2-2.4
			c-4.2,0-6.9,3.5-6.9,8.3c0,4.8,2.8,8.3,7.6,8.3c1.4,0,3.5-0.3,4.5-1v-3.8h-5.5v-4.5h9.7v11.1c-1.4,1-4.5,3.1-8.6,3.1
			C232.8,140.6,227.9,135.1,227.9,127.5z"/>
		<path class="st2" d="M252.8,115h15.2v4.5h-10.4v8h9v4.5h-9v3.8h10.7v4.5h-15.6V115z"/>
	</g>
	<g>
		<path class="st2" d="M3.4,268h4.8l3.5,10c0.7,1.7,1,4.5,1,4.5s0.7-2.8,1.4-4.5l4.5-10.4H19l4.5,10.4c0.7,1.7,1.4,4.5,1.4,4.5
			s0.7-2.8,1-4.5l3.5-10h4.8l-8.3,25.6h-0.7l-4.8-12.1c-0.7-1.4-1.4-3.8-1.4-3.8s-0.7,2.4-1.4,3.8l-5.2,12.1h-0.7L3.4,268z"/>
		<path class="st2" d="M41.4,268h0.3l10.4,25.6h-4.8l-1-2.8H37l-1,2.8h-4.5L41.4,268z M44.6,286.3l-1.7-4.5
			c-0.7-1.7-1.4-4.5-1.4-4.5s-0.7,2.8-1.4,4.5l-1.7,4.5H44.6z"/>
		<path class="st2" d="M56.7,272.8h-6.6v-4.5h17.6v4.5h-6.6v20.8h-4.8v-20.8H56.7z"/>
		<path class="st2" d="M70.5,268h15.2v4.5H75.4v8.3h9v4.5h-9v3.8h10.7v4.5H70.5V268z"/>
		<path class="st2" d="M106.8,293.6h-5.5l-3.8-6.6c-0.3,0-1,0-1.4,0h-1.7v6.2h-4.8V268h6.2c6.2,0,10.4,3.5,10.4,9.7
			c0,3.8-1.7,6.6-4.5,8L106.8,293.6z M96.1,282.5c3.8,0,5.5-1.4,5.5-4.8c0-3.5-1.7-4.8-5.5-4.8h-1.4v10h1.4V282.5z"/>
		<path class="st2" d="M116.5,284.2V268h4.8v15.9c0,3.8,1.4,5.2,4.5,5.2c3.1,0,4.5-1.4,4.5-5.2V268h4.8v16.3c0,6.6-4.2,9.3-9.3,9.3
			C120.3,293.9,116.5,290.8,116.5,284.2z"/>
		<path class="st2" d="M136.6,288.4l3.8-2.4c1,1.7,2.4,3.1,4.5,3.1c2.1,0,3.1-1,3.1-2.4c0-1.7-1.4-2.4-3.5-3.5l-1-0.7
			c-3.5-1.7-5.5-3.5-5.5-8c0-3.8,2.8-6.9,6.9-6.9c3.1,0,5.2,1,6.6,4.2l-3.8,2.8c-0.7-1.7-1.7-2.1-3.1-2.1c-1.4,0-2.4,1-2.4,2.1
			c0,1.7,1,2.1,2.8,3.1l1,0.7c4.2,1.7,6.2,3.8,6.2,8.3c0,4.8-3.5,7.3-8,7.3C141.1,293.9,138,291.5,136.6,288.4z"/>
		<path class="st2" d="M156,268h15.2v4.5h-10.4v8.3h9v4.5h-9v3.8h10.7v4.5H156V268z"/>
		<path class="st2" d="M181.2,280.8c0-7.6,5.2-12.8,11.8-12.8c4.2,0,6.9,1.7,9,5.2l-3.5,2.8c-1-2.1-2.8-3.5-5.5-3.5
			c-4.2,0-6.9,3.5-6.9,8.3s2.8,8.3,6.9,8.3c3.1,0,4.5-1.7,5.9-3.8l3.8,2.8c-2.1,3.5-5.2,5.5-9.7,5.5
			C186.4,293.9,181.2,288.4,181.2,280.8z"/>
		<path class="st2" d="M205.4,268h4.8v12.8h9.7V268h4.5v25.3h-4.8v-7.6h-9.7v7.6h-4.8V268H205.4z"/>
		<path class="st2" d="M236.9,268h0.3l10.4,25.6h-4.8l-1-3.1h-9.3l-1,3.1h-4.5L236.9,268z M240,286.3l-1.7-4.5
			c-0.7-1.7-1.4-4.5-1.4-4.5s-0.7,2.8-1.4,4.5l-1.7,4.5H240z"/>
		<path class="st2" d="M267,293.6h-5.5l-3.8-6.6c-0.3,0-1,0-1.4,0h-1.7v6.2h-4.8V268h6.2c6.2,0,10.4,3.5,10.4,9.7
			c0,3.8-1.7,6.6-4.5,8L267,293.6z M256.3,282.5c3.8,0,5.5-1.4,5.5-4.8c0-3.5-1.7-4.8-5.5-4.8h-1.4v10h1.4V282.5z"/>
		<path class="st2" d="M269.5,280.8c0-7.6,4.8-12.8,11.8-12.8c3.8,0,6.6,1,8.3,3.5l-3.1,3.5c-1-1.4-2.4-2.4-5.2-2.4
			c-4.2,0-6.9,3.5-6.9,8.3s2.8,8.3,7.6,8.3c1.4,0,3.5-0.3,4.5-1v-3.8h-5.5v-4.5h9.7v11.1c-1.4,1-4.5,3.1-8.6,3.1
			C274.3,293.9,269.5,288.4,269.5,280.8z"/>
		<path class="st2" d="M294.4,268h15.2v4.5h-10.4v8.3h9v4.5h-9v3.8h10.7v4.5h-15.6V268z"/>
	</g>
	<line class="st3" x1="2.7" y1="175.2" x2="409.6" y2="175.2"/>
	<circle class="st3" cx="435.5" cy="175.2" r="25.9"/>
	<line class="st3" x1="2.7" y1="319.5" x2="409.6" y2="319.5"/>
	<circle class="st3" cx="435.5" cy="319.5" r="25.9"/>
</g>
</svg>
