<?xml version="1.0" encoding="utf-8"?>
<!-- Generator: Adobe Illustrator 24.0.2, SVG Export Plug-In . SVG Version: 6.00 Build 0)  -->
<svg version="1.1" id="Layer_1" xmlns="http://www.w3.org/2000/svg" xmlns:xlink="http://www.w3.org/1999/xlink" x="0px" y="0px"
	 viewBox="0 0 760 575" style="enable-background:new 0 0 760 575;" height="575" width="760" xml:space="preserve">
<style type="text/css">
	.st0{fill:#EA9554;}
	.st1{fill:#FFFFFF;}
	.st2{fill:#92B761;}
	.st3{fill:#006899;}
	.st4{fill:#92D1F2;}
	.st5{fill:#5FA7B3;}
	.st6{fill:#98B0DB;}
</style>
<g>
	<rect x="341.4" y="76.9" class="st0" width="82" height="495.4"/>
	<g>
		<path class="st1" d="M383.7,119.9H366c-7.7,0-14,6.3-14,14c0,0.4,0,40.5,0,40.5c0,3.3,2.6,5.9,5.9,5.9c3.3,0,5.9-2.6,5.9-5.9
			v-35.7c0-0.4,0.4-0.7,0.7-0.7h1.1c0.4,0,0.7,0.4,0.7,0.7v100c0,4,3.3,7.4,7.4,7.4c4,0,7.4-3.3,7.4-7.4v-58.8
			c0-0.4,0.4-0.7,0.7-0.7h1.1c0.4,0,0.7,0,0.7,0.7v58.8c0,4,3.3,7.4,7.4,7.4c4,0,7.4-3.3,7.4-7.4v-100c0-0.4,0.4-0.7,0.7-0.7h1.1
			c0.4,0,0.7,0.4,0.7,0.7v35.7c0,3.3,2.6,5.9,5.9,5.9s5.9-2.6,5.9-5.9c0,0,0-40.1,0-40.5c0-8.1-6.3-14-14-14
			C398.8,119.9,388.5,119.9,383.7,119.9z"/>
		<ellipse class="st1" cx="382.2" cy="105.5" rx="11" ry="11"/>
	</g>
	<rect x="230.3" y="169.6" class="st2" width="82" height="402.7"/>
	<g>
		<path class="st1" d="M272.6,212.6H255c-7.7,0-14,6.3-14,14c0,0.4,0,40.5,0,40.5c0,3.3,2.6,5.9,5.9,5.9c3.3,0,5.9-2.6,5.9-5.9
			v-35.7c0-0.4,0.4-0.7,0.7-0.7h1.1c0.4,0,0.7,0.4,0.7,0.7v100c0,4,3.3,7.4,7.4,7.4c4,0,7.4-3.3,7.4-7.4v-58.8
			c0-0.4,0.4-0.7,0.7-0.7h1.1c0.4,0,0.7,0,0.7,0.7v58.8c0,4,3.3,7.4,7.4,7.4s7.4-3.3,7.4-7.4v-100c0-0.4,0.4-0.7,0.7-0.7h1.1
			c0.4,0,0.7,0.4,0.7,0.7V267c0,3.3,2.6,5.9,5.9,5.9s5.9-2.6,5.9-5.9c0,0,0-40.1,0-40.5c0-8.1-6.3-14-14-14
			C287.7,212.6,277.4,212.6,272.6,212.6z"/>
		<ellipse class="st1" cx="271.2" cy="197.9" rx="11" ry="11"/>
	</g>
	<rect x="447.7" y="247.9" class="st3" width="82" height="324.4"/>
	<g>
		<path class="st1" d="M490,290.9h-17.7c-7.7,0-14,6.3-14,14c0,0.4,0,40.5,0,40.5c0,3.3,2.6,5.9,5.9,5.9c3.3,0,5.9-2.6,5.9-5.9
			v-35.7c0-0.4,0.4-0.7,0.7-0.7h1.1c0.4,0,0.7,0.4,0.7,0.7v100c0,4,3.3,7.4,7.4,7.4c4,0,7.4-3.3,7.4-7.4v-58.8
			c0-0.4,0.4-0.7,0.7-0.7h1.1c0.4,0,0.7,0,0.7,0.7v58.8c0,4,3.3,7.4,7.4,7.4s7.4-3.3,7.4-7.4v-100c0-0.4,0.4-0.7,0.7-0.7h1.5
			c0.4,0,0.7,0.4,0.7,0.7v35.7c0,3.3,2.6,5.9,5.9,5.9c3.3,0,5.9-2.6,5.9-5.9c0,0,0-40.1,0-40.5c0-8.1-6.3-14-14-14
			C505,290.9,494.7,290.9,490,290.9z"/>
		<ellipse class="st1" cx="488.7" cy="276.7" rx="11" ry="11"/>
	</g>
	<g>
		<path class="st4" d="M293.2,140.2c0,9.9-8.1,18.4-18.4,18.4c-10.3,0-18.4-8.1-18.4-18.4c0-8.8,14-30.5,17.7-36
			c0.4-0.7,1.1-0.7,1.5,0C279.2,109.3,293.2,131.3,293.2,140.2z"/>
		<path class="st5" d="M271.1,117.4c0,5.9-4.8,11-11,11c-6.3,0-11-4.8-11-11c0-5.1,8.5-18.4,10.7-21.7c0.4-0.4,0.7-0.4,1.1,0
			C263.1,99,271.1,111.8,271.1,117.4z"/>
	</g>
	<g>
		<path class="st4" d="M400.6,47.5c0,9.9-8.1,18.4-18.4,18.4c-9.9,0-18.4-8.1-18.4-18.4c0-8.8,14-30.5,17.7-36
			c0.4-0.7,1.1-0.7,1.5,0C386.6,17,400.6,38.7,400.6,47.5z"/>
		<path class="st5" d="M378.5,24.7c0,5.9-4.8,11-11,11c-6.3,0-11-4.8-11-11c0-5.1,8.5-18.4,10.7-21.7c0.4-0.4,0.7-0.4,1.1,0
			C370.1,6.3,378.5,19.5,378.5,24.7z"/>
		<path class="st6" d="M404.3,33.9c0,4-3.3,7.4-7.4,7.4c-4,0-7.4-3.3-7.4-7.4c0-3.7,5.5-12.1,7-14.3c0-0.4,0.4-0.4,0.7,0
			C398.8,21.7,404.3,30.2,404.3,33.9z"/>
	</g>
	<g>
		<path class="st4" d="M506.9,218.5c0,9.9-8.1,18.4-18.4,18.4s-18.4-8.1-18.4-18.4c0-8.8,14-30.5,17.7-36c0.4-0.7,1.1-0.7,1.5,0
			C492.9,188,506.9,209.7,506.9,218.5z"/>
	</g>
</g>
</svg>
