<?xml version="1.0" encoding="utf-8"?>
<!-- Generator: Adobe Illustrator 24.0.2, SVG Export Plug-In . SVG Version: 6.00 Build 0)  -->
<svg version="1.1" id="Layer_1" xmlns="http://www.w3.org/2000/svg" xmlns:xlink="http://www.w3.org/1999/xlink" x="0px" y="0px"
	 viewBox="0 0 655 655" style="enable-background:new 0 0 655 655;" xml:space="preserve" height="655" width="655">
<style type="text/css">
	.st0{fill:#F89C45;}
	.st1{fill:#FFFFFF;}
	.st2{fill:#D0D2D3;}
	.st3{fill:#E6E7E8;}
	.st4{fill:#5EC6CE;}
	.st5{fill:#FAAF40;}
	.st6{opacity:0.1;fill:#2E3191;}
	.st7{fill:#BEC7D5;}
	.st8{fill:#004C61;}
	.st9{fill:#9ED3A8;}
	.st10{opacity:0.5;fill:#9ED3A8;}
	.st11{fill:#356673;}
	.st12{opacity:0.4;fill:#BEC7D5;}
	.st13{fill:#F3848B;}
	.st14{fill:#000B28;}
	.st15{fill:#F6921E;}
	.st16{opacity:0.2;fill:#FFFFFF;}
	.st17{fill:#EE4036;}
	.st18{fill:#220015;}
	.st19{opacity:0.1;fill:#FFFFFF;}
</style>
<g>
	<path class="st0" d="M655,327.5C655,508.4,508.4,655,327.5,655C146.6,655,0,508.4,0,327.5C0,146.6,146.6,0,327.5,0
		C508.4,0,655,146.6,655,327.5z"/>
	<g>
		<g>
			
				<rect x="99" y="131.1" transform="matrix(0.409 -0.9125 0.9125 0.409 -84.8443 523.9902)" class="st1" width="526.2" height="392.8"/>
			
				<rect x="455" y="31.4" transform="matrix(0.409 -0.9125 0.9125 0.409 173.6021 484.0566)" class="st2" width="11" height="153.2"/>
			<g>
				
					<rect x="438.2" y="4.1" transform="matrix(0.409 -0.9125 0.9125 0.409 118.6385 492.5497)" class="st3" width="2.7" height="301.1"/>
				
					<rect x="432.2" y="17.6" transform="matrix(0.409 -0.9125 0.9125 0.409 102.7868 495.0002)" class="st3" width="2.7" height="301.1"/>
				
					<rect x="426.2" y="31.1" transform="matrix(0.409 -0.9125 0.9125 0.409 86.9345 497.4498)" class="st3" width="2.7" height="301.1"/>
				
					<rect x="420.1" y="44.5" transform="matrix(0.409 -0.9125 0.9125 0.409 71.0823 499.9001)" class="st3" width="2.7" height="301.1"/>
				
					<rect x="414.1" y="58" transform="matrix(0.409 -0.9125 0.9125 0.409 55.2273 502.3475)" class="st3" width="2.7" height="301.1"/>
				
					<rect x="408.1" y="71.4" transform="matrix(0.409 -0.9125 0.9125 0.409 39.3747 504.7958)" class="st3" width="2.7" height="301.1"/>
				<g>
					
						<rect x="291.4" y="145.5" transform="matrix(0.4087 -0.9127 0.9127 0.4087 57.259 385.0028)" class="st4" width="68.8" height="5.7"/>
					
						<rect x="309.5" y="162" transform="matrix(0.409 -0.9125 0.9125 0.409 45.0987 399.3706)" class="st4" width="42.7" height="5.7"/>
					
						<rect x="322" y="169.8" transform="matrix(0.4088 -0.9126 0.9126 0.4088 43.3627 412.3029)" class="st4" width="35.9" height="5.7"/>
					
						<rect x="327.1" y="166.3" transform="matrix(0.4091 -0.9125 0.9125 0.4091 54.8828 422.9872)" class="st4" width="53.9" height="5.7"/>
					
						<rect x="333.1" y="164.2" transform="matrix(0.4092 -0.9125 0.9125 0.4092 64.7325 434.0389)" class="st4" width="68.8" height="5.7"/>
					
						<rect x="347.3" y="174.6" transform="matrix(0.4091 -0.9125 0.9125 0.4091 59.8557 447.4061)" class="st4" width="56.1" height="5.7"/>
					
						<rect x="358.4" y="180.3" transform="matrix(0.409 -0.9125 0.9125 0.409 60.6057 459.8969)" class="st4" width="53.9" height="5.7"/>
					
						<rect x="378.5" y="199.8" transform="matrix(0.4089 -0.9126 0.9126 0.4089 45.0434 474.9442)" class="st4" width="21.4" height="5.7"/>
					
						<rect x="387" y="201.5" transform="matrix(0.4093 -0.9124 0.9124 0.4093 50.3424 486.5278)" class="st4" width="27.9" height="5.7"/>
					
						<rect x="395.1" y="202.6" transform="matrix(0.4092 -0.9124 0.9124 0.4092 56.536 498.2104)" class="st4" width="35.9" height="5.7"/>
					
						<rect x="395.8" y="192.3" transform="matrix(0.4089 -0.9126 0.9126 0.4089 76.2148 507.9005)" class="st4" width="68.8" height="5.7"/>
					
						<rect x="413.4" y="208" transform="matrix(0.4092 -0.9124 0.9124 0.4092 64.9969 522.0809)" class="st4" width="44.5" height="5.7"/>
					
						<rect x="429.7" y="221.7" transform="matrix(0.4092 -0.9124 0.9124 0.4092 56.2064 536.0124)" class="st4" width="24.7" height="5.7"/>
					
						<rect x="441.1" y="227.9" transform="matrix(0.4089 -0.9126 0.9126 0.4089 56.4439 548.7136)" class="st4" width="21.4" height="5.7"/>
					
						<rect x="442.8" y="219.1" transform="matrix(0.409 -0.9125 0.9125 0.409 74.2672 558.5137)" class="st4" width="51.1" height="5.7"/>
					
						<rect x="448" y="215.7" transform="matrix(0.4091 -0.9125 0.9125 0.4091 85.6264 569.2742)" class="st4" width="68.8" height="5.7"/>
					
						<rect x="461.5" y="225.1" transform="matrix(0.4091 -0.9125 0.9125 0.4091 81.8995 582.444)" class="st4" width="58.3" height="5.7"/>
					
						<rect x="468.9" y="225" transform="matrix(0.4091 -0.9125 0.9125 0.4091 89.4289 593.8658)" class="st4" width="68.8" height="5.7"/>
					
						<rect x="479.3" y="229.7" transform="matrix(0.4093 -0.9124 0.9124 0.4093 91.2443 606.065)" class="st4" width="68.8" height="5.7"/>
					
						<rect x="492" y="237.8" transform="matrix(0.4089 -0.9126 0.9126 0.4089 89.2389 619.186)" class="st4" width="61.2" height="5.7"/>
					
						<rect x="504.6" y="245.8" transform="matrix(0.4088 -0.9126 0.9126 0.4088 87.3064 632.1403)" class="st4" width="53.9" height="5.7"/>
					
						<rect x="517.2" y="253.8" transform="matrix(0.409 -0.9125 0.9125 0.409 85.2266 644.9249)" class="st4" width="46.7" height="5.7"/>
					
						<rect x="530.8" y="263.4" transform="matrix(0.4091 -0.9125 0.9125 0.4091 81.2589 658.0706)" class="st4" width="35.9" height="5.7"/>
				</g>
				
					<rect x="250.3" y="125.8" transform="matrix(0.4089 -0.9126 0.9126 0.4089 54.3036 338.6368)" class="st3" width="76.5" height="3.1"/>
				
					<rect x="288.8" y="82.9" transform="matrix(0.4089 -0.9126 0.9126 0.4089 91.1105 317.4951)" class="st3" width="3.7" height="11.1"/>
				
					<rect x="283" y="95.9" transform="matrix(0.409 -0.9125 0.9125 0.409 75.7204 319.8428)" class="st3" width="3.7" height="11.1"/>
				
					<rect x="277.1" y="108.9" transform="matrix(0.4092 -0.9125 0.9125 0.4092 60.3325 322.1882)" class="st3" width="3.7" height="11.1"/>
				
					<rect x="271.3" y="122" transform="matrix(0.4092 -0.9125 0.9125 0.4092 44.9764 324.5642)" class="st3" width="3.7" height="11.1"/>
				
					<rect x="265.4" y="135" transform="matrix(0.4091 -0.9125 0.9125 0.4091 29.6263 326.9493)" class="st3" width="3.7" height="11.1"/>
				
					<rect x="259.6" y="148.1" transform="matrix(0.4091 -0.9125 0.9125 0.4091 14.2648 329.319)" class="st3" width="3.7" height="11.1"/>
			</g>
			<g>
				
					<rect x="278.8" y="179.6" transform="matrix(0.409 -0.9125 0.9125 0.409 -24.4389 382.7949)" class="st2" width="9.1" height="61.4"/>
				
					<rect x="422.8" y="162.2" transform="matrix(0.409 -0.9125 0.9125 0.409 1.7597 552.3608)" class="st2" width="9.1" height="225.2"/>
				
					<rect x="416.8" y="175.6" transform="matrix(0.409 -0.9125 0.9125 0.409 -13.9441 554.7871)" class="st2" width="9.1" height="225.2"/>
				
					<rect x="410.8" y="188.9" transform="matrix(0.409 -0.9125 0.9125 0.409 -29.6453 557.2187)" class="st2" width="9.1" height="225.2"/>
				
					<rect x="358.1" y="232.5" transform="matrix(0.409 -0.9125 0.9125 0.409 -53.8525 504.601)" class="st2" width="9.1" height="122.7"/>
			</g>
			<g>
				
					<rect x="250" y="243.8" transform="matrix(0.409 -0.9125 0.9125 0.409 -100.0132 394.4756)" class="st2" width="9.1" height="61.4"/>
				
					<rect x="394" y="226.4" transform="matrix(0.409 -0.9125 0.9125 0.409 -73.8166 564.0374)" class="st2" width="9.1" height="225.2"/>
				
					<rect x="388" y="239.8" transform="matrix(0.409 -0.9125 0.9125 0.409 -89.5197 566.4649)" class="st2" width="9.1" height="225.2"/>
				
					<rect x="382" y="253.1" transform="matrix(0.409 -0.9125 0.9125 0.409 -105.2256 568.8867)" class="st2" width="9.1" height="225.2"/>
				
					<rect x="329.3" y="296.7" transform="matrix(0.409 -0.9125 0.9125 0.409 -129.43 516.2787)" class="st2" width="9.1" height="122.7"/>
			</g>
			<g>
				
					<rect x="144.9" y="372.5" transform="matrix(0.4092 -0.9124 0.9124 0.4092 -236.565 385.3553)" class="st4" width="68.8" height="5.7"/>
				
					<rect x="163" y="389.1" transform="matrix(0.4091 -0.9125 0.9125 0.4091 -248.6448 399.8697)" class="st4" width="42.7" height="5.7"/>
				
					<rect x="175.5" y="396.9" transform="matrix(0.409 -0.9125 0.9125 0.409 -250.4319 412.7792)" class="st4" width="35.9" height="5.7"/>
				
					<rect x="180.6" y="393.3" transform="matrix(0.409 -0.9125 0.9125 0.409 -238.8241 423.5625)" class="st4" width="53.9" height="5.7"/>
				
					<rect x="186.7" y="391.2" transform="matrix(0.4089 -0.9126 0.9126 0.4089 -228.9573 434.6819)" class="st4" width="68.8" height="5.7"/>
				
					<rect x="200.9" y="401.7" transform="matrix(0.4089 -0.9126 0.9126 0.4089 -233.8533 448.0375)" class="st4" width="56.1" height="5.7"/>
				
					<rect x="211.9" y="407.3" transform="matrix(0.4096 -0.9123 0.9123 0.4096 -233.1551 460.1536)" class="st4" width="53.9" height="5.7"/>
				
					<rect x="232" y="426.9" transform="matrix(0.4091 -0.9125 0.9125 0.4091 -248.7322 475.3746)" class="st4" width="21.4" height="5.7"/>
				
					<rect x="240.5" y="428.6" transform="matrix(0.409 -0.9125 0.9125 0.409 -243.2934 487.1945)" class="st4" width="27.9" height="5.7"/>
				
					<rect x="248.6" y="429.6" transform="matrix(0.409 -0.9125 0.9125 0.409 -237.1317 498.8484)" class="st4" width="35.9" height="5.7"/>
				
					<rect x="249.3" y="419.3" transform="matrix(0.4089 -0.9126 0.9126 0.4089 -217.5513 508.4675)" class="st4" width="68.8" height="5.7"/>
				
					<rect x="266.9" y="435" transform="matrix(0.4091 -0.9125 0.9125 0.4091 -228.6859 522.6387)" class="st4" width="44.5" height="5.7"/>
				
					<rect x="283.2" y="448.8" transform="matrix(0.4091 -0.9125 0.9125 0.4091 -237.463 536.5886)" class="st4" width="24.7" height="5.7"/>
				
					<rect x="294.7" y="455" transform="matrix(0.4095 -0.9123 0.9123 0.4095 -237.3703 548.9474)" class="st4" width="21.4" height="5.7"/>
				
					<rect x="296.3" y="446.1" transform="matrix(0.4087 -0.9127 0.9127 0.4087 -219.4398 559.2353)" class="st4" width="51.1" height="5.7"/>
				
					<rect x="301.5" y="442.7" transform="matrix(0.4091 -0.9125 0.9125 0.4091 -208.0826 569.787)" class="st4" width="68.8" height="5.7"/>
				
					<rect x="315.1" y="452.2" transform="matrix(0.4094 -0.9124 0.9124 0.4094 -211.8447 582.8196)" class="st4" width="58.3" height="5.7"/>
				
					<rect x="322.4" y="452.1" transform="matrix(0.4096 -0.9123 0.9123 0.4096 -204.3533 594.0947)" class="st4" width="68.8" height="5.7"/>
				
					<rect x="332.9" y="456.7" transform="matrix(0.4087 -0.9127 0.9127 0.4087 -202.3126 606.9533)" class="st4" width="68.8" height="5.7"/>
				
					<rect x="345.6" y="464.9" transform="matrix(0.4095 -0.9123 0.9123 0.4095 -204.6183 619.386)" class="st4" width="61.2" height="5.7"/>
				
					<rect x="358.1" y="472.9" transform="matrix(0.4091 -0.9125 0.9125 0.4091 -206.5427 632.5076)" class="st4" width="53.9" height="5.7"/>
				
					<rect x="370.7" y="480.9" transform="matrix(0.4089 -0.9126 0.9126 0.4089 -208.4878 645.5541)" class="st4" width="46.7" height="5.7"/>
				
					<rect x="384.4" y="490.5" transform="matrix(0.4092 -0.9124 0.9124 0.4092 -212.4731 658.5217)" class="st4" width="35.9" height="5.7"/>
			</g>
			<g>
				
					<rect x="217.5" y="488.1" transform="matrix(0.4084 -0.9128 0.9128 0.4084 -304.2326 510.8073)" class="st5" width="48.9" height="4.1"/>
				
					<rect x="230.4" y="499.9" transform="matrix(0.409 -0.9125 0.9125 0.409 -312.8447 520.7307)" class="st5" width="30.4" height="4.1"/>
				
					<rect x="239.3" y="505.4" transform="matrix(0.4094 -0.9124 0.9124 0.4094 -314.1251 529.6765)" class="st5" width="25.5" height="4.1"/>
				
					<rect x="242.9" y="502.9" transform="matrix(0.4091 -0.9125 0.9125 0.4091 -305.8578 537.5367)" class="st5" width="38.4" height="4.1"/>
				
					<rect x="247.2" y="501.4" transform="matrix(0.4094 -0.9124 0.9124 0.4094 -298.8567 545.2073)" class="st5" width="48.9" height="4.1"/>
				
					<rect x="257.3" y="508.8" transform="matrix(0.4088 -0.9126 0.9126 0.4088 -302.3115 555.0986)" class="st5" width="39.9" height="4.1"/>
				
					<rect x="265.2" y="512.9" transform="matrix(0.4091 -0.9125 0.9125 0.4091 -301.8039 563.7839)" class="st5" width="38.4" height="4.1"/>
				
					<rect x="279.5" y="526.8" transform="matrix(0.4089 -0.9126 0.9126 0.4089 -312.8993 574.5544)" class="st5" width="15.2" height="4.1"/>
				
					<rect x="285.5" y="528" transform="matrix(0.4087 -0.9127 0.9127 0.4087 -309.0192 583.0489)" class="st5" width="19.9" height="4.1"/>
				
					<rect x="291.3" y="528.7" transform="matrix(0.4088 -0.9126 0.9126 0.4088 -304.6361 591.309)" class="st5" width="25.5" height="4.1"/>
				
					<rect x="291.8" y="521.4" transform="matrix(0.4092 -0.9124 0.9124 0.4092 -290.743 597.8119)" class="st5" width="48.9" height="4.1"/>
				
					<rect x="304.3" y="532.6" transform="matrix(0.4091 -0.9125 0.9125 0.4091 -298.6382 608.0822)" class="st5" width="31.7" height="4.1"/>
				
					<rect x="315.9" y="542.4" transform="matrix(0.4089 -0.9126 0.9126 0.4089 -304.8721 618.1336)" class="st5" width="17.6" height="4.1"/>
				
					<rect x="324.1" y="546.8" transform="matrix(0.4085 -0.9128 0.9128 0.4085 -304.7441 627.3712)" class="st5" width="15.2" height="4.1"/>
				
					<rect x="325.3" y="540.5" transform="matrix(0.4091 -0.9125 0.9125 0.4091 -292.0933 633.9546)" class="st5" width="36.3" height="4.1"/>
				
					<rect x="329" y="538" transform="matrix(0.4091 -0.9125 0.9125 0.4091 -283.9769 641.6229)" class="st5" width="48.9" height="4.1"/>
				
					<rect x="338.6" y="544.8" transform="matrix(0.4088 -0.9126 0.9126 0.4088 -286.5955 651.2308)" class="st5" width="41.5" height="4.1"/>
				
					<rect x="343.8" y="544.7" transform="matrix(0.4089 -0.9126 0.9126 0.4089 -281.2458 659.2883)" class="st5" width="48.9" height="4.1"/>
				
					<rect x="351.3" y="548" transform="matrix(0.4091 -0.9125 0.9125 0.4091 -279.9239 667.8691)" class="st5" width="48.9" height="4.1"/>
				
					<rect x="360.3" y="553.8" transform="matrix(0.4091 -0.9125 0.9125 0.4091 -281.467 677.1019)" class="st5" width="43.5" height="4.1"/>
				
					<rect x="369.2" y="559.5" transform="matrix(0.4092 -0.9125 0.9125 0.4092 -282.894 686.2032)" class="st5" width="38.4" height="4.1"/>
				
					<rect x="378.2" y="565.2" transform="matrix(0.4089 -0.9126 0.9126 0.4089 -284.2719 695.557)" class="st5" width="33.2" height="4.1"/>
				
					<rect x="387.9" y="572" transform="matrix(0.4088 -0.9126 0.9126 0.4088 -287.0433 705.0601)" class="st5" width="25.5" height="4.1"/>
			</g>
			
				<rect x="186.1" y="404.5" transform="matrix(0.409 -0.9125 0.9125 0.409 -293.9229 435.2093)" class="st2" width="5.9" height="80.1"/>
			
				<rect x="181.6" y="414.5" transform="matrix(0.409 -0.9125 0.9125 0.409 -305.7731 437.0619)" class="st2" width="5.9" height="80.1"/>
			
				<rect x="177.1" y="424.6" transform="matrix(0.409 -0.9125 0.9125 0.409 -317.6192 438.8712)" class="st2" width="5.9" height="80.1"/>
			
				<rect x="164.7" y="439.7" transform="matrix(0.409 -0.9125 0.9125 0.409 -330.8923 431.4938)" class="st2" width="5.9" height="62.9"/>
			
				<rect x="149.8" y="456.6" transform="matrix(0.4091 -0.9125 0.9125 0.4091 -344.6391 421.0098)" class="st2" width="5.9" height="40"/>
		</g>
		<path class="st6" d="M404,365.9c-15.5-22.8-30.7-45.9-44.1-70.1c-13.8-24.9-26.2-50.6-39.1-76c-12.8-25.1-26.9-49.2-41.5-73.3
			c-10.2-16.9-20.1-34-28-52.1L75.3,487.2l358.5,160.7l66.1-147.5C468.5,455.2,434.9,411.3,404,365.9z"/>
		<g>
			<path class="st7" d="M167.8,592.9c-1.1,1-2.8,1-3.8-0.1L43.1,468c-1-1.1-1-2.8,0.1-3.8l153.2-148.3c1.1-1,2.8-1,3.8,0.1
				l120.9,124.9c1,1.1,1,2.8-0.1,3.8L167.8,592.9z"/>
			<path class="st1" d="M165.9,586.9c-1,1-2.7,1-3.7-0.1L45.2,465.9c-1-1-1-2.7,0.1-3.7l151.2-146.4c1-1,2.7-1,3.7,0.1l117.1,120.9
				c1,1,1,2.7-0.1,3.7L165.9,586.9z"/>
			<g>
				<path class="st8" d="M279,475.6c-1.2,1.2-3,1.2-4.1,0.1l-62.2-54.8l-52.8-64c-1.1-1.1-1-2.9,0.2-4.1l35.5-34.3
					c1.2-1.2,3-1.2,4.1-0.1l115,118.8c1.1,1.1,1,2.9-0.2,4.1L279,475.6z"/>
				<path class="st9" d="M279.8,467.1c-1.2,1.2-3,1.2-4.1,0.1L168.4,356.4c-1.1-1.1-1-2.9,0.2-4.1l26.9-26c1.2-1.2,3-1.2,4.1-0.1
					L306.9,437c1.1,1.1,1,2.9-0.2,4.1L279.8,467.1z"/>
				<path class="st10" d="M306.9,437l-11.7-12l-116-57.3l96.4,99.6c1.1,1.1,2.9,1.1,4.1-0.1l26.9-26
					C307.9,439.9,308,438.1,306.9,437z"/>
				<g>
					<path class="st11" d="M271.6,450.1c-1.1-1.2-1.7-2.7-1.8-4.3c-0.1-1.6,0.3-3.9,2-5.8l3,3c-0.9,1.7-1,3.2-0.3,4.4l5.5-5.2
						c-1-1.7-1.5-3.2-1.5-4.7c0-1.5,0.4-2.8,1.2-3.9c0.7-1,1.6-1.8,2.8-2.3c1.2-0.6,2.5-0.8,3.8-0.6c1.4,0.2,2.5,0.6,3.4,1.2
						l0.7,0.5l1.1-1l1.6,1.7l-1,0.9c1,1.1,1.5,2.4,1.7,3.7c0.1,1.4-0.3,3.1-1.6,5l-2.9-3.1c0.5-1.1,0.6-2.2,0.2-3.1l-5,4.7
						c1.2,1.8,1.8,3.5,1.8,4.9c0,1.5-0.4,2.9-1.3,4.1c-1.2,1.8-2.9,2.8-5.1,3.1c-2.2,0.3-4.3-0.3-6.5-1.7l-2.2,2.1l-1.6-1.7
						L271.6,450.1z M283.2,439.1l4.5-4.3c-0.8-0.6-1.6-0.8-2.5-0.6c-0.9,0.1-1.5,0.6-2,1.2C282.6,436.5,282.6,437.7,283.2,439.1z
						 M281.2,444.3l-5,4.7c1.1,0.6,2.1,0.9,3.1,0.7c1-0.2,1.7-0.6,2.2-1.4c0.4-0.5,0.5-1,0.5-1.6C282,446.2,281.8,445.4,281.2,444.3
						z"/>
				</g>
			</g>
			<path class="st12" d="M49.6,457.9l-4.4,4.3c-1,1-1.1,2.6-0.1,3.7l117.1,120.9c1,1,2.6,1.1,3.7,0.1l129.1-125
				C213.2,460.6,131.4,459.3,49.6,457.9z"/>
			<g>
				<path class="st13" d="M231.7,508.1c-1.3,1.2-3.1,1.4-4.2,0.4l-30.3-31.3c-1-1-0.8-2.9,0.5-4.1l7.7-7.5c1.3-1.2,3.1-1.4,4.2-0.4
					l30.3,31.3c1,1,0.8,2.9-0.5,4.1L231.7,508.1z"/>
				<path class="st7" d="M215.3,524c-1.3,1.2-3.1,1.4-4.1,0.4L180.8,493c-1-1-0.8-2.9,0.5-4.1l7.7-7.5c1.3-1.3,3.2-1.4,4.1-0.4
					l30.3,31.3c1,1,0.8,2.9-0.5,4.1L215.3,524z"/>
				<path class="st7" d="M171.3,445.7c-1.3,1.3-1.4,3.2-0.3,4.4l17.3,17.9c1.1,1.2,3.1,1.1,4.4-0.2l7.7-7.5c1.3-1.3,1.4-3.2,0.3-4.4
					l-17.3-17.9c-1.1-1.2-3.1-1.1-4.4,0.2L171.3,445.7z"/>
				<path class="st7" d="M148.7,422.4c-1.3,1.3-1.4,3.2-0.3,4.4l17.3,17.9c1.1,1.2,3.1,1.1,4.4-0.2l7.7-7.5c1.3-1.2,1.4-3.2,0.3-4.4
					l-17.3-17.9c-1.1-1.2-3.1-1.1-4.4,0.2L148.7,422.4z"/>
				<path class="st7" d="M126.1,399c-1.3,1.3-1.4,3.2-0.3,4.4l17.3,17.9c1.1,1.2,3.1,1.1,4.4-0.2l7.7-7.5c1.3-1.2,1.4-3.2,0.3-4.4
					l-17.3-17.9c-1.1-1.2-3.1-1.1-4.4,0.2L126.1,399z"/>
				<path class="st7" d="M154.9,461.6c-1.3,1.3-1.4,3.2-0.3,4.4l17.3,17.9c1.1,1.2,3.1,1.1,4.4-0.2l7.7-7.5c1.3-1.3,1.4-3.2,0.3-4.4
					L167,454c-1.1-1.2-3.1-1.1-4.4,0.2L154.9,461.6z"/>
				<path class="st7" d="M132.3,438.2c-1.3,1.3-1.4,3.2-0.3,4.4l17.3,17.9c1.1,1.2,3.1,1.1,4.4-0.2l7.7-7.5c1.3-1.2,1.4-3.2,0.3-4.4
					l-17.3-17.9c-1.1-1.2-3.1-1.1-4.4,0.2L132.3,438.2z"/>
				<path class="st7" d="M109.7,414.9c-1.3,1.2-1.4,3.2-0.3,4.4l17.3,17.9c1.1,1.2,3.1,1.1,4.4-0.2l7.7-7.5c1.3-1.3,1.4-3.2,0.3-4.4
					l-17.3-17.9c-1.1-1.2-3.1-1.1-4.4,0.2L109.7,414.9z"/>
				<path class="st7" d="M138.5,477.4c-1.3,1.3-1.4,3.2-0.3,4.4l17.3,17.9c1.1,1.2,3.1,1.1,4.4-0.2l7.7-7.5c1.3-1.3,1.4-3.2,0.3-4.4
					l-17.3-17.9c-1.1-1.2-3.1-1.1-4.4,0.2L138.5,477.4z"/>
				<path class="st7" d="M115.9,454.1c-1.3,1.3-1.4,3.2-0.3,4.4l17.3,17.9c1.1,1.2,3.1,1.1,4.4-0.2l7.7-7.5c1.3-1.3,1.4-3.2,0.3-4.4
					L128,446.5c-1.1-1.2-3.1-1.1-4.4,0.2L115.9,454.1z"/>
				<path class="st7" d="M93.3,430.7c-1.3,1.2-1.4,3.2-0.3,4.4l17.3,17.9c1.1,1.2,3.1,1.1,4.4-0.2l7.7-7.5c1.3-1.3,1.4-3.2,0.3-4.4
					l-17.3-17.9c-1.1-1.2-3.1-1.1-4.4,0.2L93.3,430.7z"/>
				<path class="st7" d="M122.2,493.3c-1.3,1.3-1.4,3.2-0.3,4.4l17.3,17.9c1.1,1.2,3.1,1.1,4.4-0.2l7.7-7.5c1.3-1.3,1.4-3.2,0.3-4.4
					l-17.3-17.9c-1.1-1.2-3.1-1.1-4.4,0.2L122.2,493.3z"/>
				<path class="st7" d="M99.5,469.9c-1.3,1.3-1.4,3.2-0.3,4.4l17.3,17.9c1.1,1.2,3.1,1.1,4.4-0.2l7.7-7.5c1.3-1.3,1.4-3.2,0.3-4.4
					l-17.3-17.9c-1.1-1.2-3.1-1.1-4.4,0.2L99.5,469.9z"/>
				<path class="st7" d="M76.9,446.6c-1.3,1.2-1.4,3.2-0.3,4.4l17.3,17.9c1.1,1.2,3.1,1.1,4.4-0.2l7.7-7.5c1.3-1.3,1.4-3.2,0.3-4.4
					L89,439c-1.1-1.2-3.1-1.1-4.4,0.2L76.9,446.6z"/>
				<path class="st7" d="M105.8,509.1c-1.3,1.3-1.4,3.2-0.3,4.4l17.3,17.9c1.1,1.2,3.1,1.1,4.4-0.2l7.7-7.5c1.3-1.2,1.4-3.2,0.3-4.4
					l-17.3-17.9c-1.1-1.2-3.1-1.1-4.4,0.2L105.8,509.1z"/>
				<path class="st7" d="M83.2,485.8c-1.3,1.3-1.4,3.2-0.3,4.4l17.3,17.9c1.1,1.2,3.1,1.1,4.4-0.2l7.7-7.5c1.3-1.3,1.4-3.2,0.3-4.4
					l-17.3-17.9c-1.1-1.2-3.1-1.1-4.4,0.2L83.2,485.8z"/>
				<path class="st7" d="M60.6,462.4c-1.3,1.2-1.4,3.2-0.3,4.4l17.3,17.9c1.1,1.2,3.1,1.1,4.4-0.2l7.7-7.5c1.3-1.3,1.4-3.2,0.3-4.4
					l-17.3-17.9c-1.1-1.2-3.1-1.1-4.4,0.2L60.6,462.4z"/>
				<path class="st8" d="M165.4,572.3c-0.8,0.8-2.3,0.6-3.3-0.4l-20.1-20.8c-1-1-1.1-2.5-0.3-3.4l42.1-40.7c0.8-0.8,2.3-0.6,3.3,0.4
					l20.1,20.8c1,1,1.1,2.5,0.3,3.4L165.4,572.3z"/>
			</g>
			<g>
				<g>
					<path class="st11" d="M271.6,450.1c-1.1-1.2-1.7-2.7-1.8-4.3c-0.1-1.6,0.3-3.9,2-5.8l3,3c-0.9,1.7-1,3.2-0.3,4.4l5.5-5.2
						c-1-1.7-1.5-3.2-1.5-4.7c0-1.5,0.4-2.8,1.2-3.9c0.7-1,1.6-1.8,2.8-2.3c1.2-0.6,2.5-0.8,3.8-0.6c1.4,0.2,2.5,0.6,3.4,1.2
						l0.7,0.5l1.1-1l1.6,1.7l-1,0.9c1,1.1,1.5,2.4,1.7,3.7c0.1,1.4-0.3,3.1-1.6,5l-2.9-3.1c0.5-1.1,0.6-2.2,0.2-3.1l-5,4.7
						c1.2,1.8,1.8,3.5,1.8,4.9c0,1.5-0.4,2.9-1.3,4.1c-1.2,1.8-2.9,2.8-5.1,3.1c-2.2,0.3-4.3-0.3-6.5-1.7l-2.2,2.1l-1.6-1.7
						L271.6,450.1z M283.2,439.1l4.5-4.3c-0.8-0.6-1.6-0.8-2.5-0.6c-0.9,0.1-1.5,0.6-2,1.2C282.6,436.5,282.6,437.7,283.2,439.1z
						 M281.2,444.3l-5,4.7c1.1,0.6,2.1,0.9,3.1,0.7c1-0.2,1.7-0.6,2.2-1.4c0.4-0.5,0.5-1,0.5-1.6C282,446.2,281.8,445.4,281.2,444.3
						z"/>
				</g>
			</g>
			<path class="st8" d="M163.7,393.5c-1,1-2.7,0.9-3.8-0.2l-11.5-11.9c-1.1-1.1-1.1-2.8-0.1-3.8l3.1-3c1-1,2.7-0.9,3.8,0.2
				l11.5,11.9c1.1,1.1,1.1,2.8,0.1,3.8L163.7,393.5z"/>
			<path class="st8" d="M181.7,412.1c-1,1-2.7,0.9-3.8-0.2L166.4,400c-1.1-1.1-1.1-2.8-0.1-3.8l3.1-3c1-1,2.7-0.9,3.8,0.2l11.5,11.9
				c1.1,1.1,1.1,2.8,0.1,3.8L181.7,412.1z"/>
			<path class="st8" d="M199.8,430.7c-1,1-2.7,0.9-3.8-0.2l-11.5-11.9c-1.1-1.1-1.1-2.8-0.1-3.8l3.1-3c1-1,2.7-0.9,3.8,0.2
				l11.5,11.9c1.1,1.1,1.1,2.8,0.1,3.8L199.8,430.7z"/>
			<path class="st8" d="M217.8,449.4c-1,1-2.7,0.9-3.8-0.2l-11.5-11.9c-1.1-1.1-1.1-2.8-0.1-3.8l3.1-3c1-1,2.7-0.9,3.8,0.2
				l11.5,11.9c1.1,1.1,1.1,2.8,0.1,3.8L217.8,449.4z"/>
			<path class="st8" d="M235.8,468c-1,1-2.7,0.9-3.8-0.2l-11.5-11.9c-1.1-1.1-1.1-2.8-0.1-3.8l3.1-3c1-1,2.7-0.9,3.8,0.2l11.5,11.9
				c1.1,1.1,1.1,2.8,0.1,3.8L235.8,468z"/>
			<path class="st8" d="M256.9,479.8c1.1,1.1,1.1,2.8,0.1,3.8l-3.1,3c-1,1-2.7,0.9-3.8-0.2l-11.5-11.9c-1.1-1.1-1.1-2.8-0.1-3.8
				l3.1-3c1-1,2.7-0.9,3.8,0.2"/>
		</g>
		<g>
			<path class="st14" d="M547.7,477.5c0.4,0.2,0.4,1.3-0.3,2.7c-0.7,1.4-1.7,2.5-2.1,2.3c-0.4-0.2-0.2-1.5,0.5-2.9
				C546.5,478.3,547.4,477.3,547.7,477.5z"/>
			<path class="st14" d="M637.1,296.8c-0.3-0.8-0.4-1.6-0.3-2.3c-1.4-1-3-1.8-4.7-2.1c-1-0.2-2-0.3-3-0.4c-0.6,1.1-1.7,1.9-2.9,2.4
				c-0.8,0.3-1.7,0.4-2.5,0.3c-11.1,17.7-25.5,44.6-39.9,75.5c-26.3,56.6-42.6,104.9-36.3,107.8c6.3,2.9,32.7-40.6,59.1-97.2
				c14.9-31.9,26.5-61.2,32.7-81.2C638.3,298.9,637.5,297.9,637.1,296.8z"/>
			<path class="st5" d="M551.4,450.4c-5.8,16.7-5.7,25.7-5.3,28.8c0.1,0,0.1,0,0.1,0c0.5,0,0.9,0.3,1.2,0.7c0,0,0,0.1,0.1,0.1
				c8-3.9,18.5-22.8,18.5-22.8C559.5,457,551.4,450.4,551.4,450.4z"/>
			<path class="st15" d="M551,475.4c-0.7,1.4-1.4,2.9-2.5,4.1c7.9-4.9,17.5-22.2,17.5-22.2c-1.7-0.1-3.5-0.6-5.3-1.2
				C557.7,462.6,554.4,468.9,551,475.4z"/>
			<path class="st5" d="M587.1,363.3c0,0,6.2,7.9,22.7,10.6l0.4-1c0,0-14.2-2.3-22.6-10.6L587.1,363.3z"/>
			<path class="st15" d="M602.3,372.1c2.2,0.7,4.7,1.3,7.5,1.8l0.4-1c0,0-3.2-0.5-7.4-1.9C602.6,371.4,602.4,371.7,602.3,372.1z"/>
			<path class="st1" d="M546.8,472.8c0,0,0.8-12.1,11.7-40.4c9.2-24.1,22.5-58.3,41-93c7.6-14.3,20.3-37.3,22.6-39.8
				c2.8-3,5.3-2.5,4.1-0.4c-1.2,2.1-43.6,67.7-77.2,173.9C548.9,473.2,547.1,474.8,546.8,472.8z"/>
			<path class="st14" d="M588,362.8c0,0,0.4,0.6,1,0.5c0.5-0.1,30.9-59.8,36.9-67l-3.1,1.4C622.8,297.7,597.8,339.2,588,362.8z"/>
			<path class="st5" d="M616.9,293.8c-5.3,6.3-31.5,66-31.5,66l0,0c0,0.1-0.1,0.1-0.1,0.2c-0.5,1.1,0,2.3,1,2.8c1.1,0.5,2.3,0,2.8-1
				c0.5-1,0-2.3-1-2.8c4.8-9.9,29.3-59.9,32.3-62.8c3.2-3.2,4.8-1.7,4.8-1.7l3.2-3.5C628.3,291.1,622.1,287.5,616.9,293.8z"/>
			<path class="st15" d="M625.7,290.2c-1.7,1.6-4.1,2.5-5.8,4.3c-3.6,3.8-5.4,9-7.7,13.6c-5.4,10.6-10.9,21.2-16,31.9
				c-0.1,0.3-0.3,0.5-0.4,0.7c-2.3,5.7-5.7,10.9-8.2,16.5c-0.5,1.8-0.8,3.6-0.8,5.7c0.9,0.2,1.9-0.3,2.3-1.2c0.5-1,0-2.3-1-2.8
				c4.8-9.9,29.3-59.9,32.3-62.8c3.2-3.2,4.8-1.7,4.8-1.7l3.2-3.5C628.3,291.1,627.2,290.5,625.7,290.2z"/>
			<path class="st5" d="M623.9,294.5c0,0,6,1.6,14.9,6.9l0.6-1.2c0,0,3.7-10-3.4-13.3c-6.9-3.2-11.8,7-11.8,7L623.9,294.5z"/>
			<path class="st15" d="M634,289.2c-2.3,1.3-5.3,2.5-7.6,1.1c-1.5,1.8-2.3,3.6-2.3,3.6l-0.3,0.5c0,0,6,1.6,14.9,6.9l0.6-1.2
				c0,0,3.6-9.7-3.2-13.2C635.6,287.9,634.9,288.7,634,289.2z"/>
		</g>
		<g>
			<g>
				<path class="st14" d="M10.5,270.7c0,0,176.4-87.8,261.6-55.8c0,0,9.5,0.8,16.7-5.9c7.2-6.6-15.4-16.5-63.5-15.8
					c-72.1,1-212.6,63.9-212.6,63.9L10.5,270.7z"/>
				<path class="st14" d="M245.9,160.7c0,0-180.6,78.8-210.8,164.7c0,0-5.5,7.8-15.3,9c-9.7,1.3-2.8-22.4,28.7-58.8
					c47.1-54.6,185.5-121.9,185.5-121.9L245.9,160.7z"/>
				<path class="st1" d="M16.4,330.4c0,0,2.4,2.5,6.8-1.9c4.4-4.4,10.5-26.8,16-35c3.1-4.6,0.7,0.1-2.3-0.9
					C35.9,292.2,17.6,317.2,16.4,330.4z"/>
				<g>
					<path class="st16" d="M135.4,210.7c0,0,14.1-19.5,21.1-24.1c7-4.7,49.5-34.5,74.9-23.8c0,0,28.2,31.9,9.5,58.4
						c-18.8,26.6-58.2,27.9-67.9,25.6C163.1,244.6,135.4,210.7,135.4,210.7z"/>
					<path class="st16" d="M119.4,218.2c0,0-24-1.7-32,0.7c-8,2.3-58.2,15.8-66.3,42.2c0,0,6.3,42.1,38.7,44.8
						c32.4,2.7,58.7-26.7,63.3-35.6C127.6,261.2,119.4,218.2,119.4,218.2z"/>
					<path class="st16" d="M207.8,243.6c12.1-3.7,24.6-10.5,33-22.4c14.2-20.1,1.5-43.3-5.6-53.3C226.2,193.2,217,218.4,207.8,243.6
						z"/>
					<path class="st16" d="M162.6,182.5c-2.9,1.8-5,3.3-6.2,4.1c-7,4.7-21.1,24.1-21.1,24.1s5.2,6.3,11.9,13.7
						C152.3,210.5,157.5,196.5,162.6,182.5z"/>
					<path class="st16" d="M188.7,169c-8.2,22.6-16.5,45.2-24.7,67.9c5,4.7,9.7,8.4,12.7,9.1c0.7,0.2,1.5,0.3,2.4,0.4
						c10.3-28.4,20.6-56.8,30.9-85.1C202.8,162.9,195.5,165.8,188.7,169z"/>
					<path class="st16" d="M55,231c-6.9,19-13.8,37.9-20.7,56.9c2.5,3.6,5.4,7,9,9.8l26.6-73.1C65.2,226.4,60.1,228.5,55,231z"/>
					<path class="st16" d="M90.4,217.1c-10.7,29.3-21.3,58.6-32,87.9c4.7-0.6,12.8-1.4,17.1-3l30.6-84.2
						C102.9,217.7,94.9,217.1,90.4,217.1z"/>
					<path class="st16" d="M94.3,297.2c15.3-8.7,26-21.7,28.8-27.1c3.4-6.7-0.4-32.9-2.5-45.3L94.3,297.2z"/>
					<path class="st14" d="M239.1,150.3c-9.9,1.3-34.7,9.4-42.7,12.1c-0.8,0.3-1.7,0.6-2.6,0.9c0,0,0,0,0,0l0,0
						c-12.7,4.4-29.8,12.5-44.3,26.5c0,0-12.9,13.7-26.1,20.5c-13.3,4.6-29.2,5.5-29.2,5.5c-20,2.1-37.2,10-48.8,16.9l0,0l0,0
						c-0.8,0.5-1.6,1-2.3,1.4c-7.3,4.5-29.4,18.3-36.7,25c-1.3,1.2,1.3,8.9,2.7,12c0.6,1.4,6.9-2.4,16.5,12.4
						c0.1,0.1,0.2,0.3,0.3,0.4c6.9,13.2,19.4,25.2,34.5,25.9c20.3,0.9,51.9-19.6,60.8-29.8c8.9-10.2,6.5-32,5.2-44.7
						c-1.3-12.7,8-13.1,8-13.1l0,0c2.5,0,5.7,1,9.3,4.7c8.9,9.1,24.1,25,37.6,24.7c13.5-0.3,49.6-11.4,61.9-27.5
						c9.2-12,8-29.3,2.3-43.1c0-0.1-0.1-0.3-0.1-0.4c-5.2-16.9,1.8-19.2,1.1-20.6C245.1,157,240.8,150.1,239.1,150.3z M119.1,269.2
						c-4.3,15-41.2,32.9-55.1,33.8c-23.8,1.5-44.5-37.4-35.3-48.6c24.9-30.3,75.8-35.8,84.3-32.9
						C119.6,223.8,123.1,255.3,119.1,269.2z M235.7,222.6c-9.6,10.1-47.1,26.9-61.4,20.6c-13.3-5.9-35.2-28.8-32.7-35.4
						c3.2-8.3,40.1-43.9,79.4-43.5C235.7,164.4,252.2,205.3,235.7,222.6z"/>
					<path class="st1" d="M25.2,275.5c0,0-1.5-3.3-1-3.9c0.5-0.7,0.9-0.3,1,0.4c0.1,0.6,1.4,3.5,0.9,3.7
						C25.7,275.9,25.2,275.5,25.2,275.5z"/>
					<path class="st1" d="M26.4,278.1c0,0,0.2-0.7,0.7-0.3c0.5,0.4,5.6,10.2,8.5,13c0,0-0.4,1-1.6,0
						C32.9,289.7,27.7,282.5,26.4,278.1z"/>
					<path class="st1" d="M101.2,215.6c0,0,15-0.7,22.7-4.3c7.5-3.6,15.1-10.9,17.3-13.1c0,0,0.6-1,1-0.6
						c0.4,0.4-9.1,11.2-18.1,15.3C115.1,217,102.5,216.6,101.2,215.6z"/>
					<path class="st1" d="M232.2,152.8c0,0,5.9-2.4,7.5-1.7c1.6,0.7,5.7,8.6,5.8,8.9c0.1,0.3-0.8-0.8-1.5-1.7
						c-0.7-0.9-3.5-6.2-5.1-6.7C237.4,151.2,232.2,152.8,232.2,152.8z"/>
					<path class="st1" d="M125.1,233.8c0,0-1.3-9.2,3.4-12.5c4.7-3.3,9.4-2.8,15.9,4.9c0,0-8.3-8.2-13.2-5.4
						C126.2,223.4,125.5,226.8,125.1,233.8z"/>
				</g>
				<path class="st1" d="M7,259.8c0,0,0.6,6,1.9,4.6c4.9-5.5,17.3-15,22.9-19.7c2.8-2.3,4.5-2.5,3-4.2
					C34.3,239.9,15.8,251.8,7,259.8z"/>
			</g>
			<path class="st1" d="M251.5,196.8c0,0,27.1,2.2,35.1,9c0,0,2.6,1.2,2.1-1c-0.5-2.2-13.8-9.2-37.8-10.2L251.5,196.8z"/>
		</g>
		<g>
			<path class="st17" d="M557.3,562.6c0.5,0.9,0.1,2-0.8,2.5l-139,71.4c-0.9,0.5-2,0.1-2.5-0.8l-42.2-82.1c-0.5-0.9-0.1-2,0.8-2.5
				l139-71.4c0.9-0.5,2-0.1,2.5,0.8L557.3,562.6z"/>
			
				<rect x="373.2" y="526.3" transform="matrix(0.8894 -0.4572 0.4572 0.8894 -194.469 266.3987)" class="st18" width="160" height="17.5"/>
			
				<rect x="396.1" y="564.2" transform="matrix(0.8894 -0.4572 0.4572 0.8894 -212.1795 261.8311)" class="st1" width="77.6" height="10.2"/>
			<g>
				<path class="st5" d="M509.5,556l0.3-0.2l-8.9-17.3l-5,2.6l6.5,12.7C504.8,554.5,507.1,555.2,509.5,556z"/>
				
					<rect x="506.5" y="535" transform="matrix(0.8893 -0.4574 0.4574 0.8893 -192.66 293.6602)" class="st5" width="7.3" height="19.5"/>
				
					<rect x="514.5" y="531.1" transform="matrix(0.8895 -0.4569 0.4569 0.8895 -189.9391 296.2153)" class="st5" width="6.1" height="19.5"/>
				<path class="st5" d="M517.6,529.9l-0.3,0.1l8.9,17.3l4.2-2.1l-6.9-13.5C521.5,531.2,519.5,530.5,517.6,529.9z"/>
			</g>
			<g>
				<path class="st19" d="M436.4,518.9l-28,14.3l-17.7,55.2l14.4,28C415,585.8,426.6,549.5,436.4,518.9z"/>
				<path class="st19" d="M417.5,636.5l36.8-18.9c13.8-43.1,27.7-86.2,41.5-129.3l-43.3,22.2c-13.1,40.7-26.1,81.3-39.2,122l1.6,3.1
					C415.5,636.6,416.6,637,417.5,636.5z"/>
				<path class="st19" d="M523.9,497.5l-8.7-17c-0.4-0.8-1.4-1.2-2.2-0.9c-13.8,43.1-27.7,86.1-41.5,129.2l19.4-10
					C502.4,562.7,512.2,533.5,523.9,497.5z"/>
				<path class="st19" d="M545.5,539.5l-13.3-25.9c-9.5,29.5-15.5,47.3-25,76.8l26.8-13.8L545.5,539.5z"/>
			</g>
		</g>
	</g>
</g>
</svg>
