<?xml version="1.0" encoding="utf-8"?>
<!-- Generator: Adobe Illustrator 24.0.2, SVG Export Plug-In . SVG Version: 6.00 Build 0)  -->
<svg version="1.1" id="Layer_1" xmlns="http://www.w3.org/2000/svg" xmlns:xlink="http://www.w3.org/1999/xlink" x="0px" y="0px"
	 viewBox="0 0 760 575" style="enable-background:new 0 0 760 575;" height="575" width="760" xml:space="preserve">
<style type="text/css">
	.st0{fill:#C2E7F2;stroke:#FFFFFF;stroke-miterlimit:10;}
	.st1{opacity:0.69;fill:#86D4EF;stroke:#FFFFFF;stroke-miterlimit:10;enable-background:new    ;}
	.st2{fill:none;stroke:#1B75BB;stroke-miterlimit:10;}
	.st3{enable-background:new    ;}
	.st4{fill:#FFFFFF;}
	.st5{fill:#006899;}
	.st6{fill:none;stroke:#006899;stroke-miterlimit:10;}
</style>
<g>
	<g>
		<path class="st0" d="M214.1,172c0,0,27.9,13,40.2,8.9c12.3-4.1,24.2,19.4,41,19.4c16.8,0,42.5,23.8,42.5,23.8v193.7l-125.5-67
			L214.1,172z"/>
		<path class="st0" d="M8.1,195.4c0,0,59.2,4.1,76-2.2c16.8-6.3,72.3-35.8,130-21.2l-1.9,178.8L4,373.4L8.1,195.4z"/>
		<path class="st1" d="M131.7,239.4c0,0-26.8,17.5-55.9,0s-52.5-55.9-67.8-43.9L7.4,384.2l124,62.6L131.7,239.4z"/>
		<path class="st1" d="M337.7,224.1c0,0-42.1,14.9-68.5,14.9s-125.9-8.6-137.4,0l-0.4,207.8l206.3-29V224.1z"/>
		<polygon class="st2" points="7.4,379.4 131.4,446.8 337.7,418.1 338.1,195.4 214.1,128 7.7,156.7 		"/>
		<polyline class="st2" points="131.4,446.8 131.7,224.1 338.1,195.4 		"/>
		<line class="st2" x1="131.7" y1="224.1" x2="7.7" y2="156.7"/>
		<polyline class="st2" points="337.7,418.1 214.1,350.7 7.4,379.4 		"/>
		<line class="st2" x1="214.1" y1="128" x2="214.1" y2="350.7"/>
		<g>
			<g class="st3">
				<path class="st4" d="M226.5,275.6l-8.4,1.3v-9.3l19.8-3l0,43.5l-11.5,1.7L226.5,275.6z"/>
			</g>
			<g class="st3">
				<path class="st4" d="M152.8,335.4l11.7-1.8v29l24.3-3.7v-29l11.7-1.8v56.7l-11.7,1.8v-17.3l-24.3,3.7v17.3l-11.7,1.8V335.4z"/>
				<path class="st4" d="M210.5,355c0-16.8,13-31,29.3-33.5c10.3-1.6,17.7,1,22.8,8.1l-9,7.7c-2.7-3.9-7.3-6.3-13.8-5.3
					c-10.3,1.6-17.2,10.6-17.2,21.1s6.9,17.6,17.2,16.1c7.4-1.1,11.5-5.3,14.6-10.6l9.1,4.9c-4.9,8.4-12.8,14.5-23.8,16.1
					C223.5,382.1,210.5,371.7,210.5,355z"/>
				<path class="st4" d="M272.3,317.2l36.6-5.6v10.3l-24.9,3.8v18.8l22.7-3.5v10.4l-22.7,3.5v17.3l-11.7,1.8V317.2z"/>
			</g>
		</g>
	</g>
	<g>
		<path class="st5" d="M640.9,202.9v-22.7h47.3v22.7l47.3,31.3c0,0,15.6,14.2,14.2,43.6c0,0,22.7,164.2-17.5,155.7l-19.4,10.4
			c0,0-15.6,7.1-24.6,0c0,0-8.6-20.1-20.9,3c0,0-38.4,0.4-66.3-10.1c0,0-27.9-3.4-31.3-62.9l26.1-133c0,0-7.1-14.2,19.4-26.1
			L640.9,202.9z"/>
		<path class="st4" d="M621.5,281.5l10.4-40.2c0,0-15.6-20.9-26.1,20.1S605.8,339.2,621.5,281.5z"/>
	</g>
	<g>
		<g>
			<line class="st6" x1="389.8" y1="327.6" x2="512.7" y2="328"/>
			<g>
				<polygon class="st5" points="539.2,328 501.9,342.9 510.9,328 501.9,312.7 				"/>
			</g>
		</g>
	</g>
	<g class="st3">
		<path class="st4" d="M637.2,307.1h-12.7v-5.6h21.9v0.6L633,332.4h-7.1L637.2,307.1z"/>
		<path class="st4" d="M668.5,322.5v5.2H665v4.7h-6.9v-4.7h-14.7v-4.6l20.9-21.9h0.7v21.3H668.5z M658.1,318c0-1.1,0.3-3.1,0.3-3.1
			s-0.8,1.1-1.7,2.1l-3.7,3.8c-1,1-2.1,1.8-2.1,1.8s1.2-0.2,2.6-0.2h4.6V318z"/>
		<path class="st4" d="M671.6,318.2c0-4.1,2.5-6.8,6-8.1c-2-1.1-3.6-2.9-3.6-5.7c0-3.8,3.5-7.8,9.6-7.8c6.2,0,9.5,4,9.5,7.8
			c0,2.8-1.6,4.6-3.6,5.7c3.5,1.3,6,4,6,8.1c0,5.9-4.9,10-12,10C676.6,328.2,671.6,324.1,671.6,318.2z M688.3,317.6
			c0-2.6-1.8-4.7-4.7-4.7s-4.7,2.2-4.7,4.7c0,2.6,1.8,4.5,4.7,4.5S688.3,320.2,688.3,317.6z M686.3,304.9c0-1.7-1.2-2.7-2.7-2.7
			c-1.6,0-2.9,1.1-2.9,2.7c0,1.6,1.3,2.7,2.9,2.7C685.2,307.7,686.3,306.5,686.3,304.9z"/>
	</g>
	<g class="st3">
		<path class="st4" d="M590.5,358.5c0-6.5,4.6-11.2,11.3-11.2c3.6,0,6.2,1,8,3l-3.1,3c-1.1-1.1-2.4-2-4.9-2c-4,0-6.6,3.1-6.6,7.1
			c0,4.1,2.7,7.2,7.3,7.2c1.4,0,3.2-0.3,4.3-0.8v-3.2h-5.3v-3.9h9.5v9.4c-1.3,1-4.5,2.5-8.5,2.5
			C595.3,369.7,590.5,364.9,590.5,358.5z"/>
		<path class="st4" d="M620.6,359c-1.7,0-2.5,0.7-3.2,1.3l-2.4-2.6c1.3-1.3,2.8-2.2,6-2.2c3.5,0,6.3,1.9,6.3,6.2v7.8h-4.4l0.1-1.9
			c-1,1.6-2.2,2.2-4.1,2.2c-2.5,0-4.9-1.1-4.9-4.3c0-2.9,2.2-4.1,5.7-4.1h3.2C622.9,359.7,622.1,359,620.6,359z M619.9,363.8
			c-1.1,0-1.6,0.5-1.6,1.3s0.7,1.2,1.9,1.2c1.8,0,2.7-0.8,2.7-1.9v-0.5H619.9z"/>
		<path class="st4" d="M630.8,346.2h4.4v23.2h-4.4V346.2z"/>
		<path class="st4" d="M638.8,346.2h4.4v23.2h-4.4V346.2z"/>
		<path class="st4" d="M646.2,362.6c0-4.2,3.4-7.2,7.7-7.2c4.3,0,7.6,3,7.6,7.2c0,4.1-3.3,7.1-7.6,7.1
			C649.5,369.7,646.2,366.7,646.2,362.6z M657,362.6c0-2.1-1.2-3.4-3.1-3.4c-2,0-3.2,1.4-3.2,3.4c0,2,1.2,3.4,3.2,3.4
			C655.8,366,657,364.6,657,362.6z"/>
		<path class="st4" d="M664.4,355.7h4.4l-0.1,2.2c0.8-1.6,2.5-2.5,4.4-2.5c3,0,5.2,2.2,5.2,6.1v7.9h-4.4v-7.6c0-1.5-0.7-2.4-2.3-2.4
			c-1.8,0-2.8,1-2.8,2.7v7.3h-4.4V355.7z"/>
		<path class="st4" d="M680.7,367.1l2.6-2.2c0.9,0.9,2.1,1.4,3.5,1.4c1.4,0,1.9-0.3,1.9-0.8c0-0.7-0.9-0.7-3.1-1.3
			c-1.9-0.5-4-1.5-4-4.4c0-3.1,2.4-4.3,5.4-4.3c2.3,0,3.9,0.7,5,1.9l-2.3,2.5c-0.7-0.5-1.6-1-2.7-1c-1,0-1.5,0.3-1.5,0.8
			c0,0.8,0.9,0.9,2.8,1.3c2,0.5,4.6,1.4,4.6,4.3c0,2.5-1.3,4.6-5.7,4.6C683.8,369.7,681.9,368.5,680.7,367.1z"/>
	</g>
</g>
</svg>
