<?xml version="1.0" encoding="utf-8"?>
<!-- Generator: Adobe Illustrator 24.0.2, SVG Export Plug-In . SVG Version: 6.00 Build 0)  -->
<svg version="1.1" id="Layer_1" xmlns="http://www.w3.org/2000/svg" xmlns:xlink="http://www.w3.org/1999/xlink" x="0px" y="0px"
	 viewBox="0 0 760 575" style="enable-background:new 0 0 760 575;" height="575" width="760" xml:space="preserve">
<style type="text/css">
	.st0{fill:#006899;}
	.st1{fill:#FFFFFF;}
	.st2{fill:none;stroke:#F89C45;stroke-miterlimit:10;}
	.st3{enable-background:new    ;}
	.st4{fill:#F89C45;}
</style>
<g>
	<g>
		<path class="st0" d="M299.4,58.1c0,0-34,0-34.3,0c-14.8,0-26.7,11.9-26.7,27.1c0,1.1,0,78,0,78c0,6.1,5.1,11.2,11.2,11.2
			s11.2-5.1,11.2-11.2V94.6c0-0.7,0.4-1.1,1.1-1.1h2.5c0.7,0,1.1,0.4,1.1,1.1v192.6c0,7.9,6.5,14.5,14.5,14.5
			c7.9,0,14.5-6.5,14.5-14.5V174c0-0.7,0.4-1.1,1.1-1.1h2.2c0.7,0,1.1,0.4,1.1,1.1v113.1c0,7.9,6.5,14.5,14.5,14.5
			c7.9,0,14.5-6.5,14.5-14.5V94.6c0-0.7,0.4-1.1,1.1-1.1h2.5c0.7,0,1.1,0.4,1.1,1.1v68.6c0,6.1,5.1,11.2,11.2,11.2
			s11.2-5.1,11.2-11.2c0,0,0-77.3,0-78c0-15.5-11.9-27.1-26.7-27.1C328.7,58.1,308.8,58.1,299.4,58.1z"/>
		<ellipse class="st0" cx="297" cy="30.3" rx="21.7" ry="21.7"/>
	</g>
	<g>
		<path class="st0" d="M154.9,58.1c0,0-34,0-34.3,0c-14.8,0-26.7,11.9-26.7,27.1c0,1.1,0,78,0,78c0,6.1,5.1,11.2,11.2,11.2
			c6.1,0,11.2-5.1,11.2-11.2V94.6c0-0.7,0.4-1.1,1.1-1.1h2.5c0.7,0,1.1,0.4,1.1,1.1v192.6c0,7.9,6.5,14.5,14.5,14.5
			c7.9,0,14.5-6.5,14.5-14.5V174c0-0.7,0.4-1.1,1.1-1.1h2.2c0.7,0,1.1,0.4,1.1,1.1v113.1c0,7.9,6.5,14.5,14.5,14.5
			s14.5-6.5,14.5-14.5V94.6c0-0.7,0.4-1.1,1.1-1.1h2.5c0.7,0,1.1,0.4,1.1,1.1v68.6c0,6.1,5.1,11.2,11.2,11.2
			c6.1,0,11.2-5.1,11.2-11.2c0,0,0-77.3,0-78c0-15.5-11.9-27.1-26.7-27.1C184.2,58.1,164.3,58.1,154.9,58.1z"/>
		<ellipse class="st0" cx="152.5" cy="30.3" rx="21.7" ry="21.7"/>
	</g>
	<g>
		<path class="st0" d="M434.2,118.4h-25.7c-11.2,0-19.9,9-19.9,20.6c0,0.7,0,58.9,0,58.9c0,4.7,3.6,8.3,8.3,8.3s8.3-3.6,8.3-8.3
			v-51.7c0-0.4,0.4-0.7,0.7-0.7h1.8c0.4,0,0.7,0.4,0.7,0.7v144.9c0,6.1,5.1,10.8,10.8,10.8c6.1,0,10.8-5.1,10.8-10.8v-85.3
			c0-0.7,0.4-0.7,0.7-0.7h1.8c0.7,0,0.7,0.4,0.7,0.7v85.3c0,6.1,5.1,10.8,10.8,10.8c6.1,0,10.8-5.1,10.8-10.8V146.2
			c0-0.4,0.4-0.7,0.7-0.7h1.8c0.4,0,0.7,0.4,0.7,0.7v51.7c0,4.7,3.6,8.3,8.3,8.3s8.3-3.6,8.3-8.3c0,0,0-58.2,0-58.9
			c0-11.6-9-20.6-19.9-20.6C456.2,118.4,441.1,118.4,434.2,118.4z"/>
		<ellipse class="st0" cx="432.2" cy="97.2" rx="16.3" ry="16.3"/>
	</g>
	<g>
		<g>
			<g>
				<path class="st0" d="M26.3,375.3v-2.2H31v2.2l4.7,3.3c0,0,1.4,1.4,1.4,4.3c0,0,2.2,16.3-1.8,15.2l-1.8,1.1c0,0-1.4,0.7-2.5,0
					c0,0-0.7-1.8-2.2,0.4c0,0-3.6,0-6.5-1.1c0,0-2.9-0.4-3.3-6.1l2.5-13c0,0-0.7-1.4,1.8-2.5L26.3,375.3z"/>
				<path class="st1" d="M24.1,382.9l1.1-4c0,0-1.4-2.2-2.5,1.8C21.6,385,22.7,388.7,24.1,382.9z"/>
			</g>
			<g>
				<path class="st0" d="M48,375.3v-2.2h4.7v2.2l4.7,3.3c0,0,1.4,1.4,1.4,4.3c0,0,2.2,16.3-1.8,15.2l-1.8,1.1c0,0-1.4,0.7-2.5,0
					c0,0-0.7-1.8-2.2,0.4c0,0-3.6,0-6.5-1.1c0,0-2.9-0.4-3.3-6.1l2.5-13c0,0-0.7-1.4,1.8-2.5L48,375.3z"/>
				<path class="st1" d="M45.8,382.9l1.1-4c0,0-1.4-2.2-2.5,1.8C43.3,385,44.4,388.7,45.8,382.9z"/>
			</g>
			<g>
				<path class="st0" d="M69.6,375.3v-2.2h4.7v2.2l4.7,3.3c0,0,1.4,1.4,1.4,4.3c0,0,2.2,16.3-1.8,15.2l-1.8,1.1c0,0-1.4,0.7-2.5,0
					c0,0-0.7-1.8-2.2,0.4c0,0-3.6,0-6.5-1.1c0,0-2.9-0.4-3.3-6.1l2.5-13c0,0-0.7-1.4,1.8-2.5L69.6,375.3z"/>
				<path class="st1" d="M67.5,382.9l1.1-4c0,0-1.4-2.2-2.5,1.8C65,385,66,388.7,67.5,382.9z"/>
			</g>
			<g>
				<path class="st0" d="M91.3,375.3v-2.2H96v2.2l4.7,3.3c0,0,1.4,1.4,1.4,4.3c0,0,2.2,16.3-1.8,15.2l-1.8,1.1c0,0-1.4,0.7-2.5,0
					c0,0-0.7-1.8-2.2,0.4c0,0-3.6,0-6.5-1.1c0,0-2.9-0.4-3.3-6.1l2.5-13c0,0-0.7-1.4,1.8-2.5L91.3,375.3z"/>
				<path class="st1" d="M89.2,382.9l1.1-4c0,0-1.4-2.2-2.5,1.8C86.6,385,87.7,388.7,89.2,382.9z"/>
			</g>
			<g>
				<path class="st0" d="M113,375.3v-2.2h4.7v2.2l4.7,3.3c0,0,1.4,1.4,1.4,4.3c0,0,2.2,16.3-1.8,15.2l-1.8,1.1c0,0-1.4,0.7-2.5,0
					c0,0-0.7-1.8-2.2,0.4c0,0-3.6,0-6.5-1.1c0,0-2.9-0.4-3.3-6.1l2.5-13c0,0-0.7-1.4,1.8-2.5L113,375.3z"/>
				<path class="st1" d="M110.8,382.9l1.1-4c0,0-1.4-2.2-2.5,1.8C108.3,385,109.4,388.7,110.8,382.9z"/>
			</g>
			<g>
				<path class="st0" d="M134.7,375.3v-2.2h4.7v2.2l4.7,3.3c0,0,1.4,1.4,1.4,4.3c0,0,2.2,16.3-1.8,15.2l-1.8,1.1c0,0-1.4,0.7-2.5,0
					c0,0-0.7-1.8-2.2,0.4c0,0-3.6,0-6.5-1.1c0,0-2.9-0.4-3.3-6.1l2.5-13c0,0-0.7-1.4,1.8-2.5L134.7,375.3z"/>
				<path class="st1" d="M132.5,382.9l1.1-4c0,0-1.4-2.2-2.5,1.8C130,385,131.1,388.7,132.5,382.9z"/>
			</g>
			<g>
				<path class="st0" d="M156.4,375.3v-2.2h4.7v2.2l4.7,3.3c0,0,1.4,1.4,1.4,4.3c0,0,2.2,16.3-1.8,15.2l-1.8,1.1c0,0-1.4,0.7-2.5,0
					c0,0-0.7-1.8-2.2,0.4c0,0-3.6,0-6.5-1.1c0,0-2.9-0.4-3.3-6.1l2.5-13c0,0-0.7-1.4,1.8-2.5L156.4,375.3z"/>
				<path class="st1" d="M154.2,382.9l1.1-4c0,0-1.4-2.2-2.5,1.8C151.7,385,152.7,388.7,154.2,382.9z"/>
			</g>
			<g>
				<path class="st0" d="M178,375.3v-2.2h4.7v2.2l4.7,3.3c0,0,1.4,1.4,1.4,4.3c0,0,2.2,16.3-1.8,15.2l-1.8,1.1c0,0-1.4,0.7-2.5,0
					c0,0-0.7-1.8-2.2,0.4c0,0-3.6,0-6.5-1.1c0,0-2.9-0.4-3.3-6.1l2.5-13c0,0-0.7-1.4,1.8-2.5L178,375.3z"/>
				<path class="st1" d="M175.9,382.9l1.1-4c0,0-1.4-2.2-2.5,1.8C173.3,385,174.4,388.7,175.9,382.9z"/>
			</g>
			<g>
				<path class="st0" d="M199.4,375.3v-2.2h4.7v2.2l4.7,3.3c0,0,1.4,1.4,1.4,4.3c0,0,2.2,16.3-1.8,15.2l-1.8,1.1c0,0-1.4,0.7-2.5,0
					c0,0-0.7-1.8-2.2,0.4c0,0-3.6,0-6.5-1.1c0,0-2.9-0.4-3.3-6.1l2.5-13c0,0-0.7-1.4,1.8-2.5L199.4,375.3z"/>
				<path class="st1" d="M197.5,382.9l1.1-4c0,0-1.4-2.2-2.5,1.8C195,385,196.1,388.7,197.5,382.9z"/>
			</g>
			<g>
				<path class="st0" d="M221,375.3v-2.2h4.7v2.2l4.7,3.3c0,0,1.4,1.4,1.4,4.3c0,0,2.2,16.3-1.8,15.2l-1.8,1.1c0,0-1.4,0.7-2.5,0
					c0,0-0.7-1.8-2.2,0.4c0,0-3.6,0-6.5-1.1c0,0-2.9-0.4-3.3-6.1l2.5-13c0,0-0.7-1.4,1.8-2.5L221,375.3z"/>
				<path class="st1" d="M219.2,382.9l1.1-4c0,0-1.4-2.2-2.5,1.8C216.7,385,217.8,388.7,219.2,382.9z"/>
			</g>
			<g>
				<path class="st0" d="M26.3,408.5v-2.2H31v2.2l4.7,3.3c0,0,1.4,1.4,1.4,4.3c0,0,2.2,16.3-1.8,15.2l-1.8,1.1c0,0-1.4,0.7-2.5,0
					c0,0-0.7-1.8-2.2,0.4c0,0-3.6,0-6.5-1.1c0,0-2.9-0.4-3.3-6.1l2.5-13c0,0-0.7-1.4,1.8-2.5L26.3,408.5z"/>
				<path class="st1" d="M24.1,416.5l1.1-4c0,0-1.4-2.2-2.5,1.8C21.6,418.6,22.7,422.3,24.1,416.5z"/>
			</g>
			<g>
				<path class="st0" d="M48,408.5v-2.2h4.7v2.2l4.7,3.3c0,0,1.4,1.4,1.4,4.3c0,0,2.2,16.3-1.8,15.2l-1.8,1.1c0,0-1.4,0.7-2.5,0
					c0,0-0.7-1.8-2.2,0.4c0,0-3.6,0-6.5-1.1c0,0-2.9-0.4-3.3-6.1l2.5-13c0,0-0.7-1.4,1.8-2.5L48,408.5z"/>
				<path class="st1" d="M45.8,416.5l1.1-4c0,0-1.4-2.2-2.5,1.8C43.3,418.6,44.4,422.3,45.8,416.5z"/>
			</g>
			<g>
				<path class="st0" d="M69.6,408.5v-2.2h4.7v2.2l4.7,3.3c0,0,1.4,1.4,1.4,4.3c0,0,2.2,16.3-1.8,15.2l-1.8,1.1c0,0-1.4,0.7-2.5,0
					c0,0-0.7-1.8-2.2,0.4c0,0-3.6,0-6.5-1.1c0,0-2.9-0.4-3.3-6.1l2.5-13c0,0-0.7-1.4,1.8-2.5L69.6,408.5z"/>
				<path class="st1" d="M67.5,416.5l1.1-4c0,0-1.4-2.2-2.5,1.8C65,418.6,66,422.3,67.5,416.5z"/>
			</g>
			<g>
				<path class="st0" d="M91.3,408.5v-2.2H96v2.2l4.7,3.3c0,0,1.4,1.4,1.4,4.3c0,0,2.2,16.3-1.8,15.2l-1.8,1.1c0,0-1.4,0.7-2.5,0
					c0,0-0.7-1.8-2.2,0.4c0,0-3.6,0-6.5-1.1c0,0-2.9-0.4-3.3-6.1l2.5-13c0,0-0.7-1.4,1.8-2.5L91.3,408.5z"/>
				<path class="st1" d="M89.2,416.5l1.1-4c0,0-1.4-2.2-2.5,1.8C86.6,418.3,87.7,422.3,89.2,416.5z"/>
			</g>
			<g>
				<path class="st0" d="M113,408.5v-2.2h4.7v2.2l4.7,3.3c0,0,1.4,1.4,1.4,4.3c0,0,2.2,16.3-1.8,15.2l-1.8,1.1c0,0-1.4,0.7-2.5,0
					c0,0-0.7-1.8-2.2,0.4c0,0-3.6,0-6.5-1.1c0,0-2.9-0.4-3.3-6.1l2.5-13c0,0-0.7-1.4,1.8-2.5L113,408.5z"/>
				<path class="st1" d="M110.8,416.5l1.1-4c0,0-1.4-2.2-2.5,1.8C108.3,418.6,109.4,422.3,110.8,416.5z"/>
			</g>
			<g>
				<path class="st0" d="M134.7,408.5v-2.2h4.7v2.2l4.7,3.3c0,0,1.4,1.4,1.4,4.3c0,0,2.2,16.3-1.8,15.2l-1.8,1.1c0,0-1.4,0.7-2.5,0
					c0,0-0.7-1.8-2.2,0.4c0,0-3.6,0-6.5-1.1c0,0-2.9-0.4-3.3-6.1l2.5-13c0,0-0.7-1.4,1.8-2.5L134.7,408.5z"/>
				<path class="st1" d="M132.5,416.5l1.1-4c0,0-1.4-2.2-2.5,1.8C130,418.6,131.1,422.3,132.5,416.5z"/>
			</g>
			<g>
				<path class="st0" d="M156.4,408.5v-2.2h4.7v2.2l4.7,3.3c0,0,1.4,1.4,1.4,4.3c0,0,2.2,16.3-1.8,15.2l-1.8,1.1c0,0-1.4,0.7-2.5,0
					c0,0-0.7-1.8-2.2,0.4c0,0-3.6,0-6.5-1.1c0,0-2.9-0.4-3.3-6.1l2.5-13c0,0-0.7-1.4,1.8-2.5L156.4,408.5z"/>
				<path class="st1" d="M154.2,416.5l1.1-4c0,0-1.4-2.2-2.5,1.8C151.7,418.3,152.7,422.3,154.2,416.5z"/>
			</g>
			<g>
				<path class="st0" d="M178,408.5v-2.2h4.7v2.2l4.7,3.3c0,0,1.4,1.4,1.4,4.3c0,0,2.2,16.3-1.8,15.2l-1.8,1.1c0,0-1.4,0.7-2.5,0
					c0,0-0.7-1.8-2.2,0.4c0,0-3.6,0-6.5-1.1c0,0-2.9-0.4-3.3-6.1l2.5-13c0,0-0.7-1.4,1.8-2.5L178,408.5z"/>
				<path class="st1" d="M175.9,416.5l1.1-4c0,0-1.4-2.2-2.5,1.8C173.3,418.6,174.4,422.3,175.9,416.5z"/>
			</g>
			<g>
				<path class="st0" d="M199.4,408.5v-2.2h4.7v2.2l4.7,3.3c0,0,1.4,1.4,1.4,4.3c0,0,2.2,16.3-1.8,15.2l-1.8,1.1c0,0-1.4,0.7-2.5,0
					c0,0-0.7-1.8-2.2,0.4c0,0-3.6,0-6.5-1.1c0,0-2.9-0.4-3.3-6.1l2.5-13c0,0-0.7-1.4,1.8-2.5L199.4,408.5z"/>
				<path class="st1" d="M197.5,416.5l1.1-4c0,0-1.4-2.2-2.5,1.8C195,418.6,196.1,422.3,197.5,416.5z"/>
			</g>
			<g>
				<path class="st0" d="M221,408.5v-2.2h4.7v2.2l4.7,3.3c0,0,1.4,1.4,1.4,4.3c0,0,2.2,16.3-1.8,15.2l-1.8,1.1c0,0-1.4,0.7-2.5,0
					c0,0-0.7-1.8-2.2,0.4c0,0-3.6,0-6.5-1.1c0,0-2.9-0.4-3.3-6.1l2.5-13c0,0-0.7-1.4,1.8-2.5L221,408.5z"/>
				<path class="st1" d="M219.2,416.5l1.1-4c0,0-1.4-2.2-2.5,1.8C216.7,418.6,217.8,422.3,219.2,416.5z"/>
			</g>
			<g>
				<path class="st0" d="M26.3,442.1V440H31v2.2l4.7,3.3c0,0,1.4,1.4,1.4,4.3c0,0,2.2,16.3-1.8,15.2l-1.8,1.1c0,0-1.4,0.7-2.5,0
					c0,0-0.7-1.8-2.2,0.4c0,0-3.6,0-6.5-1.1c0,0-2.9-0.4-3.3-6.1l2.5-13c0,0-0.7-1.4,1.8-2.5L26.3,442.1z"/>
				<path class="st1" d="M24.1,449.7l1.1-4c0,0-1.4-2.2-2.5,1.8C21.6,451.9,22.7,455.5,24.1,449.7z"/>
			</g>
			<g>
				<path class="st0" d="M48,442.1V440h4.7v2.2l4.7,3.3c0,0,1.4,1.4,1.4,4.3c0,0,2.2,16.3-1.8,15.2l-1.8,1.1c0,0-1.4,0.7-2.5,0
					c0,0-0.7-1.8-2.2,0.4c0,0-3.6,0-6.5-1.1c0,0-2.9-0.4-3.3-6.1l2.5-13c0,0-0.7-1.4,1.8-2.5L48,442.1z"/>
				<path class="st1" d="M45.8,449.7l1.1-4c0,0-1.4-2.2-2.5,1.8C43.3,451.9,44.4,455.5,45.8,449.7z"/>
			</g>
			<g>
				<path class="st0" d="M69.6,442.1V440h4.7v2.2l4.7,3.3c0,0,1.4,1.4,1.4,4.3c0,0,2.2,16.3-1.8,15.2l-1.8,1.1c0,0-1.4,0.7-2.5,0
					c0,0-0.7-1.8-2.2,0.4c0,0-3.6,0-6.5-1.1c0,0-2.9-0.4-3.3-6.1l2.5-13c0,0-0.7-1.4,1.8-2.5L69.6,442.1z"/>
				<path class="st1" d="M67.5,449.7l1.1-4c0,0-1.4-2.2-2.5,1.8C65,451.9,66,455.5,67.5,449.7z"/>
			</g>
			<g>
				<path class="st0" d="M91.3,442.1V440H96v2.2l4.7,3.3c0,0,1.4,1.4,1.4,4.3c0,0,2.2,16.3-1.8,15.2l-1.8,1.1c0,0-1.4,0.7-2.5,0
					c0,0-0.7-1.8-2.2,0.4c0,0-3.6,0-6.5-1.1c0,0-2.9-0.4-3.3-6.1l2.5-13c0,0-0.7-1.4,1.8-2.5L91.3,442.1z"/>
				<path class="st1" d="M89.2,449.7l1.1-4c0,0-1.4-2.2-2.5,1.8C86.6,451.9,87.7,455.5,89.2,449.7z"/>
			</g>
			<g>
				<path class="st0" d="M113,442.1V440h4.7v2.2l4.7,3.3c0,0,1.4,1.4,1.4,4.3c0,0,2.2,16.3-1.8,15.2l-1.8,1.1c0,0-1.4,0.7-2.5,0
					c0,0-0.7-1.8-2.2,0.4c0,0-3.6,0-6.5-1.1c0,0-2.9-0.4-3.3-6.1l2.5-13c0,0-0.7-1.4,1.8-2.5L113,442.1z"/>
				<path class="st1" d="M110.8,449.7l1.1-4c0,0-1.4-2.2-2.5,1.8C108.3,451.9,109.4,455.5,110.8,449.7z"/>
			</g>
			<g>
				<path class="st0" d="M134.7,442.1V440h4.7v2.2l4.7,3.3c0,0,1.4,1.4,1.4,4.3c0,0,2.2,16.3-1.8,15.2l-1.8,1.1c0,0-1.4,0.7-2.5,0
					c0,0-0.7-1.8-2.2,0.4c0,0-3.6,0-6.5-1.1c0,0-2.9-0.4-3.3-6.1l2.5-13c0,0-0.7-1.4,1.8-2.5L134.7,442.1z"/>
				<path class="st1" d="M132.5,449.7l1.1-4c0,0-1.4-2.2-2.5,1.8C130,451.9,131.1,455.5,132.5,449.7z"/>
			</g>
			<g>
				<path class="st0" d="M156.4,442.1V440h4.7v2.2l4.7,3.3c0,0,1.4,1.4,1.4,4.3c0,0,2.2,16.3-1.8,15.2l-1.8,1.1c0,0-1.4,0.7-2.5,0
					c0,0-0.7-1.8-2.2,0.4c0,0-3.6,0-6.5-1.1c0,0-2.9-0.4-3.3-6.1l2.5-13c0,0-0.7-1.4,1.8-2.5L156.4,442.1z"/>
				<path class="st1" d="M154.2,449.7l1.1-4c0,0-1.4-2.2-2.5,1.8C151.7,451.9,152.7,455.5,154.2,449.7z"/>
			</g>
			<g>
				<path class="st0" d="M178,442.1V440h4.7v2.2l4.7,3.3c0,0,1.4,1.4,1.4,4.3c0,0,2.2,16.3-1.8,15.2l-1.8,1.1c0,0-1.4,0.7-2.5,0
					c0,0-0.7-1.8-2.2,0.4c0,0-3.6,0-6.5-1.1c0,0-2.9-0.4-3.3-6.1l2.5-13c0,0-0.7-1.4,1.8-2.5L178,442.1z"/>
				<path class="st1" d="M175.9,449.7l1.1-4c0,0-1.4-2.2-2.5,1.8C173.3,451.9,174.4,455.5,175.9,449.7z"/>
			</g>
			<g>
				<path class="st0" d="M199.4,442.1V440h4.7v2.2l4.7,3.3c0,0,1.4,1.4,1.4,4.3c0,0,2.2,16.3-1.8,15.2l-1.8,1.1c0,0-1.4,0.7-2.5,0
					c0,0-0.7-1.8-2.2,0.4c0,0-3.6,0-6.5-1.1c0,0-2.9-0.4-3.3-6.1l2.5-13c0,0-0.7-1.4,1.8-2.5L199.4,442.1z"/>
				<path class="st1" d="M197.5,449.7l1.1-4c0,0-1.4-2.2-2.5,1.8C195,451.9,196.1,455.5,197.5,449.7z"/>
			</g>
			<g>
				<path class="st0" d="M221,442.1V440h4.7v2.2l4.7,3.3c0,0,1.4,1.4,1.4,4.3c0,0,2.2,16.3-1.8,15.2l-1.8,1.1c0,0-1.4,0.7-2.5,0
					c0,0-0.7-1.8-2.2,0.4c0,0-3.6,0-6.5-1.1c0,0-2.9-0.4-3.3-6.1l2.5-13c0,0-0.7-1.4,1.8-2.5L221,442.1z"/>
				<path class="st1" d="M219.2,449.7l1.1-4c0,0-1.4-2.2-2.5,1.8C216.7,451.9,217.8,455.5,219.2,449.7z"/>
			</g>
			<g>
				<path class="st0" d="M26.3,475.4v-2.2H31v2.2l4.7,3.3c0,0,1.4,1.4,1.4,4.3c0,0,2.2,16.3-1.8,15.2l-1.8,1.1c0,0-1.4,0.7-2.5,0
					c0,0-0.7-1.8-2.2,0.4c0,0-3.6,0-6.5-1.1c0,0-2.9-0.4-3.3-6.1l2.5-13c0,0-0.7-1.4,1.8-2.5L26.3,475.4z"/>
				<path class="st1" d="M24.1,483.3l1.1-4c0,0-1.4-2.2-2.5,1.8C21.6,485.5,22.7,489.1,24.1,483.3z"/>
			</g>
			<g>
				<path class="st0" d="M48,475.4v-2.2h4.7v2.2l4.7,3.3c0,0,1.4,1.4,1.4,4.3c0,0,2.2,16.3-1.8,15.2l-1.8,1.1c0,0-1.4,0.7-2.5,0
					c0,0-0.7-1.8-2.2,0.4c0,0-3.6,0-6.5-1.1c0,0-2.9-0.4-3.3-6.1l2.5-13c0,0-0.7-1.4,1.8-2.5L48,475.4z"/>
				<path class="st1" d="M45.8,483.3l1.1-4c0,0-1.4-2.2-2.5,1.8C43.3,485.5,44.4,489.1,45.8,483.3z"/>
			</g>
			<g>
				<path class="st0" d="M69.6,475.4v-2.2h4.7v2.2l4.7,3.3c0,0,1.4,1.4,1.4,4.3c0,0,2.2,16.3-1.8,15.2l-1.8,1.1c0,0-1.4,0.7-2.5,0
					c0,0-0.7-1.8-2.2,0.4c0,0-3.6,0-6.5-1.1c0,0-2.9-0.4-3.3-6.1l2.5-13c0,0-0.7-1.4,1.8-2.5L69.6,475.4z"/>
				<path class="st1" d="M67.5,483.3l1.1-4c0,0-1.4-2.2-2.5,1.8C65,485.5,66,489.1,67.5,483.3z"/>
			</g>
			<g>
				<path class="st0" d="M91.3,475.4v-2.2H96v2.2l4.7,3.3c0,0,1.4,1.4,1.4,4.3c0,0,2.2,16.3-1.8,15.2l-1.8,1.1c0,0-1.4,0.7-2.5,0
					c0,0-0.7-1.8-2.2,0.4c0,0-3.6,0-6.5-1.1c0,0-2.9-0.4-3.3-6.1l2.5-13c0,0-0.7-1.4,1.8-2.5L91.3,475.4z"/>
				<path class="st1" d="M89.2,483.3l1.1-4c0,0-1.4-2.2-2.5,1.8C86.6,485.1,87.7,489.1,89.2,483.3z"/>
			</g>
			<g>
				<path class="st0" d="M113,475.4v-2.2h4.7v2.2l4.7,3.3c0,0,1.4,1.4,1.4,4.3c0,0,2.2,16.3-1.8,15.2l-1.8,1.1c0,0-1.4,0.7-2.5,0
					c0,0-0.7-1.8-2.2,0.4c0,0-3.6,0-6.5-1.1c0,0-2.9-0.4-3.3-6.1l2.5-13c0,0-0.7-1.4,1.8-2.5L113,475.4z"/>
				<path class="st1" d="M110.8,483.3l1.1-4c0,0-1.4-2.2-2.5,1.8C108.3,485.5,109.4,489.1,110.8,483.3z"/>
			</g>
			<g>
				<path class="st0" d="M134.7,475.4v-2.2h4.7v2.2l4.7,3.3c0,0,1.4,1.4,1.4,4.3c0,0,2.2,16.3-1.8,15.2l-1.8,1.1c0,0-1.4,0.7-2.5,0
					c0,0-0.7-1.8-2.2,0.4c0,0-3.6,0-6.5-1.1c0,0-2.9-0.4-3.3-6.1l2.5-13c0,0-0.7-1.4,1.8-2.5L134.7,475.4z"/>
				<path class="st1" d="M132.5,483.3l1.1-4c0,0-1.4-2.2-2.5,1.8C130,485.5,131.1,489.1,132.5,483.3z"/>
			</g>
			<g>
				<path class="st0" d="M156.4,475.4v-2.2h4.7v2.2l4.7,3.3c0,0,1.4,1.4,1.4,4.3c0,0,2.2,16.3-1.8,15.2l-1.8,1.1c0,0-1.4,0.7-2.5,0
					c0,0-0.7-1.8-2.2,0.4c0,0-3.6,0-6.5-1.1c0,0-2.9-0.4-3.3-6.1l2.5-13c0,0-0.7-1.4,1.8-2.5L156.4,475.4z"/>
				<path class="st1" d="M154.2,483.3l1.1-4c0,0-1.4-2.2-2.5,1.8C151.7,485.1,152.7,489.1,154.2,483.3z"/>
			</g>
			<g>
				<path class="st0" d="M178,475.4v-2.2h4.7v2.2l4.7,3.3c0,0,1.4,1.4,1.4,4.3c0,0,2.2,16.3-1.8,15.2l-1.8,1.1c0,0-1.4,0.7-2.5,0
					c0,0-0.7-1.8-2.2,0.4c0,0-3.6,0-6.5-1.1c0,0-2.9-0.4-3.3-6.1l2.5-13c0,0-0.7-1.4,1.8-2.5L178,475.4z"/>
				<path class="st1" d="M175.9,483.3l1.1-4c0,0-1.4-2.2-2.5,1.8C173.3,485.5,174.4,489.1,175.9,483.3z"/>
			</g>
			<g>
				<path class="st0" d="M199.4,475.4v-2.2h4.7v2.2l4.7,3.3c0,0,1.4,1.4,1.4,4.3c0,0,2.2,16.3-1.8,15.2l-1.8,1.1c0,0-1.4,0.7-2.5,0
					c0,0-0.7-1.8-2.2,0.4c0,0-3.6,0-6.5-1.1c0,0-2.9-0.4-3.3-6.1l2.5-13c0,0-0.7-1.4,1.8-2.5L199.4,475.4z"/>
				<path class="st1" d="M197.5,483.3l1.1-4c0,0-1.4-2.2-2.5,1.8C195,485.5,196.1,489.1,197.5,483.3z"/>
			</g>
			<g>
				<path class="st0" d="M221,475.4v-2.2h4.7v2.2l4.7,3.3c0,0,1.4,1.4,1.4,4.3c0,0,2.2,16.3-1.8,15.2l-1.8,1.1c0,0-1.4,0.7-2.5,0
					c0,0-0.7-1.8-2.2,0.4c0,0-3.6,0-6.5-1.1c0,0-2.9-0.4-3.3-6.1l2.5-13c0,0-0.7-1.4,1.8-2.5L221,475.4z"/>
				<path class="st1" d="M219.2,483.3l1.1-4c0,0-1.4-2.2-2.5,1.8C216.7,485.5,217.8,489.1,219.2,483.3z"/>
			</g>
			<g>
				<path class="st0" d="M26.3,509v-2.2H31v2.2l4.7,3.3c0,0,1.4,1.4,1.4,4.3c0,0,2.2,16.3-1.8,15.2l-1.8,1.1c0,0-1.4,0.7-2.5,0
					c0,0-0.7-1.8-2.2,0.4c0,0-3.6,0-6.5-1.1c0,0-2.9-0.4-3.3-6.1l2.5-13c0,0-0.7-1.4,1.8-2.5L26.3,509z"/>
				<path class="st1" d="M24.1,516.6l1.1-4c0,0-1.4-2.2-2.5,1.8C21.6,518.7,22.7,522.3,24.1,516.6z"/>
			</g>
			<g>
				<path class="st0" d="M48,509v-2.2h4.7v2.2l4.7,3.3c0,0,1.4,1.4,1.4,4.3c0,0,2.2,16.3-1.8,15.2l-1.8,1.1c0,0-1.4,0.7-2.5,0
					c0,0-0.7-1.8-2.2,0.4c0,0-3.6,0-6.5-1.1c0,0-2.9-0.4-3.3-6.1l2.5-13c0,0-0.7-1.4,1.8-2.5L48,509z"/>
				<path class="st1" d="M45.8,516.6l1.1-4c0,0-1.4-2.2-2.5,1.8C43.3,518.7,44.4,522.3,45.8,516.6z"/>
			</g>
			<g>
				<path class="st0" d="M69.6,509v-2.2h4.7v2.2l4.7,3.3c0,0,1.4,1.4,1.4,4.3c0,0,2.2,16.3-1.8,15.2l-1.8,1.1c0,0-1.4,0.7-2.5,0
					c0,0-0.7-1.8-2.2,0.4c0,0-3.6,0-6.5-1.1c0,0-2.9-0.4-3.3-6.1l2.5-13c0,0-0.7-1.4,1.8-2.5L69.6,509z"/>
				<path class="st1" d="M67.5,516.6l1.1-4c0,0-1.4-2.2-2.5,1.8C65,518.7,66,522.3,67.5,516.6z"/>
			</g>
			<g>
				<path class="st0" d="M91.3,509v-2.2H96v2.2l4.7,3.3c0,0,1.4,1.4,1.4,4.3c0,0,2.2,16.3-1.8,15.2l-1.8,1.1c0,0-1.4,0.7-2.5,0
					c0,0-0.7-1.8-2.2,0.4c0,0-3.6,0-6.5-1.1c0,0-2.9-0.4-3.3-6.1l2.5-13c0,0-0.7-1.4,1.8-2.5L91.3,509z"/>
				<path class="st1" d="M89.2,516.6l1.1-4c0,0-1.4-2.2-2.5,1.8C86.6,518.4,87.7,522.3,89.2,516.6z"/>
			</g>
			<g>
				<path class="st0" d="M113,509v-2.2h4.7v2.2l4.7,3.3c0,0,1.4,1.4,1.4,4.3c0,0,2.2,16.3-1.8,15.2l-1.8,1.1c0,0-1.4,0.7-2.5,0
					c0,0-0.7-1.8-2.2,0.4c0,0-3.6,0-6.5-1.1c0,0-2.9-0.4-3.3-6.1l2.5-13c0,0-0.7-1.4,1.8-2.5L113,509z"/>
				<path class="st1" d="M110.8,516.6l1.1-4c0,0-1.4-2.2-2.5,1.8C108.3,518.7,109.4,522.3,110.8,516.6z"/>
			</g>
			<g>
				<path class="st0" d="M134.7,509v-2.2h4.7v2.2l4.7,3.3c0,0,1.4,1.4,1.4,4.3c0,0,2.2,16.3-1.8,15.2l-1.8,1.1c0,0-1.4,0.7-2.5,0
					c0,0-0.7-1.8-2.2,0.4c0,0-3.6,0-6.5-1.1c0,0-2.9-0.4-3.3-6.1l2.5-13c0,0-0.7-1.4,1.8-2.5L134.7,509z"/>
				<path class="st1" d="M132.5,516.6l1.1-4c0,0-1.4-2.2-2.5,1.8C130,518.7,131.1,522.3,132.5,516.6z"/>
			</g>
			<g>
				<path class="st0" d="M156.4,509v-2.2h4.7v2.2l4.7,3.3c0,0,1.4,1.4,1.4,4.3c0,0,2.2,16.3-1.8,15.2l-1.8,1.1c0,0-1.4,0.7-2.5,0
					c0,0-0.7-1.8-2.2,0.4c0,0-3.6,0-6.5-1.1c0,0-2.9-0.4-3.3-6.1l2.5-13c0,0-0.7-1.4,1.8-2.5L156.4,509z"/>
				<path class="st1" d="M154.2,516.6l1.1-4c0,0-1.4-2.2-2.5,1.8C151.7,518.4,152.7,522.3,154.2,516.6z"/>
			</g>
			<g>
				<path class="st0" d="M178,509v-2.2h4.7v2.2l4.7,3.3c0,0,1.4,1.4,1.4,4.3c0,0,2.2,16.3-1.8,15.2l-1.8,1.1c0,0-1.4,0.7-2.5,0
					c0,0-0.7-1.8-2.2,0.4c0,0-3.6,0-6.5-1.1c0,0-2.9-0.4-3.3-6.1l2.5-13c0,0-0.7-1.4,1.8-2.5L178,509z"/>
				<path class="st1" d="M175.9,516.6l1.1-4c0,0-1.4-2.2-2.5,1.8C173.3,518.7,174.4,522.3,175.9,516.6z"/>
			</g>
			<g>
				<path class="st0" d="M199.4,509v-2.2h4.7v2.2l4.7,3.3c0,0,1.4,1.4,1.4,4.3c0,0,2.2,16.3-1.8,15.2l-1.8,1.1c0,0-1.4,0.7-2.5,0
					c0,0-0.7-1.8-2.2,0.4c0,0-3.6,0-6.5-1.1c0,0-2.9-0.4-3.3-6.1l2.5-13c0,0-0.7-1.4,1.8-2.5L199.4,509z"/>
				<path class="st1" d="M197.5,516.6l1.1-4c0,0-1.4-2.2-2.5,1.8C195,518.7,196.1,522.3,197.5,516.6z"/>
			</g>
			<g>
				<path class="st0" d="M221,509v-2.2h4.7v2.2l4.7,3.3c0,0,1.4,1.4,1.4,4.3c0,0,2.2,16.3-1.8,15.2l-1.8,1.1c0,0-1.4,0.7-2.5,0
					c0,0-0.7-1.8-2.2,0.4c0,0-3.6,0-6.5-1.1c0,0-2.9-0.4-3.3-6.1l2.5-13c0,0-0.7-1.4,1.8-2.5L221,509z"/>
				<path class="st1" d="M219.2,516.6l1.1-4c0,0-1.4-2.2-2.5,1.8C216.7,518.7,217.8,522.3,219.2,516.6z"/>
			</g>
			<g>
				<path class="st0" d="M26.3,542.2V540H31v2.2l4.7,3.3c0,0,1.4,1.4,1.4,4.3c0,0,2.2,16.3-1.8,15.2l-1.8,1.1c0,0-1.4,0.7-2.5,0
					c0,0-0.7-1.8-2.2,0.4c0,0-3.6,0-6.5-1.1c0,0-2.9-0.4-3.3-6.1l2.5-13c0,0-0.7-1.4,1.8-2.5L26.3,542.2z"/>
				<path class="st1" d="M24.1,550.2l1.1-4c0,0-1.4-2.2-2.5,1.8C21.6,552,22.7,555.9,24.1,550.2z"/>
			</g>
			<g>
				<path class="st0" d="M48,542.2V540h4.7v2.2l4.7,3.3c0,0,1.4,1.4,1.4,4.3c0,0,2.2,16.3-1.8,15.2l-1.8,1.1c0,0-1.4,0.7-2.5,0
					c0,0-0.7-1.8-2.2,0.4c0,0-3.6,0-6.5-1.1c0,0-2.9-0.4-3.3-6.1l2.5-13c0,0-0.7-1.4,1.8-2.5L48,542.2z"/>
				<path class="st1" d="M45.8,550.2l1.1-4c0,0-1.4-2.2-2.5,1.8C43.3,552,44.4,555.9,45.8,550.2z"/>
			</g>
			<g>
				<path class="st0" d="M69.6,542.2V540h4.7v2.2l4.7,3.3c0,0,1.4,1.4,1.4,4.3c0,0,2.2,16.3-1.8,15.2l-1.8,1.1c0,0-1.4,0.7-2.5,0
					c0,0-0.7-1.8-2.2,0.4c0,0-3.6,0-6.5-1.1c0,0-2.9-0.4-3.3-6.1l2.5-13c0,0-0.7-1.4,1.8-2.5L69.6,542.2z"/>
				<path class="st1" d="M67.5,550.2l1.1-4c0,0-1.4-2.2-2.5,1.8C65,552,66,555.9,67.5,550.2z"/>
			</g>
			<g>
				<path class="st0" d="M91.3,542.2V540H96v2.2l4.7,3.3c0,0,1.4,1.4,1.4,4.3c0,0,2.2,16.3-1.8,15.2l-1.8,1.1c0,0-1.4,0.7-2.5,0
					c0,0-0.7-1.8-2.2,0.4c0,0-3.6,0-6.5-1.1c0,0-2.9-0.4-3.3-6.1l2.5-13c0,0-0.7-1.4,1.8-2.5L91.3,542.2z"/>
				<path class="st1" d="M89.2,550.2l1.1-4c0,0-1.4-2.2-2.5,1.8C86.6,552,87.7,555.9,89.2,550.2z"/>
			</g>
			<g>
				<path class="st0" d="M113,542.2V540h4.7v2.2l4.7,3.3c0,0,1.4,1.4,1.4,4.3c0,0,2.2,16.3-1.8,15.2l-1.8,1.1c0,0-1.4,0.7-2.5,0
					c0,0-0.7-1.8-2.2,0.4c0,0-3.6,0-6.5-1.1c0,0-2.9-0.4-3.3-6.1l2.5-13c0,0-0.7-1.4,1.8-2.5L113,542.2z"/>
				<path class="st1" d="M110.8,550.2l1.1-4c0,0-1.4-2.2-2.5,1.8C108.3,552,109.4,555.9,110.8,550.2z"/>
			</g>
			<g>
				<path class="st0" d="M134.7,542.2V540h4.7v2.2l4.7,3.3c0,0,1.4,1.4,1.4,4.3c0,0,2.2,16.3-1.8,15.2l-1.8,1.1c0,0-1.4,0.7-2.5,0
					c0,0-0.7-1.8-2.2,0.4c0,0-3.6,0-6.5-1.1c0,0-2.9-0.4-3.3-6.1l2.5-13c0,0-0.7-1.4,1.8-2.5L134.7,542.2z"/>
				<path class="st1" d="M132.5,550.2l1.1-4c0,0-1.4-2.2-2.5,1.8C130,552,131.1,555.9,132.5,550.2z"/>
			</g>
			<g>
				<path class="st0" d="M156.4,542.2V540h4.7v2.2l4.7,3.3c0,0,1.4,1.4,1.4,4.3c0,0,2.2,16.3-1.8,15.2l-1.8,1.1c0,0-1.4,0.7-2.5,0
					c0,0-0.7-1.8-2.2,0.4c0,0-3.6,0-6.5-1.1c0,0-2.9-0.4-3.3-6.1l2.5-13c0,0-0.7-1.4,1.8-2.5L156.4,542.2z"/>
				<path class="st1" d="M154.2,550.2l1.1-4c0,0-1.4-2.2-2.5,1.8C151.7,552,152.7,555.9,154.2,550.2z"/>
			</g>
		</g>
		<g>
			<g>
				<path class="st0" d="M280.3,375.3v-2.2h4.7v2.2l4.7,3.3c0,0,1.4,1.4,1.4,4.3c0,0,2.2,16.3-1.8,15.2l-1.8,1.1c0,0-1.4,0.7-2.5,0
					c0,0-0.7-1.8-2.2,0.4c0,0-3.6,0-6.5-1.1c0,0-2.9-0.4-3.3-6.1l2.5-13c0,0-0.7-1.4,1.8-2.5L280.3,375.3z"/>
				<path class="st1" d="M278.5,382.9l1.1-4c0,0-1.4-2.2-2.5,1.8C275.9,385,277,388.7,278.5,382.9z"/>
			</g>
			<g>
				<path class="st0" d="M302,375.3v-2.2h4.7v2.2l4.7,3.3c0,0,1.4,1.4,1.4,4.3c0,0,2.2,16.3-1.8,15.2l-1.8,1.1c0,0-1.4,0.7-2.5,0
					c0,0-0.7-1.8-2.2,0.4c0,0-3.6,0-6.5-1.1c0,0-2.9-0.4-3.3-6.1l2.5-13c0,0-0.7-1.4,1.8-2.5L302,375.3z"/>
				<path class="st1" d="M300.2,382.9l1.1-4c0,0-1.4-2.2-2.5,1.8C297.6,385,298.7,388.7,300.2,382.9z"/>
			</g>
			<g>
				<path class="st0" d="M323.6,375.3v-2.2h4.7v2.2l4.7,3.3c0,0,1.4,1.4,1.4,4.3c0,0,2.2,16.3-1.8,15.2l-1.8,1.1c0,0-1.4,0.7-2.5,0
					c0,0-0.7-1.8-2.2,0.4c0,0-3.6,0-6.5-1.1c0,0-2.9-0.4-3.3-6.1l2.5-13c0,0-0.7-1.4,1.8-2.5L323.6,375.3z"/>
				<path class="st1" d="M321.8,382.9l1.1-4c0,0-1.4-2.2-2.5,1.8C319.3,385,320.4,388.7,321.8,382.9z"/>
			</g>
			<g>
				<path class="st0" d="M345.3,375.3v-2.2h4.7v2.2l4.7,3.3c0,0,1.4,1.4,1.4,4.3c0,0,2.2,16.3-1.8,15.2l-1.8,1.1c0,0-1.4,0.7-2.5,0
					c0,0-0.7-1.8-2.2,0.4c0,0-3.6,0-6.5-1.1c0,0-2.9-0.4-3.3-6.1l2.5-13c0,0-0.7-1.4,1.8-2.5L345.3,375.3z"/>
				<path class="st1" d="M343.5,382.9l1.1-4c0,0-1.4-2.2-2.5,1.8C341,385,342.1,388.7,343.5,382.9z"/>
			</g>
			<g>
				<path class="st0" d="M367,375.3v-2.2h4.7v2.2l4.7,3.3c0,0,1.4,1.4,1.4,4.3c0,0,2.2,16.3-1.8,15.2l-1.8,1.1c0,0-1.4,0.7-2.5,0
					c0,0-0.7-1.8-2.2,0.4c0,0-3.6,0-6.5-1.1c0,0-2.9-0.4-3.3-6.1l2.5-13c0,0-0.7-1.4,1.8-2.5L367,375.3z"/>
				<path class="st1" d="M365.2,382.9l1.1-4c0,0-1.4-2.2-2.5,1.8C362.7,385,363.7,388.7,365.2,382.9z"/>
			</g>
			<g>
				<path class="st0" d="M388.7,375.3v-2.2h4.7v2.2l4.7,3.3c0,0,1.4,1.4,1.4,4.3c0,0,2.2,16.3-1.8,15.2l-1.8,1.1c0,0-1.4,0.7-2.5,0
					c0,0-0.7-1.8-2.2,0.4c0,0-3.6,0-6.5-1.1c0,0-2.9-0.4-3.3-6.1l2.5-13c0,0-0.7-1.4,1.8-2.5L388.7,375.3z"/>
				<path class="st1" d="M386.9,382.9l1.1-4c0,0-1.4-2.2-2.5,1.8C384.3,385,385.4,388.7,386.9,382.9z"/>
			</g>
			<g>
				<path class="st0" d="M410.3,375.3v-2.2h4.7v2.2l4.7,3.3c0,0,1.4,1.4,1.4,4.3c0,0,2.2,16.3-1.8,15.2l-1.8,1.1c0,0-1.4,0.7-2.5,0
					c0,0-0.7-1.8-2.2,0.4c0,0-3.6,0-6.5-1.1c0,0-2.9-0.4-3.3-6.1l2.5-13c0,0-0.7-1.4,1.8-2.5L410.3,375.3z"/>
				<path class="st1" d="M408.5,382.9l1.1-4c0,0-1.4-2.2-2.5,1.8C406,385,407.1,388.7,408.5,382.9z"/>
			</g>
			<g>
				<path class="st0" d="M432,375.3v-2.2h4.7v2.2l4.7,3.3c0,0,1.4,1.4,1.4,4.3c0,0,2.2,16.3-1.8,15.2l-1.8,1.1c0,0-1.4,0.7-2.5,0
					c0,0-0.7-1.8-2.2,0.4c0,0-3.6,0-6.5-1.1c0,0-2.9-0.4-3.3-6.1l2.5-13c0,0-0.7-1.4,1.8-2.5L432,375.3z"/>
				<path class="st1" d="M430.2,382.9l1.1-4c0,0-1.4-2.2-2.5,1.8C427.7,385,428.8,388.7,430.2,382.9z"/>
			</g>
			<g>
				<path class="st0" d="M453.7,375.3v-2.2h4.7v2.2l4.7,3.3c0,0,1.4,1.4,1.4,4.3c0,0,2.2,16.3-1.8,15.2l-1.8,1.1c0,0-1.4,0.7-2.5,0
					c0,0-0.7-1.8-2.2,0.4c0,0-3.6,0-6.5-1.1c0,0-2.9-0.4-3.3-6.1l2.5-13c0,0-0.7-1.4,1.8-2.5L453.7,375.3z"/>
				<path class="st1" d="M451.9,382.9l1.1-4c0,0-1.4-2.2-2.5,1.8C449.4,385,450.5,388.7,451.9,382.9z"/>
			</g>
			<g>
				<path class="st0" d="M475.4,375.3v-2.2h4.7v2.2l4.7,3.3c0,0,1.4,1.4,1.4,4.3c0,0,2.2,16.3-1.8,15.2l-1.8,1.1c0,0-1.4,0.7-2.5,0
					c0,0-0.7-1.8-2.2,0.4c0,0-3.6,0-6.5-1.1c0,0-2.9-0.4-3.3-6.1l2.5-13c0,0-0.7-1.4,1.8-2.5L475.4,375.3z"/>
				<path class="st1" d="M473.6,382.9l1.1-4c0,0-1.4-2.2-2.5,1.8C471,385,471.8,388.7,473.6,382.9z"/>
			</g>
			<g>
				<path class="st0" d="M280.3,408.5v-2.2h4.7v2.2l4.7,3.3c0,0,1.4,1.4,1.4,4.3c0,0,2.2,16.3-1.8,15.2l-1.8,1.1c0,0-1.4,0.7-2.5,0
					c0,0-0.7-1.8-2.2,0.4c0,0-3.6,0-6.5-1.1c0,0-2.9-0.4-3.3-6.1l2.5-13c0,0-0.7-1.4,1.8-2.5L280.3,408.5z"/>
				<path class="st1" d="M278.5,416.5l1.1-4c0,0-1.4-2.2-2.5,1.8C275.9,418.3,277,422.3,278.5,416.5z"/>
			</g>
			<g>
				<path class="st0" d="M302,408.5v-2.2h4.7v2.2l4.7,3.3c0,0,1.4,1.4,1.4,4.3c0,0,2.2,16.3-1.8,15.2l-1.8,1.1c0,0-1.4,0.7-2.5,0
					c0,0-0.7-1.8-2.2,0.4c0,0-3.6,0-6.5-1.1c0,0-2.9-0.4-3.3-6.1l2.5-13c0,0-0.7-1.4,1.8-2.5L302,408.5z"/>
				<path class="st1" d="M300.2,416.5l1.1-4c0,0-1.4-2.2-2.5,1.8C297.6,418.6,298.7,422.3,300.2,416.5z"/>
			</g>
			<g>
				<path class="st0" d="M323.6,408.5v-2.2h4.7v2.2l4.7,3.3c0,0,1.4,1.4,1.4,4.3c0,0,2.2,16.3-1.8,15.2l-1.8,1.1c0,0-1.4,0.7-2.5,0
					c0,0-0.7-1.8-2.2,0.4c0,0-3.6,0-6.5-1.1c0,0-2.9-0.4-3.3-6.1l2.5-13c0,0-0.7-1.4,1.8-2.5L323.6,408.5z"/>
				<path class="st1" d="M321.8,416.5l1.1-4c0,0-1.4-2.2-2.5,1.8C319.3,418.3,320.4,422.3,321.8,416.5z"/>
			</g>
			<g>
				<path class="st0" d="M345.3,408.5v-2.2h4.7v2.2l4.7,3.3c0,0,1.4,1.4,1.4,4.3c0,0,2.2,16.3-1.8,15.2l-1.8,1.1c0,0-1.4,0.7-2.5,0
					c0,0-0.7-1.8-2.2,0.4c0,0-3.6,0-6.5-1.1c0,0-2.9-0.4-3.3-6.1l2.5-13c0,0-0.7-1.4,1.8-2.5L345.3,408.5z"/>
				<path class="st1" d="M343.5,416.5l1.1-4c0,0-1.4-2.2-2.5,1.8C341,418.6,342.1,422.3,343.5,416.5z"/>
			</g>
			<g>
				<path class="st0" d="M367,408.5v-2.2h4.7v2.2l4.7,3.3c0,0,1.4,1.4,1.4,4.3c0,0,2.2,16.3-1.8,15.2l-1.8,1.1c0,0-1.4,0.7-2.5,0
					c0,0-0.7-1.8-2.2,0.4c0,0-3.6,0-6.5-1.1c0,0-2.9-0.4-3.3-6.1l2.5-13c0,0-0.7-1.4,1.8-2.5L367,408.5z"/>
				<path class="st1" d="M365.2,416.5l1.1-4c0,0-1.4-2.2-2.5,1.8C362.7,418.3,363.7,422.3,365.2,416.5z"/>
			</g>
			<g>
				<path class="st0" d="M388.7,408.5v-2.2h4.7v2.2l4.7,3.3c0,0,1.4,1.4,1.4,4.3c0,0,2.2,16.3-1.8,15.2l-1.8,1.1c0,0-1.4,0.7-2.5,0
					c0,0-0.7-1.8-2.2,0.4c0,0-3.6,0-6.5-1.1c0,0-2.9-0.4-3.3-6.1l2.5-13c0,0-0.7-1.4,1.8-2.5L388.7,408.5z"/>
				<path class="st1" d="M386.9,416.5l1.1-4c0,0-1.4-2.2-2.5,1.8C384.3,418.3,385.4,422.3,386.9,416.5z"/>
			</g>
			<g>
				<path class="st0" d="M410.3,408.5v-2.2h4.7v2.2l4.7,3.3c0,0,1.4,1.4,1.4,4.3c0,0,2.2,16.3-1.8,15.2l-1.8,1.1c0,0-1.4,0.7-2.5,0
					c0,0-0.7-1.8-2.2,0.4c0,0-3.6,0-6.5-1.1c0,0-2.9-0.4-3.3-6.1l2.5-13c0,0-0.7-1.4,1.8-2.5L410.3,408.5z"/>
				<path class="st1" d="M408.5,416.5l1.1-4c0,0-1.4-2.2-2.5,1.8C406,418.6,407.1,422.3,408.5,416.5z"/>
			</g>
			<g>
				<path class="st0" d="M432,408.5v-2.2h4.7v2.2l4.7,3.3c0,0,1.4,1.4,1.4,4.3c0,0,2.2,16.3-1.8,15.2l-1.8,1.1c0,0-1.4,0.7-2.5,0
					c0,0-0.7-1.8-2.2,0.4c0,0-3.6,0-6.5-1.1c0,0-2.9-0.4-3.3-6.1l2.5-13c0,0-0.7-1.4,1.8-2.5L432,408.5z"/>
				<path class="st1" d="M430.2,416.5l1.1-4c0,0-1.4-2.2-2.5,1.8C427.7,418.3,428.8,422.3,430.2,416.5z"/>
			</g>
			<g>
				<path class="st0" d="M453.7,408.5v-2.2h4.7v2.2l4.7,3.3c0,0,1.4,1.4,1.4,4.3c0,0,2.2,16.3-1.8,15.2l-1.8,1.1c0,0-1.4,0.7-2.5,0
					c0,0-0.7-1.8-2.2,0.4c0,0-3.6,0-6.5-1.1c0,0-2.9-0.4-3.3-6.1l2.5-13c0,0-0.7-1.4,1.8-2.5L453.7,408.5z"/>
				<path class="st1" d="M451.9,416.5l1.1-4c0,0-1.4-2.2-2.5,1.8C449.4,418.6,450.5,422.3,451.9,416.5z"/>
			</g>
			<g>
				<path class="st0" d="M475.4,408.5v-2.2h4.7v2.2l4.7,3.3c0,0,1.4,1.4,1.4,4.3c0,0,2.2,16.3-1.8,15.2l-1.8,1.1c0,0-1.4,0.7-2.5,0
					c0,0-0.7-1.8-2.2,0.4c0,0-3.6,0-6.5-1.1c0,0-2.9-0.4-3.3-6.1l2.5-13c0,0-0.7-1.4,1.8-2.5L475.4,408.5z"/>
				<path class="st1" d="M473.6,416.5l1.1-4c0,0-1.4-2.2-2.5,1.8C471,418.6,471.8,422.3,473.6,416.5z"/>
			</g>
			<g>
				<path class="st0" d="M280.3,442.1V440h4.7v2.2l4.7,3.3c0,0,1.4,1.4,1.4,4.3c0,0,2.2,16.3-1.8,15.2l-1.8,1.1c0,0-1.4,0.7-2.5,0
					c0,0-0.7-1.8-2.2,0.4c0,0-3.6,0-6.5-1.1c0,0-2.9-0.4-3.3-6.1l2.5-13c0,0-0.7-1.4,1.8-2.5L280.3,442.1z"/>
				<path class="st1" d="M278.5,449.7l1.1-4c0,0-1.4-2.2-2.5,1.8C275.9,451.9,277,455.5,278.5,449.7z"/>
			</g>
			<g>
				<path class="st0" d="M302,442.1V440h4.7v2.2l4.7,3.3c0,0,1.4,1.4,1.4,4.3c0,0,2.2,16.3-1.8,15.2l-1.8,1.1c0,0-1.4,0.7-2.5,0
					c0,0-0.7-1.8-2.2,0.4c0,0-3.6,0-6.5-1.1c0,0-2.9-0.4-3.3-6.1l2.5-13c0,0-0.7-1.4,1.8-2.5L302,442.1z"/>
				<path class="st1" d="M300.2,449.7l1.1-4c0,0-1.4-2.2-2.5,1.8C297.6,451.9,298.7,455.5,300.2,449.7z"/>
			</g>
			<g>
				<path class="st0" d="M323.6,442.1V440h4.7v2.2l4.7,3.3c0,0,1.4,1.4,1.4,4.3c0,0,2.2,16.3-1.8,15.2l-1.8,1.1c0,0-1.4,0.7-2.5,0
					c0,0-0.7-1.8-2.2,0.4c0,0-3.6,0-6.5-1.1c0,0-2.9-0.4-3.3-6.1l2.5-13c0,0-0.7-1.4,1.8-2.5L323.6,442.1z"/>
				<path class="st1" d="M321.8,449.7l1.1-4c0,0-1.4-2.2-2.5,1.8C319.3,451.9,320.4,455.5,321.8,449.7z"/>
			</g>
			<g>
				<path class="st0" d="M345.3,442.1V440h4.7v2.2l4.7,3.3c0,0,1.4,1.4,1.4,4.3c0,0,2.2,16.3-1.8,15.2l-1.8,1.1c0,0-1.4,0.7-2.5,0
					c0,0-0.7-1.8-2.2,0.4c0,0-3.6,0-6.5-1.1c0,0-2.9-0.4-3.3-6.1l2.5-13c0,0-0.7-1.4,1.8-2.5L345.3,442.1z"/>
				<path class="st1" d="M343.5,449.7l1.1-4c0,0-1.4-2.2-2.5,1.8C341,451.9,342.1,455.5,343.5,449.7z"/>
			</g>
			<g>
				<path class="st0" d="M367,442.1V440h4.7v2.2l4.7,3.3c0,0,1.4,1.4,1.4,4.3c0,0,2.2,16.3-1.8,15.2l-1.8,1.1c0,0-1.4,0.7-2.5,0
					c0,0-0.7-1.8-2.2,0.4c0,0-3.6,0-6.5-1.1c0,0-2.9-0.4-3.3-6.1l2.5-13c0,0-0.7-1.4,1.8-2.5L367,442.1z"/>
				<path class="st1" d="M365.2,449.7l1.1-4c0,0-1.4-2.2-2.5,1.8C362.7,451.9,363.7,455.5,365.2,449.7z"/>
			</g>
			<g>
				<path class="st0" d="M388.7,442.1V440h4.7v2.2l4.7,3.3c0,0,1.4,1.4,1.4,4.3c0,0,2.2,16.3-1.8,15.2l-1.8,1.1c0,0-1.4,0.7-2.5,0
					c0,0-0.7-1.8-2.2,0.4c0,0-3.6,0-6.5-1.1c0,0-2.9-0.4-3.3-6.1l2.5-13c0,0-0.7-1.4,1.8-2.5L388.7,442.1z"/>
				<path class="st1" d="M386.9,449.7l1.1-4c0,0-1.4-2.2-2.5,1.8C384.3,451.9,385.4,455.5,386.9,449.7z"/>
			</g>
			<g>
				<path class="st0" d="M410.3,442.1V440h4.7v2.2l4.7,3.3c0,0,1.4,1.4,1.4,4.3c0,0,2.2,16.3-1.8,15.2l-1.8,1.1c0,0-1.4,0.7-2.5,0
					c0,0-0.7-1.8-2.2,0.4c0,0-3.6,0-6.5-1.1c0,0-2.9-0.4-3.3-6.1l2.5-13c0,0-0.7-1.4,1.8-2.5L410.3,442.1z"/>
				<path class="st1" d="M408.5,449.7l1.1-4c0,0-1.4-2.2-2.5,1.8C406,451.9,407.1,455.5,408.5,449.7z"/>
			</g>
			<g>
				<path class="st0" d="M432,442.1V440h4.7v2.2l4.7,3.3c0,0,1.4,1.4,1.4,4.3c0,0,2.2,16.3-1.8,15.2l-1.8,1.1c0,0-1.4,0.7-2.5,0
					c0,0-0.7-1.8-2.2,0.4c0,0-3.6,0-6.5-1.1c0,0-2.9-0.4-3.3-6.1l2.5-13c0,0-0.7-1.4,1.8-2.5L432,442.1z"/>
				<path class="st1" d="M430.2,449.7l1.1-4c0,0-1.4-2.2-2.5,1.8C427.7,451.9,428.8,455.5,430.2,449.7z"/>
			</g>
			<g>
				<path class="st0" d="M453.7,442.1V440h4.7v2.2l4.7,3.3c0,0,1.4,1.4,1.4,4.3c0,0,2.2,16.3-1.8,15.2l-1.8,1.1c0,0-1.4,0.7-2.5,0
					c0,0-0.7-1.8-2.2,0.4c0,0-3.6,0-6.5-1.1c0,0-2.9-0.4-3.3-6.1l2.5-13c0,0-0.7-1.4,1.8-2.5L453.7,442.1z"/>
				<path class="st1" d="M451.9,449.7l1.1-4c0,0-1.4-2.2-2.5,1.8C449.4,451.9,450.5,455.5,451.9,449.7z"/>
			</g>
			<g>
				<path class="st0" d="M475.4,442.1V440h4.7v2.2l4.7,3.3c0,0,1.4,1.4,1.4,4.3c0,0,2.2,16.3-1.8,15.2l-1.8,1.1c0,0-1.4,0.7-2.5,0
					c0,0-0.7-1.8-2.2,0.4c0,0-3.6,0-6.5-1.1c0,0-2.9-0.4-3.3-6.1l2.5-13c0,0-0.7-1.4,1.8-2.5L475.4,442.1z"/>
				<path class="st1" d="M473.6,449.7l1.1-4c0,0-1.4-2.2-2.5,1.8C471,451.9,471.8,455.5,473.6,449.7z"/>
			</g>
			<g>
				<path class="st0" d="M280.3,475.4v-2.2h4.7v2.2l4.7,3.3c0,0,1.4,1.4,1.4,4.3c0,0,2.2,16.3-1.8,15.2l-1.8,1.1c0,0-1.4,0.7-2.5,0
					c0,0-0.7-1.8-2.2,0.4c0,0-3.6,0-6.5-1.1c0,0-2.9-0.4-3.3-6.1l2.5-13c0,0-0.7-1.4,1.8-2.5L280.3,475.4z"/>
				<path class="st1" d="M278.5,483.3l1.1-4c0,0-1.4-2.2-2.5,1.8C275.9,485.1,277,489.1,278.5,483.3z"/>
			</g>
			<g>
				<path class="st0" d="M302,475.4v-2.2h4.7v2.2l4.7,3.3c0,0,1.4,1.4,1.4,4.3c0,0,2.2,16.3-1.8,15.2l-1.8,1.1c0,0-1.4,0.7-2.5,0
					c0,0-0.7-1.8-2.2,0.4c0,0-3.6,0-6.5-1.1c0,0-2.9-0.4-3.3-6.1l2.5-13c0,0-0.7-1.4,1.8-2.5L302,475.4z"/>
				<path class="st1" d="M300.2,483.3l1.1-4c0,0-1.4-2.2-2.5,1.8C297.6,485.5,298.7,489.1,300.2,483.3z"/>
			</g>
			<g>
				<path class="st0" d="M323.6,475.4v-2.2h4.7v2.2l4.7,3.3c0,0,1.4,1.4,1.4,4.3c0,0,2.2,16.3-1.8,15.2l-1.8,1.1c0,0-1.4,0.7-2.5,0
					c0,0-0.7-1.8-2.2,0.4c0,0-3.6,0-6.5-1.1c0,0-2.9-0.4-3.3-6.1l2.5-13c0,0-0.7-1.4,1.8-2.5L323.6,475.4z"/>
				<path class="st1" d="M321.8,483.3l1.1-4c0,0-1.4-2.2-2.5,1.8C319.3,485.1,320.4,489.1,321.8,483.3z"/>
			</g>
			<g>
				<path class="st0" d="M345.3,475.4v-2.2h4.7v2.2l4.7,3.3c0,0,1.4,1.4,1.4,4.3c0,0,2.2,16.3-1.8,15.2l-1.8,1.1c0,0-1.4,0.7-2.5,0
					c0,0-0.7-1.8-2.2,0.4c0,0-3.6,0-6.5-1.1c0,0-2.9-0.4-3.3-6.1l2.5-13c0,0-0.7-1.4,1.8-2.5L345.3,475.4z"/>
				<path class="st1" d="M343.5,483.3l1.1-4c0,0-1.4-2.2-2.5,1.8C341,485.5,342.1,489.1,343.5,483.3z"/>
			</g>
			<g>
				<path class="st0" d="M367,475.4v-2.2h4.7v2.2l4.7,3.3c0,0,1.4,1.4,1.4,4.3c0,0,2.2,16.3-1.8,15.2l-1.8,1.1c0,0-1.4,0.7-2.5,0
					c0,0-0.7-1.8-2.2,0.4c0,0-3.6,0-6.5-1.1c0,0-2.9-0.4-3.3-6.1l2.5-13c0,0-0.7-1.4,1.8-2.5L367,475.4z"/>
				<path class="st1" d="M365.2,483.3l1.1-4c0,0-1.4-2.2-2.5,1.8C362.7,485.1,363.7,489.1,365.2,483.3z"/>
			</g>
			<g>
				<path class="st0" d="M388.7,475.4v-2.2h4.7v2.2l4.7,3.3c0,0,1.4,1.4,1.4,4.3c0,0,2.2,16.3-1.8,15.2l-1.8,1.1c0,0-1.4,0.7-2.5,0
					c0,0-0.7-1.8-2.2,0.4c0,0-3.6,0-6.5-1.1c0,0-2.9-0.4-3.3-6.1l2.5-13c0,0-0.7-1.4,1.8-2.5L388.7,475.4z"/>
				<path class="st1" d="M386.9,483.3l1.1-4c0,0-1.4-2.2-2.5,1.8C384.3,485.1,385.4,489.1,386.9,483.3z"/>
			</g>
			<g>
				<path class="st0" d="M410.3,475.4v-2.2h4.7v2.2l4.7,3.3c0,0,1.4,1.4,1.4,4.3c0,0,2.2,16.3-1.8,15.2l-1.8,1.1c0,0-1.4,0.7-2.5,0
					c0,0-0.7-1.8-2.2,0.4c0,0-3.6,0-6.5-1.1c0,0-2.9-0.4-3.3-6.1l2.5-13c0,0-0.7-1.4,1.8-2.5L410.3,475.4z"/>
				<path class="st1" d="M408.5,483.3l1.1-4c0,0-1.4-2.2-2.5,1.8C406,485.5,407.1,489.1,408.5,483.3z"/>
			</g>
			<g>
				<path class="st0" d="M432,475.4v-2.2h4.7v2.2l4.7,3.3c0,0,1.4,1.4,1.4,4.3c0,0,2.2,16.3-1.8,15.2l-1.8,1.1c0,0-1.4,0.7-2.5,0
					c0,0-0.7-1.8-2.2,0.4c0,0-3.6,0-6.5-1.1c0,0-2.9-0.4-3.3-6.1l2.5-13c0,0-0.7-1.4,1.8-2.5L432,475.4z"/>
				<path class="st1" d="M430.2,483.3l1.1-4c0,0-1.4-2.2-2.5,1.8C427.7,485.1,428.8,489.1,430.2,483.3z"/>
			</g>
			<g>
				<path class="st0" d="M453.7,475.4v-2.2h4.7v2.2l4.7,3.3c0,0,1.4,1.4,1.4,4.3c0,0,2.2,16.3-1.8,15.2l-1.8,1.1c0,0-1.4,0.7-2.5,0
					c0,0-0.7-1.8-2.2,0.4c0,0-3.6,0-6.5-1.1c0,0-2.9-0.4-3.3-6.1l2.5-13c0,0-0.7-1.4,1.8-2.5L453.7,475.4z"/>
				<path class="st1" d="M451.9,483.3l1.1-4c0,0-1.4-2.2-2.5,1.8C449.4,485.5,450.5,489.1,451.9,483.3z"/>
			</g>
			<g>
				<path class="st0" d="M475.4,475.4v-2.2h4.7v2.2l4.7,3.3c0,0,1.4,1.4,1.4,4.3c0,0,2.2,16.3-1.8,15.2l-1.8,1.1c0,0-1.4,0.7-2.5,0
					c0,0-0.7-1.8-2.2,0.4c0,0-3.6,0-6.5-1.1c0,0-2.9-0.4-3.3-6.1l2.5-13c0,0-0.7-1.4,1.8-2.5L475.4,475.4z"/>
				<path class="st1" d="M473.6,483.3l1.1-4c0,0-1.4-2.2-2.5,1.8C471,485.5,471.8,489.1,473.6,483.3z"/>
			</g>
			<g>
				<path class="st0" d="M280.3,509v-2.2h4.7v2.2l4.7,3.3c0,0,1.4,1.4,1.4,4.3c0,0,2.2,16.3-1.8,15.2l-1.8,1.1c0,0-1.4,0.7-2.5,0
					c0,0-0.7-1.8-2.2,0.4c0,0-3.6,0-6.5-1.1c0,0-2.9-0.4-3.3-6.1l2.5-13c0,0-0.7-1.4,1.8-2.5L280.3,509z"/>
				<path class="st1" d="M278.5,516.6l1.1-4c0,0-1.4-2.2-2.5,1.8C275.9,518.4,277,522.3,278.5,516.6z"/>
			</g>
			<g>
				<path class="st0" d="M302,509v-2.2h4.7v2.2l4.7,3.3c0,0,1.4,1.4,1.4,4.3c0,0,2.2,16.3-1.8,15.2l-1.8,1.1c0,0-1.4,0.7-2.5,0
					c0,0-0.7-1.8-2.2,0.4c0,0-3.6,0-6.5-1.1c0,0-2.9-0.4-3.3-6.1l2.5-13c0,0-0.7-1.4,1.8-2.5L302,509z"/>
				<path class="st1" d="M300.2,516.6l1.1-4c0,0-1.4-2.2-2.5,1.8C297.6,518.7,298.7,522.3,300.2,516.6z"/>
			</g>
			<g>
				<path class="st0" d="M323.6,509v-2.2h4.7v2.2l4.7,3.3c0,0,1.4,1.4,1.4,4.3c0,0,2.2,16.3-1.8,15.2l-1.8,1.1c0,0-1.4,0.7-2.5,0
					c0,0-0.7-1.8-2.2,0.4c0,0-3.6,0-6.5-1.1c0,0-2.9-0.4-3.3-6.1l2.5-13c0,0-0.7-1.4,1.8-2.5L323.6,509z"/>
				<path class="st1" d="M321.8,516.6l1.1-4c0,0-1.4-2.2-2.5,1.8C319.3,518.4,320.4,522.3,321.8,516.6z"/>
			</g>
			<g>
				<path class="st0" d="M345.3,509v-2.2h4.7v2.2l4.7,3.3c0,0,1.4,1.4,1.4,4.3c0,0,2.2,16.3-1.8,15.2l-1.8,1.1c0,0-1.4,0.7-2.5,0
					c0,0-0.7-1.8-2.2,0.4c0,0-3.6,0-6.5-1.1c0,0-2.9-0.4-3.3-6.1l2.5-13c0,0-0.7-1.4,1.8-2.5L345.3,509z"/>
				<path class="st1" d="M343.5,516.6l1.1-4c0,0-1.4-2.2-2.5,1.8C341,518.7,342.1,522.3,343.5,516.6z"/>
			</g>
			<g>
				<path class="st0" d="M367,509v-2.2h4.7v2.2l4.7,3.3c0,0,1.4,1.4,1.4,4.3c0,0,2.2,16.3-1.8,15.2l-1.8,1.1c0,0-1.4,0.7-2.5,0
					c0,0-0.7-1.8-2.2,0.4c0,0-3.6,0-6.5-1.1c0,0-2.9-0.4-3.3-6.1l2.5-13c0,0-0.7-1.4,1.8-2.5L367,509z"/>
				<path class="st1" d="M365.2,516.6l1.1-4c0,0-1.4-2.2-2.5,1.8C362.7,518.4,363.7,522.3,365.2,516.6z"/>
			</g>
			<g>
				<path class="st0" d="M388.7,509v-2.2h4.7v2.2l4.7,3.3c0,0,1.4,1.4,1.4,4.3c0,0,2.2,16.3-1.8,15.2l-1.8,1.1c0,0-1.4,0.7-2.5,0
					c0,0-0.7-1.8-2.2,0.4c0,0-3.6,0-6.5-1.1c0,0-2.9-0.4-3.3-6.1l2.5-13c0,0-0.7-1.4,1.8-2.5L388.7,509z"/>
				<path class="st1" d="M386.9,516.6l1.1-4c0,0-1.4-2.2-2.5,1.8C384.3,518.4,385.4,522.3,386.9,516.6z"/>
			</g>
			<g>
				<path class="st0" d="M410.3,509v-2.2h4.7v2.2l4.7,3.3c0,0,1.4,1.4,1.4,4.3c0,0,2.2,16.3-1.8,15.2l-1.8,1.1c0,0-1.4,0.7-2.5,0
					c0,0-0.7-1.8-2.2,0.4c0,0-3.6,0-6.5-1.1c0,0-2.9-0.4-3.3-6.1l2.5-13c0,0-0.7-1.4,1.8-2.5L410.3,509z"/>
				<path class="st1" d="M408.5,516.6l1.1-4c0,0-1.4-2.2-2.5,1.8C406,518.7,407.1,522.3,408.5,516.6z"/>
			</g>
			<g>
				<path class="st0" d="M432,509v-2.2h4.7v2.2l4.7,3.3c0,0,1.4,1.4,1.4,4.3c0,0,2.2,16.3-1.8,15.2l-1.8,1.1c0,0-1.4,0.7-2.5,0
					c0,0-0.7-1.8-2.2,0.4c0,0-3.6,0-6.5-1.1c0,0-2.9-0.4-3.3-6.1l2.5-13c0,0-0.7-1.4,1.8-2.5L432,509z"/>
				<path class="st1" d="M430.2,516.6l1.1-4c0,0-1.4-2.2-2.5,1.8C427.7,518.4,428.8,522.3,430.2,516.6z"/>
			</g>
			<g>
				<path class="st0" d="M453.7,509v-2.2h4.7v2.2l4.7,3.3c0,0,1.4,1.4,1.4,4.3c0,0,2.2,16.3-1.8,15.2l-1.8,1.1c0,0-1.4,0.7-2.5,0
					c0,0-0.7-1.8-2.2,0.4c0,0-3.6,0-6.5-1.1c0,0-2.9-0.4-3.3-6.1l2.5-13c0,0-0.7-1.4,1.8-2.5L453.7,509z"/>
				<path class="st1" d="M451.9,516.6l1.1-4c0,0-1.4-2.2-2.5,1.8C449.4,518.7,450.5,522.3,451.9,516.6z"/>
			</g>
			<g>
				<path class="st0" d="M475.4,509v-2.2h4.7v2.2l4.7,3.3c0,0,1.4,1.4,1.4,4.3c0,0,2.2,16.3-1.8,15.2l-1.8,1.1c0,0-1.4,0.7-2.5,0
					c0,0-0.7-1.8-2.2,0.4c0,0-3.6,0-6.5-1.1c0,0-2.9-0.4-3.3-6.1l2.5-13c0,0-0.7-1.4,1.8-2.5L475.4,509z"/>
				<path class="st1" d="M473.6,516.6l1.1-4c0,0-1.4-2.2-2.5,1.8C471,518.7,471.8,522.3,473.6,516.6z"/>
			</g>
			<g>
				<path class="st0" d="M280.3,542.2V540h4.7v2.2l4.7,3.3c0,0,1.4,1.4,1.4,4.3c0,0,2.2,16.3-1.8,15.2l-1.8,1.1c0,0-1.4,0.7-2.5,0
					c0,0-0.7-1.8-2.2,0.4c0,0-3.6,0-6.5-1.1c0,0-2.9-0.4-3.3-6.1l2.5-13c0,0-0.7-1.4,1.8-2.5L280.3,542.2z"/>
				<path class="st1" d="M278.5,550.2l1.1-4c0,0-1.4-2.2-2.5,1.8C275.9,552,277,555.9,278.5,550.2z"/>
			</g>
			<g>
				<path class="st0" d="M302,542.2V540h4.7v2.2l4.7,3.3c0,0,1.4,1.4,1.4,4.3c0,0,2.2,16.3-1.8,15.2l-1.8,1.1c0,0-1.4,0.7-2.5,0
					c0,0-0.7-1.8-2.2,0.4c0,0-3.6,0-6.5-1.1c0,0-2.9-0.4-3.3-6.1l2.5-13c0,0-0.7-1.4,1.8-2.5L302,542.2z"/>
				<path class="st1" d="M300.2,550.2l1.1-4c0,0-1.4-2.2-2.5,1.8C297.6,552,298.7,555.9,300.2,550.2z"/>
			</g>
			<g>
				<path class="st0" d="M323.6,542.2V540h4.7v2.2l4.7,3.3c0,0,1.4,1.4,1.4,4.3c0,0,2.2,16.3-1.8,15.2l-1.8,1.1c0,0-1.4,0.7-2.5,0
					c0,0-0.7-1.8-2.2,0.4c0,0-3.6,0-6.5-1.1c0,0-2.9-0.4-3.3-6.1l2.5-13c0,0-0.7-1.4,1.8-2.5L323.6,542.2z"/>
				<path class="st1" d="M321.8,550.2l1.1-4c0,0-1.4-2.2-2.5,1.8C319.3,552,320.4,555.9,321.8,550.2z"/>
			</g>
			<g>
				<path class="st0" d="M345.3,542.2V540h4.7v2.2l4.7,3.3c0,0,1.4,1.4,1.4,4.3c0,0,2.2,16.3-1.8,15.2l-1.8,1.1c0,0-1.4,0.7-2.5,0
					c0,0-0.7-1.8-2.2,0.4c0,0-3.6,0-6.5-1.1c0,0-2.9-0.4-3.3-6.1l2.5-13c0,0-0.7-1.4,1.8-2.5L345.3,542.2z"/>
				<path class="st1" d="M343.5,550.2l1.1-4c0,0-1.4-2.2-2.5,1.8C341,552,342.1,555.9,343.5,550.2z"/>
			</g>
			<g>
				<path class="st0" d="M367,542.2V540h4.7v2.2l4.7,3.3c0,0,1.4,1.4,1.4,4.3c0,0,2.2,16.3-1.8,15.2l-1.8,1.1c0,0-1.4,0.7-2.5,0
					c0,0-0.7-1.8-2.2,0.4c0,0-3.6,0-6.5-1.1c0,0-2.9-0.4-3.3-6.1l2.5-13c0,0-0.7-1.4,1.8-2.5L367,542.2z"/>
				<path class="st1" d="M365.2,550.2l1.1-4c0,0-1.4-2.2-2.5,1.8C362.7,552,363.7,555.9,365.2,550.2z"/>
			</g>
			<g>
				<path class="st0" d="M388.7,542.2V540h4.7v2.2l4.7,3.3c0,0,1.4,1.4,1.4,4.3c0,0,2.2,16.3-1.8,15.2l-1.8,1.1c0,0-1.4,0.7-2.5,0
					c0,0-0.7-1.8-2.2,0.4c0,0-3.6,0-6.5-1.1c0,0-2.9-0.4-3.3-6.1l2.5-13c0,0-0.7-1.4,1.8-2.5L388.7,542.2z"/>
				<path class="st1" d="M386.9,550.2l1.1-4c0,0-1.4-2.2-2.5,1.8C384.3,552,385.4,555.9,386.9,550.2z"/>
			</g>
			<g>
				<path class="st0" d="M410.3,542.2V540h4.7v2.2l4.7,3.3c0,0,1.4,1.4,1.4,4.3c0,0,2.2,16.3-1.8,15.2l-1.8,1.1c0,0-1.4,0.7-2.5,0
					c0,0-0.7-1.8-2.2,0.4c0,0-3.6,0-6.5-1.1c0,0-2.9-0.4-3.3-6.1l2.5-13c0,0-0.7-1.4,1.8-2.5L410.3,542.2z"/>
				<path class="st1" d="M408.5,550.2l1.1-4c0,0-1.4-2.2-2.5,1.8C406,552,407.1,555.9,408.5,550.2z"/>
			</g>
		</g>
		<g>
			<g>
				<path class="st0" d="M534.6,375.3v-2.2h4.7v2.2l4.7,3.3c0,0,1.4,1.4,1.4,4.3c0,0,2.2,16.3-1.8,15.2l-1.8,1.1c0,0-1.4,0.7-2.5,0
					c0,0-0.7-1.8-2.2,0.4c0,0-3.6,0-6.5-1.1c0,0-2.9-0.4-3.3-6.1l2.5-13c0,0-0.7-1.4,1.8-2.5L534.6,375.3z"/>
				<path class="st1" d="M532.8,382.9l1.1-4c0,0-1.4-2.2-2.5,1.8C529.9,385,531,388.7,532.8,382.9z"/>
			</g>
			<g>
				<path class="st0" d="M556.3,375.3v-2.2h4.7v2.2l4.7,3.3c0,0,1.4,1.4,1.4,4.3c0,0,2.2,16.3-1.8,15.2l-1.8,1.1c0,0-1.4,0.7-2.5,0
					c0,0-0.7-1.8-2.2,0.4c0,0-3.6,0-6.5-1.1c0,0-2.9-0.4-3.3-6.1l2.5-13c0,0-0.7-1.4,1.8-2.5L556.3,375.3z"/>
				<path class="st1" d="M554.5,382.9l1.1-4c0,0-1.4-2.2-2.5,1.8C551.6,385,552.7,388.7,554.5,382.9z"/>
			</g>
			<g>
				<path class="st0" d="M578,375.3v-2.2h4.7v2.2l4.7,3.3c0,0,1.4,1.4,1.4,4.3c0,0,2.2,16.3-1.8,15.2l-1.8,1.1c0,0-1.4,0.7-2.5,0
					c0,0-0.7-1.8-2.2,0.4c0,0-3.6,0-6.5-1.1c0,0-2.9-0.4-3.3-6.1l2.5-13c0,0-0.7-1.4,1.8-2.5L578,375.3z"/>
				<path class="st1" d="M576.2,382.9l1.1-4c0,0-1.4-2.2-2.5,1.8C573.3,385,574.4,388.7,576.2,382.9z"/>
			</g>
			<g>
				<path class="st0" d="M599.7,375.3v-2.2h4.7v2.2l4.7,3.3c0,0,1.4,1.4,1.4,4.3c0,0,2.2,16.3-1.8,15.2l-1.8,1.1c0,0-1.4,0.7-2.5,0
					c0,0-0.7-1.8-2.2,0.4c0,0-3.6,0-6.5-1.1c0,0-2.9-0.4-3.3-6.1l2.5-13c0,0-0.7-1.4,1.8-2.5L599.7,375.3z"/>
				<path class="st1" d="M597.5,382.9l1.1-4c0,0-1.4-2.2-2.5,1.8C595,385,596.1,388.7,597.5,382.9z"/>
			</g>
			<g>
				<path class="st0" d="M621.3,375.3v-2.2h4.7v2.2l4.7,3.3c0,0,1.4,1.4,1.4,4.3c0,0,2.2,16.3-1.8,15.2l-1.8,1.1c0,0-1.4,0.7-2.5,0
					c0,0-0.7-1.8-2.2,0.4c0,0-3.6,0-6.5-1.1c0,0-2.9-0.4-3.3-6.1l2.5-13c0,0-0.7-1.4,1.8-2.5L621.3,375.3z"/>
				<path class="st1" d="M619.2,382.9l1.1-4c0,0-1.4-2.2-2.5,1.8C616.6,385,617.7,388.7,619.2,382.9z"/>
			</g>
			<g>
				<path class="st0" d="M643,375.3v-2.2h4.7v2.2l4.7,3.3c0,0,1.4,1.4,1.4,4.3c0,0,2.2,16.3-1.8,15.2l-1.8,1.1c0,0-1.4,0.7-2.5,0
					c0,0-0.7-1.8-2.2,0.4c0,0-3.6,0-6.5-1.1c0,0-2.9-0.4-3.3-6.1l2.5-13c0,0-0.7-1.4,1.8-2.5L643,375.3z"/>
				<path class="st1" d="M640.9,382.9l1.1-4c0,0-1.4-2.2-2.5,1.8C638.3,385,639.4,388.7,640.9,382.9z"/>
			</g>
			<g>
				<path class="st0" d="M664.7,375.3v-2.2h4.7v2.2l4.7,3.3c0,0,1.4,1.4,1.4,4.3c0,0,2.2,16.3-1.8,15.2l-1.8,1.1c0,0-1.4,0.7-2.5,0
					c0,0-0.7-1.8-2.2,0.4c0,0-3.6,0-6.5-1.1c0,0-2.9-0.4-3.3-6.1l2.5-13c0,0-0.7-1.4,1.8-2.5L664.7,375.3z"/>
				<path class="st1" d="M662.5,382.9l1.1-4c0,0-1.4-2.2-2.5,1.8C660,385,661.1,388.7,662.5,382.9z"/>
			</g>
			<g>
				<path class="st0" d="M686.4,375.3v-2.2h4.7v2.2l4.7,3.3c0,0,1.4,1.4,1.4,4.3c0,0,2.2,16.3-1.8,15.2l-1.8,1.1c0,0-1.4,0.7-2.5,0
					c0,0-0.7-1.8-2.2,0.4c0,0-3.6,0-6.5-1.1c0,0-2.9-0.4-3.3-6.1l2.5-13c0,0-0.7-1.4,1.8-2.5L686.4,375.3z"/>
				<path class="st1" d="M684.2,382.9l1.1-4c0,0-1.4-2.2-2.5,1.8C681.7,385,682.8,388.7,684.2,382.9z"/>
			</g>
			<g>
				<path class="st0" d="M708.1,375.3v-2.2h4.7v2.2l4.7,3.3c0,0,1.4,1.4,1.4,4.3c0,0,2.2,16.3-1.8,15.2l-1.8,1.1c0,0-1.4,0.7-2.5,0
					c0,0-0.7-1.8-2.2,0.4c0,0-3.6,0-6.5-1.1c0,0-2.9-0.4-3.3-6.1l2.5-13c0,0-0.7-1.4,1.8-2.5L708.1,375.3z"/>
				<path class="st1" d="M705.9,382.9l1.1-4c0,0-1.4-2.2-2.5,1.8C703.4,385,704.4,388.7,705.9,382.9z"/>
			</g>
			<g>
				<path class="st0" d="M729.7,375.3v-2.2h4.7v2.2l4.7,3.3c0,0,1.4,1.4,1.4,4.3c0,0,2.2,16.3-1.8,15.2l-1.8,1.1c0,0-1.4,0.7-2.5,0
					c0,0-0.7-1.8-2.2,0.4c0,0-3.6,0-6.5-1.1c0,0-2.9-0.4-3.3-6.1l2.5-13c0,0-0.7-1.4,1.8-2.5L729.7,375.3z"/>
				<path class="st1" d="M727.6,382.9l1.1-4c0,0-1.4-2.2-2.5,1.8C725,385,726.1,388.7,727.6,382.9z"/>
			</g>
			<g>
				<path class="st0" d="M534.6,408.5v-2.2h4.7v2.2l4.7,3.3c0,0,1.4,1.4,1.4,4.3c0,0,2.2,16.3-1.8,15.2l-1.8,1.1c0,0-1.4,0.7-2.5,0
					c0,0-0.7-1.8-2.2,0.4c0,0-3.6,0-6.5-1.1c0,0-2.9-0.4-3.3-6.1l2.5-13c0,0-0.7-1.4,1.8-2.5L534.6,408.5z"/>
				<path class="st1" d="M532.8,416.5l1.1-4c0,0-1.4-2.2-2.5,1.8C530.3,418.3,531,422.3,532.8,416.5z"/>
			</g>
			<g>
				<path class="st0" d="M556.3,408.5v-2.2h4.7v2.2l4.7,3.3c0,0,1.4,1.4,1.4,4.3c0,0,2.2,16.3-1.8,15.2l-1.8,1.1c0,0-1.4,0.7-2.5,0
					c0,0-0.7-1.8-2.2,0.4c0,0-3.6,0-6.5-1.1c0,0-2.9-0.4-3.3-6.1l2.5-13c0,0-0.7-1.4,1.8-2.5L556.3,408.5z"/>
				<path class="st1" d="M554.5,416.5l1.1-4c0,0-1.4-2.2-2.5,1.8C552,418.3,552.7,422.3,554.5,416.5z"/>
			</g>
			<g>
				<path class="st0" d="M578,408.5v-2.2h4.7v2.2l4.7,3.3c0,0,1.4,1.4,1.4,4.3c0,0,2.2,16.3-1.8,15.2l-1.8,1.1c0,0-1.4,0.7-2.5,0
					c0,0-0.7-1.8-2.2,0.4c0,0-3.6,0-6.5-1.1c0,0-2.9-0.4-3.3-6.1l2.5-13c0,0-0.7-1.4,1.8-2.5L578,408.5z"/>
				<path class="st1" d="M576.2,416.5l1.1-4c0,0-1.4-2.2-2.5,1.8C573.7,418.3,574.4,422.3,576.2,416.5z"/>
			</g>
			<g>
				<path class="st0" d="M599.7,408.5v-2.2h4.7v2.2l4.7,3.3c0,0,1.4,1.4,1.4,4.3c0,0,2.2,16.3-1.8,15.2l-1.8,1.1c0,0-1.4,0.7-2.5,0
					c0,0-0.7-1.8-2.2,0.4c0,0-3.6,0-6.5-1.1c0,0-2.9-0.4-3.3-6.1l2.5-13c0,0-0.7-1.4,1.8-2.5L599.7,408.5z"/>
				<path class="st1" d="M597.5,416.5l1.1-4c0,0-1.4-2.2-2.5,1.8C595,418.6,596.1,422.3,597.5,416.5z"/>
			</g>
			<g>
				<path class="st0" d="M621.3,408.5v-2.2h4.7v2.2l4.7,3.3c0,0,1.4,1.4,1.4,4.3c0,0,2.2,16.3-1.8,15.2l-1.8,1.1c0,0-1.4,0.7-2.5,0
					c0,0-0.7-1.8-2.2,0.4c0,0-3.6,0-6.5-1.1c0,0-2.9-0.4-3.3-6.1l2.5-13c0,0-0.7-1.4,1.8-2.5L621.3,408.5z"/>
				<path class="st1" d="M619.2,416.5l1.1-4c0,0-1.4-2.2-2.5,1.8C616.6,418.3,617.7,422.3,619.2,416.5z"/>
			</g>
			<g>
				<path class="st0" d="M643,408.5v-2.2h4.7v2.2l4.7,3.3c0,0,1.4,1.4,1.4,4.3c0,0,2.2,16.3-1.8,15.2l-1.8,1.1c0,0-1.4,0.7-2.5,0
					c0,0-0.7-1.8-2.2,0.4c0,0-3.6,0-6.5-1.1c0,0-2.9-0.4-3.3-6.1l2.5-13c0,0-0.7-1.4,1.8-2.5L643,408.5z"/>
				<path class="st1" d="M640.9,416.5l1.1-4c0,0-1.4-2.2-2.5,1.8C638.3,418.3,639.4,422.3,640.9,416.5z"/>
			</g>
			<g>
				<path class="st0" d="M664.7,408.5v-2.2h4.7v2.2l4.7,3.3c0,0,1.4,1.4,1.4,4.3c0,0,2.2,16.3-1.8,15.2l-1.8,1.1c0,0-1.4,0.7-2.5,0
					c0,0-0.7-1.8-2.2,0.4c0,0-3.6,0-6.5-1.1c0,0-2.9-0.4-3.3-6.1l2.5-13c0,0-0.7-1.4,1.8-2.5L664.7,408.5z"/>
				<path class="st1" d="M662.5,416.5l1.1-4c0,0-1.4-2.2-2.5,1.8C660,418.3,661.1,422.3,662.5,416.5z"/>
			</g>
			<g>
				<path class="st0" d="M686.4,408.5v-2.2h4.7v2.2l4.7,3.3c0,0,1.4,1.4,1.4,4.3c0,0,2.2,16.3-1.8,15.2l-1.8,1.1c0,0-1.4,0.7-2.5,0
					c0,0-0.7-1.8-2.2,0.4c0,0-3.6,0-6.5-1.1c0,0-2.9-0.4-3.3-6.1l2.5-13c0,0-0.7-1.4,1.8-2.5L686.4,408.5z"/>
				<path class="st1" d="M684.2,416.5l1.1-4c0,0-1.4-2.2-2.5,1.8C681.7,418.3,682.8,422.3,684.2,416.5z"/>
			</g>
			<g>
				<path class="st0" d="M708.1,408.5v-2.2h4.7v2.2l4.7,3.3c0,0,1.4,1.4,1.4,4.3c0,0,2.2,16.3-1.8,15.2l-1.8,1.1c0,0-1.4,0.7-2.5,0
					c0,0-0.7-1.8-2.2,0.4c0,0-3.6,0-6.5-1.1c0,0-2.9-0.4-3.3-6.1l2.5-13c0,0-0.7-1.4,1.8-2.5L708.1,408.5z"/>
				<path class="st1" d="M705.9,416.5l1.1-4c0,0-1.4-2.2-2.5,1.8C703.4,418.6,704.4,422.3,705.9,416.5z"/>
			</g>
			<g>
				<path class="st0" d="M729.7,408.5v-2.2h4.7v2.2l4.7,3.3c0,0,1.4,1.4,1.4,4.3c0,0,2.2,16.3-1.8,15.2l-1.8,1.1c0,0-1.4,0.7-2.5,0
					c0,0-0.7-1.8-2.2,0.4c0,0-3.6,0-6.5-1.1c0,0-2.9-0.4-3.3-6.1l2.5-13c0,0-0.7-1.4,1.8-2.5L729.7,408.5z"/>
				<path class="st1" d="M727.6,416.5l1.1-4c0,0-1.4-2.2-2.5,1.8C725,418.3,726.1,422.3,727.6,416.5z"/>
			</g>
			<g>
				<path class="st0" d="M534.6,442.1V440h4.7v2.2l4.7,3.3c0,0,1.4,1.4,1.4,4.3c0,0,2.2,16.3-1.8,15.2l-1.8,1.1c0,0-1.4,0.7-2.5,0
					c0,0-0.7-1.8-2.2,0.4c0,0-3.6,0-6.5-1.1c0,0-2.9-0.4-3.3-6.1l2.5-13c0,0-0.7-1.4,1.8-2.5L534.6,442.1z"/>
				<path class="st1" d="M532.8,449.7l1.1-4c0,0-1.4-2.2-2.5,1.8C529.9,451.9,531,455.5,532.8,449.7z"/>
			</g>
			<g>
				<path class="st0" d="M556.3,442.1V440h4.7v2.2l4.7,3.3c0,0,1.4,1.4,1.4,4.3c0,0,2.2,16.3-1.8,15.2l-1.8,1.1c0,0-1.4,0.7-2.5,0
					c0,0-0.7-1.8-2.2,0.4c0,0-3.6,0-6.5-1.1c0,0-2.9-0.4-3.3-6.1l2.5-13c0,0-0.7-1.4,1.8-2.5L556.3,442.1z"/>
				<path class="st1" d="M554.5,449.7l1.1-4c0,0-1.4-2.2-2.5,1.8C551.6,451.9,552.7,455.5,554.5,449.7z"/>
			</g>
			<g>
				<path class="st0" d="M578,442.1V440h4.7v2.2l4.7,3.3c0,0,1.4,1.4,1.4,4.3c0,0,2.2,16.3-1.8,15.2l-1.8,1.1c0,0-1.4,0.7-2.5,0
					c0,0-0.7-1.8-2.2,0.4c0,0-3.6,0-6.5-1.1c0,0-2.9-0.4-3.3-6.1l2.5-13c0,0-0.7-1.4,1.8-2.5L578,442.1z"/>
				<path class="st1" d="M576.2,449.7l1.1-4c0,0-1.4-2.2-2.5,1.8C573.3,451.9,574.4,455.5,576.2,449.7z"/>
			</g>
			<g>
				<path class="st0" d="M599.7,442.1V440h4.7v2.2l4.7,3.3c0,0,1.4,1.4,1.4,4.3c0,0,2.2,16.3-1.8,15.2l-1.8,1.1c0,0-1.4,0.7-2.5,0
					c0,0-0.7-1.8-2.2,0.4c0,0-3.6,0-6.5-1.1c0,0-2.9-0.4-3.3-6.1l2.5-13c0,0-0.7-1.4,1.8-2.5L599.7,442.1z"/>
				<path class="st1" d="M597.5,449.7l1.1-4c0,0-1.4-2.2-2.5,1.8C595,451.9,596.1,455.5,597.5,449.7z"/>
			</g>
			<g>
				<path class="st0" d="M621.3,442.1V440h4.7v2.2l4.7,3.3c0,0,1.4,1.4,1.4,4.3c0,0,2.2,16.3-1.8,15.2l-1.8,1.1c0,0-1.4,0.7-2.5,0
					c0,0-0.7-1.8-2.2,0.4c0,0-3.6,0-6.5-1.1c0,0-2.9-0.4-3.3-6.1l2.5-13c0,0-0.7-1.4,1.8-2.5L621.3,442.1z"/>
				<path class="st1" d="M619.2,449.7l1.1-4c0,0-1.4-2.2-2.5,1.8C616.6,451.9,617.7,455.5,619.2,449.7z"/>
			</g>
			<g>
				<path class="st0" d="M643,442.1V440h4.7v2.2l4.7,3.3c0,0,1.4,1.4,1.4,4.3c0,0,2.2,16.3-1.8,15.2l-1.8,1.1c0,0-1.4,0.7-2.5,0
					c0,0-0.7-1.8-2.2,0.4c0,0-3.6,0-6.5-1.1c0,0-2.9-0.4-3.3-6.1l2.5-13c0,0-0.7-1.4,1.8-2.5L643,442.1z"/>
				<path class="st1" d="M640.9,449.7l1.1-4c0,0-1.4-2.2-2.5,1.8C638.3,451.9,639.4,455.5,640.9,449.7z"/>
			</g>
			<g>
				<path class="st0" d="M664.7,442.1V440h4.7v2.2l4.7,3.3c0,0,1.4,1.4,1.4,4.3c0,0,2.2,16.3-1.8,15.2l-1.8,1.1c0,0-1.4,0.7-2.5,0
					c0,0-0.7-1.8-2.2,0.4c0,0-3.6,0-6.5-1.1c0,0-2.9-0.4-3.3-6.1l2.5-13c0,0-0.7-1.4,1.8-2.5L664.7,442.1z"/>
				<path class="st1" d="M662.5,449.7l1.1-4c0,0-1.4-2.2-2.5,1.8C660,451.9,661.1,455.5,662.5,449.7z"/>
			</g>
			<g>
				<path class="st0" d="M686.4,442.1V440h4.7v2.2l4.7,3.3c0,0,1.4,1.4,1.4,4.3c0,0,2.2,16.3-1.8,15.2l-1.8,1.1c0,0-1.4,0.7-2.5,0
					c0,0-0.7-1.8-2.2,0.4c0,0-3.6,0-6.5-1.1c0,0-2.9-0.4-3.3-6.1l2.5-13c0,0-0.7-1.4,1.8-2.5L686.4,442.1z"/>
				<path class="st1" d="M684.2,449.7l1.1-4c0,0-1.4-2.2-2.5,1.8C681.7,451.9,682.8,455.5,684.2,449.7z"/>
			</g>
			<g>
				<path class="st0" d="M708.1,442.1V440h4.7v2.2l4.7,3.3c0,0,1.4,1.4,1.4,4.3c0,0,2.2,16.3-1.8,15.2l-1.8,1.1c0,0-1.4,0.7-2.5,0
					c0,0-0.7-1.8-2.2,0.4c0,0-3.6,0-6.5-1.1c0,0-2.9-0.4-3.3-6.1l2.5-13c0,0-0.7-1.4,1.8-2.5L708.1,442.1z"/>
				<path class="st1" d="M705.9,449.7l1.1-4c0,0-1.4-2.2-2.5,1.8C703.4,451.9,704.4,455.5,705.9,449.7z"/>
			</g>
			<g>
				<path class="st0" d="M729.7,442.1V440h4.7v2.2l4.7,3.3c0,0,1.4,1.4,1.4,4.3c0,0,2.2,16.3-1.8,15.2L737,466c0,0-1.4,0.7-2.5,0
					c0,0-0.7-1.8-2.2,0.4c0,0-3.6,0-6.5-1.1c0,0-2.9-0.4-3.3-6.1l2.5-13c0,0-0.7-1.4,1.8-2.5L729.7,442.1z"/>
				<path class="st1" d="M727.6,449.7l1.1-4c0,0-1.4-2.2-2.5,1.8C725,451.9,726.1,455.5,727.6,449.7z"/>
			</g>
			<g>
				<path class="st0" d="M534.6,475.4v-2.2h4.7v2.2l4.7,3.3c0,0,1.4,1.4,1.4,4.3c0,0,2.2,16.3-1.8,15.2l-1.8,1.1c0,0-1.4,0.7-2.5,0
					c0,0-0.7-1.8-2.2,0.4c0,0-3.6,0-6.5-1.1c0,0-2.9-0.4-3.3-6.1l2.5-13c0,0-0.7-1.4,1.8-2.5L534.6,475.4z"/>
				<path class="st1" d="M532.8,483.3l1.1-4c0,0-1.4-2.2-2.5,1.8C530.3,485.1,531,489.1,532.8,483.3z"/>
			</g>
			<g>
				<path class="st0" d="M556.3,475.4v-2.2h4.7v2.2l4.7,3.3c0,0,1.4,1.4,1.4,4.3c0,0,2.2,16.3-1.8,15.2l-1.8,1.1c0,0-1.4,0.7-2.5,0
					c0,0-0.7-1.8-2.2,0.4c0,0-3.6,0-6.5-1.1c0,0-2.9-0.4-3.3-6.1l2.5-13c0,0-0.7-1.4,1.8-2.5L556.3,475.4z"/>
				<path class="st1" d="M554.5,483.3l1.1-4c0,0-1.4-2.2-2.5,1.8C552,485.1,552.7,489.1,554.5,483.3z"/>
			</g>
			<g>
				<path class="st0" d="M578,475.4v-2.2h4.7v2.2l4.7,3.3c0,0,1.4,1.4,1.4,4.3c0,0,2.2,16.3-1.8,15.2l-1.8,1.1c0,0-1.4,0.7-2.5,0
					c0,0-0.7-1.8-2.2,0.4c0,0-3.6,0-6.5-1.1c0,0-2.9-0.4-3.3-6.1l2.5-13c0,0-0.7-1.4,1.8-2.5L578,475.4z"/>
				<path class="st1" d="M576.2,483.3l1.1-4c0,0-1.4-2.2-2.5,1.8C573.7,485.1,574.4,489.1,576.2,483.3z"/>
			</g>
			<g>
				<path class="st0" d="M599.7,475.4v-2.2h4.7v2.2l4.7,3.3c0,0,1.4,1.4,1.4,4.3c0,0,2.2,16.3-1.8,15.2l-1.8,1.1c0,0-1.4,0.7-2.5,0
					c0,0-0.7-1.8-2.2,0.4c0,0-3.6,0-6.5-1.1c0,0-2.9-0.4-3.3-6.1l2.5-13c0,0-0.7-1.4,1.8-2.5L599.7,475.4z"/>
				<path class="st1" d="M597.5,483.3l1.1-4c0,0-1.4-2.2-2.5,1.8C595,485.5,596.1,489.1,597.5,483.3z"/>
			</g>
			<g>
				<path class="st0" d="M621.3,475.4v-2.2h4.7v2.2l4.7,3.3c0,0,1.4,1.4,1.4,4.3c0,0,2.2,16.3-1.8,15.2l-1.8,1.1c0,0-1.4,0.7-2.5,0
					c0,0-0.7-1.8-2.2,0.4c0,0-3.6,0-6.5-1.1c0,0-2.9-0.4-3.3-6.1l2.5-13c0,0-0.7-1.4,1.8-2.5L621.3,475.4z"/>
				<path class="st1" d="M619.2,483.3l1.1-4c0,0-1.4-2.2-2.5,1.8C616.6,485.1,617.7,489.1,619.2,483.3z"/>
			</g>
			<g>
				<path class="st0" d="M643,475.4v-2.2h4.7v2.2l4.7,3.3c0,0,1.4,1.4,1.4,4.3c0,0,2.2,16.3-1.8,15.2l-1.8,1.1c0,0-1.4,0.7-2.5,0
					c0,0-0.7-1.8-2.2,0.4c0,0-3.6,0-6.5-1.1c0,0-2.9-0.4-3.3-6.1l2.5-13c0,0-0.7-1.4,1.8-2.5L643,475.4z"/>
				<path class="st1" d="M640.9,483.3l1.1-4c0,0-1.4-2.2-2.5,1.8C638.3,485.1,639.4,489.1,640.9,483.3z"/>
			</g>
			<g>
				<path class="st0" d="M664.7,475.4v-2.2h4.7v2.2l4.7,3.3c0,0,1.4,1.4,1.4,4.3c0,0,2.2,16.3-1.8,15.2l-1.8,1.1c0,0-1.4,0.7-2.5,0
					c0,0-0.7-1.8-2.2,0.4c0,0-3.6,0-6.5-1.1c0,0-2.9-0.4-3.3-6.1l2.5-13c0,0-0.7-1.4,1.8-2.5L664.7,475.4z"/>
				<path class="st1" d="M662.5,483.3l1.1-4c0,0-1.4-2.2-2.5,1.8C660,485.1,661.1,489.1,662.5,483.3z"/>
			</g>
			<g>
				<path class="st0" d="M686.4,475.4v-2.2h4.7v2.2l4.7,3.3c0,0,1.4,1.4,1.4,4.3c0,0,2.2,16.3-1.8,15.2l-1.8,1.1c0,0-1.4,0.7-2.5,0
					c0,0-0.7-1.8-2.2,0.4c0,0-3.6,0-6.5-1.1c0,0-2.9-0.4-3.3-6.1l2.5-13c0,0-0.7-1.4,1.8-2.5L686.4,475.4z"/>
				<path class="st1" d="M684.2,483.3l1.1-4c0,0-1.4-2.2-2.5,1.8C681.7,485.1,682.8,489.1,684.2,483.3z"/>
			</g>
			<g>
				<path class="st0" d="M708.1,475.4v-2.2h4.7v2.2l4.7,3.3c0,0,1.4,1.4,1.4,4.3c0,0,2.2,16.3-1.8,15.2l-1.8,1.1c0,0-1.4,0.7-2.5,0
					c0,0-0.7-1.8-2.2,0.4c0,0-3.6,0-6.5-1.1c0,0-2.9-0.4-3.3-6.1l2.5-13c0,0-0.7-1.4,1.8-2.5L708.1,475.4z"/>
				<path class="st1" d="M705.9,483.3l1.1-4c0,0-1.4-2.2-2.5,1.8C703.4,485.5,704.4,489.1,705.9,483.3z"/>
			</g>
			<g>
				<path class="st0" d="M729.7,475.4v-2.2h4.7v2.2l4.7,3.3c0,0,1.4,1.4,1.4,4.3c0,0,2.2,16.3-1.8,15.2l-1.8,1.1c0,0-1.4,0.7-2.5,0
					c0,0-0.7-1.8-2.2,0.4c0,0-3.6,0-6.5-1.1c0,0-2.9-0.4-3.3-6.1l2.5-13c0,0-0.7-1.4,1.8-2.5L729.7,475.4z"/>
				<path class="st1" d="M727.6,483.3l1.1-4c0,0-1.4-2.2-2.5,1.8C725,485.1,726.1,489.1,727.6,483.3z"/>
			</g>
			<g>
				<path class="st0" d="M534.6,509v-2.2h4.7v2.2l4.7,3.3c0,0,1.4,1.4,1.4,4.3c0,0,2.2,16.3-1.8,15.2l-1.8,1.1c0,0-1.4,0.7-2.5,0
					c0,0-0.7-1.8-2.2,0.4c0,0-3.6,0-6.5-1.1c0,0-2.9-0.4-3.3-6.1l2.5-13c0,0-0.7-1.4,1.8-2.5L534.6,509z"/>
				<path class="st1" d="M532.8,516.6l1.1-4c0,0-1.4-2.2-2.5,1.8C530.3,518.4,531,522.3,532.8,516.6z"/>
			</g>
			<g>
				<path class="st0" d="M556.3,509v-2.2h4.7v2.2l4.7,3.3c0,0,1.4,1.4,1.4,4.3c0,0,2.2,16.3-1.8,15.2l-1.8,1.1c0,0-1.4,0.7-2.5,0
					c0,0-0.7-1.8-2.2,0.4c0,0-3.6,0-6.5-1.1c0,0-2.9-0.4-3.3-6.1l2.5-13c0,0-0.7-1.4,1.8-2.5L556.3,509z"/>
				<path class="st1" d="M554.5,516.6l1.1-4c0,0-1.4-2.2-2.5,1.8C552,518.4,552.7,522.3,554.5,516.6z"/>
			</g>
			<g>
				<path class="st0" d="M578,509v-2.2h4.7v2.2l4.7,3.3c0,0,1.4,1.4,1.4,4.3c0,0,2.2,16.3-1.8,15.2l-1.8,1.1c0,0-1.4,0.7-2.5,0
					c0,0-0.7-1.8-2.2,0.4c0,0-3.6,0-6.5-1.1c0,0-2.9-0.4-3.3-6.1l2.5-13c0,0-0.7-1.4,1.8-2.5L578,509z"/>
				<path class="st1" d="M576.2,516.6l1.1-4c0,0-1.4-2.2-2.5,1.8C573.7,518.4,574.4,522.3,576.2,516.6z"/>
			</g>
			<g>
				<path class="st0" d="M599.7,509v-2.2h4.7v2.2l4.7,3.3c0,0,1.4,1.4,1.4,4.3c0,0,2.2,16.3-1.8,15.2l-1.8,1.1c0,0-1.4,0.7-2.5,0
					c0,0-0.7-1.8-2.2,0.4c0,0-3.6,0-6.5-1.1c0,0-2.9-0.4-3.3-6.1l2.5-13c0,0-0.7-1.4,1.8-2.5L599.7,509z"/>
				<path class="st1" d="M597.5,516.6l1.1-4c0,0-1.4-2.2-2.5,1.8C595,518.7,596.1,522.3,597.5,516.6z"/>
			</g>
			<g>
				<path class="st0" d="M621.3,509v-2.2h4.7v2.2l4.7,3.3c0,0,1.4,1.4,1.4,4.3c0,0,2.2,16.3-1.8,15.2l-1.8,1.1c0,0-1.4,0.7-2.5,0
					c0,0-0.7-1.8-2.2,0.4c0,0-3.6,0-6.5-1.1c0,0-2.9-0.4-3.3-6.1l2.5-13c0,0-0.7-1.4,1.8-2.5L621.3,509z"/>
				<path class="st1" d="M619.2,516.6l1.1-4c0,0-1.4-2.2-2.5,1.8C616.6,518.4,617.7,522.3,619.2,516.6z"/>
			</g>
			<g>
				<path class="st0" d="M643,509v-2.2h4.7v2.2l4.7,3.3c0,0,1.4,1.4,1.4,4.3c0,0,2.2,16.3-1.8,15.2l-1.8,1.1c0,0-1.4,0.7-2.5,0
					c0,0-0.7-1.8-2.2,0.4c0,0-3.6,0-6.5-1.1c0,0-2.9-0.4-3.3-6.1l2.5-13c0,0-0.7-1.4,1.8-2.5L643,509z"/>
				<path class="st1" d="M640.9,516.6l1.1-4c0,0-1.4-2.2-2.5,1.8C638.3,518.4,639.4,522.3,640.9,516.6z"/>
			</g>
			<g>
				<path class="st0" d="M664.7,509v-2.2h4.7v2.2l4.7,3.3c0,0,1.4,1.4,1.4,4.3c0,0,2.2,16.3-1.8,15.2l-1.8,1.1c0,0-1.4,0.7-2.5,0
					c0,0-0.7-1.8-2.2,0.4c0,0-3.6,0-6.5-1.1c0,0-2.9-0.4-3.3-6.1l2.5-13c0,0-0.7-1.4,1.8-2.5L664.7,509z"/>
				<path class="st1" d="M662.5,516.6l1.1-4c0,0-1.4-2.2-2.5,1.8C660,518.4,661.1,522.3,662.5,516.6z"/>
			</g>
			<g>
				<path class="st0" d="M686.4,509v-2.2h4.7v2.2l4.7,3.3c0,0,1.4,1.4,1.4,4.3c0,0,2.2,16.3-1.8,15.2l-1.8,1.1c0,0-1.4,0.7-2.5,0
					c0,0-0.7-1.8-2.2,0.4c0,0-3.6,0-6.5-1.1c0,0-2.9-0.4-3.3-6.1l2.5-13c0,0-0.7-1.4,1.8-2.5L686.4,509z"/>
				<path class="st1" d="M684.2,516.6l1.1-4c0,0-1.4-2.2-2.5,1.8C681.7,518.4,682.8,522.3,684.2,516.6z"/>
			</g>
			<g>
				<path class="st0" d="M708.1,509v-2.2h4.7v2.2l4.7,3.3c0,0,1.4,1.4,1.4,4.3c0,0,2.2,16.3-1.8,15.2l-1.8,1.1c0,0-1.4,0.7-2.5,0
					c0,0-0.7-1.8-2.2,0.4c0,0-3.6,0-6.5-1.1c0,0-2.9-0.4-3.3-6.1l2.5-13c0,0-0.7-1.4,1.8-2.5L708.1,509z"/>
				<path class="st1" d="M705.9,516.6l1.1-4c0,0-1.4-2.2-2.5,1.8C703.4,518.7,704.4,522.3,705.9,516.6z"/>
			</g>
			<g>
				<path class="st0" d="M729.7,509v-2.2h4.7v2.2l4.7,3.3c0,0,1.4,1.4,1.4,4.3c0,0,2.2,16.3-1.8,15.2l-1.8,1.1c0,0-1.4,0.7-2.5,0
					c0,0-0.7-1.8-2.2,0.4c0,0-3.6,0-6.5-1.1c0,0-2.9-0.4-3.3-6.1l2.5-13c0,0-0.7-1.4,1.8-2.5L729.7,509z"/>
				<path class="st1" d="M727.6,516.6l1.1-4c0,0-1.4-2.2-2.5,1.8C725,518.4,726.1,522.3,727.6,516.6z"/>
			</g>
			<g>
				<path class="st0" d="M534.6,542.2V540h4.7v2.2l4.7,3.3c0,0,1.4,1.4,1.4,4.3c0,0,2.2,16.3-1.8,15.2l-1.8,1.1c0,0-1.4,0.7-2.5,0
					c0,0-0.7-1.8-2.2,0.4c0,0-3.6,0-6.5-1.1c0,0-2.9-0.4-3.3-6.1l2.5-13c0,0-0.7-1.4,1.8-2.5L534.6,542.2z"/>
				<path class="st1" d="M532.8,550.2l1.1-4c0,0-1.4-2.2-2.5,1.8C529.9,552,531,555.9,532.8,550.2z"/>
			</g>
			<g>
				<path class="st0" d="M556.3,542.2V540h4.7v2.2l4.7,3.3c0,0,1.4,1.4,1.4,4.3c0,0,2.2,16.3-1.8,15.2l-1.8,1.1c0,0-1.4,0.7-2.5,0
					c0,0-0.7-1.8-2.2,0.4c0,0-3.6,0-6.5-1.1c0,0-2.9-0.4-3.3-6.1l2.5-13c0,0-0.7-1.4,1.8-2.5L556.3,542.2z"/>
				<path class="st1" d="M554.5,550.2l1.1-4c0,0-1.4-2.2-2.5,1.8C551.6,552,552.7,555.9,554.5,550.2z"/>
			</g>
			<g>
				<path class="st0" d="M578,542.2V540h4.7v2.2l4.7,3.3c0,0,1.4,1.4,1.4,4.3c0,0,2.2,16.3-1.8,15.2l-1.8,1.1c0,0-1.4,0.7-2.5,0
					c0,0-0.7-1.8-2.2,0.4c0,0-3.6,0-6.5-1.1c0,0-2.9-0.4-3.3-6.1l2.5-13c0,0-0.7-1.4,1.8-2.5L578,542.2z"/>
				<path class="st1" d="M576.2,550.2l1.1-4c0,0-1.4-2.2-2.5,1.8C573.3,552,574.4,555.9,576.2,550.2z"/>
			</g>
			<g>
				<path class="st0" d="M599.7,542.2V540h4.7v2.2l4.7,3.3c0,0,1.4,1.4,1.4,4.3c0,0,2.2,16.3-1.8,15.2l-1.8,1.1c0,0-1.4,0.7-2.5,0
					c0,0-0.7-1.8-2.2,0.4c0,0-3.6,0-6.5-1.1c0,0-2.9-0.4-3.3-6.1l2.5-13c0,0-0.7-1.4,1.8-2.5L599.7,542.2z"/>
				<path class="st1" d="M597.5,550.2l1.1-4c0,0-1.4-2.2-2.5,1.8C595,552,596.1,555.9,597.5,550.2z"/>
			</g>
			<g>
				<path class="st0" d="M621.3,542.2V540h4.7v2.2l4.7,3.3c0,0,1.4,1.4,1.4,4.3c0,0,2.2,16.3-1.8,15.2l-1.8,1.1c0,0-1.4,0.7-2.5,0
					c0,0-0.7-1.8-2.2,0.4c0,0-3.6,0-6.5-1.1c0,0-2.9-0.4-3.3-6.1l2.5-13c0,0-0.7-1.4,1.8-2.5L621.3,542.2z"/>
				<path class="st1" d="M619.2,550.2l1.1-4c0,0-1.4-2.2-2.5,1.8C616.6,552,617.7,555.9,619.2,550.2z"/>
			</g>
			<g>
				<path class="st0" d="M643,542.2V540h4.7v2.2l4.7,3.3c0,0,1.4,1.4,1.4,4.3c0,0,2.2,16.3-1.8,15.2l-1.8,1.1c0,0-1.4,0.7-2.5,0
					c0,0-0.7-1.8-2.2,0.4c0,0-3.6,0-6.5-1.1c0,0-2.9-0.4-3.3-6.1l2.5-13c0,0-0.7-1.4,1.8-2.5L643,542.2z"/>
				<path class="st1" d="M640.9,550.2l1.1-4c0,0-1.4-2.2-2.5,1.8C638.3,552,639.4,555.9,640.9,550.2z"/>
			</g>
			<g>
				<path class="st0" d="M664.7,542.2V540h4.7v2.2l4.7,3.3c0,0,1.4,1.4,1.4,4.3c0,0,2.2,16.3-1.8,15.2l-1.8,1.1c0,0-1.4,0.7-2.5,0
					c0,0-0.7-1.8-2.2,0.4c0,0-3.6,0-6.5-1.1c0,0-2.9-0.4-3.3-6.1l2.5-13c0,0-0.7-1.4,1.8-2.5L664.7,542.2z"/>
				<path class="st1" d="M662.5,550.2l1.1-4c0,0-1.4-2.2-2.5,1.8C660,552,661.1,555.9,662.5,550.2z"/>
			</g>
		</g>
	</g>
	<polyline class="st2" points="3.5,351.1 3.5,323.3 756.5,323.3 756.5,351.1 	"/>
	<g class="st3">
		<path class="st4" d="M556.6,98.4h11.9l-0.3,5.8c2.3-4.1,6.3-6.6,12.1-6.6c9.1,0,16.8,7.9,16.8,19.5s-7.9,19.7-17,19.7
			c-5.7,0-9.6-2.4-11.6-5.8v23.7h-11.9V98.4z M584.9,117.1c0-5.6-3.2-9-8.2-9c-5.1,0-8.5,3.4-8.5,9c0,5.9,3.4,9.3,8.5,9.3
			C581.7,126.3,584.9,123,584.9,117.1z"/>
		<path class="st4" d="M625.8,126.9c4.3,0,7.6-1.7,9.4-3l6.8,7.3c-3.6,3.2-8.2,5.6-16.1,5.6c-13.4,0-22.1-8.1-22.1-19.7
			c0-11.4,9.1-19.5,20.7-19.5c13.5,0,20.8,10.1,19.9,23.2h-28.5C617.3,124.7,620.4,126.9,625.8,126.9z M632.6,113.9
			c-0.5-4.1-3.2-6.6-7.9-6.6c-4.7,0-7.9,2.1-8.8,6.6H632.6z"/>
		<path class="st4" d="M652.7,98.4h11.9l-0.2,6.8c2.7-6.2,7.1-7.6,11-7.6c2.5,0,4.3,0.7,5.8,1.5l-3.8,10.9c-1.5-0.7-2.9-1.1-4.6-1.1
			c-5.4,0-8.3,2.5-8.3,10.5V136h-11.9V98.4z"/>
	</g>
	<g class="st3">
		<path class="st4" d="M555.4,222.9c0-11.6,7.8-19.5,16.9-19.5c6,0,9.4,2.4,11.7,6.1v-31.4h11.9v63.7H584l0.3-5.5
			c-2.1,4-6.1,6.3-11.8,6.3C563.3,242.6,555.4,234.5,555.4,222.9z M584.3,222.9c0-5.6-3.4-9-8.5-9c-5,0-8.2,3.4-8.2,9
			c0,5.9,3.2,9.3,8.2,9.3C581,232.2,584.3,228.9,584.3,222.9z"/>
		<path class="st4" d="M621.1,213.2c-4.5,0-6.9,1.9-8.6,3.4l-6.6-7.1c3.5-3.4,7.5-6.2,16.3-6.2c9.6,0,16.9,5.2,16.9,17v21.4h-11.8
			l0.3-5.2c-2.8,4.3-6.1,6-11.1,6c-6.9,0-13.2-3.1-13.2-11.8c0-8,6.1-11.3,15.4-11.3h8.7C627.2,215.2,625.1,213.2,621.1,213.2z
			 M619.3,226.6c-3,0-4.3,1.3-4.3,3.4s1.8,3.4,5.1,3.4c4.9,0,7.3-2.1,7.3-5.3v-1.5H619.3z"/>
		<path class="st4" d="M658.5,238.3l-14.9-34.1h13.2l5.4,14.5c1.3,3.5,2.6,9.7,2.6,9.7s1.1-6.3,2.6-9.7l5.8-14.5h12.1l-24.6,56.3
			h-11.9L658.5,238.3z"/>
		<path class="st4" d="M690.2,234.9c0-4.3,3.4-7.4,7.5-7.4c4,0,7.4,3.1,7.4,7.4c0,4.4-3.4,7.5-7.4,7.5
			C693.6,242.4,690.2,239.3,690.2,234.9z M690.9,181.8h13.3l-1.9,39.6h-9.4L690.9,181.8z"/>
	</g>
	<line class="st2" x1="638.7" y1="283.5" x2="638.7" y2="323.3"/>
</g>
</svg>
