<?xml version="1.0" encoding="utf-8"?>
<!-- Generator: Adobe Illustrator 24.0.2, SVG Export Plug-In . SVG Version: 6.00 Build 0)  -->
<svg version="1.1" id="Layer_1" xmlns="http://www.w3.org/2000/svg" xmlns:xlink="http://www.w3.org/1999/xlink" x="0px" y="0px"
	 viewBox="0 0 760 575" style="enable-background:new 0 0 760 575;" height="575" width="760" xml:space="preserve">
<style type="text/css">
	.st0{fill:#006899;}
	.st1{fill:#5FA7B3;}
	.st2{fill:#BEE1EC;}
	.st3{fill:#92B761;}
	.st4{fill:#575757;}
	.st5{fill:#DBF0F6;}
	.st6{fill:#FFFFFF;}
	.st7{opacity:0.29;fill:#1B75BB;}
	.st8{fill:none;stroke:#006899;stroke-miterlimit:10;}
	.st9{fill:none;stroke:#1B75BB;stroke-width:1.5;stroke-miterlimit:10;}
	.st10{opacity:0.4;fill:none;stroke:#1B75BB;stroke-width:0.5;stroke-miterlimit:10;}
</style>
<g>
	<g>
		<g>
			<path class="st0" d="M243.4,283.5c3.5,3.4,8.2,5.4,13.1,5.4h2.3h9.9h249.6c4.9,0,9.7-2,13.1-5.4c3.4-3.4,5.4-8.2,5.4-13.1V117.1
				H238v153.3C238,275.2,240,280,243.4,283.5z M476.7,129.5h42.8v38.1h-42.8V129.5z M476.7,178.1h42.8v38.1h-42.8V178.1z
				 M421.4,129.5h42.8v38.1h-42.8V129.5z M421.4,178.1h42.8v38.1h-42.8V178.1z M421.4,226.7h42.8v38.1h-42.8V226.7z M366.1,129.5
				h42.8v38.1h-42.8V129.5z M366.1,178.1h42.8v38.1h-42.8V178.1z M366.1,226.7h42.8v38.1h-42.8V226.7z M310.7,129.5h42.8v38.1h-42.8
				V129.5z M310.7,178.1h42.8v38.1h-42.8V178.1z M310.7,226.7h42.8v38.1h-42.8V226.7z M255.4,178.1h42.8v38.1h-42.8V178.1z
				 M255.4,226.7h42.8v38.1h-42.8V226.7z"/>
			<rect x="238" y="99.4" class="st0" width="298.9" height="17.8"/>
			<path class="st0" d="M268.8,46.6h-9.9h-2.3c-4.9,0-9.7,2-13.1,5.4c-3.4,3.5-5.4,8.2-5.4,13.1v21.5h298.9V65.2
				c0-4.9-2-9.7-5.4-13.1c-3.4-3.5-8.2-5.4-13.1-5.4h-31.4v24.3c0,4.5-3.7,8.2-8.2,8.2h-17.3c-4.5,0,60-3.7,60-8.2V46.6H321.7v24.3
				c0,4.5-3.7,8.2-8.2,8.2h-17.3c-4.5,0,60-3.7,60-8.2V46.6H268.8z"/>
			<rect x="238" y="86.7" class="st0" width="298.9" height="12.7"/>
			<polygon class="st0" points="296.2,70.9 313.5,70.9 313.5,46.6 313.5,25.3 296.2,25.3 296.2,46.6 			"/>
			<polygon class="st0" points="461.4,70.9 478.7,70.9 478.7,46.6 478.7,25.3 461.4,25.3 461.4,46.6 			"/>
			<rect x="310.7" y="129.5" class="st0" width="42.8" height="38.1"/>
			<rect x="366.1" y="129.5" class="st0" width="42.8" height="38.1"/>
			<rect x="421.4" y="129.5" class="st0" width="42.8" height="38.1"/>
			<rect x="476.7" y="129.5" class="st0" width="42.8" height="38.1"/>
			<rect x="255.4" y="178.1" class="st0" width="42.8" height="38.1"/>
			<rect x="310.7" y="178.1" class="st0" width="42.8" height="38.1"/>
			<rect x="366.1" y="178.1" class="st0" width="42.8" height="38.1"/>
			<rect x="421.4" y="178.1" class="st0" width="42.8" height="38.1"/>
			<rect x="476.7" y="178.1" class="st0" width="42.8" height="38.1"/>
			<rect x="255.4" y="226.7" class="st0" width="42.8" height="38.1"/>
			<rect x="310.7" y="226.7" class="st0" width="42.8" height="38.1"/>
			<rect x="366.1" y="226.7" class="st0" width="42.8" height="38.1"/>
			<rect x="421.4" y="226.7" class="st0" width="42.8" height="38.1"/>
		</g>
		<g>
			<path class="st1" d="M229.8,269.8c3.5,3.4,8.2,5.4,13.1,5.4h2.3h9.9h249.6c4.9,0,9.7-2,13.1-5.4c3.4-3.4,5.4-8.2,5.4-13.1V103.4
				H224.4v153.3C224.4,261.6,226.4,266.4,229.8,269.8z M463.1,115.9h42.8v38.1h-42.8V115.9z M463.1,164.5h42.8v38.1h-42.8V164.5z
				 M407.8,115.9h42.8v38.1h-42.8V115.9z M407.8,164.5h42.8v38.1h-42.8V164.5z M407.8,213h42.8v38.1h-42.8V213z M352.4,115.9h42.8
				v38.1h-42.8V115.9z M352.4,164.5h42.8v38.1h-42.8V164.5z M352.4,213h42.8v38.1h-42.8V213z M297.1,115.9h42.8v38.1h-42.8V115.9z
				 M297.1,164.5h42.8v38.1h-42.8V164.5z M297.1,213h42.8v38.1h-42.8V213z M241.8,164.5h42.8v38.1h-42.8V164.5z M241.8,213h42.8
				v38.1h-42.8V213z"/>
			<rect x="224.4" y="85.8" class="st2" width="298.9" height="17.8"/>
			<path class="st1" d="M255.1,33h-9.9h-2.3c-4.9,0-9.7,2-13.1,5.4c-3.4,3.5-5.4,8.2-5.4,13.1v21.5h298.9V51.5c0-4.9-2-9.7-5.4-13.1
				c-3.4-3.5-8.2-5.4-13.1-5.4h-31.4v24.3c0,4.5-3.7,8.2-8.2,8.2h-17.3c-4.5,0-8.2-3.7-8.2-8.2V33H308.1v24.3c0,4.5-3.7,8.2-8.2,8.2
				h-17.3c-4.5,0-8.2-3.7-8.2-8.2V33H255.1z"/>
			<rect x="224.4" y="73.1" class="st3" width="298.9" height="12.7"/>
			<polygon class="st4" points="282.6,57.3 299.9,57.3 299.9,33 299.9,11.7 282.6,11.7 282.6,33 			"/>
			<polygon class="st4" points="447.8,57.3 465.1,57.3 465.1,33 465.1,11.7 447.8,11.7 447.8,33 			"/>
			<rect x="297.1" y="115.9" class="st5" width="42.8" height="38.1"/>
			<rect x="352.4" y="115.9" class="st5" width="42.8" height="38.1"/>
			<rect x="407.8" y="115.9" class="st5" width="42.8" height="38.1"/>
			<rect x="463.1" y="115.9" class="st5" width="42.8" height="38.1"/>
			<rect x="241.8" y="164.5" class="st5" width="42.8" height="38.1"/>
			<rect x="297.1" y="164.5" class="st5" width="42.8" height="38.1"/>
			<rect x="352.4" y="164.5" class="st5" width="42.8" height="38.1"/>
			<rect x="407.8" y="164.5" class="st3" width="42.8" height="38.1"/>
			<rect x="463.1" y="164.5" class="st5" width="42.8" height="38.1"/>
			<rect x="241.8" y="213" class="st5" width="42.8" height="38.1"/>
			<rect x="297.1" y="213" class="st3" width="42.8" height="38.1"/>
			<rect x="352.4" y="213" class="st5" width="42.8" height="38.1"/>
			<rect x="407.8" y="213" class="st5" width="42.8" height="38.1"/>
		</g>
	</g>
	<g>
		<rect x="7.1" y="397.8" class="st6" width="744.8" height="128.4"/>
		<g>
			<path class="st0" d="M7.5,559.9l3.1-1.9c0.6,1.1,1.1,2,2.5,2c1.3,0,2-0.5,2-2.4v-13h3.8v13c0,4-2.3,5.8-5.7,5.8
				C10.2,563.3,8.4,561.8,7.5,559.9z"/>
		</g>
		<g>
			<path class="st0" d="M76.8,544.5h12v3.4h-8.1v6.1H88v3.4h-7.4v5.7h-3.8V544.5z"/>
		</g>
		<g>
			<path class="st0" d="M144.1,544.3h0.3l9.1,10l9-10h0.3v18.8h-3.7v-7c0-1.3,0.1-3.2,0.1-3.2s-1.1,1.6-2,2.6l-3.7,4.1h-0.4
				l-3.7-4.1c-0.9-1-2-2.6-2-2.6s0.1,2,0.1,3.2v7h-3.7V544.3z"/>
		</g>
		<g>
			<path class="st0" d="M216.1,544.4h0.3l8.5,18.7h-4L220,561h-7.5l-0.9,2.1h-3.7L216.1,544.4z M218.6,557.8l-1.3-3.2
				c-0.5-1.3-1.1-3.3-1.1-3.3s-0.5,2-1.1,3.3l-1.3,3.2H218.6z"/>
		</g>
		<g>
			<path class="st0" d="M276.1,544.3h0.3l9.1,10l9-10h0.3v18.8h-3.7v-7c0-1.3,0.1-3.2,0.1-3.2s-1.1,1.6-2,2.6l-3.7,4.1h-0.4
				l-3.7-4.1c-0.9-1-2-2.6-2-2.6s0.1,2,0.1,3.2v7h-3.7V544.3z"/>
		</g>
		<g>
			<path class="st0" d="M338.9,559.9l3.1-1.9c0.6,1.1,1.1,2,2.5,2c1.3,0,2-0.5,2-2.4v-13h3.8v13c0,4-2.3,5.8-5.7,5.8
				C341.6,563.3,339.8,561.8,338.9,559.9z"/>
		</g>
		<g>
			<path class="st0" d="M404.9,559.9l3.1-1.9c0.6,1.1,1.1,2,2.5,2c1.3,0,2-0.5,2-2.4v-13h3.8v13c0,4-2.3,5.8-5.7,5.8
				C407.6,563.3,405.8,561.8,404.9,559.9z"/>
		</g>
		<g>
			<path class="st0" d="M480.1,544.4h0.3l8.5,18.7h-4L484,561h-7.5l-0.9,2.1h-3.7L480.1,544.4z M482.6,557.8l-1.3-3.2
				c-0.5-1.3-1.1-3.3-1.1-3.3s-0.5,2-1.1,3.3l-1.3,3.2H482.6z"/>
		</g>
		<g>
			<path class="st0" d="M537.1,559.4l3.1-1.8c0.8,1.3,1.9,2.3,3.8,2.3c1.6,0,2.6-0.8,2.6-1.9c0-1.3-1-1.8-2.8-2.5l-1-0.4
				c-2.8-1.2-4.6-2.6-4.6-5.8c0-2.9,2.2-5.1,5.6-5.1c2.4,0,4.2,0.8,5.4,3.1l-3,1.9c-0.7-1.2-1.4-1.6-2.5-1.6c-1.1,0-1.8,0.7-1.8,1.6
				c0,1.1,0.7,1.6,2.3,2.3l1,0.4c3.2,1.4,5.1,2.8,5.1,6c0,3.4-2.7,5.3-6.3,5.3C540.5,563.3,538.2,561.7,537.1,559.4z"/>
		</g>
		<g>
			<path class="st0" d="M605.3,553.8c0-5.5,4.3-9.5,9.6-9.5s9.6,4,9.6,9.5s-4.3,9.5-9.6,9.5S605.3,559.3,605.3,553.8z M620.6,553.8
				c0-3.5-2.3-6.1-5.7-6.1s-5.7,2.6-5.7,6.1s2.3,6.1,5.7,6.1S620.6,557.3,620.6,553.8z"/>
		</g>
		<g>
			<path class="st0" d="M677,554.5c-0.9-0.9-2.2-2.5-2.2-2.5s0.3,2,0.3,3.4v7.8h-3.6v-18.7h0.4l9.4,8.8c0.9,0.8,2.2,2.5,2.2,2.5
				s-0.2-2.1-0.2-3.4v-7.8h3.6v18.7h-0.4L677,554.5z"/>
		</g>
		<g>
			<path class="st0" d="M737.4,544.5h5.7c5.7,0,9.8,3.8,9.8,9.3s-4,9.3-9.8,9.3h-5.7V544.5z M742.9,559.7c4.1,0,6-2.5,6-5.9
				s-1.9-5.9-6-5.9h-1.7v11.8H742.9z"/>
		</g>
		<path class="st7" d="M7.1,476.5c72.6,4,114.7,25.6,178.8,14.5c70.2-13.1,149.4-52.1,222.9-53.4c89,7,90.3,61,213.1,34.6
			c52.7-4.1,49.2,19.2,86.1,24.9s44-6.8,44-6.8v35.4H7.1V476.5z"/>
		<path class="st8" d="M7.1,476.5c78.4,3.8,107.6,24.3,178.8,14.5c91.5-12.6,194.5-84.1,285-38.2c73.1,37,104.2,27.3,144,20.5
			c52.2-9,56.2,18.2,93.1,23.9s44-6.8,44-6.8"/>
		<line class="st9" x1="7.1" y1="526.3" x2="751.9" y2="526.3"/>
		<line class="st10" x1="14.3" y1="536.5" x2="14.3" y2="396.6"/>
		<line class="st10" x1="82.4" y1="536.5" x2="82.4" y2="396.6"/>
		<line class="st10" x1="153.5" y1="536.5" x2="153.5" y2="396.6"/>
		<line class="st10" x1="216.4" y1="536.5" x2="216.4" y2="396.6"/>
		<line class="st10" x1="285.5" y1="536.5" x2="285.5" y2="396.6"/>
		<line class="st10" x1="345.3" y1="536.5" x2="345.3" y2="396.6"/>
		<line class="st10" x1="411.3" y1="536.5" x2="411.3" y2="396.6"/>
		<line class="st10" x1="480.4" y1="536.5" x2="480.4" y2="396.6"/>
		<line class="st10" x1="544.1" y1="536.5" x2="544.1" y2="396.6"/>
		<line class="st10" x1="614.9" y1="536.5" x2="614.9" y2="396.6"/>
		<line class="st10" x1="679.1" y1="536.5" x2="679.1" y2="396.6"/>
		<line class="st10" x1="744.8" y1="536.5" x2="744.8" y2="396.6"/>
	</g>
</g>
</svg>
