<?xml version="1.0" encoding="utf-8"?>
<!-- Generator: Adobe Illustrator 24.0.2, SVG Export Plug-In . SVG Version: 6.00 Build 0)  -->
<svg version="1.1" id="Layer_1" xmlns="http://www.w3.org/2000/svg" xmlns:xlink="http://www.w3.org/1999/xlink" x="0px" y="0px"
	 viewBox="0 0 1896 965.3" style="enable-background:new 0 0 1896 965.3;" height="965.3" width="1896" xml:space="preserve">
<style type="text/css">
	.st0{fill:#91969B;}
	.st1{fill:#BBBDBF;}
	.st2{fill:#7A6F39;}
	.st3{fill:#4FA3C8;}
	.st4{fill:#3B2314;}
	.st5{fill:#FFFFFF;}
	.st6{fill:none;stroke:#D0D2D3;stroke-width:0.5278;stroke-miterlimit:10;}
	.st7{fill:#03637D;}
	.st8{fill:#404041;}
	.st9{fill:#93C34D;}
	.st10{fill:#6EB952;}
	.st11{fill:#B6CE46;}
	.st12{fill:#2C1503;}
	.st13{fill:#F89C45;}
	.st14{fill:#3C271B;}
	.st15{fill:#54372A;}
	.st16{fill:#D0D2D3;}
	.st17{opacity:5.000000e-02;fill:#FFFFFF;}
	.st18{fill:#CF8A32;}
	.st19{opacity:0.2;fill:#FFFFFF;}
	.st20{fill:#555859;}
	.st21{fill:#648996;}
	.st22{fill:#2D1A0C;}
	.st23{fill:#BC4040;}
	.st24{fill:#DF5753;}
	.st25{fill:#754C28;}
	.st26{fill:none;stroke:#D0D2D3;stroke-width:1.0557;stroke-miterlimit:10;}
	.st27{fill:#FDC028;stroke:#F7982A;stroke-width:0.5278;stroke-miterlimit:10;}
	.st28{opacity:0.2;}
	.st29{fill:#E0E0E0;}
	.st30{fill:#6B4F41;}
</style>
<g>
	<rect x="-1.9" y="493" class="st0" width="1899.8" height="472.3"/>
	<rect x="-1.9" y="735.3" class="st1" width="1899.8" height="64.4"/>
	<rect x="578.3" y="543.3" class="st1" width="46.9" height="224.2"/>
	<rect x="590.8" y="543.3" class="st2" width="22.1" height="224.2"/>
	<rect x="1064.2" y="543.3" class="st1" width="46.9" height="224.2"/>
	<rect x="1076.6" y="543.3" class="st2" width="22.1" height="224.2"/>
	<rect x="1536.1" y="543.3" class="st1" width="46.9" height="224.2"/>
	<rect x="1548.5" y="543.3" class="st2" width="22.1" height="224.2"/>
	<rect x="-1.9" y="751.8" class="st2" width="1899.8" height="31.4"/>
	<g>
		<g>
			<g>
				<rect x="1317.2" y="176.5" class="st3" width="323.3" height="316.6"/>
				<g>
					<polygon class="st4" points="1660.9,260.4 1296.7,260.4 1317.3,76.4 1640.3,76.4 					"/>
					<g>
						<rect x="1344.6" y="23.7" class="st4" width="58.3" height="60.1"/>
						<path class="st4" d="M1408,22.4c0,2.1-1.7,3.8-3.8,3.8h-60.9c-2.1,0-3.8-1.7-3.8-3.8l0,0c0-2.1,1.7-3.8,3.8-3.8h60.9
							C1406.3,18.6,1408,20.3,1408,22.4L1408,22.4z"/>
					</g>
				</g>
			</g>
			<g>
				<rect x="1498.2" y="302.5" class="st5" width="117" height="190.6"/>
				<polyline class="st6" points="1505.8,493 1505.8,310.1 1607.6,310.1 1607.6,493 				"/>
				<g>
					<rect x="1524.6" y="320.8" class="st7" width="26.9" height="26.9"/>
					<rect x="1562" y="320.8" class="st7" width="26.9" height="26.9"/>
					<rect x="1524.6" y="354.5" class="st7" width="26.9" height="26.9"/>
					<rect x="1562" y="354.5" class="st7" width="26.9" height="26.9"/>
				</g>
				<g>
					<polyline class="st6" points="1516.1,493 1516.1,402.1 1532,402.1 1532,493 					"/>
					<polyline class="st6" points="1537.9,493 1537.9,402.1 1553.8,402.1 1553.8,493 					"/>
					<polyline class="st6" points="1559.6,493 1559.6,402.1 1575.6,402.1 1575.6,493 					"/>
					<polyline class="st6" points="1581.4,493 1581.4,402.1 1597.3,402.1 1597.3,493 					"/>
				</g>
				<path class="st8" d="M1523.1,401.4c0,2.6-2.1,4.7-4.7,4.7l0,0c-2.6,0-4.7-2.1-4.7-4.7v-12.2c0-2.6,2.1-4.7,4.7-4.7l0,0
					c2.6,0,4.7,2.1,4.7,4.7V401.4z"/>
			</g>
			<g>
				<rect x="1348.1" y="319.7" class="st5" width="122.1" height="107.4"/>
				<g>
					<rect x="1371.9" y="338.3" class="st7" width="31.2" height="31.2"/>
					<rect x="1415.3" y="338.3" class="st7" width="31.2" height="31.2"/>
					<rect x="1371.9" y="377.4" class="st7" width="31.2" height="31.2"/>
					<rect x="1415.3" y="377.4" class="st7" width="31.2" height="31.2"/>
				</g>
				<rect x="1356.1" y="328.7" class="st6" width="106.2" height="89.3"/>
			</g>
			<path class="st9" d="M1443.3,493c1.8-2.8,2.8-6.1,2.8-9.6c0-10-8.1-18-18-18c-2.8,0-5.4,0.6-7.7,1.7c0.4-1.4,0.6-2.9,0.6-4.4
				c0-10-8.1-18-18-18c-3.5,0-6.8,1-9.6,2.8c0,0,0,0,0-0.1c0-9.9-8.1-18-18-18c-9.2,0-16.9,7-17.9,15.9c-2.4-1.2-5.1-1.9-8-1.9
				c-10,0-18,8.1-18,18c0,2.4,0.5,4.6,1.3,6.7c-9,2.8-15.5,11.2-15.5,21.2c0,1.3,0.1,2.5,0.3,3.7H1443.3z"/>
			<path class="st10" d="M1368.3,493c-1.8-2.8-2.8-6.1-2.8-9.6c0-10,8.1-18,18-18c2.8,0,5.4,0.6,7.7,1.7c-0.4-1.4-0.6-2.9-0.6-4.4
				c0-10,8.1-18,18-18c3.5,0,6.8,1,9.6,2.8c0,0,0,0,0-0.1c0-9.9,8.1-18,18-18c9.2,0,16.9,7,17.9,15.9c2.4-1.2,5.1-1.9,8-1.9
				c10,0,18,8.1,18,18c0,2.4-0.5,4.6-1.3,6.7c9,2.8,15.5,11.2,15.5,21.2c0,1.3-0.1,2.5-0.3,3.7H1368.3z"/>
			<path class="st11" d="M1344.4,493c-1.2-1.9-1.9-4.1-1.9-6.5c0-6.7,5.4-12.1,12.1-12.1c1.9,0,3.6,0.4,5.2,1.2
				c-0.2-1-0.4-1.9-0.4-3c0-6.7,5.4-12.1,12.1-12.1c2.4,0,4.6,0.7,6.5,1.9c0,0,0,0,0,0c0-6.7,5.4-12.1,12.1-12.1
				c6.2,0,11.3,4.7,12,10.7c1.6-0.8,3.4-1.2,5.4-1.2c6.7,0,12.1,5.4,12.1,12.1c0,1.6-0.3,3.1-0.9,4.5c6.1,1.9,10.4,7.5,10.4,14.2
				c0,0.8-0.1,1.7-0.2,2.5H1344.4z"/>
			<g>
				<polygon class="st3" points="1534.2,226.7 1423.4,226.7 1423.4,149.9 1478.8,98 1534.2,149.9 				"/>
				<polygon class="st12" points="1478.8,102.8 1535.6,152.1 1560.3,152.1 1478.8,81.4 1397.3,152.1 1422,152.1 				"/>
			</g>
			<g>
				<rect x="1439.3" y="149.3" class="st5" width="78.9" height="69.4"/>
				<g>
					<rect x="1454.7" y="161.3" class="st7" width="20.1" height="20.1"/>
					<rect x="1482.7" y="161.3" class="st7" width="20.1" height="20.1"/>
					<rect x="1454.7" y="186.5" class="st7" width="20.1" height="20.1"/>
					<rect x="1482.7" y="186.5" class="st7" width="20.1" height="20.1"/>
				</g>
				<rect x="1444.5" y="155.1" class="st6" width="68.7" height="57.7"/>
			</g>
		</g>
		<g>
			<g>
				<rect x="285.3" y="176.5" class="st13" width="419.1" height="316.6"/>
			</g>
			<g>
				<path class="st9" d="M372.2,493c1.8-2.8,2.8-6.1,2.8-9.6c0-10-8.1-18-18-18c-2.8,0-5.4,0.6-7.7,1.7c0.4-1.4,0.6-2.9,0.6-4.4
					c0-9.9-8.1-18-18-18c-3.5,0-6.8,1-9.6,2.8c0,0,0,0,0-0.1c0-10-8.1-18-18-18c-9.2,0-16.9,7-17.9,15.9c-2.4-1.2-5.1-1.9-8-1.9
					c-10,0-18,8.1-18,18c0,2.4,0.5,4.6,1.3,6.7c-9,2.8-15.5,11.2-15.5,21.2c0,1.3,0.1,2.5,0.3,3.7H372.2z"/>
				<path class="st10" d="M297.2,493c-1.8-2.8-2.8-6.1-2.8-9.6c0-10,8.1-18,18-18c2.8,0,5.4,0.6,7.7,1.7c-0.4-1.4-0.6-2.9-0.6-4.4
					c0-9.9,8.1-18,18-18c3.5,0,6.8,1,9.6,2.8c0,0,0,0,0-0.1c0-10,8.1-18,18-18c9.2,0,16.9,7,17.9,15.9c2.4-1.2,5.1-1.9,8-1.9
					c10,0,18,8.1,18,18c0,2.4-0.5,4.6-1.3,6.7c9,2.8,15.5,11.2,15.5,21.2c0,1.3-0.1,2.5-0.3,3.7H297.2z"/>
				<path class="st11" d="M273.3,493c-1.2-1.9-1.9-4.1-1.9-6.5c0-6.7,5.4-12.1,12.1-12.1c1.9,0,3.6,0.4,5.2,1.2c-0.2-1-0.4-2-0.4-3
					c0-6.7,5.4-12.1,12.1-12.1c2.4,0,4.6,0.7,6.5,1.9c0,0,0,0,0,0c0-6.7,5.4-12.1,12.1-12.1c6.2,0,11.3,4.7,12,10.7
					c1.6-0.8,3.4-1.2,5.4-1.2c6.7,0,12.1,5.4,12.1,12.1c0,1.6-0.3,3.1-0.9,4.5c6.1,1.9,10.5,7.5,10.5,14.2c0,0.8-0.1,1.7-0.2,2.5
					H273.3z"/>
			</g>
			<g>
				<path class="st9" d="M676,493c1.8-2.8,2.8-6.1,2.8-9.6c0-10-8.1-18-18-18c-2.8,0-5.4,0.6-7.7,1.7c0.4-1.4,0.5-2.9,0.5-4.4
					c0-9.9-8.1-18-18-18c-3.5,0-6.8,1-9.6,2.8c0,0,0,0,0-0.1c0-10-8.1-18-18-18c-9.2,0-16.9,7-17.9,15.9c-2.4-1.2-5.1-1.9-8-1.9
					c-10,0-18,8.1-18,18c0,2.4,0.5,4.6,1.3,6.7c-9,2.8-15.5,11.2-15.5,21.2c0,1.3,0.1,2.5,0.3,3.7H676z"/>
				<path class="st10" d="M601,493c-1.8-2.8-2.8-6.1-2.8-9.6c0-10,8.1-18,18-18c2.8,0,5.4,0.6,7.7,1.7c-0.4-1.4-0.5-2.9-0.5-4.4
					c0-9.9,8.1-18,18-18c3.5,0,6.8,1,9.6,2.8c0,0,0,0,0-0.1c0-10,8.1-18,18-18c9.2,0,16.9,7,17.9,15.9c2.4-1.2,5.1-1.9,8-1.9
					c9.9,0,18,8.1,18,18c0,2.4-0.5,4.6-1.3,6.7c9,2.8,15.5,11.2,15.5,21.2c0,1.3-0.1,2.5-0.3,3.7H601z"/>
				<path class="st11" d="M577.1,493c-1.2-1.9-1.9-4.1-1.9-6.5c0-6.7,5.4-12.1,12.1-12.1c1.9,0,3.6,0.4,5.2,1.2c-0.2-1-0.4-2-0.4-3
					c0-6.7,5.4-12.1,12.1-12.1c2.4,0,4.6,0.7,6.5,1.9c0,0,0,0,0,0c0-6.7,5.4-12.1,12.1-12.1c6.2,0,11.3,4.7,12,10.7
					c1.6-0.8,3.4-1.2,5.4-1.2c6.7,0,12.1,5.4,12.1,12.1c0,1.6-0.3,3.1-0.9,4.5c6.1,1.9,10.5,7.5,10.5,14.2c0,0.8-0.1,1.7-0.2,2.5
					H577.1z"/>
			</g>
			<polygon class="st14" points="754.6,208.8 235.1,208.8 494.8,8.5 			"/>
			<g>
				<rect x="450" y="345.4" class="st15" width="89.7" height="147.6"/>
				<rect x="456" y="354.6" class="st16" width="77.8" height="138.4"/>
				<rect x="459.5" y="358.1" class="st15" width="70.6" height="134.9"/>
				<rect x="465.2" y="364.5" class="st17" width="25.1" height="35.3"/>
				<rect x="499.3" y="364.5" class="st17" width="25.1" height="35.3"/>
				<rect x="465.2" y="407.9" class="st17" width="25.1" height="35.3"/>
				<rect x="499.3" y="407.9" class="st17" width="25.1" height="35.3"/>
				<rect x="465.2" y="451.4" class="st17" width="25.1" height="35.3"/>
				<rect x="499.3" y="451.4" class="st17" width="25.1" height="35.3"/>
				<g>
					<g>
						<g>
							<rect x="467.6" y="364.5" class="st16" width="22.7" height="1.7"/>
						</g>
						<g>
							<rect x="501.8" y="364.5" class="st16" width="22.7" height="1.7"/>
						</g>
						<g>
							<rect x="467.6" y="407.9" class="st16" width="22.7" height="1.7"/>
						</g>
						<g>
							<rect x="501.8" y="407.9" class="st16" width="22.7" height="1.7"/>
						</g>
						<g>
							<rect x="467.6" y="451.4" class="st16" width="22.7" height="1.7"/>
						</g>
						<g>
							<rect x="501.8" y="451.4" class="st16" width="22.7" height="1.7"/>
						</g>
					</g>
				</g>
				<polygon class="st17" points="467.6,397.2 467.6,364.5 465.2,364.5 465.2,399.8 490.3,399.8 490.3,397.2 				"/>
				<polygon class="st17" points="501.8,397.2 501.8,364.5 499.3,364.5 499.3,399.8 524.4,399.8 524.4,397.2 				"/>
				<polygon class="st17" points="467.6,440.6 467.6,407.9 465.2,407.9 465.2,443.2 490.3,443.2 490.3,440.6 				"/>
				<polygon class="st17" points="501.8,440.6 501.8,407.9 499.3,407.9 499.3,443.2 524.4,443.2 524.4,440.6 				"/>
				<polygon class="st17" points="467.6,484 467.6,451.4 465.2,451.4 465.2,486.6 490.3,486.6 490.3,484 				"/>
				<polygon class="st17" points="501.8,484 501.8,451.4 499.3,451.4 499.3,486.6 524.4,486.6 524.4,484 				"/>
				<g>
					<g>
						<path class="st13" d="M492.6,429.6c0,2-1.6,3.6-3.7,3.6c-2,0-3.7-1.6-3.7-3.6c0-2,1.6-3.7,3.7-3.7
							C490.9,425.9,492.6,427.6,492.6,429.6z"/>
						<path class="st18" d="M489.5,432.5c-2,0-3.6-1.6-3.6-3.6c0-0.7,0.2-1.4,0.5-1.9c-0.7,0.7-1.2,1.6-1.2,2.7c0,2,1.6,3.6,3.7,3.6
							c1.3,0,2.5-0.7,3.1-1.7C491.4,432.1,490.5,432.5,489.5,432.5z"/>
						<path class="st19" d="M491.4,428.2c0.8,1.3,0.7,2.8-0.2,3.3c-0.9,0.5,0.5-0.6-0.7-2.6c-1.4-2.4-3-1.7-2.1-2.2
							C489.3,426.2,490.7,426.8,491.4,428.2z"/>
					</g>
					<g>
						<path class="st13" d="M493.4,437.4c0,1.2-1,2.2-2.2,2.2c-1.2,0-2.2-1-2.2-2.2c0-1.2,1-2.2,2.2-2.2
							C492.4,435.2,493.4,436.2,493.4,437.4z"/>
						<path class="st19" d="M491.2,435.2c-0.6,0-1.2,0.3-1.6,0.6c0.4-0.3,0.9-0.5,1.4-0.5c1.2,0,2.2,1,2.2,2.2
							c0,0.6-0.3,1.2-0.7,1.6c0.5-0.4,0.8-1,0.8-1.7C493.4,436.2,492.4,435.2,491.2,435.2z"/>
						<path class="st18" d="M491.3,439.5c-1.2,0-2.2-1-2.2-2.2c0-0.5,0.1-0.9,0.4-1.2c-0.3,0.4-0.5,0.9-0.5,1.4c0,1.2,1,2.2,2.2,2.2
							c0.8,0,1.5-0.4,1.9-1C492.6,439.2,492,439.5,491.3,439.5z"/>
						<g>
							<path class="st20" d="M491.7,436.7c0,0.3-0.2,0.5-0.5,0.5c-0.3,0-0.5-0.2-0.5-0.5c0-0.3,0.2-0.5,0.5-0.5
								C491.5,436.2,491.7,436.4,491.7,436.7z"/>
							<path class="st20" d="M491.7,438.7l-0.2-1.7c0-0.3-0.1-0.3-0.3-0.3c-0.2,0-0.3-0.1-0.3,0.3l-0.2,1.7H491.7z"/>
						</g>
					</g>
					<g>
						<path class="st13" d="M504.4,429.6c0,2-1.6,3.6-3.7,3.6c-2,0-3.7-1.6-3.7-3.6c0-2,1.6-3.7,3.7-3.7
							C502.7,425.9,504.4,427.6,504.4,429.6z"/>
						<path class="st18" d="M501.4,432.5c-2,0-3.7-1.6-3.7-3.6c0-0.7,0.2-1.4,0.5-1.9c-0.7,0.7-1.2,1.6-1.2,2.7c0,2,1.6,3.6,3.7,3.6
							c1.3,0,2.5-0.7,3.1-1.7C503.2,432.1,502.3,432.5,501.4,432.5z"/>
						<path class="st19" d="M503.3,428.2c0.8,1.3,0.7,2.8-0.2,3.3c-0.9,0.5,0.5-0.6-0.7-2.6c-1.4-2.4-3-1.7-2.1-2.2
							C501.1,426.2,502.5,426.8,503.3,428.2z"/>
					</g>
				</g>
			</g>
			<g>
				<path class="st5" d="M423.4,297c0,26.7-21.7,48.4-48.4,48.4c-26.7,0-48.4-21.7-48.4-48.4c0-26.7,21.7-48.4,48.4-48.4
					C401.7,248.6,423.4,270.3,423.4,297z"/>
				<path class="st21" d="M375,265.8c-17.2,0-31.2,14-31.2,31.2h62.4C406.1,279.8,392.2,265.8,375,265.8z"/>
				<rect x="326.5" y="297" class="st5" width="96.8" height="85.1"/>
				<g>
					<rect x="345.4" y="309.8" class="st21" width="24.7" height="24.7"/>
					<rect x="379.8" y="309.8" class="st21" width="24.7" height="24.7"/>
					<rect x="345.4" y="340.8" class="st21" width="24.7" height="24.7"/>
					<rect x="379.8" y="340.8" class="st21" width="24.7" height="24.7"/>
				</g>
				<path class="st6" d="M375,255.3c-23.3,0-42.1,18.7-42.1,41.7v77.8h84.2V297C417.1,274,398.2,255.3,375,255.3z"/>
			</g>
			<g>
				<path class="st5" d="M675.6,297c0,26.7-21.7,48.4-48.4,48.4c-26.7,0-48.4-21.7-48.4-48.4c0-26.7,21.7-48.4,48.4-48.4
					C653.9,248.6,675.6,270.3,675.6,297z"/>
				<path class="st21" d="M627.2,265.8c-17.2,0-31.2,14-31.2,31.2h62.4C658.4,279.8,644.4,265.8,627.2,265.8z"/>
				<rect x="578.8" y="297" class="st5" width="96.8" height="85.1"/>
				<g>
					<rect x="597.7" y="309.8" class="st21" width="24.7" height="24.7"/>
					<rect x="632" y="309.8" class="st21" width="24.7" height="24.7"/>
					<rect x="597.7" y="340.8" class="st21" width="24.7" height="24.7"/>
					<rect x="632" y="340.8" class="st21" width="24.7" height="24.7"/>
				</g>
				<path class="st6" d="M627.2,255.3c-23.3,0-42.1,18.7-42.1,41.7v77.8h84.2V297C669.3,274,650.5,255.3,627.2,255.3z"/>
			</g>
			<g>
				<polygon class="st13" points="552.9,255.7 436.7,255.7 436.7,175.2 494.8,120.8 552.9,175.2 				"/>
				<polygon class="st22" points="494.8,125.8 554.4,177.5 580.3,177.5 494.8,103.4 409.4,177.5 435.3,177.5 				"/>
			</g>
			<g>
				<rect x="453.4" y="174.5" class="st5" width="82.8" height="72.7"/>
				<g>
					<rect x="469.6" y="187.1" class="st21" width="21.1" height="21.1"/>
					<rect x="499" y="187.1" class="st21" width="21.1" height="21.1"/>
					<rect x="469.6" y="213.6" class="st21" width="21.1" height="21.1"/>
					<rect x="499" y="213.6" class="st21" width="21.1" height="21.1"/>
				</g>
				<rect x="458.8" y="180.7" class="st6" width="72" height="60.5"/>
			</g>
		</g>
		<g>
			<g>
				<g>
					<g>
						<g>
							<path class="st23" d="M1190,217.2c-25-9.8-39-21-61.6-35.7c-19.8-12.8-39.9-26.3-58.2-41.3c-8.4-6.9-38.2-15.6-44.2-26h-42.4
								c-24.1,21.9-51.1,40.4-79.4,56.9c-27.9,16.3-54.7,35-83.4,49.9V493h381.1V224.2C1195.5,222,1196.2,219.6,1190,217.2z"/>
							<g>
								<g>
									<path class="st24" d="M1128.4,181.5c-10-6.5-20-13.1-29.9-20H920c-5.2,3.3-10.5,6.5-15.9,9.6c-8.3,4.8-16.4,9.9-24.6,15
										h256.2C1133.3,184.6,1130.8,183.1,1128.4,181.5z"/>
									<path class="st24" d="M1141.6,189.5H874.1c-13.4,8.4-26.7,16.8-40.5,24.5h348.2C1164.2,206.9,1158.3,198.9,1141.6,189.5z"
										/>
									<path class="st24" d="M1070.2,140.3c-2.5-2-5.2-4.2-7.9-6.6H960.4c-11.2,8.7-22.9,16.8-35,24.5h168.4
										C1085.7,152.4,1077.8,146.5,1070.2,140.3z"/>
									<path class="st24" d="M1190.4,217.4H827.6c-2.2,1.2-4.5,2.4-6.8,3.6v20.9h381.1v-17.7
										C1195.6,222,1196.5,219.7,1190.4,217.4z"/>
									<rect x="820.8" y="245.3" class="st24" width="381.1" height="24.5"/>
									<rect x="820.8" y="273.2" class="st24" width="381.1" height="24.5"/>
									<rect x="820.8" y="301.1" class="st24" width="381.1" height="24.5"/>
									<rect x="820.8" y="329" class="st24" width="381.1" height="24.5"/>
									<rect x="820.8" y="356.9" class="st24" width="381.1" height="24.5"/>
									<rect x="820.8" y="384.8" class="st24" width="381.1" height="24.5"/>
									<rect x="820.8" y="412.7" class="st24" width="381.1" height="24.5"/>
									<rect x="820.8" y="440.6" class="st24" width="381.1" height="24.5"/>
									<rect x="820.8" y="468.5" class="st24" width="381.1" height="24.5"/>
								</g>
							</g>
						</g>
					</g>
				</g>
				<g>
					<rect x="1015.1" y="273.6" class="st25" width="144.1" height="219.5"/>
					<polyline class="st26" points="1149.8,493 1149.8,283 1024.5,283 1024.5,493 					"/>
					<g>
						<rect x="1093.6" y="296.2" class="st16" width="33.1" height="33.1"/>
						<rect x="1047.5" y="296.2" class="st16" width="33.1" height="33.1"/>
						<rect x="1093.6" y="337.7" class="st16" width="33.1" height="33.1"/>
						<rect x="1047.5" y="337.7" class="st16" width="33.1" height="33.1"/>
					</g>
					<g>
						<polyline class="st26" points="1137.1,493 1137.1,396.2 1117.5,396.2 1117.5,493 						"/>
						<polyline class="st26" points="1110.3,493 1110.3,396.2 1090.7,396.2 1090.7,493 						"/>
						<polyline class="st26" points="1083.6,493 1083.6,396.2 1063.9,396.2 1063.9,493 						"/>
						<polyline class="st26" points="1056.8,493 1056.8,396.2 1037.1,396.2 1037.1,493 						"/>
					</g>
					<path class="st27" d="M1128.6,395.5c0,3.2,2.6,5.8,5.8,5.8l0,0c3.2,0,5.8-2.6,5.8-5.8v-15c0-3.2-2.6-5.8-5.8-5.8l0,0
						c-3.2,0-5.8,2.6-5.8,5.8V395.5z"/>
					<g class="st28">
						<path class="st5" d="M1076.2,343.7c0.1,0.6-0.2,1.5-0.8,1.9l-20,16.6c-0.5,0.4-1,0.3-1.1-0.4l0,0c-0.1-0.6,0.2-1.5,0.8-1.9
							l20-16.6C1075.6,342.9,1076.1,343.1,1076.2,343.7L1076.2,343.7z"/>
						<path class="st5" d="M1073.6,349.5c0.1,0.6-0.2,1.5-0.8,1.9l-13.8,11.4c-0.5,0.4-1,0.3-1.1-0.4l0,0c-0.1-0.6,0.2-1.5,0.8-1.9
							l13.8-11.4C1073,348.7,1073.5,348.9,1073.6,349.5L1073.6,349.5z"/>
						<path class="st5" d="M1072.5,343.1c0.1,0.6-0.2,1.5-0.8,1.9l-13.8,11.4c-0.5,0.4-1,0.3-1.1-0.4l0,0c-0.1-0.6,0.2-1.5,0.8-1.9
							l13.8-11.4C1071.9,342.3,1072.4,342.4,1072.5,343.1L1072.5,343.1z"/>
					</g>
					<g class="st28">
						<path class="st5" d="M1121.3,343.7c0.1,0.6-0.2,1.5-0.8,1.9l-20,16.6c-0.5,0.4-1,0.3-1.1-0.4l0,0c-0.1-0.6,0.2-1.5,0.8-1.9
							l20-16.6C1120.7,342.9,1121.2,343.1,1121.3,343.7L1121.3,343.7z"/>
						<path class="st5" d="M1118.7,349.5c0.1,0.6-0.2,1.5-0.8,1.9l-13.8,11.4c-0.5,0.4-1,0.3-1.1-0.4l0,0c-0.1-0.6,0.2-1.5,0.8-1.9
							l13.8-11.4C1118.1,348.7,1118.6,348.9,1118.7,349.5L1118.7,349.5z"/>
						<path class="st5" d="M1117.7,343.1c0.1,0.6-0.2,1.5-0.8,1.9l-13.8,11.4c-0.5,0.4-1,0.3-1.1-0.4l0,0c-0.1-0.6,0.2-1.5,0.8-1.9
							l13.8-11.4C1117,342.3,1117.6,342.4,1117.7,343.1L1117.7,343.1z"/>
					</g>
					<g class="st28">
						<path class="st5" d="M1074.9,304.3c0.1,0.6-0.2,1.5-0.8,1.9l-20,16.6c-0.5,0.4-1,0.3-1.1-0.4l0,0c-0.1-0.6,0.2-1.5,0.8-1.9
							l20-16.6C1074.3,303.4,1074.8,303.6,1074.9,304.3L1074.9,304.3z"/>
						<path class="st5" d="M1072.3,310.1c0.1,0.6-0.2,1.5-0.8,1.9l-13.8,11.4c-0.5,0.4-1,0.3-1.1-0.4l0,0c-0.1-0.6,0.2-1.5,0.8-1.9
							l13.8-11.4C1071.7,309.3,1072.2,309.4,1072.3,310.1L1072.3,310.1z"/>
						<path class="st5" d="M1071.2,303.6c0.1,0.6-0.2,1.5-0.8,1.9l-13.8,11.4c-0.5,0.4-1,0.3-1.1-0.4l0,0c-0.1-0.6,0.2-1.5,0.8-1.9
							l13.8-11.4C1070.6,302.8,1071.1,303,1071.2,303.6L1071.2,303.6z"/>
					</g>
					<g class="st28">
						<path class="st5" d="M1120.1,303.6c0.1,0.6-0.2,1.5-0.8,1.9l-20,16.6c-0.5,0.4-1,0.3-1.1-0.4l0,0c-0.1-0.6,0.2-1.5,0.8-1.9
							l20-16.6C1119.5,302.8,1120,303,1120.1,303.6L1120.1,303.6z"/>
						<path class="st5" d="M1117.5,309.4c0.1,0.6-0.2,1.5-0.8,1.9l-13.8,11.4c-0.5,0.4-1,0.3-1.1-0.4l0,0c-0.1-0.6,0.2-1.5,0.8-1.9
							l13.8-11.4C1116.9,308.6,1117.4,308.8,1117.5,309.4L1117.5,309.4z"/>
						<path class="st5" d="M1116.5,303c0.1,0.6-0.2,1.5-0.8,1.9l-13.8,11.4c-0.5,0.4-1,0.3-1.1-0.4l0,0c-0.1-0.6,0.2-1.5,0.8-1.9
							l13.8-11.4C1115.9,302.2,1116.4,302.4,1116.5,303L1116.5,303z"/>
					</g>
				</g>
				<g>
					<polygon class="st22" points="1011.3,118.8 1206,251.1 1278.7,251.1 1011.3,65.3 744,251.1 816.7,251.1 					"/>
					<g>
						<polygon class="st22" points="1182.7,203.6 1182.7,97.9 1094.8,97.9 1094.8,136.8 						"/>
						<path class="st22" d="M1190.4,96.4c0,2.4-2.6,4.4-5.8,4.4h-91.8c-3.2,0-5.8-2-5.8-4.4l0,0c0-2.4,2.6-4.4,5.8-4.4h91.8
							C1187.9,92.1,1190.4,94,1190.4,96.4L1190.4,96.4z"/>
					</g>
				</g>
				<g>
					<path class="st25" d="M983.7,313.7c0,32.2-26.1,58.3-58.3,58.3c-32.2,0-58.3-26.1-58.3-58.3c0-32.2,26.1-58.3,58.3-58.3
						C957.6,255.4,983.7,281.5,983.7,313.7z"/>
					<path class="st16" d="M925.4,276.2c-20.7,0-37.5,16.8-37.5,37.5h75C962.9,293,946.2,276.2,925.4,276.2z"/>
					<rect x="867.2" y="313.7" class="st25" width="116.5" height="102.4"/>
					<g>
						<rect x="889.9" y="329.1" class="st16" width="29.7" height="29.7"/>
						<rect x="931.2" y="329.1" class="st16" width="29.7" height="29.7"/>
						<rect x="889.9" y="366.4" class="st16" width="29.7" height="29.7"/>
						<rect x="931.2" y="366.4" class="st16" width="29.7" height="29.7"/>
					</g>
					<path class="st26" d="M925.4,263.5c-28,0-50.7,22.5-50.7,50.2v93.6h101.4v-93.6C976.1,286,953.4,263.5,925.4,263.5z"/>
					<g class="st28">
						<path class="st5" d="M915.7,372.9c0.1,0.6-0.2,1.5-0.8,1.9l-20,16.6c-0.5,0.4-1,0.3-1.1-0.4l0,0c-0.1-0.6,0.2-1.5,0.8-1.9
							l20-16.6C915.1,372.1,915.6,372.3,915.7,372.9L915.7,372.9z"/>
						<path class="st5" d="M913.1,378.7c0.1,0.6-0.2,1.5-0.8,1.9l-13.8,11.4c-0.5,0.4-1,0.3-1.1-0.4l0,0c-0.1-0.6,0.2-1.5,0.8-1.9
							l13.8-11.4C912.5,377.9,913,378.1,913.1,378.7L913.1,378.7z"/>
						<path class="st5" d="M912,372.3c0.1,0.6-0.2,1.5-0.8,1.9l-13.8,11.4c-0.5,0.4-1,0.3-1.1-0.4l0,0c-0.1-0.6,0.2-1.5,0.8-1.9
							l13.8-11.5C911.4,371.5,911.9,371.7,912,372.3L912,372.3z"/>
					</g>
					<g class="st28">
						<path class="st5" d="M957,372.9c0.1,0.6-0.2,1.5-0.8,1.9l-20,16.6c-0.5,0.4-1,0.3-1.1-0.4l0,0c-0.1-0.6,0.2-1.5,0.8-1.9
							l20-16.6C956.4,372.1,956.9,372.3,957,372.9L957,372.9z"/>
						<path class="st5" d="M954.4,378.7c0.1,0.6-0.2,1.5-0.8,1.9l-13.8,11.4c-0.5,0.4-1,0.3-1.1-0.4l0,0c-0.1-0.6,0.2-1.5,0.8-1.9
							l13.8-11.4C953.8,377.9,954.3,378.1,954.4,378.7L954.4,378.7z"/>
						<path class="st5" d="M953.4,372.3c0.1,0.6-0.2,1.5-0.8,1.9l-13.8,11.4c-0.5,0.4-1,0.3-1.1-0.4l0,0c-0.1-0.6,0.2-1.5,0.8-1.9
							l13.8-11.5C952.8,371.5,953.3,371.7,953.4,372.3L953.4,372.3z"/>
					</g>
					<g class="st28">
						<path class="st5" d="M915.7,334.9c0.1,0.6-0.2,1.5-0.8,1.9l-20,16.6c-0.5,0.4-1,0.3-1.1-0.4l0,0c-0.1-0.6,0.2-1.5,0.8-1.9
							l20-16.6C915.1,334.1,915.6,334.3,915.7,334.9L915.7,334.9z"/>
						<path class="st5" d="M913.1,340.7c0.1,0.6-0.2,1.5-0.8,1.9l-13.8,11.4c-0.5,0.4-1,0.3-1.1-0.4l0,0c-0.1-0.6,0.2-1.5,0.8-1.9
							l13.8-11.4C912.5,339.9,913,340.1,913.1,340.7L913.1,340.7z"/>
						<path class="st5" d="M912,334.3c0.1,0.6-0.2,1.5-0.8,1.9l-13.8,11.4c-0.5,0.4-1,0.3-1.1-0.4l0,0c-0.1-0.6,0.2-1.5,0.8-1.9
							l13.8-11.4C911.4,333.5,911.9,333.6,912,334.3L912,334.3z"/>
					</g>
					<g class="st28">
						<path class="st5" d="M941.5,287.7c0.1,0.6-0.5,1.5-1.5,2L902.5,308c-1,0.5-1.9,0.3-2-0.3l0,0c-0.1-0.6,0.5-1.5,1.5-2
							l37.5-18.2C940.5,287,941.4,287.1,941.5,287.7L941.5,287.7z"/>
						<path class="st5" d="M936.4,293.8c0.1,0.6-0.5,1.5-1.5,2L909,308.3c-1,0.5-1.9,0.3-2-0.3l0,0c-0.1-0.6,0.5-1.5,1.5-2
							l25.8-12.5C935.3,293,936.2,293.1,936.4,293.8L936.4,293.8z"/>
						<path class="st5" d="M935,287.4c0.1,0.6-0.5,1.5-1.5,2l-25.8,12.5c-1,0.5-1.9,0.3-2-0.3l0,0c-0.1-0.6,0.5-1.5,1.5-2l25.8-12.6
							C933.9,286.6,934.8,286.7,935,287.4L935,287.4z"/>
					</g>
					<g class="st28">
						<path class="st5" d="M957,334.9c0.1,0.6-0.2,1.5-0.8,1.9l-20,16.6c-0.5,0.4-1,0.3-1.1-0.4l0,0c-0.1-0.6,0.2-1.5,0.8-1.9
							l20-16.6C956.4,334.1,956.9,334.3,957,334.9L957,334.9z"/>
						<path class="st5" d="M954.4,340.7c0.1,0.6-0.2,1.5-0.8,1.9l-13.8,11.4c-0.5,0.4-1,0.3-1.1-0.4l0,0c-0.1-0.6,0.2-1.5,0.8-1.9
							l13.8-11.4C953.8,339.9,954.3,340.1,954.4,340.7L954.4,340.7z"/>
						<path class="st5" d="M953.4,334.3c0.1,0.6-0.2,1.5-0.8,1.9l-13.8,11.4c-0.5,0.4-1,0.3-1.1-0.4l0,0c-0.1-0.6,0.2-1.5,0.8-1.9
							l13.8-11.4C952.8,333.5,953.3,333.6,953.4,334.3L953.4,334.3z"/>
					</g>
				</g>
			</g>
			<path class="st9" d="M1239.3,493c1.1-1.7,1.7-3.8,1.7-6c0-6.2-5-11.3-11.3-11.3c-1.7,0-3.4,0.4-4.8,1.1c0.2-0.9,0.3-1.8,0.3-2.8
				c0-6.2-5-11.3-11.3-11.3c-2.2,0-4.3,0.6-6,1.7c0,0,0,0,0,0c0-6.2-5-11.3-11.3-11.3c-5.8,0-10.6,4.4-11.2,10
				c-1.5-0.7-3.2-1.2-5-1.2c-6.2,0-11.3,5-11.3,11.3c0,1.5,0.3,2.9,0.8,4.2c-5.6,1.8-9.7,7-9.7,13.2c0,0.8,0.1,1.6,0.2,2.3H1239.3z"
				/>
			<path class="st10" d="M1175.7,493c-1.1-1.7-1.7-3.8-1.7-6c0-6.2,5-11.3,11.3-11.3c1.7,0,3.4,0.4,4.8,1.1
				c-0.2-0.9-0.3-1.8-0.3-2.8c0-6.2,5-11.3,11.3-11.3c2.2,0,4.3,0.6,6,1.7c0,0,0,0,0,0c0-6.2,5-11.3,11.3-11.3
				c5.8,0,10.5,4.4,11.2,10c1.5-0.7,3.2-1.2,5-1.2c6.2,0,11.3,5,11.3,11.3c0,1.5-0.3,2.9-0.8,4.2c5.6,1.8,9.7,7,9.7,13.2
				c0,0.8-0.1,1.6-0.2,2.3H1175.7z"/>
			<path class="st11" d="M1203,493c-0.7-1.2-1.2-2.6-1.2-4c0-4.2,3.4-7.6,7.6-7.6c1.2,0,2.3,0.3,3.2,0.7c-0.2-0.6-0.2-1.2-0.2-1.9
				c0-4.2,3.4-7.6,7.6-7.6c1.5,0,2.9,0.4,4,1.2c0,0,0,0,0,0c0-4.2,3.4-7.6,7.6-7.6c3.9,0,7.1,2.9,7.5,6.7c1-0.5,2.1-0.8,3.3-0.8
				c4.2,0,7.6,3.4,7.6,7.6c0,1-0.2,1.9-0.5,2.8c3.8,1.2,6.5,4.7,6.5,8.9c0,0.5,0,1.1-0.1,1.6H1203z"/>
			<g>
				<path class="st9" d="M896.9,493c1.2-2,2-4.3,2-6.8c0-7-5.7-12.8-12.8-12.8c-1.9,0-3.8,0.4-5.5,1.2c0.3-1,0.4-2.1,0.4-3.1
					c0-7-5.7-12.8-12.8-12.8c-2.5,0-4.8,0.7-6.8,2c0,0,0,0,0,0c0-7.1-5.7-12.8-12.8-12.8c-6.5,0-11.9,4.9-12.7,11.3
					c-1.7-0.8-3.6-1.3-5.6-1.3c-7.1,0-12.8,5.7-12.8,12.8c0,1.7,0.3,3.3,0.9,4.8c-6.4,2-11,7.9-11,15c0,0.9,0.1,1.8,0.2,2.6H896.9z"
					/>
				<path class="st10" d="M843.7,489.1c-1.2-2-2-4.3-2-6.8c0-7,5.7-12.8,12.8-12.8c1.9,0,3.8,0.4,5.5,1.2c-0.3-1-0.4-2.1-0.4-3.1
					c0-7.1,5.7-12.8,12.8-12.8c2.5,0,4.8,0.7,6.8,2c0,0,0,0,0,0c0-7,5.7-12.8,12.8-12.8c6.6,0,11.9,4.9,12.7,11.3
					c1.7-0.8,3.6-1.3,5.6-1.3c7,0,12.8,5.7,12.8,12.8c0,1.7-0.3,3.3-0.9,4.8c6.4,2,11,7.9,11,15c0,0.9-0.1,1.8-0.2,2.6H843.7z"/>
				<path class="st11" d="M826.8,493c-0.8-1.3-1.3-2.9-1.3-4.6c0-4.7,3.8-8.6,8.6-8.6c1.3,0,2.6,0.3,3.7,0.8
					c-0.2-0.7-0.3-1.4-0.3-2.1c0-4.7,3.8-8.6,8.6-8.6c1.7,0,3.3,0.5,4.6,1.3c0,0,0,0,0,0c0-4.7,3.8-8.6,8.6-8.6c4.4,0,8,3.3,8.5,7.6
					c1.1-0.6,2.4-0.9,3.8-0.9c4.7,0,8.6,3.8,8.6,8.6c0,1.1-0.2,2.2-0.6,3.2c4.3,1.3,7.4,5.3,7.4,10.1c0,0.6-0.1,1.2-0.1,1.8H826.8z"
					/>
				<path class="st9" d="M973.4,493c1.2-2,2-4.3,2-6.8c0-7-5.7-12.8-12.8-12.8c-1.9,0-3.8,0.4-5.5,1.2c0.3-1,0.4-2.1,0.4-3.1
					c0-7-5.7-12.8-12.8-12.8c-2.5,0-4.8,0.7-6.8,2c0,0,0,0,0,0c0-7.1-5.7-12.8-12.8-12.8c-6.5,0-11.9,4.9-12.7,11.3
					c-1.7-0.8-3.6-1.3-5.6-1.3c-7.1,0-12.8,5.7-12.8,12.8c0,1.7,0.3,3.3,0.9,4.8c-6.4,2-11,7.9-11,15c0,0.9,0.1,1.8,0.2,2.6H973.4z"
					/>
				<path class="st10" d="M920.2,493c-1.2-2-2-4.3-2-6.8c0-7,5.7-12.8,12.8-12.8c1.9,0,3.8,0.4,5.5,1.2c-0.3-1-0.4-2.1-0.4-3.1
					c0-7,5.7-12.8,12.8-12.8c2.5,0,4.8,0.7,6.8,2c0,0,0,0,0,0c0-7.1,5.7-12.8,12.8-12.8c6.6,0,11.9,4.9,12.7,11.3
					c1.7-0.8,3.6-1.3,5.6-1.3c7,0,12.8,5.7,12.8,12.8c0,1.7-0.3,3.3-0.9,4.8c6.4,2,11,7.9,11,15c0,0.9-0.1,1.8-0.2,2.6H920.2z"/>
				<path class="st11" d="M903.3,493c-0.8-1.3-1.3-2.9-1.3-4.6c0-4.7,3.8-8.6,8.6-8.6c1.3,0,2.6,0.3,3.7,0.8
					c-0.2-0.7-0.3-1.4-0.3-2.1c0-4.7,3.8-8.6,8.6-8.6c1.7,0,3.2,0.5,4.6,1.3c0,0,0,0,0,0c0-4.7,3.8-8.6,8.6-8.6c4.4,0,8,3.3,8.5,7.6
					c1.1-0.6,2.4-0.9,3.8-0.9c4.7,0,8.6,3.8,8.6,8.6c0,1.1-0.2,2.2-0.6,3.2c4.3,1.3,7.4,5.3,7.4,10.1c0,0.6-0.1,1.2-0.1,1.8H903.3z"
					/>
			</g>
		</g>
	</g>
	<rect x="-1.9" y="652" class="st29" width="1899.8" height="64.4"/>
	<rect x="370.1" y="543.3" class="st29" width="46.9" height="140.9"/>
	<rect x="382.5" y="543.3" class="st3" width="22.1" height="140.9"/>
	<rect x="902" y="543.3" class="st29" width="46.9" height="140.9"/>
	<rect x="914.4" y="543.3" class="st3" width="22.1" height="140.9"/>
	<rect x="1385.7" y="543.3" class="st29" width="46.9" height="140.9"/>
	<rect x="1398.1" y="543.3" class="st3" width="22.1" height="140.9"/>
	<rect x="-1.9" y="668.5" class="st3" width="1899.8" height="31.4"/>
	<rect x="3.8" y="527.7" class="st30" width="1894.1" height="35.2"/>
	<rect x="3.8" y="493" class="st11" width="1894.1" height="34.6"/>
</g>
</svg>
