<?xml version="1.0" encoding="utf-8"?>
<!-- Generator: Adobe Illustrator 24.0.2, SVG Export Plug-In . SVG Version: 6.00 Build 0)  -->
<svg version="1.1" id="Layer_1" xmlns="http://www.w3.org/2000/svg" xmlns:xlink="http://www.w3.org/1999/xlink" x="0px" y="0px"
	 viewBox="0 0 438 711" style="enable-background:new 0 0 438 711;" height="711" width="438" xml:space="preserve">
<style type="text/css">
	.st0{opacity:0.2;fill:#00689A;}
	.st1{clip-path:url(#SVGID_2_);fill:#7EA840;}
	.st2{fill:#6CAF44;}
	.st3{fill:#5C9741;}
</style>
<g>
	<rect x="-20" y="-2.5" class="st0" width="461.5" height="542.1"/>
	<g>
		<defs>
			<rect id="SVGID_1_" x="-7.6" y="-10.5" width="463.1" height="752.2"/>
		</defs>
		<clipPath id="SVGID_2_">
			<use xlink:href="#SVGID_1_"  style="overflow:visible;"/>
		</clipPath>
		<path class="st1" d="M459.6,711.4l-0.5-310.4c-65.7-59.3-145.6-76.3-204.2-48c-63.3,30.6-92.4,43-168,38.7
			c-32-1.8-64.8-5-96.6-13.8v333.3H459.6z"/>
	</g>
	<g>
		<path class="st2" d="M40.9,594.8c2.9-7.6,4.8-16.1,1.8-21.4c0,0,0.3,11.7-8.8,21.4H40.9z"/>
		<path class="st2" d="M30.9,594.8h9.4c3.1-17.6-5.6-26.2-5.6-26.2C38.7,578.4,35,588,30.9,594.8z"/>
		<path class="st3" d="M31.2,594.8h5.6c6.7-13.2-7.4-20.2-7.4-20.2C35.4,582.7,35.6,589.9,31.2,594.8z"/>
		<path class="st3" d="M61.1,594.8c-1.8-5.9-1.5-13.4,1.9-20.2c0,0-9.3,6.8-7.2,20.2H61.1z"/>
		<path class="st2" d="M30,594.8c-0.5-5.4-3.8-12.2-11.9-19.1c0,0,17,4.1,15.5,19.1H30z"/>
		<path class="st2" d="M61.8,594.8c0.9-4.9,4.2-10.8,11-16.3c0,0-15.6,2.3-15.7,16.3H61.8z"/>
		<path class="st2" d="M59.7,594.8c-7.7-10.4-3.8-21.3-3.8-21.3c-4.4,6.6-5.8,13.1-3.3,21.3H59.7z"/>
		<path class="st2" d="M46.9,594.8c-1.4-5.1-2.2-10,0.6-16.2c0,0-5.9,8.2-5.8,16.2H46.9z"/>
		<path class="st3" d="M53.2,594.8c-1.7-5.8-4.6-17.7-1.2-25.3c0,0-6.7,11.2-4.1,25.3H53.2z"/>
		<path class="st2" d="M50.1,594.8c-2.7-5.5-0.2-10.9,1.7-15c0,0-8.6,6.8-7.2,15H50.1z"/>
		<path class="st3" d="M47.5,594.8c-3.4-4-7.6-10.2-6.3-15.5c0,0-3.5,6.3-0.7,15.5H47.5z"/>
	</g>
	<g>
		<path class="st2" d="M393.4,530.6c2.9-7.6,4.8-16.1,1.8-21.4c0,0,0.3,11.7-8.8,21.4H393.4z"/>
		<path class="st2" d="M383.5,530.6h9.4c3.1-17.6-5.6-26.2-5.6-26.2C391.2,514.2,387.5,523.8,383.5,530.6z"/>
		<path class="st3" d="M383.7,530.6h5.6c6.7-13.2-7.4-20.2-7.4-20.2C387.9,518.5,388.2,525.7,383.7,530.6z"/>
		<path class="st3" d="M413.6,530.6c-1.8-5.9-1.5-13.4,1.9-20.2c0,0-9.3,6.8-7.2,20.2H413.6z"/>
		<path class="st2" d="M382.5,530.6c-0.5-5.4-3.8-12.2-11.9-19.1c0,0,17,4.1,15.5,19.1H382.5z"/>
		<path class="st2" d="M414.4,530.6c0.9-4.9,4.2-10.8,11-16.3c0,0-15.6,2.3-15.7,16.3H414.4z"/>
		<path class="st2" d="M412.2,530.6c-7.7-10.4-3.8-21.3-3.8-21.3c-4.4,6.6-5.8,13.1-3.3,21.3H412.2z"/>
		<path class="st2" d="M399.4,530.6c-1.4-5.1-2.2-10,0.6-16.2c0,0-5.9,8.2-5.8,16.2H399.4z"/>
		<path class="st3" d="M405.7,530.6c-1.7-5.8-4.6-17.7-1.2-25.3c0,0-6.7,11.2-4.1,25.3H405.7z"/>
		<path class="st2" d="M402.6,530.6c-2.7-5.5-0.2-10.9,1.7-15c0,0-8.6,6.8-7.2,15H402.6z"/>
		<path class="st3" d="M400,530.6c-3.4-4-7.6-10.2-6.3-15.5c0,0-3.5,6.3-0.7,15.5H400z"/>
	</g>
	<g>
		<path class="st2" d="M351.7,650c2.9-7.6,4.8-16.1,1.8-21.4c0,0,0.3,11.7-8.8,21.4H351.7z"/>
		<path class="st2" d="M341.8,650h9.4c3.1-17.6-5.6-26.2-5.6-26.2C349.5,633.6,345.8,643.2,341.8,650z"/>
		<path class="st3" d="M342,650h5.6c6.7-13.2-7.4-20.2-7.4-20.2C346.2,637.9,346.5,645.1,342,650z"/>
		<path class="st3" d="M371.9,650c-1.8-5.9-1.5-13.4,1.9-20.2c0,0-9.3,6.8-7.2,20.2H371.9z"/>
		<path class="st2" d="M340.8,650c-0.5-5.4-3.8-12.2-11.9-19.1c0,0,17,4.1,15.5,19.1H340.8z"/>
		<path class="st2" d="M372.7,650c0.9-4.9,4.2-10.8,11-16.3c0,0-15.6,2.3-15.7,16.3H372.7z"/>
		<path class="st2" d="M370.5,650c-7.7-10.4-3.8-21.3-3.8-21.3c-4.4,6.6-5.8,13.1-3.3,21.3H370.5z"/>
		<path class="st2" d="M357.8,650c-1.4-5.1-2.2-10,0.6-16.2c0,0-5.9,8.2-5.8,16.2H357.8z"/>
		<path class="st3" d="M364.1,650c-1.7-5.8-4.6-17.7-1.2-25.3c0,0-6.7,11.2-4.1,25.3H364.1z"/>
		<path class="st2" d="M360.9,650c-2.7-5.5-0.2-10.9,1.7-15c0,0-8.6,6.8-7.2,15H360.9z"/>
		<path class="st3" d="M358.4,650c-3.4-4-7.6-10.2-6.3-15.5c0,0-3.5,6.3-0.7,15.5H358.4z"/>
	</g>
	<g>
		<path class="st2" d="M214.3,555.4c2.9-7.6,4.8-16.1,1.8-21.4c0,0,0.3,11.7-8.8,21.4H214.3z"/>
		<path class="st2" d="M204.4,555.4h9.4c3.1-17.6-5.6-26.2-5.6-26.2C212.1,539,208.4,548.6,204.4,555.4z"/>
		<path class="st3" d="M204.6,555.4h5.6c6.7-13.2-7.4-20.2-7.4-20.2C208.8,543.3,209.1,550.5,204.6,555.4z"/>
		<path class="st3" d="M234.5,555.4c-1.8-5.9-1.5-13.4,1.9-20.2c0,0-9.3,6.8-7.2,20.2H234.5z"/>
		<path class="st2" d="M203.4,555.4c-0.5-5.4-3.8-12.2-11.9-19.1c0,0,17,4.1,15.5,19.1H203.4z"/>
		<path class="st2" d="M235.3,555.4c0.9-4.9,4.2-10.8,11-16.3c0,0-15.6,2.3-15.7,16.3H235.3z"/>
		<path class="st2" d="M233.1,555.4c-7.7-10.4-3.8-21.3-3.8-21.3c-4.4,6.6-5.8,13.1-3.3,21.3H233.1z"/>
		<path class="st2" d="M220.4,555.4c-1.4-5.1-2.2-10,0.6-16.2c0,0-5.9,8.2-5.8,16.2H220.4z"/>
		<path class="st3" d="M226.7,555.4c-1.7-5.8-4.6-17.7-1.2-25.3c0,0-6.7,11.2-4.1,25.3H226.7z"/>
		<path class="st2" d="M223.5,555.4c-2.7-5.5-0.2-10.9,1.7-15c0,0-8.6,6.8-7.2,15H223.5z"/>
		<path class="st3" d="M221,555.4c-3.4-4-7.6-10.2-6.3-15.5c0,0-3.5,6.3-0.7,15.5H221z"/>
	</g>
</g>
</svg>
