<?xml version="1.0" encoding="utf-8"?>
<!-- Generator: Adobe Illustrator 24.0.2, SVG Export Plug-In . SVG Version: 6.00 Build 0)  -->
<svg version="1.1" id="Layer_1" xmlns="http://www.w3.org/2000/svg" xmlns:xlink="http://www.w3.org/1999/xlink" x="0px" y="0px"
	 viewBox="0 0 1366 900" style="enable-background:new 0 0 1366 900;" xml:space="preserve">
<style type="text/css">
	.st0{opacity:0.2;fill:#00689A;}
	.st1{clip-path:url(#SVGID_2_);fill:#7EA840;}
	.st2{opacity:0.3;clip-path:url(#SVGID_2_);fill:#EAE5E1;}
	.st3{opacity:0.6;clip-path:url(#SVGID_2_);fill:#FDFDFB;}
	.st4{fill:#6CAF44;}
	.st5{fill:#5C9741;}
	.st6{fill:#D9D3C8;}
	.st7{fill:#C6BFB0;}
	.st8{fill:#EAE5E1;}
	.st9{fill:#949BC4;}
	.st10{fill:#7A85AE;}
	.st11{opacity:0.5;fill:#B3B8DD;}
	.st12{fill:#B3B8DD;}
</style>
<g>
	<rect x="-4.4" y="-1" class="st0" width="1381.4" height="549.3"/>
	<g>
		<defs>
			<rect id="SVGID_1_" x="-0.3" y="170.7" width="1367.2" height="737.3"/>
		</defs>
		<clipPath id="SVGID_2_">
			<use xlink:href="#SVGID_1_"  style="overflow:visible;"/>
		</clipPath>
		<path class="st1" d="M1379.1,900.3l-1.4-449.2c-193.9-61.2-429.9-78.7-602.8-49.5c-187,31.6-272.8,96.1-496,91.6
			c-94.4-1.9-191.2-5.1-285.3-14.2v421.3H1379.1z"/>
		<path class="st2" d="M-68.5,424.8c54.7,28.8,209.9,74.7,437.8,24.1c155.8-34.5,303.3-41.1,438.7,4.7
			c121.7,41.2,203.5-30.4,386-46.8c107-9.6,281,46.8,281,46.8s-46-191.7-51.6-192c-5.6-0.4-1445.8-4.6-1445.8-4.6L-68.5,424.8z"/>
		<path class="st3" d="M-20.1,213.1c67.2-6.9,152-10,264.6,33.4c119.5,46,202.6,59.9,298.7,27.3s187.4-60.7,279.9-48.5
			c92.6,12.2,195,65.4,313.9,36.5c118.9-28.9,247.2-36.5,247.2-36.5l-1.9-79.9l-1413-3.2L-20.1,213.1z"/>
	</g>
	<g>
		<path class="st4" d="M51.7,663.5c5.2-13.7,8.6-29,3.3-38.4c0,0,0.5,21-15.9,38.4H51.7z"/>
		<path class="st4" d="M33.9,663.5h17c5.5-31.7-10.1-47.2-10.1-47.2C47.8,634,41.2,651.3,33.9,663.5z"/>
		<path class="st5" d="M34.3,663.5h10c12-23.8-13.4-36.3-13.4-36.3C41.9,641.7,42.3,654.7,34.3,663.5z"/>
		<path class="st5" d="M88.1,663.5c-3.2-10.6-2.7-24,3.4-36.4c0,0-16.7,12.2-13,36.4H88.1z"/>
		<path class="st4" d="M32.1,663.5c-0.9-9.8-6.8-21.9-21.4-34.3c0,0,30.6,7.4,28,34.3H32.1z"/>
		<path class="st4" d="M89.5,663.5c1.7-8.9,7.5-19.5,19.7-29.3c0,0-28,4.1-28.3,29.3H89.5z"/>
		<path class="st4" d="M85.6,663.5c-13.9-18.6-6.9-38.2-6.9-38.2c-7.9,11.9-10.4,23.6-6,38.2H85.6z"/>
		<path class="st4" d="M62.6,663.5c-2.5-9.1-4-18,1-29.2c0,0-10.6,14.7-10.4,29.2H62.6z"/>
		<path class="st5" d="M74,663.5c-3.1-10.4-8.2-31.9-2.2-45.6c0,0-12,20.2-7.4,45.6H74z"/>
		<path class="st4" d="M68.3,663.5c-4.9-9.8-0.4-19.7,3.1-27c0,0-15.4,12.1-13,27H68.3z"/>
		<path class="st5" d="M63.7,663.5c-6.1-7.1-13.6-18.3-11.3-27.9c0,0-6.4,11.4-1.3,27.9H63.7z"/>
	</g>
	<g>
		<path class="st4" d="M949,714.1c5.2-13.7,8.6-29,3.3-38.4c0,0,0.5,21-15.9,38.4H949z"/>
		<path class="st4" d="M931.2,714.1h17C953.7,682.4,938,667,938,667C945.1,684.7,938.5,702,931.2,714.1z"/>
		<path class="st5" d="M931.6,714.1h10c12-23.8-13.4-36.3-13.4-36.3C939.2,692.4,939.6,705.4,931.6,714.1z"/>
		<path class="st5" d="M985.4,714.1c-3.2-10.6-2.7-24,3.4-36.4c0,0-16.7,12.2-13,36.4H985.4z"/>
		<path class="st4" d="M929.4,714.1c-0.9-9.8-6.8-21.9-21.4-34.3c0,0,30.6,7.4,28,34.3H929.4z"/>
		<path class="st4" d="M986.8,714.1c1.7-8.9,7.5-19.5,19.7-29.3c0,0-28,4.1-28.3,29.3H986.8z"/>
		<path class="st4" d="M982.9,714.1c-13.9-18.6-6.9-38.2-6.9-38.2c-7.9,11.9-10.4,23.6-6,38.2H982.9z"/>
		<path class="st4" d="M959.9,714.1c-2.5-9.1-4-18,1-29.2c0,0-10.6,14.7-10.4,29.2H959.9z"/>
		<path class="st5" d="M971.3,714.1c-3.1-10.4-8.2-31.9-2.2-45.6c0,0-12,20.2-7.4,45.6H971.3z"/>
		<path class="st4" d="M965.6,714.1c-4.9-9.8-0.4-19.7,3.1-27c0,0-15.4,12.1-13,27H965.6z"/>
		<path class="st5" d="M961,714.1c-6.1-7.1-13.6-18.3-11.3-27.9c0,0-6.4,11.4-1.3,27.9H961z"/>
	</g>
	<g>
		<g>
			<g>
				<path class="st6" d="M1253.1,725.9c6.7,1.9,13.8,3.5,20.8,2.3c12-1.9,21.4-10.2,29-19.3c-3.5-6.7-13.2-12.5-20.2-14.4
					c-8-2.3-14.8,2.4-22,5.7c-6.9,3.2-16.6,6-19.7,13.5c-1.3,3.2-1.5,5.9-0.9,8.4c0,0,0,0,0,0
					C1243.9,721.8,1249.5,724.9,1253.1,725.9z"/>
				<path class="st7" d="M1270.9,737.2c9.8,0.4,17.9-4.2,25.7-10.9c4.6-4,9.4-11.2,6.5-17c-0.1-0.1-0.1-0.2-0.2-0.3
					c-7.6,9.1-16.9,17.4-29,19.3c-7,1.1-14-0.4-20.8-2.3c-3.6-1-9.2-4.1-13.1-3.8c0,0,0,0,0,0
					C1242.9,733.4,1263.8,736.9,1270.9,737.2z"/>
			</g>
			<path class="st7" d="M1276.4,712.7c-2.3-1.4-4.5,0.7-6.4,1.6c-5.9,2.8-7.7-0.6-11.9-3.5c-0.9-0.7-1.8-1.1-3-1.1
				c-1.2,0-6,3.3-6,6.2c0.1,2.1,4.4,3.9,6.4,4.9c3.3,1.7,6.7,2.5,10.4,1.6c2.1-0.5,4-1.5,5.9-2.6c1.3-0.7,4-1.1,5.6-3.7
				C1278.2,714.9,1277.7,713.5,1276.4,712.7z"/>
			<path class="st8" d="M1285.4,699.6c-3.8-1.5-7.5-1.1-11.1,0c-3.4,1.1-8.8,1.9-9.6,4.4c-0.7,2.1,1.4,2.9,3.1,3.2
				c2.4,0.4,4.4-1.1,6.7-1.4c3-0.4,7.5,2,9.6,3.9c0.5,0.5,0.7,1.2,1.3,1.7c2.9,2.1,7.8,0.6,10.7-0.8c0.4-0.2,0.6-0.7,0.6-1.1
				C1297,704.6,1289.2,701.1,1285.4,699.6z"/>
		</g>
		<g>
			<g>
				<path class="st6" d="M482,761.3c6.9,3.1,16,5.9,23.5,3.8c4.7-1.3,8.8-4.2,12.8-6.8c2.4-1.5,12.5-7.9,15.8-7.6
					c1.1-0.2,2.2-0.3,3.3-0.3c-0.4-3.9-1.7-7.8-4.4-10.1c-2.9-2.4-7.4-2.6-10.8-3.4c-5.7-1.3-11.6-1.6-17-3.8
					c-6.5-2.6-17.7-9.3-27.6,1.5c-4.7,5.1-8.2,11.1-8.6,16.6c0.1,0.1,0.3,0.2,0.4,0.2C474.1,754.5,476.6,758.9,482,761.3z"/>
				<path class="st7" d="M471.6,759.9c5.5,6.8,15.2,13.1,23.9,14.6c9.3,1.6,19.7-2.5,28.6-5.1c6.4-1.8,11.4-4.6,13-11.5
					c0.5-2.2,0.7-4.8,0.4-7.5c-1.1,0-2.2,0.1-3.3,0.3c-3.3-0.3-13.4,6-15.8,7.6c-4,2.6-8.1,5.5-12.8,6.8c-7.5,2.1-16.5-0.7-23.5-3.8
					c-5.4-2.4-8-6.8-12.7-9.8c-0.1-0.1-0.3-0.2-0.4-0.2C468.7,754.4,469.5,757.3,471.6,759.9z"/>
			</g>
			<path class="st8" d="M530,741.8c-1.1-2.4-7.3-1.1-11.4-1.3c-6.8-0.3-9.6-5.2-16.3-5.2c-4.5,0-6.6,1.1-4.5,2.6
				c2.4,1.7,3.6,3.7,5.9,5.3c2.1,1.5,3.1,2.6,4.5,4.7c0.3,0.4,0.3,1,0.6,1.4c3.1,3.6,10.6-1.2,13.9-2.5
				C524.1,746.3,531.4,744.9,530,741.8z"/>
			<path class="st7" d="M514.7,754c-0.5-0.9-4,0.4-4.8-0.5c-2.7-3.7-3.4-4.3-6.7-6.1c-4.8-2.6-9.7-6.6-8.6-4.4
				c1.5,3.1,7.7,6.8,7,11.9c-0.7,5-1.9,6.4,2.8,4.9C509.1,758.2,516.8,757.5,514.7,754z"/>
			<path class="st7" d="M484.1,756c-1.1,0.1-1.5,2.9,3.3,3.1c4.8,0.3,7.7,0,8.9-1.9c1.2-1.9,3.1-4.9,0.9-4.4c-2.2,0.5-2.3,2.6-5,3.1
				C489.4,756.6,488.1,755.5,484.1,756z"/>
			<path class="st8" d="M485.8,734.2c-1,0.3-1.9,1.1-2.6,1.9c-1.5,1.8-2.3,2.8-4.2,4.2c-0.9,0.7-1.7,1.3-2.3,2.3
				c-1.8,3.7,2.6,8,5.6,4.5c0.5-0.6,0.7-1.7,1-2.3c0.5-0.8,1.2-1.4,1.9-1.9c1-0.7,2.1-1.2,3.1-1.8c1.6-1,3.6-2.2,4.1-4.1
				C493.6,733.5,488.4,732.6,485.8,734.2z"/>
		</g>
		<g>
			<g>
				<path class="st6" d="M639.6,825.8c9.2-1.1,16.2-7.5,24.5-10.2c-0.8-2.2-2.4-4.2-4.2-5.7c-4.6-3.9-9.5-3.1-14.6-4
					c-6.7-1-14.9-0.5-20.5,1.8c-2.3,0.9-5.8,2.3-7.4,4.6c2.1,1.4,4.2,3,6,4.8C628.2,822.2,631.6,826.8,639.6,825.8z"/>
				<path class="st7" d="M616.4,816.1c0.9,5,8.4,12.1,12.6,14.5c5.3,3,11.5,3.2,17.3,1.6c5.3-1.4,15-4.9,17.6-10.1
					c1.1-2.2,1-4.4,0.2-6.4c-8.3,2.7-15.2,9.1-24.5,10.2c-8,0.9-11.4-3.7-16.3-8.5c-1.8-1.8-3.9-3.4-6-4.8
					C616.6,813.5,616.1,814.7,616.4,816.1z"/>
			</g>
			<path class="st8" d="M637.3,807.5c-1.8,0-11.7,0.6-11,4.2c0.9,4.7,14.1,1.4,16.1,1.3c3,0,19.6,4.1,15.8-0.5
				C654.7,808.3,642.9,807.5,637.3,807.5z"/>
		</g>
		<g>
			<path class="st9" d="M1221.9,753c3.8,2.1,9.9,3.3,14.3,3c7.4-0.6,15-3.4,19.1-9.5c-1.3-1.6-3.3-3.3-5.2-5.2
				c-7.5-7.6-21.6-5.9-30.2-3.4c-1.3,0.4-2.4,0.8-3.4,1.4C1214.8,745.2,1215.9,749.7,1221.9,753z"/>
			<path class="st10" d="M1215.5,755.1c8.7,7.1,19.9,7.7,26.3,6c5.8-1.6,11-3.8,13.3-6.5c2.7-3.2,2.1-5.6,0.1-8.1
				c-4,6.1-11.6,8.9-19.1,9.5c-4.4,0.3-10.5-0.9-14.3-3c-6-3.3-7.1-7.8-5.4-13.9C1208.4,743.3,1210.5,751,1215.5,755.1z"/>
			<path class="st11" d="M1228.2,739.9c-4.6,1-11,4.5-5.5,9.3c5.2,4.6,15.3,4.9,21.6,3.1c2.4-0.7,5.1-2.2,5-5
				C1249.1,744.1,1235.9,738.2,1228.2,739.9z"/>
			<path class="st12" d="M1242.6,747.9c-0.7-1.6-5.9-1.5-7.3-1.6c-2.4-0.2-4.9-0.6-7.3-0.6c-1.6,0-3.2,1.1-1.9,2.8
				c0.9,1.1,2.8,1.5,4.1,1.9c2.1,0.6,4.2,0.9,6.3,1C1239.2,751.4,1243.9,750.7,1242.6,747.9z"/>
		</g>
	</g>
	<g>
		<path class="st4" d="M866.7,827.9c5.2-13.7,8.6-29,3.3-38.4c0,0,0.5,21-15.9,38.4H866.7z"/>
		<path class="st4" d="M848.9,827.9h17c5.5-31.7-10.1-47.2-10.1-47.2C862.8,798.5,856.2,815.8,848.9,827.9z"/>
		<path class="st5" d="M849.3,827.9h10c12-23.8-13.4-36.3-13.4-36.3C856.9,806.2,857.4,819.2,849.3,827.9z"/>
		<path class="st5" d="M903.1,827.9c-3.2-10.6-2.7-24,3.4-36.4c0,0-16.7,12.2-13,36.4H903.1z"/>
		<path class="st4" d="M847.1,827.9c-0.9-9.8-6.8-21.9-21.4-34.3c0,0,30.6,7.4,28,34.3H847.1z"/>
		<path class="st4" d="M904.5,827.9c1.7-8.9,7.5-19.5,19.7-29.3c0,0-28,4.1-28.3,29.3H904.5z"/>
		<path class="st4" d="M900.6,827.9c-13.9-18.6-6.9-38.2-6.9-38.2c-7.9,11.9-10.4,23.6-6,38.2H900.6z"/>
		<path class="st4" d="M877.7,827.9c-2.5-9.1-4-18,1-29.2c0,0-10.6,14.7-10.4,29.2H877.7z"/>
		<path class="st5" d="M889,827.9c-3.1-10.4-8.2-31.9-2.2-45.6c0,0-12,20.2-7.4,45.6H889z"/>
		<path class="st4" d="M883.3,827.9c-4.9-9.8-0.4-19.7,3.1-27c0,0-15.4,12.1-13,27H883.3z"/>
		<path class="st5" d="M878.7,827.9c-6.1-7.1-13.6-18.3-11.3-27.9c0,0-6.4,11.4-1.3,27.9H878.7z"/>
	</g>
	<g>
		<path class="st4" d="M449.4,790.3c5.2-13.7,8.6-29,3.3-38.4c0,0,0.5,21-15.9,38.4H449.4z"/>
		<path class="st4" d="M431.5,790.3h17c5.5-31.7-10.1-47.2-10.1-47.2C445.4,760.8,438.8,778.1,431.5,790.3z"/>
		<path class="st5" d="M431.9,790.3h10c12-23.8-13.4-36.3-13.4-36.3C439.6,768.5,440,781.5,431.9,790.3z"/>
		<path class="st5" d="M485.8,790.3c-3.2-10.6-2.7-24,3.4-36.4c0,0-16.7,12.2-13,36.4H485.8z"/>
		<path class="st4" d="M429.8,790.3c-0.9-9.8-6.8-21.9-21.4-34.3c0,0,30.6,7.4,28,34.3H429.8z"/>
		<path class="st4" d="M487.1,790.3c1.7-8.9,7.5-19.5,19.7-29.3c0,0-28,4.1-28.3,29.3H487.1z"/>
		<path class="st4" d="M483.2,790.3c-13.9-18.6-6.9-38.2-6.9-38.2c-7.9,11.9-10.4,23.6-6,38.2H483.2z"/>
		<path class="st4" d="M460.3,790.3c-2.5-9.1-4-18,1-29.2c0,0-10.6,14.7-10.4,29.2H460.3z"/>
		<path class="st5" d="M471.6,790.3c-3.1-10.4-8.2-31.9-2.2-45.6c0,0-12,20.2-7.4,45.6H471.6z"/>
		<path class="st4" d="M466,790.3c-4.9-9.8-0.4-19.7,3.1-27c0,0-15.4,12.1-13,27H466z"/>
		<path class="st5" d="M461.4,790.3c-6.1-7.1-13.6-18.3-11.3-27.9c0,0-6.4,11.4-1.3,27.9H461.4z"/>
	</g>
	<g>
		<path class="st4" d="M1220.1,829.8c5.2-13.7,8.6-29,3.3-38.4c0,0,0.5,21-15.9,38.4H1220.1z"/>
		<path class="st4" d="M1202.3,829.8h17c5.5-31.7-10.1-47.2-10.1-47.2C1216.1,800.3,1209.6,817.6,1202.3,829.8z"/>
		<path class="st5" d="M1202.7,829.8h10c12-23.8-13.4-36.3-13.4-36.3C1210.3,808,1210.7,821,1202.7,829.8z"/>
		<path class="st5" d="M1256.5,829.8c-3.2-10.6-2.7-24,3.4-36.4c0,0-16.7,12.2-13,36.4H1256.5z"/>
		<path class="st4" d="M1200.5,829.8c-0.9-9.8-6.8-21.9-21.4-34.3c0,0,30.6,7.4,28,34.3H1200.5z"/>
		<path class="st4" d="M1257.9,829.8c1.7-8.9,7.5-19.5,19.7-29.3c0,0-28,4.1-28.3,29.3H1257.9z"/>
		<path class="st4" d="M1253.9,829.8c-13.9-18.6-6.9-38.2-6.9-38.2c-7.9,11.9-10.4,23.6-6,38.2H1253.9z"/>
		<path class="st4" d="M1231,829.8c-2.5-9.1-4-18,1-29.2c0,0-10.6,14.7-10.4,29.2H1231z"/>
		<path class="st5" d="M1242.3,829.8c-3.1-10.4-8.2-31.9-2.2-45.6c0,0-12,20.2-7.4,45.6H1242.3z"/>
		<path class="st4" d="M1236.7,829.8c-4.9-9.8-0.4-19.7,3.1-27c0,0-15.4,12.1-13,27H1236.7z"/>
		<path class="st5" d="M1232.1,829.8c-6.1-7.1-13.6-18.3-11.3-27.9c0,0-6.4,11.4-1.3,27.9H1232.1z"/>
	</g>
	<g>
		<path class="st4" d="M161.9,853.1c5.2-13.7,8.6-29,3.3-38.4c0,0,0.5,21-15.9,38.4H161.9z"/>
		<path class="st4" d="M144.1,853.1h17c5.5-31.7-10.1-47.2-10.1-47.2C157.9,823.6,151.3,840.9,144.1,853.1z"/>
		<path class="st5" d="M144.5,853.1h10c12-23.8-13.4-36.3-13.4-36.3C152.1,831.3,152.5,844.3,144.5,853.1z"/>
		<path class="st5" d="M198.3,853.1c-3.2-10.6-2.7-24,3.4-36.4c0,0-16.7,12.2-13,36.4H198.3z"/>
		<path class="st4" d="M142.3,853.1c-0.9-9.8-6.8-21.9-21.4-34.3c0,0,30.6,7.4,28,34.3H142.3z"/>
		<path class="st4" d="M199.7,853.1c1.7-8.9,7.5-19.5,19.7-29.3c0,0-28,4.1-28.3,29.3H199.7z"/>
		<path class="st4" d="M195.7,853.1c-13.9-18.6-6.9-38.2-6.9-38.2c-7.9,11.9-10.4,23.6-6,38.2H195.7z"/>
		<path class="st4" d="M172.8,853.1c-2.5-9.1-4-18,1-29.2c0,0-10.6,14.7-10.4,29.2H172.8z"/>
		<path class="st5" d="M184.1,853.1c-3.1-10.4-8.2-31.9-2.2-45.6c0,0-12,20.2-7.4,45.6H184.1z"/>
		<path class="st4" d="M178.5,853.1c-4.9-9.8-0.4-19.7,3.1-27c0,0-15.4,12.1-13,27H178.5z"/>
		<path class="st5" d="M173.9,853.1c-6.1-7.1-13.6-18.3-11.3-27.9c0,0-6.4,11.4-1.3,27.9H173.9z"/>
	</g>
</g>
</svg>
