<?xml version="1.0" encoding="utf-8"?>
<!-- Generator: Adobe Illustrator 24.0.2, SVG Export Plug-In . SVG Version: 6.00 Build 0)  -->
<svg version="1.1" id="Layer_1" xmlns="http://www.w3.org/2000/svg" xmlns:xlink="http://www.w3.org/1999/xlink" x="0px" y="0px"
	 viewBox="0 0 450 524" style="enable-background:new 0 0 450 524;" height="524" width="450" xml:space="preserve">
<style type="text/css">
	.st0{fill:#00A7BD;}
	.st1{opacity:0.5;fill:#00AEC7;}
	.st2{opacity:0.55;fill:#00AEC7;}
	.st3{fill:#00AEC7;}
	.st4{fill:#017F91;}
	.st5{fill:#015F70;}
	.st6{fill:#D7D6D6;}
	.st7{opacity:0.32;fill:#989898;}
	.st8{fill:#EE2B2D;}
	.st9{opacity:0.5;fill:#A6926C;}
	.st10{fill:#CACACA;}
	.st11{fill:#484848;}
	.st12{fill:#F9A04B;}
	.st13{opacity:0.55;fill:#F9A04B;}
	.st14{opacity:0.55;fill:#F0932D;}
	.st15{fill:#F7943B;}
	.st16{opacity:0.55;fill:#D1943A;}
	.st17{fill:url(#SVGID_1_);}
	.st18{fill:url(#SVGID_2_);}
	.st19{opacity:0.75;fill:#68C0D6;}
	.st20{opacity:0.75;fill:#98D4E3;}
	.st21{fill:url(#SVGID_3_);}
	.st22{fill:url(#SVGID_4_);}
	.st23{fill:url(#SVGID_5_);}
	.st24{opacity:0.55;fill:url(#SVGID_6_);}
	.st25{fill:url(#SVGID_7_);}
	.st26{fill:url(#SVGID_8_);}
	.st27{fill:url(#SVGID_9_);}
	.st28{fill:url(#SVGID_10_);}
	.st29{fill:url(#SVGID_11_);}
	.st30{opacity:0.32;fill:url(#SVGID_12_);}
	.st31{opacity:0.75;fill:url(#SVGID_13_);}
	.st32{opacity:0.55;fill:#687A87;}
	.st33{opacity:0.75;fill:#24A4C4;}
	.st34{fill:url(#SVGID_14_);}
	.st35{fill:url(#SVGID_15_);}
	.st36{fill:url(#SVGID_16_);}
	.st37{opacity:0.75;fill:url(#SVGID_17_);}
	.st38{fill:url(#SVGID_18_);}
	.st39{fill:#C0C8CD;}
	.st40{fill:url(#SVGID_19_);}
	.st41{opacity:0.75;fill:url(#SVGID_20_);}
	.st42{opacity:0.32;fill:url(#SVGID_21_);}
	.st43{opacity:0.32;fill:url(#SVGID_22_);}
	.st44{opacity:0.32;fill:url(#SVGID_23_);}
	.st45{opacity:0.32;fill:#687A87;}
	.st46{fill:url(#SVGID_24_);}
	.st47{opacity:0.75;fill:#C0C8CD;}
	.st48{fill:url(#SVGID_25_);}
	.st49{fill:url(#SVGID_26_);}
	.st50{fill:url(#SVGID_27_);}
	.st51{fill:url(#SVGID_28_);}
	.st52{fill:url(#SVGID_29_);}
	.st53{fill:url(#SVGID_30_);}
	.st54{fill:url(#SVGID_31_);}
	.st55{fill:url(#SVGID_32_);}
	.st56{fill:url(#SVGID_33_);}
	.st57{fill:url(#SVGID_34_);}
	.st58{fill:url(#SVGID_35_);}
</style>
<g>
	<path class="st0" d="M35,385c0,0-42.8,13.7-29.1,29.1c13.7,15.4,145.4,49.6,260.9,35.1c115.5-14.5,183.9-35.9,177.1-47.9
		c-6.8-12-37.5-10.1-128.9-6.8C223.6,397.6,35,385,35,385z"/>
	<path class="st1" d="M398,425.5c-18.9,5-43.2,10.2-72.1,14.9c3.1-4.3,6.1-8.7,8.4-13.4c5.3-10.7,7.1-19.9,6.9-31.7
		c24.3-0.9,43.2-1.5,57.8-1.6C399.2,404.3,398.5,414.9,398,425.5z"/>
	<path class="st2" d="M237.9,436.1c-103.9,7.2-203.1-24-231-36c7-7.3,21.6-12.9,26.5-14.6c38.6,2.5,201.9,12.3,286.4,9.4
		c45.7-1.6,77-2.9,98-2.5c4.4,0.3,8.2,0.7,11.5,1.3C420.5,399.2,368.9,427,237.9,436.1z"/>
	<path class="st3" d="M29.1,366.1c0,0-31.6,12.2-24.3,20.3c7.3,8.1,87.7,42.1,232.2,35.3c144.5-6.8,229.6-35,200.1-50.2
		c-37.1-19.1-131.2,16.7-235.1,17.8C110.7,390.2,29.1,366.1,29.1,366.1z"/>
	<path class="st1" d="M354.5,373.5c21.9-3.5,41.1-6,56.4-5.4c-2.5,4.8-4.6,9.7-5.8,14.9c-1.4,5.7-1.9,11.2-2.1,16.7
		c-15.8,4.4-36.3,8.5-60.6,12C347.8,399.5,353.3,386.6,354.5,373.5z"/>
	<path class="st2" d="M405.5,383.4c-19.4,5.1-38.7,10.8-58.2,15.3c-40.8,9.5-88.8,8.6-130.7,9.2c-39.8,0.6-147.4,3.8-204.4-33.6
		c7.4-4.7,16.9-8.3,16.9-8.3s81.6,24.1,172.9,23.2c91.8-1,175.9-29,219.9-22.4C426.5,372.6,413.9,381.2,405.5,383.4z"/>
	<path class="st3" d="M23.7,344.9c0,0-20.3,2.7-15.8,11.7c4.5,9,32,40,156.7,44.1c136.3,4.5,275.7-18.9,257.7-48.2
		C404.3,323.2,111.9,331.4,23.7,344.9z"/>
	<path class="st1" d="M356.6,363.7c2.5-7.6,4.8-15,5.9-22.8c22.9,2.2,40.5,5.4,49.7,9.9c-0.5,7.1-1.2,14.3-1.7,21.4
		c-14.1,7.2-31.1,12-57.6,16.8C353.7,380.1,353.7,372.3,356.6,363.7z"/>
	<path class="st2" d="M13.6,347.6c4.6-2,10.1-2.7,10.1-2.7c82.6-12.6,344.1-20.6,391.9,2.5c-9,3.9-17.5,9-26.3,13.4
		c-16.4,8.3-33.6,13.4-51.7,16.5c-39.5,6.7-81.3,10.6-121.3,10.8c-42.5,0.2-84.5-7-126.8-10C51,375.4,22,355.5,13.6,347.6z"/>
	<path class="st3" d="M221.3,379.4c0,0-100.8-1.3-154.8-13.5c-54-12.2-75.6-43.7,3.1-54.5c78.8-10.8,285-24.9,341.7,17
		C468,370.4,229.8,379.6,221.3,379.4z"/>
	<path class="st2" d="M411.3,328.4c2.9,2.1,5,4.1,6.4,6.1c-0.2,0.9-0.3,1.9-0.3,2.9c0,1.9,0,3.7-0.2,5.5c0,0.4-0.1,1-0.3,1.5
		c-0.3,1.2-0.6,2.4-1.1,3.6c0,0.1-0.1,0.2-0.1,0.3c0,0.1-0.1,0.2-0.1,0.3c0,0.1-0.1,0.1-0.1,0.2c-8.1,6.9-26.4,12.4-48.7,16.7
		c0.1-0.5,0.2-0.9,0.2-1.4c1.8-12.6,2.7-26.9-4.7-38c-9.9-15-28.4-14.9-44.5-16.9c-19.5-2.3-38.3-3.5-58.1-2.5
		c-9.5,0.5-18.7,1-28-1.7c-6.1-1.8-12.2-3.4-18.4-4.5C293.6,298.6,378.1,303.9,411.3,328.4z"/>
	<path class="st4" d="M215.5,361.8c0,0-84.9-0.8-130.4-8.2c-45.5-7.4-63.7-26.7,2.7-33.3c66.4-6.6,240.1-15.2,287.9,10.4
		C423.4,356.2,222.7,361.9,215.5,361.8z"/>
	<path class="st5" d="M375.6,344.1c0.3,0.1,0.5,0.3,0.8,0.4c-30.3,13.9-155.3,17.3-160.9,17.2c0,0-84.9-0.8-130.4-8.2
		c-16.1-2.6-28.8-6.8-35.5-11.3c6.3-3.5,18.5-6.6,38.2-8.6C154.1,327.1,327.9,318.4,375.6,344.1z"/>
	<path class="st3" d="M211.8,477.8c35.8,4,50.6,3,66.1-0.1c24.5-4.9,43-15.3,58.4-38.6c14.1-21.4,43.3-83.9,50.5-111
		c0,0,0-0.1,0-0.1c1.4-5.1-1.7-9.9-6.5-12.2c-8.8-4.1-21.8-7.1-43.3-9.6c-25.2-3-64.2-4.8-117.9-4.6c0,0,52.2-26.6,153.5-15.2l0,0
		c59.5,8.2,50.5,43,22.2,97.2c-28.3,54.2-34.4,89-86.1,109.7c-36.1,14.5-64.8,13.8-101.1,5.5C207.5,498.8,208.8,486.8,211.8,477.8z"
		/>
	<g>
		<path class="st6" d="M207.8,498.8l-26.2-7.9l8.5-23.3l26,10.7C217.8,482.5,215.3,490.9,207.8,498.8z"/>
		<path class="st7" d="M201.2,487.3c-1.6,2.7-3.2,5.4-4.9,8l-14.7-4.4l8.5-23.3l17.4,7.2C207.2,476,202.7,484.8,201.2,487.3z"/>
		<path class="st8" d="M124,439.1c0,0,37.6,10.1,44.9,12.3c7.2,2.2,24.6,12.6,24.8,21.8c0.2,9.2-4.5,15.9-5.2,17.2
			c-0.7,1.3-20.1,5.1-32,1.4c-12-3.6-51.8-17.1-51.8-17.1L124,439.1z"/>
		<path class="st9" d="M181.4,457.8c6.3,4.3,12.2,10,12.3,15.4c0.2,9.2-4.5,15.9-5.2,17.2c-0.6,1.1-14.1,3.9-25.6,2.7
			C170.8,482.4,176.7,470.6,181.4,457.8z"/>
		<path class="st9" d="M132.3,464.7c-3.7,5-7.4,10.2-10.8,15.7c-9.4-3.1-16.8-5.6-16.8-5.6l19.4-35.6c0,0,11.7,3.1,23.3,6.3
			C141.8,451.4,137,458.4,132.3,464.7z"/>
		<polygon class="st10" points="85,492.2 62.6,518.3 50.6,510.7 67.1,482.3 		"/>
		<path class="st7" d="M62.6,500.3c-2-0.6-3.8-0.7-5.6-0.5l10.1-17.4l17.8,9.9l-14,16.4C70,504.9,67.4,501.7,62.6,500.3z"/>
		<path class="st11" d="M62.6,518.3c0,0-0.8-9.4-11.9-7.6C50.6,510.7,52.1,521.8,62.6,518.3z"/>
		<path class="st12" d="M134.2,435.8c0,0-11-24.8-39-22.8l-30.8,55.7l-3.5,20.8L79.3,502l18.2-11.2L134.2,435.8z"/>
		<path class="st13" d="M80.4,467.9c-1.8-0.8-2.5-1-4.8-1.7c2.8-6,5.6-12,8.5-17.9c4.9-10.1,10.1-20.4,14.7-30.8
			c3.1,0.8,6.1,1.8,9,3L80.4,467.9z"/>
		<path class="st14" d="M88.5,473.5c4.6-4.9,8.2-10.8,11.3-16.8c5.8-11.2,11.5-22.7,15.9-34.5c10.1,6.2,14.4,15.8,14.4,15.8
			L98.7,485C96.3,480.4,92.5,476.7,88.5,473.5z"/>
		<path class="st6" d="M85.5,475.8c6,4.7,8.7,8.5,11.2,15.5L79.3,502l-18.5-12.6l3.5-20.8C64.3,468.6,75.9,468.4,85.5,475.8z"/>
		<path class="st7" d="M86.3,476.5c5.4,4.4,7.9,8.2,10.3,14.8L79.3,502l-5.3-3.6C79.8,492.2,83.7,484.7,86.3,476.5z"/>
	</g>
	<g>
		<path class="st15" d="M242.3,14.1c0,0,6.3-12,13.3-5.6c7.1,6.4,1,34-5.9,30c-6.8-4-3.6-9.5-9.9-9.3c-6.3,0.2-11.7,5.8-29.2,6.1
			c-17.5,0.3-18.6-6.4-24.8-5.6c-6.3,0.8-6.1,10.3-13.5,8.5c-2.9-0.7-3.9-5.2-4.4-7.6c-0.9-4.4-0.9-9.1-0.1-13.6
			c0.7-3.6,1.9-8.3,5.4-9.9c6.7-3.1,10.2,4.1,10.8,5.3c1.3,2.6,6.1-3.5,14.9-4.8c8.8-1.3,22.3-0.4,31.7,3
			C237.3,13,240,17.6,242.3,14.1z"/>
		<path class="st16" d="M172.1,11.9c2.1-2,5.8,0.4,7.6,2.6c1.6,2.1,3.5,3.9,5.4,4.5c8.3,2.9,16.7,5.1,25.6,4.8
			c8.9-0.3,18.1-1.1,26.9-2.3c8.1-1.1,8-14.7,15.3-12.1c8.4,3,2.5,29.5-3.1,26.4c-4.8-2.6-3.1-10.1-10.7-8.6
			c-5.9,1.2-11.3,5.1-28.3,5.4c-16.9,0.3-18-5.2-24.1-5c-7.8,0.3-7.7,8-13.1,7.6C168.9,34.9,167.3,16.4,172.1,11.9z"/>
		
			<linearGradient id="SVGID_1_" gradientUnits="userSpaceOnUse" x1="106.044" y1="88.5662" x2="199.9447" y2="88.5662" gradientTransform="matrix(-1 0 0 1 450 0)">
			<stop  offset="0.4973" style="stop-color:#C0C8CD"/>
			<stop  offset="1" style="stop-color:#86969F"/>
		</linearGradient>
		<path class="st17" d="M252.9,17.2c4-0.5,10.3,0.1,14.1,5.8c6,9.1,11.3,19.2,38,22.6c26.7,3.4,37.7,21.2,38.7,39.2
			c1,18-0.6,24.5-8.3,41.4c-7.7,16.8-8.1,25.8-5.5,27.1l-3.8,6.9c0,0-12.7-4.8,2.1-36.5c14.7-31.7,5.6-56.1-7.5-63
			c-13.1-6.9-28.4-5.4-41.4-12.7c-17.2-9.7-18.3-23.2-26.4-21.1C249.3,27.7,248.9,17.7,252.9,17.2z"/>
		
			<linearGradient id="SVGID_2_" gradientUnits="userSpaceOnUse" x1="106.0409" y1="151.6316" x2="201.0405" y2="151.6316" gradientTransform="matrix(-1 0 0 1 450 0)">
			<stop  offset="0.4973" style="stop-color:#C0C8CD"/>
			<stop  offset="1" style="stop-color:#86969F"/>
		</linearGradient>
		<path class="st18" d="M329.4,143.1c-1.3,6-0.9,9.4,0.6,10.1l-3.8,6.9c0,0-5.3-2.1-5-12.2C323.4,145.6,326.2,144.1,329.4,143.1z"/>
		<path class="st19" d="M292.9,49.5c0.9-1.8,1.8-3.7,2.6-5.5c2.8,0.7,6,1.2,9.5,1.7c15.7,2,25.9,9,31.9,18c-1.4,1.5-2.8,3-4.1,4.6
			C322.9,56.7,308.5,50,292.9,49.5z"/>
		<path class="st20" d="M334.4,119.8c-1.6,3.3-2.7,6.6-3.4,10c-1.5-0.7-3-1.5-4.4-2.3c0.5-1.3,1-2.5,1.7-3.9
			c3.9-8.3,6.1-16.1,7-23.2c1.8,0.4,3.5,0.6,5.3,0.9C340,107.7,337.2,114,334.4,119.8z"/>
		
			<linearGradient id="SVGID_3_" gradientUnits="userSpaceOnUse" x1="210.0364" y1="146.2182" x2="235.3349" y2="146.2182" gradientTransform="matrix(1 0 0 1 -143.8945 0)">
			<stop  offset="0.4973" style="stop-color:#C0C8CD"/>
			<stop  offset="1" style="stop-color:#86969F"/>
		</linearGradient>
		<path class="st21" d="M88.6,159.6c0,0-23.3,1.7-22.5-15.8c0.4-8.1,4.7-10.7,8.2-11c4.1-0.3,8,2.8,6.6,6.3c-2.2,5.1-7,1.3-7,1.3
			s-2.7,6.8,3.6,10.3c2.3,1.3,6.9,1.8,11.8,1.8c0,0,1.8,0.7,2,2.5C91.6,156.4,91,158.8,88.6,159.6z"/>
		
			<linearGradient id="SVGID_4_" gradientUnits="userSpaceOnUse" x1="210.0392" y1="155.1352" x2="235.3349" y2="155.1352" gradientTransform="matrix(1 0 0 1 -143.8945 0)">
			<stop  offset="0.4973" style="stop-color:#C0C8CD"/>
			<stop  offset="1" style="stop-color:#86969F"/>
		</linearGradient>
		<path class="st22" d="M76.5,152.3c0.3-0.6,0.6-1.1,0.9-1.7c0.1,0,0.1,0.1,0.2,0.1c2.3,1.3,6.9,1.8,11.8,1.8c0,0,1.8,0.7,2,2.5
			c0.2,1.3-0.4,3.7-2.8,4.4c0,0-8.6,0.6-15.1-2.8C74.5,155.3,75.7,153.9,76.5,152.3z"/>
		
			<linearGradient id="SVGID_5_" gradientUnits="userSpaceOnUse" x1="371.1796" y1="160.1178" x2="401.0288" y2="160.1178" gradientTransform="matrix(1 0 0 1 -53.209 0)">
			<stop  offset="0.4973" style="stop-color:#C0C8CD"/>
			<stop  offset="1" style="stop-color:#86969F"/>
		</linearGradient>
		<path class="st23" d="M344.1,145.6c-11.5-5-26.2,20-26.2,20c8.7,16.4,18.7,7,18.7,7C336.4,160.2,355.7,150.7,344.1,145.6z
			 M334,161.2c-2.2,0-3.9-1.6-3.9-3.5s1.7-3.5,3.9-3.5s3.9,1.6,3.9,3.5S336.1,161.2,334,161.2z"/>
		
			<linearGradient id="SVGID_6_" gradientUnits="userSpaceOnUse" x1="117.2519" y1="176.9734" x2="119.8966" y2="160.9846" gradientTransform="matrix(-1 0 0 1 450 0)">
			<stop  offset="0.4973" style="stop-color:#C0C8CD"/>
			<stop  offset="1" style="stop-color:#86969F"/>
		</linearGradient>
		<path class="st24" d="M330.4,159.2c0.6,1.2,2,2.1,3.6,2.1c0.6,0,1.1-0.1,1.5-0.3c0.4,3.1,0.8,6.3,1.4,9.3
			c-0.1,0.8-0.3,1.6-0.3,2.4c0,0-4.3,4-9.7,2.1C327,170.1,327,163,330.4,159.2z"/>
		
			<linearGradient id="SVGID_7_" gradientUnits="userSpaceOnUse" x1="345.1239" y1="158.3519" x2="373.9186" y2="158.3519" gradientTransform="matrix(-1 0 0 1 450 0)">
			<stop  offset="0.4973" style="stop-color:#C0C8CD"/>
			<stop  offset="1" style="stop-color:#86969F"/>
		</linearGradient>
		<path class="st25" d="M87.2,170.7c0,0,9,9.8,17.6-6.6c0,0-13.6-25.5-25.1-20.4C68.2,148.8,87.5,158.3,87.2,170.7z M86,155.9
			c0-1.9,1.7-3.5,3.9-3.5s3.9,1.6,3.9,3.5c0,1.9-1.8,3.5-3.9,3.5S86,157.8,86,155.9z"/>
		
			<linearGradient id="SVGID_8_" gradientUnits="userSpaceOnUse" x1="238.1728" y1="185.2752" x2="209.1137" y2="438.3946" gradientTransform="matrix(-1 0 0 1 450 0)">
			<stop  offset="0" style="stop-color:#D2E0E6"/>
			<stop  offset="0.5027" style="stop-color:#E2E4E2"/>
			<stop  offset="1" style="stop-color:#CCD7DF"/>
		</linearGradient>
		<path class="st26" d="M282.6,359.9c-23.9,1.3-47.9,3.7-71.8,3.6c-13.3-0.1-26.1-0.5-38.9-0.6c-14.6-1.6-29.2-3.4-43.8-4.5
			c-4.6-57.7-14.3-138-34.7-181.8h234.8c0,0-27.5,107.4-40.4,182.7C286.1,359.4,284.3,359.6,282.6,359.9z"/>
		
			<linearGradient id="SVGID_9_" gradientUnits="userSpaceOnUse" x1="238.1728" y1="185.2752" x2="209.1137" y2="438.3946" gradientTransform="matrix(-1 0 0 1 450 0)">
			<stop  offset="0" style="stop-color:#D2E0E6"/>
			<stop  offset="0.5027" style="stop-color:#E2E4E2"/>
			<stop  offset="1" style="stop-color:#CCD7DF"/>
		</linearGradient>
		<path class="st27" d="M282.6,359.9c-23.9,1.3-47.9,3.7-71.8,3.6c-13.2-0.1-26-0.5-38.8-0.6c-15.5-1.7-31-3.6-46.6-4.8
			c-6-54.7-16.5-130.5-32-181.6h234.8c0,0-27.5,107.4-40.4,182.7C286.1,359.4,284.3,359.6,282.6,359.9z"/>
		
			<linearGradient id="SVGID_10_" gradientUnits="userSpaceOnUse" x1="231.3523" y1="184.4913" x2="202.3073" y2="437.4885" gradientTransform="matrix(-1 0 0 1 450 0)">
			<stop  offset="9.625670e-02" style="stop-color:#48616E"/>
			<stop  offset="0.4973" style="stop-color:#84959D"/>
			<stop  offset="1" style="stop-color:#86969F"/>
		</linearGradient>
		<path class="st28" d="M228.9,210.2c-0.6,12.8-1.4,28.3-2.2,45.1c-2.4,0-4.9,0.1-7.3,0.1c0.6-16.8,1.2-32.2,1.8-44.8
			C223.8,210.4,226.4,210.3,228.9,210.2z"/>
		
			<linearGradient id="SVGID_11_" gradientUnits="userSpaceOnUse" x1="244.0149" y1="185.9417" x2="214.9689" y2="438.9471" gradientTransform="matrix(-1 0 0 1 450 0)">
			<stop  offset="9.625670e-02" style="stop-color:#48616E"/>
			<stop  offset="0.4973" style="stop-color:#84959D"/>
			<stop  offset="1" style="stop-color:#86969F"/>
		</linearGradient>
		<path class="st29" d="M215.4,363.4c1.1-30.6,2.4-65.4,3.6-96.7c2.4,0,4.8-0.1,7.2-0.1c-1.5,31.4-3.1,66.2-4.6,96.8
			C219.5,363.4,217.5,363.4,215.4,363.4z"/>
		
			<linearGradient id="SVGID_12_" gradientUnits="userSpaceOnUse" x1="191.447" y1="179.9109" x2="162.388" y2="433.0292" gradientTransform="matrix(-1 0 0 1 450 0)">
			<stop  offset="9.625670e-02" style="stop-color:#48616E"/>
			<stop  offset="0.4973" style="stop-color:#84959D"/>
			<stop  offset="1" style="stop-color:#86969F"/>
		</linearGradient>
		<path class="st30" d="M273.4,360.4c-13.8,0.9-27.7,2-41.5,2.6c7-73.9,16.6-175.4,18.4-186.5h55.5c-2.6,17-7,33.8-9.6,51
			C293.9,242,282.6,307.4,273.4,360.4z"/>
		
			<linearGradient id="SVGID_13_" gradientUnits="userSpaceOnUse" x1="175.9821" y1="374.6942" x2="165.0827" y2="176.5794" gradientTransform="matrix(-1 0 0 1 450 0)">
			<stop  offset="9.625670e-02" style="stop-color:#A6CAD4"/>
			<stop  offset="0.9251" style="stop-color:#84959D"/>
		</linearGradient>
		<path class="st31" d="M253.8,361.7c11.5-76.6,26.8-176.6,27.8-185.2h24.2c-1.7,10.9-19.5,112.2-32.2,183.9
			C267,360.8,260.4,361.3,253.8,361.7z"/>
		<path class="st32" d="M277.7,203.4c-21.7,2.2-43.7,2.4-65.4,2.1c-39.4-0.4-77.6-7.2-115.4-17.2c-1.1-4.1-2.2-8-3.4-11.8h234.8
			c0,0-1.5,6-4,16.1C309,197.4,293.6,201.7,277.7,203.4z"/>
		<path class="st33" d="M312.2,199.1c-2.7,11.6-5.9,26.3-9.5,44c-1.4,0.5-2.8,1-4.2,1.5c2.8-15,5.8-29.9,8.9-44.3
			C309,199.9,310.6,199.5,312.2,199.1z"/>
		<path class="st33" d="M282.6,359.9c-1.2,0.1-2.5,0.1-3.7,0.2c4.6-29.7,10.5-66,17.3-102.7c1.3-0.4,2.7-0.8,4-1.2
			c-5.5,28.3-11.5,63.1-17.2,103.7C282.8,359.8,282.7,359.8,282.6,359.9z"/>
		<g>
			
				<linearGradient id="SVGID_14_" gradientUnits="userSpaceOnUse" x1="267.9822" y1="176.2858" x2="267.8841" y2="177.1404" gradientTransform="matrix(-1 0 0 1 450 0)">
				<stop  offset="9.625670e-02" style="stop-color:#48616E"/>
				<stop  offset="0.4973" style="stop-color:#84959D"/>
				<stop  offset="1" style="stop-color:#86969F"/>
			</linearGradient>
			<path class="st34" d="M179.6,176.5h4.9c0,0.1,0,0.2,0,0.4L179.6,176.5z"/>
			
				<linearGradient id="SVGID_15_" gradientUnits="userSpaceOnUse" x1="291.1385" y1="191.2673" x2="262.2339" y2="443.0421" gradientTransform="matrix(-1 0 0 1 450 0)">
				<stop  offset="9.625670e-02" style="stop-color:#48616E"/>
				<stop  offset="0.4973" style="stop-color:#84959D"/>
				<stop  offset="1" style="stop-color:#86969F"/>
			</linearGradient>
			<path class="st35" d="M170.2,208.4c0.9,14.7,1.2,29.5,1.6,44.2c-5.2-0.7-10.4-1.6-15.6-2.5c-1.6-17.1-3-32.5-4.3-45
				C157.9,206.5,164,207.5,170.2,208.4z"/>
			
				<linearGradient id="SVGID_16_" gradientUnits="userSpaceOnUse" x1="294.8757" y1="191.6996" x2="265.9719" y2="443.4669" gradientTransform="matrix(-1 0 0 1 450 0)">
				<stop  offset="9.625670e-02" style="stop-color:#48616E"/>
				<stop  offset="0.4973" style="stop-color:#84959D"/>
				<stop  offset="1" style="stop-color:#86969F"/>
			</linearGradient>
			<path class="st36" d="M172.2,362.9c-2.1-0.2-4.2-0.4-6.2-0.7c-2.6-31.4-5.7-67.9-8.7-100.4c4.9,0.8,9.9,1.6,14.9,2.4
				c0.2,7,0.6,14,1.1,21c1.8,25.9,2.8,51.8,3.7,77.7C175.3,362.9,173.8,362.9,172.2,362.9z"/>
		</g>
		
			<linearGradient id="SVGID_17_" gradientUnits="userSpaceOnUse" x1="262.2723" y1="385.0087" x2="305.3545" y2="305.9457" gradientTransform="matrix(-1 0 0 1 450 0)">
			<stop  offset="9.625670e-02" style="stop-color:#A6CAD4"/>
			<stop  offset="0.9251" style="stop-color:#84959D"/>
		</linearGradient>
		<path class="st37" d="M133.7,358.8c-7.3-59.3-19.2-137.4-31.7-181.5h12.2c5.3,26.2,20.6,115.3,30.7,182.6
			C141.2,359.5,137.5,359.1,133.7,358.8z"/>
		
			<linearGradient id="SVGID_18_" gradientUnits="userSpaceOnUse" x1="239.0759" y1="134.0544" x2="238.7616" y2="191.5652" gradientTransform="matrix(-1 0 0 1 450 0)">
			<stop  offset="0.4973" style="stop-color:#C0C8CD"/>
			<stop  offset="1" style="stop-color:#86969F"/>
		</linearGradient>
		<path class="st38" d="M338.2,168.5l-4.1,14.2c0,0-69.3,17.6-135.1,14c-65.3-3.6-90.9-13.2-110.4-19.9L84,165.1
			c0,0,52.2-14.4,121.4-16.5C272.3,146.6,326.9,166.6,338.2,168.5z"/>
		<path class="st32" d="M233.7,168.5c-1.5,9.5-3.1,18.9-4.6,28.4c-4.4,0.1-8.7,0.1-13.1,0.1v-28.5H233.7z"/>
		<path class="st32" d="M123.1,168.5h7.5c0.7,6.9,1.7,13.8,2.8,20.7c-2.8-0.5-5.5-1.1-8.1-1.7C124.7,181.2,124,174.8,123.1,168.5z"
			/>
		<path class="st39" d="M205.8,164.2h-23c0.1-4.8,0.2-9.6,0.2-14.4c6.9-0.5,14.1-0.9,21.5-1.1C204.9,153.8,205.4,159,205.8,164.2z"
			/>
		<path class="st39" d="M284,157.8c-1,2.1-2.1,4.2-3.1,6.4h-32c1.9-4.4,3.7-8.9,5.2-13.4c11.1,1.3,21.5,3,30.9,4.8
			C284.7,156.3,284.4,157.1,284,157.8z"/>
		<path class="st39" d="M104.3,160.4c5.1-1.1,11.2-2.2,18-3.4c0.3,1.3,0.5,2.6,0.9,4c0.3,1,0.6,2.1,0.9,3.1h-19.3
			C104.7,162.9,104.5,161.7,104.3,160.4z"/>
		<path class="st39" d="M266.5,175.2c8.1-0.1,16-0.8,23.9-1.7c-0.5,6.1-1.6,12.2-3.1,18.1c-13.7,2-29.5,3.9-46.1,4.8
			c-0.1-7.1-0.2-14.1-0.3-21.2C249.5,175.2,258,175.2,266.5,175.2z"/>
		<path class="st39" d="M308.8,176.5c0.5-1.9,1-3.7,1.5-5.5c6-0.7,12-1.4,18-1.7c2.4-0.1,4.6-0.6,6.6-1.4c1.3,0.3,2.4,0.6,3.2,0.7
			l-4.1,14.2c0,0-10.6,2.7-27.5,5.7C307.1,184.4,307.7,180.3,308.8,176.5z"/>
		<path class="st39" d="M148,174c17,1.2,34,0.9,51.2,0.9c1.1,0,2.2,0,3.4,0c0.1,7.3,0.2,14.5,0.3,21.8c-1.3-0.1-2.6-0.1-3.8-0.2
			c-18.8-1-34.2-2.5-47.2-4.4C150.4,186.2,149,180.1,148,174z"/>
		<path class="st39" d="M88.9,163.9c6.6,1.3,13.1,2.8,19.6,4.2c0.3,3.7,0.7,7.4,1.3,11c0.3,1.6,0.6,3.2,0.9,4.8
			c-8.8-2.5-15.9-5-22.2-7.2L84,165.1C84,165.1,85.7,164.6,88.9,163.9z"/>
		
			<linearGradient id="SVGID_19_" gradientUnits="userSpaceOnUse" x1="238.3313" y1="202.3489" x2="235.9272" y2="148.0153" gradientTransform="matrix(-1 0 0 1 450 0)">
			<stop  offset="8.021390e-02" style="stop-color:#D2E0E6"/>
			<stop  offset="1" style="stop-color:#AFC0CC"/>
		</linearGradient>
		<path class="st40" d="M326.8,170.6c0,0-36.3,18.5-114.4,16.4c-34.6-0.9-66.4-0.4-112.9-17.8c0,0,48.6-14.3,108.9-14.9
			C240.8,153.9,281.2,160.3,326.8,170.6z"/>
		
			<linearGradient id="SVGID_20_" gradientUnits="userSpaceOnUse" x1="238.3313" y1="202.3489" x2="235.9272" y2="148.0153" gradientTransform="matrix(-1 0 0 1 450 0)">
			<stop  offset="8.021390e-02" style="stop-color:#D2E0E6"/>
			<stop  offset="1" style="stop-color:#B0C0C0"/>
		</linearGradient>
		<path class="st41" d="M326.8,170.6c0,0-36.3,18.5-114.4,16.4c-34.6-0.9-66.4-0.4-112.9-17.8c0,0,48.6-14.3,108.9-14.9
			C240.8,153.9,281.2,160.3,326.8,170.6z"/>
		
			<linearGradient id="SVGID_21_" gradientUnits="userSpaceOnUse" x1="287.9153" y1="200.1572" x2="285.5109" y2="145.8184" gradientTransform="matrix(-1 0 0 1 450 0)">
			<stop  offset="9.625670e-02" style="stop-color:#48616E"/>
			<stop  offset="0.4973" style="stop-color:#84959D"/>
			<stop  offset="1" style="stop-color:#86969F"/>
		</linearGradient>
		<path class="st42" d="M148.8,182.6c-0.3-7.7-1.1-15.5-1.5-23.2c10-1.5,21.2-2.9,33.2-3.8c0.1,6.1-1.2,26.2-1.1,30.3
			C169.5,185.3,159.4,184.4,148.8,182.6z"/>
		
			<linearGradient id="SVGID_22_" gradientUnits="userSpaceOnUse" x1="227.0107" y1="202.8503" x2="224.6064" y2="148.5137" gradientTransform="matrix(-1 0 0 1 450 0)">
			<stop  offset="9.625670e-02" style="stop-color:#48616E"/>
			<stop  offset="0.4973" style="stop-color:#84959D"/>
			<stop  offset="1" style="stop-color:#86969F"/>
		</linearGradient>
		<path class="st43" d="M212.9,154.3c7.7,0.1,15.9,0.5,24.4,1.2c-1.3,7.7-2.4,15.5-4,23.1c-0.6,2.8-1.1,5.6-1.6,8.4
			c-5.9,0.1-12.1,0.1-18.6-0.1C213.5,176.1,213.9,165.2,212.9,154.3z"/>
		
			<linearGradient id="SVGID_23_" gradientUnits="userSpaceOnUse" x1="166.4142" y1="205.5334" x2="164.0097" y2="151.1932" gradientTransform="matrix(-1 0 0 1 450 0)">
			<stop  offset="9.625670e-02" style="stop-color:#48616E"/>
			<stop  offset="0.4973" style="stop-color:#84959D"/>
			<stop  offset="1" style="stop-color:#86969F"/>
		</linearGradient>
		<path class="st44" d="M291.6,181.1c-5.3,1.1-11.3,2.1-17.8,3c1.8-7.7,3.6-15.4,5.6-23c5.5,0.9,11.2,2,17,3.1
			C294.3,169.7,292.8,175.4,291.6,181.1z"/>
		<g>
			<path class="st45" d="M209.1,255.5c30.9-0.2,73.7-2.3,103.1-13.2c-0.6,2.6-1.2,5.2-1.8,7.9c-36.6,12.5-80.2,12.5-118.3,11.8
				c-25.5-0.5-56.1-3.8-78.9-14.2c-1.2-0.5-2.5-1.1-3.7-1.7c-0.3-1.8-0.7-3.6-1-5.4C140.3,252.1,176.2,255.8,209.1,255.5z"/>
			
				<linearGradient id="SVGID_24_" gradientUnits="userSpaceOnUse" x1="241.5954" y1="221.0509" x2="237.089" y2="260.3038" gradientTransform="matrix(-1 0 0 1 450 0)">
				<stop  offset="0.4973" style="stop-color:#C0C8CD"/>
				<stop  offset="1" style="stop-color:#86969F"/>
			</linearGradient>
			<path class="st46" d="M205.3,253.6c52.2,1.3,75-6,107.6-14.2c-0.4,1.6-0.8,3.3-1.2,4.9c-34.5,9.1-54.2,14.7-105.9,13.3
				c-25.4-0.7-59.8-0.5-97.2-16.5c-0.2-1.2-0.5-2.4-0.7-3.7C145.4,250.3,179.6,252.9,205.3,253.6z"/>
			<path class="st47" d="M293.7,244.3c2.8-0.7,5.6-1.4,8.4-2.1c-0.3,1.7-0.7,3.3-1,5c0,0,0,0,0,0c-2.8,0.7-5.5,1.4-8.2,2.1h0
				C293.2,247.6,293.5,245.9,293.7,244.3z"/>
			<path class="st47" d="M254.1,251.8c-0.3,1.6-0.5,3.1-0.8,4.7h0c-2.1,0.2-4.3,0.4-6.6,0.6c0,0,0,0,0,0c-2.2,0.2-4.6,0.3-7,0.4
				c0,0,0,0,0,0c-4.8,0.2-9.9,0.4-15.4,0.4c0-1.4,0-2.8-0.1-4.2C235.4,253.5,245.2,252.8,254.1,251.8z"/>
			<path class="st47" d="M172.6,251.5c4.5,0.5,8.9,0.8,13.2,1.1c0,1.5,0.1,2.9,0,4.4c-3.9-0.2-8-0.4-12.2-0.7h0
				C173.3,254.7,172.9,253.1,172.6,251.5z"/>
			<path class="st47" d="M132.5,244.6c0.3,1.7,0.6,3.4,0.9,5c-2-0.5-4-1.1-6-1.7c-0.2-0.1-0.4-0.1-0.6-0.2c-1.8-0.6-3.6-1.1-5.5-1.8
				c-0.7-0.2-1.4-0.5-2.1-0.8c-1.4-0.5-2.8-1-4.1-1.5c-2.2-0.8-4.3-1.7-6.5-2.6c-0.2-1.2-0.5-2.4-0.7-3.7
				C116.3,240.4,124.5,242.7,132.5,244.6z"/>
		</g>
		<g>
			<path class="st45" d="M208.7,280.6c29.3-0.2,69.5-1.5,97.8-13.2c-0.6,2.6-1.2,5.2-1.7,7.9c-34.7,12.5-76.1,12.5-112.2,11.8
				c-24.2-0.5-53.2-3.8-74.8-14.2c-1.1-0.5-2.3-1.1-3.5-1.7c-0.3-1.8-0.6-3.6-1-5.4C143.4,277.2,177.5,280.9,208.7,280.6z"/>
			
				<linearGradient id="SVGID_25_" gradientUnits="userSpaceOnUse" x1="241.9934" y1="246.8835" x2="237.5981" y2="285.1682" gradientTransform="matrix(-1 0 0 1 450 0)">
				<stop  offset="0.4973" style="stop-color:#C0C8CD"/>
				<stop  offset="1" style="stop-color:#86969F"/>
			</linearGradient>
			<path class="st48" d="M205.1,278.7c49.6,1.3,71.2-6,102-14.2c-0.4,1.6-0.7,3.3-1.1,4.9c-32.7,9.1-51.4,14.7-100.5,13.3
				c-24.1-0.7-56.7-0.5-92.2-16.5c-0.2-1.2-0.4-2.4-0.7-3.7C148.2,275.4,180.7,278.1,205.1,278.7z"/>
			<path class="st47" d="M288.9,269.4c2.6-0.7,5.3-1.4,8-2.1c-0.3,1.7-0.6,3.3-0.9,5c0,0,0,0,0,0c-2.6,0.7-5.2,1.4-7.8,2.1l0,0
				C288.4,272.7,288.7,271,288.9,269.4z"/>
			<path class="st47" d="M251.3,276.9c-0.3,1.6-0.5,3.1-0.8,4.7l0,0c-2,0.2-4.1,0.4-6.2,0.6c0,0,0,0,0,0c-2.1,0.2-4.3,0.3-6.6,0.4
				c0,0,0,0,0,0c-4.6,0.2-9.4,0.4-14.7,0.4c0-1.4,0-2.8-0.1-4.2C233.7,278.6,242.9,277.9,251.3,276.9z"/>
			<path class="st47" d="M174.1,276.6c4.3,0.5,8.4,0.9,12.5,1.1c0,1.5,0.1,2.9,0,4.4c-3.7-0.2-7.6-0.4-11.5-0.7h0
				C174.7,279.9,174.4,278.3,174.1,276.6z"/>
			<path class="st47" d="M136,269.7c0.3,1.7,0.6,3.4,0.9,5c-1.9-0.5-3.8-1.1-5.6-1.7c-0.2-0.1-0.4-0.1-0.5-0.2
				c-1.7-0.6-3.5-1.1-5.2-1.8c-0.7-0.2-1.3-0.5-2-0.8c-1.3-0.5-2.6-1-3.9-1.5c-2.1-0.8-4.1-1.7-6.2-2.6c-0.2-1.2-0.4-2.4-0.7-3.7
				C120.6,265.5,128.4,267.8,136,269.7z"/>
		</g>
		<g>
			<path class="st45" d="M207.8,305.7c27.9-0.2,66.2-1.9,93.2-13.2c-0.5,2.6-1.1,5.2-1.7,7.9c-33.1,12.5-72.5,12.5-106.9,11.8
				c-23.1-0.5-50.7-3.8-71.3-14.2c-1.1-0.5-2.2-1.1-3.4-1.7c-0.3-1.8-0.6-3.6-0.9-5.4C145.7,302.3,178.1,306,207.8,305.7z"/>
			
				<linearGradient id="SVGID_26_" gradientUnits="userSpaceOnUse" x1="242.8237" y1="272.624" x2="238.5242" y2="310.0746" gradientTransform="matrix(-1 0 0 1 450 0)">
				<stop  offset="0.4973" style="stop-color:#C0C8CD"/>
				<stop  offset="1" style="stop-color:#86969F"/>
			</linearGradient>
			<path class="st49" d="M204.4,303.8c47.2,1.3,67.8-6,97.2-14.2c-0.3,1.6-0.7,3.3-1,4.9c-31.1,9.1-49,14.7-95.7,13.3
				c-22.9-0.7-54-0.5-87.9-16.5c-0.2-1.2-0.4-2.4-0.6-3.7C150.3,300.5,181.2,303.2,204.4,303.8z"/>
			<path class="st47" d="M284.3,294.5c2.5-0.7,5.1-1.4,7.6-2.1c-0.3,1.7-0.6,3.3-0.9,5c0,0,0,0,0,0c-2.5,0.7-5,1.4-7.4,2.1l0,0
				C283.8,297.8,284.1,296.1,284.3,294.5z"/>
			<path class="st47" d="M248.5,302c-0.3,1.6-0.4,3.1-0.7,4.7l0,0c-1.9,0.2-3.9,0.4-5.9,0.6c0,0,0,0,0,0c-2,0.2-4.1,0.3-6.3,0.4
				c0,0,0,0,0,0c-4.3,0.2-9,0.4-14,0.4c0-1.4,0-2.8-0.1-4.2C231.7,303.7,240.5,303,248.5,302z"/>
			<path class="st47" d="M174.9,301.8c4.1,0.5,8.1,0.9,11.9,1.1c0,1.5,0,2.9,0,4.4c-3.5-0.2-7.2-0.4-11-0.7h0
				C175.5,305,175.2,303.4,174.9,301.8z"/>
			<path class="st47" d="M138.6,294.9c0.3,1.7,0.5,3.4,0.8,5c-1.8-0.5-3.6-1.1-5.4-1.7c-0.2-0.1-0.3-0.1-0.5-0.2
				c-1.6-0.6-3.3-1.1-4.9-1.8c-0.6-0.2-1.3-0.5-1.9-0.8c-1.2-0.5-2.5-1-3.7-1.5c-2-0.8-3.9-1.7-5.9-2.6c-0.2-1.2-0.4-2.4-0.6-3.7
				C124,290.6,131.4,292.9,138.6,294.9z"/>
		</g>
		
			<linearGradient id="SVGID_27_" gradientUnits="userSpaceOnUse" x1="94.6057" y1="148.2962" x2="119.9085" y2="148.2962" gradientTransform="matrix(-1 0 0 1 450 0)">
			<stop  offset="0.4973" style="stop-color:#C0C8CD"/>
			<stop  offset="1" style="stop-color:#86969F"/>
		</linearGradient>
		<path class="st50" d="M332.9,161.7c0,0,23.3,1.7,22.5-15.8c-0.4-8.1-4.7-10.7-8.2-11c-4.1-0.3-8.1,2.8-6.6,6.3
			c2.2,5.1,7,1.3,7,1.3s2.7,6.8-3.6,10.3c-2.3,1.3-6.9,1.8-11.8,1.8c0,0-1.8,0.7-2,2.5C329.9,158.5,330.5,160.9,332.9,161.7z"/>
		
			<linearGradient id="SVGID_28_" gradientUnits="userSpaceOnUse" x1="217.1331" y1="88.5495" x2="311.6586" y2="88.5495" gradientTransform="matrix(1 0 0 1 -143.8945 0)">
			<stop  offset="0.4973" style="stop-color:#C0C8CD"/>
			<stop  offset="1" style="stop-color:#86969F"/>
		</linearGradient>
		<path class="st51" d="M167.8,17.8c0,0-11.6-3.9-17.6,5.2c-6,9.1-11.3,19.2-38,22.6C85.5,49,74.5,66.8,73.5,84.8
			c-1,18,0.6,24.5,8.3,41.4c7.7,16.8,8.1,25.8,5.4,27.1c0,0-1.9,1.6-1.3,3.6c0.8,3.1,5.2,3.2,5.2,3.2s12.7-4.8-2.1-36.5
			c-14.7-31.7-5.6-56.1,7.5-63c13.1-6.9,28.4-5.4,41.4-12.7c19.7-11.1,17.5-26.8,29.8-19.9c0,0-0.3-3.3-0.3-5.5
			C167.5,18.3,167.8,17.8,167.8,17.8z"/>
		
			<linearGradient id="SVGID_29_" gradientUnits="userSpaceOnUse" x1="217.1338" y1="154.1354" x2="312.1158" y2="154.1354" gradientTransform="matrix(1 0 0 1 -143.8945 0)">
			<stop  offset="0.4973" style="stop-color:#C0C8CD"/>
			<stop  offset="1" style="stop-color:#86969F"/>
		</linearGradient>
		<path class="st52" d="M87.2,153.3c1-0.5,1.6-2.2,1.4-5.1c2.5,0.5,5,0.9,7.4,1.4c-0.3,8.7-5,10.6-5,10.6s-4.3-0.2-5.2-3.2
			C85.3,154.8,87.2,153.3,87.2,153.3z"/>
		
			<linearGradient id="SVGID_30_" gradientUnits="userSpaceOnUse" x1="217.134" y1="56.069" x2="312.1173" y2="56.069" gradientTransform="matrix(1 0 0 1 -143.8945 0)">
			<stop  offset="0.4973" style="stop-color:#C0C8CD"/>
			<stop  offset="1" style="stop-color:#86969F"/>
		</linearGradient>
		<path class="st53" d="M124.3,49.5c-0.9-1.8-1.8-3.7-2.6-5.5c-2.8,0.7-6,1.2-9.5,1.7c-15.7,2-25.9,9-31.9,18c1.4,1.5,2.8,3,4.1,4.6
			C94.3,56.7,108.7,50,124.3,49.5z"/>
	</g>
	
		<linearGradient id="SVGID_31_" gradientUnits="userSpaceOnUse" x1="48.5612" y1="344.3173" x2="671.8829" y2="344.3173" gradientTransform="matrix(-1 0 0 1 450 0)">
		<stop  offset="0.4973" style="stop-color:#C0C8CD"/>
		<stop  offset="1" style="stop-color:#86969F"/>
	</linearGradient>
	<path class="st54" d="M216,354.1c38.9,0,63.5-8.3,72.9-16.2c-1.2,7.2-2.5,14.4-3.8,21.7c-0.9,0.1-1.7,0.2-2.6,0.3
		c-9.3,0.5-18.7,1.2-28,1.8c-0.6,0-1.3,0.1-2,0.1c-5.8,0.4-11.6,0.7-17.3,1c-1.1,0.1-2.2,0.1-3.3,0.2c0,0,0,0,0,0
		c-3.4,0.2-6.9,0.2-10.3,0.3c0,0,0,0.1,0,0.1c-2.1,0-4.2,0-6.2,0.1c0,0,0,0,0,0c-1.5,0-3,0.1-4.6,0.1c-7.7,0-15.3-0.2-22.8-0.3
		c-5.4-0.1-10.8-0.2-16.2-0.3c-14.2-1.5-28.4-3.3-42.6-4.4c-1.7-11.1-3.4-22.1-4.3-33.2C150.6,346.5,183.9,354.1,216,354.1z"/>
	
		<linearGradient id="SVGID_32_" gradientUnits="userSpaceOnUse" x1="45.8103" y1="164.9576" x2="633.1127" y2="164.9576" gradientTransform="matrix(-1 0 0 1 450 0)">
		<stop  offset="0.4973" style="stop-color:#C0C8CD"/>
		<stop  offset="1" style="stop-color:#86969F"/>
	</linearGradient>
	<path class="st55" d="M337.3,164.8c-0.1,0.1-0.1,0.2-0.1,0.4C337.2,165,337.2,164.9,337.3,164.8z"/>
	
		<linearGradient id="SVGID_33_" gradientUnits="userSpaceOnUse" x1="47.1473" y1="166.1736" x2="620.3358" y2="166.1736" gradientTransform="matrix(-1 0 0 1 450 0)">
		<stop  offset="0.4973" style="stop-color:#C0C8CD"/>
		<stop  offset="1" style="stop-color:#86969F"/>
	</linearGradient>
	<path class="st56" d="M337,166.5c0-0.2,0-0.4,0-0.6c0,0.1-0.1,0.2-0.1,0.3C336.9,166.3,337,166.4,337,166.5z"/>
	
		<linearGradient id="SVGID_34_" gradientUnits="userSpaceOnUse" x1="48.7868" y1="167.32" x2="609.981" y2="167.32" gradientTransform="matrix(-1 0 0 1 450 0)">
		<stop  offset="0.4973" style="stop-color:#C0C8CD"/>
		<stop  offset="1" style="stop-color:#86969F"/>
	</linearGradient>
	<path class="st57" d="M337.3,167.5c0-0.1-0.1-0.2-0.1-0.3C337.2,167.3,337.2,167.4,337.3,167.5z"/>
	
		<linearGradient id="SVGID_35_" gradientUnits="userSpaceOnUse" x1="45.9767" y1="163.0524" x2="631.7949" y2="163.0524" gradientTransform="matrix(-1 0 0 1 450 0)">
		<stop  offset="0.4973" style="stop-color:#C0C8CD"/>
		<stop  offset="1" style="stop-color:#86969F"/>
	</linearGradient>
	<path class="st58" d="M339,163.2c1.1,0,2.1,0,3.1-0.1c-0.5-0.2-0.9-0.3-1.5-0.3C340,162.9,339.5,163,339,163.2z"/>
</g>
</svg>
