<?xml version="1.0" encoding="utf-8"?>
<!-- Generator: Adobe Illustrator 24.0.2, SVG Export Plug-In . SVG Version: 6.00 Build 0)  -->
<svg version="1.1" id="Layer_1" xmlns="http://www.w3.org/2000/svg" xmlns:xlink="http://www.w3.org/1999/xlink" x="0px" y="0px"
	 viewBox="0 0 438 457" style="enable-background:new 0 0 438 457;" height="457" width="438" xml:space="preserve">
<style type="text/css">
	.st0{fill:#8BA3AA;}
	.st1{opacity:0.55;}
	.st2{opacity:0.55;fill:#8BA3AA;}
	.st3{opacity:0.65;fill:#A9B6BD;}
	.st4{opacity:0.65;fill:#7E929B;}
	.st5{fill:#94A9B0;}
	.st6{fill:#B3C2C7;}
	.st7{fill:#D8DFE2;}
	.st8{fill:#7E929B;}
	.st9{fill:url(#SVGID_1_);}
	.st10{opacity:0.55;fill:url(#SVGID_2_);}
	.st11{fill:#A2B6BD;}
	.st12{fill:url(#SVGID_3_);}
	.st13{fill:url(#SVGID_4_);}
	.st14{opacity:0.55;fill:url(#SVGID_5_);}
	.st15{opacity:0.55;fill:#84959D;}
	.st16{opacity:0.55;fill:url(#SVGID_6_);}
	.st17{opacity:0.55;fill:url(#SVGID_7_);}
	.st18{fill:#E8ECEE;}
	.st19{fill:#535757;}
	.st20{fill:#8EA2AD;}
	.st21{fill:#C7D1D2;}
	.st22{opacity:0.55;fill:#A2B6BD;}
	.st23{fill:#B7B9BC;}
	.st24{fill:#E3E4E5;}
	.st25{fill:#90A2A3;}
	.st26{opacity:0.55;fill:#90A2A3;}
	.st27{fill:#91A2AB;}
	.st28{opacity:0.65;fill:#5F747F;}
	.st29{fill:#687C87;}
	.st30{fill:url(#SVGID_8_);}
	.st31{opacity:0.65;fill:#6E818C;}
	.st32{fill:#6E818C;}
	.st33{fill:#B1BEC1;}
	.st34{opacity:0.55;fill:#B1BEC1;}
	.st35{fill:#80959F;}
	.st36{fill:#DAE4E7;}
	.st37{opacity:0.65;fill:#8E9EA8;}
	.st38{opacity:0.55;fill:#C7D1D2;}
	.st39{opacity:0.55;fill:#E3E4E5;}
	.st40{opacity:0.55;fill:#F6F6F7;}
</style>
<g>
	<path class="st0" d="M428,146.7c-1.9-1.1-3.8-2.6-5.6-4.6c-12.8-13.9-34.1-7-45.1,4.4c-15.4,15.9-23.9,36.5-32.8,56.5
		c1.1,11,2.2,21.4,2.2,21.4c2.8-17.4,34.5-82.7,47.6-85.6c19.5-4.3,30.8,9.6,27.3,33c-0.7,4.4-1.4,8.7-2.5,12.8
		c-14.2,52-65.3,92.7-65.3,92.7l3.7,34.1c0,0,29.4-28.1,48-54.2c17.2-24.1,42-73.4,23.6-108.9C428.7,147.9,428.3,147.3,428,146.7z"
		/>
	<g class="st1">
		<path class="st2" d="M425.9,150.9c-0.3-0.6-0.7-1.2-1.1-1.8c-1.5-0.9-2.9-2-4.3-3.3c14.5,35-8.9,81.5-25.4,104.6
			c-13.6,19.1-33,39.2-42.4,48.6l1.6,14.9c0,0,29.4-28.1,48-54.2C419.5,235.7,444.2,186.3,425.9,150.9z"/>
	</g>
	<path class="st3" d="M364,270.4c-5,4.7-8.3,7.4-8.3,7.4l3,27.7c0,0,7.8-7.5,17.4-17.9C372.2,281.8,367.2,276.4,364,270.4z"/>
	<path class="st4" d="M421.6,171.9c-0.6,3.7-1.3,7.3-2.1,10.9c6.8,2.2,11.4,7.3,13.9,13.3c3.4-16.4,3.1-33.1-4.4-47.5
		c-0.3-0.6-0.7-1.2-1.1-1.8c-1.9-1.1-3.8-2.6-5.6-4.6c-2.1-2.3-4.5-4-6.9-5.2c-0.1,1.2-12.2-1.2-12.5,0c-0.1,0.4,8,2.4,11.2,5.6
		C420.7,148.1,423.6,158.4,421.6,171.9z"/>
	<path class="st5" d="M431.7,154.1c-7.7-20.2-21.8-26.3-35.6-26.2c-12.7,0.2-29.2,10.6-36.4,21.3c-4.6,6.9-17.9,28.1-17.8,28.8
		c0,0,4.8,46.4,4.8,46.4c2.3-14.4,27-57.6,41.6-75.1c4.4-5.3,10.6-9.1,17.4-9.9C417.8,138,426.8,145.5,431.7,154.1z"/>
	<g>
		<path class="st6" d="M396.1,127.9c-12.7,0.2-29.2,10.6-36.4,21.3c-4.6,6.9-17.9,28.1-17.8,28.8c0,0,0.5,4.6,1.1,11h5.7
			c0-0.1-2.2,19.8-2.2,19.8c-0.1-0.7,17.5-35.4,22-42.5c13.8-21.8,23.8-29.5,37-29.7c7.3-0.1,14.3,2.7,20.8,6.9
			C418.3,131.7,407.1,127.8,396.1,127.9z"/>
		<path class="st6" d="M431,152.8c0.3,0.4,0.5,0.8,0.8,1.3c-0.1-0.4-0.3-0.7-0.5-1.1C431.2,153,431.1,152.9,431,152.8z"/>
	</g>
	<path class="st3" d="M352.3,190.8c2.4-4.8,5.5-11.2,9.2-16c-2.2-4.2-5-8-9-10.1c-4,6.3-8.4,13.4-8.3,13.7c0,0,1.4,13.6,2.5,23.9
		C348.4,198.5,350.3,194.7,352.3,190.8z"/>
	<g class="st1">
		<path class="st7" d="M393.9,132.5c-10.6,0.1-24.4,8.8-30.4,17.8c-1.1,1.6-2.7,4.1-4.5,6.9c2.2,1.5,4.1,3.5,5.6,6
			c0.4,0.6,0.8,1.2,1.2,1.9c0.8-1.3,1.5-2.5,2-3.4c18.8-30.8,36.4-26.9,37.7-26.8C400.9,132.4,398.9,132.5,393.9,132.5z"/>
	</g>
	<path class="st8" d="M235.2,131.5c0,0,10.5-71.3,30.9-82.4l8.3-2.5l-10.6-3.1L252.9,45l-4.2,2c0,0-27.9,23.1-34.8,86.9L235.2,131.5
		z"/>
	<path class="st4" d="M215.7,121.3c-0.7,4-1.3,8.2-1.7,12.6l21.3-2.4c0,0,0.6-4.3,1.9-11C228.9,119.3,223.5,119.3,215.7,121.3z"/>
	<path class="st4" d="M263.8,43.4L252.9,45l-4.2,2c0,0-8.1,6.8-16.7,23c0.4-0.2,0.8-0.4,1.2-0.6c5.9-2.3,12.2-1.5,17.6,1.3
		c4.2-10.2,9.3-18.5,15.2-21.7l8.3-2.5L263.8,43.4z"/>
	<linearGradient id="SVGID_1_" gradientUnits="userSpaceOnUse" x1="287.2645" y1="146.5715" x2="256.8951" y2="411.1046">
		<stop  offset="8.021390e-02" style="stop-color:#D2E0E6"/>
		<stop  offset="0.5027" style="stop-color:#CFD4D4"/>
		<stop  offset="1" style="stop-color:#AFC0CC"/>
	</linearGradient>
	<path class="st9" d="M194.8,141.4l-47,238.9c0,0,57.8,45.6,133.8,32.4c76-13.2,91.6-31.8,91.6-31.8l-31.2-242.2
		c0,0-15.9-16-75.5-16C216.4,122.7,194.8,141.4,194.8,141.4z"/>
	<linearGradient id="SVGID_2_" gradientUnits="userSpaceOnUse" x1="284.117" y1="159.1275" x2="255.6458" y2="407.126">
		<stop  offset="8.021390e-02" style="stop-color:#D2E0E6"/>
		<stop  offset="0.5027" style="stop-color:#CFD4D4"/>
		<stop  offset="1" style="stop-color:#AFC0CC"/>
	</linearGradient>
	<path class="st10" d="M252.1,326.8c-32.2-4.9-58.4-19.7-81.7-40.9L152,378.2c0,0,54.8,42.6,127,30.3c72.1-12.3,86.9-29.7,86.9-29.7
		l-11.5-88.4C342.8,312.2,289.5,332.4,252.1,326.8z"/>
	<path class="st11" d="M266.4,122.7c-50.1,0-71.6,18.7-71.6,18.7l-1.6,8.1c26,18.7,59.7,19.3,74.9,19.3c28.8,0,58.6-10.6,74.9-22.1
		l-1-8C341.9,138.7,326,122.7,266.4,122.7z"/>
	<linearGradient id="SVGID_3_" gradientUnits="userSpaceOnUse" x1="213.4459" y1="138.0968" x2="183.0766" y2="402.6294">
		<stop  offset="8.021390e-02" style="stop-color:#D2E0E6"/>
		<stop  offset="0.5027" style="stop-color:#CFD4D4"/>
		<stop  offset="1" style="stop-color:#AFC0CC"/>
	</linearGradient>
	<path class="st12" d="M213.8,266.5c2.2-10.1,3-29.1-6.5-36.4c-2.1-1.6-14.3,3.2-20.5,5.4c1.3,7.2,2.5,14.5,5.5,21.5
		C195.2,263.6,209.3,287.1,213.8,266.5z"/>
	<linearGradient id="SVGID_4_" gradientUnits="userSpaceOnUse" x1="221.8544" y1="139.0654" x2="191.4854" y2="403.5955">
		<stop  offset="8.021390e-02" style="stop-color:#D2E0E6"/>
		<stop  offset="0.5027" style="stop-color:#CFD4D4"/>
		<stop  offset="1" style="stop-color:#AFC0CC"/>
	</linearGradient>
	<path class="st13" d="M220.8,379.8c-8.9-18.9-17.8-38.2-25.6-57.6c-1.9,0.4-3.8,0.8-5.7,1.3c-3.8,7.9-9.4,14.2-18.9,19.5
		c-5.7,3.1-11.5,6.1-17.3,9l-5.6,28.2c0,0,36.2,28.5,89,33.9C232.6,402.1,225.8,390.4,220.8,379.8z"/>
	<linearGradient id="SVGID_5_" gradientUnits="userSpaceOnUse" x1="171.8499" y1="236.9314" x2="306.713" y2="365.201">
		<stop  offset="9.625670e-02" style="stop-color:#48616E"/>
		<stop  offset="0.4973" style="stop-color:#84959D"/>
		<stop  offset="1" style="stop-color:#86969F"/>
	</linearGradient>
	<path class="st14" d="M217.5,130c-1.5,9.3-43.7,246.8-48.6,263.4c5.1,2.7,11.1,5.5,17.7,8.2c6.8-52.8,25.6-237.8,37.9-273.7
		C222,128.5,219.7,129.2,217.5,130z"/>
	<path class="st15" d="M184.2,315.3c-7.4,40.1-13.6,72.3-15.3,78.1c5.1,2.7,11.1,5.5,17.7,8.2c2.2-17.6,5.8-49.8,10.1-86.3H184.2z"
		/>
	<linearGradient id="SVGID_6_" gradientUnits="userSpaceOnUse" x1="230.9857" y1="174.752" x2="365.8509" y2="303.0237">
		<stop  offset="9.625670e-02" style="stop-color:#48616E"/>
		<stop  offset="0.4973" style="stop-color:#84959D"/>
		<stop  offset="1" style="stop-color:#86969F"/>
	</linearGradient>
	<path class="st16" d="M319.9,134.1c-4.6,0.7-4.6,0.6-9.2,1.4c2.1,17.7,24.8,261.5,25.1,264.2c7.3-2.4,13.3-4.8,18.1-7
		C348.6,375.4,319.9,134.1,319.9,134.1z"/>
	<linearGradient id="SVGID_7_" gradientUnits="userSpaceOnUse" x1="283.4919" y1="178.9519" x2="271.5039" y2="360.3687">
		<stop  offset="9.625670e-02" style="stop-color:#48616E"/>
		<stop  offset="0.4973" style="stop-color:#84959D"/>
		<stop  offset="1" style="stop-color:#86969F"/>
	</linearGradient>
	<path class="st17" d="M282.8,153.6c-0.4-4.3-0.7-8.7-1-13c-6.5,1.3-13.2,2-19.9,2.1c-0.7,0-1.4,0-2,0c-0.4,5.6-0.9,11.2-1.4,16.8
		c-2.7,28-13.4,203.4-23,254.4c14.3,1.6,29.8,1.5,46.1-1.4c7-1.2,13.4-2.5,19.4-3.8C300.6,389.4,284.6,219.4,282.8,153.6z"/>
	<path class="st18" d="M270.3,166.3c24.4,0,53.3-7,72.3-23.3l-0.7-4.3c0,0-15.9-16-75.5-16c-50.1,0-71.6,18.7-71.6,18.7l-0.8,4
		C217.1,162,238.4,166.3,270.3,166.3z"/>
	<path class="st19" d="M275.6,122.8c-5,3-10.6,4.3-16.8,6.1c-17.9,5-7.5,20.6,2.5,25.9c3,1.6,5.8,2.7,8.6,3.7
		c4.2,1.1,8.4,2.3,12.6,3.5c0.4,0.1,0.7,0.4,1.1,0.6c31.4-3,48.8-14.6,58.3-23.9C341.3,138,326.6,124.3,275.6,122.8z"/>
	<path class="st20" d="M254,147.1c-14-13.4,12.5-19.3,32.5-23.7c-6.1-0.4-12.8-0.7-20.1-0.7c-50.1,0-71.6,18.7-71.6,18.7l0,0.2
		c12.7,9.8,36.8,22.4,76.5,21.7c13.3-0.3,24.5-2,33.9-4.5C291.8,158.2,265.6,158.2,254,147.1z"/>
	<path class="st21" d="M326.9,163.3c0,0-2-65-29.6-105.4c-7.8-11.4-21.3-17.5-34.9-15.4c-5.2,0.8-10.2,2.2-13.7,4.5
		c0,0,18.3-4.2,28.8,6.3c10.5,10.5,30.9,68,31.8,110C309.3,163.3,320.9,158.6,326.9,163.3z"/>
	<path class="st22" d="M310.3,156.1c0.2,2.2,0.3,4.3,0.3,6.4c0,0,9.7-3.9,14.8,0c0,0-0.1-2.4-0.4-6.4
		C321,153.9,314,153.4,310.3,156.1z"/>
	<path class="st23" d="M334.1,175.9c0,9.1-7.7,16.5-17.2,16.5c-9.5,0-17.2-7.4-17.2-16.5s7.7-16.5,17.2-16.5
		C326.4,159.3,334.1,166.7,334.1,175.9z"/>
	<path class="st24" d="M334.1,173.6c0,8.5-7.2,15.4-16,15.4c-8.9,0-16-6.9-16-15.4c0-8.5,7.2-15.4,16-15.4
		C327,158.2,334.1,165.1,334.1,173.6z"/>
	<path class="st25" d="M326.9,173.6c0,4.7-4,8.5-8.8,8.5c-4.9,0-8.8-3.8-8.8-8.5c0-4.7,4-8.5,8.8-8.5
		C323,165.1,326.9,168.9,326.9,173.6z"/>
	<path class="st26" d="M318.1,165.1c-2.3,0-4.5,0.9-6,2.3c1.4-0.9,3.1-1.4,4.9-1.4c4.9,0,8.8,3.8,8.8,8.5c0,2.4-1.1,4.6-2.8,6.2
		c2.4-1.5,4-4.1,4-7.1C326.9,168.9,323,165.1,318.1,165.1z"/>
	<path class="st27" d="M136.3,243.8l62.3-19.6c0,0,8.4-1.6,11.6,4.8c3.2,6.4-1.6,11-1.6,11l-67.1,14.6L136.3,243.8z"/>
	<path class="st28" d="M144.1,248.5l1.7,3.5l61.2-13.3c0,0,3.5-3.4,2-8.4C197.3,234.3,153.6,245.6,144.1,248.5z"/>
	<path class="st29" d="M208.8,324.9c-2.1,19.3-12.2,34-22.5,32.9c-10.3-1.1-16.9-17.7-14.8-37c2.1-19.3,12.2-34,22.5-32.9
		C204.3,289.1,211,305.6,208.8,324.9z"/>
	<path class="st0" d="M67.9,208.6c0,0,70.6,100.3,114.5,139.9c0,0,13.5-2.6,17.1-25.6c3.6-23-6.6-29.9-6.6-29.9L86.6,191.7
		L67.9,208.6z"/>
	<linearGradient id="SVGID_8_" gradientUnits="userSpaceOnUse" x1="78.4878" y1="250.6315" x2="198.5643" y2="250.6315">
		<stop  offset="8.021390e-02" style="stop-color:#D2E0E6"/>
		<stop  offset="1" style="stop-color:#AFC0CC"/>
	</linearGradient>
	<path class="st30" d="M198.6,307c-2.2-6.5-5.6-8.8-5.6-8.8L86.6,196.9l-8.1-2.7C87.5,200.8,173.8,290.9,198.6,307z"/>
	<path class="st31" d="M68.1,196l-1.3,6.9c0,0,70.6,100.3,114.5,139.9c0,0,9-2.1,13.2-14.8C194.6,327.9,82.7,214.5,68.1,196z"/>
	<path class="st32" d="M75.5,141.2l12.9,52.3c0,0,1,7.7-3.3,14.7c-3.2,5.1-10.4,9.9-10.4,9.9L17.9,224L75.5,141.2z"/>
	<path class="st21" d="M82.6,150.7c-1.1-7.6-6.8-13.5-14.3-15.3c-11.6-2.7-32.4-1.6-53.3,28.7c-13.7,19.9-17.1,51.1-5.6,59.7
		c6.7,5,18.3,3.7,29.6-2.9C63.2,206.6,85.8,173.5,82.6,150.7z"/>
	<path class="st33" d="M76.9,153.1c-0.9-6.7-6-11.9-12.6-13.4c-10.2-2.4-28.4-1.4-46.6,25.1c-12,17.5-15,44.7-4.9,52.3
		c5.9,4.3,16,3.3,25.9-2.6C59.9,202,79.7,173,76.9,153.1z"/>
	<path class="st34" d="M25.1,186.4c-6-3.6-10.2-8.3-13.2-13.6C2.4,191,0.9,214.9,10.5,222c6.2,4.6,17,3.5,27.5-2.7
		c14.7-8.7,28.7-24.8,35.9-40.8C61.9,190.3,40.2,195.4,25.1,186.4z"/>
	<g>
		<path class="st32" d="M66.3,150c-0.1,1.9-1.7,3.4-3.6,3.5c-1.9,0-3.4-1.4-3.3-3.3c0.1-1.9,1.7-3.4,3.7-3.5
			C65,146.7,66.4,148.2,66.3,150z"/>
		<path class="st32" d="M68.1,168.4c-0.1,1.9-1.7,3.4-3.6,3.5c-1.9,0.1-3.4-1.4-3.3-3.3c0.1-1.9,1.7-3.4,3.7-3.5
			C66.8,165,68.2,166.5,68.1,168.4z"/>
		<path class="st32" d="M56.7,187.2c-0.1,1.9-1.8,3.5-3.7,3.6c-1.9,0.1-3.4-1.4-3.3-3.3c0.1-1.9,1.8-3.5,3.7-3.6
			C55.3,183.9,56.8,185.4,56.7,187.2z"/>
		<path class="st32" d="M37.3,188.8c-0.1,1.9-1.8,3.5-3.8,3.6c-2,0.1-3.5-1.4-3.4-3.3c0.1-1.9,1.8-3.5,3.8-3.6
			C35.9,185.4,37.4,186.9,37.3,188.8z"/>
		<path class="st32" d="M48.9,171.3c-0.1,1.9-1.8,3.5-3.7,3.6c-2,0.1-3.5-1.4-3.4-3.3c0.1-1.9,1.8-3.5,3.7-3.6
			C47.6,167.9,49,169.4,48.9,171.3z"/>
		<path class="st32" d="M45.2,154.7c-0.1,1.9-1.8,3.5-3.8,3.5c-2,0.1-3.5-1.4-3.4-3.4c0.1-1.9,1.8-3.5,3.8-3.5
			C43.8,151.3,45.3,152.8,45.2,154.7z"/>
		<path class="st32" d="M40,203.6c-0.1,1.9-1.8,3.5-3.8,3.7c-2,0.1-3.5-1.3-3.4-3.2c0.1-1.9,1.8-3.6,3.8-3.7
			C38.6,200.2,40.1,201.7,40,203.6z"/>
		<path class="st32" d="M29.6,172c-0.1,1.9-1.8,3.5-3.8,3.6c-2,0.1-3.6-1.4-3.4-3.3c0.1-1.9,1.8-3.5,3.8-3.6
			C28.2,168.5,29.7,170,29.6,172z"/>
		<path class="st32" d="M21.2,191.7c-0.1,1.9-1.8,3.6-3.9,3.7c-2,0.1-3.6-1.4-3.5-3.3c0.1-1.9,1.9-3.6,3.9-3.7
			C19.8,188.3,21.3,189.8,21.2,191.7z"/>
		<path class="st32" d="M21.9,209.8c-0.1,1.9-1.8,3.6-3.9,3.7c-2,0.1-3.6-1.3-3.5-3.3c0.1-1.9,1.9-3.6,3.9-3.7
			C20.5,206.4,22,207.9,21.9,209.8z"/>
	</g>
	<g>
		<path class="st35" d="M281.5,398.3c-66.9,11.6-119.6-22.3-131.3-30.6l-2.5,12.5c0,0,57.8,45.6,133.8,32.4
			c76-13.2,91.6-31.8,91.6-31.8l-1.6-12.7C365.9,372.8,344.4,387.4,281.5,398.3z"/>
		<path class="st36" d="M281.5,403.5c-68.8,11.9-122.7-24.3-132.2-31.2l-0.9,4.4c6.7,5,61.9,44.2,133.1,31.8
			c68.8-11.9,88.1-28.3,91.1-31.3l-0.6-4.5C367.6,376.8,347,392.2,281.5,403.5z"/>
	</g>
	<path class="st37" d="M248.7,400.6c-50.8-1.5-88.8-25.9-98.5-32.8l-1.4,6.9l-0.4,2l-0.7,3.5c0,0,45,35.4,107.7,34.7
		C252.7,410.4,250.5,405.6,248.7,400.6z"/>
	<path class="st38" d="M77.7,176.6c1.4-3.2,2.6-6.5,3.4-9.6c-14.2-6.2-30.6-9.9-44.9-14.9c-2.9-1-5.8-2-8.6-3
		c-1.9,1.8-3.8,3.8-5.7,6.1C40.5,162.3,59.1,169.5,77.7,176.6z"/>
	<path class="st38" d="M82.8,156.9c0.1-2.1,0.1-4.2-0.2-6.2c-1.1-7.6-6.8-13.5-14.3-15.3c-7.3-1.7-18.3-1.9-30.7,5.8
		C52.6,146.6,67.6,151.9,82.8,156.9z"/>
	<path class="st39" d="M304.9,175.8c8.6-3.7,16.8-8.1,25.1-12.5c-2.9-3.1-7.1-5.2-11.9-5.2c-8.9,0-16,6.9-16,15.4
		c0,1.1,0.1,2.2,0.4,3.2C303.2,176.4,304.1,176.2,304.9,175.8z"/>
	<path class="st39" d="M313.3,187.8c-0.2,0.1-0.5,0.2-0.7,0.3c1.7,0.6,3.5,1,5.5,1c7.4,0,13.5-4.8,15.4-11.3
		C326.8,181.3,320.2,184.8,313.3,187.8z"/>
	<path class="st40" d="M246.4,200.9c-1,7.2-8.4,12.1-16.5,11c-8.2-1.1-14-7.8-13.1-14.9c1-7.2,8.4-12.1,16.5-11
		C241.5,187,247.3,193.7,246.4,200.9z"/>
	<path class="st40" d="M239.7,226.2c-0.5,2.9-4,4.6-7.9,4c-3.9-0.7-6.6-3.5-6.1-6.4c0.5-2.9,4-4.6,7.9-4
		C237.4,220.5,240.2,223.3,239.7,226.2z"/>
	<path class="st40" d="M320.6,138.1c-0.6,2.3-3.3,3.7-6,3c-2.7-0.7-4.4-3.2-3.8-5.5c0.6-2.3,3.3-3.7,6-3
		C319.5,133.3,321.2,135.8,320.6,138.1z"/>
</g>
</svg>
