<?xml version="1.0" encoding="utf-8"?>
<!-- Generator: Adobe Illustrator 24.0.2, SVG Export Plug-In . SVG Version: 6.00 Build 0)  -->
<svg version="1.1" id="Layer_1" xmlns="http://www.w3.org/2000/svg" xmlns:xlink="http://www.w3.org/1999/xlink" x="0px" y="0px"
	 viewBox="0 0 1370 742" style="enable-background:new 0 0 1370 742;" height="742" width="1370" xml:space="preserve">
<style type="text/css">
	.st0{fill:#949BC4;}
	.st1{fill:#7A85AE;}
	.st2{opacity:0.5;fill:#B3B8DD;}
	.st3{fill:#B3B8DD;}
	.st4{fill:#D9D3C8;}
	.st5{fill:#C6BFB0;}
	.st6{fill:#EAE5E1;}
	.st7{fill:#00A7BD;}
	.st8{opacity:0.5;fill:#00AEC7;}
	.st9{opacity:0.55;fill:#00AEC7;}
	.st10{fill:#00AEC7;}
	.st11{fill:#017F91;}
	.st12{fill:#015F70;}
	.st13{fill:#D7D6D6;}
	.st14{opacity:0.32;fill:#989898;}
	.st15{fill:#EE2B2D;}
	.st16{opacity:0.5;fill:#A6926C;}
	.st17{fill:#CACACA;}
	.st18{fill:#484848;}
	.st19{fill:#F9A04B;}
	.st20{opacity:0.55;fill:#F9A04B;}
	.st21{opacity:0.55;fill:#F0932D;}
	.st22{fill:#7CD0DE;}
	.st23{fill:url(#SVGID_1_);}
	.st24{fill:url(#SVGID_2_);}
	.st25{fill:url(#SVGID_3_);}
	.st26{fill:url(#SVGID_4_);}
	.st27{fill:url(#SVGID_5_);}
	.st28{fill:url(#SVGID_6_);}
	.st29{fill:url(#SVGID_7_);}
	.st30{fill:url(#SVGID_8_);}
	.st31{fill:url(#SVGID_9_);}
	.st32{fill:url(#SVGID_10_);}
	.st33{fill:url(#SVGID_11_);}
	.st34{fill:url(#SVGID_12_);}
	.st35{fill:url(#SVGID_13_);}
	.st36{fill:url(#SVGID_14_);}
	.st37{fill:url(#SVGID_15_);}
	.st38{fill:#F7943B;}
	.st39{opacity:0.55;fill:#D1943A;}
	.st40{fill:url(#SVGID_16_);}
	.st41{fill:url(#SVGID_17_);}
	.st42{opacity:0.75;fill:#68C0D6;}
	.st43{opacity:0.75;fill:#98D4E3;}
	.st44{fill:url(#SVGID_18_);}
	.st45{fill:url(#SVGID_19_);}
	.st46{fill:url(#SVGID_20_);}
	.st47{opacity:0.55;fill:url(#SVGID_21_);}
	.st48{fill:url(#SVGID_22_);}
	.st49{fill:url(#SVGID_23_);}
	.st50{fill:url(#SVGID_24_);}
	.st51{fill:url(#SVGID_25_);}
	.st52{fill:url(#SVGID_26_);}
	.st53{opacity:0.32;fill:url(#SVGID_27_);}
	.st54{opacity:0.75;fill:url(#SVGID_28_);}
	.st55{opacity:0.55;fill:#687A87;}
	.st56{opacity:0.75;fill:#24A4C4;}
	.st57{fill:url(#SVGID_29_);}
	.st58{fill:url(#SVGID_30_);}
	.st59{fill:url(#SVGID_31_);}
	.st60{opacity:0.75;fill:url(#SVGID_32_);}
	.st61{fill:url(#SVGID_33_);}
	.st62{fill:#C0C8CD;}
	.st63{fill:url(#SVGID_34_);}
	.st64{opacity:0.75;fill:url(#SVGID_35_);}
	.st65{opacity:0.32;fill:url(#SVGID_36_);}
	.st66{opacity:0.32;fill:url(#SVGID_37_);}
	.st67{opacity:0.32;fill:url(#SVGID_38_);}
	.st68{opacity:0.32;fill:#687A87;}
	.st69{fill:url(#SVGID_39_);}
	.st70{opacity:0.75;fill:#C0C8CD;}
	.st71{fill:url(#SVGID_40_);}
	.st72{fill:url(#SVGID_41_);}
	.st73{fill:url(#SVGID_42_);}
	.st74{fill:url(#SVGID_43_);}
	.st75{fill:url(#SVGID_44_);}
	.st76{fill:url(#SVGID_45_);}
	.st77{fill:url(#SVGID_46_);}
	.st78{fill:url(#SVGID_47_);}
	.st79{fill:url(#SVGID_48_);}
	.st80{fill:url(#SVGID_49_);}
	.st81{fill:url(#SVGID_50_);}
	.st82{fill:#8BA3AA;}
	.st83{opacity:0.55;}
	.st84{opacity:0.55;fill:#8BA3AA;}
	.st85{opacity:0.65;fill:#A9B6BD;}
	.st86{opacity:0.65;fill:#7E929B;}
	.st87{fill:#94A9B0;}
	.st88{fill:#B3C2C7;}
	.st89{fill:#D8DFE2;}
	.st90{fill:#7E929B;}
	.st91{fill:url(#SVGID_51_);}
	.st92{opacity:0.55;fill:url(#SVGID_52_);}
	.st93{fill:#A2B6BD;}
	.st94{fill:url(#SVGID_53_);}
	.st95{fill:url(#SVGID_54_);}
	.st96{opacity:0.55;fill:url(#SVGID_55_);}
	.st97{opacity:0.55;fill:#84959D;}
	.st98{opacity:0.55;fill:url(#SVGID_56_);}
	.st99{opacity:0.55;fill:url(#SVGID_57_);}
	.st100{fill:#E8ECEE;}
	.st101{fill:#535757;}
	.st102{fill:#8EA2AD;}
	.st103{fill:#C7D1D2;}
	.st104{opacity:0.55;fill:#A2B6BD;}
	.st105{fill:#B7B9BC;}
	.st106{fill:#E3E4E5;}
	.st107{fill:#90A2A3;}
	.st108{opacity:0.55;fill:#90A2A3;}
	.st109{fill:#91A2AB;}
	.st110{opacity:0.65;fill:#5F747F;}
	.st111{fill:#687C87;}
	.st112{fill:url(#SVGID_58_);}
	.st113{opacity:0.65;fill:#6E818C;}
	.st114{fill:#6E818C;}
	.st115{fill:#B1BEC1;}
	.st116{opacity:0.55;fill:#B1BEC1;}
	.st117{fill:#80959F;}
	.st118{fill:#DAE4E7;}
	.st119{opacity:0.65;fill:#8E9EA8;}
	.st120{opacity:0.55;fill:#C7D1D2;}
	.st121{opacity:0.55;fill:#E3E4E5;}
	.st122{opacity:0.55;fill:#F6F6F7;}
	.st123{fill:#6CAF44;}
	.st124{fill:#5C9741;}
</style>
<g>
	<g>
		<path class="st0" d="M64.8,600.4c13,7.2,34.2,11.5,49.3,10.3c25.7-2,52-11.9,65.9-32.9c-4.6-5.7-11.4-11.4-18-18.1
			c-26.1-26.2-74.7-20.5-104.2-11.8c-4.5,1.3-8.4,2.9-11.8,4.7C40.3,573.6,44.1,589.1,64.8,600.4z"/>
		<path class="st1" d="M42.6,607.5c30.1,24.4,68.6,26.7,90.9,20.7c20.2-5.4,37.9-13,46.1-22.6c9.5-11.1,7.2-19.4,0.4-27.8
			c-13.9,21-40.2,30.9-65.9,32.9c-15,1.2-36.2-3.1-49.3-10.3c-20.6-11.3-24.5-26.8-18.8-47.9C18.2,566.8,25.4,593.6,42.6,607.5z"/>
		<path class="st2" d="M86.4,555c-15.8,3.4-38.1,15.6-19.1,32.2c18.1,15.8,53,17.1,74.8,10.9c8.4-2.4,17.5-7.7,17.1-17.4
			C158.8,569.8,113,549.3,86.4,555z"/>
		<path class="st3" d="M136.4,582.6c-2.5-5.6-20.5-5-25.3-5.5c-8.2-0.8-17-2.2-25.2-2.1c-5.7,0.1-11.1,4-6.6,9.8
			c3,3.8,9.6,5.2,14,6.4c7.1,2.1,14.4,3.2,21.8,3.3C124.4,594.8,140.9,592.5,136.4,582.6z"/>
	</g>
	<g>
		<g>
			<path class="st4" d="M172.6,504.1c23.3,6.5,47.5,11.9,71.8,8c41.6-6.6,73.8-35.3,100-66.6c-12.3-23.3-45.7-43-69.9-49.9
				c-27.5-7.8-51.2,8.4-75.9,19.8c-23.7,11-57.2,20.6-68.2,46.6c-4.6,11-5.3,20.5-3.1,28.9c0,0,0.1,0,0.1,0.1
				C140.8,490,160.1,500.5,172.6,504.1z"/>
			<path class="st5" d="M234,543.1c33.8,1.5,61.7-14.6,88.7-37.7c16-13.7,32.4-38.8,22.6-58.8c-0.2-0.4-0.5-0.7-0.7-1.1
				c-26.2,31.4-58.5,60-100,66.6c-24.3,3.9-48.5-1.5-71.8-8c-12.5-3.5-31.9-14.1-45.1-13.2c0,0-0.1,0-0.1-0.1
				C137.4,529.8,209.5,542,234,543.1z"/>
		</g>
		<path class="st5" d="M253.1,458.5c-7.9-4.9-15.4,2.5-22.1,5.7c-20.3,9.7-26.7-2-41.2-12.2c-3.3-2.3-6.3-3.8-10.4-4
			c-4-0.1-20.8,11.3-20.6,21.5c0.2,7.4,15.3,13.4,22.2,17c11.4,5.9,23.2,8.7,35.9,5.6c7.3-1.8,13.9-5.2,20.5-8.9
			c4.5-2.5,13.7-3.8,19.3-12.6C259.5,466.2,257.6,461.2,253.1,458.5z"/>
		<path class="st6" d="M284.1,413.2c-13.1-5.2-25.8-3.9-38.5,0.2c-11.8,3.8-30.4,6.5-33.3,15.1c-2.4,7.2,4.7,10,10.6,10.9
			c8.3,1.3,15.2-3.6,23.1-4.7c10.2-1.4,26,7,33,13.5c1.9,1.7,2.5,4.1,4.6,5.7c9.9,7.4,26.8,2,36.9-2.6c1.4-0.7,2-2.3,2.1-3.7
			C324.1,430.3,297.3,418.4,284.1,413.2z"/>
	</g>
	<g>
		<path class="st7" d="M406.4,452.1c0,0-51.1,16.3-34.7,34.7c16.3,18.4,173.6,59.2,311.5,41.9c137.9-17.4,219.5-42.9,211.4-57.2
			c-8.2-14.3-44.8-12-153.9-8.2C631.6,467.1,406.4,452.1,406.4,452.1z"/>
		<path class="st8" d="M839.9,500.4c-22.6,6-51.5,12.1-86.1,17.8c3.7-5.2,7.3-10.4,10.1-16.1c6.4-12.8,8.4-23.8,8.2-37.8
			c29-1,51.5-1.8,69-1.9C841.3,475.1,840.4,487.8,839.9,500.4z"/>
		<path class="st9" d="M648.7,513.1c-124,8.6-242.5-28.7-275.7-42.9c8.3-8.8,25.8-15.4,31.6-17.4c46,2.9,241.1,14.7,341.9,11.2
			c54.6-1.9,91.9-3.5,117-2.9c5.3,0.3,9.8,0.8,13.7,1.5C866.7,469.1,805.1,502.2,648.7,513.1z"/>
		<path class="st10" d="M399.4,429.5c0,0-37.7,14.5-29,24.2c8.7,9.7,104.7,50.3,277.2,42.2c172.5-8.1,274.1-41.8,238.9-59.9
			c-44.2-22.8-156.6,19.9-280.7,21.2C496.9,458.3,399.4,429.5,399.4,429.5z"/>
		<path class="st8" d="M787.9,438.3c26.1-4.1,49-7.1,67.4-6.5c-3,5.7-5.5,11.6-7,17.8c-1.6,6.8-2.3,13.4-2.5,19.9
			c-18.9,5.2-43.3,10.2-72.3,14.4C779.9,469.4,786.4,454,787.9,438.3z"/>
		<path class="st9" d="M848.8,450.2c-23.1,6-46.2,12.9-69.5,18.3c-48.7,11.4-106.1,10.3-156.1,11c-47.5,0.7-176,4.5-244-40.1
			c8.8-5.6,20.2-9.9,20.2-9.9s97.4,28.8,206.4,27.7c109.6-1.1,210-34.6,262.5-26.7C873.9,437.3,858.8,447.6,848.8,450.2z"/>
		<path class="st10" d="M393,404.2c0,0-24.2,3.2-18.8,14c5.4,10.7,38.2,47.8,187,52.7c162.7,5.4,329.1-22.6,307.6-57.5
			C847.3,378.4,498.3,388.1,393,404.2z"/>
		<path class="st8" d="M790.4,426.7c3-9,5.7-17.9,7-27.3c27.3,2.6,48.4,6.5,59.3,11.8c-0.6,8.5-1.4,17-2,25.6
			c-16.9,8.6-37.2,14.4-68.8,20.1C787,446.3,787,437,790.4,426.7z"/>
		<path class="st9" d="M381,407.4c5.5-2.3,12-3.2,12-3.2c98.6-15.1,410.8-24.5,467.9,3c-10.8,4.6-20.9,10.7-31.4,16
			c-19.6,10-40.1,16-61.8,19.7c-47.1,7.9-97.1,12.7-144.8,12.9c-50.8,0.2-100.9-8.4-151.4-11.9C425.6,440.6,390.9,416.9,381,407.4z"
			/>
		<path class="st10" d="M628.8,445.4c0,0-120.3-1.6-184.8-16.1c-64.5-14.5-90.3-52.2,3.8-65c94.1-12.9,340.2-29.7,407.9,20.3
			C923.4,434.6,639,445.6,628.8,445.4z"/>
		<path class="st9" d="M855.7,384.6c3.4,2.5,5.9,4.9,7.6,7.3c-0.2,1.1-0.3,2.3-0.4,3.4c0,2.2,0,4.4-0.3,6.6c0,0.4-0.2,1.2-0.3,1.8
			c-0.4,1.4-0.8,2.9-1.3,4.2c-0.1,0.1-0.1,0.2-0.1,0.3c-0.1,0.1-0.1,0.2-0.2,0.3c0,0.1-0.1,0.2-0.1,0.2
			c-9.7,8.3-31.5,14.8-58.1,19.9c0.1-0.5,0.2-1.1,0.3-1.6c2.2-15.1,3.2-32.1-5.6-45.4c-11.8-17.9-33.9-17.8-53.1-20.1
			c-23.3-2.8-45.8-4.2-69.3-3c-11.4,0.6-22.4,1.2-33.4-2c-7.3-2.1-14.6-4-22-5.3C715.2,348.9,816,355.3,855.7,384.6z"/>
		<path class="st11" d="M622,424.3c0,0-101.4-1-155.7-9.8c-54.3-8.9-76.1-31.9,3.2-39.7c79.2-7.9,286.6-18.2,343.7,12.4
			C870.2,417.8,630.5,424.5,622,424.3z"/>
		<path class="st12" d="M813.1,403.2c0.3,0.2,0.6,0.3,0.9,0.5c-36.2,16.6-185.3,20.7-192.1,20.6c0,0-101.4-1-155.7-9.8
			c-19.3-3.1-34.4-8.1-42.4-13.5c7.5-4.2,22.1-7.9,45.6-10.2C548.7,382.9,756.1,372.7,813.1,403.2z"/>
		<path class="st10" d="M617.5,562.9c42.7,4.7,60.5,3.6,78.9-0.1c29.3-5.8,51.4-18.3,69.7-46.1c16.8-25.6,51.6-100.1,60.3-132.5
			c0,0,0-0.1,0-0.1c1.6-6.1-2-11.9-7.7-14.6c-10.5-4.9-26.1-8.4-51.7-11.5c-30-3.5-76.6-5.7-140.8-5.4c0,0,62.3-31.8,183.2-18.1l0,0
			c71,9.8,60.3,51.4,26.5,116c-33.8,64.7-41,106.2-102.8,131c-43.2,17.3-77.4,16.5-120.6,6.6C612.4,588,613.9,573.7,617.5,562.9z"/>
		<g>
			<path class="st13" d="M612.8,588l-31.3-9.4l10.2-27.8l31,12.8C624.7,568.5,621.7,578.5,612.8,588z"/>
			<path class="st14" d="M604.9,574.3c-1.9,3.2-3.8,6.4-5.9,9.5l-17.5-5.3l10.2-27.8l20.8,8.6C612,560.7,606.7,571.2,604.9,574.3z"
				/>
			<path class="st15" d="M512.7,516.7c0,0,44.9,12.1,53.6,14.7c8.6,2.6,29.4,15.1,29.6,26c0.2,10.9-5.4,19-6.2,20.5
				c-0.8,1.5-23.9,6-38.2,1.7c-14.3-4.3-61.9-20.4-61.9-20.4L512.7,516.7z"/>
			<path class="st16" d="M581.2,539c7.6,5.1,14.6,12,14.7,18.3c0.2,10.9-5.4,19-6.2,20.5c-0.7,1.3-16.9,4.6-30.5,3.2
				C568.6,568.3,575.6,554.3,581.2,539z"/>
			<path class="st16" d="M522.6,547.3c-4.4,5.9-8.8,12.2-12.9,18.7c-11.2-3.7-20.1-6.7-20.1-6.7l23.1-42.5c0,0,13.9,3.7,27.8,7.5
				C534,531.4,528.2,539.7,522.6,547.3z"/>
			<polygon class="st17" points="466.1,580 439.4,611.3 425.1,602.2 444.8,568.2 			"/>
			<path class="st14" d="M439.4,589.7c-2.4-0.7-4.6-0.9-6.6-0.6l12.1-20.8l21.3,11.8l-16.7,19.5
				C448.2,595.2,445.1,591.4,439.4,589.7z"/>
			<path class="st18" d="M439.4,611.3c0,0-1-11.3-14.3-9.1C425.1,602.2,426.9,615.4,439.4,611.3z"/>
			<path class="st19" d="M524.8,512.7c0,0-13.2-29.6-46.5-27.3l-36.8,66.5l-4.2,24.8l22.1,15.1l21.7-13.4L524.8,512.7z"/>
			<path class="st20" d="M460.7,551c-2.1-1-3-1.2-5.8-2c3.4-7.2,6.7-14.3,10.2-21.4c5.9-12.1,12.1-24.3,17.6-36.7
				c3.7,1,7.3,2.1,10.8,3.5L460.7,551z"/>
			<path class="st21" d="M470.3,557.7c5.5-5.9,9.8-12.9,13.5-20.1c6.9-13.4,13.7-27.1,19-41.2c12,7.4,17.1,18.9,17.1,18.9
				l-37.4,56.2C479.7,566,475.1,561.6,470.3,557.7z"/>
			<path class="st13" d="M466.7,560.5c7.2,5.6,10.3,10.2,13.3,18.5l-20.7,12.7l-22.1-15.1l4.2-24.8
				C441.5,551.9,455.3,551.6,466.7,560.5z"/>
			<path class="st14" d="M467.7,561.4c6.5,5.2,9.5,9.8,12.3,17.7l-20.7,12.7l-6.3-4.3C460,580,464.6,571.1,467.7,561.4z"/>
		</g>
		<g>
			<path class="st22" d="M631.8,741H138.8c4.7-5.7,14.7-8.8,21.8-10.7c27.3-7.3,199.2-12.8,227.7-14.6c6.8-0.4,46.7-2.3,34.3-15.5
				c-5.6-6-19.9-4.1-27.2-4.1c-13.9-0.1-27.3,1.3-40.9-1.5c-18.7-3.9-44.5-12.2-24.8-29.1c13-11.1,32.6-15.6,50.4-15.5
				c20,0.1,39.7-1,59.1-5.2c9.1-2,25.3-5.1,21.9-16.1c-2.5-8.1-7.2-11.5-15.2-13.6c11.4-5.1,30.8-2.7,43.1,0
				c14,3.1,39.7,12.2,40.5,27c1,19.4-42.4,15.1-57.3,18.4c-11.4,2.5-45.9,15.3-29.2,31c6.8,6.4,22.8,4.5,31.3,4.4
				c16.8-0.3,33.5-4.1,50-6.4c29.2-4.1,60.9-3,90,6.8c13.2,4.4,25.9,9.9,30.6,22.5C648.4,728.7,641.2,736.6,631.8,741z"/>
			
				<radialGradient id="SVGID_1_" cx="927.7046" cy="665.3264" r="124.7385" gradientTransform="matrix(-1 0 0 0.8768 1370 49.9359)" gradientUnits="userSpaceOnUse">
				<stop  offset="8.556151e-02" style="stop-color:#DDF1F5"/>
				<stop  offset="1" style="stop-color:#B1E1E9"/>
			</radialGradient>
			<path class="st23" d="M470.9,628.9c11.5,0.2,22.4,3.6,34.6,3.5c-6.4,4.2-14,7.5-22.8,6.1C477.7,637.8,458.2,628.7,470.9,628.9z"
				/>
			
				<radialGradient id="SVGID_2_" cx="925.9947" cy="664.7098" r="123.6709" gradientTransform="matrix(-1 0 0 0.8768 1370 49.9359)" gradientUnits="userSpaceOnUse">
				<stop  offset="8.556151e-02" style="stop-color:#DDF1F5"/>
				<stop  offset="1" style="stop-color:#B1E1E9"/>
			</radialGradient>
			<path class="st24" d="M379.9,658.4c9.6,4.2,19,4.1,29.4,4.7c-1.9,3.8-18.6,6.1-24,5.9C372.4,668.5,368.3,653.4,379.9,658.4z"/>
			
				<radialGradient id="SVGID_3_" cx="919.6491" cy="658.4136" r="124.2825" gradientTransform="matrix(-1 0 0 0.8768 1370 49.9359)" gradientUnits="userSpaceOnUse">
				<stop  offset="8.556151e-02" style="stop-color:#DDF1F5"/>
				<stop  offset="1" style="stop-color:#B1E1E9"/>
			</radialGradient>
			<path class="st25" d="M360.7,675.7c11.8,4.3,24.2,5.5,36.6,4c-5.7,5.9-19.5,7.5-28.3,6.8c-3.5-0.3-9.8,0.4-12-2.9
				C354.2,679.3,356.1,674,360.7,675.7z"/>
			
				<radialGradient id="SVGID_4_" cx="923.3182" cy="665.9625" r="123.2077" gradientTransform="matrix(-1 0 0 0.8768 1370 49.9359)" gradientUnits="userSpaceOnUse">
				<stop  offset="8.556151e-02" style="stop-color:#DDF1F5"/>
				<stop  offset="1" style="stop-color:#B1E1E9"/>
			</radialGradient>
			<path class="st26" d="M454.9,711.6c12.8,1.3,24.4,0.2,36.2-1.4c-1.2,8.3-18.5,8.9-26.5,8.8c-2.7,0-10.4,0.7-12.4-1.2
				C448.3,713.9,450.8,711.2,454.9,711.6z"/>
			
				<radialGradient id="SVGID_5_" cx="925.3972" cy="669.9208" r="123.9819" gradientTransform="matrix(-1 0 0 0.8768 1370 49.9359)" gradientUnits="userSpaceOnUse">
				<stop  offset="8.556151e-02" style="stop-color:#DDF1F5"/>
				<stop  offset="1" style="stop-color:#B1E1E9"/>
			</radialGradient>
			<path class="st27" d="M538.6,698.6c14,5.1,24.3,2.2,38.2,4.1c-6.2,3.3-39.4,11.1-39.5-2.1C537.3,699.7,537.6,698.7,538.6,698.6z"
				/>
			
				<radialGradient id="SVGID_6_" cx="923.7441" cy="664.7842" r="128.0711" gradientTransform="matrix(-1 0 0 0.8768 1370 49.9359)" gradientUnits="userSpaceOnUse">
				<stop  offset="8.556151e-02" style="stop-color:#DDF1F5"/>
				<stop  offset="1" style="stop-color:#B1E1E9"/>
			</radialGradient>
			<path class="st28" d="M580.6,720.9c13-0.2,26.1,3.2,36.9-3c-0.3,12-34.2,15.3-38.8,3.2C580.3,720.9,578.9,721,580.6,720.9z"/>
			
				<radialGradient id="SVGID_7_" cx="923.4918" cy="661.1166" r="129.8518" gradientTransform="matrix(-1 0 0 0.8768 1370 49.9359)" gradientUnits="userSpaceOnUse">
				<stop  offset="8.556151e-02" style="stop-color:#DDF1F5"/>
				<stop  offset="1" style="stop-color:#B1E1E9"/>
			</radialGradient>
			<path class="st29" d="M511,724c6.7-0.6,17.8,5.2,26.7,4.9c9.9-0.3,18.6,0,4.6,4.7c-6.1,2-18.4,3.2-25.3,1.6
				C509.3,733.4,499.7,725.1,511,724z"/>
			
				<radialGradient id="SVGID_8_" cx="922.4976" cy="657.4912" r="129.5142" gradientTransform="matrix(-1 0 0 0.8768 1370 49.9359)" gradientUnits="userSpaceOnUse">
				<stop  offset="8.556151e-02" style="stop-color:#DDF1F5"/>
				<stop  offset="1" style="stop-color:#B1E1E9"/>
			</radialGradient>
			<path class="st30" d="M349.8,741c-0.2-0.4-0.3-0.7-0.4-1.1c0,0-0.3-3.7,2.9-2.9c5.1,1.7,11.2,3.2,17.4,3.9H349.8z"/>
			
				<radialGradient id="SVGID_9_" cx="925.2604" cy="664.1595" r="124.6486" gradientTransform="matrix(-1 0 0 0.8768 1370 49.9359)" gradientUnits="userSpaceOnUse">
				<stop  offset="8.556151e-02" style="stop-color:#DDF1F5"/>
				<stop  offset="1" style="stop-color:#B1E1E9"/>
			</radialGradient>
			<path class="st31" d="M409.9,675.3c6.9-0.4,14.4,0.7,21.4,1.2c-1.8,5-19.7,5.3-23.5,0.6C407.8,677,407.8,675.5,409.9,675.3z"/>
			
				<radialGradient id="SVGID_10_" cx="935.3052" cy="650.789" r="123.4679" gradientTransform="matrix(-1 0 0 0.8768 1370 49.9359)" gradientUnits="userSpaceOnUse">
				<stop  offset="8.556151e-02" style="stop-color:#DDF1F5"/>
				<stop  offset="1" style="stop-color:#B1E1E9"/>
			</radialGradient>
			<path class="st32" d="M350.1,664.3c3.4,5.5-4.2,7.8-8,4.2c-0.9-0.9-0.9-2.2-0.1-3.2C345.5,661,350.1,664.3,350.1,664.3z"/>
			
				<radialGradient id="SVGID_11_" cx="922.3675" cy="660.7521" r="129.0648" gradientTransform="matrix(-1 0 0 0.8768 1370 49.9359)" gradientUnits="userSpaceOnUse">
				<stop  offset="8.556151e-02" style="stop-color:#DDF1F5"/>
				<stop  offset="1" style="stop-color:#B1E1E9"/>
			</radialGradient>
			<path class="st33" d="M424.3,725c2,0.3,4.1,1.5,5.5,2.9c2.7,2.6,3.1,5.8-3.1,5.4c-7.4-0.5-7.6-6.8-4-8.1
				C424.2,724.7,424.3,725,424.3,725z"/>
			
				<radialGradient id="SVGID_12_" cx="924.9761" cy="668.7817" r="105.1108" gradientTransform="matrix(-1 0 0 0.8768 1370 49.9359)" gradientUnits="userSpaceOnUse">
				<stop  offset="8.556151e-02" style="stop-color:#DDF1F5"/>
				<stop  offset="1" style="stop-color:#B1E1E9"/>
			</radialGradient>
			<path class="st34" d="M454.6,654.3c-3.6-3,3.4-6,7.4-3.5c1.7,1,1.5,3.2-0.2,4C459.9,655.7,457.1,656.4,454.6,654.3z"/>
			
				<radialGradient id="SVGID_13_" cx="925.9091" cy="663.5854" r="128.3991" gradientTransform="matrix(-1 0 0 0.8768 1370 49.9359)" gradientUnits="userSpaceOnUse">
				<stop  offset="8.556151e-02" style="stop-color:#DDF1F5"/>
				<stop  offset="1" style="stop-color:#B1E1E9"/>
			</radialGradient>
			<path class="st35" d="M519.6,701.8c4.4,1.7,4.6,7.4-2.2,7.5c-7.7,0.2-9.2-9.1-0.6-8.2C516.8,701.1,518.1,701.2,519.6,701.8z"/>
			
				<radialGradient id="SVGID_14_" cx="926.1928" cy="663.7125" r="129.2939" gradientTransform="matrix(-1 0 0 0.8768 1370 49.9359)" gradientUnits="userSpaceOnUse">
				<stop  offset="8.556151e-02" style="stop-color:#DDF1F5"/>
				<stop  offset="1" style="stop-color:#B1E1E9"/>
			</radialGradient>
			<path class="st36" d="M599,700.8c11.6,1.4,2,11.8-5.1,5.7c-7.6-6.5,5.7-8,10.6-2.9L599,700.8z"/>
			
				<radialGradient id="SVGID_15_" cx="919.6249" cy="661.2522" r="128.0377" gradientTransform="matrix(-1 0 0 0.8768 1370 49.9359)" gradientUnits="userSpaceOnUse">
				<stop  offset="8.556151e-02" style="stop-color:#DDF1F5"/>
				<stop  offset="1" style="stop-color:#B1E1E9"/>
			</radialGradient>
			<path class="st37" d="M569.9,735.9c-2.1,1.8-8,0.6-8.5-3.1c-0.5-4.1,4.8-4.3,7.8-2.3C570.8,731.4,571.8,734.3,569.9,735.9z"/>
		</g>
		<g>
			<path class="st38" d="M654,9.3c0,0,7.5-14.4,15.9-6.7c8.4,7.7,1.1,40.6-7,35.8c-8.1-4.8-4.3-11.3-11.8-11.1
				c-7.5,0.2-14,6.9-34.8,7.3c-20.9,0.4-22.2-7.7-29.7-6.7c-7.5,1-7.3,12.2-16.1,10.1c-3.5-0.8-4.7-6.2-5.3-9.1
				c-1.1-5.3-1.1-10.9-0.1-16.2c0.8-4.3,2.2-9.9,6.5-11.8c8-3.7,12.2,4.9,12.9,6.3c1.5,3.1,7.3-4.2,17.8-5.7
				C612.8,0,629,1,640.2,5.1C647.9,8,651.2,13.5,654,9.3z"/>
			<path class="st39" d="M570.1,6.7c2.5-2.4,7,0.5,9,3.1c2,2.5,4.2,4.6,6.4,5.4c9.9,3.4,19.9,6,30.6,5.7c10.6-0.3,21.6-1.3,32.2-2.8
				c9.6-1.3,9.6-17.6,18.3-14.5c10,3.6,3,35.2-3.7,31.6c-5.7-3.1-3.7-12-12.7-10.2c-7.1,1.4-13.5,6.1-33.8,6.5
				c-20.2,0.3-21.5-6.3-28.8-6c-9.4,0.4-9.2,9.5-15.6,9C566.3,34.1,564.4,12.1,570.1,6.7z"/>
			
				<linearGradient id="SVGID_16_" gradientUnits="userSpaceOnUse" x1="594.6997" y1="98.2139" x2="706.7998" y2="98.2139" gradientTransform="matrix(-1 0 0 1 1370 0)">
				<stop  offset="0.4973" style="stop-color:#C0C8CD"/>
				<stop  offset="1" style="stop-color:#86969F"/>
			</linearGradient>
			<path class="st40" d="M666.6,13c4.8-0.7,12.3,0.1,16.8,7c7.2,10.9,13.5,23,45.3,27c31.9,4,45.1,25.3,46.2,46.8
				c1.1,21.5-0.7,29.3-9.9,49.4c-9.2,20.1-9.7,30.9-6.5,32.3l-4.6,8.2c0,0-15.1-5.7,2.5-43.6c17.6-37.9,6.7-67-9-75.2
				c-15.7-8.2-34-6.5-49.4-15.1c-20.6-11.6-21.8-27.6-31.5-25.2C662.3,25.6,661.8,13.6,666.6,13z"/>
			
				<linearGradient id="SVGID_17_" gradientUnits="userSpaceOnUse" x1="594.696" y1="173.5023" x2="708.108" y2="173.5023" gradientTransform="matrix(-1 0 0 1 1370 0)">
				<stop  offset="0.4973" style="stop-color:#C0C8CD"/>
				<stop  offset="1" style="stop-color:#86969F"/>
			</linearGradient>
			<path class="st41" d="M757.9,163.4c-1.6,7.1-1.1,11.2,0.8,12.1l-4.6,8.2c0,0-6.3-2.5-6-14.6C750.7,166.3,754.1,164.5,757.9,163.4
				z"/>
			<path class="st42" d="M714.3,51.5c1.1-2.2,2.1-4.4,3.1-6.6c3.4,0.8,7.1,1.5,11.4,2c18.7,2.4,31,10.7,38.1,21.5
				c-1.6,1.8-3.3,3.6-4.9,5.4C750.2,60.1,732.9,52.2,714.3,51.5z"/>
			<path class="st43" d="M763.8,135.5c-1.9,3.9-3.2,7.9-4,12c-1.8-0.9-3.6-1.8-5.3-2.8c0.6-1.5,1.3-3,2-4.6
				c4.6-9.9,7.2-19.2,8.4-27.8c2.1,0.4,4.2,0.7,6.3,1.1C770.6,121.1,767.2,128.5,763.8,135.5z"/>
			
				<linearGradient id="SVGID_18_" gradientUnits="userSpaceOnUse" x1="587.5361" y1="167.0399" x2="617.7378" y2="167.0399" gradientTransform="matrix(1 0 0 1 -143.8945 0)">
				<stop  offset="0.4973" style="stop-color:#C0C8CD"/>
				<stop  offset="1" style="stop-color:#86969F"/>
			</linearGradient>
			<path class="st44" d="M470.5,183c0,0-27.9,2.1-26.8-18.8c0.5-9.7,5.6-12.8,9.8-13.1c4.9-0.4,9.6,3.3,7.8,7.6
				c-2.6,6.1-8.3,1.6-8.3,1.6s-3.2,8.1,4.3,12.3c2.8,1.5,8.2,2.1,14.1,2.2c0,0,2.1,0.8,2.4,3C474,179.2,473.3,182.1,470.5,183z"/>
			
				<linearGradient id="SVGID_19_" gradientUnits="userSpaceOnUse" x1="587.5395" y1="177.6851" x2="617.7379" y2="177.6851" gradientTransform="matrix(1 0 0 1 -143.8945 0)">
				<stop  offset="0.4973" style="stop-color:#C0C8CD"/>
				<stop  offset="1" style="stop-color:#86969F"/>
			</linearGradient>
			<path class="st45" d="M456,174.3c0.4-0.7,0.7-1.4,1.1-2c0.1,0,0.1,0.1,0.2,0.2c2.8,1.5,8.2,2.1,14.1,2.2c0,0,2.1,0.8,2.4,3
				c0.2,1.5-0.5,4.4-3.3,5.3c0,0-10.2,0.7-18-3.3C453.6,177.9,455,176.2,456,174.3z"/>
			
				<linearGradient id="SVGID_20_" gradientUnits="userSpaceOnUse" x1="797.4875" y1="183.6333" x2="833.1219" y2="183.6333" gradientTransform="matrix(1 0 0 1 -53.209 0)">
				<stop  offset="0.4973" style="stop-color:#C0C8CD"/>
				<stop  offset="1" style="stop-color:#86969F"/>
			</linearGradient>
			<path class="st46" d="M775.5,166.3c-13.8-6-31.2,23.9-31.2,23.9c10.3,19.6,22.3,8.4,22.3,8.4
				C766.3,183.8,789.3,172.3,775.5,166.3z M763.4,185c-2.6,0-4.7-1.9-4.7-4.2c0-2.3,2.1-4.2,4.7-4.2s4.7,1.9,4.7,4.2
				C768,183.1,766,185,763.4,185z"/>
			
				<linearGradient id="SVGID_21_" gradientUnits="userSpaceOnUse" x1="608.0798" y1="203.7558" x2="611.2372" y2="184.6681" gradientTransform="matrix(-1 0 0 1 1370 0)">
				<stop  offset="0.4973" style="stop-color:#C0C8CD"/>
				<stop  offset="1" style="stop-color:#86969F"/>
			</linearGradient>
			<path class="st47" d="M759.1,182.5c0.7,1.5,2.4,2.5,4.2,2.5c0.7,0,1.3-0.2,1.8-0.4c0.5,3.7,0.9,7.5,1.7,11.1
				c-0.2,0.9-0.3,1.9-0.3,2.8c0,0-5.1,4.7-11.6,2.6C755.1,195.6,755.1,187.1,759.1,182.5z"/>
			
				<linearGradient id="SVGID_22_" gradientUnits="userSpaceOnUse" x1="880.117" y1="181.5251" x2="914.4926" y2="181.5251" gradientTransform="matrix(-1 0 0 1 1370 0)">
				<stop  offset="0.4973" style="stop-color:#C0C8CD"/>
				<stop  offset="1" style="stop-color:#86969F"/>
			</linearGradient>
			<path class="st48" d="M468.8,196.3c0,0,10.7,11.7,21.1-7.9c0,0-16.2-30.4-30-24.4C446.1,170.1,469.1,181.5,468.8,196.3z
				 M467.4,178.5c0-2.3,2.1-4.2,4.7-4.2c2.6,0,4.7,1.9,4.7,4.2c0,2.3-2.1,4.2-4.7,4.2C469.5,182.7,467.4,180.8,467.4,178.5z"/>
			
				<linearGradient id="SVGID_23_" gradientUnits="userSpaceOnUse" x1="752.4371" y1="213.6666" x2="717.7459" y2="515.8445" gradientTransform="matrix(-1 0 0 1 1370 0)">
				<stop  offset="0" style="stop-color:#D2E0E6"/>
				<stop  offset="0.5027" style="stop-color:#E2E4E2"/>
				<stop  offset="1" style="stop-color:#CCD7DF"/>
			</linearGradient>
			<path class="st49" d="M702,422.1c-28.6,1.6-57.2,4.4-85.7,4.3c-15.9-0.1-31.2-0.5-46.5-0.7c-17.4-1.9-34.8-4-52.3-5.4
				c-5.4-68.9-17.1-164.8-41.4-217h280.3c0,0-32.8,128.2-48.2,218.1C706.2,421.6,704.1,421.8,702,422.1z"/>
			
				<linearGradient id="SVGID_24_" gradientUnits="userSpaceOnUse" x1="752.4371" y1="213.6666" x2="717.7459" y2="515.8445" gradientTransform="matrix(-1 0 0 1 1370 0)">
				<stop  offset="0" style="stop-color:#D2E0E6"/>
				<stop  offset="0.5027" style="stop-color:#E2E4E2"/>
				<stop  offset="1" style="stop-color:#CCD7DF"/>
			</linearGradient>
			<path class="st50" d="M702,422.1c-28.6,1.6-57.2,4.4-85.7,4.3c-15.8-0.1-31.1-0.5-46.3-0.7c-18.6-2-37.1-4.3-55.7-5.7
				c-7.2-65.3-19.7-155.8-38.2-216.8h280.3c0,0-32.8,128.2-48.2,218.1C706.2,421.6,704.1,421.8,702,422.1z"/>
			
				<linearGradient id="SVGID_25_" gradientUnits="userSpaceOnUse" x1="744.2947" y1="212.7308" x2="709.6203" y2="514.7627" gradientTransform="matrix(-1 0 0 1 1370 0)">
				<stop  offset="9.625670e-02" style="stop-color:#48616E"/>
				<stop  offset="0.4973" style="stop-color:#84959D"/>
				<stop  offset="1" style="stop-color:#86969F"/>
			</linearGradient>
			<path class="st51" d="M638,243.4c-0.7,15.3-1.6,33.8-2.6,53.8c-2.9,0-5.8,0.1-8.7,0.1c0.8-20.1,1.5-38.4,2.1-53.5
				C631.8,243.7,634.9,243.5,638,243.4z"/>
			
				<linearGradient id="SVGID_26_" gradientUnits="userSpaceOnUse" x1="759.4114" y1="214.4623" x2="724.7359" y2="516.504" gradientTransform="matrix(-1 0 0 1 1370 0)">
				<stop  offset="9.625670e-02" style="stop-color:#48616E"/>
				<stop  offset="0.4973" style="stop-color:#84959D"/>
				<stop  offset="1" style="stop-color:#86969F"/>
			</linearGradient>
			<path class="st52" d="M621.8,426.3c1.4-36.6,2.9-78.1,4.3-115.5c2.9,0,5.7-0.1,8.6-0.1c-1.8,37.5-3.8,79-5.5,115.5
				C626.8,426.3,624.3,426.3,621.8,426.3z"/>
			
				<linearGradient id="SVGID_27_" gradientUnits="userSpaceOnUse" x1="696.6551" y1="207.2626" x2="661.9641" y2="509.4391" gradientTransform="matrix(-1 0 0 1 1370 0)">
				<stop  offset="9.625670e-02" style="stop-color:#48616E"/>
				<stop  offset="0.4973" style="stop-color:#84959D"/>
				<stop  offset="1" style="stop-color:#86969F"/>
			</linearGradient>
			<path class="st53" d="M691.1,422.7c-16.5,1.1-33.1,2.3-49.6,3.1c8.3-88.2,19.8-209.4,22-222.6h66.3c-3.1,20.4-8.3,40.4-11.5,60.8
				C715.6,281.4,702.1,359.5,691.1,422.7z"/>
			
				<linearGradient id="SVGID_28_" gradientUnits="userSpaceOnUse" x1="678.1929" y1="439.7979" x2="665.181" y2="203.2854" gradientTransform="matrix(-1 0 0 1 1370 0)">
				<stop  offset="9.625670e-02" style="stop-color:#A6CAD4"/>
				<stop  offset="0.9251" style="stop-color:#84959D"/>
			</linearGradient>
			<path class="st54" d="M667.7,424.3c13.7-91.4,32-210.8,33.2-221.1h28.9c-2,13-23.3,134-38.4,219.5
				C683.5,423.2,675.6,423.8,667.7,424.3z"/>
			<path class="st55" d="M696.2,235.3c-25.9,2.6-52.1,2.8-78.1,2.6c-47-0.5-92.6-8.5-137.8-20.5c-1.3-4.9-2.6-9.6-4-14.1h280.3
				c0,0-1.8,7.2-4.8,19.3C733.5,228.2,715.2,233.3,696.2,235.3z"/>
			<path class="st56" d="M737.4,230.2c-3.2,13.8-7.1,31.4-11.3,52.5c-1.7,0.6-3.3,1.2-5,1.8c3.4-17.9,7-35.7,10.6-52.9
				C733.6,231.1,735.5,230.6,737.4,230.2z"/>
			<path class="st56" d="M702,422.1c-1.5,0.1-2.9,0.1-4.4,0.2c5.5-35.5,12.6-78.8,20.7-122.6c1.6-0.5,3.2-0.9,4.8-1.5
				c-6.5,33.8-13.7,75.3-20.6,123.7C702.3,422,702.2,422.1,702,422.1z"/>
			<g>
				
					<linearGradient id="SVGID_29_" gradientUnits="userSpaceOnUse" x1="788.024" y1="202.935" x2="787.9069" y2="203.9551" gradientTransform="matrix(-1 0 0 1 1370 0)">
					<stop  offset="9.625670e-02" style="stop-color:#48616E"/>
					<stop  offset="0.4973" style="stop-color:#84959D"/>
					<stop  offset="1" style="stop-color:#86969F"/>
				</linearGradient>
				<path class="st57" d="M579.1,203.2h5.9c0,0.1,0,0.3,0.1,0.4L579.1,203.2z"/>
				
					<linearGradient id="SVGID_30_" gradientUnits="userSpaceOnUse" x1="815.6684" y1="220.82" x2="781.1615" y2="521.3927" gradientTransform="matrix(-1 0 0 1 1370 0)">
					<stop  offset="9.625670e-02" style="stop-color:#48616E"/>
					<stop  offset="0.4973" style="stop-color:#84959D"/>
					<stop  offset="1" style="stop-color:#86969F"/>
				</linearGradient>
				<path class="st58" d="M567.9,241.2c1.1,17.5,1.4,35.2,1.9,52.8c-6.3-0.9-12.5-1.9-18.6-3c-1.9-20.4-3.6-38.8-5.2-53.7
					C553.2,238.9,560.5,240.2,567.9,241.2z"/>
				
					<linearGradient id="SVGID_31_" gradientUnits="userSpaceOnUse" x1="820.1299" y1="221.3362" x2="785.624" y2="521.8998" gradientTransform="matrix(-1 0 0 1 1370 0)">
					<stop  offset="9.625670e-02" style="stop-color:#48616E"/>
					<stop  offset="0.4973" style="stop-color:#84959D"/>
					<stop  offset="1" style="stop-color:#86969F"/>
				</linearGradient>
				<path class="st59" d="M570.3,425.7c-2.5-0.3-5-0.5-7.5-0.8c-3.2-37.5-6.9-81.1-10.4-119.8c5.9,1,11.8,2,17.7,2.8
					c0.3,8.4,0.7,16.8,1.3,25.1c2.2,30.9,3.4,61.8,4.4,92.8C574,425.7,572.1,425.7,570.3,425.7z"/>
			</g>
			
				<linearGradient id="SVGID_32_" gradientUnits="userSpaceOnUse" x1="781.2074" y1="452.1116" x2="832.6396" y2="357.7249" gradientTransform="matrix(-1 0 0 1 1370 0)">
				<stop  offset="9.625670e-02" style="stop-color:#A6CAD4"/>
				<stop  offset="0.9251" style="stop-color:#84959D"/>
			</linearGradient>
			<path class="st60" d="M524.3,420.8c-8.7-70.8-23-164.1-37.8-216.7h14.6c6.4,31.3,24.6,137.7,36.7,218
				C533.3,421.6,528.8,421.2,524.3,420.8z"/>
			
				<linearGradient id="SVGID_33_" gradientUnits="userSpaceOnUse" x1="753.5152" y1="152.5185" x2="753.14" y2="221.1757" gradientTransform="matrix(-1 0 0 1 1370 0)">
				<stop  offset="0.4973" style="stop-color:#C0C8CD"/>
				<stop  offset="1" style="stop-color:#86969F"/>
			</linearGradient>
			<path class="st61" d="M768.4,193.6l-4.9,16.9c0,0-82.7,21-161.3,16.7c-78-4.2-108.5-15.7-131.7-23.8l-5.5-13.8
				c0,0,62.3-17.2,145-19.7C689.8,167.5,754.9,191.3,768.4,193.6z"/>
			<path class="st55" d="M643.7,193.6c-1.7,11.3-3.7,22.6-5.5,33.9c-5.2,0.2-10.4,0.2-15.7,0.1v-34.1H643.7z"/>
			<path class="st55" d="M511.6,193.6h8.9c0.9,8.3,2.1,16.5,3.3,24.7c-3.4-0.7-6.6-1.3-9.7-2C513.6,208.8,512.7,201.2,511.6,193.6z"
				/>
			<path class="st62" d="M610.4,188.4h-27.4c0.1-5.7,0.3-11.5,0.2-17.2c8.3-0.6,16.9-1,25.7-1.3
				C609.3,176.1,609.8,182.3,610.4,188.4z"/>
			<path class="st62" d="M703.8,180.9c-1.2,2.6-2.5,5.1-3.7,7.6h-38.2c2.2-5.3,4.4-10.6,6.2-15.9c13.3,1.5,25.6,3.5,36.9,5.7
				C704.6,179.1,704.2,180,703.8,180.9z"/>
			<path class="st62" d="M489.2,184c6.1-1.3,13.3-2.6,21.4-4c0.3,1.6,0.6,3.1,1.1,4.8c0.4,1.2,0.7,2.5,1.1,3.7h-23
				C489.7,187,489.4,185.5,489.2,184z"/>
			<path class="st62" d="M682.8,201.6c9.7-0.1,19.2-1,28.6-2.1c-0.6,7.2-2,14.5-3.7,21.7c-16.3,2.4-35.2,4.6-55,5.8
				c-0.1-8.4-0.2-16.9-0.3-25.3C662.5,201.7,672.7,201.7,682.8,201.6z"/>
			<path class="st62" d="M733.3,203.1c0.6-2.2,1.2-4.4,1.8-6.6c7.1-0.9,14.3-1.7,21.5-2.1c2.9-0.2,5.5-0.8,7.9-1.7
				c1.5,0.4,2.9,0.7,3.8,0.9l-4.9,16.9c0,0-12.7,3.2-32.8,6.9C731.3,212.6,732.1,207.7,733.3,203.1z"/>
			<path class="st62" d="M541.3,200.2c20.3,1.4,40.6,1.1,61.1,1.1c1.3,0,2.7,0,4,0c0.1,8.7,0.3,17.4,0.3,26.1
				c-1.5-0.1-3-0.1-4.6-0.2c-22.4-1.2-40.9-3-56.4-5.2C544.2,214.8,542.6,207.5,541.3,200.2z"/>
			<path class="st62" d="M470.9,188.1c7.8,1.5,15.6,3.3,23.4,5c0.4,4.4,0.8,8.8,1.6,13.1c0.3,1.9,0.8,3.8,1.1,5.8
				c-10.6-3-18.9-6-26.5-8.6l-5.5-13.8C465,189.6,467,189,470.9,188.1z"/>
			
				<linearGradient id="SVGID_34_" gradientUnits="userSpaceOnUse" x1="752.6263" y1="234.0495" x2="749.7562" y2="169.1852" gradientTransform="matrix(-1 0 0 1 1370 0)">
				<stop  offset="8.021390e-02" style="stop-color:#D2E0E6"/>
				<stop  offset="1" style="stop-color:#AFC0CC"/>
			</linearGradient>
			<path class="st63" d="M754.8,196.1c0,0-43.3,22.1-136.6,19.6c-41.3-1.1-79.3-0.5-134.8-21.2c0,0,58-17,130-17.8
				C652.1,176.3,700.4,183.9,754.8,196.1z"/>
			
				<linearGradient id="SVGID_35_" gradientUnits="userSpaceOnUse" x1="752.6263" y1="234.0495" x2="749.7562" y2="169.1852" gradientTransform="matrix(-1 0 0 1 1370 0)">
				<stop  offset="8.021390e-02" style="stop-color:#D2E0E6"/>
				<stop  offset="1" style="stop-color:#B0C0C0"/>
			</linearGradient>
			<path class="st64" d="M754.8,196.1c0,0-43.3,22.1-136.6,19.6c-41.3-1.1-79.3-0.5-134.8-21.2c0,0,58-17,130-17.8
				C652.1,176.3,700.4,183.9,754.8,196.1z"/>
			
				<linearGradient id="SVGID_36_" gradientUnits="userSpaceOnUse" x1="811.8205" y1="231.4329" x2="808.9501" y2="166.5625" gradientTransform="matrix(-1 0 0 1 1370 0)">
				<stop  offset="9.625670e-02" style="stop-color:#48616E"/>
				<stop  offset="0.4973" style="stop-color:#84959D"/>
				<stop  offset="1" style="stop-color:#86969F"/>
			</linearGradient>
			<path class="st65" d="M542.3,210.4c-0.4-9.2-1.3-18.5-1.8-27.7c12-1.8,25.3-3.4,39.7-4.5c0.1,7.3-1.4,31.3-1.4,36.2
				C567.1,213.8,555,212.6,542.3,210.4z"/>
			
				<linearGradient id="SVGID_37_" gradientUnits="userSpaceOnUse" x1="739.1116" y1="234.6481" x2="736.2413" y2="169.7802" gradientTransform="matrix(-1 0 0 1 1370 0)">
				<stop  offset="9.625670e-02" style="stop-color:#48616E"/>
				<stop  offset="0.4973" style="stop-color:#84959D"/>
				<stop  offset="1" style="stop-color:#86969F"/>
			</linearGradient>
			<path class="st66" d="M618.9,176.7c9.2,0.1,18.9,0.6,29.1,1.5c-1.6,9.2-2.9,18.5-4.8,27.6c-0.7,3.4-1.3,6.7-1.9,10.1
				c-7,0.1-14.4,0.1-22.2-0.1C619.6,202.7,620,189.7,618.9,176.7z"/>
			
				<linearGradient id="SVGID_38_" gradientUnits="userSpaceOnUse" x1="666.7705" y1="237.8512" x2="663.9" y2="172.979" gradientTransform="matrix(-1 0 0 1 1370 0)">
				<stop  offset="9.625670e-02" style="stop-color:#48616E"/>
				<stop  offset="0.4973" style="stop-color:#84959D"/>
				<stop  offset="1" style="stop-color:#86969F"/>
			</linearGradient>
			<path class="st67" d="M712.7,208.7c-6.4,1.3-13.4,2.5-21.3,3.5c2.2-9.2,4.3-18.3,6.7-27.5c6.6,1.1,13.4,2.4,20.2,3.7
				C716,195.1,714.2,201.9,712.7,208.7z"/>
			<g>
				<path class="st68" d="M614.3,297.5c36.9-0.3,88-2.8,123.1-15.8c-0.7,3.1-1.4,6.2-2.2,9.4c-43.7,15-95.8,14.9-141.2,14.1
					c-30.5-0.6-66.9-4.6-94.2-17c-1.4-0.6-2.9-1.3-4.4-2c-0.4-2.2-0.8-4.3-1.2-6.4C532.2,293.4,575.1,297.8,614.3,297.5z"/>
				
					<linearGradient id="SVGID_39_" gradientUnits="userSpaceOnUse" x1="756.523" y1="256.3762" x2="751.1432" y2="303.2369" gradientTransform="matrix(-1 0 0 1 1370 0)">
					<stop  offset="0.4973" style="stop-color:#C0C8CD"/>
					<stop  offset="1" style="stop-color:#86969F"/>
				</linearGradient>
				<path class="st69" d="M609.8,295.2c62.4,1.5,89.6-7.2,128.4-16.9c-0.5,2-0.9,3.9-1.4,5.9c-41.1,10.8-64.7,17.6-126.5,15.9
					c-30.3-0.8-71.4-0.6-116.1-19.7c-0.3-1.5-0.6-2.9-0.8-4.4C538.2,291.3,579,294.4,609.8,295.2z"/>
				<path class="st70" d="M715.3,284.1c3.3-0.8,6.7-1.7,10.1-2.5c-0.4,2-0.8,4-1.2,6c0,0,0,0,0,0c-3.3,0.9-6.6,1.7-9.8,2.5h0
					C714.7,288,715,286.1,715.3,284.1z"/>
				<path class="st70" d="M668,293c-0.3,1.9-0.6,3.7-1,5.6h0c-2.5,0.3-5.1,0.5-7.8,0.7c0,0,0,0,0,0c-2.7,0.2-5.4,0.4-8.3,0.5
					c0,0,0,0,0,0c-5.7,0.3-11.8,0.5-18.4,0.5c0-1.7,0-3.4-0.1-5C645.8,295.1,657.4,294.3,668,293z"/>
				<path class="st70" d="M570.7,292.8c5.4,0.6,10.6,1,15.7,1.4c0,1.8,0.1,3.5,0.1,5.3c-4.7-0.2-9.5-0.5-14.5-0.9h0
					C571.5,296.6,571.1,294.7,570.7,292.8z"/>
				<path class="st70" d="M522.8,284.5c0.4,2,0.7,4,1.1,6c-2.4-0.6-4.7-1.3-7.1-2c-0.2-0.1-0.4-0.1-0.7-0.2
					c-2.2-0.7-4.3-1.4-6.5-2.1c-0.8-0.3-1.7-0.6-2.5-0.9c-1.6-0.6-3.3-1.2-4.9-1.8c-2.6-1-5.2-2-7.8-3.1c-0.3-1.5-0.6-2.9-0.8-4.4
					C503.5,279.4,513.3,282.2,522.8,284.5z"/>
			</g>
			<g>
				<path class="st68" d="M613.8,327.5c35-0.3,83-1.8,116.8-15.8c-0.7,3.1-1.4,6.2-2.1,9.4c-41.5,15-90.9,14.9-133.9,14.1
					c-28.9-0.6-63.5-4.6-89.3-17c-1.4-0.6-2.8-1.3-4.2-2c-0.4-2.2-0.8-4.3-1.2-6.4C535.9,323.4,576.6,327.8,613.8,327.5z"/>
				
					<linearGradient id="SVGID_40_" gradientUnits="userSpaceOnUse" x1="756.9981" y1="287.2156" x2="751.751" y2="332.9204" gradientTransform="matrix(-1 0 0 1 1370 0)">
					<stop  offset="0.4973" style="stop-color:#C0C8CD"/>
					<stop  offset="1" style="stop-color:#86969F"/>
				</linearGradient>
				<path class="st71" d="M609.6,325.2c59.2,1.5,84.9-7.2,121.8-16.9c-0.4,2-0.9,3.9-1.3,5.9c-39,10.8-61.4,17.6-120,15.9
					c-28.7-0.8-67.7-0.6-110.1-19.7c-0.3-1.5-0.5-2.9-0.8-4.4C541.7,321.3,580.4,324.4,609.6,325.2z"/>
				<path class="st70" d="M709.6,314.1c3.2-0.8,6.3-1.7,9.6-2.5c-0.4,2-0.8,4-1.1,6c0,0,0,0,0,0c-3.1,0.9-6.2,1.7-9.3,2.5l0,0
					C709,318,709.3,316,709.6,314.1z"/>
				<path class="st70" d="M664.7,323c-0.3,1.9-0.6,3.7-0.9,5.6l0,0c-2.4,0.3-4.9,0.5-7.4,0.7c0,0,0,0,0,0c-2.5,0.2-5.2,0.4-7.9,0.5
					c0,0,0,0,0,0c-5.4,0.3-11.2,0.5-17.5,0.5c0-1.7,0-3.4-0.1-5C643.6,325,654.7,324.2,664.7,323z"/>
				<path class="st70" d="M572.5,322.7c5.1,0.6,10.1,1,14.9,1.4c0,1.8,0.1,3.5,0.1,5.3c-4.4-0.2-9-0.5-13.8-0.9h0
					C573.3,326.6,572.9,324.7,572.5,322.7z"/>
				<path class="st70" d="M527,314.5c0.3,2,0.7,4,1,6c-2.2-0.6-4.5-1.3-6.7-2c-0.2-0.1-0.4-0.1-0.6-0.2c-2.1-0.7-4.1-1.4-6.2-2.1
					c-0.8-0.3-1.6-0.6-2.4-0.9c-1.6-0.6-3.1-1.2-4.7-1.8c-2.5-1-4.9-2-7.4-3.1c-0.3-1.5-0.5-2.9-0.8-4.4
					C508.7,309.4,518,312.2,527,314.5z"/>
			</g>
			<g>
				<path class="st68" d="M612.8,357.5c33.3-0.3,79-2.3,111.3-15.8c-0.6,3.1-1.3,6.2-2,9.4c-39.5,15-86.6,14.9-127.6,14.1
					c-27.5-0.6-60.5-4.6-85.1-17c-1.3-0.6-2.7-1.3-4-2c-0.4-2.2-0.7-4.3-1.1-6.4C538.6,353.4,577.3,357.8,612.8,357.5z"/>
				
					<linearGradient id="SVGID_41_" gradientUnits="userSpaceOnUse" x1="757.9894" y1="317.945" x2="752.8566" y2="362.6541" gradientTransform="matrix(-1 0 0 1 1370 0)">
					<stop  offset="0.4973" style="stop-color:#C0C8CD"/>
					<stop  offset="1" style="stop-color:#86969F"/>
				</linearGradient>
				<path class="st72" d="M608.7,355.2c56.4,1.5,80.9-7.2,116.1-16.9c-0.4,2-0.8,3.9-1.2,5.9c-37.2,10.8-58.5,17.6-114.3,15.9
					c-27.4-0.8-64.5-0.6-104.9-19.7c-0.2-1.5-0.5-2.9-0.8-4.4C544.1,351.3,580.9,354.4,608.7,355.2z"/>
				<path class="st70" d="M704.1,344c3-0.8,6-1.7,9.1-2.5c-0.3,2-0.7,4-1.1,6c0,0,0,0,0,0c-3,0.9-5.9,1.7-8.8,2.5l0,0
					C703.5,348,703.8,346,704.1,344z"/>
				<path class="st70" d="M661.3,353c-0.3,1.9-0.5,3.7-0.9,5.6l0,0c-2.3,0.3-4.6,0.5-7.1,0.7c0,0,0,0,0,0c-2.4,0.2-4.9,0.4-7.5,0.5
					c0,0,0,0,0,0c-5.2,0.3-10.7,0.5-16.7,0.5c0-1.7,0-3.4-0.1-5C641.2,355,651.8,354.2,661.3,353z"/>
				<path class="st70" d="M573.4,352.7c4.9,0.6,9.6,1,14.2,1.4c0,1.8,0.1,3.5,0.1,5.3c-4.2-0.2-8.6-0.5-13.1-0.9h0
					C574.2,356.6,573.8,354.6,573.4,352.7z"/>
				<path class="st70" d="M530.1,344.5c0.3,2,0.6,4,1,6c-2.1-0.6-4.3-1.3-6.4-2c-0.2-0.1-0.4-0.1-0.6-0.2c-2-0.7-3.9-1.4-5.9-2.1
					c-0.8-0.3-1.5-0.6-2.3-0.9c-1.5-0.6-3-1.2-4.5-1.8c-2.3-1-4.7-2-7.1-3.1c-0.2-1.5-0.5-2.9-0.8-4.4
					C512.7,339.4,521.5,342.2,530.1,344.5z"/>
			</g>
			
				<linearGradient id="SVGID_42_" gradientUnits="userSpaceOnUse" x1="581.0445" y1="169.5206" x2="611.2513" y2="169.5206" gradientTransform="matrix(-1 0 0 1 1370 0)">
				<stop  offset="0.4973" style="stop-color:#C0C8CD"/>
				<stop  offset="1" style="stop-color:#86969F"/>
			</linearGradient>
			<path class="st73" d="M762.1,185.5c0,0,27.9,2.1,26.8-18.8c-0.5-9.7-5.6-12.8-9.8-13.1c-4.9-0.4-9.6,3.3-7.8,7.6
				c2.6,6.1,8.3,1.6,8.3,1.6s3.2,8.1-4.3,12.3c-2.8,1.5-8.2,2.1-14.1,2.2c0,0-2.1,0.8-2.4,3C758.6,181.7,759.3,184.5,762.1,185.5z"
				/>
			
				<linearGradient id="SVGID_43_" gradientUnits="userSpaceOnUse" x1="596.0082" y1="98.194" x2="708.8542" y2="98.194" gradientTransform="matrix(1 0 0 1 -143.8945 0)">
				<stop  offset="0.4973" style="stop-color:#C0C8CD"/>
				<stop  offset="1" style="stop-color:#86969F"/>
			</linearGradient>
			<path class="st74" d="M565,13.8c0,0-13.8-4.7-21,6.2c-7.2,10.9-13.5,23-45.3,27c-31.9,4-45.1,25.3-46.2,46.8
				c-1.1,21.5,0.7,29.3,9.9,49.4c9.2,20.1,9.7,30.9,6.5,32.3c0,0-2.3,1.9-1.6,4.3c1,3.6,6.2,3.9,6.2,3.9s15.1-5.7-2.5-43.6
				c-17.6-37.9-6.7-67,9-75.2c15.7-8.2,34-6.5,49.4-15.1c23.5-13.2,20.9-32,35.5-23.7c0,0-0.4-3.9-0.3-6.6
				C564.6,14.3,565,13.8,565,13.8z"/>
			
				<linearGradient id="SVGID_44_" gradientUnits="userSpaceOnUse" x1="596.009" y1="176.4914" x2="709.4001" y2="176.4914" gradientTransform="matrix(1 0 0 1 -143.8945 0)">
				<stop  offset="0.4973" style="stop-color:#C0C8CD"/>
				<stop  offset="1" style="stop-color:#86969F"/>
			</linearGradient>
			<path class="st75" d="M468.8,175.4c1.2-0.6,1.9-2.6,1.7-6.1c3,0.5,5.9,1.1,8.9,1.7c-0.3,10.4-6,12.6-6,12.6s-5.2-0.2-6.2-3.9
				C466.5,177.3,468.8,175.4,468.8,175.4z"/>
			
				<linearGradient id="SVGID_45_" gradientUnits="userSpaceOnUse" x1="596.0093" y1="59.4183" x2="709.4018" y2="59.4183" gradientTransform="matrix(1 0 0 1 -143.8945 0)">
				<stop  offset="0.4973" style="stop-color:#C0C8CD"/>
				<stop  offset="1" style="stop-color:#86969F"/>
			</linearGradient>
			<path class="st76" d="M513.1,51.5c-1-2.2-2.1-4.4-3.1-6.6c-3.4,0.8-7.1,1.5-11.4,2c-18.7,2.4-31,10.7-38.1,21.5
				c1.6,1.8,3.3,3.6,4.9,5.4C477.2,60.1,494.5,52.2,513.1,51.5z"/>
		</g>
		
			<linearGradient id="SVGID_46_" gradientUnits="userSpaceOnUse" x1="526.0759" y1="403.5335" x2="1270.2069" y2="403.5335" gradientTransform="matrix(-1 0 0 1 1370 0)">
			<stop  offset="0.4973" style="stop-color:#C0C8CD"/>
			<stop  offset="1" style="stop-color:#86969F"/>
		</linearGradient>
		<path class="st77" d="M622.6,415.2c46.5,0,75.9-9.9,87.1-19.4c-1.4,8.5-3,17.2-4.6,25.9c-1,0.1-2,0.2-3,0.4
			c-11.2,0.6-22.3,1.4-33.5,2.2c-0.8,0.1-1.5,0.1-2.3,0.2c-6.9,0.5-13.8,0.8-20.7,1.2c-1.3,0.1-2.7,0.2-4,0.2c0,0,0,0,0,0
			c-4.1,0.2-8.2,0.3-12.3,0.3c0,0,0,0.1,0,0.1c-2.5,0.1-5,0.1-7.4,0.1c0,0,0,0,0,0c-1.8,0-3.6,0.1-5.4,0.1
			c-9.2-0.1-18.2-0.2-27.2-0.4c-6.5-0.1-12.9-0.3-19.3-0.3c-17-1.8-33.9-3.9-50.9-5.3c-2-13.2-4-26.4-5.2-39.7
			C544.5,406.2,584.3,415.2,622.6,415.2z"/>
		
			<linearGradient id="SVGID_47_" gradientUnits="userSpaceOnUse" x1="522.7917" y1="189.4111" x2="1223.9224" y2="189.4111" gradientTransform="matrix(-1 0 0 1 1370 0)">
			<stop  offset="0.4973" style="stop-color:#C0C8CD"/>
			<stop  offset="1" style="stop-color:#86969F"/>
		</linearGradient>
		<path class="st78" d="M767.4,189.2c-0.1,0.1-0.1,0.3-0.2,0.4C767.2,189.5,767.3,189.3,767.4,189.2z"/>
		
			<linearGradient id="SVGID_48_" gradientUnits="userSpaceOnUse" x1="524.3879" y1="190.8629" x2="1208.6691" y2="190.8629" gradientTransform="matrix(-1 0 0 1 1370 0)">
			<stop  offset="0.4973" style="stop-color:#C0C8CD"/>
			<stop  offset="1" style="stop-color:#86969F"/>
		</linearGradient>
		<path class="st79" d="M767,191.2c0-0.2,0-0.5,0-0.7c0,0.1-0.1,0.2-0.1,0.3C766.9,191,767,191.1,767,191.2z"/>
		
			<linearGradient id="SVGID_49_" gradientUnits="userSpaceOnUse" x1="526.3452" y1="192.2315" x2="1196.3074" y2="192.2315" gradientTransform="matrix(-1 0 0 1 1370 0)">
			<stop  offset="0.4973" style="stop-color:#C0C8CD"/>
			<stop  offset="1" style="stop-color:#86969F"/>
		</linearGradient>
		<path class="st80" d="M767.3,192.4c0-0.1-0.1-0.2-0.1-0.3C767.3,192.2,767.3,192.3,767.3,192.4z"/>
		
			<linearGradient id="SVGID_50_" gradientUnits="userSpaceOnUse" x1="522.9904" y1="187.1367" x2="1222.3491" y2="187.1367" gradientTransform="matrix(-1 0 0 1 1370 0)">
			<stop  offset="0.4973" style="stop-color:#C0C8CD"/>
			<stop  offset="1" style="stop-color:#86969F"/>
		</linearGradient>
		<path class="st81" d="M769.4,187.4c1.3,0,2.5-0.1,3.7-0.1c-0.5-0.2-1.1-0.3-1.8-0.3C770.6,186.9,770,187.1,769.4,187.4z"/>
	</g>
	<g>
		<path class="st82" d="M1360.7,258.3c-2.4-1.4-4.7-3.2-6.9-5.7c-15.8-17.1-42-8.6-55.5,5.4c-19,19.6-29.5,44.9-40.3,69.6
			c1.4,13.5,2.7,26.3,2.7,26.3c3.4-21.4,42.4-101.7,58.5-105.3c23.9-5.3,37.9,11.8,33.6,40.6c-0.8,5.4-1.7,10.7-3.1,15.8
			c-17.5,64-80.3,114.1-80.3,114.1l4.5,41.9c0,0,36.1-34.6,59-66.7c21.1-29.6,51.6-90.4,29-134
			C1361.6,259.7,1361.1,259,1360.7,258.3z"/>
		<g class="st83">
			<path class="st84" d="M1358.1,263.4c-0.4-0.8-0.9-1.4-1.3-2.2c-1.8-1.1-3.6-2.5-5.3-4.1c17.8,43.1-11,100.3-31.3,128.7
				c-16.7,23.5-40.6,48.3-52.1,59.9l2,18.3c0,0,36.1-34.6,59-66.7C1350.2,367.7,1380.7,307,1358.1,263.4z"/>
		</g>
		<path class="st85" d="M1282,410.4c-6.2,5.8-10.2,9.1-10.2,9.1l3.7,34c0,0,9.7-9.2,21.4-22C1292,424.5,1285.9,417.9,1282,410.4z"/>
		<path class="st86" d="M1352.9,289.2c-0.7,4.6-1.6,9-2.6,13.4c8.4,2.8,14.1,9,17.1,16.3c4.2-20.2,3.8-40.7-5.4-58.5
			c-0.4-0.8-0.9-1.4-1.3-2.2c-2.4-1.4-4.7-3.2-6.9-5.7c-2.6-2.8-5.5-4.9-8.5-6.4c-0.1,1.5-15-1.5-15.4,0c-0.1,0.5,9.9,3,13.8,6.9
			C1351.7,259.9,1355.4,272.6,1352.9,289.2z"/>
		<path class="st87" d="M1365.4,267.4c-9.5-24.9-26.9-32.4-43.8-32.2c-15.7,0.2-36,13-44.8,26.2c-5.6,8.5-22,34.6-21.9,35.4
			c0,0,5.9,57,5.9,57c2.8-17.7,33.2-70.9,51.2-92.4c5.5-6.5,13-11.2,21.4-12.2C1348.2,247.6,1359.3,256.7,1365.4,267.4z"/>
		<g>
			<path class="st88" d="M1321.5,235.2c-15.7,0.2-36,13-44.8,26.2c-5.6,8.5-22,34.6-21.9,35.4c0,0,0.6,5.7,1.4,13.5h7
				c0-0.2-2.8,24.3-2.8,24.3c-0.1-0.8,21.5-43.6,27.1-52.3c16.9-26.8,29.3-36.3,45.6-36.5c8.9-0.1,17.6,3.3,25.6,8.5
				C1348.8,239.8,1335.1,235,1321.5,235.2z"/>
			<path class="st88" d="M1364.4,265.8c0.3,0.5,0.7,1,1,1.6c-0.2-0.5-0.4-0.9-0.6-1.3C1364.7,265.9,1364.5,265.9,1364.4,265.8z"/>
		</g>
		<path class="st85" d="M1267.5,312.5c3-5.9,6.7-13.8,11.3-19.6c-2.6-5.2-6.2-9.8-11.1-12.5c-4.9,7.7-10.3,16.5-10.2,16.9
			c0,0,1.7,16.8,3,29.4C1262.8,322,1265.1,317.3,1267.5,312.5z"/>
		<g class="st83">
			<path class="st89" d="M1318.7,240.8c-13.1,0.2-30.1,10.9-37.4,21.9c-1.3,2-3.3,5-5.5,8.5c2.7,1.9,5,4.3,6.9,7.3
				c0.5,0.8,1,1.5,1.4,2.3c1-1.6,1.8-3.1,2.5-4.2c23.1-37.9,44.8-33.1,46.4-33C1327.3,240.7,1324.9,240.7,1318.7,240.8z"/>
		</g>
		<path class="st90" d="M1123.5,239.5c0,0,12.9-87.8,38-101.4l10.2-3.1l-13.1-3.9l-13.4,2l-5.1,2.5c0,0-34.3,28.4-42.8,107
			L1123.5,239.5z"/>
		<path class="st86" d="M1099.4,226.9c-0.8,5-1.5,10.1-2.1,15.5l26.2-2.9c0,0,0.8-5.3,2.3-13.6
			C1115.7,224.6,1109.1,224.6,1099.4,226.9z"/>
		<path class="st86" d="M1158.6,131.1l-13.4,2l-5.1,2.5c0,0-10,8.4-20.5,28.3c0.5-0.2,1-0.5,1.5-0.7c7.2-2.8,15-1.8,21.7,1.7
			c5.2-12.5,11.5-22.8,18.8-26.7l10.2-3.1L1158.6,131.1z"/>
		<linearGradient id="SVGID_51_" gradientUnits="userSpaceOnUse" x1="1187.533" y1="258.0857" x2="1150.1556" y2="583.6616">
			<stop  offset="8.021390e-02" style="stop-color:#D2E0E6"/>
			<stop  offset="0.5027" style="stop-color:#CFD4D4"/>
			<stop  offset="1" style="stop-color:#AFC0CC"/>
		</linearGradient>
		<path class="st91" d="M1073.7,251.7l-57.9,294c0,0,71.1,56.1,164.6,39.8c93.5-16.2,112.7-39.1,112.7-39.1l-38.4-298
			c0,0-19.5-19.7-93-19.7C1100.3,228.7,1073.7,251.7,1073.7,251.7z"/>
		<linearGradient id="SVGID_52_" gradientUnits="userSpaceOnUse" x1="1183.6592" y1="273.539" x2="1148.618" y2="578.7649">
			<stop  offset="8.021390e-02" style="stop-color:#D2E0E6"/>
			<stop  offset="0.5027" style="stop-color:#CFD4D4"/>
			<stop  offset="1" style="stop-color:#AFC0CC"/>
		</linearGradient>
		<path class="st92" d="M1144.3,479.9c-39.7-6-71.8-24.2-100.6-50.4L1021,543.2c0,0,67.5,52.5,156.3,37.3
			c88.8-15.2,107-36.6,107-36.6L1270.1,435C1255.8,461.9,1190.3,486.9,1144.3,479.9z"/>
		<path class="st93" d="M1161.9,228.7c-61.6,0-88.2,23-88.2,23l-2,10c32,23,73.5,23.8,92.2,23.8c35.5,0,72.1-13,92.2-27.3l-1.3-9.9
			C1254.8,248.4,1235.3,228.7,1161.9,228.7z"/>
		<linearGradient id="SVGID_53_" gradientUnits="userSpaceOnUse" x1="1096.6803" y1="247.6554" x2="1059.303" y2="573.2306">
			<stop  offset="8.021390e-02" style="stop-color:#D2E0E6"/>
			<stop  offset="0.5027" style="stop-color:#CFD4D4"/>
			<stop  offset="1" style="stop-color:#AFC0CC"/>
		</linearGradient>
		<path class="st94" d="M1097.2,405.7c2.7-12.4,3.7-35.8-8.1-44.8c-2.5-1.9-17.6,3.9-25.2,6.7c1.6,8.9,3.1,17.8,6.8,26.5
			C1074.2,402.1,1091.6,431.1,1097.2,405.7z"/>
		<linearGradient id="SVGID_54_" gradientUnits="userSpaceOnUse" x1="1107.0291" y1="248.8475" x2="1069.6522" y2="574.4197">
			<stop  offset="8.021390e-02" style="stop-color:#D2E0E6"/>
			<stop  offset="0.5027" style="stop-color:#CFD4D4"/>
			<stop  offset="1" style="stop-color:#AFC0CC"/>
		</linearGradient>
		<path class="st95" d="M1105.8,545.2c-11-23.2-21.9-47-31.6-70.9c-2.4,0.5-4.7,1-7.1,1.5c-4.7,9.7-11.5,17.5-23.3,24
			c-7,3.9-14.1,7.5-21.3,11.1l-6.8,34.7c0,0,44.6,35.1,109.5,41.7C1120.2,572.6,1111.9,558.2,1105.8,545.2z"/>
		<linearGradient id="SVGID_55_" gradientUnits="userSpaceOnUse" x1="1045.4857" y1="369.2967" x2="1211.4692" y2="527.1653">
			<stop  offset="9.625670e-02" style="stop-color:#48616E"/>
			<stop  offset="0.4973" style="stop-color:#84959D"/>
			<stop  offset="1" style="stop-color:#86969F"/>
		</linearGradient>
		<path class="st96" d="M1101.7,237.7c-1.9,11.5-53.8,303.8-59.8,324.2c6.3,3.3,13.6,6.8,21.8,10.1c8.3-64.9,31.5-292.7,46.7-336.9
			C1107.3,235.9,1104.4,236.7,1101.7,237.7z"/>
		<path class="st97" d="M1060.6,465.8c-9.1,49.3-16.7,89-18.8,96.1c6.3,3.3,13.6,6.8,21.8,10.1c2.8-21.6,7.2-61.3,12.4-106.2H1060.6
			z"/>
		<linearGradient id="SVGID_56_" gradientUnits="userSpaceOnUse" x1="1118.2675" y1="292.769" x2="1284.2537" y2="450.6402">
			<stop  offset="9.625670e-02" style="stop-color:#48616E"/>
			<stop  offset="0.4973" style="stop-color:#84959D"/>
			<stop  offset="1" style="stop-color:#86969F"/>
		</linearGradient>
		<path class="st98" d="M1227.7,242.7c-5.7,0.8-5.6,0.7-11.3,1.7c2.6,21.8,30.5,321.9,30.9,325.1c9-3,16.3-5.9,22.3-8.6
			C1263,539.7,1227.7,242.7,1227.7,242.7z"/>
		<linearGradient id="SVGID_57_" gradientUnits="userSpaceOnUse" x1="1182.8898" y1="297.9381" x2="1168.1355" y2="521.218">
			<stop  offset="9.625670e-02" style="stop-color:#48616E"/>
			<stop  offset="0.4973" style="stop-color:#84959D"/>
			<stop  offset="1" style="stop-color:#86969F"/>
		</linearGradient>
		<path class="st99" d="M1182,266.8c-0.4-5.3-0.9-10.7-1.2-16c-8,1.6-16.2,2.4-24.5,2.6c-0.8,0-1.7,0-2.5,0
			c-0.5,6.9-1.1,13.8-1.8,20.7c-3.3,34.5-16.5,250.3-28.3,313.1c17.6,1.9,36.6,1.8,56.8-1.7c8.6-1.5,16.5-3,23.9-4.6
			C1203.9,556.9,1184.3,347.7,1182,266.8z"/>
		<path class="st100" d="M1166.6,282.3c30.1,0,65.7-8.6,89-28.7l-0.8-5.3c0,0-19.5-19.7-93-19.7c-61.6,0-88.2,23-88.2,23l-1,5
			C1101.1,277.1,1127.4,282.4,1166.6,282.3z"/>
		<path class="st101" d="M1173.1,228.9c-6.1,3.7-13,5.3-20.7,7.5c-22,6.1-9.2,25.4,3.1,31.9c3.6,1.9,7.1,3.3,10.6,4.5
			c5.2,1.4,10.3,2.8,15.5,4.3c0.5,0.2,0.9,0.4,1.3,0.7c38.6-3.7,60.1-18,71.7-29.4C1254,247.6,1235.9,230.7,1173.1,228.9z"/>
		<path class="st102" d="M1146.6,258.7c-17.2-16.5,15.4-23.7,40-29.2c-7.5-0.5-15.7-0.8-24.8-0.8c-61.6,0-88.2,23-88.2,23l0,0.3
			c15.6,12,45.3,27.6,94.1,26.7c16.4-0.3,30.1-2.4,41.7-5.6C1193.1,272.4,1160.9,272.4,1146.6,258.7z"/>
		<path class="st103" d="M1236.4,278.6c0,0-2.5-80.1-36.5-129.8c-9.6-14-26.2-21.6-43-18.9c-6.4,1-12.6,2.7-16.8,5.6
			c0,0,22.5-5.2,35.4,7.7c12.9,12.9,38,83.7,39.1,135.4C1214.6,278.6,1228.9,272.9,1236.4,278.6z"/>
		<path class="st104" d="M1215.9,269.8c0.2,2.7,0.4,5.3,0.4,7.9c0,0,12-4.8,18.3,0c0,0-0.1-2.9-0.5-7.9
			C1229.1,267,1220.5,266.5,1215.9,269.8z"/>
		<path class="st105" d="M1245.2,294.1c0,11.2-9.5,20.4-21.2,20.4c-11.7,0-21.1-9.1-21.1-20.4s9.5-20.4,21.1-20.4
			C1235.7,273.8,1245.2,282.9,1245.2,294.1z"/>
		<path class="st106" d="M1245.2,291.3c0,10.5-8.8,19-19.7,19c-10.9,0-19.7-8.5-19.7-19s8.8-19,19.7-19
			C1236.4,272.4,1245.2,280.9,1245.2,291.3z"/>
		<path class="st107" d="M1236.4,291.3c0,5.8-4.9,10.5-10.9,10.5c-6,0-10.9-4.7-10.9-10.5c0-5.8,4.9-10.5,10.9-10.5
			C1231.5,280.9,1236.4,285.6,1236.4,291.3z"/>
		<path class="st108" d="M1225.5,280.9c-2.9,0-5.5,1.1-7.4,2.9c1.7-1.1,3.8-1.8,6-1.8c6,0,10.9,4.7,10.9,10.5c0,3-1.3,5.7-3.5,7.6
			c2.9-1.9,4.9-5.1,4.9-8.7C1236.4,285.6,1231.5,280.9,1225.5,280.9z"/>
		<path class="st109" d="M1001.8,377.7l76.7-24.1c0,0,10.3-2,14.3,5.9c3.9,7.9-2,13.5-2,13.5l-82.6,18L1001.8,377.7z"/>
		<path class="st110" d="M1011.4,383.5l2.1,4.3l75.3-16.4c0,0,4.3-4.2,2.5-10.4C1076.8,366.1,1023,379.9,1011.4,383.5z"/>
		<path class="st111" d="M1091,477.6c-2.6,23.8-15,41.9-27.6,40.5c-12.7-1.4-20.8-21.8-18.3-45.5c2.6-23.8,15-41.9,27.6-40.5
			C1085.4,433.5,1093.6,453.8,1091,477.6z"/>
		<path class="st82" d="M917.6,334.4c0,0,86.9,123.4,141,172.1c0,0,16.6-3.2,21-31.5c4.4-28.3-8.1-36.8-8.1-36.8L940.5,313.7
			L917.6,334.4z"/>
		<linearGradient id="SVGID_58_" gradientUnits="userSpaceOnUse" x1="930.5796" y1="386.1582" x2="1078.3646" y2="386.1582">
			<stop  offset="8.021390e-02" style="stop-color:#D2E0E6"/>
			<stop  offset="1" style="stop-color:#AFC0CC"/>
		</linearGradient>
		<path class="st112" d="M1078.4,455.6c-2.7-8-6.9-10.9-6.9-10.9L940.5,320.1l-10-3.3C941.6,324.8,1047.9,435.8,1078.4,455.6z"/>
		<path class="st113" d="M917.8,318.9l-1.5,8.4c0,0,86.9,123.4,141,172.1c0,0,11-2.6,16.2-18.2
			C1073.5,481.3,935.7,341.6,917.8,318.9z"/>
		<path class="st114" d="M926.9,251.5l15.9,64.3c0,0,1.2,9.5-4.1,18.1c-3.9,6.3-12.8,12.2-12.8,12.2l-69.9,7.3L926.9,251.5z"/>
		<path class="st103" d="M935.7,263.1c-1.3-9.4-8.4-16.7-17.7-18.8c-14.3-3.3-39.9-2-65.6,35.3c-16.9,24.5-21.1,62.9-6.8,73.4
			c8.2,6.1,22.5,4.6,36.4-3.6C911.7,331.9,939.6,291.2,935.7,263.1z"/>
		<path class="st115" d="M928.6,266.1c-1.2-8.2-7.4-14.6-15.5-16.5c-12.5-2.9-35-1.7-57.4,31c-14.8,21.5-18.5,55.1-6,64.3
			c7.2,5.4,19.7,4,31.9-3.2C907.6,326.3,932.1,290.7,928.6,266.1z"/>
		<path class="st116" d="M864.9,307.1c-7.4-4.4-12.6-10.2-16.2-16.8c-11.7,22.5-13.6,51.9-1.8,60.6c7.7,5.7,21,4.3,33.8-3.4
			c18-10.7,35.3-30.5,44.1-50.2C910.1,311.9,883.4,318.2,864.9,307.1z"/>
		<g>
			<path class="st114" d="M915.6,262.3c-0.1,2.3-2.1,4.2-4.5,4.3c-2.4,0.1-4.2-1.8-4-4.1c0.1-2.3,2.1-4.2,4.5-4.3
				S915.8,260.1,915.6,262.3z"/>
			<path class="st114" d="M917.8,284.9c-0.1,2.3-2.1,4.2-4.5,4.3c-2.3,0.1-4.1-1.7-4-4c0.1-2.3,2.1-4.2,4.5-4.3
				C916.2,280.8,918,282.6,917.8,284.9z"/>
			<path class="st114" d="M903.8,308.1c-0.1,2.3-2.2,4.3-4.5,4.4c-2.4,0.1-4.2-1.7-4.1-4c0.1-2.3,2.2-4.3,4.6-4.4
				C902.1,304,903.9,305.8,903.8,308.1z"/>
			<path class="st114" d="M879.9,310c-0.1,2.3-2.2,4.3-4.7,4.5c-2.4,0.1-4.3-1.7-4.2-4c0.1-2.4,2.2-4.4,4.7-4.5
				C878.2,305.9,880,307.7,879.9,310z"/>
			<path class="st114" d="M894.2,288.5c-0.1,2.3-2.2,4.3-4.6,4.4c-2.4,0.1-4.3-1.7-4.1-4.1c0.1-2.3,2.2-4.3,4.6-4.4
				C892.5,284.3,894.3,286.2,894.2,288.5z"/>
			<path class="st114" d="M889.6,268.1c-0.1,2.3-2.2,4.3-4.6,4.3c-2.4,0.1-4.3-1.8-4.1-4.1c0.1-2.3,2.2-4.3,4.6-4.3
				C887.8,263.9,889.7,265.7,889.6,268.1z"/>
			<path class="st114" d="M883.2,328.2c-0.1,2.3-2.2,4.4-4.6,4.5c-2.4,0.1-4.3-1.6-4.2-4c0.1-2.4,2.2-4.4,4.7-4.5
				C881.5,324.1,883.4,325.9,883.2,328.2z"/>
			<path class="st114" d="M870.4,289.3c-0.1,2.4-2.2,4.3-4.7,4.4c-2.5,0.1-4.4-1.8-4.2-4.1c0.1-2.4,2.3-4.4,4.7-4.4
				C868.7,285.1,870.6,287,870.4,289.3z"/>
			<path class="st114" d="M860.1,313.6c-0.1,2.4-2.3,4.4-4.8,4.5c-2.5,0.1-4.4-1.7-4.3-4.1c0.1-2.4,2.3-4.4,4.8-4.5
				C858.3,309.4,860.2,311.3,860.1,313.6z"/>
			<path class="st114" d="M860.9,335.9c-0.1,2.4-2.3,4.4-4.8,4.6c-2.5,0.2-4.4-1.6-4.3-4c0.1-2.4,2.3-4.4,4.8-4.6
				C859.2,331.8,861.1,333.6,860.9,335.9z"/>
		</g>
		<g>
			<path class="st117" d="M1180.4,567.9c-82.3,14.3-147.2-27.4-161.6-37.6l-3,15.3c0,0,71.1,56.1,164.6,39.8
				c93.5-16.2,112.7-39.1,112.7-39.1l-2-15.7C1284.3,536.5,1257.8,554.5,1180.4,567.9z"/>
			<path class="st118" d="M1180.4,574.4c-84.7,14.7-151-29.9-162.7-38.4l-1.1,5.4c8.3,6.2,76.2,54.4,163.8,39.2
				c84.7-14.7,108.4-34.8,112.2-38.5l-0.7-5.5C1286.4,541.5,1261,560.4,1180.4,574.4z"/>
		</g>
		<path class="st119" d="M1140.1,570.7c-62.6-1.9-109.3-31.9-121.3-40.4l-1.7,8.5l-0.5,2.5l-0.9,4.3c0,0,55.3,43.6,132.6,42.7
			C1145,582.8,1142.3,576.9,1140.1,570.7z"/>
		<path class="st120" d="M929.7,295.1c1.8-4,3.2-7.9,4.2-11.9c-17.5-7.6-37.7-12.2-55.3-18.3c-3.5-1.2-7.1-2.4-10.6-3.6
			c-2.3,2.2-4.7,4.7-7.1,7.5C883.9,277.4,906.7,286.3,929.7,295.1z"/>
		<path class="st120" d="M935.9,270.8c0.1-2.6,0.1-5.2-0.2-7.7c-1.3-9.4-8.4-16.7-17.7-18.8c-9-2.1-22.6-2.3-37.8,7.2
			C898.8,258.1,917.2,264.7,935.9,270.8z"/>
		<path class="st121" d="M1209.2,294.1c10.6-4.6,20.7-10,30.9-15.4c-3.6-3.9-8.8-6.3-14.6-6.3c-10.9,0-19.7,8.5-19.7,19
			c0,1.3,0.2,2.7,0.4,3.9C1207.2,294.9,1208.2,294.5,1209.2,294.1z"/>
		<path class="st121" d="M1219.6,308.8c-0.3,0.1-0.6,0.2-0.8,0.3c2.1,0.7,4.4,1.2,6.7,1.2c9,0,16.6-5.9,18.9-13.9
			C1236.2,300.8,1228.1,305.1,1219.6,308.8z"/>
		<path class="st122" d="M1137.2,324.9c-1.2,8.8-10.3,14.9-20.4,13.5c-10.1-1.3-17.3-9.6-16.1-18.4c1.2-8.8,10.3-14.9,20.4-13.5
			C1131.2,307.8,1138.4,316.1,1137.2,324.9z"/>
		<path class="st122" d="M1129,356.1c-0.6,3.5-5,5.7-9.8,4.9c-4.8-0.8-8.2-4.4-7.6-7.9c0.6-3.5,5-5.7,9.8-4.9
			C1126.2,349,1129.6,352.6,1129,356.1z"/>
		<path class="st122" d="M1228.5,247.7c-0.7,2.9-4,4.5-7.4,3.7c-3.3-0.9-5.4-3.9-4.7-6.8c0.7-2.9,4-4.5,7.4-3.7
			C1227.2,241.7,1229.3,244.8,1228.5,247.7z"/>
	</g>
	<g>
		<path class="st123" d="M1033.8,645c18-47.5,29.8-100.3,11.4-132.8c0,0,1.9,72.7-54.9,132.8H1033.8z"/>
		<path class="st123" d="M972.1,645h58.6c19.2-109.7-35-162.9-35-162.9C1020.1,543.2,997.3,603.1,972.1,645z"/>
		<path class="st124" d="M973.5,645h34.7c41.5-82.3-46.2-125.5-46.2-125.5C999.9,569.9,1001.4,614.7,973.5,645z"/>
		<path class="st124" d="M1159.5,645c-10.9-36.5-9.4-83,11.6-125.7c0,0-57.7,42-44.7,125.7H1159.5z"/>
		<path class="st123" d="M966,645c-3.1-33.8-23.4-75.6-74-118.5c0,0,105.7,25.7,96.6,118.5H966z"/>
		<path class="st123" d="M1164.2,645c5.8-30.7,26-67.3,68.2-101.1c0,0-96.6,14.1-97.7,101.1H1164.2z"/>
		<path class="st123" d="M1150.7,645c-48.1-64.3-23.8-132.1-23.8-132.1c-27.3,41.1-35.9,81.7-20.8,132.1H1150.7z"/>
		<path class="st123" d="M1071.5,645c-8.8-31.6-13.8-62.3,3.5-100.8c0,0-36.7,50.7-36.1,100.8H1071.5z"/>
		<path class="st124" d="M1110.6,645c-10.8-35.8-28.4-110.1-7.6-157.4c0,0-41.4,69.7-25.4,157.4H1110.6z"/>
		<path class="st123" d="M1091.1,645c-16.9-33.9-1.3-67.9,10.6-93.2c0,0-53.2,42-44.8,93.2H1091.1z"/>
		<path class="st124" d="M1075.2,645c-21.2-24.6-47.1-63.2-38.9-96.4c0,0-22,39.3-4.4,96.4H1075.2z"/>
	</g>
</g>
</svg>
