<?xml version="1.0" encoding="utf-8"?>
<!-- Generator: Adobe Illustrator 24.0.2, SVG Export Plug-In . SVG Version: 6.00 Build 0)  -->
<svg version="1.1" id="Layer_1" xmlns="http://www.w3.org/2000/svg" xmlns:xlink="http://www.w3.org/1999/xlink" x="0px" y="0px"
	 viewBox="0 0 364 626" style="enable-background:new 0 0 364 626;" height="626" width="364" xml:space="preserve">
<style type="text/css">
	.st0{fill:#75BC74;}
	.st1{fill:#44883F;}
	.st2{fill:#52994D;}
	.st3{fill:#60A95E;}
</style>
<g>
	<g>
		<path class="st0" d="M256.1,233c0,0-19.7,125.8-21.3,153.2c-1.7,27.4,0,38.8,0,38.8l4.6-1.8c0,0,4.4-75.8,8.7-105.2
			c4.2-29.4,12-85,12-85H256.1z"/>
	</g>
	<path class="st1" d="M44.6,192.3c16.9,26.6,43.2,60.2,64.9,90c10.1,13.8,28.8,62.5,37.1,110.3c9.7,55.3,9.9,194.6,9.9,194.6
		s20.6,9.6,29.7-0.9c-0.7-6.7-4.9-159.3-8.4-182.3c-4.9-32.4-10.6-63.2-31.2-100.2C125.1,265.1,67.9,210.1,44.6,192.3z"/>
	<path class="st1" d="M283.4,31.6c0,0-50.1,119.7-69.3,206.7c-19.2,87-19.5,352.1-19.5,352.1s11.8,5.2,23,1.3
		c1.7-0.6,17.2-118.7,15.1-243.2c-0.8-49.5,13.5-101.2,17.5-123C263.3,153.8,283.4,31.6,283.4,31.6z"/>
	<path class="st2" d="M41.6,72.6c0,0,26.4,144,37.1,202.3c7.6,41.9,25.7,104.4,35.2,136.4c3.8,12.6,23.5,110,27.3,181.8
		c0.3,5.1,7.9,16.8,21.7,10c-3.9-97.6-43.2-289.8-59.1-366.6C88.1,159.6,41.6,72.6,41.6,72.6z"/>
	<path class="st1" d="M118.3,4.8c0,0,24,189.6,34.3,243.5c4.5,23.3,16.2,87.4,21.7,157.3c7.3,91.8,8.1,190.6,8.1,190.6
		s12.3,13.9,22.5,0.7c5.3-84.6-9.7-311.9-23.1-377.8C168.4,153.2,118.3,4.8,118.3,4.8z"/>
	<path class="st0" d="M170.2,54c0,0,22.5,172.4,24.3,238.6c1.8,66.2,2.7,156.8,2.7,156.8l6.5-0.4c0,0-1-130.2-6.6-216.1
		C191.5,147.2,177,56,177,56L170.2,54z"/>
	<path class="st0" d="M104.8,132.9c0,0,39.2,171.4,44.1,210.5c3.2,25.8,8.1,62.6,9.5,84.9c1.3,20.1,7.4,126.6,9.8,175.9
		c2.9,3.9,8.8,0.6,8.8,0.6s-10.5-163.6-11.7-175c-2.8-25.7-7.9-72.5-12.4-103.9c-6.4-45.4-41.1-194.6-41.1-194.6L104.8,132.9z"/>
	<path class="st0" d="M250.1,87.1c0,0-29.3,147.5-36.6,230.9c-3.9,44.8-3.6,79.1-2.5,101.3c1,19.1-8.9,149.2-7.6,186.8
		c4.1,3.4,7.6,0,7.6,0s7.8-171.9,7.8-189.7c-0.1-31.9,0.1-80.4,2.1-102.5c5.7-62.2,34.6-228.5,34.6-228.5L250.1,87.1z"/>
	<path class="st0" d="M165.8,251.7c0,0,8.6,42.6,11.3,70.8c2.7,28.3,7.6,127.2,7.6,127.2l5.2-0.1c0,0-2.9-89.3-7.5-129.8
		c-4.2-37-13.4-72.6-13.4-72.6L165.8,251.7z"/>
	<path class="st2" d="M336.9,149.4c0,0-72.6,116.2-89.4,165.7c-9.6,28.3-15.1,66.8-18.1,94.5c-1.2,11.1-2.9,63.4-8.1,121.7
		c-3.7,42.1-6.6,71.4-9.5,79.5c0,0,8.3,3.8,17.4-7.3c12.2-40.1,39.7-269,52.4-298.2C294.3,276.1,336.9,176.7,336.9,149.4z"/>
	<path class="st1" d="M4.5,233.5c0,0,40.4,73.1,56.9,104.8c11.3,21.6,29.7,63.2,40.2,87.4c2.2,5,12.1,41.6,17.5,79.6
		c6.9,48.6,4.7,71,7.6,96.1c1.2,10.6,13.3,15.4,25.4,9.9C146.7,511,127.3,445,126.7,441.8c-6.7-32.2-24.2-69.4-44-109.9
		C60.9,287.4,4.5,233.5,4.5,233.5z"/>
	<path class="st1" d="M359.5,229.3c0,0-74.5,79.8-89.3,110c-9.4,19.2-15.8,54.5-19.3,77.7c-0.8,5.6-1.4,61.4-7.4,98.9
		c-8.2,52.1-19.7,97.8-19.7,97.8s16.5,5.6,24.1-8.4c31.2-81.3,22.8-189.4,24.6-198.1c4.4-22.2,10.3-53.1,16.4-63.7
		C297.4,328.7,346.3,271.2,359.5,229.3z"/>
	<path class="st3" d="M224,230.7c0,0-34.7,91.7-41.5,129.8c-6.8,38.1-6.8,172.7-7.4,199.4c-0.6,26.7,0,48.9,0,53.7
		c2.9,7,14.9,12.4,24.6,1.1c2.7-9.7,4-130.1,4.1-165.6c0.1-35.6-4.4-85.7,6.4-136.7C221,261.3,224,230.7,224,230.7z"/>
</g>
</svg>
