<?xml version="1.0" encoding="utf-8"?>
<!-- Generator: Adobe Illustrator 24.0.2, SVG Export Plug-In . SVG Version: 6.00 Build 0)  -->
<svg version="1.1" id="Layer_1" xmlns="http://www.w3.org/2000/svg" xmlns:xlink="http://www.w3.org/1999/xlink" x="0px" y="0px"
	 viewBox="0 0 438 778" style="enable-background:new 0 0 438 778;" height="778" width="438" xml:space="preserve">
<style type="text/css">
	.st0{opacity:0.2;fill:#00689A;}
	.st1{clip-path:url(#SVGID_2_);fill:#7EA840;}
	.st2{fill:#00689A;}
	.st3{fill:#53B0C7;}
	.st4{fill:#7EA840;}
	.st5{fill:#F99E45;}
	.st6{fill:#6CAF44;}
	.st7{fill:#5C9741;}
	.st8{fill:#D9D3C8;}
	.st9{fill:#C6BFB0;}
	.st10{fill:#EAE5E1;}
	.st11{fill:#6D4439;}
	.st12{fill:#805148;}
	.st13{fill:#9C6B47;}
	.st14{fill:#949BC4;}
	.st15{fill:#7A85AE;}
	.st16{fill:#B3B8DD;}
	.st17{fill:#C4C8E4;}
	.st18{fill:#4B8F46;}
	.st19{fill:#52994D;}
	.st20{fill:#FFD348;}
	.st21{fill:#60A95E;}
	.st22{fill:#98CF93;}
	.st23{fill:#8BA3AA;}
	.st24{opacity:0.55;}
	.st25{opacity:0.55;fill:#8BA3AA;}
	.st26{opacity:0.65;fill:#A9B6BD;}
	.st27{opacity:0.65;fill:#7E929B;}
	.st28{fill:#94A9B0;}
	.st29{fill:#B3C2C7;}
	.st30{fill:#D8DFE2;}
	.st31{fill:#7E929B;}
	.st32{fill:url(#SVGID_3_);}
	.st33{opacity:0.55;fill:url(#SVGID_4_);}
	.st34{fill:#A2B6BD;}
	.st35{fill:url(#SVGID_5_);}
	.st36{fill:url(#SVGID_6_);}
	.st37{opacity:0.55;fill:url(#SVGID_7_);}
	.st38{opacity:0.55;fill:#84959D;}
	.st39{opacity:0.55;fill:url(#SVGID_8_);}
	.st40{opacity:0.55;fill:url(#SVGID_9_);}
	.st41{fill:#E8ECEE;}
	.st42{fill:#535757;}
	.st43{fill:#8EA2AD;}
	.st44{fill:#C7D1D2;}
	.st45{opacity:0.55;fill:#A2B6BD;}
	.st46{fill:#B7B9BC;}
	.st47{fill:#E3E4E5;}
	.st48{fill:#90A2A3;}
	.st49{opacity:0.55;fill:#90A2A3;}
	.st50{fill:#91A2AB;}
	.st51{opacity:0.65;fill:#5F747F;}
	.st52{fill:#687C87;}
	.st53{fill:url(#SVGID_10_);}
	.st54{opacity:0.65;fill:#6E818C;}
	.st55{fill:#6E818C;}
	.st56{fill:#B1BEC1;}
	.st57{opacity:0.55;fill:#B1BEC1;}
	.st58{fill:#80959F;}
	.st59{fill:#DAE4E7;}
	.st60{opacity:0.65;fill:#8E9EA8;}
	.st61{opacity:0.55;fill:#C7D1D2;}
	.st62{opacity:0.55;fill:#E3E4E5;}
	.st63{opacity:0.55;fill:#F6F6F7;}
	.st64{fill:#8C6E2A;}
	.st65{fill:#4E4226;}
	.st66{fill:#8E732D;}
	.st67{fill:#B2933F;}
	.st68{fill:url(#SVGID_11_);}
	.st69{fill:#EBD6A2;}
	.st70{fill:#E9D397;}
	.st71{fill:#351D11;}
	.st72{fill:#016257;}
	.st73{fill:#189684;}
	.st74{fill:#DBBE7C;}
	.st75{fill:#362A14;}
	.st76{fill:#DFD0B0;}
	.st77{fill:#5F471B;}
	.st78{fill:#02574B;}
	.st79{fill:#E8BB48;}
	.st80{fill:#5E3816;}
	.st81{fill:#27190F;}
	.st82{fill:#C3966B;}
	.st83{fill:#017B6D;}
	.st84{fill:#3DBCA6;}
	.st85{fill:#0E463E;}
	.st86{fill:#7DBFB6;}
	.st87{fill:#54C2B7;}
	.st88{fill:#95D4CA;}
	.st89{fill:url(#SVGID_12_);}
	.st90{fill:#3E3126;}
	.st91{fill:#1D1813;}
</style>
<g>
	<rect x="-20" y="-2.5" class="st0" width="461.5" height="542.1"/>
	<g>
		<defs>
			<rect id="SVGID_1_" x="-7.6" y="-10.5" width="463.1" height="752.2"/>
		</defs>
		<clipPath id="SVGID_2_">
			<use xlink:href="#SVGID_1_"  style="overflow:visible;"/>
		</clipPath>
		<path class="st1" d="M459.6,711.4l-0.5-310.4c-65.7-59.3-145.6-76.3-204.2-48c-63.3,30.6-92.4,43-168,38.7
			c-32-1.8-64.8-5-96.6-13.8v333.3H459.6z"/>
	</g>
	<rect x="0" y="723.9" class="st2" width="110.1" height="54.1"/>
	<rect x="109.7" y="723.9" class="st3" width="110.1" height="54.1"/>
	<rect x="217.8" y="723.9" class="st4" width="110.1" height="54.1"/>
	<rect x="328" y="723.9" class="st5" width="110.1" height="54.1"/>
	<g>
		<path class="st6" d="M40.9,594.8c2.9-7.6,4.8-16.1,1.8-21.4c0,0,0.3,11.7-8.8,21.4H40.9z"/>
		<path class="st6" d="M30.9,594.8h9.4c3.1-17.6-5.6-26.2-5.6-26.2C38.7,578.4,35,588,30.9,594.8z"/>
		<path class="st7" d="M31.2,594.8h5.6c6.7-13.2-7.4-20.2-7.4-20.2C35.4,582.7,35.6,589.9,31.2,594.8z"/>
		<path class="st7" d="M61.1,594.8c-1.8-5.9-1.5-13.4,1.9-20.2c0,0-9.3,6.8-7.2,20.2H61.1z"/>
		<path class="st6" d="M30,594.8c-0.5-5.4-3.8-12.2-11.9-19.1c0,0,17,4.1,15.5,19.1H30z"/>
		<path class="st6" d="M61.8,594.8c0.9-4.9,4.2-10.8,11-16.3c0,0-15.6,2.3-15.7,16.3H61.8z"/>
		<path class="st6" d="M59.7,594.8c-7.7-10.4-3.8-21.3-3.8-21.3c-4.4,6.6-5.8,13.1-3.3,21.3H59.7z"/>
		<path class="st6" d="M46.9,594.8c-1.4-5.1-2.2-10,0.6-16.2c0,0-5.9,8.2-5.8,16.2H46.9z"/>
		<path class="st7" d="M53.2,594.8c-1.7-5.8-4.6-17.7-1.2-25.3c0,0-6.7,11.2-4.1,25.3H53.2z"/>
		<path class="st6" d="M50.1,594.8c-2.7-5.5-0.2-10.9,1.7-15c0,0-8.6,6.8-7.2,15H50.1z"/>
		<path class="st7" d="M47.5,594.8c-3.4-4-7.6-10.2-6.3-15.5c0,0-3.5,6.3-0.7,15.5H47.5z"/>
	</g>
	<g>
		<path class="st6" d="M393.4,530.6c2.9-7.6,4.8-16.1,1.8-21.4c0,0,0.3,11.7-8.8,21.4H393.4z"/>
		<path class="st6" d="M383.5,530.6h9.4c3.1-17.6-5.6-26.2-5.6-26.2C391.2,514.2,387.5,523.8,383.5,530.6z"/>
		<path class="st7" d="M383.7,530.6h5.6c6.7-13.2-7.4-20.2-7.4-20.2C387.9,518.5,388.2,525.7,383.7,530.6z"/>
		<path class="st7" d="M413.6,530.6c-1.8-5.9-1.5-13.4,1.9-20.2c0,0-9.3,6.8-7.2,20.2H413.6z"/>
		<path class="st6" d="M382.5,530.6c-0.5-5.4-3.8-12.2-11.9-19.1c0,0,17,4.1,15.5,19.1H382.5z"/>
		<path class="st6" d="M414.4,530.6c0.9-4.9,4.2-10.8,11-16.3c0,0-15.6,2.3-15.7,16.3H414.4z"/>
		<path class="st6" d="M412.2,530.6c-7.7-10.4-3.8-21.3-3.8-21.3c-4.4,6.6-5.8,13.1-3.3,21.3H412.2z"/>
		<path class="st6" d="M399.4,530.6c-1.4-5.1-2.2-10,0.6-16.2c0,0-5.9,8.2-5.8,16.2H399.4z"/>
		<path class="st7" d="M405.7,530.6c-1.7-5.8-4.6-17.7-1.2-25.3c0,0-6.7,11.2-4.1,25.3H405.7z"/>
		<path class="st6" d="M402.6,530.6c-2.7-5.5-0.2-10.9,1.7-15c0,0-8.6,6.8-7.2,15H402.6z"/>
		<path class="st7" d="M400,530.6c-3.4-4-7.6-10.2-6.3-15.5c0,0-3.5,6.3-0.7,15.5H400z"/>
	</g>
	<g>
		<path class="st6" d="M351.7,650c2.9-7.6,4.8-16.1,1.8-21.4c0,0,0.3,11.7-8.8,21.4H351.7z"/>
		<path class="st6" d="M341.8,650h9.4c3.1-17.6-5.6-26.2-5.6-26.2C349.5,633.6,345.8,643.2,341.8,650z"/>
		<path class="st7" d="M342,650h5.6c6.7-13.2-7.4-20.2-7.4-20.2C346.2,637.9,346.5,645.1,342,650z"/>
		<path class="st7" d="M371.9,650c-1.8-5.9-1.5-13.4,1.9-20.2c0,0-9.3,6.8-7.2,20.2H371.9z"/>
		<path class="st6" d="M340.8,650c-0.5-5.4-3.8-12.2-11.9-19.1c0,0,17,4.1,15.5,19.1H340.8z"/>
		<path class="st6" d="M372.7,650c0.9-4.9,4.2-10.8,11-16.3c0,0-15.6,2.3-15.7,16.3H372.7z"/>
		<path class="st6" d="M370.5,650c-7.7-10.4-3.8-21.3-3.8-21.3c-4.4,6.6-5.8,13.1-3.3,21.3H370.5z"/>
		<path class="st6" d="M357.8,650c-1.4-5.1-2.2-10,0.6-16.2c0,0-5.9,8.2-5.8,16.2H357.8z"/>
		<path class="st7" d="M364.1,650c-1.7-5.8-4.6-17.7-1.2-25.3c0,0-6.7,11.2-4.1,25.3H364.1z"/>
		<path class="st6" d="M360.9,650c-2.7-5.5-0.2-10.9,1.7-15c0,0-8.6,6.8-7.2,15H360.9z"/>
		<path class="st7" d="M358.4,650c-3.4-4-7.6-10.2-6.3-15.5c0,0-3.5,6.3-0.7,15.5H358.4z"/>
	</g>
	<g>
		<path class="st6" d="M214.3,555.4c2.9-7.6,4.8-16.1,1.8-21.4c0,0,0.3,11.7-8.8,21.4H214.3z"/>
		<path class="st6" d="M204.4,555.4h9.4c3.1-17.6-5.6-26.2-5.6-26.2C212.1,539,208.4,548.6,204.4,555.4z"/>
		<path class="st7" d="M204.6,555.4h5.6c6.7-13.2-7.4-20.2-7.4-20.2C208.8,543.3,209.1,550.5,204.6,555.4z"/>
		<path class="st7" d="M234.5,555.4c-1.8-5.9-1.5-13.4,1.9-20.2c0,0-9.3,6.8-7.2,20.2H234.5z"/>
		<path class="st6" d="M203.4,555.4c-0.5-5.4-3.8-12.2-11.9-19.1c0,0,17,4.1,15.5,19.1H203.4z"/>
		<path class="st6" d="M235.3,555.4c0.9-4.9,4.2-10.8,11-16.3c0,0-15.6,2.3-15.7,16.3H235.3z"/>
		<path class="st6" d="M233.1,555.4c-7.7-10.4-3.8-21.3-3.8-21.3c-4.4,6.6-5.8,13.1-3.3,21.3H233.1z"/>
		<path class="st6" d="M220.4,555.4c-1.4-5.1-2.2-10,0.6-16.2c0,0-5.9,8.2-5.8,16.2H220.4z"/>
		<path class="st7" d="M226.7,555.4c-1.7-5.8-4.6-17.7-1.2-25.3c0,0-6.7,11.2-4.1,25.3H226.7z"/>
		<path class="st6" d="M223.5,555.4c-2.7-5.5-0.2-10.9,1.7-15c0,0-8.6,6.8-7.2,15H223.5z"/>
		<path class="st7" d="M221,555.4c-3.4-4-7.6-10.2-6.3-15.5c0,0-3.5,6.3-0.7,15.5H221z"/>
	</g>
	<g>
		<g>
			<g>
				<path class="st8" d="M280.8,466.1c-5.5,1.5-11.1,2.8-16.8,1.9c-9.7-1.6-17.3-8.3-23.4-15.6c2.9-5.5,10.7-10.1,16.4-11.7
					c6.4-1.8,12,2,17.8,4.6c5.6,2.6,13.4,4.8,16,10.9c1.1,2.6,1.2,4.8,0.7,6.8c0,0,0,0,0,0C288.3,462.8,283.8,465.3,280.8,466.1z"/>
				<path class="st9" d="M266.5,475.3c-7.9,0.4-14.4-3.4-20.8-8.8c-3.7-3.2-7.6-9.1-5.3-13.8c0-0.1,0.1-0.2,0.2-0.3
					c6.1,7.3,13.7,14.1,23.4,15.6c5.7,0.9,11.4-0.4,16.8-1.9c2.9-0.8,7.5-3.3,10.6-3.1c0,0,0,0,0,0
					C289.1,472.2,272.2,475,266.5,475.3z"/>
			</g>
			<path class="st9" d="M262,455.5c1.9-1.1,3.6,0.6,5.2,1.3c4.7,2.3,6.3-0.5,9.7-2.9c0.8-0.5,1.5-0.9,2.4-0.9c0.9,0,4.9,2.7,4.8,5
				c0,1.7-3.6,3.1-5.2,4c-2.7,1.4-5.4,2-8.4,1.3c-1.7-0.4-3.3-1.2-4.8-2.1c-1.1-0.6-3.2-0.9-4.5-3
				C260.5,457.3,260.9,456.1,262,455.5z"/>
			<path class="st10" d="M254.7,444.8c3.1-1.2,6-0.9,9,0c2.8,0.9,7.1,1.5,7.8,3.5c0.6,1.7-1.1,2.3-2.5,2.6c-1.9,0.3-3.6-0.9-5.4-1.1
				c-2.4-0.3-6.1,1.6-7.7,3.2c-0.4,0.4-0.6,1-1.1,1.3c-2.3,1.7-6.3,0.5-8.6-0.6c-0.3-0.2-0.5-0.5-0.5-0.9
				C245.3,448.9,251.6,446.1,254.7,444.8z"/>
		</g>
		<g>
			<g>
				<path class="st11" d="M255.1,414.9l-12.2-0.1c0,0.1,0,0.3,0,0.4c0,33.3-21.9,60.2-48.9,60.2c-8.6,0-16.7-2.8-23.8-7.6
					c9,13.2,22.4,21.6,37.5,21.6c27,0,48.9-27,48.9-60.2C256.7,424.5,256,419.4,255.1,414.9z"/>
				<path class="st12" d="M242.9,415.2c0-0.1,0-0.3,0-0.4l-82.4-0.6c-0.9,4.5-1.7,10.2-1.7,15c0,14.7,4.3,28.2,11.4,38.7
					c7,4.8,15.1,7.6,23.8,7.6C221,475.5,242.9,448.5,242.9,415.2z"/>
			</g>
			<path class="st13" d="M255.3,417.4c0,14.8-21.3,26.8-47.5,26.8c-26.3,0-47.5-12-47.5-26.8c0-14.8,21.3-26.8,47.5-26.8
				C234,390.6,255.3,402.6,255.3,417.4z"/>
			<path class="st11" d="M253,416.9c0,13.7-20.2,24.9-45.2,24.9c-25,0-45.2-11.1-45.2-24.9c0-13.7,20.2-24.9,45.2-24.9
				C232.7,392,253,403.1,253,416.9z"/>
		</g>
		<g>
			<path class="st14" d="M189.7,493.2c-5.1,0.4-10.5-0.2-15.4-1.6c-4.9-1.4-9.6-3.8-12.8-7.7c-1.9-2.3-3.1-5.2-3.1-7.9
				c6-8.3,19.6-6,28-2.4c5.6,2.4,12.2,6.1,14.5,12.2c0.2,0.4,0.3,0.9,0.4,1.4C199.1,491,194.2,492.9,189.7,493.2z"/>
			<path class="st15" d="M200.8,493.7c-1,3.4-4.6,5.6-7.9,6.8c-6,2.2-12.8,3-19,1.6c-5.3-1.1-10.1-3.9-13.6-8.1
				c-3.3-3.9-5.5-9.6-3.7-14.6c0.5-1.3,1.1-2.5,1.8-3.5c0,2.7,1.1,5.6,3.1,7.9c3.3,4,8,6.4,12.8,7.7c4.9,1.4,10.3,2,15.4,1.6
				c4.5-0.3,9.4-2.3,11.7-6.1C201.8,489.3,201.7,491.7,200.8,493.7z"/>
			<path class="st16" d="M178.3,474c5.4,0,8.2,3.6,12.6,6.3c3.2,1.9,9.5,5.7,4.9,8.1c-4.7,2.4-10.6,2.5-15.5,0.6
				c-4.3-1.6-9.1-5.2-9.6-10.2C170.3,474.6,174.2,473.7,178.3,474z"/>
		</g>
		<g>
			<path class="st14" d="M232.8,485.8l0-8.6l12.6,1.4c2.3-0.7,4.3-1.2,6.5-1.5c2.7-0.5,5.1,0.8,7.3,3l5.2,0.6v9.3l0,0
				c0.3,5.5-9,8.6-17.8,6.4C239,494.5,232.2,489.7,232.8,485.8L232.8,485.8z"/>
			<path class="st16" d="M251.8,467.7c5.1-0.9,9.6,4.6,12.1,11.1c2.5,6.6-7.8,10.6-17.5,8.1c-9.7-2.4-18.5-10-10.7-13.8
				C243.5,469.5,247.2,468.5,251.8,467.7z"/>
			<path class="st17" d="M253.2,470.7c3.2-0.5,6,2.9,7.6,7c1.6,4.1-4.9,6.6-10.9,5.1c-6.1-1.5-11.6-6.2-6.7-8.6
				C248,471.8,250.3,471.2,253.2,470.7z"/>
		</g>
		<g>
			<path class="st14" d="M242,499.4l0-3.6l-1.1,0.2c-0.3-0.4-0.6-0.8-1-1c-6.1-4.7-11.8-0.7-14.8,3.9l-1.7,0.3c0,0,0,2.6,0,3.8
				c0,0.2,0,0.3,0,0.5c0,0,0,0,0,0c0,0,0,0,0,0c0.6,3.8,8.2,5.2,13.7,2.7C240.8,504.5,242.1,501.8,242,499.4
				C242,499.4,242,499.4,242,499.4z"/>
			<path class="st16" d="M223.7,497.2c-2.1,5.2,7.1,7.5,13.5,4.7c6.4-2.8,5.5-9.1,2.8-11.2C232.7,485.1,225.9,492,223.7,497.2z"/>
			<path class="st17" d="M228.5,496.1c-1.3,3.1,4.2,4.5,8.1,2.8c3.8-1.7,3.3-5.4,1.7-6.7C233.9,488.8,229.8,492.9,228.5,496.1z"/>
		</g>
		<g>
			<path class="st15" d="M176.9,503.9l2.2,0.1c1-0.8,2.2-1.5,3.8-1.9c4.3-1.3,8.6-0.4,12.4,1.5c0.7,0.3,1.2,0.7,1.8,1.1l2.7,0.1
				c0,0,0,4.2,0,4c0,0,0,0,0,0c-0.1,0.7-0.4,1.3-1.2,1.8c-2.7,1.7-13.7,1.9-18.1,0.7c-2.5-0.7-3.5-2.1-3.5-3.6c0,0,0,0,0,0V503.9z"
				/>
			<path class="st14" d="M182.9,498c4.3-1.3,8.6-0.4,12.4,1.5c3.8,1.9,5.9,5.3,3.2,7c-2.7,1.7-13.7,1.9-18.1,0.7
				C174.5,505.7,176.5,499.9,182.9,498z"/>
			<path class="st16" d="M190.6,501.6c1.6-0.5,3.3-0.2,4.8,0.6c1.5,0.7,2.3,2.1,1.3,2.7c-1,0.7-5.3,0.7-7,0.3
				C187.4,504.5,188.2,502.3,190.6,501.6z"/>
		</g>
		<g>
			<path class="st18" d="M248.8,416.9c1-0.4,6.2-5.8,14.1-2.1c7.9,3.7,10.8,12.9,10.8,12.9s0.2-10.4-8.7-15.3s-15.6-2.3-15.6-2.3
				L248.8,416.9z"/>
			<path class="st18" d="M246,400.5c1-0.4,6.2-5.8,14.1-2.1c7.9,3.7,10.8,12.9,10.8,12.9s0.2-10.4-8.7-15.3
				c-8.8-5-15.6-2.3-15.6-2.3L246,400.5z"/>
			<path class="st18" d="M181.8,374.7c0,0,3-11.2,14.4-10.7s12.5,6.6,12.5,6.6s1.3-5.1-8.9-8.5c-10.2-3.4-17.1,2.1-19.9,7.1
				c-2.8,5-2,8.3-2,8.3L181.8,374.7z"/>
			<path class="st18" d="M234.5,380.1c0,0,3-11.2,14.4-10.7c11.4,0.5,12.5,6.6,12.5,6.6s1.3-5.1-8.9-8.5
				c-10.2-3.4-17.1,2.1-19.9,7.1c-2.8,5-2,8.3-2,8.3L234.5,380.1z"/>
			<path class="st18" d="M222.9,380.1c0,0-3-11.2-14.4-10.7C197.1,370,196,376,196,376s-1.3-5.1,8.9-8.5c10.2-3.4,17.1,2.1,19.9,7.1
				c2.8,5,2,8.3,2,8.3L222.9,380.1z"/>
			<path class="st18" d="M181.1,377c0,0-8.8-7.5-17.9-0.6c-9.1,6.9-6.6,12.5-6.6,12.5s-4-3.4,2.5-12c6.5-8.6,15.3-8,20.4-5.5
				c5.1,2.6,6.3,5.7,6.3,5.7L181.1,377z"/>
			<path class="st18" d="M222.7,386.3c4.9-4.2,22.2-7.6,31.9,11.3c5.6,11-4.1,24.4-4.1,24.4l-22.5-11.7L222.7,386.3z"/>
			<path class="st18" d="M228.3,395.6c0,0,7.9-16.9,24.3-13.3c16.4,3.5,16.7,15.8,16.7,15.8s-3.2-7.6-10.9-10.3
				c-7.7-2.6-15.3-1.3-18.9,1.6s-7.7,8.9-7.7,8.9L228.3,395.6z"/>
			<path class="st18" d="M138.6,413.3c0,0,5.1,6.7,16.4,4.6c8.4-1.5,10.4-5.1,10.4-5.1v-4.3c0,0-3.9,6.1-12.2,6.9
				C144.2,416.2,138.6,413.3,138.6,413.3z"/>
			<path class="st18" d="M141.3,403.7c0,0,1.5,8.3,12.5,11.6c8.2,2.5,11.6,0.2,11.6,0.2l1.9-3.8c0,0-6.2,3.7-14,0.6
				C145,408.8,141.3,403.7,141.3,403.7z"/>
			<path class="st18" d="M213.3,381.2c0.3-0.9,9.2-16.9,21.2-14.7c11.9,2.1,11.9,9.8,11.9,9.8s-2.3-6.3-10.5-7.2
				c-5.4-0.6-9.7,2.8-14.2,10C217.1,386.5,213.3,381.2,213.3,381.2z"/>
			<path class="st18" d="M222.9,390.8c0.3-0.9,8.8-19,20.7-15.7c11.8,3.2,12.5,10.8,12.5,10.8s-6.1-7.3-11.3-7
				c-5.1,0.3-9,2.6-13.5,9.8C226.8,396,222.9,390.8,222.9,390.8z"/>
			<path class="st18" d="M169.3,398.3c0,0-3.8-22.5,14.7-26.7c18.5-4.2,30.2,5.4,32.5,15.3C218.7,396.8,169.3,398.3,169.3,398.3z"/>
			<path class="st18" d="M150.5,408.5c-1.3-4.1-2.1-13.5,7.9-15.9c10.6-2.6,12.2,3.8,12.2,3.8l-4.3,1c0,0-2.6-3.4-7.9-2.5
				C150.4,396.3,150.5,408.5,150.5,408.5z"/>
			<path class="st18" d="M155.2,402.5c-0.9-2.7-1-16.3,8.9-19.5c9.7-3,12.8,3.5,12.8,3.5l-4.6,1.9c0,0-3.1-3.7-8.3-2.4
				C156.9,387.7,155.2,402.5,155.2,402.5z"/>
			<path class="st18" d="M151.2,418.7c-0.9-2.7-1-16.3,8.9-19.5c9.7-3,12.8,3.5,12.8,3.5l-4.6,1.9c0,0-3.1-3.7-8.3-2.4
				C153,403.9,151.2,418.7,151.2,418.7z"/>
			<path class="st19" d="M167,427.7c-9.1,5.3-11,21.3-11,21.3s-1.5-8,0.8-15.2c2.2-7,5.6-8.3,5.6-8.3s-8.4,0.3-12.1,6.2
				c-4.4,6.9-5.8,14.8-5.8,14.8s-1.1-9.1,4.1-18c2.3-3.9,7.4-5.8,7.4-5.8s-7,1.9-13.3-0.7c-4.2-1.7-7.4-6.5-7.4-6.5
				s6.7,5.5,12.4,5.3c5.7-0.2,7.6-1.6,7.6-1.6s-3-9.2,2.9-19.7c4.9-8.8,10.1-11.6,15.3-13.3c5.1-1.7,10.6-1.5,10.6-1.5
				s-1.1-6.4-8.1-7.7c-8-1.5-14.1,3.7-14.1,3.7s2.5-6,11-7.3c8.1-1.2,15,6.5,15,6.5s-4-8.1-8-10.6c-4-2.6-9.7-1.6-9.7-1.6
				s6.6-3.7,13.8-0.2c7.3,3.5,8.7,8.7,8.7,8.7s0-6.1,2.6-10.8c2.9-5.2,8.5-6.6,8.5-6.6s-6,3.4-5.8,11.3c0.1,2.7,0.9,9.8,0.9,9.8
				s5.1-11.9,11.7-15.6c8.8-5,11.7,1.1,11.7,1.1s-6.5-3.9-10.5,2.3c-4.7,7.2-5,12.5-5,12.5s6.5-4.4,14.6-3.6
				c12.5,1.3,18.5,7.5,19.9,14.1c1.4,6.6,8.3,5.4,15.4,8.2c9.2,3.5,9.5,9.8,9.5,9.8s-3.5-5.3-10.9-6.4c-5.2-0.8-9.8,3.5-9.8,3.5
				s6.5-0.7,12.1,4c5.9,5,4.2,13.4,4.2,13.4s-2.6-6.9-7.9-8.9c-4.7-1.7-7.6-0.8-7.6-0.8s8,4.8,11.1,11.9c3.8,8.5,1,21.2,1,21.2
				s0.9-11.3-3.7-19.3c-2.7-4.6-7.9-5.2-7.9-5.2s2.9,8.7,2.9,15.8c0,7.5-4.5,16.9-4.5,16.9s2.6-14.1,1.8-18.4
				c-1.5-8-3.7-13.2-6.9-12.3c-2.9,0.8-2.4,7.1-1.6,11.1c-9.9,5-16.5,7.2-34.8,6.5C186.2,441,172,434.2,167,427.7z"/>
			<g>
				<path class="st18" d="M187.3,352.3c-4.7-8.5-13.7-12.2-25.4-8.4c-13.9,4.4-23.7,16.7-25.2,31.2c0,0.1,0.2,0.1,0.2,0
					c1.7-11.3,8-21.3,18-27c5-2.9,11.3-5,17.1-4.1c8,1.2,12.7,5.6,15.2,11.9c7.7,19.9,5.9,43,8.3,52.8
					C197.5,392.2,197.1,370.1,187.3,352.3z"/>
				<path class="st18" d="M235.5,343.4c4.7-8.5,13.7-12.2,25.4-8.4c13.9,4.4,23.7,16.7,25.2,31.2c0,0.1-0.2,0.1-0.2,0
					c-1.7-11.3-8-21.3-18-27c-5-2.9-11.3-5-17.1-4.1c-8,1.2-12.7,5.6-15.2,11.9c-7.7,19.9-10.8,52.4-13.2,57.8
					C223,389.6,225.8,361.2,235.5,343.4z"/>
				<g>
					<path class="st20" d="M281,349.2c1.5,0,2.7,1.1,3,2.6c0.2-0.1,0.4-0.1,0.6-0.1c1.1,0,2.1,0.9,2.1,2.1c0,0.7-0.3,1.2-0.8,1.6
						c0.4,0.2,0.7,0.4,1,0.7c0.4-0.4,0.9-0.7,1.5-0.7c1.1,0,2.1,0.9,2.1,2.1c0,0.9-0.5,1.6-1.3,1.9c0.7,0.5,1.2,1.3,1.2,2.2
						c0,1.6-1.3,2.8-2.8,2.8c-0.6,0-1.1-0.2-1.5-0.5c-0.4,0.6-1,1-1.7,1c-1.1,0-2.1-0.9-2.1-2.1c0,0,0,0,0,0c0,0-0.1,0-0.1,0
						c-1.1,0-2.1-0.9-2.1-2.1c0-1,0.7-1.8,1.7-2c-0.1-0.2-0.1-0.4-0.1-0.7c0,0,0-0.1,0-0.1c-0.9-0.2-1.6-1-1.6-2
						c0-0.3,0.1-0.6,0.2-0.9c-1.3-0.4-2.2-1.5-2.2-2.9C277.9,350.6,279.3,349.2,281,349.2z"/>
					<path class="st20" d="M238.7,342c0.4,0,0.7,0.1,1,0.3c0-0.1,0-0.1,0-0.2c0-0.5,0.2-1,0.6-1.4c-1.1-0.5-1.8-1.5-1.8-2.8
						c0-1.7,1.4-3.1,3.1-3.1c0.3,0,0.6,0.1,0.8,0.2c-0.1-0.3-0.2-0.6-0.2-0.9c0-1,0.7-1.7,1.6-2c-0.1-0.3-0.2-0.7-0.2-1.1
						c0-1.7,1.4-3.1,3.1-3.1c1.6,0,2.9,1.3,3,2.9c0.1,0,0.2-0.1,0.4-0.1c0.6,0,1.1,0.2,1.6,0.5c0-0.2-0.1-0.3-0.1-0.5
						c0-0.5,0.2-1,0.4-1.4c-0.7-0.1-1.2-0.7-1.2-1.4c0-0.8,0.6-1.4,1.4-1.4c0.8,0,1.4,0.6,1.4,1.3c0.3-0.1,0.7-0.2,1.1-0.2
						c0,0,0,0,0,0c0-1.1,0.9-2,2-2c0.6,0,1.1,0.2,1.5,0.6c0.2-1.5,1.4-2.6,3-2.6c1.1,0,2.1,0.6,2.6,1.5c0.3-0.2,0.6-0.3,1-0.3
						c1.1,0,2.1,0.9,2.1,2.1c0,1.1-0.9,2.1-2.1,2.1c-0.5,0-0.9-0.2-1.2-0.4c-0.3,0.4-0.7,0.7-1.1,0.9c0.3,0.5,0.5,1,0.5,1.5
						c0,0.3-0.1,0.6-0.2,0.8c0.2,0,0.3-0.1,0.5-0.1c0.6,0,1.2,0.3,1.6,0.8c0.5-0.5,1.2-0.8,2-0.8c1.7,0,3.1,1.4,3.1,3.1
						c0,0.8-0.3,1.5-0.8,2c0.3-0.2,0.7-0.4,1.1-0.4c0.4,0,0.7,0.1,1,0.3c0.1-0.8,0.5-1.4,1-1.9c-1-0.5-1.8-1.5-1.8-2.8
						c0-1.7,1.4-3.1,3.1-3.1c1.7,0,3.1,1.4,3.1,3.1c0,0,0,0,0,0c0.1,0,0.3-0.1,0.4-0.1c1.1,0,2.1,0.9,2.1,2.1c0,1.1-0.9,2-2,2
						c0.1,0.3,0.2,0.7,0.2,1c0,0.3-0.1,0.6-0.2,0.8c0.2,0,0.3-0.1,0.5-0.1c0.5,0,0.9,0.1,1.3,0.3c0,0,0,0,0,0c0-0.8,0.6-1.4,1.4-1.4
						c0.7,0,1.3,0.5,1.4,1.2c0.2-0.1,0.4-0.1,0.7-0.1c1.7,0,3.1,1.4,3.1,3.1c0,1-0.5,1.8-1.2,2.4c0.4,0.5,0.7,1.1,0.7,1.9
						c0,1.7-1.4,3.1-3.1,3.1c-1.3,0-2.3-0.8-2.8-1.9c-0.5,1.1-1.5,1.9-2.8,1.9c-1.5,0-2.7-1.1-3-2.6c-0.3,0.6-1,1.1-1.8,1.1
						c-1.1,0-2.1-0.9-2.1-2.1c0-1.1,0.9-2.1,2.1-2.1c0.9,0,1.6,0.6,1.9,1.4c0.3-0.7,0.8-1.3,1.5-1.6c-0.2-0.4-0.4-0.9-0.4-1.5
						c0-0.3,0.1-0.6,0.2-0.8c-0.2,0-0.3,0.1-0.5,0.1c-0.8,0-1.5-0.3-2.1-0.9c-0.3,0.7-1,1.2-1.8,1.2c-1.1,0-2.1-0.9-2.1-2.1
						c0-0.5,0.2-0.9,0.5-1.3c-0.5,0.4-1.1,0.7-1.9,0.7c-0.3,0-0.7-0.1-1-0.2c0,0.2,0.1,0.3,0.1,0.5c0,1.7-1.4,3.1-3.1,3.1
						c-1.7,0-3.1-1.4-3.1-3.1c0-1.3,0.9-2.4,2.1-2.9c-0.4-0.4-0.7-0.9-0.7-1.5c0,0,0-0.1,0-0.1c-0.4,0.2-0.9,0.4-1.4,0.4
						c-0.3,0-0.7-0.1-1-0.2c-0.2,0.3-0.5,0.6-0.9,0.8c0.4,0.4,0.6,0.9,0.6,1.5c0,1.1-0.9,2.1-2.1,2.1s-2.1-0.9-2.1-2.1
						c0-0.9,0.5-1.6,1.3-1.9c-0.2-0.2-0.3-0.4-0.4-0.6c-0.2,0.1-0.4,0.1-0.7,0.1c-0.6,0-1.1-0.2-1.6-0.5c0,0.2,0.1,0.3,0.1,0.5
						c0,1.4-0.9,2.5-2.2,2.9c0,0.1,0,0.1,0,0.2c0,1.1-0.9,2.1-2.1,2.1s-2.1-0.9-2.1-2.1c0-0.6,0.2-1.1,0.6-1.5
						c-0.3-0.4-0.4-0.9-0.5-1.4c-0.1,0-0.2,0.1-0.4,0.1c-0.1,0-0.2-0.1-0.3-0.1c0,0,0,0,0,0.1c0,1.1-0.9,2.1-2.1,2.1
						c-0.1,0-0.1,0-0.2,0c0.4,0.5,0.6,1.1,0.6,1.8c0,0.1,0,0.2-0.1,0.3c0,0,0,0,0.1,0c1,0,1.9,0.9,1.9,1.9c0,1-0.9,1.9-1.9,1.9
						c-0.3,0-0.6-0.1-0.8-0.2c0,0.1,0.1,0.2,0.1,0.3c0,1.1-0.9,2.1-2.1,2.1c-0.4,0-0.7-0.1-1-0.3c0,0.1,0,0.1,0,0.2
						c0,1.1-0.9,2.1-2.1,2.1c-1.1,0-2.1-0.9-2.1-2.1C236.6,342.9,237.5,342,238.7,342z"/>
					<path class="st20" d="M284.5,367.5C284.6,367.5,284.6,367.5,284.5,367.5c0,0,0-0.1,0-0.1c0-1.1,0.9-2.1,2.1-2.1
						c1.1,0,2.1,0.9,2.1,2.1s-0.9,2.1-2.1,2.1c0,0,0,0,0,0c0,0,0,0.1,0,0.1c0,0.2-0.1,0.5-0.1,0.7c0,0,0.1,0,0.1,0
						c0.8,0,1.4,0.6,1.4,1.4c0,0.8-0.6,1.4-1.4,1.4c-0.8,0-1.4-0.6-1.4-1.4c0,0,0-0.1,0-0.1c-0.2,0.1-0.4,0.1-0.7,0.1
						c-1.1,0-2.1-0.9-2.1-2.1S283.4,367.5,284.5,367.5z"/>
					<path class="st20" d="M267.3,340.6c0.8,0,1.4,0.6,1.4,1.4c0,0.8-0.6,1.4-1.4,1.4c-0.8,0-1.4-0.6-1.4-1.4
						C265.9,341.2,266.6,340.6,267.3,340.6z"/>
					<path class="st20" d="M240.1,334.2c-0.8,0-1.4-0.6-1.4-1.4c0-0.8,0.6-1.4,1.4-1.4c0.8,0,1.4,0.6,1.4,1.4
						C241.5,333.5,240.8,334.2,240.1,334.2z"/>
					<path class="st20" d="M288,354.5c-0.8,0-1.4-0.6-1.4-1.4c0-0.8,0.6-1.4,1.4-1.4c0.8,0,1.4,0.6,1.4,1.4
						C289.4,353.8,288.8,354.5,288,354.5z"/>
					<path class="st20" d="M268.3,331.2c-0.8,0-1.4-0.6-1.4-1.4c0-0.8,0.6-1.4,1.4-1.4c0.8,0,1.4,0.6,1.4,1.4
						C269.7,330.6,269.1,331.2,268.3,331.2z"/>
				</g>
				<g>
					<path class="st20" d="M141.9,358c-1.5,0-2.7,1.1-3,2.6c-0.2-0.1-0.4-0.1-0.6-0.1c-1.1,0-2.1,0.9-2.1,2.1c0,0.7,0.3,1.2,0.8,1.6
						c-0.4,0.2-0.7,0.4-1,0.7c-0.4-0.4-0.9-0.7-1.5-0.7c-1.1,0-2.1,0.9-2.1,2.1c0,0.9,0.5,1.6,1.3,1.9c-0.7,0.5-1.2,1.3-1.2,2.2
						c0,1.6,1.3,2.8,2.8,2.8c0.6,0,1.1-0.2,1.5-0.5c0.4,0.6,1,1,1.7,1c1.1,0,2.1-0.9,2.1-2.1c0,0,0,0,0,0c0,0,0.1,0,0.1,0
						c1.1,0,2.1-0.9,2.1-2.1c0-1-0.7-1.8-1.7-2c0.1-0.2,0.1-0.4,0.1-0.7c0,0,0-0.1,0-0.1c0.9-0.2,1.6-1,1.6-2c0-0.3-0.1-0.6-0.2-0.9
						c1.3-0.4,2.2-1.5,2.2-2.9C144.9,359.4,143.5,358,141.9,358z"/>
					<path class="st20" d="M184.2,350.9c-0.4,0-0.7,0.1-1,0.3c0-0.1,0-0.1,0-0.2c0-0.5-0.2-1-0.6-1.4c1.1-0.5,1.8-1.5,1.8-2.8
						c0-1.7-1.4-3.1-3.1-3.1c-0.3,0-0.6,0.1-0.8,0.2c0.1-0.3,0.2-0.6,0.2-0.9c0-1-0.7-1.7-1.6-2c0.1-0.3,0.2-0.7,0.2-1.1
						c0-1.7-1.4-3.1-3.1-3.1c-1.6,0-2.9,1.3-3,2.9c-0.1,0-0.2-0.1-0.4-0.1c-0.6,0-1.1,0.2-1.6,0.5c0-0.2,0.1-0.3,0.1-0.5
						c0-0.5-0.2-1-0.4-1.4c0.7-0.1,1.2-0.7,1.2-1.4c0-0.8-0.6-1.4-1.4-1.4c-0.8,0-1.4,0.6-1.4,1.3c-0.3-0.1-0.7-0.2-1.1-0.2
						c0,0,0,0,0,0c0-1.1-0.9-2-2-2c-0.6,0-1.1,0.2-1.5,0.6c-0.2-1.5-1.4-2.6-3-2.6c-1.1,0-2.1,0.6-2.6,1.5c-0.3-0.2-0.6-0.3-1-0.3
						c-1.1,0-2.1,0.9-2.1,2.1c0,1.1,0.9,2.1,2.1,2.1c0.5,0,0.9-0.2,1.2-0.4c0.3,0.4,0.7,0.7,1.1,0.9c-0.3,0.5-0.5,1-0.5,1.5
						c0,0.3,0.1,0.6,0.2,0.8c-0.2,0-0.3-0.1-0.5-0.1c-0.6,0-1.2,0.3-1.6,0.8c-0.5-0.5-1.2-0.8-2-0.8c-1.7,0-3.1,1.4-3.1,3.1
						c0,0.8,0.3,1.5,0.8,2c-0.3-0.2-0.7-0.4-1.1-0.4c-0.4,0-0.7,0.1-1,0.3c-0.1-0.8-0.5-1.4-1-1.9c1-0.5,1.8-1.5,1.8-2.8
						c0-1.7-1.4-3.1-3.1-3.1c-1.7,0-3.1,1.4-3.1,3.1c0,0,0,0,0,0c-0.1,0-0.3-0.1-0.4-0.1c-1.1,0-2.1,0.9-2.1,2.1c0,1.1,0.9,2,2,2
						c-0.1,0.3-0.2,0.7-0.2,1c0,0.3,0.1,0.6,0.2,0.8c-0.2,0-0.3-0.1-0.5-0.1c-0.5,0-0.9,0.1-1.3,0.3c0,0,0,0,0,0
						c0-0.8-0.6-1.4-1.4-1.4c-0.7,0-1.3,0.5-1.4,1.2c-0.2-0.1-0.4-0.1-0.7-0.1c-1.7,0-3.1,1.4-3.1,3.1c0,1,0.5,1.8,1.2,2.4
						c-0.4,0.5-0.7,1.1-0.7,1.9c0,1.7,1.4,3.1,3.1,3.1c1.3,0,2.3-0.8,2.8-1.9c0.5,1.1,1.5,1.9,2.8,1.9c1.5,0,2.7-1.1,3-2.6
						c0.3,0.6,1,1.1,1.8,1.1c1.1,0,2.1-0.9,2.1-2.1c0-1.1-0.9-2.1-2.1-2.1c-0.9,0-1.6,0.6-1.9,1.4c-0.3-0.7-0.8-1.3-1.5-1.6
						c0.2-0.4,0.4-0.9,0.4-1.5c0-0.3-0.1-0.6-0.2-0.8c0.2,0,0.3,0.1,0.5,0.1c0.8,0,1.5-0.3,2.1-0.9c0.3,0.7,1,1.2,1.8,1.2
						c1.1,0,2.1-0.9,2.1-2.1c0-0.5-0.2-0.9-0.5-1.3c0.5,0.4,1.1,0.7,1.9,0.7c0.3,0,0.7-0.1,1-0.2c0,0.2-0.1,0.3-0.1,0.5
						c0,1.7,1.4,3.1,3.1,3.1c1.7,0,3.1-1.4,3.1-3.1c0-1.3-0.9-2.4-2.1-2.9c0.4-0.4,0.7-0.9,0.7-1.5c0,0,0-0.1,0-0.1
						c0.4,0.2,0.9,0.4,1.4,0.4c0.3,0,0.7-0.1,1-0.2c0.2,0.3,0.5,0.6,0.9,0.8c-0.4,0.4-0.6,0.9-0.6,1.5c0,1.1,0.9,2.1,2.1,2.1
						c1.1,0,2.1-0.9,2.1-2.1c0-0.9-0.5-1.6-1.3-1.9c0.2-0.2,0.3-0.4,0.4-0.6c0.2,0,0.4,0.1,0.7,0.1c0.6,0,1.1-0.2,1.6-0.5
						c0,0.2-0.1,0.3-0.1,0.5c0,1.4,0.9,2.5,2.2,2.9c0,0.1,0,0.1,0,0.2c0,1.1,0.9,2.1,2.1,2.1c1.1,0,2.1-0.9,2.1-2.1
						c0-0.6-0.2-1.1-0.6-1.5c0.3-0.4,0.4-0.9,0.5-1.4c0.1,0,0.2,0.1,0.4,0.1c0.1,0,0.2-0.1,0.3-0.1c0,0,0,0,0,0.1
						c0,1.1,0.9,2.1,2.1,2.1c0.1,0,0.1,0,0.2,0c-0.4,0.5-0.6,1.1-0.6,1.8c0,0.1,0,0.2,0.1,0.3c0,0,0,0-0.1,0c-1,0-1.9,0.9-1.9,1.9
						c0,1,0.9,1.9,1.9,1.9c0.3,0,0.6-0.1,0.8-0.2c0,0.1-0.1,0.2-0.1,0.3c0,1.1,0.9,2.1,2.1,2.1c0.4,0,0.7-0.1,1-0.3
						c0,0.1,0,0.1,0,0.2c0,1.1,0.9,2.1,2.1,2.1c1.1,0,2.1-0.9,2.1-2.1C186.2,351.8,185.3,350.9,184.2,350.9z"/>
					<path class="st20" d="M138.3,376.4C138.3,376.4,138.3,376.4,138.3,376.4c0,0,0-0.1,0-0.1c0-1.1-0.9-2.1-2.1-2.1
						c-1.1,0-2.1,0.9-2.1,2.1c0,1.1,0.9,2.1,2.1,2.1c0,0,0,0,0,0c0,0,0,0.1,0,0.1c0,0.2,0.1,0.5,0.1,0.7c0,0-0.1,0-0.1,0
						c-0.8,0-1.4,0.6-1.4,1.4c0,0.8,0.6,1.4,1.4,1.4c0.8,0,1.4-0.6,1.4-1.4c0,0,0-0.1,0-0.1c0.2,0.1,0.4,0.1,0.7,0.1
						c1.1,0,2.1-0.9,2.1-2.1C140.3,377.3,139.4,376.4,138.3,376.4z"/>
					<path class="st20" d="M155.5,349.5c-0.8,0-1.4,0.6-1.4,1.4c0,0.8,0.6,1.4,1.4,1.4c0.8,0,1.4-0.6,1.4-1.4
						C156.9,350.1,156.3,349.5,155.5,349.5z"/>
					<path class="st20" d="M182.8,343c0.8,0,1.4-0.6,1.4-1.4c0-0.8-0.6-1.4-1.4-1.4c-0.8,0-1.4,0.6-1.4,1.4
						C181.4,342.4,182,343,182.8,343z"/>
					<path class="st20" d="M134.8,363.3c0.8,0,1.4-0.6,1.4-1.4c0-0.8-0.6-1.4-1.4-1.4c-0.8,0-1.4,0.6-1.4,1.4
						C133.4,362.7,134.1,363.3,134.8,363.3z"/>
					<path class="st20" d="M154.6,340.1c0.8,0,1.4-0.6,1.4-1.4c0-0.8-0.6-1.4-1.4-1.4c-0.8,0-1.4,0.6-1.4,1.4
						C153.1,339.5,153.8,340.1,154.6,340.1z"/>
				</g>
				<path class="st21" d="M215.9,365.5c4.7-8.5,13.7-12.2,25.4-8.4c13.9,4.4,23.7,16.7,25.2,31.2c0,0.1-0.2,0.1-0.2,0
					c-1.7-11.3-8-21.3-18-27c-5-2.9-11.3-5-17.1-4.1c-8,1.2-12.7,5.6-15.2,11.9c-7.7,19.9-7,43.1-8.3,52.8
					C205.7,405.4,206.2,383.3,215.9,365.5z"/>
				<g>
					<path class="st20" d="M261.4,371.3c1.5,0,2.7,1.1,3,2.6c0.2-0.1,0.4-0.1,0.6-0.1c1.1,0,2.1,0.9,2.1,2.1c0,0.7-0.3,1.2-0.8,1.6
						c0.4,0.2,0.7,0.4,1,0.7c0.4-0.4,0.9-0.7,1.5-0.7c1.1,0,2.1,0.9,2.1,2.1c0,0.9-0.5,1.6-1.3,1.9c0.7,0.5,1.2,1.3,1.2,2.2
						c0,1.6-1.3,2.8-2.8,2.8c-0.6,0-1.1-0.2-1.5-0.5c-0.4,0.6-1,1-1.7,1c-1.1,0-2.1-0.9-2.1-2.1c0,0,0,0,0,0c0,0-0.1,0-0.1,0
						c-1.1,0-2.1-0.9-2.1-2.1c0-1,0.7-1.8,1.7-2c-0.1-0.2-0.1-0.4-0.1-0.7c0,0,0-0.1,0-0.1c-0.9-0.2-1.6-1-1.6-2
						c0-0.3,0.1-0.6,0.2-0.9c-1.3-0.4-2.2-1.5-2.2-2.9C258.3,372.6,259.7,371.3,261.4,371.3z"/>
					<path class="st20" d="M219.1,364.1c0.4,0,0.7,0.1,1,0.3c0-0.1,0-0.1,0-0.2c0-0.5,0.2-1,0.6-1.4c-1.1-0.5-1.8-1.5-1.8-2.8
						c0-1.7,1.4-3.1,3.1-3.1c0.3,0,0.6,0.1,0.8,0.2c-0.1-0.3-0.2-0.6-0.2-0.9c0-1,0.7-1.7,1.6-2c-0.1-0.3-0.2-0.7-0.2-1.1
						c0-1.7,1.4-3.1,3.1-3.1c1.6,0,2.9,1.3,3,2.9c0.1,0,0.2-0.1,0.4-0.1c0.6,0,1.1,0.2,1.6,0.5c0-0.2-0.1-0.3-0.1-0.5
						c0-0.5,0.2-1,0.4-1.4c-0.7-0.1-1.2-0.7-1.2-1.4c0-0.8,0.6-1.4,1.4-1.4c0.8,0,1.4,0.6,1.4,1.3c0.3-0.1,0.7-0.2,1.1-0.2
						c0,0,0,0,0,0c0-1.1,0.9-2,2-2c0.6,0,1.1,0.2,1.5,0.6c0.2-1.5,1.4-2.6,3-2.6c1.1,0,2.1,0.6,2.6,1.5c0.3-0.2,0.6-0.3,1-0.3
						c1.1,0,2.1,0.9,2.1,2.1c0,1.1-0.9,2.1-2.1,2.1c-0.5,0-0.9-0.2-1.2-0.4c-0.3,0.4-0.7,0.7-1.1,0.9c0.3,0.5,0.5,1,0.5,1.5
						c0,0.3-0.1,0.6-0.2,0.8c0.2,0,0.3-0.1,0.5-0.1c0.6,0,1.2,0.3,1.6,0.8c0.5-0.5,1.2-0.8,2-0.8c1.7,0,3.1,1.4,3.1,3.1
						c0,0.8-0.3,1.5-0.8,2c0.3-0.2,0.7-0.4,1.1-0.4c0.4,0,0.7,0.1,1,0.3c0.1-0.8,0.5-1.4,1-1.9c-1-0.5-1.8-1.5-1.8-2.8
						c0-1.7,1.4-3.1,3.1-3.1c1.7,0,3.1,1.4,3.1,3.1c0,0,0,0,0,0c0.1,0,0.3-0.1,0.4-0.1c1.1,0,2.1,0.9,2.1,2.1c0,1.1-0.9,2-2,2
						c0.1,0.3,0.2,0.7,0.2,1c0,0.3-0.1,0.6-0.2,0.8c0.2,0,0.3-0.1,0.5-0.1c0.5,0,0.9,0.1,1.3,0.3c0,0,0,0,0,0c0-0.8,0.6-1.4,1.4-1.4
						c0.7,0,1.3,0.5,1.4,1.2c0.2-0.1,0.4-0.1,0.7-0.1c1.7,0,3.1,1.4,3.1,3.1c0,1-0.5,1.8-1.2,2.4c0.4,0.5,0.7,1.1,0.7,1.9
						c0,1.7-1.4,3.1-3.1,3.1c-1.3,0-2.3-0.8-2.8-1.9c-0.5,1.1-1.5,1.9-2.8,1.9c-1.5,0-2.7-1.1-3-2.6c-0.3,0.6-1,1.1-1.8,1.1
						c-1.1,0-2.1-0.9-2.1-2.1c0-1.1,0.9-2.1,2.1-2.1c0.9,0,1.6,0.6,1.9,1.4c0.3-0.7,0.8-1.3,1.5-1.6c-0.2-0.4-0.4-0.9-0.4-1.5
						c0-0.3,0.1-0.6,0.2-0.8c-0.2,0-0.3,0.1-0.5,0.1c-0.8,0-1.5-0.3-2.1-0.9c-0.3,0.7-1,1.2-1.8,1.2c-1.1,0-2.1-0.9-2.1-2.1
						c0-0.5,0.2-0.9,0.5-1.3c-0.5,0.4-1.1,0.7-1.9,0.7c-0.3,0-0.7-0.1-1-0.2c0,0.2,0.1,0.3,0.1,0.5c0,1.7-1.4,3.1-3.1,3.1
						s-3.1-1.4-3.1-3.1c0-1.3,0.9-2.4,2.1-2.9c-0.4-0.4-0.7-0.9-0.7-1.5c0,0,0-0.1,0-0.1c-0.4,0.2-0.9,0.4-1.4,0.4
						c-0.3,0-0.7-0.1-1-0.2c-0.2,0.3-0.5,0.6-0.9,0.8c0.4,0.4,0.6,0.9,0.6,1.5c0,1.1-0.9,2.1-2.1,2.1c-1.1,0-2.1-0.9-2.1-2.1
						c0-0.9,0.5-1.6,1.3-1.9c-0.2-0.2-0.3-0.4-0.4-0.6c-0.2,0.1-0.4,0.1-0.7,0.1c-0.6,0-1.1-0.2-1.6-0.5c0,0.2,0.1,0.3,0.1,0.5
						c0,1.4-0.9,2.5-2.2,2.9c0,0.1,0,0.1,0,0.2c0,1.1-0.9,2.1-2.1,2.1s-2.1-0.9-2.1-2.1c0-0.6,0.2-1.1,0.6-1.5
						c-0.3-0.4-0.4-0.9-0.5-1.4c-0.1,0-0.2,0.1-0.4,0.1c-0.1,0-0.2-0.1-0.3-0.1c0,0,0,0,0,0.1c0,1.1-0.9,2.1-2.1,2.1
						c-0.1,0-0.1,0-0.2,0c0.4,0.5,0.6,1.1,0.6,1.8c0,0.1,0,0.2-0.1,0.3c0,0,0,0,0.1,0c1,0,1.9,0.9,1.9,1.9s-0.9,1.9-1.9,1.9
						c-0.3,0-0.6-0.1-0.8-0.2c0,0.1,0.1,0.2,0.1,0.3c0,1.1-0.9,2.1-2.1,2.1c-0.4,0-0.7-0.1-1-0.3c0,0.1,0,0.1,0,0.2
						c0,1.1-0.9,2.1-2.1,2.1c-1.1,0-2.1-0.9-2.1-2.1C217,365,217.9,364.1,219.1,364.1z"/>
					<path class="st20" d="M265,389.6C265,389.6,265,389.6,265,389.6c0,0,0-0.1,0-0.1c0-1.1,0.9-2.1,2.1-2.1c1.1,0,2.1,0.9,2.1,2.1
						s-0.9,2.1-2.1,2.1c0,0,0,0,0,0c0,0,0,0.1,0,0.1c0,0.2-0.1,0.5-0.1,0.7c0,0,0.1,0,0.1,0c0.8,0,1.4,0.6,1.4,1.4
						c0,0.8-0.6,1.4-1.4,1.4c-0.8,0-1.4-0.6-1.4-1.4c0,0,0-0.1,0-0.1c-0.2,0.1-0.4,0.1-0.7,0.1c-1.1,0-2.1-0.9-2.1-2.1
						C262.9,390.5,263.8,389.6,265,389.6z"/>
					<path class="st20" d="M247.7,362.7c0.8,0,1.4,0.6,1.4,1.4c0,0.8-0.6,1.4-1.4,1.4c-0.8,0-1.4-0.6-1.4-1.4
						C246.3,363.3,247,362.7,247.7,362.7z"/>
					<path class="st20" d="M220.5,356.2c-0.8,0-1.4-0.6-1.4-1.4c0-0.8,0.6-1.4,1.4-1.4c0.8,0,1.4,0.6,1.4,1.4
						C221.9,355.6,221.2,356.2,220.5,356.2z"/>
					<path class="st20" d="M268.4,376.5c-0.8,0-1.4-0.6-1.4-1.4c0-0.8,0.6-1.4,1.4-1.4c0.8,0,1.4,0.6,1.4,1.4
						C269.8,375.9,269.2,376.5,268.4,376.5z"/>
					<path class="st20" d="M248.7,353.3c-0.8,0-1.4-0.6-1.4-1.4c0-0.8,0.6-1.4,1.4-1.4c0.8,0,1.4,0.6,1.4,1.4
						C250.1,352.7,249.5,353.3,248.7,353.3z"/>
				</g>
				<path class="st18" d="M189.6,319c-6.6-8.9-20.4-13.7-28-3.2c-0.1,0.2,0.2,0.4,0.3,0.2c4.7-5.7,13.2-6,19.3-2.3
					c5.6,3.4,9,9.5,11.5,15.4c5.3,12.3,8.3,36.8,8.3,58C203.3,359.9,199.2,331.9,189.6,319z"/>
				<g>
					<path class="st20" d="M196.7,331.5c-0.8,0-1.4,0.4-1.8,1c0,0-0.1-0.1-0.1-0.1c0.6-0.3,1-0.9,1-1.7c0-0.7-0.4-1.2-0.9-1.6
						c1.4-0.4,2.4-1.6,2.4-3.1c0-1.8-1.5-3.3-3.3-3.3c-0.1,0-0.2,0-0.3,0.1c0.3-0.3,0.5-0.7,0.5-1.1c0-0.8-0.7-1.5-1.5-1.5
						c-0.2,0-0.4,0.1-0.6,0.1c-0.3-1.2-1.1-2.2-2.4-2.5c0.2-0.3,0.4-0.7,0.4-1.1c0-1-0.8-1.8-1.8-1.9c0.1-0.1,0.1-0.3,0.1-0.4
						c0-0.6-0.5-1-1-1c-0.6,0-1,0.5-1,1c0,0.4,0.2,0.7,0.5,0.9c-0.4,0.4-0.7,0.9-0.7,1.5c0,0.1,0,0.2,0,0.2
						c-0.2-0.1-0.5-0.2-0.7-0.2c-0.5,0-0.9,0.3-1.2,0.7c-0.6-1-1.6-1.7-2.8-1.7c-0.2,0-0.4,0.1-0.5,0.1c0-0.2,0.1-0.3,0.1-0.5
						c0-1.1-0.9-2-2-2c-0.4,0-0.8,0.2-1.1,0.4c-0.3-0.2-0.6-0.4-1-0.4c-0.8,0-1.5,0.7-1.5,1.5c0,0.8,0.7,1.5,1.5,1.5
						c0.1,0,0.2,0,0.3-0.1c0.3,0.5,0.8,0.9,1.4,1c-0.4,0.5-0.6,1.1-0.6,1.8c0,1.8,1.5,3.3,3.3,3.3c0.5,0,1-0.2,1.5-0.4
						c0.2,0.5,0.6,0.9,1.1,1.2c-0.2,0.2-0.3,0.4-0.3,0.7c0,0.6,0.5,1,1,1c0.6,0,1-0.5,1-1c0-0.2-0.1-0.4-0.2-0.6
						c0.2-0.1,0.5-0.1,0.7-0.3c0.6,0.8,1.5,1.4,2.6,1.4c1.2,0,2.2-0.6,2.7-1.6c0.2,0.2,0.5,0.3,0.8,0.4c-1.1,0.5-1.9,1.6-1.9,2.9
						c0,0.7,0.3,1.3,0.7,1.9c-0.7,0.1-1.3,0.7-1.3,1.4c0,0,0,0.1,0,0.1c-0.8,0.3-1.3,1-1.3,1.8c0,1.1,0.9,2,2,2
						c0.8,0,1.4-0.4,1.7-1.1c0.1,0.1,0.3,0.2,0.4,0.3c-0.3,0.3-0.5,0.6-0.5,1.1c0,0.5,0.3,0.9,0.7,1.2c-0.5,0.4-0.9,1-0.9,1.8
						c0,1.3,1,2.3,2.3,2.3c1.3,0,2.3-1,2.3-2.3c0-0.1-0.1-0.2-0.1-0.4c0,0,0,0,0.1,0c1.3,0,2.3-1,2.3-2.3
						C199,332.5,198,331.5,196.7,331.5z"/>
					<path class="st20" d="M165.3,311.8c-0.9,0-1.6,0.6-1.8,1.4c-0.1-0.1-0.2-0.1-0.2-0.2c0.1-0.2,0.2-0.5,0.2-0.7
						c0-0.8-0.7-1.5-1.5-1.5c-0.8,0-1.5,0.7-1.5,1.5c0,0.3,0.1,0.5,0.2,0.7c-0.5,0.4-0.9,1-0.9,1.7c0,0.2,0.1,0.4,0.1,0.5
						c0,0-0.1,0-0.1,0c-0.8,0-1.5,0.7-1.5,1.5c0,0.1,0,0.2,0.1,0.3c-0.5,0.1-0.8,0.5-0.8,1c0,0.6,0.5,1,1,1c0.5,0,0.9-0.4,1-0.8
						c0.1,0,0.2,0.1,0.3,0.1c0.2,0,0.4-0.1,0.6-0.2c0.2,0.6,0.7,0.9,1.4,0.9c0.8,0,1.5-0.7,1.5-1.5c0-0.3-0.1-0.6-0.3-0.9
						c0.5-0.3,0.9-0.8,1.1-1.4c0.3,0.3,0.8,0.5,1.3,0.5c1.1,0,2-0.9,2-2C167.3,312.7,166.4,311.8,165.3,311.8z"/>
					<path class="st20" d="M175.8,311.4c0-1.8-1.5-3.3-3.3-3.3c-0.8,0-1.6,0.3-2.2,0.9c-0.4-0.5-1-0.9-1.7-0.9c-1.3,0-2.3,1-2.3,2.3
						c0,1.3,1,2.3,2.3,2.3c0.3,0,0.6-0.1,0.9-0.2c0.2,0.5,0.5,1,0.9,1.3c-0.2,0.2-0.3,0.5-0.3,0.9c0,0.8,0.7,1.5,1.5,1.5
						s1.5-0.7,1.5-1.5c0,0,0-0.1,0-0.1C174.5,314.4,175.8,313.1,175.8,311.4z"/>
					<circle class="st20" cx="159.9" cy="319.9" r="1"/>
					<circle class="st20" cx="178.7" cy="309.1" r="1"/>
					<circle class="st20" cx="197.3" cy="330.2" r="1"/>
					<circle class="st20" cx="196.7" cy="321.7" r="1"/>
					<path class="st20" d="M164.6,310.8c0.6,0,1-0.5,1-1c0-0.6-0.5-1-1-1c-0.6,0-1,0.5-1,1C163.6,310.3,164.1,310.8,164.6,310.8z"/>
					<path class="st20" d="M187.6,324.9c-0.8,0-1.5,0.7-1.5,1.5c0,0.8,0.7,1.5,1.5,1.5s1.5-0.7,1.5-1.5
						C189,325.6,188.4,324.9,187.6,324.9z"/>
					<path class="st20" d="M184.2,314.3c0.8,0,1.5-0.7,1.5-1.5c0-0.8-0.7-1.5-1.5-1.5c-0.8,0-1.5,0.7-1.5,1.5
						C182.7,313.7,183.4,314.3,184.2,314.3z"/>
					<path class="st20" d="M192.8,318.4c0.8,0,1.5-0.7,1.5-1.5c0-0.8-0.7-1.5-1.5-1.5s-1.5,0.7-1.5,1.5
						C191.3,317.7,192,318.4,192.8,318.4z"/>
				</g>
				<path class="st18" d="M219.8,315c6.6-8.9,20.4-13.7,28-3.2c0.1,0.2-0.2,0.4-0.3,0.2c-4.7-5.7-13.2-6-19.3-2.3
					c-5.6,3.4-9,9.5-11.5,15.4c-5.3,12.3-8.3,36.8-8.3,58C206.1,356,210.2,328,219.8,315z"/>
				<g>
					<path class="st20" d="M212.7,327.5c0.8,0,1.4,0.4,1.8,1c0,0,0.1-0.1,0.1-0.1c-0.6-0.3-1-0.9-1-1.7c0-0.7,0.4-1.2,0.9-1.6
						c-1.4-0.4-2.4-1.6-2.4-3.1c0-1.8,1.5-3.3,3.3-3.3c0.1,0,0.2,0,0.3,0.1c-0.3-0.3-0.5-0.7-0.5-1.1c0-0.8,0.7-1.5,1.5-1.5
						c0.2,0,0.4,0.1,0.6,0.1c0.3-1.2,1.1-2.2,2.4-2.5c-0.2-0.3-0.4-0.7-0.4-1.1c0-1,0.8-1.8,1.8-1.9c-0.1-0.1-0.1-0.3-0.1-0.4
						c0-0.6,0.5-1,1-1c0.6,0,1,0.5,1,1c0,0.4-0.2,0.7-0.5,0.9c0.4,0.4,0.7,0.9,0.7,1.5c0,0.1,0,0.2,0,0.2c0.2-0.1,0.5-0.2,0.7-0.2
						c0.5,0,0.9,0.3,1.2,0.7c0.6-1,1.6-1.7,2.8-1.7c0.2,0,0.4,0.1,0.5,0.1c0-0.2-0.1-0.3-0.1-0.5c0-1.1,0.9-2,2-2
						c0.4,0,0.8,0.1,1.1,0.4c0.3-0.2,0.6-0.4,1-0.4c0.8,0,1.5,0.7,1.5,1.5c0,0.8-0.7,1.5-1.5,1.5c-0.1,0-0.2,0-0.3-0.1
						c-0.3,0.5-0.8,0.9-1.4,1c0.4,0.5,0.6,1.1,0.6,1.8c0,1.8-1.5,3.3-3.3,3.3c-0.5,0-1-0.2-1.5-0.4c-0.2,0.5-0.6,0.9-1.1,1.2
						c0.2,0.2,0.3,0.4,0.3,0.7c0,0.6-0.5,1-1,1c-0.6,0-1-0.5-1-1c0-0.2,0.1-0.4,0.2-0.6c-0.2-0.1-0.5-0.1-0.7-0.3
						c-0.6,0.8-1.5,1.4-2.6,1.4c-1.2,0-2.2-0.6-2.7-1.6c-0.2,0.2-0.5,0.3-0.8,0.4c1.1,0.5,1.9,1.6,1.9,2.9c0,0.7-0.3,1.3-0.7,1.9
						c0.7,0.1,1.3,0.7,1.3,1.4c0,0,0,0.1,0,0.1c0.8,0.3,1.3,1,1.3,1.8c0,1.1-0.9,2-2,2c-0.8,0-1.4-0.4-1.7-1.1
						c-0.1,0.1-0.3,0.2-0.4,0.3c0.3,0.3,0.5,0.6,0.5,1.1c0,0.5-0.3,0.9-0.7,1.2c0.5,0.4,0.9,1,0.9,1.8c0,1.3-1,2.3-2.3,2.3
						s-2.3-1-2.3-2.3c0-0.1,0.1-0.2,0.1-0.4c0,0,0,0-0.1,0c-1.3,0-2.3-1-2.3-2.3S211.4,327.5,212.7,327.5z"/>
					<path class="st20" d="M244.1,307.8c0.9,0,1.6,0.6,1.8,1.4c0.1-0.1,0.2-0.1,0.2-0.2c-0.1-0.2-0.2-0.5-0.2-0.7
						c0-0.8,0.7-1.5,1.5-1.5c0.8,0,1.5,0.7,1.5,1.5c0,0.3-0.1,0.5-0.2,0.7c0.5,0.4,0.9,1,0.9,1.7c0,0.2-0.1,0.4-0.1,0.5
						c0,0,0.1,0,0.1,0c0.8,0,1.5,0.7,1.5,1.5c0,0.1,0,0.2-0.1,0.3c0.5,0.1,0.8,0.5,0.8,1c0,0.6-0.5,1-1,1c-0.5,0-0.9-0.4-1-0.8
						c-0.1,0-0.2,0.1-0.3,0.1c-0.2,0-0.4-0.1-0.6-0.2c-0.2,0.6-0.7,0.9-1.4,0.9c-0.8,0-1.5-0.7-1.5-1.5c0-0.3,0.1-0.6,0.3-0.9
						c-0.5-0.3-0.9-0.8-1.1-1.4c-0.3,0.3-0.8,0.5-1.3,0.5c-1.1,0-2-0.9-2-2C242.1,308.7,243,307.8,244.1,307.8z"/>
					<path class="st20" d="M233.6,307.5c0-1.8,1.5-3.3,3.3-3.3c0.8,0,1.6,0.3,2.2,0.9c0.4-0.5,1-0.9,1.7-0.9c1.3,0,2.3,1,2.3,2.3
						c0,1.3-1,2.3-2.3,2.3c-0.3,0-0.6-0.1-0.9-0.2c-0.2,0.5-0.5,1-0.9,1.3c0.2,0.2,0.3,0.5,0.3,0.9c0,0.8-0.7,1.5-1.5,1.5
						s-1.5-0.7-1.5-1.5c0,0,0-0.1,0-0.1C234.9,310.5,233.6,309.1,233.6,307.5z"/>
					<circle class="st20" cx="249.5" cy="316" r="1"/>
					<circle class="st20" cx="230.7" cy="305.2" r="1"/>
					<circle class="st20" cx="212.1" cy="326.2" r="1"/>
					<path class="st20" d="M212.7,318.7c-0.6,0-1-0.5-1-1c0-0.6,0.5-1,1-1c0.6,0,1,0.5,1,1C213.7,318.3,213.3,318.7,212.7,318.7z"/>
					<path class="st20" d="M244.8,306.8c-0.6,0-1-0.5-1-1s0.5-1,1-1c0.6,0,1,0.5,1,1S245.3,306.8,244.8,306.8z"/>
					<circle class="st20" cx="221.8" cy="322.4" r="1.5"/>
					<circle class="st20" cx="225.2" cy="308.9" r="1.5"/>
					<path class="st20" d="M216.6,314.4c-0.8,0-1.5-0.7-1.5-1.5c0-0.8,0.7-1.5,1.5-1.5s1.5,0.7,1.5,1.5
						C218.1,313.8,217.4,314.4,216.6,314.4z"/>
				</g>
				<path class="st18" d="M241.1,338.7c-7.6-10.5-21.4-5.7-28,3.2c-8.5,11.5-11.9,34.8-11.1,58.9c0.3-0.8,0.8-1.8,1-2.5
					c0.9-18,2.7-36.2,7-46.2c2.5-5.9,5.9-12,11.5-15.4c6.1-3.7,14.6-3.4,19.3,2.3C240.9,339,241.2,338.8,241.1,338.7z"/>
				<g>
					<path class="st20" d="M206,354.4c0.8,0,1.4,0.4,1.8,1c0,0,0.1-0.1,0.1-0.1c-0.6-0.3-1-0.9-1-1.7c0-0.7,0.4-1.2,0.9-1.6
						c-1.4-0.4-2.4-1.6-2.4-3.1c0-1.8,1.5-3.3,3.3-3.3c0.1,0,0.2,0,0.3,0.1c-0.3-0.3-0.5-0.7-0.5-1.1c0-0.8,0.7-1.5,1.5-1.5
						c0.2,0,0.4,0.1,0.6,0.1c0.3-1.2,1.1-2.2,2.4-2.5c-0.2-0.3-0.4-0.7-0.4-1.1c0-1,0.8-1.8,1.8-1.9c-0.1-0.1-0.1-0.3-0.1-0.4
						c0-0.6,0.5-1,1-1s1,0.5,1,1c0,0.4-0.2,0.7-0.5,0.9c0.4,0.4,0.7,0.9,0.7,1.5c0,0.1,0,0.2,0,0.2c0.2-0.1,0.5-0.2,0.7-0.2
						c0.5,0,0.9,0.3,1.2,0.7c0.6-1,1.6-1.7,2.8-1.7c0.2,0,0.4,0.1,0.5,0.1c0-0.2-0.1-0.3-0.1-0.5c0-1.1,0.9-2,2-2
						c0.4,0,0.8,0.1,1.1,0.4c0.3-0.2,0.6-0.4,1-0.4c0.8,0,1.5,0.7,1.5,1.5c0,0.8-0.7,1.5-1.5,1.5c-0.1,0-0.2,0-0.3-0.1
						c-0.3,0.5-0.8,0.9-1.4,1c0.4,0.5,0.6,1.1,0.6,1.8c0,1.8-1.5,3.3-3.3,3.3c-0.5,0-1-0.2-1.5-0.4c-0.2,0.5-0.6,0.9-1.1,1.2
						c0.2,0.2,0.3,0.4,0.3,0.7c0,0.6-0.5,1-1,1c-0.6,0-1-0.5-1-1c0-0.2,0.1-0.4,0.2-0.6c-0.2-0.1-0.5-0.1-0.7-0.3
						c-0.6,0.8-1.5,1.4-2.6,1.4c-1.2,0-2.2-0.6-2.7-1.6c-0.2,0.2-0.5,0.3-0.8,0.4c1.1,0.5,1.9,1.6,1.9,2.9c0,0.7-0.3,1.3-0.7,1.9
						c0.7,0.1,1.3,0.7,1.3,1.4c0,0,0,0.1,0,0.1c0.8,0.3,1.3,1,1.3,1.8c0,1.1-0.9,2-2,2c-0.8,0-1.4-0.4-1.7-1.1
						c-0.1,0.1-0.3,0.2-0.4,0.3c0.3,0.3,0.5,0.6,0.5,1.1c0,0.5-0.3,0.9-0.7,1.2c0.5,0.4,0.9,1,0.9,1.8c0,1.3-1,2.3-2.3,2.3
						c-1.3,0-2.3-1-2.3-2.3c0-0.1,0.1-0.2,0.1-0.4c0,0,0,0-0.1,0c-1.3,0-2.3-1-2.3-2.3C203.7,355.4,204.7,354.4,206,354.4z"/>
					<path class="st20" d="M237.4,334.7c0.9,0,1.6,0.6,1.8,1.4c0.1-0.1,0.2-0.1,0.2-0.2c-0.1-0.2-0.2-0.5-0.2-0.7
						c0-0.8,0.7-1.5,1.5-1.5c0.8,0,1.5,0.7,1.5,1.5c0,0.3-0.1,0.5-0.2,0.7c0.5,0.4,0.9,1,0.9,1.7c0,0.2-0.1,0.4-0.1,0.5
						c0,0,0.1,0,0.1,0c0.8,0,1.5,0.7,1.5,1.5c0,0.1,0,0.2-0.1,0.3c0.5,0.1,0.8,0.5,0.8,1c0,0.6-0.5,1-1,1c-0.5,0-0.9-0.4-1-0.8
						c-0.1,0-0.2,0.1-0.3,0.1c-0.2,0-0.4-0.1-0.6-0.2c-0.2,0.6-0.7,0.9-1.4,0.9c-0.8,0-1.5-0.7-1.5-1.5c0-0.3,0.1-0.6,0.3-0.9
						c-0.5-0.3-0.9-0.8-1.1-1.4c-0.3,0.3-0.8,0.5-1.3,0.5c-1.1,0-2-0.9-2-2C235.4,335.6,236.3,334.7,237.4,334.7z"/>
					<path class="st20" d="M226.9,334.3c0-1.8,1.5-3.3,3.3-3.3c0.8,0,1.6,0.3,2.2,0.9c0.4-0.5,1-0.9,1.7-0.9c1.3,0,2.3,1,2.3,2.3
						c0,1.3-1,2.3-2.3,2.3c-0.3,0-0.6-0.1-0.9-0.2c-0.2,0.5-0.5,1-0.9,1.3c0.2,0.2,0.3,0.5,0.3,0.9c0,0.8-0.7,1.5-1.5,1.5
						s-1.5-0.7-1.5-1.5c0,0,0-0.1,0-0.1C228.2,337.3,226.9,336,226.9,334.3z"/>
					<circle class="st20" cx="242.8" cy="342.8" r="1"/>
					<circle class="st20" cx="224" cy="332" r="1"/>
					<circle class="st20" cx="205.4" cy="353.1" r="1"/>
					<circle class="st20" cx="206" cy="344.6" r="1"/>
					<path class="st20" d="M238.1,333.7c-0.6,0-1-0.5-1-1s0.5-1,1-1c0.6,0,1,0.5,1,1S238.6,333.7,238.1,333.7z"/>
					<circle class="st20" cx="215.1" cy="349.3" r="1.5"/>
					<circle class="st20" cx="218.5" cy="335.8" r="1.5"/>
					<circle class="st20" cx="209.9" cy="339.8" r="1.5"/>
				</g>
				<path class="st18" d="M191.9,400.3c-0.3-16.3-3.6-24.2-11.1-34.3c-6.6-8.9-20.4-13.7-28-3.2c-0.1,0.2,0.2,0.4,0.3,0.2
					c4.7-5.7,13.2-6,19.3-2.3c5.6,3.4,9,9.5,11.5,15.4c3.2,7.6,4.9,13.6,6,21.6C190.8,398.4,191.4,399.3,191.9,400.3z"/>
				<g>
					<path class="st20" d="M187.9,378.5c-0.8,0-1.4,0.4-1.8,1c0,0-0.1-0.1-0.1-0.1c0.6-0.3,1-0.9,1-1.7c0-0.7-0.4-1.2-0.9-1.6
						c1.4-0.4,2.4-1.6,2.4-3.1c0-1.8-1.5-3.3-3.3-3.3c-0.1,0-0.2,0-0.3,0.1c0.3-0.3,0.5-0.7,0.5-1.1c0-0.8-0.7-1.5-1.5-1.5
						c-0.2,0-0.4,0.1-0.6,0.1c-0.3-1.2-1.1-2.2-2.4-2.5c0.2-0.3,0.4-0.7,0.4-1.1c0-1-0.8-1.8-1.8-1.9c0.1-0.1,0.1-0.3,0.1-0.4
						c0-0.6-0.5-1-1-1c-0.6,0-1,0.5-1,1c0,0.4,0.2,0.7,0.5,0.9c-0.4,0.4-0.7,0.9-0.7,1.5c0,0.1,0,0.2,0,0.2
						c-0.2-0.1-0.5-0.2-0.7-0.2c-0.5,0-0.9,0.3-1.2,0.7c-0.6-1-1.6-1.7-2.8-1.7c-0.2,0-0.4,0.1-0.5,0.1c0-0.2,0.1-0.3,0.1-0.5
						c0-1.1-0.9-2-2-2c-0.4,0-0.8,0.2-1.1,0.4c-0.3-0.2-0.6-0.4-1-0.4c-0.8,0-1.5,0.7-1.5,1.5c0,0.8,0.7,1.5,1.5,1.5
						c0.1,0,0.2,0,0.3-0.1c0.3,0.5,0.8,0.9,1.4,1c-0.4,0.5-0.6,1.1-0.6,1.8c0,1.8,1.5,3.3,3.3,3.3c0.5,0,1-0.2,1.5-0.4
						c0.2,0.5,0.6,0.9,1.1,1.2c-0.2,0.2-0.3,0.4-0.3,0.7c0,0.6,0.5,1,1,1c0.6,0,1-0.5,1-1c0-0.2-0.1-0.4-0.2-0.6
						c0.2-0.1,0.5-0.1,0.7-0.3c0.6,0.8,1.5,1.4,2.6,1.4c1.2,0,2.2-0.6,2.7-1.6c0.2,0.2,0.5,0.3,0.8,0.4c-1.1,0.5-1.9,1.6-1.9,2.9
						c0,0.7,0.3,1.3,0.7,1.9c-0.7,0.1-1.3,0.7-1.3,1.4c0,0,0,0.1,0,0.1c-0.8,0.3-1.3,1-1.3,1.8c0,1.1,0.9,2,2,2
						c0.8,0,1.4-0.4,1.7-1.1c0.1,0.1,0.3,0.2,0.4,0.3c-0.3,0.3-0.5,0.6-0.5,1.1c0,0.5,0.3,0.9,0.7,1.2c-0.5,0.4-0.9,1-0.9,1.8
						c0,1.3,1,2.3,2.3,2.3c1.3,0,2.3-1,2.3-2.3c0-0.1-0.1-0.2-0.1-0.4c0,0,0,0,0.1,0c1.3,0,2.3-1,2.3-2.3
						C190.2,379.5,189.1,378.5,187.9,378.5z"/>
					<path class="st20" d="M156.5,358.8c-0.9,0-1.6,0.6-1.8,1.4c-0.1-0.1-0.2-0.1-0.2-0.2c0.1-0.2,0.2-0.5,0.2-0.7
						c0-0.8-0.7-1.5-1.5-1.5c-0.8,0-1.5,0.7-1.5,1.5c0,0.3,0.1,0.5,0.2,0.7c-0.5,0.4-0.9,1-0.9,1.7c0,0.2,0.1,0.4,0.1,0.5
						c0,0-0.1,0-0.1,0c-0.8,0-1.5,0.7-1.5,1.5c0,0.1,0,0.2,0.1,0.3c-0.5,0.1-0.8,0.5-0.8,1c0,0.6,0.5,1,1,1c0.5,0,0.9-0.4,1-0.8
						c0.1,0,0.2,0.1,0.3,0.1c0.2,0,0.4-0.1,0.6-0.2c0.2,0.6,0.7,0.9,1.4,0.9c0.8,0,1.5-0.7,1.5-1.5c0-0.3-0.1-0.6-0.3-0.9
						c0.5-0.3,0.9-0.8,1.1-1.4c0.3,0.3,0.8,0.5,1.3,0.5c1.1,0,2-0.9,2-2C158.4,359.7,157.6,358.8,156.5,358.8z"/>
					<path class="st20" d="M166.9,358.4c0-1.8-1.5-3.3-3.3-3.3c-0.8,0-1.6,0.3-2.2,0.9c-0.4-0.5-1-0.9-1.7-0.9c-1.3,0-2.3,1-2.3,2.3
						c0,1.3,1,2.3,2.3,2.3c0.3,0,0.6-0.1,0.9-0.2c0.2,0.5,0.5,1,0.9,1.3c-0.2,0.2-0.3,0.5-0.3,0.9c0,0.8,0.7,1.5,1.5,1.5
						s1.5-0.7,1.5-1.5c0,0,0-0.1,0-0.1C165.7,361.4,166.9,360.1,166.9,358.4z"/>
					<circle class="st20" cx="151" cy="367" r="1"/>
					<path class="st20" d="M169.9,357.2c0.6,0,1-0.5,1-1c0-0.6-0.5-1-1-1c-0.6,0-1,0.5-1,1C168.8,356.7,169.3,357.2,169.9,357.2z"/>
					<circle class="st20" cx="188.4" cy="377.2" r="1"/>
					<circle class="st20" cx="187.9" cy="368.7" r="1"/>
					<path class="st20" d="M155.8,357.8c0.6,0,1-0.5,1-1s-0.5-1-1-1c-0.6,0-1,0.5-1,1S155.2,357.8,155.8,357.8z"/>
					<path class="st20" d="M178.7,371.9c-0.8,0-1.5,0.7-1.5,1.5c0,0.8,0.7,1.5,1.5,1.5s1.5-0.7,1.5-1.5
						C180.2,372.6,179.5,371.9,178.7,371.9z"/>
					<path class="st20" d="M175.4,361.4c0.8,0,1.5-0.7,1.5-1.5c0-0.8-0.7-1.5-1.5-1.5c-0.8,0-1.5,0.7-1.5,1.5
						C173.9,360.7,174.5,361.4,175.4,361.4z"/>
					<path class="st20" d="M184,365.4c0.8,0,1.5-0.7,1.5-1.5c0-0.8-0.7-1.5-1.5-1.5s-1.5,0.7-1.5,1.5
						C182.5,364.7,183.1,365.4,184,365.4z"/>
				</g>
			</g>
			<path class="st21" d="M179.3,422c-0.8-5.6-3-11.3-9.7-11.3c-7.1,0-9.9,6.9-11.3,12.4c-1.4,5.5-1.2,12.6-0.5,14.4
				c0.4-1.2,0.8-16.2,6.8-20.6c4.7-3.5,9.2-1.9,10.5,1.8c1.8,5.3,0.8,15.7,0.8,15.7l3.2,1.6C179.1,436,180.4,430.3,179.3,422z"/>
			<path class="st22" d="M167.4,409.5c0,0,3.5-5.5,12.3-3.9c8.8,1.6,9.8,10.2,10.3,14.4c0.4,4.2-1,10.6-1,10.6l-1.3-1.4
				c0,0,0-8.1-1.5-13.4c-1.3-4.9-3.2-6.9-8.3-7.9C172.1,406.7,167.4,409.5,167.4,409.5z"/>
			<path class="st22" d="M242.5,399.6c0,0-3.5-5.5-12.3-3.9s-9.8,10.2-10.3,14.4c-0.4,4.2,1,10.6,1,10.6l1.3-1.4c0,0,0-8.1,1.5-13.4
				c1.3-4.9,3.2-6.9,8.3-7.9C237.9,396.9,242.5,399.6,242.5,399.6z"/>
			<path class="st21" d="M188.6,426.3c-0.8-5.6-3-11.3-9.7-11.3c-7.1,0-9.9,6.9-11.3,12.4c-1.4,5.5-1.2,12.6-0.5,14.4
				c0.4-1.2,0.8-16.2,6.8-20.6c4.7-3.5,9.2-1.9,10.5,1.8c1.8,5.3,1.3,15.6,1.3,15.6l3.3,0.9C189,439.5,189.7,434.6,188.6,426.3z"/>
			<path class="st21" d="M209.7,417.8c8.4-0.7,10.6,5.5,12,11c1.4,5.5-0.3,17.3-0.6,16.1c-0.4-1.2-0.7-19.5-5.8-22.4
				c-5.2-2.9-7.3-0.2-9.4,3.1c-3.5,5.5-3.2,16-3.2,16l-3.7-0.3C198.9,441.3,198.9,418.7,209.7,417.8z"/>
			<path class="st21" d="M224.9,417.8c8.4-0.7,10.6,5.5,12,11c1.4,5.5-0.3,17.3-0.6,16.1c-0.4-1.2-0.7-19.5-5.8-22.4
				c-5.2-2.9-7.3-0.2-9.4,3.1c-3.5,5.5-3.4,15.9-3.4,15.9l-3.6,0.3C214.1,441.8,214.1,418.7,224.9,417.8z"/>
			<path class="st21" d="M161.1,404.6c0,0,3.1-10.7,15.4-7.9c9.3,2.1,12.1,12.9,12.1,12.9s-6.1-8.7-11.4-9.8
				C169.8,398.4,163.9,400.9,161.1,404.6z"/>
			<path class="st21" d="M190.5,439.9c0,0,0.2-18.1,4.7-28.8c3.9-9.3,13.9-5.3,16.8,1.3c2.9,6.6-0.3,15.9-0.3,15.9s1-11.5-2.6-16
				c-2.9-3.6-7.7-5.6-10.5-1.7c-2.8,3.9-4.2,12.9-4.8,18.8c-0.3,3.4-0.5,11.1-0.5,11.1L190.5,439.9z"/>
			<path class="st21" d="M228.3,439.4c0,0-2.7-20.4,2.3-30.9c4-8.3,15.3-6.6,18.2,0c2.9,6.6,1.9,13.5,1.9,13.5s-1.4-11.8-5-14.4
				c-3.8-2.7-8.2-2.4-11,1.6c-2.8,3.9-3.1,13.5-3.1,18.5c0,3.5,0.9,10.1,0.9,10.1L228.3,439.4z"/>
			<path class="st21" d="M227.5,405.6c0,0,1.9-11,13.7-13.6c11.8-2.6,17.2,3.2,17.2,3.2s-8.9-3.5-16-1.1
				C231.4,397.7,227.5,405.6,227.5,405.6z"/>
			<path class="st21" d="M169.1,381.7c0,0,11.5-4.4,20.1,3.7c6.2,5.8,7.9,19.5,7.9,19.5s1-10.9-4.4-19.5
				C187.3,376.9,173.5,378.2,169.1,381.7z"/>
			<path class="st21" d="M172.9,390.6c0,0,10.2-2.7,15.6,5.9c5,8,5,24.7,5,24.7l1.8-7c0,0,0.1-15.6-7.4-22.3
				C180.4,385.1,172.9,390.6,172.9,390.6z"/>
			<path class="st21" d="M214.5,420c0,0-2.5-25.5,4.9-33.2c7.4-7.7,14.8-2.7,14.8-2.7s-6-3.8-13.5,4.9c-4,4.6-3.5,32.2-3.5,32.2
				L214.5,420z"/>
			<path class="st21" d="M201.6,407.5c0,0-2.7-20,4.6-28.7c5.8-7,12.3-7.5,12.3-7.5s-5.9,4-8.9,8.8c-6.3,10-5.3,27.3-5.3,27.3
				L201.6,407.5z"/>
			<path class="st21" d="M224.2,394.7c0.1-1.1,1.6-10.6,10.5-14.4c8.9-3.7,14.2,3.8,14.2,3.8s-7.6-3.8-13.7-1.1
				C227.6,386.4,224.2,394.7,224.2,394.7z"/>
			<path class="st21" d="M227.8,365.1c0,0-4.9,0.6-8,7.6c-3.1,7-1.3,17-1.3,17s0.7-12.5,3.5-17.4C225,367.4,227.8,365.1,227.8,365.1
				z"/>
			<path class="st22" d="M211.4,401c0,0-4.7,1.3-9.5,8.6c-7.6,11.6-6.6,31.2-6.6,31.2l2.4,0.3c0,0-0.5-13.2,4.2-24.7
				C205.6,407.3,211.4,401,211.4,401z"/>
			<path class="st22" d="M193.9,363.8c0,0,6.2,2.8,8.9,8.7c2.7,5.9,3,10.6,3,10.6s-2.1-5.2-4.7-9.8
				C198.5,368.6,193.9,363.8,193.9,363.8z"/>
			<path class="st22" d="M234,418.3c0,0,4.7-5.1,12.1-6.8s10.4,0.5,10.4,0.5s-3.3-4.1-10.1-3.4C239.6,409.3,234,418.3,234,418.3z"/>
		</g>
	</g>
	<g>
		<path class="st23" d="M368.6,446.7c-0.6-0.4-1.2-0.8-1.8-1.4c-4-4.3-10.7-2.2-14.1,1.4c-4.8,5-7.5,11.4-10.2,17.7
			c0.4,3.4,0.7,6.7,0.7,6.7c0.9-5.4,10.8-25.8,14.9-26.7c6.1-1.4,9.6,3,8.5,10.3c-0.2,1.4-0.4,2.7-0.8,4c-4.5,16.2-20.4,29-20.4,29
			l1.1,10.7c0,0,9.2-8.8,15-16.9c5.4-7.5,13.1-22.9,7.4-34C368.8,447.1,368.7,446.9,368.6,446.7z"/>
		<g class="st24">
			<path class="st25" d="M367.9,448c-0.1-0.2-0.2-0.4-0.3-0.6c-0.5-0.3-0.9-0.6-1.3-1c4.5,11-2.8,25.5-8,32.7
				c-4.3,6-10.3,12.3-13.2,15.2l0.5,4.7c0,0,9.2-8.8,15-16.9C365.9,474.5,373.7,459.1,367.9,448z"/>
		</g>
		<path class="st26" d="M348.6,485.4c-1.6,1.5-2.6,2.3-2.6,2.3l0.9,8.6c0,0,2.5-2.3,5.4-5.6C351.1,488.9,349.6,487.3,348.6,485.4z"
			/>
		<path class="st27" d="M366.6,454.6c-0.2,1.2-0.4,2.3-0.7,3.4c2.1,0.7,3.6,2.3,4.3,4.1c1.1-5.1,1-10.3-1.4-14.8
			c-0.1-0.2-0.2-0.4-0.3-0.6c-0.6-0.4-1.2-0.8-1.8-1.4c-0.7-0.7-1.4-1.2-2.2-1.6c0,0.4-3.8-0.4-3.9,0c0,0.1,2.5,0.8,3.5,1.7
			C366.3,447.2,367.2,450.4,366.6,454.6z"/>
		<path class="st28" d="M369.8,449c-2.4-6.3-6.8-8.2-11.1-8.2c-4,0-9.1,3.3-11.4,6.7c-1.4,2.1-5.6,8.8-5.6,9c0,0,1.5,14.5,1.5,14.5
			c0.7-4.5,8.4-18,13-23.5c1.4-1.7,3.3-2.8,5.4-3.1C365.4,444,368.2,446.3,369.8,449z"/>
		<g>
			<path class="st29" d="M358.6,440.9c-4,0-9.1,3.3-11.4,6.7c-1.4,2.1-5.6,8.8-5.6,9c0,0,0.1,1.5,0.4,3.4h1.8c0,0-0.7,6.2-0.7,6.2
				c0-0.2,5.5-11.1,6.9-13.3c4.3-6.8,7.4-9.2,11.6-9.3c2.3,0,4.5,0.8,6.5,2.2C365.6,442,362.1,440.8,358.6,440.9z"/>
			<path class="st29" d="M369.5,448.6c0.1,0.1,0.2,0.3,0.2,0.4c0-0.1-0.1-0.2-0.1-0.3C369.6,448.7,369.6,448.7,369.5,448.6z"/>
		</g>
		<path class="st26" d="M344.9,460.5c0.8-1.5,1.7-3.5,2.9-5c-0.7-1.3-1.6-2.5-2.8-3.2c-1.2,2-2.6,4.2-2.6,4.3c0,0,0.4,4.3,0.8,7.5
			C343.7,462.9,344.3,461.7,344.9,460.5z"/>
		<g class="st24">
			<path class="st30" d="M357.9,442.3c-3.3,0-7.6,2.8-9.5,5.6c-0.3,0.5-0.8,1.3-1.4,2.2c0.7,0.5,1.3,1.1,1.8,1.9
				c0.1,0.2,0.2,0.4,0.4,0.6c0.2-0.4,0.5-0.8,0.6-1.1c5.9-9.6,11.4-8.4,11.8-8.4C360.1,442.3,359.5,442.3,357.9,442.3z"/>
		</g>
		<path class="st31" d="M308.4,442c0,0,3.3-22.3,9.6-25.8l2.6-0.8l-3.3-1l-3.4,0.5l-1.3,0.6c0,0-8.7,7.2-10.9,27.2L308.4,442z"/>
		<path class="st27" d="M302.2,438.8c-0.2,1.3-0.4,2.6-0.5,3.9l6.7-0.7c0,0,0.2-1.4,0.6-3.4C306.4,438.2,304.7,438.2,302.2,438.8z"
			/>
		<path class="st27" d="M317.3,414.4l-3.4,0.5l-1.3,0.6c0,0-2.5,2.1-5.2,7.2c0.1-0.1,0.2-0.1,0.4-0.2c1.8-0.7,3.8-0.5,5.5,0.4
			c1.3-3.2,2.9-5.8,4.8-6.8l2.6-0.8L317.3,414.4z"/>
		<linearGradient id="SVGID_3_" gradientUnits="userSpaceOnUse" x1="324.6177" y1="446.6867" x2="315.126" y2="529.3647">
			<stop  offset="8.021390e-02" style="stop-color:#D2E0E6"/>
			<stop  offset="0.5027" style="stop-color:#CFD4D4"/>
			<stop  offset="1" style="stop-color:#AFC0CC"/>
		</linearGradient>
		<path class="st32" d="M295.7,445.1L281,519.7c0,0,18.1,14.2,41.8,10.1c23.8-4.1,28.6-9.9,28.6-9.9l-9.7-75.7c0,0-5-5-23.6-5
			C302.5,439.2,295.7,445.1,295.7,445.1z"/>
		<linearGradient id="SVGID_4_" gradientUnits="userSpaceOnUse" x1="323.634" y1="450.611" x2="314.7355" y2="528.1212">
			<stop  offset="8.021390e-02" style="stop-color:#D2E0E6"/>
			<stop  offset="0.5027" style="stop-color:#CFD4D4"/>
			<stop  offset="1" style="stop-color:#AFC0CC"/>
		</linearGradient>
		<path class="st33" d="M313.6,503c-10.1-1.5-18.2-6.2-25.5-12.8l-5.8,28.9c0,0,17.1,13.3,39.7,9.5c22.5-3.9,27.2-9.3,27.2-9.3
			l-3.6-27.6C342,498.4,325.3,504.8,313.6,503z"/>
		<path class="st34" d="M318.1,439.2c-15.6,0-22.4,5.8-22.4,5.8l-0.5,2.5c8.1,5.8,18.7,6,23.4,6c9,0,18.3-3.3,23.4-6.9l-0.3-2.5
			C341.7,444.2,336.7,439.2,318.1,439.2z"/>
		<linearGradient id="SVGID_5_" gradientUnits="userSpaceOnUse" x1="301.5463" y1="444.038" x2="292.0545" y2="526.7158">
			<stop  offset="8.021390e-02" style="stop-color:#D2E0E6"/>
			<stop  offset="0.5027" style="stop-color:#CFD4D4"/>
			<stop  offset="1" style="stop-color:#AFC0CC"/>
		</linearGradient>
		<path class="st35" d="M301.7,484.2c0.7-3.2,0.9-9.1-2-11.4c-0.6-0.5-4.5,1-6.4,1.7c0.4,2.3,0.8,4.5,1.7,6.7
			C295.8,483.2,300.3,490.6,301.7,484.2z"/>
		<linearGradient id="SVGID_6_" gradientUnits="userSpaceOnUse" x1="304.1743" y1="444.3407" x2="294.6826" y2="527.0178">
			<stop  offset="8.021390e-02" style="stop-color:#D2E0E6"/>
			<stop  offset="0.5027" style="stop-color:#CFD4D4"/>
			<stop  offset="1" style="stop-color:#AFC0CC"/>
		</linearGradient>
		<path class="st36" d="M303.9,519.6c-2.8-5.9-5.6-11.9-8-18c-0.6,0.1-1.2,0.3-1.8,0.4c-1.2,2.5-2.9,4.5-5.9,6.1
			c-1.8,1-3.6,1.9-5.4,2.8l-1.7,8.8c0,0,11.3,8.9,27.8,10.6C307.5,526.5,305.4,522.9,303.9,519.6z"/>
		<linearGradient id="SVGID_7_" gradientUnits="userSpaceOnUse" x1="288.5457" y1="474.9281" x2="330.6962" y2="515.0178">
			<stop  offset="9.625670e-02" style="stop-color:#48616E"/>
			<stop  offset="0.4973" style="stop-color:#84959D"/>
			<stop  offset="1" style="stop-color:#86969F"/>
		</linearGradient>
		<path class="st37" d="M302.8,441.5c-0.5,2.9-13.7,77.1-15.2,82.3c1.6,0.8,3.5,1.7,5.5,2.6c2.1-16.5,8-74.3,11.9-85.6
			C304.2,441,303.5,441.3,302.8,441.5z"/>
		<path class="st38" d="M292.4,499.4c-2.3,12.5-4.2,22.6-4.8,24.4c1.6,0.8,3.5,1.7,5.5,2.6c0.7-5.5,1.8-15.6,3.1-27H292.4z"/>
		<linearGradient id="SVGID_8_" gradientUnits="userSpaceOnUse" x1="307.0282" y1="455.4943" x2="349.1794" y2="495.5847">
			<stop  offset="9.625670e-02" style="stop-color:#48616E"/>
			<stop  offset="0.4973" style="stop-color:#84959D"/>
			<stop  offset="1" style="stop-color:#86969F"/>
		</linearGradient>
		<path class="st39" d="M334.8,442.8c-1.4,0.2-1.4,0.2-2.9,0.4c0.7,5.5,7.7,81.7,7.8,82.6c2.3-0.8,4.1-1.5,5.7-2.2
			C343.8,518.2,334.8,442.8,334.8,442.8z"/>
		<linearGradient id="SVGID_9_" gradientUnits="userSpaceOnUse" x1="323.4386" y1="456.807" x2="319.6919" y2="513.5076">
			<stop  offset="9.625670e-02" style="stop-color:#48616E"/>
			<stop  offset="0.4973" style="stop-color:#84959D"/>
			<stop  offset="1" style="stop-color:#86969F"/>
		</linearGradient>
		<path class="st40" d="M323.2,448.9c-0.1-1.4-0.2-2.7-0.3-4.1c-2,0.4-4.1,0.6-6.2,0.7c-0.2,0-0.4,0-0.6,0c-0.1,1.8-0.3,3.5-0.4,5.3
			c-0.8,8.8-4.2,63.6-7.2,79.5c4.5,0.5,9.3,0.5,14.4-0.4c2.2-0.4,4.2-0.8,6.1-1.2C328.8,522.6,323.8,469.4,323.2,448.9z"/>
		<path class="st41" d="M319.3,452.8c7.6,0,16.7-2.2,22.6-7.3l-0.2-1.3c0,0-5-5-23.6-5c-15.6,0-22.4,5.8-22.4,5.8l-0.2,1.3
			C302.7,451.5,309.4,452.9,319.3,452.8z"/>
		<path class="st42" d="M321,439.3c-1.6,0.9-3.3,1.4-5.3,1.9c-5.6,1.5-2.3,6.5,0.8,8.1c0.9,0.5,1.8,0.8,2.7,1.2
			c1.3,0.4,2.6,0.7,3.9,1.1c0.1,0,0.2,0.1,0.3,0.2c9.8-0.9,15.3-4.6,18.2-7.5C341.5,444,336.9,439.7,321,439.3z"/>
		<path class="st43" d="M314.2,446.8c-4.4-4.2,3.9-6,10.2-7.4c-1.9-0.1-4-0.2-6.3-0.2c-15.6,0-22.4,5.8-22.4,5.8l0,0.1
			c4,3.1,11.5,7,23.9,6.8c4.2-0.1,7.7-0.6,10.6-1.4C326,450.3,317.8,450.3,314.2,446.8z"/>
		<path class="st44" d="M337,451.9c0,0-0.6-20.3-9.3-33c-2.4-3.6-6.6-5.5-10.9-4.8c-1.6,0.3-3.2,0.7-4.3,1.4c0,0,5.7-1.3,9,2
			c3.3,3.3,9.6,21.3,9.9,34.4C331.5,451.9,335.1,450.5,337,451.9z"/>
		<path class="st45" d="M331.8,449.7c0,0.7,0.1,1.4,0.1,2c0,0,3-1.2,4.6,0c0,0,0-0.7-0.1-2C335.2,449,333,448.8,331.8,449.7z"/>
		<path class="st46" d="M339.3,455.8c0,2.9-2.4,5.2-5.4,5.2c-3,0-5.4-2.3-5.4-5.2s2.4-5.2,5.4-5.2
			C336.9,450.7,339.3,453,339.3,455.8z"/>
		<path class="st47" d="M339.3,455.1c0,2.7-2.2,4.8-5,4.8c-2.8,0-5-2.2-5-4.8c0-2.7,2.2-4.8,5-4.8
			C337,450.3,339.3,452.5,339.3,455.1z"/>
		<path class="st48" d="M337,455.1c0,1.5-1.2,2.7-2.8,2.7c-1.5,0-2.8-1.2-2.8-2.7c0-1.5,1.2-2.7,2.8-2.7
			C335.8,452.5,337,453.7,337,455.1z"/>
		<path class="st49" d="M334.3,452.5c-0.7,0-1.4,0.3-1.9,0.7c0.4-0.3,1-0.4,1.5-0.4c1.5,0,2.8,1.2,2.8,2.7c0,0.8-0.3,1.4-0.9,1.9
			c0.7-0.5,1.2-1.3,1.2-2.2C337,453.7,335.8,452.5,334.3,452.5z"/>
		<path class="st50" d="M277.4,477.1l19.5-6.1c0,0,2.6-0.5,3.6,1.5c1,2-0.5,3.4-0.5,3.4l-21,4.6L277.4,477.1z"/>
		<path class="st51" d="M279.9,478.5l0.5,1.1l19.1-4.2c0,0,1.1-1.1,0.6-2.6C296.5,474.1,282.8,477.6,279.9,478.5z"/>
		<path class="st52" d="M300.1,502.4c-0.7,6-3.8,10.6-7,10.3c-3.2-0.4-5.3-5.5-4.6-11.6c0.7-6,3.8-10.6,7-10.3
			C298.7,491.2,300.8,496.4,300.1,502.4z"/>
		<path class="st23" d="M256.1,466.1c0,0,22.1,31.3,35.8,43.7c0,0,4.2-0.8,5.3-8s-2.1-9.3-2.1-9.3l-33.3-31.7L256.1,466.1z"/>
		<linearGradient id="SVGID_10_" gradientUnits="userSpaceOnUse" x1="259.366" y1="479.2099" x2="296.8951" y2="479.2099">
			<stop  offset="8.021390e-02" style="stop-color:#D2E0E6"/>
			<stop  offset="1" style="stop-color:#AFC0CC"/>
		</linearGradient>
		<path class="st53" d="M296.9,496.8c-0.7-2-1.7-2.8-1.7-2.8l-33.3-31.7l-2.5-0.8C262.2,463.6,289.2,491.8,296.9,496.8z"/>
		<path class="st54" d="M256.1,462.1l-0.4,2.1c0,0,22.1,31.3,35.8,43.7c0,0,2.8-0.7,4.1-4.6C295.7,503.4,260.7,467.9,256.1,462.1z"
			/>
		<path class="st55" d="M258.4,445l4,16.3c0,0,0.3,2.4-1,4.6c-1,1.6-3.2,3.1-3.2,3.1l-17.7,1.9L258.4,445z"/>
		<path class="st44" d="M260.7,448c-0.3-2.4-2.1-4.2-4.5-4.8c-3.6-0.8-10.1-0.5-16.6,9c-4.3,6.2-5.3,16-1.7,18.6
			c2.1,1.6,5.7,1.2,9.2-0.9C254.6,465.4,261.7,455.1,260.7,448z"/>
		<path class="st56" d="M258.9,448.7c-0.3-2.1-1.9-3.7-3.9-4.2c-3.2-0.7-8.9-0.4-14.6,7.9c-3.8,5.5-4.7,14-1.5,16.3
			c1.8,1.4,5,1,8.1-0.8C253.5,464,259.7,455,258.9,448.7z"/>
		<path class="st57" d="M242.7,459.1c-1.9-1.1-3.2-2.6-4.1-4.3c-3,5.7-3.5,13.2-0.5,15.4c1.9,1.4,5.3,1.1,8.6-0.9
			c4.6-2.7,9-7.7,11.2-12.7C254.2,460.3,247.4,462,242.7,459.1z"/>
		<g>
			<path class="st55" d="M255.6,447.8c0,0.6-0.5,1.1-1.1,1.1c-0.6,0-1.1-0.5-1-1c0-0.6,0.5-1.1,1.1-1.1
				C255.1,446.7,255.6,447.2,255.6,447.8z"/>
			<path class="st55" d="M256.1,453.5c0,0.6-0.5,1.1-1.1,1.1c-0.6,0-1.1-0.4-1-1c0-0.6,0.5-1.1,1.1-1.1
				C255.7,452.5,256.2,452.9,256.1,453.5z"/>
			<path class="st55" d="M252.6,459.4c0,0.6-0.6,1.1-1.2,1.1c-0.6,0-1.1-0.4-1-1c0-0.6,0.6-1.1,1.2-1.1
				C252.1,458.4,252.6,458.8,252.6,459.4z"/>
			<path class="st55" d="M246.5,459.9c0,0.6-0.6,1.1-1.2,1.1c-0.6,0-1.1-0.4-1.1-1c0-0.6,0.6-1.1,1.2-1.1
				C246.1,458.8,246.5,459.3,246.5,459.9z"/>
			<path class="st55" d="M250.1,454.4c0,0.6-0.6,1.1-1.2,1.1c-0.6,0-1.1-0.4-1-1c0-0.6,0.6-1.1,1.2-1.1
				C249.7,453.4,250.2,453.8,250.1,454.4z"/>
			<path class="st55" d="M248.9,449.2c0,0.6-0.6,1.1-1.2,1.1c-0.6,0-1.1-0.5-1.1-1c0-0.6,0.6-1.1,1.2-1.1
				C248.5,448.2,249,448.6,248.9,449.2z"/>
			<path class="st55" d="M247.3,464.5c0,0.6-0.6,1.1-1.2,1.1c-0.6,0-1.1-0.4-1.1-1c0-0.6,0.6-1.1,1.2-1.1
				C246.9,463.4,247.4,463.9,247.3,464.5z"/>
			<path class="st55" d="M244.1,454.6c0,0.6-0.6,1.1-1.2,1.1c-0.6,0-1.1-0.4-1.1-1c0-0.6,0.6-1.1,1.2-1.1
				C243.6,453.6,244.1,454,244.1,454.6z"/>
			<path class="st55" d="M241.5,460.8c0,0.6-0.6,1.1-1.2,1.1c-0.6,0-1.1-0.4-1.1-1c0-0.6,0.6-1.1,1.2-1.1
				C241,459.7,241.5,460.2,241.5,460.8z"/>
			<path class="st55" d="M241.7,466.5c0,0.6-0.6,1.1-1.2,1.2c-0.6,0-1.1-0.4-1.1-1c0-0.6,0.6-1.1,1.2-1.2
				C241.2,465.4,241.7,465.9,241.7,466.5z"/>
		</g>
		<g>
			<path class="st58" d="M322.8,525.4c-20.9,3.6-37.4-7-41-9.6l-0.8,3.9c0,0,18.1,14.2,41.8,10.1c23.8-4.1,28.6-9.9,28.6-9.9l-0.5-4
				C349.2,517.4,342.5,522,322.8,525.4z"/>
			<path class="st59" d="M322.8,527c-21.5,3.7-38.3-7.6-41.3-9.8l-0.3,1.4c2.1,1.6,19.4,13.8,41.6,10c21.5-3.7,27.5-8.8,28.5-9.8
				l-0.2-1.4C349.7,518.7,343.3,523.5,322.8,527z"/>
		</g>
		<path class="st60" d="M312.6,526.1c-15.9-0.5-27.8-8.1-30.8-10.3l-0.4,2.2l-0.1,0.6l-0.2,1.1c0,0,14.1,11.1,33.7,10.9
			C313.8,529.1,313.1,527.6,312.6,526.1z"/>
		<path class="st61" d="M259.1,456.1c0.4-1,0.8-2,1.1-3c-4.4-1.9-9.6-3.1-14-4.7c-0.9-0.3-1.8-0.6-2.7-0.9c-0.6,0.6-1.2,1.2-1.8,1.9
			C247.5,451.6,253.3,453.8,259.1,456.1z"/>
		<path class="st61" d="M260.7,449.9c0-0.7,0-1.3-0.1-2c-0.3-2.4-2.1-4.2-4.5-4.8c-2.3-0.5-5.7-0.6-9.6,1.8
			C251.3,446.7,256,448.4,260.7,449.9z"/>
		<path class="st62" d="M330.1,455.8c2.7-1.2,5.3-2.5,7.8-3.9c-0.9-1-2.2-1.6-3.7-1.6c-2.8,0-5,2.2-5,4.8c0,0.3,0,0.7,0.1,1
			C329.6,456,329.9,455.9,330.1,455.8z"/>
		<path class="st62" d="M332.8,459.6c-0.1,0-0.1,0.1-0.2,0.1c0.5,0.2,1.1,0.3,1.7,0.3c2.3,0,4.2-1.5,4.8-3.5
			C337,457.5,334.9,458.6,332.8,459.6z"/>
		<path class="st63" d="M311.8,463.7c-0.3,2.2-2.6,3.8-5.2,3.4c-2.6-0.3-4.4-2.4-4.1-4.7c0.3-2.2,2.6-3.8,5.2-3.4
			C310.3,459.3,312.1,461.4,311.8,463.7z"/>
		<path class="st63" d="M309.7,471.6c-0.2,0.9-1.3,1.4-2.5,1.2c-1.2-0.2-2.1-1.1-1.9-2c0.2-0.9,1.3-1.4,2.5-1.2
			C309,469.8,309.9,470.7,309.7,471.6z"/>
		<path class="st63" d="M335,444c-0.2,0.7-1,1.1-1.9,0.9c-0.8-0.2-1.4-1-1.2-1.7c0.2-0.7,1-1.1,1.9-0.9
			C334.7,442.5,335.2,443.3,335,444z"/>
	</g>
	<g>
		<path class="st64" d="M139,451.7c7.8,4.4,14.7,8.6,14.7,9.2c0,0.8-4.9,6.4-9.5,10.8c-2.9-3.2-5.1-4.5-6.6-4.9
			C140.7,464,143.7,458.8,139,451.7z"/>
		<path class="st64" d="M132.1,447.9c-0.6,1-0.9,1.7-0.9,1.7c-5.2-0.8-8.7,4-10.8,8.3h0c-2.4-0.4-4.3-0.8-4.3-0.8s-8.3-6.6-13.4-6.4
			c-5,0.2-15.8,11-15.8,11c-5.6-7.6-11.2-16.2-10.6-17.6c0.8-1.9,35.7-5.6,41.5-3.5C120,441.5,125.8,444.5,132.1,447.9z"/>
		<path class="st65" d="M139,451.7c1.6,2.4,2.3,4.6,2.4,6.6c3.2,2.1,6.2,4.3,9.2,6.7c1.8-2.1,3.1-3.7,3.1-4.1
			C153.7,460.3,146.8,456.1,139,451.7z"/>
		<path class="st65" d="M131.2,449.6c0,0,0.3-0.6,0.9-1.7c-6.3-3.4-12.1-6.4-14.3-7.2c-5.8-2.1-40.7,1.5-41.5,3.5
			c-0.2,0.4,0.2,1.5,1,3c13.6-1.2,26-2.7,39.4-0.3c3.5,0.6,6.7,2.1,10,3.5C128,449.7,129.5,449.3,131.2,449.6z"/>
		<path class="st66" d="M158.7,504.3c0,0,7.4,5.5,7.1,8.4c-3.2-0.4-10.6-7.6-10.6-7.6c0.4-12.8-3.6-26.9-3.7-27.4
			c1-1.2,1.8-2.3,2.4-3.1C158.6,486.4,158.7,504.3,158.7,504.3z"/>
		<path class="st67" d="M165.9,512.7c0,0.5-0.3,0.8-0.7,1.1c-3.5,2.1-16.5-1.2-16.5-1.2s-28.3,4.7-34.6,4.7
			c-6.3,0-27.1-5.4-27.1-5.4s-13.1,3.7-19,1.6c-4.5-3.4,6.1-20.1,6.1-20.1c-1.4-4.5-0.1-24.6,0-26.3c0-0.1,0-0.1,0-0.1
			c0.2-1.6,0.4-2.6,0.4-2.6c3.5,5.8,11.9,18.8,17.2,21.1c6.8,2.9,37,5.6,45,3.9c5.2-1.1,11.2-7.2,14.9-11.7
			c0.2,0.5,4.2,14.7,3.7,27.4C155.3,505.1,162.7,512.3,165.9,512.7z"/>
		<linearGradient id="SVGID_11_" gradientUnits="userSpaceOnUse" x1="116.3191" y1="519.3535" x2="116.3191" y2="487.7329">
			<stop  offset="0" style="stop-color:#E9CB82"/>
			<stop  offset="1" style="stop-color:#95782E"/>
		</linearGradient>
		<path class="st68" d="M165.9,512.7c0,0.5-0.3,0.8-0.7,1.1c-3.5,2.1-16.5-1.2-16.5-1.2s-28.3,4.7-34.6,4.7
			c-6.3,0-27.1-5.4-27.1-5.4s-13.1,3.7-19,1.6c-4.5-3.4,6.1-20.1,6.1-20.1c-1.4-4.5-0.1-24.6,0-26.3c0-0.1,0-0.1,0-0.1
			c0.2-1.6,0.4-2.6,0.4-2.6c3.5,5.8,11.9,18.8,17.2,21.1c6.8,2.9,37,5.6,45,3.9c5.2-1.1,11.2-7.2,14.9-11.7
			c0.2,0.5,4.2,14.7,3.7,27.4C155.3,505.1,162.7,512.3,165.9,512.7z"/>
		<path class="st69" d="M151.5,477.6c0.1,0.2,0.7,2.3,1.4,5.6c0.9-1.3,1.7-2.8,2.5-4.2c-0.4-1.6-0.9-3.1-1.5-4.5
			C153.4,475.3,152.5,476.4,151.5,477.6z"/>
		<path class="st66" d="M155.3,505.1c0,0,7.4,7.2,10.6,7.6c0.3-2.9-7.1-8.4-7.1-8.4s-0.1-13.8-3.2-25.3c-0.8,1.5-1.6,2.9-2.5,4.2
			C154.1,488.7,155.6,497.1,155.3,505.1z"/>
		<path class="st70" d="M136.6,489.4c-8,1.7-38.2-1-45-3.9c-5.2-2.2-13.6-15.3-17.2-21.1c0,0,0,0.3-0.1,0.9
			c5.5,10.1,11.2,21.5,21,24.8c15.1,5.8,33.8,8.1,48.9,1.2c3.7-1.7,6.4-4.5,8.7-8c-0.7-3.3-1.3-5.4-1.4-5.6
			C147.8,482.2,141.8,488.2,136.6,489.4z"/>
		<path class="st71" d="M136.1,500.5c3.7-2.3,6-5.5,7.3-9c-15,6.5-33.2,4.2-48-1.5c-9.8-3.3-15.6-14.8-21-24.8
			c-0.1,0.4-0.2,1-0.3,1.8c0,0,0,0,0,0.1c-0.1,1.7-1.4,21.8,0,26.3c0,0,0,0.1-0.1,0.2C91.4,507.5,116.7,513.4,136.1,500.5z"/>
		<path class="st72" d="M155.3,428.7c1,4.4-1.4,9.1-3.7,10.4c-8.4,5-12.6,12.6-12.6,12.6s-0.7-0.3-1.6,0
			c2.2-7.2,11.8-13.2,13.5-14.2C152.6,436.6,155.5,430.4,155.3,428.7z"/>
		<path class="st73" d="M132.1,447.9c2.4-4.2,8.7-14.8,12.1-17.1c4.2-2.9,10.5-3.7,11-2.3c0,0.1,0,0.2,0,0.2c0.3,1.7-2.7,8-4.3,8.9
			c-1.7,1-11.4,7-13.5,14.2c0,0,1.3,1.8,1.5,4.8c-2.4-4.1-6.1-3.4-6.1-3.4c-7.3,0.8-9.3,10.5-9.3,10.5c-2.7,0.2-5.4,0.5-5.4,0.5
			s0.8-3,2.4-6.2c2.1-4.3,5.6-9.1,10.8-8.3C131.2,449.6,131.5,449,132.1,447.9z M151,432.6c0.2-0.7,0.1-1.4-0.2-1.6
			c-0.6-0.4-2.5-0.1-4.1,1.1c-1.5,1.2-1.2,2.8-0.7,3.1c0.4,0.3,1,0.3,1.6,0.2c0.8-0.1,1.6-0.5,2.3-0.9
			C150.5,434.1,150.9,433.3,151,432.6z"/>
		<path class="st74" d="M151.5,477.6c-3.8,4.5-9.7,10.6-14.9,11.7c-8,1.7-38.2-1-45-3.9c-5.2-2.2-13.6-15.3-17.2-21.1
			c-1-1.7-1.7-2.8-1.7-2.8c-0.4-8.1,3.5-17.5,3.5-17.5c-0.6,1.4,5,10,10.6,17.6c4.2,5.7,8.5,10.8,10.3,11.9c4.3,2.5,36.7,5,40.4,3.5
			c1.4-0.6,3.9-2.8,6.6-5.4c4.6-4.4,9.5-10.1,9.5-10.8c0.9,4,1.6,11.8,1.6,11.8c-0.2,0.3-0.6,0.9-1.2,1.8
			C153.4,475.3,152.5,476.4,151.5,477.6z"/>
		<path class="st75" d="M86.9,461.8c-5.6-7.6-11.2-16.2-10.6-17.6c0,0-3.9,9.3-3.5,17.5c0,0,0.6,1.1,1.7,2.8
			c3.5,5.8,11.9,18.8,17.2,21.1c0.1,0,0.2,0.1,0.3,0.1c1.3-4.1,3.1-8.1,5.2-12.1C95.2,472.3,91,467.3,86.9,461.8z"/>
		<path class="st74" d="M137.4,477.2c-4.2,1.5-36-1-40.2-3.5c0,0-0.1-0.1-0.2-0.1c-2.1,4-3.9,8-5.2,12.1c7.3,2.9,36.9,5.5,44.7,3.8
			c0.7-0.2,1.5-0.4,2.3-0.8C138.9,484.8,138.5,481,137.4,477.2z"/>
		<path class="st76" d="M153.7,460.9c0,0.8-4.9,6.4-9.5,10.8c-2.7,2.6-5.3,4.8-6.6,5.4c0,0-0.1,0-0.1,0c1,3.8,1.5,7.6,1.4,11.4
			c4.6-2.1,9.4-7.1,12.7-11c1-1.2,1.8-2.3,2.4-3.1c0.6-0.9,1.1-1.5,1.2-1.8C155.2,472.7,154.6,464.9,153.7,460.9z"/>
		<path class="st77" d="M144.2,471.7c-2.7,2.6-5.3,4.8-6.6,5.4c-3.7,1.5-36.1-1-40.4-3.5c-1.8-1.1-6.1-6.2-10.3-11.9
			c-5.6-7.6-11.2-16.2-10.6-17.6c0,0-0.8,1.9-1.6,4.7c3.6,12.1,13.7,25.7,18.3,28.4c9.1,6,35.3,6,46.9,4.5c4.4-2.2,10.7-8.5,15-12.1
			c-0.3-2.6-0.7-6.4-1.3-8.8C153.7,461.6,148.8,467.3,144.2,471.7z"/>
		<path class="st78" d="M150.8,430.9c0.3,0.2,0.4,0.9,0.2,1.6c-3.4-0.7-3.4,2.8-3.4,2.8c-0.6,0.1-1.2,0.1-1.6-0.2
			c-0.5-0.3-0.8-2,0.7-3.1C148.3,430.9,150.2,430.6,150.8,430.9z"/>
		<path class="st79" d="M142.8,453.9c-1.2-0.7-2.5-1.4-3.8-2.2c4.8,7.1,1.7,12.2-1.4,15.1c1.3,0.4,3.2,1.4,5.6,3.8
			C144.7,465.2,144.7,459.4,142.8,453.9z"/>
		<path class="st80" d="M118,464.1c0,0,2.7-0.4,5.4-0.5c2.4-0.1,4.9-0.1,5.7,0.5c0.9,0.8,2.4,2.7,3.7,4.3c0.3,0.4,0.6,0.8,0.9,1.2
			c0,0,2-0.9,3.9-2.8c1.5,0.4,3.7,1.7,6.6,4.9c-2.7,2.6-5.3,4.8-6.6,5.4c-3.7,1.5-36.1-1-40.4-3.5c-1.8-1.1-6.1-6.2-10.3-11.9
			c0,0,10.7-10.8,15.8-11c5-0.2,13.4,6.4,13.4,6.4s1.9,0.3,4.3,0.8h0C118.7,461.2,118,464.1,118,464.1z"/>
		<path class="st81" d="M119,461.1c0.4-0.9,0.8-2,1.4-3.2h0c-2.4-0.4-4.3-0.8-4.3-0.8s-8.3-6.6-13.4-6.4c-3.3,0.1-9.2,4.9-12.7,8.1
			c0.1,0.1,0.2,0.2,0.3,0.4C99.6,451.9,109,458.3,119,461.1z"/>
		<path class="st81" d="M134.5,469.1c-0.6,0.3-0.9,0.5-0.9,0.5c-0.3-0.3-0.6-0.8-0.9-1.2c-1.2-1.6-2.8-3.5-3.7-4.3
			c-0.7-0.6-3.2-0.7-5.7-0.5c-0.8,0-1.6,0.1-2.4,0.2c4.6,1.4,7.5,5,8.9,9.3c2-0.1,3.9-0.3,5.8-0.6
			C135.6,471.4,135.2,470.2,134.5,469.1z"/>
		<path class="st82" d="M143.6,471.1c-2.6-2.7-4.6-3.8-6-4.2c-1.1,1.1-2.3,1.8-3,2.3c0.7,1.1,1,2.3,1.2,3.4
			c-9,1.3-18.4,0.9-27.6-1.1c-7.4-1.6-13.1-6.8-18.2-12.5c-1.8,1.6-3,2.9-3,2.9c4.2,5.7,8.5,10.8,10.3,11.9c4.3,2.5,36.7,5,40.4,3.5
			c1.4-0.6,3.9-2.8,6.6-5.4C144,471.5,143.8,471.3,143.6,471.1z"/>
		<path class="st83" d="M139,451.7c4.8,7.1,1.7,12.2-1.4,15.1c-2,1.8-3.9,2.8-3.9,2.8c-0.3-0.3-0.6-0.8-0.9-1.2
			c5.2-4.6,6.3-8.9,6.1-12c-0.1-2.9-1.5-4.8-1.5-4.8C138.3,451.4,139,451.7,139,451.7z"/>
		<path class="st84" d="M138.9,456.5c0.2,3-1,7.3-6.1,12c-1.2-1.6-2.8-3.5-3.7-4.3c-0.7-0.6-3.2-0.7-5.7-0.5c0,0,2.1-9.7,9.3-10.5
			C132.7,453.1,136.4,452.4,138.9,456.5z"/>
		<path class="st73" d="M134,450.7c-1.6,0.1-3.2,0.4-4.9,0.9c-4.3,1.1-7.6,5.1-9,11.2c1.2-0.2,2.5-0.4,3.6-0.6
			c0.9-2.7,3.4-8.6,9-9.2c0,0,1.9-0.3,3.8,0.9C136,452.8,135.2,451.7,134,450.7z"/>
		<path class="st85" d="M155.3,428.7c0-0.1,0-0.2,0-0.2c-0.6-1.4-6.8-0.6-11,2.3c-3.4,2.3-9.7,13-12.1,17.1c-0.6,1-0.9,1.7-0.9,1.7
			c-5.2-0.8-8.7,4-10.8,8.3c-1,2.1-1.7,4-2.1,5.2c0.6-0.1,1.2-0.2,1.8-0.2c1.4-6.1,4.7-10.1,9-11.2c1.7-0.6,3.3-0.8,4.9-0.9
			c1.2,1,2,2.1,2.5,3.3c0.8,0.5,1.6,1.3,2.3,2.5c-0.1-2.9-1.5-4.8-1.5-4.8c0.1-0.3,0.2-0.6,0.3-0.8c2.6-6.8,11.6-12.4,13.2-13.3
			C152.6,436.6,155.5,430.4,155.3,428.7z M151,432.6c-0.2,0.7-0.5,1.5-1.2,1.9c-0.7,0.4-1.5,0.8-2.3,0.9c-0.6,0.1-1.2,0.1-1.6-0.2
			c-0.5-0.3-0.8-2,0.7-3.1c1.5-1.2,3.5-1.5,4.1-1.1C151.1,431.1,151.2,431.8,151,432.6z"/>
		<path class="st85" d="M151,437.6c0.1,0,0.1-0.1,0.2-0.1c-4.8,0.9-9.7,1.9-14.5,3.1c-1.4,2.2-2.7,4.4-3.7,6.1
			c2.6-0.2,5.3-0.5,8-0.7C144.5,441.5,149.7,438.3,151,437.6z"/>
		<path class="st85" d="M146,435.1c-0.4-0.3-0.8-1.9,0.7-3.1c-1.8,0.6-3.7,1.2-5.5,1.8c-0.9,1.1-1.8,2.4-2.8,3.8
			c2.6-0.9,5.2-1.7,7.9-2.4C146.2,435.3,146.1,435.2,146,435.1z"/>
		<path class="st85" d="M155.2,429.8c-1.5,0.3-3,0.7-4.5,1.1c0,0,0.1,0,0.1,0c0.3,0.2,0.4,0.9,0.2,1.6c-0.2,0.7-0.5,1.5-1.2,1.9
			c-0.1,0-0.2,0.1-0.2,0.1c1.3-0.3,2.7-0.5,4-0.7C154.3,432.4,154.9,430.9,155.2,429.8z"/>
		<path class="st86" d="M118,464.1c0,0,2.7-0.4,5.4-0.5c0,0,0.1-0.5,0.4-1.3c-1.8,0.3-3.6,0.6-5.5,0.8
			C118.1,463.7,118,464.1,118,464.1z"/>
		<path class="st83" d="M137.6,466.8c3.1-2.9,6.2-8,1.4-15.1c0,0-0.7-0.3-1.6,0c0,0,1.3,1.8,1.5,4.8c0.1,2.4-0.6,5.6-3.4,9.1
			c0.5,0.6,0.9,1.3,1.4,1.9C137.1,467.3,137.3,467.1,137.6,466.8z"/>
		<path class="st87" d="M135.5,465.5c-0.8,0.9-1.7,1.9-2.8,2.9c0.3,0.4,0.6,0.8,0.9,1.2c0,0,1.5-0.7,3.2-2.2
			C136.4,466.8,136,466.2,135.5,465.5z"/>
		<path class="st84" d="M136.5,454c-1.9-1.2-3.8-0.9-3.8-0.9c-5.6,0.6-8.1,6.5-9,9.2c4.2-0.7,7.9-1.1,10,1c0.4,0.5,0.8,1.1,1.3,1.6
			C137,461.6,138.1,457.5,136.5,454z"/>
		<path class="st85" d="M138.9,456.5c-0.7-1.2-1.5-2-2.3-2.5c1.6,3.5,0.5,7.6-1.5,10.9c0.2,0.2,0.3,0.4,0.5,0.6
			C138.3,462,139,458.9,138.9,456.5z"/>
		<path class="st88" d="M133.7,463.3c-2.1-2.1-5.8-1.7-10-1c-0.3,0.8-0.4,1.3-0.4,1.3c2.4-0.1,4.9-0.1,5.7,0.5
			c0.9,0.8,2.4,2.7,3.7,4.3c1.1-1,2-2,2.8-2.9C134.9,464.8,134.3,464,133.7,463.3z"/>
		<linearGradient id="SVGID_12_" gradientUnits="userSpaceOnUse" x1="77.7656" y1="443.8805" x2="102.4018" y2="459.9821">
			<stop  offset="0" style="stop-color:#A2914E"/>
			<stop  offset="1" style="stop-color:#FFFFFF"/>
		</linearGradient>
		<path class="st89" d="M76.3,444.2c-0.6,1.4,5,10,10.6,17.6c0,0,10.7-10.8,15.8-11c1.6-0.1,3.6,0.6,5.5,1.5
			c-6.2-5.2-13.5-8.9-21.3-10.4C81,442.6,76.5,443.5,76.3,444.2z"/>
		<path class="st74" d="M74,467.1c-0.1,1.7-1.4,21.8,0,26.3c0,0-10.6,16.6-6.1,20.1c-1-0.3-1.8-0.9-2.3-1.6c-3.1-5,6-20.4,6-20.4
			C71.3,486,73.1,472.9,74,467.1z"/>
		<g>
			<g>
				<path class="st90" d="M128.1,472.5c0.1,0.6,2,0.7,2.1,0C130.2,471.7,128,471.6,128.1,472.5z"/>
			</g>
			<g>
				<path class="st90" d="M125.4,465.6c0.2,0.4,1.6-0.1,1.5-0.6C126.7,464.4,125.1,465,125.4,465.6z"/>
			</g>
			<g>
				<path class="st90" d="M117.8,472.5c0.4,0.6,2.6-0.6,2.2-1.4C119.6,470.3,117.2,471.6,117.8,472.5z"/>
			</g>
			<g>
				<path class="st90" d="M119.4,466.4c0.2,0.5,2,0,1.8-0.6C121.1,465.1,119.1,465.7,119.4,466.4z"/>
			</g>
			<g>
				<path class="st90" d="M105.9,470.1c0.3,0.4,1.9-0.3,1.6-0.9C107.2,468.7,105.4,469.4,105.9,470.1z"/>
			</g>
			<g>
				<path class="st90" d="M113.5,466.5c-0.3,0.8,2.1,2.1,2.6,1.2C116.6,466.8,113.9,465.3,113.5,466.5z"/>
			</g>
			<g>
				<path class="st90" d="M134.8,472.5c0.4,0.5,2.3-0.4,1.9-1.1C136.4,470.6,134.3,471.7,134.8,472.5z"/>
			</g>
			<g>
				<path class="st90" d="M113,463.8c0.2,0.7,2.6,0.3,2.4-0.6C115.3,462.4,112.7,462.8,113,463.8z"/>
			</g>
			<g>
				<path class="st90" d="M110,460.6c0.4,0.8,3.4-0.2,3-1.3C112.6,458.2,109.3,459.4,110,460.6z"/>
			</g>
			<g>
				<path class="st90" d="M108.8,457.1c0.2,0.4,1.8,0,1.6-0.6C110.2,455.9,108.4,456.4,108.8,457.1z"/>
			</g>
			<g>
				<path class="st90" d="M105.6,460.7c-0.2,0.6,1.7,1.6,2.1,0.9C108,460.9,105.9,459.8,105.6,460.7z"/>
			</g>
			<g>
				<path class="st90" d="M101.5,452c0.1,0.6,2.1,0.5,2-0.2C103.5,451,101.3,451.1,101.5,452z"/>
			</g>
			<g>
				<path class="st90" d="M99.6,464.3c0.2,0.5,2.1,0.3,2-0.4C101.4,463.2,99.3,463.5,99.6,464.3z"/>
			</g>
			<g>
				<path class="st90" d="M96.6,460.3c-0.1,0.3,0.9,1,1.1,0.6C98,460.5,96.8,459.7,96.6,460.3z"/>
			</g>
		</g>
		<g>
			<g>
				<path class="st91" d="M119.8,498.7c-9.8,0-16.9-2.3-20.5-3.4l-0.8-0.3c-8.1-2.5-14.8-7.5-14.9-7.6c-0.3-0.2-0.3-0.6-0.1-0.8
					c0.2-0.3,0.6-0.3,0.8-0.1c0.1,0,6.7,4.9,14.5,7.4l0.8,0.3c6.2,2,22.7,7.3,45.7-1.7c0.3-0.1,0.6,0,0.8,0.3c0.1,0.3,0,0.6-0.3,0.8
					C135.8,497.5,127,498.7,119.8,498.7z"/>
			</g>
			<g>
				<path class="st91" d="M120.4,502c-7.5,0-15-1.2-22.6-3.7c-0.3-0.1-0.5-0.4-0.4-0.7c0.1-0.3,0.4-0.5,0.7-0.4
					c16,5.2,31.9,4.8,47.2-1.2c0.3-0.1,0.6,0,0.8,0.3c0.1,0.3,0,0.6-0.3,0.8C137.5,500.4,129,502,120.4,502z"/>
			</g>
			<g>
				<path class="st91" d="M119.7,505.1c-11.4,0-22.5-2.8-33.2-8.4c-0.3-0.1-0.4-0.5-0.2-0.8c0.1-0.3,0.5-0.4,0.8-0.2
					c14.9,7.8,30.6,10.1,46.7,6.9c0.3-0.1,0.6,0.1,0.7,0.5c0.1,0.3-0.1,0.6-0.5,0.7C129.1,504.6,124.4,505.1,119.7,505.1z"/>
			</g>
			<g>
				<path class="st91" d="M93.5,496.5c-0.1,0-0.2,0-0.2-0.1c-3.5-1.6-6.7-3.4-9.6-5.5c-0.3-0.2-0.3-0.6-0.1-0.8
					c0.2-0.3,0.6-0.3,0.8-0.1c2.8,2,5.9,3.8,9.4,5.4c0.3,0.1,0.4,0.5,0.3,0.8C93.9,496.4,93.7,496.5,93.5,496.5z"/>
			</g>
			<g>
				<path class="st91" d="M105.7,506.6C105.7,506.6,105.7,506.6,105.7,506.6c-0.4,0-0.6-0.3-0.6-0.7c0.4-3.3,1.9-11.7,1.9-11.8
					c0.1-0.3,0.4-0.5,0.7-0.5c0.3,0.1,0.5,0.4,0.5,0.7c0,0.1-1.5,8.4-1.9,11.7C106.2,506.4,106,506.6,105.7,506.6z"/>
			</g>
			<g>
				<path class="st91" d="M108.6,509.9C108.5,509.9,108.5,509.9,108.6,509.9c-0.4,0-0.6-0.3-0.6-0.7c1-7.2,2.8-18.4,2.8-18.5
					c0.1-0.3,0.3-0.5,0.7-0.5c0.3,0.1,0.5,0.3,0.5,0.7c0,0.1-1.8,11.3-2.8,18.4C109.1,509.7,108.8,509.9,108.6,509.9z"/>
			</g>
			<g>
				<path class="st91" d="M112.2,506.5C112.2,506.5,112.2,506.5,112.2,506.5c-0.3,0-0.6-0.3-0.6-0.6c0.1-4.5,1.9-12.6,2-12.9
					c0.1-0.3,0.4-0.5,0.7-0.4c0.3,0.1,0.5,0.4,0.4,0.7c0,0.1-1.9,8.3-1.9,12.7C112.8,506.3,112.5,506.5,112.2,506.5z"/>
			</g>
			<g>
				<path class="st91" d="M127.1,508c-0.3,0-0.6-0.3-0.6-0.6c-0.1-8.2-0.2-14-0.2-14.1c0-0.3,0.2-0.6,0.6-0.6c0,0,0,0,0,0
					c0.3,0,0.6,0.2,0.6,0.6c0,0.1,0.2,5.9,0.2,14.1C127.7,507.8,127.4,508,127.1,508C127.1,508,127.1,508,127.1,508z"/>
			</g>
			<g>
				<path class="st91" d="M130,506.2c-0.3,0-0.6-0.3-0.6-0.6c0-3.5-0.6-11.6-0.6-11.7c0-0.3,0.2-0.6,0.5-0.6c0.3,0,0.6,0.2,0.6,0.5
					c0,0.1,0.6,8.2,0.6,11.7C130.6,506,130.3,506.2,130,506.2C130,506.2,130,506.2,130,506.2z"/>
			</g>
			<g>
				<path class="st91" d="M115.5,511.3C115.5,511.3,115.5,511.3,115.5,511.3c-16.7-0.6-27-6.2-27.1-6.3c-0.3-0.2-0.4-0.5-0.2-0.8
					c0.2-0.3,0.5-0.4,0.8-0.2c0.1,0.1,10.2,5.6,26.5,6.1c0.3,0,0.6,0.3,0.6,0.6C116.1,511.1,115.8,511.3,115.5,511.3z"/>
			</g>
			<g>
				<path class="st91" d="M115,514.5c-9.8,0-16.1-2.5-16.4-2.6c-0.3-0.1-0.4-0.5-0.3-0.8c0.1-0.3,0.5-0.4,0.8-0.3
					c0.1,0,10.2,4,24.7,1.9c0.3,0,0.6,0.2,0.7,0.5c0,0.3-0.2,0.6-0.5,0.7C120.6,514.3,117.7,514.5,115,514.5z"/>
			</g>
			<g>
				<path class="st91" d="M70.3,511.3c0,0-0.1,0-0.1,0c-0.3-0.1-0.5-0.4-0.4-0.7c1.7-6.9,6.2-12.4,7.2-13.6c-1.2-9.2,0-19.4,0-19.5
					c0-0.3,0.3-0.5,0.7-0.5c0.3,0,0.5,0.3,0.5,0.7c0,0.1-1.3,10.3,0,19.4l0,0.3l-0.2,0.2c-0.1,0.1-5.3,6-7.1,13.3
					C70.8,511.1,70.6,511.3,70.3,511.3z"/>
			</g>
			<g>
				<path class="st91" d="M80.3,498.7c-0.3,0-0.5-0.2-0.6-0.5c-1.5-6.3-0.8-14.7-0.7-15.1c0-0.3,0.3-0.6,0.6-0.5
					c0.3,0,0.6,0.3,0.5,0.6c0,0.1-0.7,8.5,0.7,14.7c0.1,0.3-0.1,0.6-0.4,0.7C80.4,498.7,80.4,498.7,80.3,498.7z"/>
			</g>
			<g>
				<path class="st91" d="M149.6,505.6C149.6,505.6,149.6,505.6,149.6,505.6c-0.4-0.1-0.6-0.3-0.6-0.7c1.5-9.8-1.2-20.3-1.3-20.4
					c-0.1-0.3,0.1-0.6,0.4-0.7c0.3-0.1,0.6,0.1,0.7,0.4c0,0.1,2.8,10.9,1.3,20.9C150.2,505.4,149.9,505.6,149.6,505.6z"/>
			</g>
			<g>
				<path class="st91" d="M152.4,501C152.4,501,152.3,501,152.4,501c-0.4-0.1-0.6-0.4-0.6-0.7c1-6.4-0.8-11.6-0.8-11.7
					c-0.1-0.3,0-0.6,0.4-0.7c0.3-0.1,0.6,0,0.7,0.4c0.1,0.2,1.9,5.5,0.9,12.3C152.9,500.8,152.7,501,152.4,501z"/>
			</g>
		</g>
	</g>
</g>
</svg>
