<?xml version="1.0" encoding="utf-8"?>
<!-- Generator: Adobe Illustrator 24.0.2, SVG Export Plug-In . SVG Version: 6.00 Build 0)  -->
<svg version="1.1" id="Layer_1" xmlns="http://www.w3.org/2000/svg" xmlns:xlink="http://www.w3.org/1999/xlink" x="0px" y="0px"
	 viewBox="0 0 1370 899" style="enable-background:new 0 0 1370 899;" height="899" width="1370" xml:space="preserve">
<style type="text/css">
	.st0{opacity:0.2;fill:#00689A;}
	.st1{clip-path:url(#SVGID_2_);fill:#7EA840;}
	.st2{opacity:0.3;clip-path:url(#SVGID_2_);fill:#EAE5E1;}
	.st3{opacity:0.6;clip-path:url(#SVGID_2_);fill:#FDFDFB;}
	.st4{fill:#00689A;}
	.st5{fill:#53B0C7;}
	.st6{fill:#7EA840;}
	.st7{fill:#F99E45;}
	.st8{fill:#6CAF44;}
	.st9{fill:#5C9741;}
	.st10{fill:#D9D3C8;}
	.st11{fill:#C6BFB0;}
	.st12{fill:#EAE5E1;}
	.st13{fill:#6D4439;}
	.st14{fill:#805148;}
	.st15{fill:#9C6B47;}
	.st16{fill:#949BC4;}
	.st17{fill:#7A85AE;}
	.st18{fill:#B3B8DD;}
	.st19{fill:#C4C8E4;}
	.st20{fill:#4B8F46;}
	.st21{fill:#52994D;}
	.st22{fill:#FFD348;}
	.st23{fill:#60A95E;}
	.st24{fill:#98CF93;}
	.st25{fill:#8BA3AA;}
	.st26{opacity:0.55;}
	.st27{opacity:0.55;fill:#8BA3AA;}
	.st28{opacity:0.65;fill:#A9B6BD;}
	.st29{opacity:0.65;fill:#7E929B;}
	.st30{fill:#94A9B0;}
	.st31{fill:#B3C2C7;}
	.st32{fill:#D8DFE2;}
	.st33{fill:#7E929B;}
	.st34{fill:url(#SVGID_3_);}
	.st35{opacity:0.55;fill:url(#SVGID_4_);}
	.st36{fill:#A2B6BD;}
	.st37{fill:url(#SVGID_5_);}
	.st38{fill:url(#SVGID_6_);}
	.st39{opacity:0.55;fill:url(#SVGID_7_);}
	.st40{opacity:0.55;fill:#84959D;}
	.st41{opacity:0.55;fill:url(#SVGID_8_);}
	.st42{opacity:0.55;fill:url(#SVGID_9_);}
	.st43{fill:#E8ECEE;}
	.st44{fill:#535757;}
	.st45{fill:#8EA2AD;}
	.st46{fill:#C7D1D2;}
	.st47{opacity:0.55;fill:#A2B6BD;}
	.st48{fill:#B7B9BC;}
	.st49{fill:#E3E4E5;}
	.st50{fill:#90A2A3;}
	.st51{opacity:0.55;fill:#90A2A3;}
	.st52{fill:#91A2AB;}
	.st53{opacity:0.65;fill:#5F747F;}
	.st54{fill:#687C87;}
	.st55{fill:url(#SVGID_10_);}
	.st56{opacity:0.65;fill:#6E818C;}
	.st57{fill:#6E818C;}
	.st58{fill:#B1BEC1;}
	.st59{opacity:0.55;fill:#B1BEC1;}
	.st60{fill:#80959F;}
	.st61{fill:#DAE4E7;}
	.st62{opacity:0.65;fill:#8E9EA8;}
	.st63{opacity:0.55;fill:#C7D1D2;}
	.st64{opacity:0.55;fill:#E3E4E5;}
	.st65{opacity:0.55;fill:#F6F6F7;}
	.st66{fill:#8C6E2A;}
	.st67{fill:#4E4226;}
	.st68{fill:#8E732D;}
	.st69{fill:#B2933F;}
	.st70{fill:url(#SVGID_11_);}
	.st71{fill:#EBD6A2;}
	.st72{fill:#E9D397;}
	.st73{fill:#351D11;}
	.st74{fill:#016257;}
	.st75{fill:#189684;}
	.st76{fill:#DBBE7C;}
	.st77{fill:#362A14;}
	.st78{fill:#DFD0B0;}
	.st79{fill:#5F471B;}
	.st80{fill:#02574B;}
	.st81{fill:#E8BB48;}
	.st82{fill:#5E3816;}
	.st83{fill:#27190F;}
	.st84{fill:#C3966B;}
	.st85{fill:#017B6D;}
	.st86{fill:#3DBCA6;}
	.st87{fill:#0E463E;}
	.st88{fill:#7DBFB6;}
	.st89{fill:#54C2B7;}
	.st90{fill:#95D4CA;}
	.st91{fill:url(#SVGID_12_);}
	.st92{fill:#3E3126;}
	.st93{fill:#1D1813;}
</style>
<rect x="-2.1" y="1.9" class="st0" width="1373.1" height="541.6"/>
<g>
	<defs>
		<rect id="SVGID_1_" x="-0.2" y="192.2" width="1370.6" height="685.3"/>
	</defs>
	<clipPath id="SVGID_2_">
		<use xlink:href="#SVGID_1_"  style="overflow:visible;"/>
	</clipPath>
	<path class="st1" d="M1382.6,846.2l-1.4-372.9c-194.3-61.4-430.9-78.9-604.3-49.6c-187.5,31.7-273.4,96.3-497.2,91.8
		c-94.6-1.9-191.7-5.1-286-14.2v345H1382.6z"/>
	<path class="st2" d="M-68.5,453.7c54.8,28.9,210.4,74.9,438.9,24.2c156.1-34.6,304.1-41.2,439.8,4.7c122,41.3,204-30.5,386.9-46.9
		c107.3-9.6,281.7,46.9,281.7,46.9s-46.1-192.1-51.7-192.5c-5.6-0.4-1449.4-4.6-1449.4-4.6L-68.5,453.7z"/>
	<path class="st3" d="M-20,234.7c67.4-6.9,152.4-10,265.2,33.5c119.7,46.2,203.1,60.1,299.5,27.4s187.8-60.8,280.6-48.6
		s195.4,65.6,314.7,36.6c119.2-28.9,247.8-36.6,247.8-36.6l-1.9-80.1l-1416.5-3.2L-20,234.7z"/>
</g>
<rect x="0.2" y="856.7" class="st4" width="344.6" height="44.3"/>
<rect x="343.5" y="856.7" class="st5" width="344.6" height="44.3"/>
<rect x="681.8" y="856.7" class="st6" width="344.6" height="44.3"/>
<rect x="1026.4" y="856.7" class="st7" width="344.6" height="44.3"/>
<g>
	<path class="st8" d="M95.1,628c5.2-13.8,8.7-29.1,3.3-38.5c0,0,0.5,21.1-15.9,38.5H95.1z"/>
	<path class="st8" d="M77.2,628h17c5.6-31.8-10.2-47.3-10.2-47.3C91.1,598.5,84.5,615.9,77.2,628z"/>
	<path class="st9" d="M77.6,628h10.1c12-23.9-13.4-36.4-13.4-36.4C85.2,606.2,85.7,619.2,77.6,628z"/>
	<path class="st9" d="M131.5,628c-3.2-10.6-2.7-24.1,3.4-36.5c0,0-16.8,12.2-13,36.5H131.5z"/>
	<path class="st8" d="M75.4,628c-0.9-9.8-6.8-21.9-21.5-34.4c0,0,30.7,7.5,28,34.4H75.4z"/>
	<path class="st8" d="M132.9,628c1.7-8.9,7.6-19.5,19.8-29.3c0,0-28,4.1-28.3,29.3H132.9z"/>
	<path class="st8" d="M129,628c-13.9-18.7-6.9-38.3-6.9-38.3c-7.9,11.9-10.4,23.7-6,38.3H129z"/>
	<path class="st8" d="M106,628c-2.5-9.2-4-18.1,1-29.3c0,0-10.7,14.7-10.5,29.3H106z"/>
	<path class="st9" d="M117.4,628c-3.1-10.4-8.2-31.9-2.2-45.7c0,0-12,20.2-7.4,45.7H117.4z"/>
	<path class="st8" d="M111.7,628c-4.9-9.8-0.4-19.7,3.1-27c0,0-15.4,12.2-13,27H111.7z"/>
	<path class="st9" d="M107.1,628c-6.1-7.1-13.7-18.3-11.3-28c0,0-6.4,11.4-1.3,28H107.1z"/>
</g>
<g>
	<path class="st8" d="M297.8,788c5.2-13.8,8.7-29.1,3.3-38.5c0,0,0.5,21.1-15.9,38.5H297.8z"/>
	<path class="st8" d="M279.9,788h17c5.6-31.8-10.2-47.3-10.2-47.3C293.8,758.5,287.2,775.9,279.9,788z"/>
	<path class="st9" d="M280.3,788h10.1c12-23.9-13.4-36.4-13.4-36.4C287.9,766.2,288.4,779.2,280.3,788z"/>
	<path class="st9" d="M334.2,788c-3.2-10.6-2.7-24.1,3.4-36.5c0,0-16.8,12.2-13,36.5H334.2z"/>
	<path class="st8" d="M278.1,788c-0.9-9.8-6.8-21.9-21.5-34.4c0,0,30.7,7.5,28,34.4H278.1z"/>
	<path class="st8" d="M335.6,788c1.7-8.9,7.6-19.5,19.8-29.3c0,0-28,4.1-28.3,29.3H335.6z"/>
	<path class="st8" d="M331.7,788c-13.9-18.7-6.9-38.3-6.9-38.3c-7.9,11.9-10.4,23.7-6,38.3H331.7z"/>
	<path class="st8" d="M308.7,788c-2.5-9.2-4-18.1,1-29.3c0,0-10.7,14.7-10.5,29.3H308.7z"/>
	<path class="st9" d="M320.1,788c-3.1-10.4-8.2-31.9-2.2-45.7c0,0-12,20.2-7.4,45.7H320.1z"/>
	<path class="st8" d="M314.4,788c-4.9-9.8-0.4-19.7,3.1-27c0,0-15.4,12.2-13,27H314.4z"/>
	<path class="st9" d="M309.8,788c-6.1-7.1-13.7-18.3-11.3-28c0,0-6.4,11.4-1.3,28H309.8z"/>
</g>
<g>
	<path class="st8" d="M1025.4,488.8c5.2-13.8,8.7-29.1,3.3-38.5c0,0,0.5,21.1-15.9,38.5H1025.4z"/>
	<path class="st8" d="M1007.5,488.8h17c5.6-31.8-10.2-47.3-10.2-47.3C1021.4,459.2,1014.8,476.6,1007.5,488.8z"/>
	<path class="st9" d="M1007.9,488.8h10.1c12-23.9-13.4-36.4-13.4-36.4C1015.5,467,1016,480,1007.9,488.8z"/>
	<path class="st9" d="M1061.9,488.8c-3.2-10.6-2.7-24.1,3.4-36.5c0,0-16.8,12.2-13,36.5H1061.9z"/>
	<path class="st8" d="M1005.7,488.8c-0.9-9.8-6.8-21.9-21.5-34.4c0,0,30.7,7.5,28,34.4H1005.7z"/>
	<path class="st8" d="M1063.2,488.8c1.7-8.9,7.6-19.5,19.8-29.3c0,0-28,4.1-28.3,29.3H1063.2z"/>
	<path class="st8" d="M1059.3,488.8c-13.9-18.7-6.9-38.3-6.9-38.3c-7.9,11.9-10.4,23.7-6,38.3H1059.3z"/>
	<path class="st8" d="M1036.3,488.8c-2.5-9.2-4-18.1,1-29.3c0,0-10.7,14.7-10.5,29.3H1036.3z"/>
	<path class="st9" d="M1047.7,488.8c-3.1-10.4-8.2-31.9-2.2-45.7c0,0-12,20.2-7.4,45.7H1047.7z"/>
	<path class="st8" d="M1042,488.8c-4.9-9.8-0.4-19.7,3.1-27c0,0-15.4,12.2-13,27H1042z"/>
	<path class="st9" d="M1037.4,488.8c-6.1-7.1-13.7-18.3-11.3-28c0,0-6.4,11.4-1.3,28H1037.4z"/>
</g>
<g>
	<path class="st8" d="M1246,676.4c5.2-13.8,8.7-29.1,3.3-38.5c0,0,0.5,21.1-15.9,38.5H1246z"/>
	<path class="st8" d="M1228.1,676.4h17c5.6-31.8-10.2-47.3-10.2-47.3C1242,646.8,1235.4,664.2,1228.1,676.4z"/>
	<path class="st9" d="M1228.5,676.4h10.1c12-23.9-13.4-36.4-13.4-36.4C1236.1,654.6,1236.6,667.6,1228.5,676.4z"/>
	<path class="st9" d="M1282.4,676.4c-3.2-10.6-2.7-24.1,3.4-36.5c0,0-16.8,12.2-13,36.5H1282.4z"/>
	<path class="st8" d="M1226.3,676.4c-0.9-9.8-6.8-21.9-21.5-34.4c0,0,30.7,7.5,28,34.4H1226.3z"/>
	<path class="st8" d="M1283.8,676.4c1.7-8.9,7.6-19.5,19.8-29.3c0,0-28,4.1-28.3,29.3H1283.8z"/>
	<path class="st8" d="M1279.9,676.4c-13.9-18.7-6.9-38.3-6.9-38.3c-7.9,11.9-10.4,23.7-6,38.3H1279.9z"/>
	<path class="st8" d="M1256.9,676.4c-2.5-9.2-4-18.1,1-29.3c0,0-10.7,14.7-10.5,29.3H1256.9z"/>
	<path class="st9" d="M1268.3,676.4c-3.1-10.4-8.2-31.9-2.2-45.7c0,0-12,20.2-7.4,45.7H1268.3z"/>
	<path class="st8" d="M1262.6,676.4c-4.9-9.8-0.4-19.7,3.1-27c0,0-15.4,12.2-13,27H1262.6z"/>
	<path class="st9" d="M1258,676.4c-6.1-7.1-13.7-18.3-11.3-28c0,0-6.4,11.4-1.3,28H1258z"/>
</g>
<g>
	<path class="st8" d="M1109,778.7c5.2-13.8,8.7-29.1,3.3-38.5c0,0,0.5,21.1-15.9,38.5H1109z"/>
	<path class="st8" d="M1091.1,778.7h17c5.6-31.8-10.2-47.3-10.2-47.3C1105,749.1,1098.4,766.5,1091.1,778.7z"/>
	<path class="st9" d="M1091.5,778.7h10.1c12-23.9-13.4-36.4-13.4-36.4C1099.1,756.9,1099.6,769.9,1091.5,778.7z"/>
	<path class="st9" d="M1145.4,778.7c-3.2-10.6-2.7-24.1,3.4-36.5c0,0-16.8,12.2-13,36.5H1145.4z"/>
	<path class="st8" d="M1089.3,778.7c-0.9-9.8-6.8-21.9-21.5-34.4c0,0,30.7,7.5,28,34.4H1089.3z"/>
	<path class="st8" d="M1146.8,778.7c1.7-8.9,7.6-19.5,19.8-29.3c0,0-28,4.1-28.3,29.3H1146.8z"/>
	<path class="st8" d="M1142.9,778.7c-13.9-18.7-6.9-38.3-6.9-38.3c-7.9,11.9-10.4,23.7-6,38.3H1142.9z"/>
	<path class="st8" d="M1119.9,778.7c-2.5-9.2-4-18.1,1-29.3c0,0-10.7,14.7-10.5,29.3H1119.9z"/>
	<path class="st9" d="M1131.3,778.7c-3.1-10.4-8.2-31.9-2.2-45.7c0,0-12,20.2-7.4,45.7H1131.3z"/>
	<path class="st8" d="M1125.6,778.7c-4.9-9.8-0.4-19.7,3.1-27c0,0-15.4,12.2-13,27H1125.6z"/>
	<path class="st9" d="M1121,778.7c-6.1-7.1-13.7-18.3-11.3-28c0,0-6.4,11.4-1.3,28H1121z"/>
</g>
<g>
	<g>
		<g>
			<path class="st10" d="M795,691.8c-8.4,2.4-17.1,4.3-25.9,2.9c-15-2.4-26.6-12.7-36.1-24c4.4-8.4,16.5-15.5,25.2-18
				c9.9-2.8,18.5,3,27.4,7.1c8.6,4,20.6,7.4,24.6,16.8c1.7,4,1.9,7.4,1.1,10.4c0,0,0,0,0,0C806.5,686.7,799.5,690.5,795,691.8z"/>
			<path class="st11" d="M772.8,705.9c-12.2,0.5-22.2-5.3-32-13.6c-5.8-4.9-11.7-14-8.1-21.2c0.1-0.1,0.2-0.3,0.2-0.4
				c9.5,11.3,21.1,21.6,36.1,24c8.8,1.4,17.5-0.6,25.9-2.9c4.5-1.3,11.5-5.1,16.3-4.8c0,0,0,0,0,0
				C807.7,701.1,781.7,705.5,772.8,705.9z"/>
		</g>
		<path class="st11" d="M765.9,675.4c2.9-1.8,5.6,0.9,8,2.1c7.3,3.5,9.6-0.7,14.9-4.4c1.2-0.8,2.3-1.4,3.7-1.4
			c1.4,0,7.5,4.1,7.4,7.7c-0.1,2.7-5.5,4.8-8,6.1c-4.1,2.1-8.4,3.1-12.9,2c-2.6-0.7-5-1.9-7.4-3.2c-1.6-0.9-5-1.4-7-4.6
			C763.7,678.1,764.3,676.3,765.9,675.4z"/>
		<path class="st12" d="M754.8,659c4.7-1.9,9.3-1.4,13.9,0.1c4.3,1.4,11,2.3,12,5.5c0.9,2.6-1.7,3.6-3.8,3.9c-3,0.5-5.5-1.3-8.3-1.7
			c-3.7-0.5-9.4,2.5-11.9,4.9c-0.7,0.6-0.9,1.5-1.7,2.1c-3.6,2.7-9.7,0.7-13.3-0.9c-0.5-0.2-0.7-0.8-0.8-1.4
			C740.3,665.2,750,660.9,754.8,659z"/>
	</g>
	<g>
		<g>
			<path class="st13" d="M755.4,613l-18.8-0.1c0,0.2,0,0.4,0,0.6c0,51.2-33.7,92.7-75.3,92.7c-13.3,0-25.7-4.2-36.6-11.7
				c13.8,20.3,34.6,33.2,57.7,33.2c41.6,0,75.3-41.5,75.3-92.7C757.8,627.6,756.7,619.8,755.4,613z"/>
			<path class="st14" d="M736.6,613.5c0-0.2,0-0.4,0-0.6l-126.8-1c-1.3,6.9-2.6,15.8-2.6,23.1c0,22.7,6.6,43.4,17.6,59.5
				c10.8,7.4,23.3,11.7,36.6,11.7C702.9,706.2,736.6,664.7,736.6,613.5z"/>
		</g>
		<path class="st15" d="M755.7,616.7c0,22.8-32.8,41.2-73.2,41.2c-40.4,0-73.2-18.4-73.2-41.2c0-22.8,32.8-41.2,73.2-41.2
			C722.9,575.5,755.7,594,755.7,616.7z"/>
		<path class="st13" d="M752.1,616c0,21.2-31.2,38.3-69.6,38.3c-38.4,0-69.6-17.2-69.6-38.3c0-21.2,31.2-38.3,69.6-38.3
			C720.9,577.6,752.1,594.8,752.1,616z"/>
	</g>
	<g>
		<path class="st16" d="M654.7,733.5c-7.8,0.6-16.1-0.4-23.6-2.5c-7.5-2.1-14.7-5.8-19.8-11.9c-3-3.6-4.7-8-4.7-12.2
			c9.3-12.8,30.3-9.2,43.1-3.6c8.7,3.7,18.9,9.3,22.3,18.7c0.3,0.7,0.4,1.4,0.6,2.1C669.2,730,661.6,733,654.7,733.5z"/>
		<path class="st17" d="M671.7,734.2c-1.6,5.2-7.1,8.6-12.1,10.5c-9.2,3.4-19.7,4.6-29.3,2.5c-8.1-1.8-15.6-6-20.9-12.4
			c-5-6-8.5-14.8-5.6-22.5c0.7-2,1.7-3.8,2.8-5.3c0,4.2,1.7,8.7,4.7,12.2c5,6.1,12.3,9.8,19.8,11.9c7.5,2.1,15.8,3.1,23.6,2.5
			c6.9-0.5,14.5-3.5,18-9.4C673.4,727.5,673.1,731.1,671.7,734.2z"/>
		<path class="st18" d="M637.1,703.9c8.3-0.1,12.6,5.5,19.5,9.7c4.9,3,14.6,8.7,7.5,12.4c-7.2,3.8-16.4,3.8-23.9,1
			c-6.6-2.5-14-8-14.8-15.6C624.8,704.8,630.9,703.5,637.1,703.9z"/>
	</g>
	<g>
		<path class="st16" d="M721,722.1l-0.1-13.2l19.3,2.1c3.6-1.1,6.7-1.8,10-2.4c4.1-0.7,7.9,1.2,11.2,4.7l8.1,0.9v14.3l-0.1,0
			c0.4,8.5-13.9,13.2-27.4,9.9C730.6,735.5,720.1,728.1,721,722.1L721,722.1z"/>
		<path class="st18" d="M750.3,694.3c7.9-1.3,14.7,7,18.7,17.1c3.9,10.1-12,16.2-26.9,12.5c-14.9-3.7-28.5-15.3-16.5-21.2
			C737.4,697,743.2,695.5,750.3,694.3z"/>
		<path class="st19" d="M752.4,698.9c4.9-0.8,9.2,4.4,11.7,10.7c2.5,6.3-7.5,10.2-16.8,7.9c-9.3-2.3-17.8-9.6-10.3-13.3
			C744.4,700.6,748,699.6,752.4,698.9z"/>
	</g>
	<g>
		<path class="st16" d="M735.2,743l0-5.5l-1.7,0.3c-0.4-0.6-0.9-1.2-1.5-1.6c-9.4-7.2-18.2-1-22.8,5.9l-2.6,0.5c0,0,0,4,0,5.8
			c0,0.2,0,0.5,0,0.7c0,0,0,0.1,0,0.1c0,0,0,0,0,0c0.9,5.9,12.6,8,21.2,4.2C733.4,750.9,735.4,746.8,735.2,743
			C735.2,743,735.2,743,735.2,743z"/>
		<path class="st18" d="M707.1,739.6c-3.3,8.1,10.9,11.5,20.7,7.2c9.9-4.3,8.4-14,4.3-17.2C720.8,721,710.4,731.6,707.1,739.6z"/>
		<path class="st19" d="M714.4,737.9c-2,4.8,6.5,6.9,12.5,4.3c5.9-2.6,5.1-8.4,2.6-10.3C722.7,726.7,716.4,733.1,714.4,737.9z"/>
	</g>
	<g>
		<path class="st17" d="M635,749.9l3.4,0.1c1.5-1.2,3.4-2.3,5.8-3c6.5-1.9,13.3-0.6,19.1,2.3c1,0.5,1.9,1.1,2.7,1.7l4.1,0.2
			c0,0,0,6.4,0,6.2c0,0,0,0,0,0c-0.1,1-0.6,2-1.8,2.7c-4.1,2.6-21.1,3-27.9,1.1c-3.8-1-5.5-3.2-5.4-5.6c0,0,0,0,0,0V749.9z"/>
		<path class="st16" d="M644.2,740.9c6.5-1.9,13.3-0.6,19.1,2.3c5.8,2.9,9.1,8.2,5,10.8c-4.1,2.6-21.1,3-27.9,1.1
			C631.3,752.7,634.4,743.8,644.2,740.9z"/>
		<path class="st18" d="M656.1,746.4c2.5-0.8,5.1-0.2,7.4,0.9c2.3,1.1,3.5,3.2,1.9,4.2c-1.6,1-8.2,1.1-10.8,0.4
			C651.2,750.9,652.3,747.5,656.1,746.4z"/>
	</g>
	<g>
		<path class="st20" d="M745.7,616c1.5-0.6,9.5-8.9,21.7-3.2c12.1,5.7,16.6,19.9,16.6,19.9s0.2-16-13.4-23.6
			c-13.6-7.6-24-3.6-24-3.6L745.7,616z"/>
		<path class="st20" d="M741.3,590.8c1.5-0.6,9.5-8.9,21.7-3.2c12.1,5.7,16.6,19.9,16.6,19.9s0.2-16-13.4-23.6
			c-13.6-7.6-24-3.6-24-3.6L741.3,590.8z"/>
		<path class="st20" d="M642.5,551c0,0,4.6-17.3,22.1-16.5c17.5,0.8,19.2,10.1,19.2,10.1s2.1-7.8-13.7-13
			c-15.8-5.2-26.4,3.2-30.6,10.9c-4.2,7.7-3.1,12.7-3.1,12.7L642.5,551z"/>
		<path class="st20" d="M723.7,559.4c0,0,4.6-17.3,22.1-16.5c17.5,0.8,19.2,10.1,19.2,10.1s2.1-7.8-13.7-13
			c-15.8-5.2-26.4,3.2-30.6,10.9c-4.2,7.7-3.1,12.7-3.1,12.7L723.7,559.4z"/>
		<path class="st20" d="M705.7,559.4c0,0-4.6-17.3-22.1-16.5c-17.5,0.8-19.2,10.1-19.2,10.1s-2.1-7.8,13.7-13
			c15.8-5.2,26.4,3.2,30.6,10.9c4.2,7.7,3.1,12.7,3.1,12.7L705.7,559.4z"/>
		<path class="st20" d="M641.5,554.5c0,0-13.6-11.6-27.6-1c-14,10.6-10.1,19.2-10.1,19.2s-6.2-5.3,3.9-18.5
			c10-13.2,23.5-12.4,31.4-8.4c7.9,3.9,9.8,8.7,9.8,8.7L641.5,554.5z"/>
		<path class="st20" d="M705.5,568.9c7.5-6.4,34.2-11.7,49.1,17.4c8.6,16.9-6.4,37.6-6.4,37.6l-34.7-17.9L705.5,568.9z"/>
		<path class="st20" d="M714.1,583.2c0,0,12.1-26,37.4-20.6c25.2,5.4,25.7,24.3,25.7,24.3s-5-11.8-16.8-15.8
			c-11.9-4-23.5-2-29.1,2.4c-5.6,4.4-11.8,13.7-11.8,13.7L714.1,583.2z"/>
		<path class="st20" d="M575.9,610.5c0,0,7.8,10.3,25.3,7.1c13-2.4,16.1-7.9,16.1-7.9v-6.6c0,0-5.9,9.5-18.8,10.5
			C584.6,614.9,575.9,610.5,575.9,610.5z"/>
		<path class="st20" d="M580.2,595.7c0,0,2.3,12.7,19.3,17.8c12.6,3.8,17.9,0.3,17.9,0.3l3-5.9c0,0-9.6,5.7-21.5,0.9
			C585.9,603.6,580.2,595.7,580.2,595.7z"/>
		<path class="st20" d="M691,561.1c0.5-1.4,14.1-26,32.7-22.7c18.3,3.3,18.3,15.2,18.3,15.2s-3.5-9.7-16.2-11
			c-8.3-0.9-15,4.3-21.9,15.4C696.9,569.1,691,561.1,691,561.1z"/>
		<path class="st20" d="M705.8,575.8c0.5-1.4,13.6-29.2,31.8-24.2c18.2,5,19.2,16.7,19.2,16.7s-9.5-11.2-17.4-10.7
			c-7.9,0.5-13.8,3.9-20.8,15.1C711.8,583.8,705.8,575.8,705.8,575.8z"/>
		<path class="st20" d="M623.2,587.4c0,0-5.9-34.6,22.6-41.1c28.5-6.5,46.5,8.3,50,23.5C699.3,585.1,623.2,587.4,623.2,587.4z"/>
		<path class="st20" d="M594.3,603.1c-2-6.3-3.3-20.7,12.2-24.6c16.3-4,18.8,5.9,18.8,5.9l-6.6,1.6c0,0-4.1-5.3-12.2-3.9
			C594.2,584.3,594.3,603.1,594.3,603.1z"/>
		<path class="st20" d="M601.6,593.9c-1.3-4.1-1.6-25.2,13.7-30c14.9-4.7,19.7,5.3,19.7,5.3l-7.1,3c0,0-4.7-5.7-12.7-3.8
			C604.2,571.1,601.6,593.9,601.6,593.9z"/>
		<path class="st20" d="M595.4,618.8c-1.3-4.1-1.6-25.2,13.7-30c14.9-4.7,19.7,5.3,19.7,5.3l-7.1,3c0,0-4.7-5.7-12.7-3.8
			C598.1,596,595.4,618.8,595.4,618.8z"/>
		<path class="st21" d="M619.7,632.6c-14.1,8.1-17,32.8-17,32.8s-2.3-12.3,1.3-23.5c3.4-10.7,8.7-12.7,8.7-12.7s-12.9,0.5-18.7,9.6
			c-6.8,10.6-8.9,22.8-8.9,22.8s-1.8-14,6.3-27.7c3.5-6,11.4-8.9,11.4-8.9s-10.8,2.9-20.5-1.1c-6.4-2.6-11.4-10-11.4-10
			s10.4,8.5,19.1,8.1c8.8-0.3,11.8-2.5,11.8-2.5s-4.6-14.2,4.5-30.4c7.6-13.6,15.6-17.9,23.5-20.5c7.9-2.6,16.3-2.3,16.3-2.3
			s-1.7-9.9-12.4-11.9c-12.2-2.3-21.8,5.7-21.8,5.7s3.8-9.2,17-11.2c12.4-1.9,23.1,10,23.1,10s-6.2-12.5-12.4-16.4
			c-6.1-3.9-14.9-2.4-14.9-2.4s10.1-5.7,21.3-0.3c11.2,5.4,13.3,13.5,13.3,13.5s0-9.4,4-16.7c4.5-8.1,13.1-10.2,13.1-10.2
			s-9.3,5.3-8.9,17.4c0.1,4.1,1.3,15.1,1.3,15.1s7.8-18.3,17.9-24c13.6-7.6,17.9,1.7,17.9,1.7s-10-6-16.1,3.5
			c-7.2,11.2-7.8,19.2-7.8,19.2s10-6.8,22.6-5.5c19.3,2,28.5,11.5,30.6,21.8c2.2,10.2,12.8,8.4,23.7,12.6c14.1,5.4,14.6,15,14.6,15
			s-5.3-8.1-16.8-9.8c-8.1-1.2-15.1,5.3-15.1,5.3s10-1.1,18.6,6.1c9.1,7.7,6.4,20.7,6.4,20.7s-4-10.6-12.1-13.6
			c-7.2-2.6-11.6-1.2-11.6-1.2s12.3,7.4,17.1,18.3c5.8,13.1,1.6,32.7,1.6,32.7s1.4-17.5-5.7-29.7c-4.1-7.1-12.2-8.1-12.2-8.1
			s4.4,13.4,4.4,24.3c0,11.5-6.9,26.1-6.9,26.1s4-21.6,2.8-28.4c-2.2-12.4-5.7-20.4-10.6-19c-4.5,1.3-3.7,10.9-2.5,17.1
			c-15.2,7.6-25.4,11.1-53.6,10C649.3,653,627.4,642.7,619.7,632.6z"/>
		<g>
			<path class="st20" d="M651,516.5c-7.2-13.1-21.1-18.7-39.2-12.9c-21.4,6.8-36.5,25.8-38.8,48c0,0.2,0.3,0.2,0.3,0
				c2.6-17.4,12.3-32.8,27.7-41.6c7.7-4.4,17.4-7.7,26.4-6.4c12.3,1.8,19.6,8.6,23.4,18.3c11.9,30.7,9.1,66.3,12.8,81.3
				C666.7,578,666,543.9,651,516.5z"/>
			<path class="st20" d="M725.2,502.9c7.2-13.1,21.1-18.7,39.2-12.9c21.4,6.8,36.5,25.8,38.8,48c0,0.2-0.3,0.2-0.3,0
				c-2.6-17.4-12.3-32.8-27.7-41.6c-7.7-4.4-17.4-7.7-26.4-6.4c-12.3,1.8-19.6,8.6-23.4,18.3c-11.9,30.7-16.6,80.6-20.4,89
				C705.9,574,710.2,530.3,725.2,502.9z"/>
			<g>
				<path class="st22" d="M795.2,511.8c2.3,0,4.2,1.7,4.6,4c0.3-0.1,0.6-0.2,0.9-0.2c1.7,0,3.2,1.4,3.2,3.2c0,1-0.5,1.9-1.3,2.5
					c0.6,0.2,1.1,0.6,1.5,1c0.6-0.6,1.4-1,2.3-1c1.7,0,3.2,1.4,3.2,3.2c0,1.3-0.8,2.5-2,2.9c1.1,0.8,1.9,2,1.9,3.5
					c0,2.4-1.9,4.3-4.3,4.3c-0.9,0-1.6-0.3-2.3-0.8c-0.5,0.9-1.5,1.6-2.7,1.6c-1.7,0-3.2-1.4-3.2-3.2c0,0,0,0,0,0c0,0-0.1,0-0.1,0
					c-1.7,0-3.2-1.4-3.2-3.2c0-1.5,1.1-2.8,2.6-3c-0.1-0.3-0.2-0.7-0.2-1c0-0.1,0-0.1,0-0.1c-1.4-0.3-2.4-1.5-2.4-3
					c0-0.5,0.1-1,0.3-1.4c-2-0.6-3.4-2.3-3.4-4.5C790.5,513.9,792.6,511.8,795.2,511.8z"/>
				<path class="st22" d="M730,500.7c0.6,0,1.1,0.2,1.5,0.5c0-0.1,0-0.1,0-0.2c0-0.8,0.3-1.6,0.9-2.2c-1.7-0.7-2.8-2.4-2.8-4.3
					c0-2.6,2.1-4.7,4.7-4.7c0.4,0,0.9,0.1,1.3,0.3c-0.2-0.4-0.3-0.9-0.3-1.4c0-1.5,1.1-2.7,2.4-3c-0.2-0.5-0.3-1.1-0.3-1.7
					c0-2.6,2.1-4.7,4.7-4.7c2.5,0,4.5,1.9,4.6,4.4c0.2,0,0.4-0.1,0.6-0.1c0.9,0,1.8,0.3,2.5,0.8c-0.1-0.3-0.2-0.5-0.2-0.8
					c0-0.8,0.3-1.5,0.6-2.2c-1-0.2-1.8-1-1.8-2.1c0-1.2,1-2.2,2.2-2.2c1.2,0,2.1,0.9,2.1,2.1c0.5-0.2,1-0.3,1.6-0.3c0,0,0,0,0,0
					c0-1.7,1.4-3.1,3.2-3.1c0.9,0,1.7,0.4,2.2,0.9c0.3-2.3,2.2-4,4.6-4c1.7,0,3.2,1,4,2.4c0.4-0.2,0.9-0.4,1.5-0.4
					c1.7,0,3.2,1.4,3.2,3.2c0,1.7-1.4,3.2-3.2,3.2c-0.7,0-1.3-0.3-1.9-0.7c-0.5,0.6-1,1.1-1.7,1.4c0.4,0.7,0.7,1.5,0.7,2.4
					c0,0.5-0.1,0.9-0.3,1.3c0.3-0.1,0.5-0.2,0.8-0.2c1,0,1.8,0.5,2.4,1.2c0.8-0.7,1.9-1.2,3.1-1.2c2.6,0,4.7,2.1,4.7,4.7
					c0,1.2-0.5,2.3-1.2,3.1c0.5-0.4,1.1-0.6,1.8-0.6c0.5,0,1,0.2,1.5,0.4c0.2-1.2,0.7-2.2,1.6-2.9c-1.6-0.8-2.7-2.4-2.7-4.2
					c0-2.6,2.1-4.7,4.7-4.7c2.6,0,4.7,2.1,4.7,4.7c0,0,0,0,0,0.1c0.2,0,0.4-0.1,0.6-0.1c1.7,0,3.2,1.4,3.2,3.2
					c0,1.7-1.4,3.1-3.1,3.1c0.2,0.5,0.3,1,0.3,1.6c0,0.5-0.1,0.9-0.3,1.3c0.3,0,0.5-0.2,0.8-0.2c0.7,0,1.4,0.2,2,0.5c0,0,0,0,0,0
					c0-1.2,1-2.2,2.2-2.2c1.1,0,2,0.8,2.1,1.9c0.3-0.1,0.7-0.2,1.1-0.2c2.6,0,4.7,2.1,4.7,4.7c0,1.5-0.7,2.8-1.8,3.6
					c0.6,0.8,1.1,1.8,1.1,2.8c0,2.6-2.1,4.7-4.7,4.7c-1.9,0-3.6-1.2-4.3-2.9c-0.7,1.7-2.4,2.9-4.3,2.9c-2.3,0-4.2-1.7-4.6-4
					c-0.5,1-1.5,1.7-2.8,1.7c-1.7,0-3.2-1.4-3.2-3.2c0-1.7,1.4-3.2,3.2-3.2c1.4,0,2.5,0.9,3,2.2c0.4-1.1,1.3-2,2.4-2.5
					c-0.4-0.7-0.6-1.4-0.6-2.2c0-0.5,0.1-0.9,0.3-1.3c-0.3,0-0.5,0.2-0.8,0.2c-1.3,0-2.4-0.5-3.2-1.3c-0.5,1.1-1.6,1.8-2.8,1.8
					c-1.7,0-3.2-1.4-3.2-3.2c0-0.8,0.3-1.5,0.8-2c-0.8,0.6-1.8,1.1-2.9,1.1c-0.5,0-1-0.1-1.5-0.3c0,0.3,0.2,0.5,0.2,0.8
					c0,2.6-2.1,4.7-4.7,4.7s-4.7-2.1-4.7-4.7c0-2.1,1.3-3.8,3.2-4.4c-0.7-0.6-1.1-1.4-1.1-2.4c0,0,0-0.1,0-0.1
					c-0.6,0.3-1.3,0.6-2.1,0.6c-0.5,0-1-0.1-1.5-0.3c-0.4,0.5-0.8,1-1.4,1.2c0.6,0.6,1,1.4,1,2.3c0,1.7-1.4,3.2-3.2,3.2
					s-3.2-1.4-3.2-3.2c0-1.3,0.8-2.5,2-2.9c-0.3-0.2-0.4-0.5-0.6-0.9c-0.3,0.1-0.7,0.2-1,0.2c-0.9,0-1.8-0.3-2.5-0.8
					c0,0.3,0.2,0.5,0.2,0.8c0,2.1-1.4,3.9-3.4,4.4c0,0.1,0.1,0.2,0.1,0.3c0,1.7-1.4,3.2-3.2,3.2c-1.7,0-3.2-1.4-3.2-3.2
					c0-0.9,0.4-1.7,1-2.3c-0.4-0.6-0.7-1.3-0.7-2.1c-0.2,0-0.4,0.1-0.6,0.1c-0.2,0-0.3-0.1-0.5-0.1c0,0,0,0.1,0,0.1
					c0,1.7-1.4,3.2-3.2,3.2c-0.1,0-0.2-0.1-0.4-0.1c0.6,0.8,1,1.7,1,2.7c0,0.1-0.1,0.3-0.1,0.4c0,0,0.1,0,0.1,0
					c1.6,0,2.9,1.3,2.9,2.9c0,1.6-1.3,2.9-2.9,2.9c-0.5,0-0.9-0.1-1.2-0.3c0,0.2,0.1,0.3,0.1,0.5c0,1.7-1.4,3.2-3.2,3.2
					c-0.6,0-1.1-0.2-1.5-0.5c0,0.1,0,0.1,0,0.2c0,1.7-1.4,3.2-3.2,3.2c-1.7,0-3.2-1.4-3.2-3.2C726.9,502.1,728.3,500.7,730,500.7z"
					/>
				<path class="st22" d="M800.7,540C800.7,540,800.7,540,800.7,540c0-0.1,0-0.1,0-0.2c0-1.7,1.4-3.2,3.2-3.2c1.7,0,3.2,1.4,3.2,3.2
					s-1.4,3.2-3.2,3.2c0,0,0,0,0,0c0,0.1,0,0.1,0,0.2c0,0.4-0.1,0.7-0.2,1c0.1,0,0.1,0,0.2,0c1.2,0,2.2,1,2.2,2.2
					c0,1.2-1,2.2-2.2,2.2c-1.2,0-2.2-1-2.2-2.2c0-0.1,0-0.1,0-0.2c-0.3,0.1-0.7,0.2-1,0.2c-1.7,0-3.2-1.4-3.2-3.2S799,540,800.7,540
					z"/>
				<path class="st22" d="M774.2,498.6c1.2,0,2.2,1,2.2,2.2c0,1.2-1,2.2-2.2,2.2c-1.2,0-2.2-1-2.2-2.2
					C772,499.5,773,498.6,774.2,498.6z"/>
				<path class="st22" d="M732.2,488.6c-1.2,0-2.2-1-2.2-2.2c0-1.2,1-2.2,2.2-2.2c1.2,0,2.2,1,2.2,2.2
					C734.4,487.7,733.4,488.6,732.2,488.6z"/>
				<path class="st22" d="M806,519.9c-1.2,0-2.2-1-2.2-2.2c0-1.2,1-2.2,2.2-2.2c1.2,0,2.2,1,2.2,2.2
					C808.2,518.9,807.2,519.9,806,519.9z"/>
				<path class="st22" d="M775.7,484.1c-1.2,0-2.2-1-2.2-2.2c0-1.2,1-2.2,2.2-2.2c1.2,0,2.2,1,2.2,2.2
					C777.8,483.2,776.9,484.1,775.7,484.1z"/>
			</g>
			<g>
				<path class="st22" d="M581,525.4c-2.3,0-4.2,1.7-4.6,4c-0.3-0.1-0.6-0.2-0.9-0.2c-1.7,0-3.2,1.4-3.2,3.2c0,1,0.5,1.9,1.3,2.5
					c-0.6,0.2-1.1,0.6-1.5,1c-0.6-0.6-1.4-1-2.3-1c-1.7,0-3.2,1.4-3.2,3.2c0,1.3,0.8,2.5,2,2.9c-1.1,0.8-1.9,2-1.9,3.5
					c0,2.4,1.9,4.3,4.3,4.3c0.9,0,1.6-0.3,2.3-0.8c0.5,0.9,1.5,1.6,2.7,1.6c1.7,0,3.2-1.4,3.2-3.2c0,0,0,0,0,0c0,0,0.1,0,0.1,0
					c1.7,0,3.2-1.4,3.2-3.2c0-1.5-1.1-2.8-2.6-3c0.1-0.3,0.2-0.7,0.2-1c0-0.1,0-0.1,0-0.1c1.4-0.3,2.4-1.5,2.4-3
					c0-0.5-0.1-1-0.3-1.4c2-0.6,3.4-2.3,3.4-4.5C585.7,527.5,583.6,525.4,581,525.4z"/>
				<path class="st22" d="M646.2,514.3c-0.6,0-1.1,0.2-1.5,0.5c0-0.1,0-0.1,0-0.2c0-0.8-0.3-1.6-0.9-2.2c1.7-0.7,2.8-2.4,2.8-4.3
					c0-2.6-2.1-4.7-4.7-4.7c-0.4,0-0.9,0.1-1.3,0.3c0.2-0.4,0.3-0.9,0.3-1.4c0-1.5-1.1-2.7-2.4-3c0.2-0.5,0.3-1.1,0.3-1.7
					c0-2.6-2.1-4.7-4.7-4.7c-2.5,0-4.5,1.9-4.6,4.4c-0.2,0-0.4-0.1-0.6-0.1c-0.9,0-1.8,0.3-2.5,0.8c0-0.3,0.2-0.5,0.2-0.8
					c0-0.8-0.3-1.5-0.6-2.2c1-0.2,1.8-1,1.8-2.1c0-1.2-1-2.2-2.2-2.2c-1.2,0-2.1,0.9-2.1,2.1c-0.5-0.2-1-0.3-1.6-0.3c0,0,0,0,0,0
					c0-1.7-1.4-3.1-3.2-3.1c-0.9,0-1.7,0.4-2.2,0.9c-0.3-2.3-2.2-4-4.6-4c-1.7,0-3.2,1-4,2.4c-0.4-0.2-0.9-0.4-1.5-0.4
					c-1.7,0-3.2,1.4-3.2,3.2c0,1.7,1.4,3.2,3.2,3.2c0.7,0,1.3-0.3,1.9-0.7c0.5,0.6,1,1.1,1.7,1.4c-0.4,0.7-0.7,1.5-0.7,2.4
					c0,0.5,0.1,0.9,0.3,1.3c-0.3-0.1-0.5-0.2-0.8-0.2c-1,0-1.8,0.5-2.4,1.2c-0.8-0.7-1.9-1.2-3.1-1.2c-2.6,0-4.7,2.1-4.7,4.7
					c0,1.2,0.5,2.3,1.2,3.1c-0.5-0.4-1.1-0.6-1.8-0.6c-0.5,0-1,0.2-1.5,0.4c-0.2-1.2-0.7-2.2-1.6-2.9c1.6-0.8,2.7-2.4,2.7-4.2
					c0-2.6-2.1-4.7-4.7-4.7c-2.6,0-4.7,2.1-4.7,4.7c0,0,0,0,0,0.1c-0.2,0-0.4-0.1-0.6-0.1c-1.7,0-3.2,1.4-3.2,3.2
					c0,1.7,1.4,3.1,3.1,3.1c-0.2,0.5-0.3,1-0.3,1.6c0,0.5,0.1,0.9,0.3,1.3c-0.3,0-0.5-0.2-0.8-0.2c-0.7,0-1.4,0.2-2,0.5c0,0,0,0,0,0
					c0-1.2-1-2.2-2.2-2.2c-1.1,0-2,0.8-2.1,1.9c-0.3-0.1-0.7-0.2-1.1-0.2c-2.6,0-4.7,2.1-4.7,4.7c0,1.5,0.7,2.8,1.8,3.6
					c-0.6,0.8-1.1,1.8-1.1,2.8c0,2.6,2.1,4.7,4.7,4.7c1.9,0,3.6-1.2,4.3-2.9c0.7,1.7,2.4,2.9,4.3,2.9c2.3,0,4.2-1.7,4.6-4
					c0.5,1,1.5,1.7,2.8,1.7c1.7,0,3.2-1.4,3.2-3.2c0-1.7-1.4-3.2-3.2-3.2c-1.4,0-2.5,0.9-3,2.2c-0.4-1.1-1.3-2-2.4-2.5
					c0.4-0.7,0.6-1.4,0.6-2.2c0-0.5-0.1-0.9-0.3-1.3c0.3,0,0.5,0.2,0.8,0.2c1.3,0,2.4-0.5,3.2-1.3c0.5,1.1,1.6,1.8,2.8,1.8
					c1.7,0,3.2-1.4,3.2-3.2c0-0.8-0.3-1.5-0.8-2c0.8,0.6,1.8,1.1,2.9,1.1c0.5,0,1-0.1,1.5-0.3c0,0.3-0.2,0.5-0.2,0.8
					c0,2.6,2.1,4.7,4.7,4.7c2.6,0,4.7-2.1,4.7-4.7c0-2.1-1.3-3.8-3.2-4.4c0.7-0.6,1.1-1.4,1.1-2.4c0,0,0-0.1,0-0.1
					c0.6,0.3,1.3,0.6,2.1,0.6c0.5,0,1-0.1,1.5-0.3c0.4,0.5,0.8,1,1.4,1.2c-0.6,0.6-1,1.4-1,2.3c0,1.7,1.4,3.2,3.2,3.2
					s3.2-1.4,3.2-3.2c0-1.3-0.8-2.5-2-2.9c0.3-0.2,0.4-0.5,0.6-0.9c0.3,0.1,0.7,0.2,1,0.2c0.9,0,1.8-0.3,2.5-0.8
					c0,0.3-0.2,0.5-0.2,0.8c0,2.1,1.4,3.9,3.4,4.4c0,0.1-0.1,0.2-0.1,0.3c0,1.7,1.4,3.2,3.2,3.2c1.7,0,3.2-1.4,3.2-3.2
					c0-0.9-0.4-1.7-1-2.3c0.4-0.6,0.7-1.3,0.7-2.1c0.2,0,0.4,0.1,0.6,0.1c0.2,0,0.3-0.1,0.5-0.1c0,0,0,0.1,0,0.1
					c0,1.7,1.4,3.2,3.2,3.2c0.1,0,0.2-0.1,0.4-0.1c-0.6,0.8-1,1.7-1,2.7c0,0.1,0.1,0.3,0.1,0.4c0,0-0.1,0-0.1,0
					c-1.6,0-2.9,1.3-2.9,2.9c0,1.6,1.3,2.9,2.9,2.9c0.5,0,0.9-0.1,1.2-0.3c0,0.2-0.1,0.3-0.1,0.5c0,1.7,1.4,3.2,3.2,3.2
					c0.6,0,1.1-0.2,1.5-0.4c0,0.1,0,0.1,0,0.2c0,1.7,1.4,3.2,3.2,3.2c1.7,0,3.2-1.4,3.2-3.2C649.3,515.8,647.9,514.3,646.2,514.3z"
					/>
				<path class="st22" d="M575.5,553.6C575.5,553.6,575.5,553.6,575.5,553.6c0-0.1,0-0.1,0-0.2c0-1.7-1.4-3.2-3.2-3.2
					s-3.2,1.4-3.2,3.2c0,1.7,1.4,3.2,3.2,3.2c0,0,0,0,0,0c0,0.1,0,0.1,0,0.2c0,0.4,0.1,0.7,0.2,1c-0.1,0-0.1,0-0.2,0
					c-1.2,0-2.2,1-2.2,2.2c0,1.2,1,2.2,2.2,2.2c1.2,0,2.2-1,2.2-2.2c0-0.1,0-0.1,0-0.2c0.3,0.1,0.7,0.2,1,0.2c1.7,0,3.2-1.4,3.2-3.2
					C578.7,555,577.3,553.6,575.5,553.6z"/>
				<path class="st22" d="M602,512.2c-1.2,0-2.2,1-2.2,2.2c0,1.2,1,2.2,2.2,2.2c1.2,0,2.2-1,2.2-2.2
					C604.2,513.1,603.2,512.2,602,512.2z"/>
				<path class="st22" d="M644,502.2c1.2,0,2.2-1,2.2-2.2c0-1.2-1-2.2-2.2-2.2c-1.2,0-2.2,1-2.2,2.2
					C641.8,501.3,642.8,502.2,644,502.2z"/>
				<path class="st22" d="M570.2,533.5c1.2,0,2.2-1,2.2-2.2c0-1.2-1-2.2-2.2-2.2c-1.2,0-2.2,1-2.2,2.2
					C568,532.5,569,533.5,570.2,533.5z"/>
				<path class="st22" d="M600.5,497.7c1.2,0,2.2-1,2.2-2.2c0-1.2-1-2.2-2.2-2.2c-1.2,0-2.2,1-2.2,2.2
					C598.4,496.8,599.4,497.7,600.5,497.7z"/>
			</g>
			<path class="st23" d="M695,536.8c7.2-13.1,21.1-18.7,39.2-12.9c21.4,6.8,36.5,25.8,38.8,48c0,0.2-0.3,0.2-0.3,0
				c-2.6-17.4-12.2-32.8-27.7-41.6c-7.7-4.4-17.4-7.7-26.4-6.4c-12.3,1.8-19.6,8.6-23.4,18.3c-11.9,30.7-10.8,66.3-12.8,81.3
				C679.4,598.3,680,564.3,695,536.8z"/>
			<g>
				<path class="st22" d="M765,545.7c2.3,0,4.2,1.7,4.6,4c0.3-0.1,0.6-0.2,0.9-0.2c1.7,0,3.2,1.4,3.2,3.2c0,1-0.5,1.9-1.3,2.5
					c0.6,0.2,1.1,0.6,1.5,1c0.6-0.6,1.4-1,2.3-1c1.7,0,3.2,1.4,3.2,3.2c0,1.3-0.8,2.5-2,2.9c1.1,0.8,1.9,2,1.9,3.5
					c0,2.4-1.9,4.3-4.3,4.3c-0.9,0-1.6-0.3-2.3-0.8c-0.5,0.9-1.5,1.6-2.7,1.6c-1.7,0-3.2-1.4-3.2-3.2c0,0,0,0,0,0c0,0-0.1,0-0.1,0
					c-1.7,0-3.2-1.4-3.2-3.2c0-1.5,1.1-2.8,2.6-3c-0.1-0.3-0.2-0.7-0.2-1c0-0.1,0-0.1,0-0.1c-1.4-0.3-2.4-1.5-2.4-3
					c0-0.5,0.1-1,0.3-1.4c-2-0.6-3.4-2.3-3.4-4.5C760.3,547.8,762.4,545.7,765,545.7z"/>
				<path class="st22" d="M699.9,534.7c0.6,0,1.1,0.2,1.5,0.5c0-0.1,0-0.1,0-0.2c0-0.8,0.3-1.6,0.9-2.2c-1.7-0.7-2.8-2.4-2.8-4.3
					c0-2.6,2.1-4.7,4.7-4.7c0.4,0,0.9,0.1,1.3,0.3c-0.2-0.4-0.3-0.9-0.3-1.4c0-1.5,1.1-2.7,2.4-3c-0.2-0.5-0.3-1.1-0.3-1.7
					c0-2.6,2.1-4.7,4.7-4.7c2.5,0,4.5,1.9,4.6,4.4c0.2,0,0.4-0.1,0.6-0.1c0.9,0,1.8,0.3,2.5,0.8c0-0.3-0.2-0.5-0.2-0.8
					c0-0.8,0.3-1.5,0.6-2.2c-1-0.2-1.8-1-1.8-2.1c0-1.2,1-2.2,2.2-2.2c1.2,0,2.1,0.9,2.1,2.1c0.5-0.2,1-0.3,1.6-0.3c0,0,0,0,0,0
					c0-1.7,1.4-3.1,3.2-3.1c0.9,0,1.7,0.4,2.2,0.9c0.3-2.3,2.2-4,4.6-4c1.7,0,3.2,1,4,2.4c0.4-0.2,0.9-0.4,1.5-0.4
					c1.7,0,3.2,1.4,3.2,3.2c0,1.7-1.4,3.2-3.2,3.2c-0.7,0-1.3-0.3-1.9-0.7c-0.5,0.6-1,1.1-1.7,1.4c0.4,0.7,0.7,1.5,0.7,2.4
					c0,0.5-0.1,0.9-0.3,1.3c0.3-0.1,0.5-0.2,0.8-0.2c1,0,1.8,0.5,2.4,1.2c0.8-0.7,1.9-1.2,3.1-1.2c2.6,0,4.7,2.1,4.7,4.7
					c0,1.2-0.5,2.3-1.2,3.1c0.5-0.4,1.1-0.6,1.8-0.6c0.5,0,1,0.2,1.5,0.4c0.2-1.2,0.7-2.2,1.6-2.9c-1.6-0.8-2.7-2.4-2.7-4.2
					c0-2.6,2.1-4.7,4.7-4.7c2.6,0,4.7,2.1,4.7,4.7c0,0,0,0,0,0.1c0.2,0,0.4-0.1,0.6-0.1c1.7,0,3.2,1.4,3.2,3.2
					c0,1.7-1.4,3.1-3.1,3.1c0.2,0.5,0.3,1,0.3,1.6c0,0.5-0.1,0.9-0.3,1.3c0.3,0,0.5-0.2,0.8-0.2c0.7,0,1.4,0.2,2,0.5c0,0,0,0,0,0
					c0-1.2,1-2.2,2.2-2.2c1.1,0,2,0.8,2.1,1.9c0.3-0.1,0.7-0.2,1.1-0.2c2.6,0,4.7,2.1,4.7,4.7c0,1.5-0.7,2.8-1.8,3.6
					c0.6,0.8,1.1,1.8,1.1,2.8c0,2.6-2.1,4.7-4.7,4.7c-1.9,0-3.6-1.2-4.3-2.9c-0.7,1.7-2.4,2.9-4.3,2.9c-2.3,0-4.2-1.7-4.6-4
					c-0.5,1-1.5,1.7-2.8,1.7c-1.7,0-3.2-1.4-3.2-3.2c0-1.7,1.4-3.2,3.2-3.2c1.4,0,2.5,0.9,3,2.2c0.4-1.1,1.3-2,2.4-2.5
					c-0.4-0.7-0.6-1.4-0.6-2.2c0-0.5,0.1-0.9,0.3-1.3c-0.3,0-0.5,0.2-0.8,0.2c-1.3,0-2.4-0.5-3.2-1.3c-0.5,1.1-1.6,1.8-2.8,1.8
					c-1.7,0-3.2-1.4-3.2-3.2c0-0.8,0.3-1.5,0.8-2c-0.8,0.6-1.8,1.1-2.9,1.1c-0.5,0-1-0.1-1.5-0.3c0,0.3,0.2,0.5,0.2,0.8
					c0,2.6-2.1,4.7-4.7,4.7c-2.6,0-4.7-2.1-4.7-4.7c0-2.1,1.3-3.8,3.2-4.4c-0.7-0.6-1.1-1.4-1.1-2.4c0,0,0-0.1,0-0.1
					c-0.6,0.3-1.3,0.6-2.1,0.6c-0.5,0-1-0.1-1.5-0.3c-0.4,0.5-0.8,1-1.4,1.2c0.6,0.6,1,1.4,1,2.3c0,1.7-1.4,3.2-3.2,3.2
					s-3.2-1.4-3.2-3.2c0-1.3,0.8-2.5,2-2.9c-0.3-0.2-0.4-0.5-0.6-0.9c-0.3,0.1-0.7,0.2-1,0.2c-0.9,0-1.8-0.3-2.5-0.8
					c0.1,0.3,0.2,0.5,0.2,0.8c0,2.1-1.4,3.9-3.4,4.4c0,0.1,0.1,0.2,0.1,0.3c0,1.7-1.4,3.2-3.2,3.2s-3.2-1.4-3.2-3.2
					c0-0.9,0.4-1.7,1-2.3c-0.4-0.6-0.7-1.3-0.7-2.1c-0.2,0-0.4,0.1-0.6,0.1c-0.2,0-0.3-0.1-0.5-0.1c0,0,0,0.1,0,0.1
					c0,1.7-1.4,3.2-3.2,3.2c-0.1,0-0.2-0.1-0.4-0.1c0.6,0.8,1,1.7,1,2.7c0,0.1-0.1,0.3-0.1,0.4c0,0,0.1,0,0.1,0
					c1.6,0,2.9,1.3,2.9,2.9s-1.3,2.9-2.9,2.9c-0.5,0-0.9-0.1-1.2-0.3c0,0.2,0.1,0.3,0.1,0.5c0,1.7-1.4,3.2-3.2,3.2
					c-0.6,0-1.1-0.2-1.5-0.4c0,0.1,0,0.1,0,0.2c0,1.7-1.4,3.2-3.2,3.2c-1.7,0-3.2-1.4-3.2-3.2C696.7,536.1,698.1,534.7,699.9,534.7z
					"/>
				<path class="st22" d="M770.5,573.9C770.5,573.9,770.6,573.9,770.5,573.9c0-0.1,0-0.1,0-0.2c0-1.7,1.4-3.2,3.2-3.2
					s3.2,1.4,3.2,3.2s-1.4,3.2-3.2,3.2c0,0,0,0,0,0c0,0.1,0,0.1,0,0.2c0,0.4-0.1,0.7-0.2,1c0.1,0,0.1,0,0.2,0c1.2,0,2.2,1,2.2,2.2
					c0,1.2-1,2.2-2.2,2.2c-1.2,0-2.2-1-2.2-2.2c0-0.1,0-0.1,0-0.2c-0.3,0.1-0.7,0.2-1,0.2c-1.7,0-3.2-1.4-3.2-3.2
					C767.4,575.4,768.8,573.9,770.5,573.9z"/>
				<path class="st22" d="M744,532.5c1.2,0,2.2,1,2.2,2.2c0,1.2-1,2.2-2.2,2.2c-1.2,0-2.2-1-2.2-2.2
					C741.9,533.5,742.8,532.5,744,532.5z"/>
				<path class="st22" d="M702,522.6c-1.2,0-2.2-1-2.2-2.2s1-2.2,2.2-2.2c1.2,0,2.2,1,2.2,2.2S703.2,522.6,702,522.6z"/>
				<path class="st22" d="M775.9,553.8c-1.2,0-2.2-1-2.2-2.2c0-1.2,1-2.2,2.2-2.2c1.2,0,2.2,1,2.2,2.2
					C778,552.9,777,553.8,775.9,553.8z"/>
				<path class="st22" d="M745.5,518.1c-1.2,0-2.2-1-2.2-2.2c0-1.2,1-2.2,2.2-2.2c1.2,0,2.2,1,2.2,2.2
					C747.7,517.1,746.7,518.1,745.5,518.1z"/>
			</g>
			<path class="st20" d="M654.5,465.2c-10.2-13.8-31.4-21.1-43.1-5c-0.2,0.3,0.2,0.6,0.5,0.3c7.2-8.8,20.3-9.2,29.7-3.5
				c8.7,5.3,13.9,14.6,17.8,23.7c8.1,18.9,12.8,56.7,12.8,89.3C675.6,528.3,669.3,485.2,654.5,465.2z"/>
			<g>
				<path class="st22" d="M665.5,484.5c-1.2,0-2.2,0.6-2.8,1.5c-0.1-0.1-0.1-0.1-0.2-0.2c0.9-0.5,1.5-1.4,1.5-2.6
					c0-1-0.6-1.9-1.3-2.4c2.1-0.6,3.7-2.5,3.7-4.8c0-2.8-2.3-5.1-5.1-5.1c-0.1,0-0.3,0.1-0.4,0.1c0.5-0.4,0.8-1,0.8-1.7
					c0-1.2-1-2.2-2.2-2.2c-0.3,0-0.6,0.1-0.9,0.2c-0.4-1.9-1.8-3.4-3.6-3.8c0.4-0.5,0.6-1.1,0.6-1.8c0-1.6-1.2-2.8-2.7-2.9
					c0.1-0.2,0.2-0.4,0.2-0.7c0-0.9-0.7-1.6-1.6-1.6c-0.9,0-1.6,0.7-1.6,1.6c0,0.6,0.3,1.1,0.8,1.3c-0.7,0.6-1.1,1.3-1.1,2.3
					c0,0.1,0.1,0.2,0.1,0.4c-0.3-0.2-0.7-0.4-1.2-0.4c-0.8,0-1.4,0.4-1.8,1c-0.9-1.5-2.5-2.6-4.4-2.6c-0.3,0-0.5,0.1-0.8,0.2
					c0.1-0.3,0.2-0.5,0.2-0.8c0-1.7-1.3-3-3-3c-0.6,0-1.2,0.2-1.6,0.6c-0.4-0.4-0.9-0.6-1.5-0.6c-1.2,0-2.2,1-2.2,2.2s1,2.2,2.2,2.2
					c0.2,0,0.3-0.1,0.5-0.1c0.4,0.8,1.2,1.4,2.2,1.5c-0.6,0.8-1,1.7-1,2.8c0,2.8,2.3,5.1,5.1,5.1c0.8,0,1.6-0.3,2.3-0.6
					c0.3,0.8,0.9,1.4,1.7,1.8c-0.3,0.3-0.5,0.7-0.5,1.1c0,0.9,0.7,1.6,1.6,1.6c0.9,0,1.6-0.7,1.6-1.6c0-0.3-0.1-0.6-0.3-0.9
					c0.4-0.1,0.7-0.2,1-0.4c0.9,1.3,2.3,2.1,4,2.1c1.8,0,3.3-1,4.2-2.4c0.3,0.3,0.7,0.5,1.2,0.6c-1.7,0.8-2.9,2.5-2.9,4.5
					c0,1.1,0.4,2,1,2.9c-1.1,0.1-2,1-2,2.2c0,0.1,0,0.1,0,0.1c-1.2,0.4-2.1,1.5-2.1,2.8c0,1.7,1.3,3,3,3c1.2,0,2.2-0.7,2.7-1.7
					c0.2,0.2,0.4,0.3,0.6,0.4c-0.5,0.4-0.8,1-0.8,1.7c0,0.8,0.4,1.5,1.1,1.9c-0.8,0.6-1.3,1.6-1.3,2.7c0,1.9,1.6,3.5,3.5,3.5
					c1.9,0,3.5-1.6,3.5-3.5c0-0.2-0.1-0.4-0.1-0.5c0,0,0.1,0,0.1,0c1.9,0,3.5-1.6,3.5-3.5C669,486.1,667.4,484.5,665.5,484.5z"/>
				<path class="st22" d="M617.1,454.2c-1.3,0-2.4,0.9-2.8,2.1c-0.1-0.1-0.3-0.2-0.4-0.3c0.2-0.3,0.3-0.7,0.3-1.1
					c0-1.2-1-2.2-2.2-2.2c-1.2,0-2.2,1-2.2,2.2c0,0.4,0.1,0.8,0.3,1.1c-0.8,0.6-1.4,1.5-1.4,2.6c0,0.3,0.1,0.5,0.2,0.8
					c-0.1,0-0.1,0-0.2,0c-1.2,0-2.2,1-2.2,2.2c0,0.1,0.1,0.3,0.1,0.4c-0.7,0.1-1.3,0.7-1.3,1.5c0,0.9,0.7,1.6,1.6,1.6
					c0.8,0,1.4-0.6,1.5-1.3c0.1,0,0.2,0.1,0.4,0.1c0.4,0,0.7-0.1,1-0.2c0.3,0.8,1.1,1.5,2.1,1.5c1.2,0,2.2-1,2.2-2.2
					c0-0.5-0.2-1-0.5-1.4c0.8-0.4,1.4-1.2,1.6-2.1c0.5,0.5,1.2,0.8,2,0.8c1.7,0,3-1.3,3-3C620.1,455.5,618.8,454.2,617.1,454.2z"/>
				<path class="st22" d="M633.2,453.6c0-2.8-2.3-5.1-5.1-5.1c-1.3,0-2.5,0.5-3.4,1.3c-0.6-0.8-1.6-1.3-2.7-1.3
					c-1.9,0-3.5,1.6-3.5,3.5c0,1.9,1.6,3.5,3.5,3.5c0.5,0,0.9-0.1,1.3-0.3c0.3,0.8,0.8,1.5,1.4,2c-0.3,0.4-0.5,0.8-0.5,1.3
					c0,1.2,1,2.2,2.2,2.2s2.3-1,2.3-2.2c0,0,0-0.1,0-0.1C631.3,458.2,633.2,456.2,633.2,453.6z"/>
				<circle class="st22" cx="608.7" cy="466.7" r="1.6"/>
				<circle class="st22" cx="637.7" cy="450.1" r="1.6"/>
				<circle class="st22" cx="666.3" cy="482.5" r="1.6"/>
				<circle class="st22" cx="665.5" cy="469.4" r="1.6"/>
				<path class="st22" d="M616.1,452.6c0.9,0,1.6-0.7,1.6-1.6c0-0.9-0.7-1.6-1.6-1.6c-0.9,0-1.6,0.7-1.6,1.6
					C614.5,451.9,615.2,452.6,616.1,452.6z"/>
				<path class="st22" d="M651.4,474.4c-1.2,0-2.2,1-2.2,2.2c0,1.2,1,2.2,2.2,2.2s2.2-1,2.2-2.2
					C653.6,475.4,652.6,474.4,651.4,474.4z"/>
				<path class="st22" d="M646.2,458.1c1.2,0,2.3-1,2.3-2.2s-1-2.2-2.3-2.2c-1.2,0-2.2,1-2.2,2.2S644.9,458.1,646.2,458.1z"/>
				<path class="st22" d="M659.4,464.3c1.2,0,2.2-1,2.2-2.2s-1-2.2-2.2-2.2s-2.2,1-2.2,2.2S658.2,464.3,659.4,464.3z"/>
			</g>
			<path class="st20" d="M701,459.2c10.2-13.8,31.4-21.1,43.1-5c0.2,0.3-0.2,0.6-0.5,0.3c-7.2-8.8-20.3-9.2-29.7-3.5
				c-8.7,5.3-13.9,14.6-17.8,23.7c-8.1,18.9-12.8,56.7-12.8,89.3C679.9,522.2,686.2,479.1,701,459.2z"/>
			<g>
				<path class="st22" d="M690.1,478.4c1.2,0,2.2,0.6,2.8,1.5c0.1-0.1,0.1-0.1,0.2-0.2c-0.9-0.5-1.5-1.4-1.5-2.6
					c0-1,0.6-1.9,1.3-2.4c-2.1-0.6-3.7-2.5-3.7-4.8c0-2.8,2.3-5.1,5.1-5.1c0.1,0,0.3,0.1,0.4,0.1c-0.5-0.4-0.8-1-0.8-1.7
					c0-1.2,1-2.2,2.2-2.2c0.3,0,0.6,0.1,0.9,0.2c0.4-1.9,1.8-3.4,3.6-3.8c-0.4-0.5-0.6-1.1-0.6-1.8c0-1.6,1.2-2.8,2.7-2.9
					c-0.1-0.2-0.2-0.4-0.2-0.7c0-0.9,0.7-1.6,1.6-1.6c0.9,0,1.6,0.7,1.6,1.6c0,0.6-0.3,1.1-0.8,1.3c0.7,0.6,1.1,1.3,1.1,2.3
					c0,0.1-0.1,0.2-0.1,0.4c0.3-0.2,0.7-0.4,1.2-0.4c0.8,0,1.4,0.4,1.8,1c0.9-1.5,2.5-2.6,4.4-2.6c0.3,0,0.5,0.1,0.8,0.2
					c-0.1-0.3-0.2-0.5-0.2-0.8c0-1.7,1.3-3,3-3c0.6,0,1.2,0.2,1.6,0.5c0.4-0.4,0.9-0.6,1.5-0.6c1.2,0,2.2,1,2.2,2.2
					c0,1.2-1,2.2-2.2,2.2c-0.2,0-0.3-0.1-0.5-0.1c-0.4,0.8-1.2,1.4-2.2,1.5c0.6,0.8,1,1.7,1,2.8c0,2.8-2.3,5.1-5.1,5.1
					c-0.8,0-1.6-0.3-2.3-0.6c-0.3,0.8-0.9,1.4-1.7,1.8c0.3,0.3,0.5,0.7,0.5,1.1c0,0.9-0.7,1.6-1.6,1.6c-0.9,0-1.6-0.7-1.6-1.6
					c0-0.3,0.1-0.6,0.3-0.9c-0.4-0.1-0.7-0.2-1-0.4c-0.9,1.3-2.3,2.1-4,2.1c-1.8,0-3.3-1-4.2-2.4c-0.3,0.3-0.7,0.5-1.2,0.6
					c1.7,0.8,2.9,2.5,2.9,4.5c0,1.1-0.4,2-1,2.9c1.1,0.1,2,1,2,2.2c0,0,0,0.1,0,0.1c1.2,0.4,2,1.5,2,2.8c0,1.7-1.3,3-3,3
					c-1.2,0-2.2-0.7-2.7-1.7c-0.2,0.2-0.4,0.3-0.6,0.4c0.5,0.4,0.8,1,0.8,1.7c0,0.8-0.4,1.5-1.1,1.9c0.8,0.6,1.3,1.6,1.3,2.7
					c0,1.9-1.6,3.5-3.5,3.5c-1.9,0-3.5-1.6-3.5-3.5c0-0.2,0.1-0.4,0.1-0.5c0,0-0.1,0-0.1,0c-1.9,0-3.5-1.6-3.5-3.5
					C686.6,480,688.1,478.4,690.1,478.4z"/>
				<path class="st22" d="M738.4,448.1c1.3,0,2.4,0.9,2.8,2.1c0.1-0.1,0.3-0.2,0.4-0.3c-0.2-0.3-0.3-0.7-0.3-1.1
					c0-1.2,1-2.3,2.2-2.3c1.2,0,2.2,1,2.2,2.3c0,0.4-0.1,0.8-0.3,1.1c0.8,0.6,1.4,1.5,1.4,2.6c0,0.3-0.1,0.5-0.2,0.8
					c0.1,0,0.1,0,0.2,0c1.2,0,2.2,1,2.2,2.2c0,0.1-0.1,0.3-0.1,0.4c0.7,0.1,1.3,0.7,1.3,1.5c0,0.9-0.7,1.6-1.6,1.6
					c-0.8,0-1.4-0.6-1.5-1.3c-0.1,0-0.2,0.1-0.4,0.1c-0.4,0-0.7-0.1-1-0.2c-0.3,0.8-1.1,1.5-2.1,1.5c-1.2,0-2.3-1-2.3-2.3
					c0-0.5,0.2-1,0.5-1.4c-0.8-0.4-1.4-1.2-1.6-2.1c-0.5,0.5-1.2,0.8-2,0.8c-1.7,0-3-1.3-3-3C735.4,449.4,736.7,448.1,738.4,448.1z"
					/>
				<path class="st22" d="M722.3,447.5c0-2.8,2.3-5.1,5.1-5.1c1.3,0,2.5,0.5,3.4,1.3c0.6-0.8,1.6-1.3,2.7-1.3c1.9,0,3.5,1.6,3.5,3.5
					c0,1.9-1.6,3.5-3.5,3.5c-0.5,0-0.9-0.1-1.3-0.3c-0.3,0.8-0.8,1.5-1.4,2c0.3,0.4,0.5,0.8,0.5,1.3c0,1.2-1,2.2-2.3,2.2
					s-2.2-1-2.2-2.2c0,0,0-0.1,0-0.1C724.3,452.1,722.3,450.1,722.3,447.5z"/>
				<circle class="st22" cx="746.8" cy="460.6" r="1.6"/>
				<circle class="st22" cx="717.8" cy="444" r="1.6"/>
				<circle class="st22" cx="689.2" cy="476.4" r="1.6"/>
				<path class="st22" d="M690.1,464.8c-0.9,0-1.6-0.7-1.6-1.6c0-0.9,0.7-1.6,1.6-1.6c0.9,0,1.6,0.7,1.6,1.6
					C691.6,464.1,690.9,464.8,690.1,464.8z"/>
				<path class="st22" d="M739.5,446.6c-0.9,0-1.6-0.7-1.6-1.6s0.7-1.6,1.6-1.6c0.9,0,1.6,0.7,1.6,1.6S740.3,446.6,739.5,446.6z"/>
				<circle class="st22" cx="704.2" cy="470.5" r="2.2"/>
				<circle class="st22" cx="709.4" cy="449.8" r="2.2"/>
				<path class="st22" d="M696.1,458.2c-1.2,0-2.2-1-2.2-2.2s1-2.3,2.2-2.3c1.2,0,2.3,1,2.3,2.3S697.4,458.2,696.1,458.2z"/>
			</g>
			<path class="st20" d="M733.7,495.5c-11.7-16.2-32.9-8.8-43.1,5c-13.1,17.7-18.3,53.6-17.2,90.6c0.4-1.2,1.2-2.7,1.6-3.9
				c1.3-27.7,4.1-55.7,10.8-71.2c3.9-9,9.1-18.4,17.8-23.7c9.3-5.7,22.5-5.3,29.7,3.5C733.5,496.1,733.9,495.8,733.7,495.5z"/>
			<g>
				<path class="st22" d="M679.7,519.8c1.2,0,2.2,0.6,2.8,1.5c0.1-0.1,0.1-0.1,0.2-0.2c-0.9-0.5-1.5-1.4-1.5-2.6
					c0-1,0.6-1.9,1.3-2.4c-2.1-0.6-3.7-2.5-3.7-4.8c0-2.8,2.3-5.1,5.1-5.1c0.1,0,0.3,0.1,0.4,0.1c-0.5-0.4-0.8-1-0.8-1.7
					c0-1.2,1-2.2,2.2-2.2c0.3,0,0.6,0.1,0.9,0.2c0.4-1.9,1.8-3.4,3.6-3.8c-0.4-0.5-0.6-1.1-0.6-1.8c0-1.6,1.2-2.8,2.7-2.9
					c-0.1-0.2-0.2-0.4-0.2-0.7c0-0.9,0.7-1.6,1.6-1.6c0.9,0,1.6,0.7,1.6,1.6c0,0.6-0.3,1.1-0.8,1.3c0.7,0.6,1.1,1.3,1.1,2.3
					c0,0.1-0.1,0.2-0.1,0.4c0.3-0.2,0.7-0.4,1.2-0.4c0.8,0,1.4,0.4,1.8,1c0.9-1.5,2.5-2.6,4.4-2.6c0.3,0,0.5,0.1,0.8,0.2
					c-0.1-0.3-0.2-0.5-0.2-0.8c0-1.7,1.3-3,3-3c0.6,0,1.2,0.2,1.6,0.5c0.4-0.4,0.9-0.6,1.5-0.6c1.2,0,2.2,1,2.2,2.2
					c0,1.2-1,2.2-2.2,2.2c-0.2,0-0.3-0.1-0.5-0.1c-0.4,0.8-1.2,1.4-2.2,1.5c0.6,0.8,1,1.7,1,2.8c0,2.8-2.3,5.1-5.1,5.1
					c-0.8,0-1.6-0.3-2.3-0.6c-0.3,0.8-0.9,1.4-1.7,1.8c0.3,0.3,0.5,0.7,0.5,1.1c0,0.9-0.7,1.6-1.6,1.6c-0.9,0-1.6-0.7-1.6-1.6
					c0-0.3,0.1-0.6,0.3-0.9c-0.4-0.1-0.7-0.2-1-0.4c-0.9,1.3-2.3,2.1-4,2.1c-1.8,0-3.3-1-4.2-2.4c-0.3,0.3-0.7,0.5-1.2,0.6
					c1.7,0.8,2.9,2.5,2.9,4.5c0,1.1-0.4,2-1,2.9c1.1,0.1,2,1,2,2.2c0,0,0,0.1,0,0.1c1.2,0.4,2,1.5,2,2.8c0,1.7-1.3,3-3,3
					c-1.2,0-2.2-0.7-2.7-1.7c-0.2,0.2-0.4,0.3-0.6,0.4c0.5,0.4,0.8,1,0.8,1.7c0,0.8-0.4,1.5-1.1,1.9c0.8,0.6,1.3,1.6,1.3,2.7
					c0,1.9-1.6,3.5-3.5,3.5c-1.9,0-3.5-1.6-3.5-3.5c0-0.2,0.1-0.4,0.1-0.5c0,0-0.1,0-0.1,0c-1.9,0-3.5-1.6-3.5-3.5
					C676.2,521.3,677.8,519.8,679.7,519.8z"/>
				<path class="st22" d="M728,489.4c1.3,0,2.4,0.9,2.8,2.1c0.1-0.1,0.3-0.2,0.4-0.3c-0.2-0.3-0.3-0.7-0.3-1.1c0-1.2,1-2.2,2.2-2.2
					c1.2,0,2.2,1,2.2,2.2c0,0.4-0.1,0.8-0.3,1.1c0.8,0.6,1.4,1.5,1.4,2.6c0,0.3-0.1,0.5-0.2,0.8c0.1,0,0.1,0,0.2,0
					c1.2,0,2.2,1,2.2,2.2c0,0.1-0.1,0.3-0.1,0.4c0.7,0.1,1.3,0.7,1.3,1.5c0,0.9-0.7,1.6-1.6,1.6c-0.8,0-1.4-0.6-1.5-1.3
					c-0.1,0-0.2,0.1-0.4,0.1c-0.4,0-0.7-0.1-1-0.2c-0.3,0.8-1.1,1.5-2.1,1.5c-1.2,0-2.2-1-2.2-2.2c0-0.5,0.2-1,0.5-1.4
					c-0.8-0.4-1.4-1.2-1.6-2.1c-0.5,0.5-1.2,0.8-2,0.8c-1.7,0-3-1.3-3-3C725,490.8,726.4,489.4,728,489.4z"/>
				<path class="st22" d="M712,488.9c0-2.8,2.3-5.1,5.1-5.1c1.3,0,2.5,0.5,3.4,1.3c0.6-0.8,1.6-1.3,2.7-1.3c1.9,0,3.5,1.6,3.5,3.5
					c0,1.9-1.6,3.5-3.5,3.5c-0.5,0-0.9-0.1-1.3-0.3c-0.3,0.8-0.8,1.5-1.4,2c0.3,0.4,0.5,0.8,0.5,1.3c0,1.2-1,2.2-2.2,2.2
					s-2.2-1-2.2-2.2c0,0,0-0.1,0-0.1C713.9,493.5,712,491.4,712,488.9z"/>
				<circle class="st22" cx="736.4" cy="502" r="1.6"/>
				<circle class="st22" cx="707.5" cy="485.3" r="1.6"/>
				<circle class="st22" cx="678.8" cy="517.8" r="1.6"/>
				<circle class="st22" cx="679.7" cy="504.6" r="1.6"/>
				<path class="st22" d="M729.1,487.9c-0.9,0-1.6-0.7-1.6-1.6s0.7-1.6,1.6-1.6c0.9,0,1.6,0.7,1.6,1.6S730,487.9,729.1,487.9z"/>
				<circle class="st22" cx="693.8" cy="511.9" r="2.2"/>
				<circle class="st22" cx="699" cy="491.1" r="2.2"/>
				<circle class="st22" cx="685.8" cy="497.3" r="2.2"/>
			</g>
			<path class="st20" d="M658,590.5c-0.5-25-5.5-37.3-17.1-52.9c-10.2-13.8-31.4-21.1-43.1-5c-0.2,0.3,0.2,0.6,0.5,0.3
				c7.2-8.8,20.3-9.2,29.7-3.5c8.7,5.3,13.9,14.6,17.8,23.7c5,11.6,7.6,20.9,9.3,33.3C656.3,587.5,657.3,589,658,590.5z"/>
			<g>
				<path class="st22" d="M651.9,556.9c-1.2,0-2.2,0.6-2.8,1.5c-0.1-0.1-0.1-0.1-0.2-0.2c0.9-0.5,1.5-1.4,1.5-2.6
					c0-1-0.6-1.9-1.3-2.4c2.1-0.6,3.7-2.5,3.7-4.8c0-2.8-2.3-5.1-5.1-5.1c-0.1,0-0.3,0.1-0.4,0.1c0.5-0.4,0.8-1,0.8-1.7
					c0-1.2-1-2.2-2.2-2.2c-0.3,0-0.6,0.1-0.9,0.2c-0.4-1.9-1.8-3.4-3.6-3.8c0.4-0.5,0.6-1.1,0.6-1.8c0-1.6-1.2-2.8-2.7-2.9
					c0.1-0.2,0.2-0.4,0.2-0.7c0-0.9-0.7-1.6-1.6-1.6c-0.9,0-1.6,0.7-1.6,1.6c0,0.6,0.3,1.1,0.8,1.3c-0.7,0.6-1.1,1.3-1.1,2.3
					c0,0.1,0.1,0.2,0.1,0.4c-0.3-0.2-0.7-0.4-1.2-0.4c-0.8,0-1.4,0.4-1.8,1c-0.9-1.5-2.5-2.6-4.4-2.6c-0.3,0-0.5,0.1-0.8,0.2
					c0.1-0.3,0.2-0.5,0.2-0.8c0-1.7-1.3-3-3-3c-0.6,0-1.2,0.2-1.6,0.5c-0.4-0.3-0.9-0.6-1.5-0.6c-1.2,0-2.2,1-2.2,2.2
					c0,1.2,1,2.2,2.2,2.2c0.2,0,0.3-0.1,0.5-0.1c0.4,0.8,1.2,1.4,2.2,1.5c-0.6,0.8-1,1.7-1,2.8c0,2.8,2.3,5.1,5.1,5.1
					c0.8,0,1.6-0.3,2.3-0.6c0.3,0.8,0.9,1.4,1.7,1.8c-0.3,0.3-0.5,0.7-0.5,1.1c0,0.9,0.7,1.6,1.6,1.6c0.9,0,1.6-0.7,1.6-1.6
					c0-0.3-0.1-0.6-0.3-0.9c0.4-0.1,0.7-0.2,1-0.4c0.9,1.3,2.3,2.1,4,2.1c1.8,0,3.3-1,4.2-2.4c0.3,0.3,0.7,0.5,1.2,0.6
					c-1.7,0.8-2.9,2.5-2.9,4.5c0,1.1,0.4,2,1,2.9c-1.1,0.1-2,1-2,2.2c0,0.1,0,0.1,0,0.1c-1.2,0.4-2,1.5-2,2.8c0,1.7,1.3,3,3,3
					c1.2,0,2.2-0.7,2.7-1.7c0.2,0.2,0.4,0.3,0.6,0.4c-0.5,0.4-0.8,1-0.8,1.7c0,0.8,0.4,1.5,1.1,1.9c-0.8,0.6-1.3,1.6-1.3,2.7
					c0,1.9,1.6,3.5,3.5,3.5c1.9,0,3.5-1.6,3.5-3.5c0-0.2-0.1-0.4-0.1-0.5c0,0,0.1,0,0.1,0c1.9,0,3.5-1.6,3.5-3.5
					C655.4,558.5,653.8,556.9,651.9,556.9z"/>
				<path class="st22" d="M603.5,526.6c-1.3,0-2.4,0.9-2.8,2.1c-0.1-0.1-0.3-0.2-0.4-0.3c0.2-0.3,0.3-0.7,0.3-1.1
					c0-1.2-1-2.2-2.3-2.2c-1.2,0-2.2,1-2.2,2.2c0,0.4,0.1,0.8,0.3,1.1c-0.8,0.6-1.4,1.5-1.4,2.6c0,0.3,0.1,0.5,0.2,0.8
					c-0.1,0-0.1,0-0.2,0c-1.2,0-2.3,1-2.3,2.2c0,0.1,0.1,0.3,0.1,0.4c-0.7,0.1-1.3,0.7-1.3,1.5c0,0.9,0.7,1.6,1.6,1.6
					c0.8,0,1.4-0.6,1.5-1.3c0.1,0,0.2,0.1,0.4,0.1c0.4,0,0.7-0.1,1-0.2c0.3,0.8,1.1,1.5,2.1,1.5c1.2,0,2.2-1,2.2-2.2
					c0-0.5-0.2-1-0.5-1.4c0.8-0.4,1.4-1.2,1.6-2.1c0.5,0.5,1.2,0.8,2,0.8c1.7,0,3-1.3,3-3C606.5,527.9,605.2,526.6,603.5,526.6z"/>
				<path class="st22" d="M619.6,526c0-2.8-2.3-5.1-5.1-5.1c-1.3,0-2.5,0.5-3.4,1.3c-0.6-0.8-1.6-1.3-2.7-1.3
					c-1.9,0-3.5,1.6-3.5,3.5s1.6,3.5,3.5,3.5c0.5,0,0.9-0.1,1.3-0.3c0.3,0.8,0.8,1.5,1.4,2c-0.3,0.4-0.5,0.8-0.5,1.3
					c0,1.2,1,2.2,2.2,2.2s2.2-1,2.2-2.2c0,0,0-0.1,0-0.1C617.7,530.6,619.6,528.6,619.6,526z"/>
				<circle class="st22" cx="595.1" cy="539.1" r="1.6"/>
				<path class="st22" d="M624.1,524c0.9,0,1.6-0.7,1.6-1.6c0-0.9-0.7-1.6-1.6-1.6c-0.9,0-1.6,0.7-1.6,1.6
					C622.5,523.3,623.2,524,624.1,524z"/>
				<circle class="st22" cx="652.7" cy="554.9" r="1.6"/>
				<circle class="st22" cx="651.9" cy="541.7" r="1.6"/>
				<path class="st22" d="M602.5,525c0.9,0,1.6-0.7,1.6-1.6c0-0.9-0.7-1.6-1.6-1.6c-0.9,0-1.6,0.7-1.6,1.6
					C600.9,524.3,601.6,525,602.5,525z"/>
				<path class="st22" d="M637.8,546.8c-1.2,0-2.2,1-2.2,2.3s1,2.2,2.2,2.2s2.2-1,2.2-2.2S639,546.8,637.8,546.8z"/>
				<path class="st22" d="M632.6,530.5c1.2,0,2.2-1,2.2-2.2s-1-2.2-2.2-2.2c-1.2,0-2.2,1-2.2,2.2S631.3,530.5,632.6,530.5z"/>
				<path class="st22" d="M645.8,536.7c1.2,0,2.2-1,2.2-2.2c0-1.2-1-2.2-2.2-2.2s-2.2,1-2.2,2.2
					C643.6,535.7,644.6,536.7,645.8,536.7z"/>
			</g>
		</g>
		<path class="st23" d="M638.6,623.9c-1.2-8.7-4.6-17.4-14.9-17.4c-10.9,0-15.2,10.6-17.3,19.2c-2.1,8.5-1.9,19.4-0.8,22.1
			c0.6-1.9,1.2-24.9,10.4-31.7c7.3-5.4,14.2-2.9,16.2,2.8c2.8,8.2,1.3,24.2,1.3,24.2l4.9,2.5C638.3,645.4,640.3,636.6,638.6,623.9z"
			/>
		<path class="st24" d="M620.4,604.6c0,0,5.4-8.4,18.9-5.9c13.5,2.5,15.2,15.7,15.8,22.1c0.7,6.4-1.5,16.3-1.5,16.3l-2.1-2.1
			c0,0,0-12.4-2.2-20.6c-2.1-7.5-4.9-10.7-12.8-12.2C627.5,600.4,620.4,604.6,620.4,604.6z"/>
		<path class="st24" d="M736,589.4c0,0-5.4-8.4-18.9-5.9s-15.2,15.7-15.8,22.1c-0.7,6.4,1.5,16.3,1.5,16.3l2.1-2.1
			c0,0,0-12.4,2.2-20.6c2.1-7.5,4.9-10.7,12.8-12.2C728.8,585.2,736,589.4,736,589.4z"/>
		<path class="st23" d="M652.9,630.4c-1.2-8.7-4.6-17.4-14.9-17.4c-10.9,0-15.2,10.6-17.3,19.2c-2.1,8.5-1.9,19.4-0.8,22.1
			c0.6-1.9,1.2-24.9,10.4-31.7c7.3-5.4,14.2-2.9,16.2,2.8c2.8,8.2,2,24.1,2,24.1l5.1,1.4C653.6,650.8,654.6,643.2,652.9,630.4z"/>
		<path class="st23" d="M685.5,617.3c12.9-1.1,16.3,8.4,18.4,16.9c2.1,8.5-0.4,26.7-1,24.8c-0.6-1.9-1-30.1-9-34.5
			c-7.9-4.4-11.2-0.4-14.4,4.8c-5.3,8.5-4.9,24.6-4.9,24.6l-5.7-0.4C668.9,653.5,668.9,618.8,685.5,617.3z"/>
		<path class="st23" d="M708.9,617.3c12.9-1.1,16.3,8.4,18.4,16.9c2.1,8.5-0.4,26.7-1,24.8c-0.6-1.9-1-30.1-9-34.5
			c-7.9-4.4-11.2-0.4-14.4,4.8c-5.3,8.5-5.2,24.4-5.2,24.4l-5.5,0.5C692.3,654.3,692.3,618.8,708.9,617.3z"/>
		<path class="st23" d="M610.6,597.1c0,0,4.7-16.4,23.6-12.1c14.3,3.2,18.6,19.9,18.6,19.9s-9.3-13.4-17.6-15.1
			C624.1,587.5,614.9,591.4,610.6,597.1z"/>
		<path class="st23" d="M656,651.4c0,0,0.3-27.8,7.3-44.3c6-14.3,21.4-8.2,25.9,2c4.5,10.2-0.4,24.6-0.4,24.6s1.5-17.7-4-24.6
			c-4.5-5.6-11.8-8.6-16.1-2.6c-4.3,6-6.5,19.9-7.3,28.9c-0.5,5.3-0.7,17-0.7,17L656,651.4z"/>
		<path class="st23" d="M714.1,650.7c0,0-4.2-31.5,3.6-47.5c6.2-12.8,23.5-10.2,28,0c4.5,10.2,3,20.7,3,20.7s-2.2-18.2-7.7-22.1
			c-5.8-4.1-12.6-3.6-16.9,2.4c-4.3,6-4.8,20.8-4.8,28.5c0,5.3,1.4,15.6,1.4,15.6L714.1,650.7z"/>
		<path class="st23" d="M712.8,598.7c0,0,2.9-16.9,21.1-20.9c18.2-4,26.5,4.9,26.5,4.9s-13.7-5.4-24.6-1.7
			C718.9,586.5,712.8,598.7,712.8,598.7z"/>
		<path class="st23" d="M622.9,561.9c0,0,17.6-6.8,31,5.7c9.5,8.9,12.2,30,12.2,30s1.6-16.8-6.8-30
			C650.9,554.3,629.7,556.4,622.9,561.9z"/>
		<path class="st23" d="M628.8,575.5c0,0,15.7-4.1,23.9,9.1c7.6,12.2,7.8,38,7.8,38l2.8-10.7c0,0,0.1-24-11.4-34.4
			C640.4,567.1,628.8,575.5,628.8,575.5z"/>
		<path class="st23" d="M692.9,620.8c0,0-3.9-39.3,7.5-51.2c11.4-11.9,22.8-4.1,22.8-4.1s-9.3-5.8-20.8,7.6
			c-6.1,7.1-5.4,49.5-5.4,49.5L692.9,620.8z"/>
		<path class="st23" d="M673,601.5c0,0-4.1-30.7,7.1-44.2c9-10.8,18.9-11.5,18.9-11.5s-9.1,6.1-13.8,13.5c-9.8,15.4-8.2,42-8.2,42
			L673,601.5z"/>
		<path class="st23" d="M707.7,581.7c0.2-1.7,2.4-16.4,16.2-22.1c13.7-5.7,21.8,5.9,21.8,5.9s-11.7-5.9-21.1-1.7
			C713,569,707.7,581.7,707.7,581.7z"/>
		<path class="st23" d="M713.4,536.3c0,0-7.5,1-12.3,11.7c-4.7,10.7-2,26.2-2,26.2s1-19.3,5.5-26.9
			C708.9,539.7,713.4,536.3,713.4,536.3z"/>
		<path class="st24" d="M688.1,591.6c0,0-7.3,2-14.6,13.2c-11.8,17.8-10.1,48-10.1,48l3.7,0.5c0,0-0.8-20.2,6.5-38
			C679.2,601.3,688.1,591.6,688.1,591.6z"/>
		<path class="st24" d="M661.1,534.2c0,0,9.6,4.3,13.7,13.4c4.1,9,4.6,16.3,4.6,16.3s-3.3-8-7.2-15.1
			C668.2,541.6,661.1,534.2,661.1,534.2z"/>
		<path class="st24" d="M722.8,618.2c0,0,7.2-7.8,18.6-10.5c11.4-2.7,16,0.8,16,0.8s-5.1-6.3-15.5-5.2
			C731.5,604.4,722.8,618.2,722.8,618.2z"/>
	</g>
</g>
<g>
	<path class="st25" d="M930.1,661.9c-0.9-0.6-1.8-1.3-2.7-2.2c-6.2-6.7-16.4-3.4-21.7,2.1c-7.4,7.7-11.5,17.6-15.8,27.2
		c0.5,5.3,1.1,10.3,1.1,10.3c1.3-8.4,16.6-39.8,22.9-41.2c9.4-2.1,14.8,4.6,13.2,15.9c-0.3,2.1-0.7,4.2-1.2,6.2
		c-6.9,25-31.4,44.6-31.4,44.6l1.8,16.4c0,0,14.1-13.5,23.1-26.1c8.3-11.6,20.2-35.3,11.3-52.4C930.5,662.5,930.3,662.2,930.1,661.9
		z"/>
	<g class="st26">
		<path class="st27" d="M929.1,663.9c-0.2-0.3-0.3-0.6-0.5-0.8c-0.7-0.4-1.4-1-2.1-1.6c7,16.9-4.3,39.2-12.2,50.3
			c-6.5,9.2-15.9,18.9-20.4,23.4l0.8,7.2c0,0,14.1-13.5,23.1-26.1C926,704.7,937.9,681,929.1,663.9z"/>
	</g>
	<path class="st28" d="M899.3,721.4c-2.4,2.3-4,3.6-4,3.6l1.4,13.3c0,0,3.8-3.6,8.4-8.6C903.2,726.9,900.8,724.3,899.3,721.4z"/>
	<path class="st29" d="M927,674c-0.3,1.8-0.6,3.5-1,5.2c3.3,1.1,5.5,3.5,6.7,6.4c1.6-7.9,1.5-15.9-2.1-22.9
		c-0.2-0.3-0.3-0.6-0.5-0.8c-0.9-0.6-1.8-1.3-2.7-2.2c-1-1.1-2.1-1.9-3.3-2.5c0,0.6-5.9-0.6-6,0c-0.1,0.2,3.9,1.2,5.4,2.7
		C926.6,662.6,928,667.5,927,674z"/>
	<path class="st30" d="M931.9,665.5c-3.7-9.7-10.5-12.7-17.1-12.6c-6.1,0.1-14.1,5.1-17.5,10.3c-2.2,3.3-8.6,13.5-8.6,13.9
		c0,0,2.3,22.3,2.3,22.3c1.1-6.9,13-27.7,20-36.1c2.1-2.5,5.1-4.4,8.4-4.8C925.2,657.8,929.6,661.3,931.9,665.5z"/>
	<g>
		<path class="st31" d="M914.8,652.9c-6.1,0.1-14.1,5.1-17.5,10.3c-2.2,3.3-8.6,13.5-8.6,13.9c0,0,0.2,2.2,0.5,5.3h2.7
			c0-0.1-1.1,9.5-1.1,9.5c0-0.3,8.4-17,10.6-20.5c6.6-10.5,11.4-14.2,17.8-14.3c3.5,0,6.9,1.3,10,3.3
			C925.5,654.7,920.1,652.8,914.8,652.9z"/>
		<path class="st31" d="M931.5,664.9c0.1,0.2,0.3,0.4,0.4,0.6c-0.1-0.2-0.1-0.3-0.2-0.5C931.6,664.9,931.6,664.9,931.5,664.9z"/>
	</g>
	<path class="st28" d="M893.7,683.2c1.2-2.3,2.6-5.4,4.4-7.7c-1-2-2.4-3.8-4.3-4.9c-1.9,3-4,6.5-4,6.6c0,0,0.7,6.6,1.2,11.5
		C891.8,686.8,892.7,685,893.7,683.2z"/>
	<g class="st26">
		<path class="st32" d="M913.7,655.1c-5.1,0.1-11.8,4.2-14.6,8.6c-0.5,0.8-1.3,2-2.1,3.3c1,0.7,2,1.7,2.7,2.9
			c0.2,0.3,0.4,0.6,0.6,0.9c0.4-0.6,0.7-1.2,1-1.6c9-14.8,17.5-12.9,18.1-12.9C917.1,655,916.1,655.1,913.7,655.1z"/>
	</g>
	<path class="st33" d="M837.4,654.6c0,0,5-34.3,14.9-39.7l4-1.2l-5.1-1.5l-5.2,0.8l-2,1c0,0-13.4,11.1-16.7,41.8L837.4,654.6z"/>
	<path class="st29" d="M827.9,649.7c-0.3,1.9-0.6,3.9-0.8,6.1l10.2-1.2c0,0,0.3-2.1,0.9-5.3C834.3,648.8,831.7,648.8,827.9,649.7z"
		/>
	<path class="st29" d="M851.1,612.2l-5.2,0.8l-2,1c0,0-3.9,3.3-8,11.1c0.2-0.1,0.4-0.2,0.6-0.3c2.8-1.1,5.9-0.7,8.5,0.6
		c2-4.9,4.5-8.9,7.3-10.4l4-1.2L851.1,612.2z"/>
	<linearGradient id="SVGID_3_" gradientUnits="userSpaceOnUse" x1="862.3898" y1="661.8658" x2="847.7758" y2="789.1616">
		<stop  offset="8.021390e-02" style="stop-color:#D2E0E6"/>
		<stop  offset="0.5027" style="stop-color:#CFD4D4"/>
		<stop  offset="1" style="stop-color:#AFC0CC"/>
	</linearGradient>
	<path class="st34" d="M817.9,659.4l-22.6,114.9c0,0,27.8,21.9,64.4,15.6c36.6-6.3,44.1-15.3,44.1-15.3l-15-116.5
		c0,0-7.6-7.7-36.3-7.7C828.3,650.4,817.9,659.4,817.9,659.4z"/>
	<linearGradient id="SVGID_4_" gradientUnits="userSpaceOnUse" x1="860.8752" y1="667.9079" x2="847.1746" y2="787.2471">
		<stop  offset="8.021390e-02" style="stop-color:#D2E0E6"/>
		<stop  offset="0.5027" style="stop-color:#CFD4D4"/>
		<stop  offset="1" style="stop-color:#AFC0CC"/>
	</linearGradient>
	<path class="st35" d="M845.5,748.6c-15.5-2.4-28.1-9.5-39.3-19.7l-8.9,44.4c0,0,26.4,20.5,61.1,14.6c34.7-5.9,41.8-14.3,41.8-14.3
		l-5.6-42.5C889.1,741.6,863.5,751.3,845.5,748.6z"/>
	<path class="st36" d="M852.3,650.4c-24.1,0-34.5,9-34.5,9l-0.8,3.9c12.5,9,28.7,9.3,36,9.3c13.9,0,28.2-5.1,36-10.7l-0.5-3.9
		C888.7,658.1,881,650.4,852.3,650.4z"/>
	<linearGradient id="SVGID_5_" gradientUnits="userSpaceOnUse" x1="826.8676" y1="657.7878" x2="812.2536" y2="785.0833">
		<stop  offset="8.021390e-02" style="stop-color:#D2E0E6"/>
		<stop  offset="0.5027" style="stop-color:#CFD4D4"/>
		<stop  offset="1" style="stop-color:#AFC0CC"/>
	</linearGradient>
	<path class="st37" d="M827.1,719.6c1.1-4.9,1.4-14-3.2-17.5c-1-0.8-6.9,1.5-9.8,2.6c0.6,3.5,1.2,7,2.7,10.4
		C818.1,718.2,824.9,729.5,827.1,719.6z"/>
	<linearGradient id="SVGID_6_" gradientUnits="userSpaceOnUse" x1="830.9139" y1="658.2538" x2="816.3" y2="785.5482">
		<stop  offset="8.021390e-02" style="stop-color:#D2E0E6"/>
		<stop  offset="0.5027" style="stop-color:#CFD4D4"/>
		<stop  offset="1" style="stop-color:#AFC0CC"/>
	</linearGradient>
	<path class="st38" d="M830.4,774.1c-4.3-9.1-8.6-18.4-12.3-27.7c-0.9,0.2-1.8,0.4-2.8,0.6c-1.8,3.8-4.5,6.9-9.1,9.4
		c-2.7,1.5-5.5,2.9-8.3,4.3l-2.7,13.6c0,0,17.4,13.7,42.8,16.3C836.1,784.8,832.8,779.2,830.4,774.1z"/>
	<linearGradient id="SVGID_7_" gradientUnits="userSpaceOnUse" x1="806.8513" y1="705.3479" x2="871.7486" y2="767.0724">
		<stop  offset="9.625670e-02" style="stop-color:#48616E"/>
		<stop  offset="0.4973" style="stop-color:#84959D"/>
		<stop  offset="1" style="stop-color:#86969F"/>
	</linearGradient>
	<path class="st39" d="M828.8,653.9c-0.7,4.5-21.1,118.8-23.4,126.7c2.5,1.3,5.3,2.7,8.5,4c3.3-25.4,12.3-114.4,18.3-131.7
		C831,653.2,829.9,653.5,828.8,653.9z"/>
	<path class="st40" d="M812.8,743.1c-3.6,19.3-6.5,34.8-7.3,37.6c2.5,1.3,5.3,2.7,8.5,4c1.1-8.4,2.8-24,4.8-41.5H812.8z"/>
	<linearGradient id="SVGID_8_" gradientUnits="userSpaceOnUse" x1="835.3079" y1="675.4266" x2="900.2064" y2="737.1521">
		<stop  offset="9.625670e-02" style="stop-color:#48616E"/>
		<stop  offset="0.4973" style="stop-color:#84959D"/>
		<stop  offset="1" style="stop-color:#86969F"/>
	</linearGradient>
	<path class="st41" d="M878.1,655.9c-2.2,0.3-2.2,0.3-4.4,0.7c1,8.5,11.9,125.9,12.1,127.1c3.5-1.2,6.4-2.3,8.7-3.3
		C891.9,772,878.1,655.9,878.1,655.9z"/>
	<linearGradient id="SVGID_9_" gradientUnits="userSpaceOnUse" x1="860.5744" y1="677.4476" x2="854.8057" y2="764.7471">
		<stop  offset="9.625670e-02" style="stop-color:#48616E"/>
		<stop  offset="0.4973" style="stop-color:#84959D"/>
		<stop  offset="1" style="stop-color:#86969F"/>
	</linearGradient>
	<path class="st42" d="M860.2,665.3c-0.2-2.1-0.3-4.2-0.5-6.2c-3.1,0.6-6.4,0.9-9.6,1c-0.3,0-0.7,0-1,0c-0.2,2.7-0.4,5.4-0.7,8.1
		c-1.3,13.5-6.5,97.9-11.1,122.4c6.9,0.8,14.3,0.7,22.2-0.7c3.4-0.6,6.5-1.2,9.3-1.8C868.8,778.7,861.1,696.9,860.2,665.3z"/>
	<path class="st43" d="M854.2,671.4c11.8,0,25.7-3.3,34.8-11.2l-0.3-2.1c0,0-7.6-7.7-36.3-7.7c-24.1,0-34.5,9-34.5,9l-0.4,1.9
		C828.6,669.3,838.9,671.4,854.2,671.4z"/>
	<path class="st44" d="M856.8,650.4c-2.4,1.4-5.1,2.1-8.1,2.9c-8.6,2.4-3.6,9.9,1.2,12.5c1.4,0.8,2.8,1.3,4.2,1.8
		c2,0.6,4,1.1,6.1,1.7c0.2,0.1,0.4,0.2,0.5,0.3c15.1-1.4,23.5-7,28-11.5C888.4,657.8,881.3,651.2,856.8,650.4z"/>
	<path class="st45" d="M846.4,662.1c-6.7-6.4,6-9.3,15.6-11.4c-2.9-0.2-6.1-0.3-9.7-0.3c-24.1,0-34.5,9-34.5,9l0,0.1
		c6.1,4.7,17.7,10.8,36.8,10.4c6.4-0.1,11.8-1,16.3-2.2C864.6,667.4,852,667.4,846.4,662.1z"/>
	<path class="st46" d="M881.5,669.9c0,0-1-31.3-14.3-50.7c-3.7-5.5-10.2-8.4-16.8-7.4c-2.5,0.4-4.9,1.1-6.6,2.2c0,0,8.8-2,13.8,3
		c5,5,14.9,32.7,15.3,52.9C873,669.9,878.6,667.7,881.5,669.9z"/>
	<path class="st47" d="M873.5,666.4c0.1,1,0.1,2.1,0.2,3.1c0,0,4.7-1.9,7.1,0c0,0,0-1.1-0.2-3.1
		C878.6,665.4,875.3,665.1,873.5,666.4z"/>
	<path class="st48" d="M884.9,676c0,4.4-3.7,8-8.3,8c-4.6,0-8.3-3.6-8.3-8c0-4.4,3.7-8,8.3-8C881.2,668,884.9,671.6,884.9,676z"/>
	<path class="st49" d="M884.9,674.9c0,4.1-3.5,7.4-7.7,7.4c-4.3,0-7.7-3.3-7.7-7.4s3.5-7.4,7.7-7.4
		C881.5,667.4,884.9,670.8,884.9,674.9z"/>
	<path class="st50" d="M881.5,674.9c0,2.3-1.9,4.1-4.3,4.1c-2.3,0-4.3-1.8-4.3-4.1c0-2.3,1.9-4.1,4.3-4.1
		C879.6,670.8,881.5,672.6,881.5,674.9z"/>
	<path class="st51" d="M877.2,670.8c-1.1,0-2.1,0.4-2.9,1.1c0.7-0.4,1.5-0.7,2.3-0.7c2.4,0,4.3,1.8,4.3,4.1c0,1.2-0.5,2.2-1.4,3
		c1.1-0.7,1.9-2,1.9-3.4C881.5,672.6,879.6,670.8,877.2,670.8z"/>
	<path class="st52" d="M789.8,708.6l30-9.4c0,0,4-0.8,5.6,2.3c1.5,3.1-0.8,5.3-0.8,5.3l-32.3,7L789.8,708.6z"/>
	<path class="st53" d="M793.5,710.9l0.8,1.7l29.5-6.4c0,0,1.7-1.7,1-4.1C819.1,704.1,798.1,709.5,793.5,710.9z"/>
	<path class="st54" d="M824.7,747.7c-1,9.3-5.9,16.4-10.8,15.8c-5-0.5-8.2-8.5-7.1-17.8c1-9.3,5.9-16.4,10.8-15.8
		C822.5,730.4,825.7,738.4,824.7,747.7z"/>
	<path class="st25" d="M756.8,691.7c0,0,34,48.3,55.1,67.3c0,0,6.5-1.2,8.2-12.3s-3.2-14.4-3.2-14.4l-51.2-48.7L756.8,691.7z"/>
	<linearGradient id="SVGID_10_" gradientUnits="userSpaceOnUse" x1="761.9245" y1="711.9405" x2="819.7065" y2="711.9405">
		<stop  offset="8.021390e-02" style="stop-color:#D2E0E6"/>
		<stop  offset="1" style="stop-color:#AFC0CC"/>
	</linearGradient>
	<path class="st55" d="M819.7,739.1c-1-3.1-2.7-4.2-2.7-4.2l-51.2-48.7l-3.9-1.3C766.2,687.9,807.8,731.3,819.7,739.1z"/>
	<path class="st56" d="M756.9,685.6l-0.6,3.3c0,0,34,48.3,55.1,67.3c0,0,4.3-1,6.3-7.1C817.8,749.1,763.9,694.5,756.9,685.6z"/>
	<path class="st57" d="M760.5,659.3l6.2,25.1c0,0,0.5,3.7-1.6,7.1c-1.5,2.5-5,4.8-5,4.8l-27.3,2.9L760.5,659.3z"/>
	<path class="st46" d="M763.9,663.8c-0.5-3.7-3.3-6.5-6.9-7.4c-5.6-1.3-15.6-0.8-25.6,13.8c-6.6,9.6-8.2,24.6-2.7,28.7
		c3.2,2.4,8.8,1.8,14.2-1.4C754.6,690.7,765.5,674.8,763.9,663.8z"/>
	<path class="st58" d="M761.2,665c-0.5-3.2-2.9-5.7-6-6.4c-4.9-1.1-13.7-0.7-22.4,12.1c-5.8,8.4-7.2,21.5-2.3,25.1
		c2.8,2.1,7.7,1.6,12.5-1.2C753,688.5,762.5,674.6,761.2,665z"/>
	<path class="st59" d="M736.3,681c-2.9-1.7-4.9-4-6.3-6.6c-4.6,8.8-5.3,20.3-0.7,23.7c3,2.2,8.2,1.7,13.2-1.3
		c7.1-4.2,13.8-11.9,17.3-19.6C753.9,682.9,743.5,685.4,736.3,681z"/>
	<g>
		<path class="st57" d="M756.1,663.5c-0.1,0.9-0.8,1.6-1.8,1.7c-0.9,0-1.6-0.7-1.6-1.6s0.8-1.6,1.8-1.7
			C755.4,661.9,756.1,662.6,756.1,663.5z"/>
		<path class="st57" d="M756.9,672.3c-0.1,0.9-0.8,1.7-1.7,1.7c-0.9,0-1.6-0.7-1.6-1.6c0.1-0.9,0.8-1.7,1.8-1.7
			C756.3,670.7,757,671.4,756.9,672.3z"/>
		<path class="st57" d="M751.4,681.4c-0.1,0.9-0.8,1.7-1.8,1.7c-0.9,0-1.6-0.7-1.6-1.6c0.1-0.9,0.9-1.7,1.8-1.7
			C750.8,679.8,751.5,680.5,751.4,681.4z"/>
		<path class="st57" d="M742.1,682.2c-0.1,0.9-0.9,1.7-1.8,1.7c-1,0-1.7-0.7-1.6-1.6c0.1-0.9,0.9-1.7,1.8-1.7
			C741.4,680.5,742.2,681.3,742.1,682.2z"/>
		<path class="st57" d="M747.7,673.8c-0.1,0.9-0.9,1.7-1.8,1.7c-0.9,0-1.7-0.7-1.6-1.6c0.1-0.9,0.9-1.7,1.8-1.7
			C747,672.1,747.8,672.8,747.7,673.8z"/>
		<path class="st57" d="M745.9,665.8c-0.1,0.9-0.9,1.7-1.8,1.7c-0.9,0-1.7-0.7-1.6-1.6c0.1-0.9,0.9-1.7,1.8-1.7
			S745.9,664.9,745.9,665.8z"/>
		<path class="st57" d="M743.4,689.3c-0.1,0.9-0.9,1.7-1.8,1.8c-1,0.1-1.7-0.6-1.6-1.6c0.1-0.9,0.9-1.7,1.8-1.8
			C742.7,687.7,743.5,688.4,743.4,689.3z"/>
		<path class="st57" d="M738.4,674.1c-0.1,0.9-0.9,1.7-1.8,1.7c-1,0-1.7-0.7-1.7-1.6c0.1-0.9,0.9-1.7,1.9-1.7
			C737.7,672.4,738.5,673.2,738.4,674.1z"/>
		<path class="st57" d="M734.4,683.6c-0.1,0.9-0.9,1.7-1.9,1.8c-1,0.1-1.7-0.7-1.7-1.6c0.1-0.9,0.9-1.7,1.9-1.8
			C733.7,681.9,734.4,682.7,734.4,683.6z"/>
		<path class="st57" d="M734.7,692.3c-0.1,0.9-0.9,1.7-1.9,1.8c-1,0.1-1.7-0.6-1.7-1.6c0.1-0.9,0.9-1.7,1.9-1.8
			C734,690.7,734.8,691.4,734.7,692.3z"/>
	</g>
	<g>
		<path class="st60" d="M859.6,783c-32.2,5.6-57.6-10.7-63.2-14.7l-1.2,6c0,0,27.8,21.9,64.4,15.6c36.6-6.3,44.1-15.3,44.1-15.3
			l-0.8-6.1C900.2,770.7,889.9,777.8,859.6,783z"/>
		<path class="st61" d="M859.6,785.5c-33.1,5.7-59-11.7-63.6-15l-0.4,2.1c3.2,2.4,29.8,21.3,64,15.3c33.1-5.7,42.4-13.6,43.9-15.1
			l-0.3-2.1C901.1,772.7,891.1,780.1,859.6,785.5z"/>
	</g>
	<path class="st62" d="M843.8,784.1c-24.5-0.7-42.7-12.5-47.4-15.8l-0.7,3.3l-0.2,1l-0.3,1.7c0,0,21.6,17,51.8,16.7
		C845.8,788.8,844.7,786.5,843.8,784.1z"/>
	<path class="st63" d="M761.6,676.3c0.7-1.6,1.2-3.1,1.7-4.6c-6.8-3-14.7-4.8-21.6-7.2c-1.4-0.5-2.8-0.9-4.2-1.4
		c-0.9,0.9-1.8,1.8-2.8,2.9C743.7,669.4,752.6,672.9,761.6,676.3z"/>
	<path class="st63" d="M764,666.8c0.1-1,0-2-0.1-3c-0.5-3.7-3.3-6.5-6.9-7.4c-3.5-0.8-8.8-0.9-14.8,2.8
		C749.5,661.9,756.7,664.5,764,666.8z"/>
	<path class="st64" d="M870.9,675.9c4.1-1.8,8.1-3.9,12.1-6c-1.4-1.5-3.4-2.5-5.7-2.5c-4.3,0-7.7,3.3-7.7,7.4c0,0.5,0.1,1,0.2,1.5
		C870.1,676.2,870.5,676.1,870.9,675.9z"/>
	<path class="st64" d="M874.9,681.7c-0.1,0-0.2,0.1-0.3,0.1c0.8,0.3,1.7,0.5,2.6,0.5c3.5,0,6.5-2.3,7.4-5.4
		C881.4,678.6,878.2,680.3,874.9,681.7z"/>
	<path class="st65" d="M842.7,688c-0.5,3.4-4,5.8-8,5.3c-3.9-0.5-6.7-3.7-6.3-7.2c0.5-3.4,4-5.8,8-5.3
		C840.4,681.3,843.2,684.5,842.7,688z"/>
	<path class="st65" d="M839.5,700.2c-0.2,1.4-1.9,2.2-3.8,1.9c-1.9-0.3-3.2-1.7-3-3.1c0.2-1.4,1.9-2.2,3.8-1.9
		C838.4,697.4,839.7,698.8,839.5,700.2z"/>
	<path class="st65" d="M878.4,657.8c-0.3,1.1-1.6,1.8-2.9,1.4c-1.3-0.3-2.1-1.5-1.8-2.7c0.3-1.1,1.6-1.8,2.9-1.4
		C877.9,655.5,878.7,656.7,878.4,657.8z"/>
</g>
<g>
	<path class="st66" d="M559,636.5c14.1,8,26.5,15.5,26.5,16.5c0,1.4-8.9,11.5-17.1,19.5c-5.2-5.8-9.2-8.1-11.9-8.8
		C562,658.5,567.6,649.3,559,636.5z"/>
	<path class="st66" d="M546.6,629.6c-1.1,1.9-1.7,3-1.7,3c-9.3-1.4-15.7,7.3-19.5,15h0c-4.3-0.8-7.7-1.4-7.7-1.4s-15-11.9-24.1-11.5
		c-9.1,0.4-28.4,19.9-28.4,19.9c-10.2-13.7-20.2-29.2-19.1-31.7c1.4-3.5,64.4-10.2,74.9-6.3C524.8,618,535.2,623.4,546.6,629.6z"/>
	<path class="st67" d="M559,636.5c2.9,4.4,4.2,8.4,4.4,11.9c5.7,3.7,11.2,7.8,16.5,12.1c3.3-3.8,5.6-6.7,5.6-7.4
		C585.5,652,573.1,644.4,559,636.5z"/>
	<path class="st67" d="M544.9,632.6c0,0,0.6-1.2,1.7-3c-11.4-6.2-21.8-11.6-25.8-13.1c-10.5-3.9-73.5,2.8-74.9,6.3
		c-0.3,0.8,0.4,2.7,1.8,5.5c24.5-2.1,46.9-4.9,71-0.6c6.2,1.1,12.1,3.8,18,6.3C539.2,632.8,541.9,632.2,544.9,632.6z"/>
	<path class="st68" d="M594.6,731.3c0,0,13.3,9.9,12.9,15.1c-5.7-0.8-19-13.7-19-13.7c0.8-23-6.5-48.5-6.8-49.5
		c1.8-2.2,3.3-4.1,4.4-5.7C594.4,699,594.6,731.3,594.6,731.3z"/>
	<path class="st69" d="M607.5,746.4c-0.1,0.8-0.5,1.5-1.3,2c-6.3,3.8-29.7-2.1-29.7-2.1s-51.1,8.4-62.5,8.4
		c-11.4,0-48.9-9.8-48.9-9.8s-23.7,6.6-34.2,3c-8.1-6.2,11-36.2,11-36.2c-2.5-8-0.2-44.4,0-47.4c0-0.1,0-0.2,0-0.2
		c0.4-3,0.7-4.8,0.7-4.8c6.4,10.5,21.5,34,31,38c12.2,5.2,66.8,10.1,81.2,7c9.4-2.1,20.1-13,27-21.2c0.3,0.9,7.6,26.5,6.8,49.5
		C588.4,732.7,601.8,745.6,607.5,746.4z"/>
	<linearGradient id="SVGID_11_" gradientUnits="userSpaceOnUse" x1="518.1459" y1="758.4343" x2="518.1459" y2="701.4113">
		<stop  offset="0" style="stop-color:#E9CB82"/>
		<stop  offset="1" style="stop-color:#95782E"/>
	</linearGradient>
	<path class="st70" d="M607.5,746.4c-0.1,0.8-0.5,1.5-1.3,2c-6.3,3.8-29.7-2.1-29.7-2.1s-51.1,8.4-62.5,8.4
		c-11.4,0-48.9-9.8-48.9-9.8s-23.7,6.6-34.2,3c-8.1-6.2,11-36.2,11-36.2c-2.5-8-0.2-44.4,0-47.4c0-0.1,0-0.2,0-0.2
		c0.4-3,0.7-4.8,0.7-4.8c6.4,10.5,21.5,34,31,38c12.2,5.2,66.8,10.1,81.2,7c9.4-2.1,20.1-13,27-21.2c0.3,0.9,7.6,26.5,6.8,49.5
		C588.4,732.7,601.8,745.6,607.5,746.4z"/>
	<path class="st71" d="M581.7,683.2c0.1,0.4,1.2,4.2,2.5,10.2c1.6-2.4,3.1-5,4.6-7.7c-0.8-2.8-1.7-5.6-2.7-8.2
		C585,679.1,583.5,681,581.7,683.2z"/>
	<path class="st68" d="M588.4,732.7c0,0,13.4,13,19,13.7c0.5-5.2-12.9-15.1-12.9-15.1s-0.2-25-5.9-45.6c-1.5,2.7-3,5.2-4.6,7.7
		C586.3,703.1,588.9,718.4,588.4,732.7z"/>
	<path class="st72" d="M554.7,704.4c-14.4,3.1-68.9-1.7-81.2-7c-9.5-4.1-24.6-27.6-31-38c0,0-0.1,0.6-0.2,1.5
		c9.9,18.1,20.2,38.8,37.9,44.7c27.3,10.5,60.9,14.7,88.2,2.1c6.7-3,11.6-8.1,15.7-14.4c-1.3-5.9-2.4-9.8-2.5-10.2
		C574.9,691.4,564.1,702.3,554.7,704.4z"/>
	<path class="st73" d="M553.8,724.5c6.7-4.2,10.9-9.9,13.1-16.1c-27,11.7-59.8,7.5-86.6-2.8c-17.7-5.9-28.1-26.6-37.9-44.7
		c-0.1,0.8-0.3,1.9-0.5,3.2c0,0,0,0.1,0,0.2c-0.2,3-2.5,39.4,0,47.4c0,0-0.1,0.1-0.2,0.4C473.2,737,518.9,747.8,553.8,724.5z"/>
	<path class="st74" d="M588.4,594.9c1.9,7.9-2.6,16.4-6.7,18.8c-15.2,8.9-22.7,22.7-22.7,22.7s-1.3-0.5-2.8,0
		c3.9-13,21.3-23.8,24.4-25.5C583.6,609.3,588.9,598,588.4,594.9z"/>
	<path class="st75" d="M546.6,629.6c4.3-7.5,15.7-26.7,21.8-30.9c7.6-5.2,18.8-6.7,19.9-4.2c0,0.1,0.1,0.3,0.1,0.4
		c0.5,3.1-4.8,14.4-7.8,16c-3.1,1.7-20.5,12.6-24.4,25.5c0,0,2.4,3.3,2.6,8.6c-4.4-7.3-11.1-6.1-11.1-6.1c-13.1,1.4-16.9,19-16.9,19
		c-4.9,0.3-9.7,1-9.7,1s1.4-5.4,4.3-11.2c3.8-7.7,10.2-16.4,19.5-15C544.9,632.6,545.6,631.5,546.6,629.6z M580.7,601.9
		c0.3-1.3,0.2-2.6-0.4-2.9c-1-0.7-4.6-0.1-7.3,2c-2.8,2.1-2.1,5.1-1.3,5.6c0.7,0.5,1.7,0.5,2.8,0.3c1.4-0.3,2.9-0.9,4.1-1.6
		C579.7,604.6,580.4,603.2,580.7,601.9z"/>
	<path class="st76" d="M581.7,683.2c-6.8,8.2-17.5,19.1-27,21.2c-14.4,3.1-68.9-1.7-81.2-7c-9.5-4.1-24.6-27.6-31-38
		c-1.9-3.1-3-5-3-5c-0.7-14.7,6.3-31.5,6.3-31.5c-1,2.5,9,18.1,19.1,31.7c7.6,10.3,15.3,19.5,18.6,21.4c7.7,4.6,66.1,9.1,72.8,6.3
		c2.5-1,7.1-5,11.9-9.8c8.2-8,17.1-18.2,17.1-19.5c1.7,7.2,2.8,21.3,2.8,21.3c-0.3,0.5-1.1,1.7-2.2,3.3
		C585,679.1,583.5,681,581.7,683.2z"/>
	<path class="st77" d="M465.1,654.6c-10.2-13.7-20.2-29.2-19.1-31.7c0,0-7,16.8-6.3,31.5c0,0,1.1,1.9,3,5c6.4,10.5,21.5,34,31,38
		c0.2,0.1,0.4,0.1,0.5,0.2c2.3-7.3,5.6-14.6,9.3-21.7C480,673.6,472.5,664.6,465.1,654.6z"/>
	<path class="st76" d="M556.2,682.4c-7.5,2.6-64.9-1.9-72.5-6.4c-0.1,0-0.2-0.1-0.3-0.2c-3.7,7.2-7,14.4-9.3,21.7
		c13.2,5.2,66.5,9.9,80.6,6.8c1.3-0.3,2.7-0.8,4.1-1.4C558.9,696.1,558.1,689.2,556.2,682.4z"/>
	<path class="st78" d="M585.5,653c0,1.4-8.9,11.5-17.1,19.5c-4.8,4.7-9.5,8.7-11.9,9.8c-0.1,0-0.2,0-0.2,0.1
		c1.9,6.9,2.7,13.7,2.6,20.6c8.3-3.7,17-12.8,22.9-19.8c1.8-2.2,3.3-4.1,4.4-5.7c1.2-1.6,1.9-2.7,2.2-3.3
		C588.3,674.3,587.2,660.2,585.5,653z"/>
	<path class="st79" d="M568.4,672.6c-4.8,4.7-9.5,8.7-11.9,9.8c-6.7,2.8-65.1-1.7-72.8-6.3c-3.3-2-11-11.2-18.6-21.4
		c-10.2-13.7-20.2-29.2-19.1-31.7c0,0-1.4,3.4-2.9,8.4c6.5,21.8,24.7,46.3,33.1,51.3c16.4,10.8,63.7,10.8,84.7,8
		c7.9-4,19.4-15.3,27-21.8c-0.5-4.7-1.3-11.5-2.3-15.8C585.5,654.4,576.6,664.5,568.4,672.6z"/>
	<path class="st80" d="M580.4,599c0.5,0.3,0.7,1.6,0.4,2.9c-6.1-1.3-6.2,5-6.2,5c-1.1,0.2-2.1,0.2-2.8-0.3c-0.8-0.5-1.4-3.5,1.3-5.6
		C575.8,598.8,579.3,598.3,580.4,599z"/>
	<path class="st81" d="M565.9,640.4c-2.2-1.3-4.5-2.6-6.9-3.9c8.6,12.8,3.1,22.1-2.5,27.3c2.4,0.7,5.8,2.5,10.1,6.8
		C569.2,660.7,569.3,650.2,565.9,640.4z"/>
	<path class="st82" d="M521.1,658.9c0,0,4.8-0.7,9.7-1c4.4-0.3,8.9-0.2,10.2,1c1.6,1.4,4.4,4.9,6.6,7.7c0.6,0.8,1.2,1.5,1.6,2.1
		c0,0,3.6-1.7,7.1-5c2.8,0.8,6.7,3,11.9,8.8c-4.8,4.7-9.5,8.7-11.9,9.8c-6.7,2.8-65.1-1.7-72.8-6.3c-3.3-2-11-11.2-18.6-21.4
		c0,0,19.4-19.5,28.4-19.9c9.1-0.3,24.1,11.5,24.1,11.5s3.4,0.6,7.7,1.4h0C522.5,653.5,521.1,658.9,521.1,658.9z"/>
	<path class="st83" d="M522.9,653.3c0.6-1.7,1.5-3.7,2.5-5.7h0c-4.3-0.8-7.7-1.4-7.7-1.4s-15-11.9-24.1-11.5
		c-6,0.2-16.6,8.9-23,14.7c0.2,0.2,0.4,0.4,0.6,0.7C488,636.8,504.9,648.3,522.9,653.3z"/>
	<path class="st83" d="M551,667.8c-1,0.6-1.7,0.9-1.7,0.9c-0.5-0.6-1-1.4-1.6-2.1c-2.2-2.9-5.1-6.4-6.6-7.7c-1.3-1.2-5.8-1.2-10.2-1
		c-1.5,0.1-3,0.2-4.3,0.3c8.3,2.4,13.6,8.9,16.1,16.9c3.5-0.2,7-0.5,10.5-1C552.9,671.9,552.2,669.9,551,667.8z"/>
	<path class="st84" d="M567.3,671.3c-4.7-4.9-8.2-6.9-10.8-7.6c-2.1,1.9-4.1,3.3-5.5,4.1c1.2,2,1.9,4.1,2.2,6.2
		c-16.3,2.3-33.1,1.7-49.8-2c-13.4-3-23.6-12.2-32.9-22.6c-3.3,2.9-5.5,5.2-5.5,5.2c7.6,10.3,15.3,19.5,18.6,21.4
		c7.7,4.6,66.1,9.1,72.8,6.3c2.5-1,7.1-5,11.9-9.8C568,672.1,567.6,671.7,567.3,671.3z"/>
	<path class="st85" d="M559,636.5c8.6,12.8,3.1,22.1-2.5,27.3c-3.5,3.3-7.1,5-7.1,5c-0.5-0.6-1-1.4-1.6-2.1
		c9.3-8.4,11.4-16.1,11.1-21.6c-0.3-5.3-2.6-8.6-2.6-8.6C557.7,635.9,559,636.5,559,636.5z"/>
	<path class="st86" d="M558.8,645.1c0.3,5.5-1.7,13.2-11.1,21.6c-2.2-2.9-5.1-6.4-6.6-7.7c-1.3-1.2-5.8-1.2-10.2-1
		c0,0,3.7-17.6,16.9-19C547.7,638.9,554.4,637.7,558.8,645.1z"/>
	<path class="st75" d="M550,634.7c-2.9,0.2-5.9,0.7-8.9,1.7c-7.7,1.9-13.7,9.2-16.2,20.2c2.2-0.3,4.4-0.7,6.6-1
		c1.5-4.8,6.1-15.5,16.2-16.6c0,0,3.4-0.6,6.9,1.7C553.6,638.5,552.2,636.5,550,634.7z"/>
	<path class="st87" d="M588.4,594.9c0-0.1,0-0.3-0.1-0.4c-1-2.5-12.3-1-19.9,4.2c-6.1,4.2-17.5,23.4-21.8,30.9c-1.1,1.9-1.7,3-1.7,3
		c-9.3-1.4-15.7,7.3-19.5,15c-1.8,3.7-3.1,7.3-3.7,9.3c1.1-0.1,2.2-0.3,3.3-0.4c2.5-11,8.5-18.2,16.2-20.2c3-1,6-1.5,8.9-1.7
		c2.1,1.8,3.6,3.8,4.6,5.9c1.5,0.9,2.9,2.3,4.2,4.5c-0.3-5.3-2.6-8.6-2.6-8.6c0.2-0.5,0.4-1,0.5-1.5c4.7-12.3,20.9-22.4,23.9-24
		C583.6,609.3,588.9,598,588.4,594.9z M580.7,601.9c-0.3,1.3-1,2.7-2.1,3.4c-1.2,0.7-2.7,1.4-4.1,1.6c-1.1,0.2-2.1,0.2-2.8-0.3
		c-0.8-0.5-1.4-3.5,1.3-5.6c2.8-2.1,6.3-2.6,7.3-2C580.9,599.3,581,600.6,580.7,601.9z"/>
	<path class="st87" d="M580.6,610.9c0.1-0.1,0.2-0.1,0.3-0.2c-8.7,1.6-17.5,3.4-26.2,5.5c-2.6,4-4.9,8-6.7,11
		c4.8-0.4,9.5-0.9,14.4-1.3C569,618,578.4,612.2,580.6,610.9z"/>
	<path class="st87" d="M571.7,606.6c-0.8-0.5-1.4-3.5,1.3-5.6c-3.3,1-6.6,2.1-9.9,3.2c-1.6,2-3.3,4.4-5,6.9
		c4.7-1.7,9.4-3.1,14.2-4.2C572,606.8,571.9,606.7,571.7,606.6z"/>
	<path class="st87" d="M588.2,596.9c-2.7,0.6-5.4,1.2-8.1,2c0.1,0,0.1,0,0.2,0.1c0.5,0.3,0.7,1.6,0.4,2.9c-0.3,1.3-1,2.7-2.1,3.4
		c-0.1,0.1-0.3,0.1-0.4,0.2c2.4-0.5,4.8-0.9,7.2-1.3C586.7,601.6,587.8,598.9,588.2,596.9z"/>
	<path class="st88" d="M521.1,658.9c0,0,4.8-0.7,9.7-1c0,0,0.2-1,0.7-2.4c-3.2,0.5-6.5,1.1-9.8,1.5
		C521.3,658.2,521.1,658.9,521.1,658.9z"/>
	<path class="st85" d="M556.5,663.7c5.6-5.2,11.1-14.4,2.5-27.3c0,0-1.3-0.5-2.8,0c0,0,2.4,3.3,2.6,8.6c0.2,4.3-1,10-6.1,16.3
		c0.8,1.1,1.7,2.3,2.5,3.5C555.6,664.5,556,664.1,556.5,663.7z"/>
	<path class="st89" d="M552.7,661.4c-1.4,1.7-3,3.4-5,5.2c0.6,0.8,1.2,1.5,1.6,2.1c0,0,2.8-1.3,5.9-3.9
		C554.4,663.7,553.6,662.5,552.7,661.4z"/>
	<path class="st86" d="M554.6,640.6c-3.5-2.2-6.9-1.7-6.9-1.7c-10.1,1.1-14.6,11.7-16.2,16.6c7.5-1.2,14.3-1.9,18,1.8
		c0.8,0.9,1.5,1.9,2.3,2.9C555.4,654.2,557.4,646.9,554.6,640.6z"/>
	<path class="st87" d="M558.8,645.1c-1.3-2.1-2.8-3.5-4.2-4.5c2.8,6.4,0.8,13.7-2.8,19.7c0.3,0.4,0.6,0.7,0.9,1.1
		C557.8,655.1,559,649.4,558.8,645.1z"/>
	<path class="st90" d="M549.6,657.3c-3.8-3.8-10.5-3-18-1.8c-0.5,1.4-0.7,2.4-0.7,2.4c4.4-0.3,8.9-0.2,10.2,1
		c1.6,1.4,4.4,4.9,6.6,7.7c2-1.8,3.6-3.5,5-5.2C551.7,660,550.6,658.6,549.6,657.3z"/>
	<linearGradient id="SVGID_12_" gradientUnits="userSpaceOnUse" x1="448.6206" y1="622.3305" x2="493.0482" y2="651.3671">
		<stop  offset="0" style="stop-color:#A2914E"/>
		<stop  offset="1" style="stop-color:#FFFFFF"/>
	</linearGradient>
	<path class="st91" d="M445.9,622.8c-1,2.5,9,18.1,19.1,31.7c0,0,19.4-19.5,28.4-19.9c2.9-0.1,6.4,1,9.9,2.6
		c-11.1-9.3-24.3-16-38.4-18.8C454.4,620,446.4,621.6,445.9,622.8z"/>
	<path class="st76" d="M441.8,664.3c-0.2,3-2.5,39.4,0,47.4c0,0-19.1,30-11,36.2c-1.8-0.6-3.3-1.6-4.1-3
		c-5.6-9.1,10.8-36.7,10.8-36.7C437,698.2,440.3,674.6,441.8,664.3z"/>
	<g>
		<g>
			<path class="st92" d="M539.4,673.9c0.1,1,3.7,1.3,3.7,0C543.2,672.6,539.3,672.3,539.4,673.9z"/>
		</g>
		<g>
			<path class="st92" d="M534.6,661.5c0.4,0.7,3-0.1,2.6-1.1C536.9,659.4,534,660.4,534.6,661.5z"/>
		</g>
		<g>
			<path class="st92" d="M520.9,673.9c0.8,1,4.8-1,4-2.5C524.1,670,519.6,672.2,520.9,673.9z"/>
		</g>
		<g>
			<path class="st92" d="M523.8,663c0.4,0.9,3.7,0,3.3-1.2C526.8,660.6,523.1,661.6,523.8,663z"/>
		</g>
		<g>
			<path class="st92" d="M499.3,669.6c0.5,0.8,3.4-0.5,2.9-1.5C501.7,667,498.5,668.4,499.3,669.6z"/>
		</g>
		<g>
			<path class="st92" d="M513,663.1c-0.5,1.4,3.9,3.8,4.7,2.2C518.6,663.7,513.8,661,513,663.1z"/>
		</g>
		<g>
			<path class="st92" d="M551.5,673.9c0.6,0.9,4.1-0.7,3.5-2C554.4,670.6,550.5,672.4,551.5,673.9z"/>
		</g>
		<g>
			<path class="st92" d="M512.2,658.3c0.4,1.2,4.7,0.5,4.4-1C516.3,655.7,511.6,656.4,512.2,658.3z"/>
		</g>
		<g>
			<path class="st92" d="M506.8,652.5c0.8,1.4,6.1-0.4,5.3-2.4C511.4,648.2,505.5,650.3,506.8,652.5z"/>
		</g>
		<g>
			<path class="st92" d="M504.5,646.2c0.4,0.8,3.2,0,2.9-1C507.1,644.1,503.9,644.9,504.5,646.2z"/>
		</g>
		<g>
			<path class="st92" d="M498.8,652.7c-0.4,1.1,3.1,2.9,3.7,1.7C503.2,653,499.4,651,498.8,652.7z"/>
		</g>
		<g>
			<path class="st92" d="M491.5,636.9c0.2,1,3.7,0.9,3.7-0.4C495.1,635.2,491.1,635.3,491.5,636.9z"/>
		</g>
		<g>
			<path class="st92" d="M487.9,659.2c0.3,1,3.7,0.5,3.5-0.8C491.3,657.2,487.5,657.7,487.9,659.2z"/>
		</g>
		<g>
			<path class="st92" d="M482.6,651.9c-0.2,0.6,1.6,1.8,2.1,1C485.1,652.2,483,650.9,482.6,651.9z"/>
		</g>
	</g>
	<g>
		<g>
			<path class="st93" d="M524.4,721.2c-17.7,0-30.4-4.1-37-6.2l-1.5-0.5c-14.6-4.6-26.7-13.6-26.8-13.7c-0.5-0.3-0.6-1-0.2-1.5
				c0.3-0.5,1-0.6,1.5-0.2c0.1,0.1,12,8.9,26.2,13.3l1.5,0.5c11.2,3.6,40.9,13.2,82.4-3c0.5-0.2,1.1,0.1,1.4,0.6s-0.1,1.1-0.6,1.4
				C553.3,719,537.5,721.2,524.4,721.2z"/>
		</g>
		<g>
			<path class="st93" d="M525.5,727.1c-13.5,0-27-2.2-40.7-6.6c-0.6-0.2-0.9-0.8-0.7-1.3c0.2-0.6,0.8-0.9,1.3-0.7
				c28.9,9.3,57.5,8.6,85.1-2.1c0.5-0.2,1.1,0.1,1.4,0.6c0.2,0.5-0.1,1.1-0.6,1.4C556.3,724.2,541,727.1,525.5,727.1z"/>
		</g>
		<g>
			<path class="st93" d="M524.2,732.7c-20.5,0-40.6-5.1-59.9-15.2c-0.5-0.3-0.7-0.9-0.4-1.4c0.3-0.5,0.9-0.7,1.4-0.4
				c26.9,14.1,55.2,18.3,84.2,12.4c0.6-0.1,1.1,0.3,1.2,0.8c0.1,0.6-0.3,1.1-0.8,1.2C541.3,731.8,532.7,732.7,524.2,732.7z"/>
		</g>
		<g>
			<path class="st93" d="M476.9,717.3c-0.1,0-0.3,0-0.4-0.1c-6.3-2.9-12.1-6.2-17.2-9.9c-0.5-0.3-0.6-1-0.2-1.5
				c0.3-0.5,1-0.6,1.5-0.2c5,3.6,10.7,6.9,16.9,9.7c0.5,0.2,0.8,0.9,0.5,1.4C477.7,717,477.3,717.3,476.9,717.3z"/>
		</g>
		<g>
			<path class="st93" d="M499,735.5c0,0-0.1,0-0.1,0c-0.6-0.1-1-0.6-0.9-1.2c0.8-6,3.4-21.1,3.5-21.2c0.1-0.6,0.7-1,1.2-0.9
				c0.6,0.1,1,0.6,0.9,1.2c0,0.2-2.7,15.1-3.4,21.1C500,735.1,499.5,735.5,499,735.5z"/>
		</g>
		<g>
			<path class="st93" d="M504.1,741.5c0,0-0.1,0-0.1,0c-0.6-0.1-1-0.6-0.9-1.2c1.8-12.9,5-33.1,5-33.3c0.1-0.6,0.6-1,1.2-0.9
				c0.6,0.1,1,0.6,0.9,1.2c0,0.2-3.3,20.3-5,33.3C505.1,741.1,504.7,741.5,504.1,741.5z"/>
		</g>
		<g>
			<path class="st93" d="M510.7,735.3C510.7,735.3,510.7,735.3,510.7,735.3c-0.6,0-1.1-0.5-1-1.1c0.1-8.2,3.4-22.7,3.6-23.3
				c0.1-0.6,0.7-0.9,1.3-0.8c0.6,0.1,0.9,0.7,0.8,1.3c0,0.1-3.4,15-3.5,22.9C511.8,734.9,511.3,735.3,510.7,735.3z"/>
		</g>
		<g>
			<path class="st93" d="M537.6,738c-0.6,0-1-0.5-1-1c-0.1-14.7-0.4-25.3-0.4-25.4c0-0.6,0.4-1.1,1-1.1c0,0,0,0,0,0c0.6,0,1,0.4,1,1
				c0,0.1,0.3,10.7,0.4,25.4C538.6,737.6,538.1,738,537.6,738C537.6,738,537.6,738,537.6,738z"/>
		</g>
		<g>
			<path class="st93" d="M542.8,734.8c-0.6,0-1-0.5-1-1c-0.1-6.2-1.1-20.9-1.1-21c0-0.6,0.4-1.1,1-1.1c0.5,0,1.1,0.4,1.1,1
				c0,0.1,1,14.9,1.1,21.2C543.8,734.3,543.4,734.8,542.8,734.8C542.8,734.8,542.8,734.8,542.8,734.8z"/>
		</g>
		<g>
			<path class="st93" d="M516.7,743.9C516.7,743.9,516.7,743.9,516.7,743.9c-30.1-1-48.7-11.2-48.9-11.3c-0.5-0.3-0.7-0.9-0.4-1.4
				c0.3-0.5,0.9-0.7,1.4-0.4c0.2,0.1,18.3,10,47.9,11.1c0.6,0,1,0.5,1,1.1C517.8,743.5,517.3,743.9,516.7,743.9z"/>
		</g>
		<g>
			<path class="st93" d="M515.7,749.7c-17.7,0-29-4.4-29.6-4.7c-0.5-0.2-0.8-0.8-0.6-1.4c0.2-0.5,0.8-0.8,1.4-0.6
				c0.2,0.1,18.4,7.2,44.5,3.3c0.6-0.1,1.1,0.3,1.2,0.9c0.1,0.6-0.3,1.1-0.9,1.2C525.9,749.4,520.6,749.7,515.7,749.7z"/>
		</g>
		<g>
			<path class="st93" d="M435.2,743.9c-0.1,0-0.2,0-0.3,0c-0.6-0.1-0.9-0.7-0.8-1.3c3.1-12.5,11.3-22.4,13-24.5
				c-2.2-16.6,0-34.9,0.1-35.1c0.1-0.6,0.6-1,1.2-0.9c0.6,0.1,1,0.6,0.9,1.2c0,0.2-2.3,18.6,0,35l0.1,0.5l-0.3,0.4
				c-0.1,0.1-9.6,10.7-12.9,24C436.1,743.6,435.6,743.9,435.2,743.9z"/>
		</g>
		<g>
			<path class="st93" d="M453.2,721.2c-0.5,0-0.9-0.3-1-0.8c-2.7-11.4-1.4-26.5-1.3-27.1c0.1-0.6,0.6-1,1.1-1c0.6,0.1,1,0.6,1,1.1
				c0,0.2-1.3,15.4,1.3,26.5c0.1,0.6-0.2,1.1-0.8,1.3C453.4,721.2,453.3,721.2,453.2,721.2z"/>
		</g>
		<g>
			<path class="st93" d="M578.2,733.7c-0.1,0-0.1,0-0.2,0c-0.6-0.1-1-0.6-0.9-1.2c2.6-17.6-2.2-36.7-2.3-36.9
				c-0.1-0.6,0.2-1.1,0.8-1.3c0.6-0.2,1.1,0.2,1.3,0.8c0,0.2,5,19.6,2.3,37.7C579.2,733.3,578.7,733.7,578.2,733.7z"/>
		</g>
		<g>
			<path class="st93" d="M583.2,725.3c-0.1,0-0.1,0-0.2,0c-0.6-0.1-1-0.6-0.9-1.2c1.8-11.6-1.5-21-1.5-21.1
				c-0.2-0.5,0.1-1.1,0.6-1.3c0.5-0.2,1.1,0.1,1.3,0.6c0.1,0.4,3.5,10,1.6,22.1C584.2,725,583.7,725.3,583.2,725.3z"/>
		</g>
	</g>
</g>
</svg>
