<?xml version="1.0" encoding="utf-8"?>
<!-- Generator: Adobe Illustrator 24.0.2, SVG Export Plug-In . SVG Version: 6.00 Build 0)  -->
<svg version="1.1" id="Layer_1" xmlns="http://www.w3.org/2000/svg" xmlns:xlink="http://www.w3.org/1999/xlink" x="0px" y="0px"
	 viewBox="0 0 310 448" style="enable-background:new 0 0 310 448;" height="448" width="310" xml:space="preserve">
<style type="text/css">
	.st0{fill:url(#SVGID_1_);}
	.st1{opacity:0.55;fill:#D66242;}
	.st2{opacity:0.55;fill:#C46142;}
	.st3{fill:#F26344;}
	.st4{opacity:0.65;fill:#D66A4C;}
	.st5{fill:#F6906A;}
	.st6{fill:#D1442C;}
	.st7{fill:#A2B239;}
	.st8{fill:#47813C;}
	.st9{fill:#599B43;}
	.st10{fill:#EF507C;}
	.st11{fill:#F7ADB2;}
	.st12{fill:#FCDADC;}
</style>
<g>
	
		<linearGradient id="SVGID_1_" gradientUnits="userSpaceOnUse" x1="154.4974" y1="231.8213" x2="149.974" y2="420.5065" gradientTransform="matrix(-1 0 0 1 310 0)">
		<stop  offset="6.951870e-02" style="stop-color:#F15E3C"/>
		<stop  offset="0.5187" style="stop-color:#F2643C"/>
		<stop  offset="1" style="stop-color:#EA4E26"/>
	</linearGradient>
	<path class="st0" d="M273.4,191.1c0,0-31.4,103.4-36.2,132.1c-6.8,40.4-11,98.5-11,98.5s-37.5,20.7-70.4,20.7
		c-25.2,0-71.7-16.2-71.7-16.2S73.8,229.9,35.6,191.1C35.6,191.1,193.2,252.9,273.4,191.1z"/>
	<path class="st1" d="M113.5,363.6c25.1-1.1,46.5-12.9,59.7-34.6c12-19.7,18-42.2,21.2-64.9c1.8-13.1,1.5-26.9,3.3-40.1
		c24.9-2.6,48.7-9.7,67.8-24.4c0,0-29.2,96.4-33.7,123.2c-6.3,37.7-10.2,91.9-10.2,91.9S186.6,434,155.8,434
		c-23.5,0-66.9-15.1-66.9-15.1s-1.4-25.8-4.9-59.9C93.8,362.2,103.7,364,113.5,363.6z"/>
	<path class="st2" d="M141.1,255.5c-24.4,0-84.4-20.3-85.2-22.9c-5.7-18.5-12.4-33.4-20.3-41.5c0,0,164.5,27.7,236.8,0.5
		c0,0-5.2,21.7-12.9,46.4C258.6,241.1,214,255.5,141.1,255.5z"/>
	<path class="st3" d="M291.1,179.1l-8.6,24.6c0,0-91.3,18.5-124.5,16.4S29.6,199.6,29.6,199.6l-9.9-27.4L291.1,179.1z"/>
	<path class="st4" d="M203.9,176.9l87.2,2.2l-8.6,24.6c0,0-49.8,10.1-89.2,14.5C197.2,204.5,200.7,190.7,203.9,176.9z"/>
	<path class="st4" d="M84,173.8l27.4,0.7c1.1,14.1,4.8,27.7,9.6,41c-8.4-1.3-17.3-2.7-26.1-4.2C90.5,199,86.2,186.6,84,173.8z"/>
	<path class="st5" d="M19.7,172.2c0,0,70.9-18.2,149.1-16.6c78.2,1.6,122.3,23.5,122.3,23.5s-106.2,15.6-146.3,15
		C104.8,193.4,19.7,172.2,19.7,172.2z"/>
	<path class="st6" d="M46.9,173c0,0,64.6-12,106-12.3c41.4-0.3,103.7,14,103.7,14s-82.7,10.5-107.3,9.6
		C124.8,183.4,46.9,173,46.9,173z"/>
	<path class="st5" d="M29.6,198.5c0,0,95.4,17.8,128.6,18.5c37.3,0.9,124.2-14.5,124.2-14.5l8.2-23.4l0.4,0l-8.6,24.6
		c0,0-91.3,18.5-124.5,16.4S29.6,199.6,29.6,199.6l-9.9-27.4l0.4,0L29.6,198.5z"/>
	<path class="st7" d="M205.4,61.5c2.7-7.1-0.3-13.6-7.8-15.1c-6.5-1.3-9.4,3.3-11.6,8.5c0.9-6.4,1.3-12.9-6-15.5
		c-7.7-2.7-23.2,1.4-25.4,8.7h0.4c0.6,0,0.8,0.1,1.3-0.4c0.3-7.2-8.7-11.5-15.5-10.8c-8.9,1-7.7,6.9-10,13.7
		c-1.3-6.7-3.3-12.5-11.5-11.1c-8.5,1.5-8.3,8.2-8.3,15.4c-0.3-11.5-10.7-18.1-20.4-11.1c-5.9,4.3-5.7,16-1.6,21.8
		c-3.9-4.3-10.3-12.7-16.8-6.7c-5.5,5-1.5,15.2,3.9,18.1h0.4c-4.6-3.2-15-4.8-18.4,0.9c-3.4,5.7,1.2,12.4,5,16.2
		c-4.3-3.6-13.8-7.1-17.3-0.7c-3,5.5,1.2,14.6,6.4,16.8c-5.7-2.6-13.2-6.1-17.6,0.4c-5.5,8.1,2.8,15.5,10,18.1l0.4,0.9
		c-8.1-1.3-21.8-4.6-25.9,6c-5,12.9,10.8,15.1,19.7,15.1c-8.2-0.9-14.1,9.3-7.2,14.8c5,4,17.8,5,16.4-4.8l-0.4-0.9
		c0,4.7,1.2,11.9,6,14.2c6.3,3,8.4-5,11.7-8.5c-0.1,5.8,4.9,10.3,10.8,10.2c6.8-0.2,5.2-5.6,7.7-9.9c0.1,6.5,5.9,11.4,11.8,12.8
		c8.6,2,11.8-3.5,14.1-11c1.1,6.1,3.6,12.6,10.5,13.7c6.4,1,9.5-5.3,10.6-10.7c2.2,7.5,6.4,12.2,14.6,12.4c7.5,0.2,7.8-6.8,8.7-12.8
		c0.5,12.9,24.2,20.1,22.4,2.2c2.6,6.7,7.5,10.6,15,10.6c7.5,0.1,8.3-6.7,8.7-12.8c0,7.3,7.5,10.7,13.9,10.6
		c8.6-0.1,10.3-5.3,10.2-13.2c2.7,5.4,5.3,10.5,12,11.5c7.2,1.1,8.4-5.2,8.3-11.1c1.2,6.7,8.2,14.1,15.9,12c3.2-0.9,5.6-5,6-8.2
		c0.6-4.7-3.1-7.6-6.9-9.8c3.5,7.2,15.2,11,19.3,2c4.5-9.9-8.9-18.2-17.4-14.7c4.9-0.5,17.6-7.6,17.5-11.7c0.3-0.2-9.7-0.4-9.4-0.5
		c-0.3-1.1-0.8,0.1,0-0.9c-0.6-7.5-0.4-11.1-7.3-10.6c0.1,0.2,0.2,0.3,0.4,0.4c1-0.3,2.4-1.4,3-2.8c0.1,0.3,0.1,0.5,0,0.8
		c2.1-2.6,6.6-8.4,5-11.2c0.2-0.5,0.4-0.9,0.5-1.4c-0.9-1.4-2.4-3.2-3.6-4.8c-4.6-2.4-10.3-3-15.9-2.8c-0.2-0.3-0.4-0.6-0.5-1
		c-0.3,0.8-0.8,0.7-1.2,1l0.9,1.3c3-3.6,9.6-9.7,7.7-15.1c-2.3-6.6-13.6-6.5-17-1.4c3-5,7.8-8.1,3.7-13.9c-4.3-6.1-11.4-6-16.4-1.1
		c0.2-3.1,2.2-4.9,2.2-8c0-4.2-2.5-6.5-5.6-8.1c-4-2.2-10.4-4-15-2.3c-3.4,1.3-4.3,4.8-7,6.6H205.4z"/>
	<path class="st8" d="M131.3,48.5c5.4-2.7,8.7-11.2,10-16.8c1.9-8.2,0.1-16.3,0.7-24.5c-7.2,4.6-13.7,10.4-15,19.3
		C126.1,32.5,124.8,46.7,131.3,48.5z"/>
	<path class="st9" d="M124.8,47.7c2.9-6.4,4.5-15.2,1.8-22c-3.1-7.8-9.9-13.5-14.6-20.2c4,9.4-1.9,16-2.3,25
		c-0.5,10.9,8,15.3,16.6,19C126.1,49.2,125,48,124.8,47.7z"/>
	<path class="st9" d="M65.2,98.3c18.6-8.4-0.5-27.6-0.4-40.8c-4.6,6.1-8.5,13-8.6,21C56,87.2,61.9,93.7,65.2,98.3z"/>
	<path class="st8" d="M67.2,99.2c-0.9-3.7-0.8-7.3-2.5-11.1c-2.2-4.8-5.4-9-9.2-12.6c-7.2-6.8-14.1-6.8-22.6-9.3
		c9.7,4.6,5.5,17.5,10.3,24.8C47,96.7,60.9,104.4,67.2,99.2z"/>
	<path class="st9" d="M63.6,100.7C57,95.9,52,90.4,43,90.8c-3.5,0.1-6.2,0.6-9.1,2.9c-2.4,1.9-5.3,6.6-8.9,3.5
		c2.9,3,2.6,7.5,5.4,10.4c2.9,3,8.6,3.9,12.6,3.4C51,110.2,56.7,102.3,63.6,100.7z"/>
	<path class="st9" d="M215.5,60.1c4.2-7,9.9-11.3,11.3-20c1.1-7-1.5-16.5,3.5-22c-8.9,1.8-21,5.7-22,15.8c-0.5,4.7,0.9,9,2.5,13.4
		C212.2,51.5,214,56.5,215.5,60.1z"/>
	<path class="st8" d="M215.3,55.4c4-4.3,13.2-8.5,19.4-6.5c9,3,4.5,13.3,12.4,17.7c-7-3-12.1,8.1-19.7,2.1
		C221.1,63.9,224,55.6,215.3,55.4z"/>
	<path class="st9" d="M179.5,90.3c0.8-6.6-3-13-9-15.6c-4.7-2-11.7-2-14.8-5.9c4.7,5.2-0.3,12.9,5,17.6
		C164,89.5,178.9,95.3,179.5,90.3z"/>
	<path class="st9" d="M181.2,92.5c5.6-4,13.9-5.2,19.4-0.1c5.2,4.7,0.1,14.7,7.2,17.8c-7-0.3-11.9,3.7-17.5-3
		C186.9,103.1,187,93.5,181.2,92.5z"/>
	<path class="st8" d="M179.1,92.5c2-5.4-0.3-12.1,6-15.5c5.1-2.7,10.6-0.5,14.2-6.3c-0.6,3.2-1.6,5.9-1.7,9.3
		c-0.1,3.9,0.6,6.6-2.6,9.4C190.7,93.1,183.5,92.5,179.1,92.5z"/>
	<path class="st9" d="M264.8,158.8c0.8-6.4,8.7-14.9,15.1-15.5c9-0.8,15.7,1.9,24.5-2.5c-5,7.6-8.3,17.6-17.2,21.6
		C277,167,274,158.2,264.8,158.8z"/>
	<path class="st9" d="M214.4,178.2c5.4-6.7,15.9-4.1,21.1,0.8c5.6,5.4,2.4,18.5,11.9,20.2c-7.6,5.8-19.9,7.2-25.7-1.8
		C217.4,190.9,225.3,180.3,214.4,178.2z"/>
	<path class="st8" d="M215.3,177.4c2.9,6.3,3.3,13.9-1.2,19.8c-3.6,4.8-10.1,7-13.5,11.9c7.1-6.2-2.9-13.4-1.3-20.9
		c0.8-3.5,4-6.3,7-8.1C208.8,178.6,214.3,178.8,215.3,177.4z"/>
	<path class="st8" d="M221.3,170.9c1.1-6.7,7.2-14.1,13.8-16.5c6.1-2.2,13-0.2,19.2-2.5c-3.3,4-4.8,6-5.8,10.9
		c-0.9,4.4-2.7,8.9-7,11.2c-3.5,2-6.8,1.1-10.3-0.7C226.6,171.1,226.4,169.9,221.3,170.9z"/>
	<path class="st9" d="M168.7,167c13.3,10.1,9,26.3,2.7,38.6c-2.4-8.7-11.3-12-10.9-21.7c0.2-3.7,0.9-7.4,2.9-10.5
		C165.2,170.6,168.1,170.3,168.7,167z"/>
	<path class="st8" d="M114.5,166.6c3.8-6.2,12.2-12.2,19.8-10.8c4.6,0.8,5.5,4.3,8.2,7.7c2.6,3.2,5,4.3,8.5,6.1
		c-7.8,3.9-13.4,9.7-22.2,3.9C123.5,170.1,121.7,164.4,114.5,166.6z"/>
	<path class="st9" d="M114.9,167c6.6,1.1,12.1,2.3,15.5,8.6c3,5.6,3.9,17.3,10.2,20.3c-9.1-0.1-21.1,1.5-26.1-7.8
		c-2-3.6-2.2-8.2-1-12.1C114.4,173.1,117,169.9,114.9,167z"/>
	<path class="st8" d="M113.6,166.6c4,5.8,0.7,17.2-5.2,20.7c-4.7,2.8-13.4-0.6-16.4,4.6c-0.6-5.7,0.9-15.4,4.8-19.7
		C101.9,166.6,107.1,168.4,113.6,166.6z"/>
	<path class="st8" d="M107.1,137.7c5.4-2.2,13.1-7.6,15.2-13.4c1.9-5.1-2.1-9.6-1.9-14.9c-4.5,4-10.9,7.8-12.4,14.1
		C107.4,126.1,109.7,137.7,107.1,137.7z"/>
	<path class="st9" d="M107.6,137.7c9.9-8.5,18.5-1.3,27.4,3.4c-5.2,2.9-8.9,9.2-15.7,7.8C112.4,147.5,112.4,141.5,107.6,137.7z"/>
	<path class="st9" d="M108,138.1c9.1,9.1,2.8,17.2-2.6,25.3c2.5-6.2-6.4-9-6.4-15.4c0-3,1.4-5.8,3.9-7.7
		C104.8,139,107.2,139.4,108,138.1z"/>
	<path class="st9" d="M61.5,159.7c5.1,5.8,7.3,9.4,7.3,17.6c0,6.2-1.8,12.9-4.6,18.2c-4.9-7.7-10.9-11.9-10.5-21.8
		C53.9,168.1,57.1,162.1,61.5,159.7z"/>
	<path class="st9" d="M38.6,131.3c-3.5-6.1-5.5-11.4-12-15.1c-6-3.4-13.7-3.8-19.3-7.8c3.4,2.9,2.9,8.9,4.5,12.9
		c1.8,4.6,3.9,8.7,8.3,11.3c3.4,1.9,7.9,2.9,11.6,1.8C34.7,133.6,35.8,132,38.6,131.3z"/>
	<path class="st8" d="M41.7,155.4c-1.6,7.7-8.1,18.4-17.2,17.2c-7.1-0.9-11.2-10.6-18.8-9.5c5.9-3.4,10.5-8.6,18.3-7.4
		c3.8,0.6,7,3.1,10.8,3.5C36.6,159.5,43.8,157.4,41.7,155.4z"/>
	<path class="st8" d="M256.6,112.3c5.6-4,10.4-9.2,12.5-16.1c2.5-8.4-2.9-16.8-0.1-24.4c-5.4,8-14.5,9.2-16.3,20.5
		C251.9,97.7,260,110.5,256.6,112.3z"/>
	<path class="st9" d="M256.6,108.4c4.8-1.7,13.7-6.6,18.8-5.2c7.1,2,8.7,10,18,10.5c-4,5.8-18,13.7-25.2,9.8
		C262.5,120.3,264,107.6,256.6,108.4z"/>
	<path class="st4" d="M87.6,279c0,7.9,7.9,14.2,17.6,14.2c9.7,0,17.6-6.4,17.6-14.2c0-7.9-7.9-14.2-17.6-14.2
		C95.5,264.8,87.6,271.2,87.6,279z"/>
	<path class="st10" d="M172.6,42.5c5.6-3,8.4-8.9,7.8-15.1c-0.7-7.6-8.8-12-15.9-12.9c-7.2-0.9-13.3,4.2-11.6,12
		C154.1,32.9,167.5,40.9,172.6,42.5z"/>
	<path class="st10" d="M166.2,39.9c-3.5-5.6-7.2-12.5-14.2-14.7c-6.1-1.9-13.6-0.9-16.5,5.5c-3.1,6.8,2.2,12.8,9.2,13.9
		C148.7,45.4,164.9,42.5,166.2,39.9z"/>
	<path class="st10" d="M164,43.8c-6.8-1.7-16-2.6-22.1,2c-5.8,4.4-8.7,12.7-3.8,18.7c5.3,6.5,15.4,6.2,22.4,2.7
		c7.4-3.6,9.8-11.2,10.3-18.7C171,47.1,163.6,45,164,43.8z"/>
	<path class="st10" d="M170,49.4c-3.3,4.7-1.2,16.7,1.8,21.5c3.7,5.8,11.8,8.4,18.4,6.1c7.9-2.8,5.9-11.6,2.1-16.8
		C186.2,51.7,179.5,52.1,170,49.4z"/>
	<path class="st10" d="M173.1,50.7c8.1,2.2,13.6,6.6,22.8,6.5c6.5-0.1,15.7-4.7,13.8-12.9c-1.8-7.8-14.4-10.2-21.1-9.9
		c-3.3,0.2-6.6,0.6-9.5,2.5C175.6,39,175.8,48.5,173.1,50.7z"/>
	<path class="st10" d="M112.3,80.4c6.6-3.5,11.6-5,14.6-13.4c2.8-7.8-1.2-15.1-9.8-15.1c-6.9,0-10.8,3.6-12.1,10.3
		c-0.7,3.3-0.5,6.7,0.3,9.9c0.4,1.4,0.8,2.6,1.4,3.9C107.4,77.5,113.8,80.6,112.3,80.4z"/>
	<path class="st10" d="M108,78.7c-1.5-11.5-24-15.6-28.1-4c-2.4,6.8,1,10.5,8,11.2C95.9,86.8,101.1,80.6,108,78.7z"/>
	<path class="st10" d="M112.3,80c6.7-8.1,26.5-16.9,32.4-3c2.9,6.8,1.6,16.2-6,19.1C127.1,100.4,118.7,87.6,112.3,80z"/>
	<path class="st10" d="M113.6,83c4.9,0.6,13.2,8.2,15.4,12.5c3.2,6.3,1.6,12.4-4.6,15.6c-7.7,4-18.3,2.2-21.2-6.6
		C99.8,94.5,111.9,91.6,113.6,83z"/>
	<path class="st10" d="M108,84.3c0.9,12.7-12.8,30.2-25.9,19c-5.5-4.7-2.1-12.5,3.6-15.4C91.8,84.7,101.9,86.6,108,84.3z"/>
	<path class="st10" d="M246.7,90.8c11.7-4.2,16.3-24.8,0.9-26.7c-6.6-0.8-11.6,4.3-11.2,10.8c0.2,3,1.6,6.1,3,8.7
		C240.7,85.9,246.3,90,246.7,90.8z"/>
	<path class="st10" d="M244.1,94.6c4.9-11.8-18.8-28.2-28.9-21c-6,4.3-1.7,12,2.5,15.9C224,95.1,236.1,94.6,244.1,94.6z"/>
	<path class="st10" d="M239,95.9c-5.8-4.9-18.3-8.6-25.8-6.9c-5.6,1.3-12.1,7.4-10.4,13.8C206.7,117.6,234.2,106.2,239,95.9z"/>
	<path class="st10" d="M238.1,99.8c-5.8,4.4-12,10.1-12.5,17.8c-0.5,7.7,2.1,13,9.8,15.1c6.1,1.6,14.6,1.5,17.9-4.8
		C259.5,115.9,246.7,106.2,238.1,99.8z"/>
	<path class="st10" d="M246.7,102.4c1.2,11.2,20,31.7,32.8,26.3c9.5-4.1,1.5-17.2-3.6-21.6C267.9,100.1,256.9,102.4,246.7,102.4z"/>
	<path class="st10" d="M247.1,94.6c8.4,2.9,15.9,5.2,25,4.7c6.8-0.3,16.4-3.4,12.5-12.5c-2.7-6.2-13.1-13.6-19.8-11.1
		c-7.4,2.7-10.4,11.3-16.4,15.1c0.4,0.8,0.2,0.8,0.7,1.3C248.1,92.6,248,94.2,247.1,94.6z"/>
	<path class="st10" d="M182.1,133c6.3-12.2-5-29.6-19.8-26.3c-14.2,3.2,4,25.3,12.1,25.4L182.1,133z"/>
	<path class="st10" d="M173.5,133c-6.9-7-16-15.6-25.8-17.6c-7.1-1.5-17.9-2.9-20.7,6C121.2,139.5,164.3,137.1,173.5,133z"/>
	<path class="st10" d="M168.3,133.4c-12.8,0-33.3,6.7-28.1,23.7c2.3,7.6,11.7,9.8,17.7,6c7.8-4.9,11.3-16.3,16.4-23.7L168.3,133.4z"
		/>
	<path class="st10" d="M173.1,142c-5.3,10.4-4,28.3,10.3,30.6c6.7,1.1,10.6-2.8,11.7-9C197.2,152.7,180.8,147.4,173.1,142z"/>
	<path class="st10" d="M182.5,144.6c5.3,4.9,9.4,12.9,15.9,16c5.1,2.5,11.6,1.6,12.9-4.8c1.7-7.9-2.4-11.6-8.7-15.1
		c-9.2-5.1-16.4-3.5-26.2-4.3L182.5,144.6z"/>
	<path class="st10" d="M181.7,138.1c7,0.3,17.9-0.1,24.1-3.5c7-3.9,7.3-12,0.8-16.3c-6.5-4.2-16-6.8-21.5-0.9
		C179.4,123.5,186,132.1,181.7,138.1z"/>
	<path class="st10" d="M71,133.4c5.1-14.7-7.6-27.9-22.9-23.2c-7.6,2.3-10.9,8.8-5.5,15C49.1,132.8,62.2,130.6,71,133.4z"/>
	<path class="st10" d="M67.5,136.4c-7.8-2.3-14.9-7.8-23.4-5.6c-6.7,1.7-11.2,7.6-11.5,14.2c-0.5,9.2,9,10.4,16.5,9.1
		c4.1-0.7,7-2.4,9.8-5.3C62.3,145.5,64.9,140.5,67.5,136.4z"/>
	<path class="st10" d="M65.4,138.6c-1.1,2.9-5,6-6.8,9c-1.7,2.9-2.9,5.4-3.5,8.6c-1.3,6.6-1.3,12.2,6,14.8
		c7.8,2.7,12.8-2.2,14.6-9.6c0.6-2.5,0.8-6,0.5-8.6C75.3,146.1,67.3,144.5,65.4,138.6z"/>
	<path class="st10" d="M69.7,141.2c3.9,6.9,7.7,17.2,14.2,22c4.7,3.4,14,4.4,17.1-1.4C110.9,143.4,80.8,141.2,69.7,141.2z"/>
	<path class="st10" d="M72.2,141.2c7.1,2,16.3,3.4,23.7,2.2c6.1-1,11.8-8.5,9.5-15.1c-2.7-7.7-18.6-10.4-25-7.8
		C74,123,71.7,134.7,72.2,141.2z"/>
	<path class="st11" d="M172,42.8c2.9-0.2,3.8-8.6,3.9-11c0.1-5.2-4-7.6-8.6-8.1C154.4,22.1,164.4,43.3,172,42.8z"/>
	<path class="st11" d="M168.4,43.2c7.7-1.7,22-8.3,28,1c3.9,6-1.4,10.7-7.6,9.6C181.2,52.5,173.9,47.9,168.4,43.2z"/>
	<path class="st11" d="M172.3,46.1c4.8,1.3,19.3,14.5,10.3,19c-5.6,2.8-10.2-2.9-11.1-7.7C170.6,52.5,171.8,50.5,172.3,46.1z"/>
	<path class="st11" d="M172,47.4c0.7,8.2-13.6,18.4-19.5,10c-3-4.4,0.8-8.6,4.9-10.4C162,44.9,167.3,46.6,172,47.4z"/>
	<path class="st11" d="M168.7,44.8c-5.2,0.5-28.2-1.7-21.9-11.6c2.7-4.3,8.4-1.6,11.5,0.7C162.9,37.3,166.4,39.7,168.7,44.8z"/>
	<path class="st11" d="M245,95.5c-2.6-4.2-4.1-9-8.2-12c-2.9-2.2-9.5-5.1-12.8-2.3c-4.4,3.7,2.2,8.4,5.4,9.9
		C234.6,93.4,240,94,245,95.5z"/>
	<path class="st11" d="M245.3,93.9c3.5-2,5.8-7.6,7.2-11.3c1.8-5.2,0.6-8.6-4.9-10.4c-4.5-1.5-8.1,1.5-8.1,6.2
		C239.5,83.5,245.2,90,245.3,93.9z"/>
	<path class="st11" d="M247.3,92.9c2.5-2.5,6.3-6.9,10.8-7.8c-0.1,0-0.2-0.1-0.2-0.2c5.7-1.4,15.9-3.7,14.9,6
		C271.6,102.9,253.1,96.4,247.3,92.9z"/>
	<path class="st11" d="M248.5,94.5c6.7-0.3,26.9,8.4,22.7,17.8c-3.1,7-13.3,0.7-16.7-2.6C248.7,103.8,251.3,101.5,248.5,94.5z"/>
	<path class="st11" d="M249.2,95.2c3.2,2.7,3,11.9,2.2,15.8c-1.1,5.3-5.6,9.3-11.3,7.2c-7.1-2.6-5.9-11.3-1.8-15.8
		C241.5,98.6,246,96.6,249.2,95.2z"/>
	<path class="st11" d="M248.9,94.9c-4.8,3.3-8.8,5.9-14.8,7.2c-3.5,0.7-11.7,1.4-12.4-3.6c-0.6-4.5,6.5-6.4,10-6.8
		C236.8,91,245.1,91.5,248.9,94.9z"/>
	<path class="st11" d="M109.9,83.5c3.7-2.1,7.5-2.7,9.9-6.5c2.5-3.9,3.8-9.9-0.2-13.2c-4.9-4-12.5-3.3-13.3,3.5
		C105.5,74.9,105.2,78.4,109.9,83.5z"/>
	<path class="st11" d="M110.6,82.9c-0.3-7.4-18.7-15.9-20-5.6C89.1,88.5,105.1,85.9,110.6,82.9z"/>
	<path class="st11" d="M111.6,83.5c6.3-3.1,18.9-11.9,24.8-2.8c3.8,5.8-2.7,10.7-7.9,10.9C122.3,91.9,115.9,87.5,111.6,83.5z"/>
	<path class="st11" d="M113.8,83.2c4.6,3,6.9,6.3,7.4,11.7c0.4,4.4-0.1,8.8-5.8,8.6c-5.1-0.2-8.1-5.6-7.8-10.3
		C107.9,90.4,110.5,83.6,113.8,83.2z"/>
	<path class="st11" d="M112.2,84.5c0.8,6.4-11.8,19.6-18.2,14.9c-4.4-3.3-2.1-9.5,1.7-12C101.2,83.9,106.3,84.2,112.2,84.5z"/>
	<path class="st11" d="M178.1,134.3c5.2-7.2,2-22.1-9.1-21c-5.1,0.5-5.9,6.2-3.7,10.4C167.8,128.5,174.2,130.8,178.1,134.3z"/>
	<path class="st11" d="M176.5,133.9c-3-4.8-25.4-18.7-25.8-5.5C150.4,138.5,170.6,137,176.5,133.9z"/>
	<path class="st11" d="M177.8,133.9c1.9-4.9,14.9-16.8,20.1-10c3,3.8-0.9,9.1-4.5,10.8C188.2,137.1,182.9,135.9,177.8,133.9z"/>
	<path class="st11" d="M179.1,133.9c5.7-0.2,20,5.8,18.7,13.3c-2,11.9-22.2-12.8-23.9-16.2L179.1,133.9z"/>
	<path class="st11" d="M176.8,133.9c4.3,3.7,18.3,24.3,4.6,24.2C168.7,158.1,171.3,139.7,176.8,133.9z"/>
	<path class="st11" d="M176.2,135.2c-0.2,4.7-6.4,13-10,15.8c-4.8,3.8-13.8,4.1-13.6-3.9c0.2-6.2,6.1-9.9,11.2-11.6
		c2.6-0.9,5.3-1.2,8.1-1.4C173.3,134.1,177.3,134,176.2,135.2z"/>
	<path class="st11" d="M70.2,137.5c2.8-8.4-5.6-23.4-15.5-17.1C41.2,128.9,68.9,141.4,70.2,137.5z"/>
	<path class="st11" d="M71.5,138.1c-6.3,0.2-13.6-5.3-20-2.3c-3,1.5-7.2,5.9-6.1,9.7c1.4,5,8.5,4.4,12.2,3
		C63.9,146.2,67.4,142.5,71.5,138.1z"/>
	<path class="st11" d="M70.5,139.4c2.9-8.1,10.9-16.4,20.4-12c6.1,2.9,3.3,10.7-2.3,12.5C82.1,142.1,77,139.3,70.5,139.4z"/>
	<path class="st11" d="M70.2,140.1c6.3-0.4,19.9,2.4,19.4,11.1c-0.4,6.7-8.1,5.6-12.3,2.8C72.3,150.7,71.4,145.5,70.2,140.1z"/>
	<path class="st11" d="M69.6,140.4c4.1,2.5,3.3,13.2,2.6,17.4c-0.9,5.3-5.9,7.7-10.7,4.9c-5.4-3-6.1-11.4-2.3-15.8
		C61.9,143.7,65.4,140.8,69.6,140.4z"/>
	<path class="st12" d="M163.4,40.6c1.4-3.4,8.6-3.5,11.6-2.6c3.7,1,8.6,5,5.9,9.1C175.9,54.4,159.7,49.5,163.4,40.6z"/>
	<path class="st12" d="M107.1,75.7c4.9-1.5,13.2,1.1,15.7,5.6c2.7,4.9,0.4,9.7-5.2,10.1c-5.6,0.5-12-2-13.4-7.9
		C103.3,79,102.7,77.1,107.1,75.7z"/>
	<path class="st12" d="M61.5,133.2c4.4-3,11.6-1.9,15.3,1.6c3.6,3.4,5.9,9.8-0.3,11.4c-5,1.3-12.6,0.5-16.1-3.7
		C57.3,138.7,57.5,135.9,61.5,133.2z"/>
	<path class="st12" d="M169.4,126.9c8.8-6.8,25.5,11.2,14.3,14.4c-5.2,1.5-12.6-0.3-15.3-5.2c-1-1.8-1.3-3.8-1-5.8
		C167.7,127.8,167.4,128.5,169.4,126.9z"/>
	<path class="st12" d="M241.5,90.8c3.3-3,7.4-3.3,11.4-1.4c4,1.9,7,7.4,3.3,10.9C248.9,107.2,233.7,97.9,241.5,90.8z"/>
	<path class="st9" d="M209.5,138.1c4.3-1.6,6.8-5,12-4.8c6,0.2,11.8,5.9,17.7,7.5c-2.8,5.3-11.8,8.6-17.4,6.5
		c-3.1-1.2-5.1-4-7.5-6.1C211.5,138.7,212.2,139.2,209.5,138.1z"/>
</g>
</svg>
