<?xml version="1.0" encoding="utf-8"?>
<!-- Generator: Adobe Illustrator 24.0.2, SVG Export Plug-In . SVG Version: 6.00 Build 0)  -->
<svg version="1.1" id="Layer_1" xmlns="http://www.w3.org/2000/svg" xmlns:xlink="http://www.w3.org/1999/xlink" x="0px" y="0px"
	 viewBox="0 0 1370 911" style="enable-background:new 0 0 1370 911;" height="911" width="1370" xml:space="preserve">
<style type="text/css">
	.st0{opacity:0.2;fill:#00689A;}
	.st1{clip-path:url(#SVGID_2_);fill:#7EA840;}
	.st2{opacity:0.3;clip-path:url(#SVGID_2_);fill:#EAE5E1;}
	.st3{opacity:0.6;clip-path:url(#SVGID_2_);fill:#FDFDFB;}
	.st4{fill:#BFD298;}
	.st5{fill:#F1F4EE;}
	.st6{fill:#6CAF44;}
	.st7{fill:#5C9741;}
	.st8{fill:#D9D3C8;}
	.st9{fill:#C6BFB0;}
	.st10{fill:#EAE5E1;}
	.st11{fill:#949BC4;}
	.st12{fill:#7A85AE;}
	.st13{opacity:0.5;fill:#B3B8DD;}
	.st14{fill:#B3B8DD;}
</style>
<g>
	<rect x="-5.9" y="-0.1" class="st0" width="1385.6" height="552.6"/>
	<g>
		<defs>
			<rect id="SVGID_1_" x="-1.8" y="173.8" width="1371.4" height="739.7"/>
		</defs>
		<clipPath id="SVGID_2_">
			<use xlink:href="#SVGID_1_"  style="overflow:visible;"/>
		</clipPath>
		<path class="st1" d="M1381.8,923.7l-1.4-468.7c-194.4-61.4-431.2-79-604.7-49.7c-187.6,31.7-273.6,96.3-497.5,91.9
			c-94.7-1.9-191.8-5.1-286.1-14.3v440.7H1381.8z"/>
		<path class="st2" d="M-70.2,428.7c54.9,28.9,210.5,74.9,439.1,24.2c156.2-34.6,304.3-41.2,440,4.7
			c122.1,41.3,204.1-30.5,387.1-46.9c107.3-9.6,281.9,46.9,281.9,46.9s-46.1-192.2-51.8-192.6c-5.6-0.4-1450.1-4.6-1450.1-4.6
			L-70.2,428.7z"/>
		<path class="st3" d="M-21.6,216.3c67.4-6.9,152.5-10,265.4,33.5C363.6,296,447,309.9,543.4,277.2s187.9-60.9,280.8-48.6
			s195.5,65.6,314.8,36.6c119.3-29,247.9-36.6,247.9-36.6l-1.9-80.1l-1417.3-3.2L-21.6,216.3z"/>
	</g>
	<g>
		<g>
			<path class="st4" d="M101.5,282.5c5.7-11.9,19.8-44.9,1.7-48.8c-29.9-6.5-41.7,46.3-35.9,61.8C75.8,318.2,95.8,294.3,101.5,282.5
				z"/>
			<path class="st4" d="M53.4,328c1.3-16.8-5.2-34.7-16.4-47.1c-7.6-8.4-20.5-10.3-28,2.4c-8.1,18.5-2.8,37.9,12.4,55
				c4.7,5.3,11.9,11.3,19.5,9.4C49.4,345.6,52.8,335.7,53.4,328z"/>
			<path class="st4" d="M122,298.9c-14.9-2.5-28.2,5.1-38.1,15c-10.9,10.8-17.9,31.2,2.5,35.7c16.9,3.8,43.3-7,52.1-22.3
				C141.5,322.2,146.4,303.1,122,298.9z"/>
			<path class="st4" d="M127.6,364.5c-7.7-18.4-43.5-14.1-58.9,0c-13.9,12.7-22.1,36,0.5,43.9c16.2,5.7,35.5-2.7,46.4-15
				C124.4,383.3,131,372.6,127.6,364.5z"/>
			<path class="st4" d="M13.8,348.2c-12.1-12.3-25.2-3.9-25.9,11c-1.5,17.1-1.1,27.2,2.3,36.6c5.1,14,22,23,32.6,8.7
				C34.3,388.9,26.5,361,13.8,348.2z"/>
			<path class="st4" d="M62.1,430c-11.5,3.7-21.5,14.5-23.8,25.3c-2.8,13.5,8.4,25.4,21.7,24.2c14.3-1.3,28.7-14.1,33.7-28.1
				C97.8,440.1,88.8,421.6,62.1,430z"/>
			<path class="st4" d="M45.9,509.1c-12.5,4-23.2,15.6-25.7,27.3c-3,14.5,9.1,27.4,23.4,26.1c15.4-1.4,31-15.2,36.4-30.4
				C84.4,519.9,74.7,499.9,45.9,509.1z"/>
			<path class="st4" d="M-39.1,412.5c-17.8,8.7-8.3,37.8-3.3,49.1c5,11.4,16.4,27.4,31,23c19.3-5.8,24.1-35.2,15.9-50.8
				C-2.9,419.7-25.7,405.9-39.1,412.5z"/>
			<path class="st4" d="M-62.3,482.3c-18.9,6-13.7,36.1-10.5,48.1c3.3,12,12.2,29.5,27.3,27.3c19.9-2.9,29-31.3,23.2-47.9
				C-27.6,494.8-48.1,477.8-62.3,482.3z"/>
		</g>
		<path class="st5" d="M123.7,319.4c1.6-1.1-0.1-3.5-1.7-2.4c-26.8,16.9-50.8,37.7-77.3,55c12.6-36.5,26.9-72.4,44.2-106.8
			c0.9-1.7-1.8-2.9-2.7-1.3c-15.6,29.3-28.7,60-40.2,91.2c-6.8-16.9-12.6-33.8-12.7-52.4c0-1-1.7-1.1-1.8-0.1
			c-1.3,18.5,2.9,41.2,12.8,57.3c-1.9,5.2-14.7,43.5-18.5,55.6C16,399.7,7.3,380.4,9.2,361.7c0.1-0.9-1.3-1.4-1.6-0.5
			c-5.8,18.2,5.7,43.9,16.9,58.5C19.1,437,5.8,483.9,4.1,490c-11.2-20.6-15.8-42.1-22.8-64.4c-0.5-1.6-2.9-0.7-2.4,0.9
			c6.7,22.9,8.9,49,23.9,68.5c-7.4,27.7-14,55.7-19.3,84c-9-12.3-34.5-49.7-40.2-84.4c-0.2-1-1.5-1.2-1.5-0.3
			c-1.1,34.7,29.1,76.9,40.8,89.8c-6.7,36.9-11.1,74.1-12.1,111.5c-0.1,2.2,3.7,2.3,3.8,0.1c2.1-35.1,6.4-69.9,12.3-104.3
			c0.4-0.3,52.2-47,79.3-65.3c1.6-1.1-0.1-3.4-1.7-2.4c-28,17-76.2,61.3-76.4,61c4.6-25.5,10.1-50.8,16.4-76
			c19.9-31.5,53.8-44,82.1-66c1.2-0.9-0.1-2.7-1.4-1.9c-27,17.2-60.9,32.3-78.8,60.2c2.3-8.9,17.3-62.5,22.8-80.4
			c12.8-8.6,27.8-13.4,41-21.5c14.7-9.1,28.5-19.2,43.7-27.5c1.3-0.7,0.1-2.7-1.2-2.2c-15.8,6-29,16.8-43,25.9
			c-12.6,8.1-26.7,13.4-39.3,21.5c4.2-13.6,8.5-27.1,13.1-40.6C71.9,360.4,97.1,338.4,123.7,319.4z"/>
	</g>
	<g>
		<path class="st6" d="M50.4,668c5.2-13.8,8.7-29.1,3.3-38.6c0,0,0.5,21.1-15.9,38.6H50.4z"/>
		<path class="st6" d="M32.5,668h17c5.6-31.8-10.2-47.3-10.2-47.3C46.4,638.5,39.8,655.9,32.5,668z"/>
		<path class="st7" d="M32.9,668H43c12-23.9-13.4-36.4-13.4-36.4C40.6,646.2,41,659.2,32.9,668z"/>
		<path class="st7" d="M86.9,668c-3.2-10.6-2.7-24.1,3.4-36.5c0,0-16.8,12.2-13,36.5H86.9z"/>
		<path class="st6" d="M30.7,668c-0.9-9.8-6.8-21.9-21.5-34.4c0,0,30.7,7.5,28.1,34.4H30.7z"/>
		<path class="st6" d="M88.3,668c1.7-8.9,7.6-19.5,19.8-29.3c0,0-28.1,4.1-28.4,29.3H88.3z"/>
		<path class="st6" d="M84.4,668c-14-18.7-6.9-38.3-6.9-38.3c-7.9,11.9-10.4,23.7-6,38.3H84.4z"/>
		<path class="st6" d="M61.4,668c-2.5-9.2-4-18.1,1-29.3c0,0-10.7,14.7-10.5,29.3H61.4z"/>
		<path class="st7" d="M72.7,668c-3.1-10.4-8.2-32-2.2-45.7c0,0-12,20.2-7.4,45.7H72.7z"/>
		<path class="st6" d="M67.1,668c-4.9-9.8-0.4-19.7,3.1-27.1c0,0-15.5,12.2-13,27.1H67.1z"/>
		<path class="st7" d="M62.4,668c-6.2-7.1-13.7-18.3-11.3-28c0,0-6.4,11.4-1.3,28H62.4z"/>
	</g>
	<g>
		<path class="st6" d="M950.4,718.9c5.2-13.8,8.7-29.1,3.3-38.6c0,0,0.5,21.1-15.9,38.6H950.4z"/>
		<path class="st6" d="M932.5,718.9h17c5.6-31.8-10.2-47.3-10.2-47.3C946.5,689.3,939.8,706.7,932.5,718.9z"/>
		<path class="st7" d="M932.9,718.9H943c12-23.9-13.4-36.4-13.4-36.4C940.6,697,941,710,932.9,718.9z"/>
		<path class="st7" d="M986.9,718.9c-3.2-10.6-2.7-24.1,3.4-36.5c0,0-16.8,12.2-13,36.5H986.9z"/>
		<path class="st6" d="M930.7,718.9c-0.9-9.8-6.8-21.9-21.5-34.4c0,0,30.7,7.5,28.1,34.4H930.7z"/>
		<path class="st6" d="M988.3,718.9c1.7-8.9,7.6-19.5,19.8-29.3c0,0-28.1,4.1-28.4,29.3H988.3z"/>
		<path class="st6" d="M984.4,718.9c-14-18.7-6.9-38.3-6.9-38.3c-7.9,11.9-10.4,23.7-6,38.3H984.4z"/>
		<path class="st6" d="M961.4,718.9c-2.5-9.2-4-18.1,1-29.3c0,0-10.7,14.7-10.5,29.3H961.4z"/>
		<path class="st7" d="M972.7,718.9c-3.1-10.4-8.2-32-2.2-45.7c0,0-12,20.2-7.4,45.7H972.7z"/>
		<path class="st6" d="M967.1,718.9c-4.9-9.8-0.4-19.7,3.1-27.1c0,0-15.5,12.2-13,27.1H967.1z"/>
		<path class="st7" d="M962.4,718.9c-6.2-7.1-13.7-18.3-11.3-28c0,0-6.4,11.4-1.3,28H962.4z"/>
	</g>
	<g>
		<g>
			<g>
				<path class="st8" d="M1296.1,743.7c6.8,1.9,13.8,3.5,20.9,2.3c12.1-1.9,21.4-10.2,29-19.3c-3.6-6.8-13.3-12.5-20.3-14.5
					c-8-2.3-14.9,2.4-22,5.7c-6.9,3.2-16.6,6-19.8,13.5c-1.3,3.2-1.5,6-0.9,8.4c0,0,0,0,0,0C1286.8,739.6,1292.4,742.7,1296.1,743.7
					z"/>
				<path class="st9" d="M1313.9,755c9.8,0.4,17.9-4.2,25.7-11c4.6-4,9.4-11.3,6.6-17.1c-0.1-0.1-0.1-0.2-0.2-0.3
					c-7.6,9.1-17,17.4-29,19.3c-7.1,1.1-14.1-0.4-20.9-2.3c-3.6-1-9.3-4.1-13.1-3.8c0,0,0,0,0,0
					C1285.8,751.2,1306.8,754.7,1313.9,755z"/>
			</g>
			<path class="st9" d="M1319.4,730.4c-2.3-1.4-4.5,0.7-6.4,1.7c-5.9,2.8-7.8-0.6-12-3.5c-0.9-0.7-1.8-1.1-3-1.1c-1.2,0-6,3.3-6,6.2
				c0.1,2.1,4.4,3.9,6.4,4.9c3.3,1.7,6.7,2.5,10.4,1.6c2.1-0.5,4-1.5,5.9-2.6c1.3-0.7,4-1.1,5.6-3.7
				C1321.3,732.7,1320.7,731.2,1319.4,730.4z"/>
			<path class="st10" d="M1328.4,717.3c-3.8-1.5-7.5-1.1-11.2,0c-3.4,1.1-8.8,1.9-9.7,4.4c-0.7,2.1,1.4,2.9,3.1,3.2
				c2.4,0.4,4.4-1.1,6.7-1.4c3-0.4,7.5,2,9.6,3.9c0.5,0.5,0.7,1.2,1.3,1.7c2.9,2.1,7.8,0.6,10.7-0.8c0.4-0.2,0.6-0.7,0.6-1.1
				C1340.1,722.3,1332.2,718.8,1328.4,717.3z"/>
		</g>
		<g>
			<g>
				<path class="st8" d="M522.7,779.2c7,3.1,16.1,5.9,23.6,3.8c4.7-1.3,8.8-4.2,12.9-6.8c2.4-1.5,12.6-7.9,15.8-7.6
					c1.1-0.2,2.2-0.3,3.3-0.3c-0.4-3.9-1.8-7.9-4.5-10.1c-2.9-2.4-7.4-2.6-10.9-3.4c-5.7-1.3-11.7-1.6-17.1-3.8
					c-6.5-2.6-17.7-9.3-27.7,1.5c-4.7,5.1-8.2,11.1-8.7,16.6c0.1,0.1,0.3,0.2,0.4,0.2C514.7,772.4,517.3,776.8,522.7,779.2z"/>
				<path class="st9" d="M512.2,777.8c5.6,6.8,15.2,13.2,23.9,14.7c9.3,1.6,19.8-2.5,28.7-5.1c6.4-1.8,11.4-4.6,13-11.6
					c0.5-2.2,0.7-4.8,0.4-7.5c-1.1,0-2.2,0.1-3.3,0.3c-3.3-0.3-13.5,6.1-15.8,7.6c-4,2.6-8.2,5.5-12.9,6.8
					c-7.5,2.1-16.6-0.7-23.6-3.8c-5.4-2.4-8-6.8-12.7-9.8c-0.1-0.1-0.3-0.2-0.4-0.2C509.3,772.2,510.1,775.2,512.2,777.8z"/>
			</g>
			<path class="st10" d="M570.7,759.6c-1.1-2.4-7.4-1.1-11.4-1.3c-6.8-0.3-9.6-5.3-16.3-5.3c-4.5,0-6.6,1.1-4.5,2.6
				c2.4,1.7,3.6,3.7,6,5.3c2.1,1.5,3.1,2.6,4.5,4.7c0.3,0.4,0.3,1,0.6,1.4c3.1,3.7,10.6-1.2,14-2.5
				C564.8,764.1,572.2,762.7,570.7,759.6z"/>
			<path class="st9" d="M555.4,771.8c-0.5-0.9-4.1,0.4-4.8-0.5c-2.7-3.7-3.4-4.3-6.7-6.1c-4.8-2.6-9.7-6.7-8.6-4.4
				c1.5,3.1,7.7,6.9,7,11.9c-0.7,5.1-1.9,6.4,2.8,4.9C549.8,776.1,557.5,775.4,555.4,771.8z"/>
			<path class="st9" d="M524.8,773.9c-1.1,0.1-1.5,2.9,3.3,3.1c4.8,0.3,7.7,0,8.9-1.9c1.2-1.9,3.1-4.9,0.9-4.4
				c-2.2,0.5-2.3,2.6-5.1,3.1C530.1,774.4,528.7,773.3,524.8,773.9z"/>
			<path class="st10" d="M526.4,752c-1,0.3-1.9,1.1-2.6,2c-1.5,1.8-2.3,2.8-4.2,4.2c-0.9,0.7-1.7,1.3-2.3,2.3
				c-1.8,3.7,2.6,8,5.6,4.5c0.5-0.6,0.7-1.7,1.1-2.3c0.5-0.8,1.2-1.4,1.9-1.9c1-0.7,2.1-1.2,3.1-1.8c1.6-1,3.6-2.2,4.1-4.1
				C534.2,751.2,529.1,750.4,526.4,752z"/>
		</g>
		<g>
			<g>
				<path class="st8" d="M680.7,843.9c9.3-1.1,16.2-7.5,24.5-10.2c-0.8-2.2-2.4-4.2-4.2-5.7c-4.6-3.9-9.5-3.2-14.6-4
					c-6.7-1-14.9-0.5-20.6,1.8c-2.3,0.9-5.8,2.3-7.5,4.6c2.1,1.5,4.2,3,6,4.8C669.3,840.2,672.7,844.8,680.7,843.9z"/>
				<path class="st9" d="M657.4,834.1c0.9,5.1,8.5,12.1,12.6,14.5c5.3,3,11.6,3.2,17.4,1.6c5.3-1.5,15-4.9,17.7-10.2
					c1.1-2.2,1-4.4,0.2-6.4c-8.3,2.7-15.3,9.1-24.5,10.2c-8,0.9-11.4-3.7-16.3-8.6c-1.8-1.8-3.9-3.4-6-4.8
					C657.6,831.5,657.2,832.7,657.4,834.1z"/>
			</g>
			<path class="st10" d="M678.4,825.5c-1.8,0-11.7,0.6-11,4.2c0.9,4.7,14.1,1.4,16.1,1.3c3,0,19.7,4.1,15.9-0.5
				C695.8,826.3,684,825.6,678.4,825.5z"/>
		</g>
		<g>
			<path class="st11" d="M1264.8,770.9c3.8,2.1,9.9,3.3,14.3,3c7.5-0.6,15.1-3.5,19.1-9.6c-1.3-1.7-3.3-3.3-5.2-5.3
				c-7.6-7.6-21.7-5.9-30.3-3.4c-1.3,0.4-2.4,0.8-3.4,1.4C1257.7,763.1,1258.8,767.6,1264.8,770.9z"/>
			<path class="st12" d="M1258.3,772.9c8.7,7.1,19.9,7.7,26.4,6c5.9-1.6,11-3.8,13.4-6.5c2.8-3.2,2.1-5.6,0.1-8.1
				c-4,6.1-11.7,9-19.1,9.6c-4.4,0.3-10.5-0.9-14.3-3c-6-3.3-7.1-7.8-5.5-13.9C1251.3,761.1,1253.4,768.9,1258.3,772.9z"/>
			<path class="st13" d="M1271.1,757.7c-4.6,1-11.1,4.5-5.5,9.4c5.2,4.6,15.4,5,21.7,3.2c2.4-0.7,5.1-2.2,5-5.1
				C1292.1,762,1278.8,756,1271.1,757.7z"/>
			<path class="st14" d="M1285.6,765.7c-0.7-1.6-6-1.5-7.3-1.6c-2.4-0.2-4.9-0.7-7.3-0.6c-1.6,0-3.2,1.1-1.9,2.8
				c0.9,1.1,2.8,1.5,4.1,1.9c2.1,0.6,4.2,0.9,6.3,1C1282.1,769.2,1286.9,768.6,1285.6,765.7z"/>
		</g>
	</g>
	<g>
		<path class="st6" d="M867.9,833c5.2-13.8,8.7-29.1,3.3-38.6c0,0,0.5,21.1-15.9,38.6H867.9z"/>
		<path class="st6" d="M850,833h17c5.6-31.8-10.2-47.3-10.2-47.3C863.9,803.4,857.3,820.8,850,833z"/>
		<path class="st7" d="M850.4,833h10.1c12-23.9-13.4-36.4-13.4-36.4C858,811.2,858.5,824.2,850.4,833z"/>
		<path class="st7" d="M904.4,833c-3.2-10.6-2.7-24.1,3.4-36.5c0,0-16.8,12.2-13,36.5H904.4z"/>
		<path class="st6" d="M848.2,833c-0.9-9.8-6.8-21.9-21.5-34.4c0,0,30.7,7.5,28.1,34.4H848.2z"/>
		<path class="st6" d="M905.8,833c1.7-8.9,7.6-19.5,19.8-29.3c0,0-28.1,4.1-28.4,29.3H905.8z"/>
		<path class="st6" d="M901.8,833c-14-18.7-6.9-38.3-6.9-38.3c-7.9,11.9-10.4,23.7-6,38.3H901.8z"/>
		<path class="st6" d="M878.8,833c-2.5-9.2-4-18.1,1-29.3c0,0-10.7,14.7-10.5,29.3H878.8z"/>
		<path class="st7" d="M890.2,833c-3.1-10.4-8.2-32-2.2-45.7c0,0-12,20.2-7.4,45.7H890.2z"/>
		<path class="st6" d="M884.5,833c-4.9-9.8-0.4-19.7,3.1-27.1c0,0-15.5,12.2-13,27.1H884.5z"/>
		<path class="st7" d="M879.9,833c-6.2-7.1-13.7-18.3-11.3-28c0,0-6.4,11.4-1.3,28H879.9z"/>
	</g>
	<g>
		<path class="st6" d="M449.3,795.2c5.2-13.8,8.7-29.1,3.3-38.6c0,0,0.5,21.1-15.9,38.6H449.3z"/>
		<path class="st6" d="M431.4,795.2h17c5.6-31.8-10.2-47.3-10.2-47.3C445.3,765.6,438.7,783,431.4,795.2z"/>
		<path class="st7" d="M431.8,795.2h10.1c12-23.9-13.4-36.4-13.4-36.4C439.4,773.4,439.9,786.4,431.8,795.2z"/>
		<path class="st7" d="M485.8,795.2c-3.2-10.6-2.7-24.1,3.4-36.5c0,0-16.8,12.2-13,36.5H485.8z"/>
		<path class="st6" d="M429.6,795.2c-0.9-9.8-6.8-21.9-21.5-34.4c0,0,30.7,7.5,28.1,34.4H429.6z"/>
		<path class="st6" d="M487.1,795.2c1.7-8.9,7.6-19.5,19.8-29.3c0,0-28.1,4.1-28.4,29.3H487.1z"/>
		<path class="st6" d="M483.2,795.2c-14-18.7-6.9-38.3-6.9-38.3c-7.9,11.9-10.4,23.7-6,38.3H483.2z"/>
		<path class="st6" d="M460.2,795.2c-2.5-9.2-4-18.1,1-29.3c0,0-10.7,14.7-10.5,29.3H460.2z"/>
		<path class="st7" d="M471.6,795.2c-3.1-10.4-8.2-32-2.2-45.7c0,0-12,20.2-7.4,45.7H471.6z"/>
		<path class="st6" d="M465.9,795.2c-4.9-9.8-0.4-19.7,3.1-27.1c0,0-15.5,12.2-13,27.1H465.9z"/>
		<path class="st7" d="M461.3,795.2c-6.2-7.1-13.7-18.3-11.3-28c0,0-6.4,11.4-1.3,28H461.3z"/>
	</g>
	<g>
		<path class="st6" d="M1222.3,834.8c5.2-13.8,8.7-29.1,3.3-38.6c0,0,0.5,21.1-15.9,38.6H1222.3z"/>
		<path class="st6" d="M1204.4,834.8h17c5.6-31.8-10.2-47.3-10.2-47.3C1218.4,805.3,1211.7,822.7,1204.4,834.8z"/>
		<path class="st7" d="M1204.8,834.8h10.1c12-23.9-13.4-36.4-13.4-36.4C1212.5,813,1212.9,826,1204.8,834.8z"/>
		<path class="st7" d="M1258.8,834.8c-3.2-10.6-2.7-24.1,3.4-36.5c0,0-16.8,12.2-13,36.5H1258.8z"/>
		<path class="st6" d="M1202.6,834.8c-0.9-9.8-6.8-21.9-21.5-34.4c0,0,30.7,7.5,28.1,34.4H1202.6z"/>
		<path class="st6" d="M1260.2,834.8c1.7-8.9,7.6-19.5,19.8-29.3c0,0-28.1,4.1-28.4,29.3H1260.2z"/>
		<path class="st6" d="M1256.3,834.8c-14-18.7-6.9-38.3-6.9-38.3c-7.9,11.9-10.4,23.7-6,38.3H1256.3z"/>
		<path class="st6" d="M1233.3,834.8c-2.5-9.2-4-18.1,1-29.3c0,0-10.7,14.7-10.5,29.3H1233.3z"/>
		<path class="st7" d="M1244.6,834.8c-3.1-10.4-8.2-32-2.2-45.7c0,0-12,20.2-7.4,45.7H1244.6z"/>
		<path class="st6" d="M1239,834.8c-4.9-9.8-0.4-19.7,3.1-27.1c0,0-15.5,12.2-13,27.1H1239z"/>
		<path class="st7" d="M1234.3,834.8c-6.2-7.1-13.7-18.3-11.3-28c0,0-6.4,11.4-1.3,28H1234.3z"/>
	</g>
</g>
</svg>
