<?xml version="1.0" encoding="utf-8"?>
<!-- Generator: Adobe Illustrator 24.0.2, SVG Export Plug-In . SVG Version: 6.00 Build 0)  -->
<svg version="1.1" id="Layer_1" xmlns="http://www.w3.org/2000/svg" xmlns:xlink="http://www.w3.org/1999/xlink" x="0px" y="0px"
	 viewBox="0 0 414 432" style="enable-background:new 0 0 414 432;" height="432" width="414" xml:space="preserve">
<style type="text/css">
	.st0{fill:#333532;}
	.st1{fill:#4BA647;}
	.st2{fill:#599B43;}
	.st3{opacity:0.32;fill:#599B43;}
	.st4{fill:#3F7A3A;}
	.st5{fill:#6A6B69;}
	.st6{fill:#515250;}
	.st7{fill:#131512;}
</style>
<g>
	<path class="st0" d="M57,381.3c0.4-0.3,0.2-0.8,1.1-0.7c0.5-4.2-2.5-7.2-2.1-11.7c0.3-3.8,1.9-9.2,3.5-12.8
		c4.1-9.2,15-13.8,24.7-14.2c10.6-0.5,26,6.1,30.3-6.5c3.4-9.8-0.4-21.5,9-28.8c4.5-3.6,10.3-4.2,15.7-5.1c6.6-1.2,13-3.4,19.5-4.8
		h-4.1c4.7-2,8.3-5.5,12.7-8.1c3.7-2.2,7.4-3.5,11.1-5.4c2.2-2.6,4.1-8.2,8-9.8c0.4-3.9,6.2-8,10-9.6c-0.1,0.2-0.1,0.5,0,0.7
		c4.4-0.5,8.8,1,13.5,0.2c3-0.2,8.6,1,11.6,1.1c0.9,0.6,1.2,0.8,2.1,1.2c0.8,1.2,0.3,0.6,1.3,1.2c1,1.6,2,2.5,4,3.4
		c2.4,3.2,7.1,4,11.2,6.4c3.1-0.2,6.2,3,9.5,3.7c0.4,1.8,0.8,2.2,2.2,3.9c-0.5,2.7,1.7,6.3,2.6,9.3c0.2-0.1,0.3-0.2,0.5-0.3
		c0.3,2.2,1.3,3.9,3.1,4.7c2.1,5.3,6.9,5.4,11.6,5.1c0.5-0.3,0.7-0.7,1.2-1c0.1,0,0.3,0.3,0.1,0.3c1-0.6,2.3-1.2,3.4-1.7
		c0.4,1.1,0.6,0.3,1.7,1c-0.6,0.2-1.1,0-1.3-0.5c5.5,0,10.7,0.3,16.1,1.2c6.4,1.1,8.8,4.5,14.1,7.2c8.6,4.4,19.8,3.7,28.7,8.8
		c3.6,2.1,6.4,5.2,9.7,7.5c4,2.8,8.6,4.1,13.4,5.9c4,1.5,9.3,2.7,11.9,6.4c2.9,4.2,0,9.6,3.4,13.5l-2.4,1.2
		c7.4,3.2,15.8,6.8,23.5,10.2c5.5,2.4,18.5,1.1,19.3,9.7c-7.7-0.1-15.2-2.1-23.4-1.7c-5.3,0.3-6.8,2.2-11.3,4
		c-3.5,1.4-7.4,0.4-11,0.3c-3.6-0.2-8.8-1-12.4-0.1c-3.5,0.9-6,3.7-9.4,5.3c-6.3,3-19.7,1.9-13.7,11.7c3.2,5.1,19.2,15.3,14.3,21.6
		c-4.7,6.1-33.4,3.2-39.9,2.3c-11.1-1.5-21.5-7.8-32-11c-9.3-2.9-20.2-8.6-29.8-8.2l1.8,0.6c-5.2,0.4-10.6-1-15.9-0.7
		c-3.6,0.2-7.8,0.6-11.1,0.7c-8.1,0.4-15.5,2-23.5,3c-1.1,5,5.3,4.8,6.9,8c-16.5,1-33.1,3.5-49.9,2.5c-8.2-0.5-7.7-2.7-11.3-8.8
		c-4-7-9.3-5.6-16.3-7c-10.7-2.1-19.8-6.5-30.7-2.5c-4.9,1.8-9.6,5.8-15.2,4.8c-3-0.5-3.7-2.9-7.6-2.8c-2.5,0-4.8,1.1-7.2,1.9
		c-11.4,3.8-21.4,7.6-33.4,5.2c-4.9-1-9.2-4.8-14.1-5.3c-4.5-0.5-9,1.9-13.5,2.3c-1.1-5.7,6.4-6.8,10.5-7c6.5-0.3,8.7,1.3,14.3-2.8
		c7.9-5.7,16.8-5,24.4-10C53.3,379.1,55.7,379.5,57,381.3L57,381.3z"/>
	<g>
		<path class="st1" d="M208.5,200.5c2.8,43.4,5.3,85.5,5.5,101c0,0-0.1,0-0.1,0c-3.4-1-7.2-1.6-11.4-1.6c-0.1,0-0.1,0-0.2,0
			c-0.6-13.7-1.9-45.9-3.1-81.7c-0.4-1.8-0.8-3.6-1.2-4.9c-1.5-3.8-4-7.2-6.2-10.5c-2.8-4.1-8.5-8.6-8.6-13.6
			c6.3,5,11.3,10.1,15.7,16.6c-2.1-65-3.4-135.2,1.2-129c0,0,3.3,45.1,6.6,95.7c12.3-12.5,43.3-66,51.1-68.2
			C257.7,104.5,213.6,171.4,208.5,200.5L208.5,200.5z"/>
		<path class="st2" d="M262.4,24.9c-3.4,4.2-4.8,9.7-5.7,14.9c-1.6,8.9-4.1,18-9.3,25.6c-5.6,8.3-12.1,12.4-22.7,12.6
			c-5.6,0.1-10.5-2.6-16.2-2.1c-1.5,0.1-2.9,0.3-4.2,1c0-2.4-2.3-5.2-3.7-7.1c-2.6-3.7-4.2-7.2-5.6-11.5c-2.4-7.6-1.9-15.5,3.3-21.6
			c3.9-4.5,12.2-5.3,17.9-5.5c7.7-0.3,15.1,0.7,22.8-0.1C247.2,30.2,262.6,25.1,262.4,24.9z"/>
		<path class="st3" d="M198.5,36.7c2.8-3.2,7.7-4.5,12.5-5.1c-0.5,4.9,0.6,10,3.2,14.4c6.6,11.3,23.4,17.4,35.3,10.3
			c1.3-0.8,2.5-1.6,3.7-2.5c-1.4,4.1-3.3,8-5.7,11.6c-5.6,8.3-12.1,12.4-22.7,12.6c-5.6,0.1-10.5-2.6-16.2-2.1
			c-1.5,0.1-2.9,0.3-4.2,1c0-2.4-2.3-5.2-3.7-7.1c-2.6-3.7-4.2-7.2-5.6-11.5C192.7,50.7,193.2,42.9,198.5,36.7z"/>
		<path class="st2" d="M321.3,105.7c-4,1.8-8.7,3.4-12.6-1.4c-3.3-4-4.6-9-7.3-13.4c-6.3-10-16.4-17.3-28.5-17.4
			c-9.8-0.1-17.2,5.2-20.1,14.2c-2.2,6.9-0.9,16.1-0.1,23.5c2.2-4,5.7-7.9,10.4-9.3c5.2-1.6,10.2,1.2,14.8,3.9
			c5.7,3.5,9.6,6.2,16.6,6.2c5.2,0,9.4-2.2,14.8-0.9C314.4,112.4,322.6,112.8,321.3,105.7z"/>
		<path class="st3" d="M278.2,89.8c14.9,8.5,24.9,19.8,41.2,21.1c-2.5,1.5-6.9,1-10,0.2c-5.3-1.4-9.5,0.9-14.8,0.9
			c-7-0.1-10.9-2.8-16.6-6.2c-4.6-2.8-9.6-5.5-14.8-3.9c-4.7,1.5-8.2,5.3-10.4,9.3c-0.4-3.3-0.8-6.9-1-10.6
			C254.4,93.3,264.4,81.9,278.2,89.8z"/>
		<path class="st2" d="M196.5,81.2c1.7-4.3,7.7-7.3,12-8.9c7.4-2.8,15.1-3.9,23.2-1.7c16.2,4.4,26.6,19.2,28.1,35
			c0.8,8.6-2.4,16.4-3.3,24.8c-0.7,6.8,1.3,11,4,17.1c-5.3-4.3-8.5-8.5-15.4-10.8c-7.7-2.7-14.5-1.8-22.3-2.3
			c-12-0.8-29.1-8.9-27.1-23c0.9-6,3.9-11.5,4.7-17.4C200.8,90.1,201.7,82.2,196.5,81.2z"/>
		<path class="st3" d="M198.3,101.6c7.9,5.4,15.4,10.7,26.1,10.4c13.1-0.4,26.2-4.3,33.6-14.6c0.8,2.7,1.4,5.4,1.6,8.2
			c0.8,8.6-2.4,16.4-3.3,24.8c-0.7,6.8,1.3,11,4,17.1c-5.3-4.3-8.5-8.5-15.4-10.8c-7.7-2.7-14.5-1.8-22.3-2.3
			c-12-0.8-29.1-8.9-27.1-23C196.1,108,197.3,104.8,198.3,101.6z"/>
		<path class="st2" d="M171.2,92.9c3.3-3.6,8.8-4.8,13.5-2.9c7.6,3.1,11.4,9.5,11.9,17.4c0.7,10.4-5.1,20.4-13.2,26.5
			c-7.2,5.3-16.1,6.6-24.4,9.6c-3.7,1.3-9.1,3.7-10.7,7.5c-0.3-3.3-0.2-6.2-2.1-9.3c-2.5-4-6.2-7-8.8-11c-4.9-7.8-6.3-16.5-5.1-25.3
			c1.9-13.9,13.2-31.1,29.7-23c2.4,1.2,5.2,3,6.6,5.2c0.7,1.1,1,2.2,1.4,3.3C170.4,91.9,171.9,93.2,171.2,92.9z"/>
		<path class="st3" d="M135.6,94.6c5.1,10.2,12.4,19.1,24.2,23.5c13.2,4.9,25.3,2.3,36.2-3.5c-1.6,7.7-6.4,14.7-12.7,19.4
			c-7.2,5.3-16.1,6.6-24.4,9.6c-3.7,1.3-9.1,3.7-10.7,7.5c-0.3-3.3-0.2-6.2-2.1-9.3c-2.5-4-6.2-7-8.8-11c-4.9-7.8-6.3-16.5-5.1-25.3
			C132.9,101.9,134,98.1,135.6,94.6z"/>
		<path class="st2" d="M128.3,158.6c2.5,0.8,5,1,7.6,1c5.9-0.1,11.7-2.7,17.3-4.5c11.7-3.8,24.7-1.3,31.9,10.2
			c2.9,4.7,3.9,11.7,4.2,17c0.2,3.7,0.8,11.5-1.8,13.8c-4.4,3.8-15.6,6.6-21.1,7.2c-6.8,0.7-12.9,1.5-18.8-2.6
			c-12.9-9.1-11.4-29-16.2-36.9c-0.9-1.5-3-4.1-5.2-6C126.8,158,127.5,158.4,128.3,158.6z"/>
		<path class="st3" d="M154,186c14.2,0.2,24.6-5.1,33.6-14.7c1,3.7,1.5,7.7,1.7,11c0.2,3.7,0.8,11.5-1.8,13.8
			c-4.4,3.8-15.6,6.6-21.1,7.2c-6.8,0.7-12.9,1.5-18.8-2.6c-6.9-4.9-9.7-12.9-11.5-20.5C141.3,183.4,147.9,185.9,154,186z"/>
		<path class="st2" d="M151.6,4.3c0,0,9,10.8,32.1,18.7c15.9,5.5,23.9,19.4,23.7,35.4c-0.1,8.8-3.9,15.9-7,23.7
			c-2.8,0.2-5.6-0.7-8.5-0.3c-3.7,0.4-7.4,1.1-11.1,1.5c-7.2,0.9-13.6-0.4-20.4-3c-13.9-5.4-21.6-18.6-19-32.9
			c1.5-8.1,7.7-14.8,11.4-22.1C155.2,20.5,155.8,8.5,151.6,4.3z"/>
		<path class="st3" d="M173.8,61.7c6.3-1.3,12.5-4.4,16.8-9c2.5-2.7,4.5-5.2,6.4-8.2c0.1-0.2,0.2-0.3,0.3-0.5
			c2.2-2.1,1.6-1.9,0.7-0.9c1.6-1.9,2.8-3.9,3.8-6c3.8,6.1,5.7,13.4,5.6,21.3c-0.1,8.8-3.9,15.9-7,23.7c-2.8,0.2-5.6-0.7-8.5-0.3
			c-3.7,0.4-7.4,1.1-11.1,1.5c-7.2,0.9-13.6-0.4-20.4-3c-13.2-5.1-20.7-17.3-19.3-30.6C149.1,58.9,160.8,64.4,173.8,61.7z"/>
		<path class="st4" d="M159.3,19.2c2.3,6.5,3.2,13.9,5.8,20.6c2.3,5.9,6.2,12.2,10,17.3c4.3,5.7,10.7,9.8,16.7,13.7
			c1.2,0.8,6.7,3.7,5.8,5.4c-1.1,1.9-7.5-2.6-8.7-3.2c-9.6-5.4-19.3-13.8-23.5-23.8C161.3,39.6,159.4,29.4,159.3,19.2z"/>
		<path class="st4" d="M153.6,31.4c0,0,5.1,8.9,10.4,8.4c1.1-0.1-0.2,3.1-0.2,3.1S154.1,37.8,153.6,31.4z"/>
		<path class="st4" d="M167.7,24.8c0,0,2.6,15.4-2.6,18.6l-0.6-2.2C164.5,41.3,168,31.8,167.7,24.8z"/>
		<path class="st4" d="M157.1,49.8c0,0,11.3,8.2,16.8,6.9l1,2.9C174.9,59.7,161.5,57.4,157.1,49.8z"/>
		<path class="st4" d="M177.5,33.6c0,0,3.7,19-2.2,26.1l-1.4-2C173.9,57.7,178.2,42.6,177.5,33.6z"/>
		<path class="st4" d="M188.4,44.2c0,0,7.8,16.2,0.4,26.3l-1.9-1.4C187,69.1,193.1,60.1,188.4,44.2z"/>
		<path class="st4" d="M159.7,67.4c0,0,13,12.9,29.2,3.7l-1.5-1.7C187.4,69.4,173.8,75.6,159.7,67.4z"/>
		<path class="st4" d="M246.7,37.7c0,0-7.5,13.4-24.3,18.3c-13.5,4-18.8,16.4-18.8,16.4s-3.9-10.9,16.7-18.2
			C240.9,46.9,240,43,246.7,37.7z"/>
		<path class="st4" d="M231.7,39.2c0,0-3.1,7.3-2.6,12.1l-1.5,1.2C227.6,52.5,227,44.4,231.7,39.2z"/>
		<path class="st4" d="M229.8,51.7c0,0,6.7,4.1,13.5,2.9c0,0-8.9,2-15.7-2L229.8,51.7z"/>
		<path class="st4" d="M218,39.1c0,0-3.8,10-0.5,18l-2,1.2C215.6,58.2,211.6,45,218,39.1z"/>
		<path class="st4" d="M235,64.8c0,0-13.5-3-17.6-8.1l-1.8,1.5C215.6,58.2,224.3,65.1,235,64.8z"/>
		<path class="st4" d="M206.5,43.2c0,0-3.2,11.3,2.8,19.2L208,64C208,64,200.9,53.9,206.5,43.2z"/>
		<path class="st4" d="M227.8,70.7c0,0-15.5-1.8-18.7-8.5l-1.8,1.9C207.3,64.1,214.9,72.3,227.8,70.7z"/>
		<path class="st4" d="M169.8,96c0,0-14.6,17-16.8,44.3c0,0-2.1-15,5.5-28.7C166.1,98.1,168.3,92.6,169.8,96z"/>
		<path class="st4" d="M168.5,96.7c0,0,15.2,5.6,14.3,23.6c0,0-5-19.2-14.8-21.9L168.5,96.7z"/>
		<path class="st4" d="M140.7,102.5c0,0,9.3-9.8,27.4-4.1l1.2-1.7C169.3,96.8,149.1,89.7,140.7,102.5z"/>
		<path class="st4" d="M161.3,108.2c0,0,11.4,10.6,9.7,22.2c0,0-4.1-15.8-10.9-20.4L161.3,108.2z"/>
		<path class="st4" d="M140.3,117.5c0,0,9.4-9.6,20.3-7.1l0.5-1.8C161,108.6,147.8,105.9,140.3,117.5z"/>
		<path class="st4" d="M155.8,120.7c0,0,9.6,5.7,5.7,17.2c0,0,0.2-12.6-6.4-15.2L155.8,120.7z"/>
		<path class="st4" d="M145.5,132.4c0,0,4.2-9.3,9.8-9.6l0.4-2.1C155.8,120.7,145.5,122.9,145.5,132.4z"/>
		<path class="st4" d="M297.2,100.2c0,0-2.3,6.1-13.7,7l-1.5-0.8C282,106.4,291.9,104.8,297.2,100.2z"/>
		<path class="st4" d="M289,87.8c0,0-10.3,10.2-18.8,13.1l-2.5-1.3C267.7,99.7,282.8,92.3,289,87.8z"/>
		<path class="st4" d="M272,80.2c0,0-11.9,10.1-10.1,20.6l-1.6,0.8C260.2,101.6,257.4,85.8,272,80.2z"/>
		<path class="st4" d="M204.9,80.4c0,0,42.1,21.2,47.8,53c0,0-19.2-38.6-47.7-49.4C205,84,203.1,82.6,204.9,80.4z"/>
		<path class="st4" d="M243.8,85.8c0,0-20.2-7.3-30.5,0.8l-1.3-1.3C212.1,85.3,224.6,74.3,243.8,85.8z"/>
		<path class="st4" d="M226,95.3l1.9,2c0,0,14.4-1.7,23.8,4.9C251.7,102.1,244.3,93.3,226,95.3z"/>
		<path class="st4" d="M239.1,110.6c0,0,9.5-0.9,14.7,4.9c0,0-10-3.4-12.6-2.1L239.1,110.6z"/>
		<path class="st4" d="M208,114.6c0,0-1.4-25.7,5.4-27.9l-1.3-1.3C212.1,85.3,200.7,87.5,208,114.6z"/>
		<path class="st4" d="M228.2,97.7c0,0-10.4,10.1-7.5,25c0,0-6.9-15.2,6-26.7L228.2,97.7z"/>
		<path class="st4" d="M241.7,112.9c0,0-6.6,4.5-4.8,15.6c0,0-3.9-9.7,3-17.5L241.7,112.9z"/>
		<path class="st4" d="M135.7,163.1c0,0,31.6,4,51,30.6c0,0-0.6,1.6-1.2,1.6C184.8,195.3,171.3,173.3,135.7,163.1z"/>
		<path class="st4" d="M153.8,159.5c0,0,4.9,3.4,4.6,10.3l2,0.8C160.4,170.5,160.3,161.8,153.8,159.5z"/>
		<path class="st4" d="M142.2,174.5c0,0,13,1,16.5-4.6l1.7,0.7C160.4,170.5,152.7,178.8,142.2,174.5z"/>
		<path class="st4" d="M169.1,160.5c0,0,4.9,4.3,1.2,15.9l1.9,1.6C172.1,178,176.6,164.4,169.1,160.5z"/>
		<path class="st4" d="M147.8,185.5c0,0,16,3.5,24.1-7.5l-1.7-1.6C170.3,176.4,164.8,184.8,147.8,185.5z"/>
		<path class="st4" d="M183.2,168.8c0,0,3.4,10.6-0.8,19.1l-1.7-1.1C180.7,186.9,185.4,177.5,183.2,168.8z"/>
		<path class="st4" d="M156.1,195.4c0,0,17.5,3.6,26.2-7.5l-1.2-2.2C181.2,185.8,175.5,194.6,156.1,195.4z"/>
	</g>
	<path class="st0" d="M280.6,352.8c-5.7-0.3-16.8-2.8-17.5-10.1c4-0.3,7.3,2,11,3.4c5.5,2.1,10.9,1.8,16.6,1.5
		c9.9-0.5,18.9,0.6,28.3,3.5c7.9,2.5,16.9,6.1,23.4,11.2c5.2,4.1,9.2,9.2,13.5,13.9c-0.7,0.1-1.4,0.1-2.1,0.3
		c-1.2,0.3-2.3,0.8-3.3,1.4c-2.1-1.9-4.1-4.6-6-6.3c-3.6-3.3-7-5.8-11.5-7.8c-7.3-3.3-15.6-6.9-23.5-8.9
		C300.6,352.7,289.9,353.3,280.6,352.8z"/>
	<path class="st0" d="M213.2,361.6c-2.9-3.1-5-7.2-8.8-9.2c5.6,3.8,13.1,6,19,10c8.5,5.8,16.4,10.6,26.3,14.1
		c9.4,3.3,16.5,10.2,23.5,17c2.9,2.8,4.9,6,6.6,9.7c0.9,1.9,1.5,4.5,2.5,6.8c-3-1.3-6.1-2.5-9.1-3.4c-1.9-0.6-3.8-1.3-5.7-2
		c-0.2-0.4-0.3-0.8-0.5-1.2c-2.5-7.9-5.8-14.3-13.6-18.4c-9.3-4.8-19.2-8-28.2-13.3C220.6,369,216.9,365.5,213.2,361.6z"/>
	<path class="st0" d="M79.6,391.6c8.3-2.6,15.9-5.3,24.6-5.7c10.8-0.5,18.9-3.2,28.8-7.3c6.3-2.6,15.2-1.7,20.6-7
		c2.2-2.2,3.5-5.6,3.6-7.8c1.7,10.2-8.3,14.5-16.3,17.5c-9.3,3.5-18.3,8.2-28.2,10.1c-2.8,0.6-5.7,0.6-8.6,1.1
		c-3.5-0.2-7,0.2-10.8,1.5c-4.9,1.8-9.6,5.8-15.2,4.8c-2.5-0.5-3.5-2.2-6.1-2.7C75.1,393.9,78.2,392.1,79.6,391.6z"/>
	<path class="st5" d="M59.5,356.2c4.1-9.2,15-13.8,24.7-14.2c6.9-0.3,15.8,2.4,22.4,0.8c5.8,1.6,11.9,2.8,17.6,3.9
		c-8.9,6.8-22.6-1.8-33-0.4c-10.6,1.4-22.9,5.7-32.5,11.8C58.9,357.4,59.2,356.7,59.5,356.2z"/>
	<path class="st5" d="M253.9,314.3c5.6,0,9.7-2.7,15-3.2c8.1-0.9,15.9,3.3,23.9,4.7c4.2,0.7,8.5,0.2,12.5,1.7
		c4.1,1.5,5.5,4.8,8.9,6.9c2.8,1.7,7.2,1.9,9.1,4.9c1.6,2.5,0.7,6.1-1.4,7.9c-5,4.5-14.7-0.9-20.8,0.8c-4.6,1.2-6.4,1.9-11-0.1
		c-3.3-1.5-5.1-4.5-8.2-6.2c-6.2-3.5-13.9-1.5-18.2-7.9c-1.8-2.6-3-3-6.2-4.1c-2.2-0.8-5.2-1.8-4.1-4.7
		C253.8,313.7,252.6,314.3,253.9,314.3z"/>
	<path class="st5" d="M333.3,335.8c0.7,0.1,1,0.2,1.7,0.1c3.4,2.9,11,1.6,15.3,4c6.1,3.3,2.4,7.3-3.5,6.4c-3.1-0.5-6-2.3-9.1-2.8
		c-2.7-0.5-5.9,0.9-8-1.2C326.4,338.7,330.2,332.8,333.3,335.8z"/>
	<path class="st6" d="M228.1,341.9c7,0.6,13.7-1.7,20.7,0.7c3.2,1.1,7.3,2.1,9.9,4.4c2.5,2.1,1.7,5.3,3.5,7.3
		c1.6,1.7,6.8,1.9,9.1,2.3c3.6,0.7,7.2,0.9,10.9,0.9c3.6,0,6.9-0.3,10.4-0.6c4.2-0.4,6.2,0.9,9.9,2.7c5.6,2.7,13-1.5,18.2,2.2
		c1.9,1.3,2.6,4.6,1.4,6.8c-1.6,3-6.7,3.3-9.6,3.2c-8.3-0.2-16.7-3.6-24.9-4.3c-7-0.6-11.4,2.1-17.1,5.4c-6.2,3.6-14.1,0-20-3.2
		c-3.2-1.7-5.8-2.8-9.4-3.2c-2.4-0.3-6.4,0.1-8.5-1.2c-2.4-1.5-1.1-4.2,1.2-5.9c3-2.2,7.2-0.9,10.2-2.4c7.7-3.8-9.8-7.6-12.1-8.2
		c-2.5-0.7-5.9-1.2-5.9-4.3c0-2.3,2.2-4,4.1-2.4C229.8,342.3,228.4,342,228.1,341.9z"/>
	<path class="st5" d="M128.4,307.2c7,0,14.5-1.4,20.6-4.7c4.1-2.2,11.3-5.7,16.1-5c3.1,0.4,2.6,4,0.9,6.5c-2.9,4.2-8.8,4.9-13.3,6.1
		c-5.5,1.4-10.4,3.9-15.7,5.3c-2.8,0.7-8.3,1.8-10.7-0.5C123.5,312.1,124.2,307.2,128.4,307.2z"/>
	<path class="st6" d="M119.6,332.8c5-4.5,12.5-2.4,18.5-2.1c4.2,0.3,8.2-0.3,12.2-1.6c3.9-1.2,6.6-3.8,10.2-5.6
		c5.7-2.8,12.8-1.2,18.9-2.6c4-0.9,8.9-1.2,12.5,0.9c3.4,2,4.8,4.3,8.8,5.2c2.8,0.7,5.7,2.2,2.5,5c-2.9,2.5-8.1,2.6-11.6,2.9
		c-4.3,0.3-8.5,0.5-12.8,0.6c-2.8,0.1-8.1-0.5-10.6,0.9c-2.9,1.6-2.3,3.7,0.3,4.8c2.1,0.9,6.8,0.8,2.4,2.9
		c-3.7,1.7-8.8,1.1-12.7,1.8c-4,0.6-8,1.7-12,2.4c-3.6,0.6-12.4,3.2-15.1,0c-1.2-1.4-0.4-3-2.3-4.4c-1.6-1.1-4.1-1.2-5.9-1.2
		c-3.9,0-7.2,2.3-6.7-3.2C116.4,336.5,115.2,332.3,119.6,332.8z"/>
	<path class="st5" d="M165.7,371.9c6.3-4.5,17.8-1.7,24.6,0.4c5.6,1.7,12.9,4.9,18.9,3.7c3.1-0.6,4.4-2.1,7.7-1.2
		c1.3,0.3,7.4,1.9,7.3,3.3c-0.2,2.6-10,1.4-11.7,1.5c-3.5,0.2-5.8,1.4-8.7,3.2c-5,3-10.1,3-16,2.7c-4.5-0.2-7-2-11-3.3
		c-3.5-1.1-7.1-0.7-9.9-3.5c-1-1-2.4-3-2.3-4.4C164.8,372.6,165.2,373.4,165.7,371.9z"/>
	<path class="st5" d="M74,360.7c3.1-0.8,4.3-1.5,5.9-3.8c1.8-2.7,3.1-3,6.5-3.5c8.5-1.2,15.4,2.7,23.5,4.3
		c2.7,0.5,23.1-0.6,23.2,0.7c0.1,3.1-8.5,1.8-8.5,5.3c0,2.9,5.8,2.7,7.7,2.9c2.4,0.3,8,0.3,5.2,3.3c-2.1,2.3-8.1,2.4-10.9,2.6
		c-3.9,0.3-8.1,1-12.1,0.2c-4.1-0.8-7.8-1.9-12-2c-5.6-0.2-13.2,0.8-17.2,4.5c-4.7,4.2-14.4,3.9-20.6,2.6c-5.7-1.2-6.5-9.3-2.1-12.6
		c2.3-1.7,4.9-1.7,7.4-2.7C71.9,361.7,71.6,361.4,74,360.7z"/>
	<path class="st0" d="M383.9,382.4c3.3-6.2,9.7-1.6,12.8,1.3c-2.8,2.4-7.8,3.5-11.5,2.6C379.2,385,382.1,385.7,383.9,382.4z"/>
	<path class="st0" d="M344.2,395.6c5.3-3.4,6.1-7.6,13.2-7.5c4.6,0.1,14.5,1,17.2,5.3c-1.8,2.8-5.4,4.1-7.6,6.5
		c-1.4,1.5-0.4,2.2-2.5,3.3c-1.8,0.9-4.4,0.1-6.2-0.4c-3.8-1.1-5.8-3.8-9.3-5.4C347.6,396.7,338.8,399.1,344.2,395.6z"/>
	<path class="st0" d="M265.2,420.3c1.9-4.3,15.5-4.4,14.5,2.1c-3.3,1.4-8.8,3.6-12.3,3.6C261.9,426.1,261.6,422.9,265.2,420.3z"/>
	<path class="st0" d="M219.4,408.4c5.1-1.1,8.7-2.7,14.1-1.8c5,0.9,9.7,2.7,14.5,3.6c0.1,3-6.3,8.6-9.2,8.8
		c-4.1,0.3-7.5-3.6-12.3-2.7c-3.6,0.7-8.2,4.9-10.3-0.4C214.6,411.9,216.1,409.1,219.4,408.4z"/>
	<path class="st0" d="M169.1,427.3c0.7-5.3,5.1-7.2,9.7-7.9c1.9-0.3,12.2-1.9,13.6-0.4c4.3,4.8-8,6.8-10.1,7
		c-4.1,0.4-8.7,3-12.7,2.6C169.3,427.6,169,428,169.1,427.3z"/>
	<path class="st0" d="M61.5,409.3c3.6-1.3,9.5-1.2,13.3-1.2c3.5,0,11.6,0.7,5.6,4.9c-2.8,2-10.1,2.8-13.3,1.8
		C64.8,413.9,55,411.6,61.5,409.3z"/>
	<path class="st0" d="M43.9,411c2.8-1.7,11.7-1,7.8,3.9c-1.5,1.9-10.4,1.4-12.6,1.4C38.6,412,41.5,412.5,43.9,411z"/>
	<path class="st7" d="M258.6,325.9c-14.8-13.6-35.2-25-55.1-29c-8.1-1.6-15.1-1.4-22.5,2.4c-6.7,3.5-13.1,5.4-17.6,11.9
		c8.8,0.4,17.2-7.2,25.5-8.3c8.7-1.2,18.6,0.1,27,2.2c4.3,1.1,8.8,2.4,12.7,4.3c3.7,1.9,6,4.8,9.3,7.5c6.2,5,12.2,8.8,20.3,8.5
		c0.6,0,1.7-0.4,2.5-0.5C260.3,325,259,325.9,258.6,325.9z"/>
</g>
</svg>
