<?xml version="1.0" encoding="utf-8"?>
<!-- Generator: Adobe Illustrator 24.0.2, SVG Export Plug-In . SVG Version: 6.00 Build 0)  -->
<svg version="1.1" id="Layer_1" xmlns="http://www.w3.org/2000/svg" xmlns:xlink="http://www.w3.org/1999/xlink" x="0px" y="0px"
	 viewBox="0 0 1370 742" style="enable-background:new 0 0 1370 742;" xml:space="preserve">
<style type="text/css">
	.st0{fill:#D9D3C8;}
	.st1{fill:#C6BFB0;}
	.st2{fill:#EAE5E1;}
	.st3{fill:#6D4439;}
	.st4{fill:#805148;}
	.st5{fill:#9C6B47;}
	.st6{fill:#949BC4;}
	.st7{fill:#7A85AE;}
	.st8{fill:#B3B8DD;}
	.st9{fill:#C4C8E4;}
	.st10{fill:#4B8F46;}
	.st11{fill:#52994D;}
	.st12{fill:#FFD348;}
	.st13{fill:#60A95E;}
	.st14{fill:#98CF93;}
	.st15{fill:#333532;}
	.st16{fill:#4BA647;}
	.st17{fill:#599B43;}
	.st18{opacity:0.32;fill:#599B43;}
	.st19{fill:#3F7A3A;}
	.st20{fill:#6A6B69;}
	.st21{fill:#515250;}
	.st22{fill:#131512;}
	.st23{fill:#6CAF44;}
	.st24{fill:#5C9741;}
</style>
<g>
	<g>
		<g>
			<g>
				<path class="st0" d="M499.1,547.2c-18.4,5.1-37.5,9.4-56.6,6.3c-32.8-5.2-58.2-27.8-78.9-52.5c9.7-18.4,36.1-33.9,55.1-39.3
					c21.7-6.2,40.4,6.6,59.9,15.6c18.7,8.6,45.1,16.2,53.8,36.8c3.7,8.7,4.2,16.2,2.5,22.8c0,0-0.1,0-0.1,0
					C524.3,536.1,509,544.4,499.1,547.2z"/>
				<path class="st1" d="M450.8,578c-26.7,1.2-48.6-11.5-69.9-29.7c-12.6-10.8-25.6-30.6-17.8-46.4c0.1-0.3,0.4-0.6,0.5-0.9
					c20.7,24.7,46.1,47.3,78.9,52.5c19.2,3.1,38.3-1.2,56.6-6.3c9.9-2.8,25.1-11.1,35.6-10.4c0,0,0.1,0,0.1,0
					C526.9,567.5,470.1,577.1,450.8,578z"/>
			</g>
			<path class="st1" d="M435.7,511.2c6.3-3.8,12.2,2,17.4,4.5c16,7.7,21.1-1.6,32.5-9.6c2.6-1.8,5-3,8.2-3.1
				c3.1-0.1,16.4,8.9,16.2,16.9c-0.1,5.8-12.1,10.6-17.5,13.4c-9,4.6-18.3,6.9-28.3,4.4c-5.8-1.4-11-4.1-16.2-7
				c-3.5-2-10.8-3-15.3-10C430.7,517.3,432.2,513.4,435.7,511.2z"/>
			<path class="st2" d="M411.2,475.5c10.3-4.1,20.4-3.1,30.3,0.1c9.3,3,24,5.1,26.3,11.9c1.9,5.7-3.7,7.9-8.4,8.6
				c-6.5,1-12-2.9-18.2-3.7c-8.1-1.1-20.5,5.5-26,10.6c-1.5,1.4-1.9,3.3-3.6,4.5c-7.8,5.8-21.1,1.6-29.1-2c-1.1-0.5-1.6-1.8-1.7-3
				C379.7,489.1,400.9,479.6,411.2,475.5z"/>
		</g>
		<g>
			<g>
				<path class="st3" d="M412.6,374.8l-41-0.3c0,0.5,0,0.9,0,1.4c0,112-73.8,202.8-164.8,202.8c-29,0-56.3-9.3-80-25.5
					c30.2,44.3,75.6,72.6,126.3,72.6c91,0,164.8-90.8,164.8-202.8C417.9,406.9,415.4,389.8,412.6,374.8z"/>
				<path class="st4" d="M371.6,375.9c0-0.4,0-0.9,0-1.4l-277.4-2.1c-2.9,15-5.8,34.5-5.8,50.6c0,49.6,14.5,95,38.5,130.2
					c23.7,16.2,50.9,25.5,80,25.5C297.8,578.6,371.6,487.9,371.6,375.9z"/>
			</g>
			<path class="st5" d="M413.2,383c0,49.8-71.7,90.1-160.1,90.1c-88.4,0-160.1-40.3-160.1-90.1c0-49.8,71.7-90.1,160.1-90.1
				C341.6,292.9,413.2,333.3,413.2,383z"/>
			<path class="st3" d="M405.4,381.3c0,46.3-68.2,83.8-152.2,83.8c-84.1,0-152.2-37.5-152.2-83.8c0-46.3,68.1-83.8,152.2-83.8
				C337.2,297.6,405.4,335.1,405.4,381.3z"/>
		</g>
		<g>
			<path class="st6" d="M192.4,638.5c-17.1,1.3-35.2-0.8-51.7-5.4c-16.4-4.6-32.2-12.7-43.2-26c-6.5-7.8-10.3-17.6-10.3-26.8
				c20.3-27.9,66.1-20.1,94.3-8c18.9,8.1,41.2,20.4,48.8,40.9c0.6,1.5,1,3.1,1.3,4.6C224.1,630.8,207.4,637.3,192.4,638.5z"/>
			<path class="st7" d="M229.7,640c-3.4,11.3-15.4,18.9-26.5,22.9c-20.2,7.4-43,10-64.1,5.4c-17.7-3.9-34.2-13.2-45.8-27.2
				c-10.9-13.2-18.5-32.3-12.3-49.2c1.6-4.4,3.7-8.3,6.2-11.6c-0.1,9.2,3.8,19,10.3,26.8c11,13.3,26.8,21.4,43.2,26
				c16.5,4.6,34.6,6.7,51.7,5.4c15.1-1.1,31.7-7.7,39.3-20.6C233.3,625.2,232.6,633.2,229.7,640z"/>
			<path class="st8" d="M154.1,573.7c18.2-0.2,27.4,12,42.6,21.1c10.8,6.5,32,19.1,16.5,27.1c-15.8,8.2-35.9,8.4-52.3,2.2
				c-14.5-5.5-30.6-17.6-32.3-34.2C127.1,575.7,140.3,572.7,154.1,573.7z"/>
		</g>
		<g>
			<path class="st6" d="M337.4,613.5l-0.1-29l42.3,4.7c7.8-2.5,14.5-3.9,21.9-5.2c9-1.5,17.3,2.7,24.5,10.3l17.6,1.9v31.2l-0.1,0
				c0.8,18.5-30.4,28.9-60,21.5C358.5,642.8,335.4,626.5,337.4,613.5L337.4,613.5z"/>
			<path class="st8" d="M401.4,552.6c17.2-2.9,32.2,15.3,40.8,37.5c8.6,22.2-26.2,35.5-58.8,27.4c-32.6-8.1-62.3-33.6-36.1-46.3
				C373.4,558.5,386,555.2,401.4,552.6z"/>
			<path class="st9" d="M406.2,562.7c10.8-1.8,20.2,9.6,25.5,23.5c5.4,13.9-16.4,22.2-36.8,17.2c-20.4-5.1-39-21-22.6-29
				C388.6,566.4,396.5,564.4,406.2,562.7z"/>
		</g>
		<g>
			<path class="st6" d="M368.6,659.2l0-12l-3.7,0.7c-1-1.4-2.1-2.6-3.3-3.5c-20.5-15.8-39.9-2.2-49.9,13l-5.7,1c0,0,0,8.9,0,12.7
				c0,0.5,0,1.1,0,1.6c0,0.1,0,0.1,0,0.1c0,0,0,0,0,0c1.9,12.8,27.6,17.4,46.2,9.2C364.5,676.5,368.8,667.4,368.6,659.2
				C368.5,659.2,368.6,659.2,368.6,659.2z"/>
			<path class="st8" d="M307,651.8c-7.2,17.6,23.8,25.2,45.3,15.7c21.6-9.5,18.4-30.5,9.3-37.5C337.1,611,314.2,634.2,307,651.8z"/>
			<path class="st9" d="M323.1,648c-4.3,10.6,14.3,15.1,27.2,9.4c13-5.7,11.1-18.3,5.6-22.6C341.2,623.5,327.4,637.4,323.1,648z"/>
		</g>
		<g>
			<path class="st7" d="M149.3,674.3l7.4,0.3c3.3-2.7,7.5-5,12.7-6.5c14.3-4.3,29.1-1.3,41.9,5.1c2.2,1.1,4.2,2.4,6,3.8l8.9,0.3
				c0,0-0.1,14.1,0,13.6c0,0-0.1,0-0.1,0c-0.2,2.3-1.4,4.3-3.9,6c-9,5.7-46.2,6.5-61.1,2.4c-8.3-2.3-11.9-7-11.8-12.2c0,0,0,0,0,0
				V674.3z"/>
			<path class="st6" d="M169.4,654.6c14.3-4.3,29.1-1.3,41.9,5.1c12.8,6.4,19.9,17.9,10.9,23.6c-9,5.7-46.2,6.5-61.1,2.4
				C141.3,680.4,148,661,169.4,654.6z"/>
			<path class="st8" d="M195.5,666.5c5.5-1.6,11.2-0.5,16.2,2c4.9,2.5,7.7,6.9,4.2,9.1c-3.5,2.2-17.8,2.5-23.6,0.9
				C184.7,676.5,187.2,669,195.5,666.5z"/>
		</g>
		<g>
			<path class="st10" d="M391.4,381.5c3.3-1.2,20.8-19.4,47.4-6.9c26.5,12.5,36.3,43.4,36.3,43.4s0.5-34.9-29.2-51.6
				c-29.8-16.7-52.4-7.9-52.4-7.9L391.4,381.5z"/>
			<path class="st10" d="M381.8,326.3c3.3-1.2,20.8-19.4,47.4-6.9c26.5,12.5,36.3,43.4,36.3,43.4s0.5-34.9-29.2-51.6
				c-29.8-16.7-52.4-7.9-52.4-7.9L381.8,326.3z"/>
			<path class="st10" d="M165.8,239.3c0,0,10.1-37.7,48.4-36c38.3,1.8,42.1,22.1,42.1,22.1s4.5-17.1-30-28.5
				c-34.5-11.4-57.7,6.9-66.9,23.8c-9.3,16.9-6.7,27.8-6.7,27.8L165.8,239.3z"/>
			<path class="st10" d="M343.2,257.6c0,0,10.1-37.7,48.4-36c38.3,1.8,42.1,22.1,42.1,22.1s4.5-17.1-30-28.5
				c-34.5-11.4-57.7,6.9-66.9,23.8c-9.3,16.9-6.7,27.8-6.7,27.8L343.2,257.6z"/>
			<path class="st10" d="M304.1,257.6c0,0-10.1-37.7-48.4-36c-38.3,1.8-42.1,22.1-42.1,22.1s-4.5-17.1,30-28.5
				c34.5-11.4,57.7,6.9,66.9,23.8c9.3,16.9,6.7,27.8,6.7,27.8L304.1,257.6z"/>
			<path class="st10" d="M163.5,247.1c0,0-29.7-25.3-60.3-2.2C72.8,268,81.2,287,81.2,287s-13.5-11.5,8.5-40.5
				c22-28.9,51.4-27,68.6-18.4c17.2,8.6,21.3,19.1,21.3,19.1L163.5,247.1z"/>
			<path class="st10" d="M303.4,278.5c16.5-14,74.9-25.5,107.3,38c18.8,37-14,82.2-14,82.2l-75.8-39.2L303.4,278.5z"/>
			<path class="st10" d="M322.4,309.6c0,0,26.5-56.8,81.7-44.9s56.3,53.1,56.3,53.1s-10.8-25.7-36.8-34.5c-26-8.8-51.4-4.3-63.6,5.3
				s-25.8,30-25.8,30L322.4,309.6z"/>
			<path class="st10" d="M20.2,369.4c0,0,17.1,22.5,55.2,15.6c28.4-5.1,35.1-17.3,35.1-17.3v-14.4c0,0-13,20.7-41.1,23.1
				C39.1,379,20.2,369.4,20.2,369.4z"/>
			<path class="st10" d="M29.5,337.1c0,0,5,27.8,42.1,39c27.6,8.3,39.1,0.6,39.1,0.6l6.5-12.8c0,0-21,12.5-47.1,1.9
				C42,354.2,29.5,337.1,29.5,337.1z"/>
			<path class="st10" d="M271.8,261.4c1.1-3.1,30.9-56.9,71.5-49.6c40.1,7.2,40.1,33.2,40.1,33.2s-7.6-21.2-35.4-24.1
				c-18.1-1.9-32.8,9.3-48,33.7C284.8,278.9,271.8,261.4,271.8,261.4z"/>
			<path class="st10" d="M304.2,293.5c1.1-3.1,29.8-63.8,69.6-52.9c39.8,10.9,42,36.5,42,36.5s-20.7-24.5-38-23.4
				c-17.3,1.1-30.3,8.6-45.4,33C317.2,311.1,304.2,293.5,304.2,293.5z"/>
			<path class="st10" d="M123.6,318.9c0,0-12.9-75.6,49.5-89.9c62.3-14.3,101.8,18,109.3,51.5C290,313.8,123.6,318.9,123.6,318.9z"
				/>
			<path class="st10" d="M60.4,353.3c-4.3-13.7-7.2-45.3,26.7-53.7c35.7-8.8,41.2,12.9,41.2,12.9l-14.5,3.5c0,0-8.9-11.6-26.7-8.5
				C60.1,312.1,60.4,353.3,60.4,353.3z"/>
			<path class="st10" d="M76.3,333.1c-2.9-9-3.4-55,30-65.6c32.5-10.2,43,11.6,43,11.6l-15.6,6.6c0,0-10.3-12.5-27.8-8.2
				C82.1,283.2,76.3,333.1,76.3,333.1z"/>
			<path class="st10" d="M62.9,387.5c-2.9-9-3.4-55,30-65.6c32.5-10.2,43,11.6,43,11.6l-15.6,6.6c0,0-10.3-12.5-27.8-8.2
				C68.6,337.7,62.9,387.5,62.9,387.5z"/>
			<path class="st11" d="M115.9,417.7c-30.8,17.7-37.2,71.7-37.2,71.7s-5-26.8,2.9-51.3c7.5-23.5,19-27.8,19-27.8
				s-28.3,1.1-40.9,20.9c-14.8,23.2-19.5,49.8-19.5,49.8s-3.9-30.7,13.7-60.7c7.7-13.1,24.9-19.5,24.9-19.5s-23.5,6.4-44.8-2.3
				C20,392.8,9.2,376.7,9.2,376.7s22.7,18.5,41.8,17.8c19.3-0.7,25.7-5.5,25.7-5.5s-10-31.1,9.7-66.4c16.6-29.7,34.1-39.1,51.4-44.8
				c17.3-5.7,35.7-5,35.7-5s-3.7-21.7-27.1-26c-26.8-5-47.6,12.4-47.6,12.4s8.4-20.1,37.1-24.6c27.2-4.2,50.6,21.9,50.6,21.9
				s-13.6-27.2-27-35.8c-13.4-8.6-32.5-5.2-32.5-5.2s22.1-12.4,46.6-0.7c24.5,11.7,29.1,29.4,29.1,29.4s0-20.7,8.8-36.5
				c9.7-17.6,28.7-22.2,28.7-22.2s-20.3,11.5-19.5,38c0.3,8.9,2.9,32.9,2.9,32.9s17.1-40.1,39.2-52.5c29.7-16.7,39.2,3.8,39.2,3.8
				s-21.8-13.1-35.2,7.6c-15.8,24.4-17,42-17,42s21.9-14.9,49.3-12.1c42.2,4.3,62.2,25.2,66.9,47.6c4.7,22.4,27.9,18.3,51.9,27.5
				c30.9,11.9,32,32.9,32,32.9s-11.6-17.7-36.7-21.4c-17.6-2.6-32.9,11.7-32.9,11.7s21.9-2.3,40.6,13.4
				c19.9,16.8,14.1,45.3,14.1,45.3s-8.7-23.3-26.5-29.8c-15.8-5.8-25.5-2.6-25.5-2.6s26.8,16.2,37.4,40c12.7,28.7,3.5,71.5,3.5,71.5
				s3-38.2-12.5-65c-9-15.6-26.7-17.7-26.7-17.7s9.6,29.4,9.6,53.2c0,25.1-15.2,57-15.2,57s8.8-47.3,6.1-62.1
				c-4.9-27.1-12.5-44.5-23.1-41.5c-9.9,2.9-8.1,23.9-5.5,37.4c-33.3,16.7-55.5,24.3-117.2,22C180.6,462.4,132.8,439.7,115.9,417.7z
				"/>
			<g>
				<path class="st10" d="M184.3,163.9c-15.7-28.8-46.1-40.9-85.7-28.3c-46.9,15-79.7,56.3-84.8,104.9c0,0.4,0.6,0.4,0.6,0.1
					c5.8-38,26.8-71.7,60.5-91c16.8-9.6,38.1-16.7,57.6-13.9c26.9,3.9,42.9,18.8,51.2,40.1c26,67.1,19.8,144.9,28.1,177.8
					C218.7,298.2,217.2,223.9,184.3,163.9z"/>
				<path class="st10" d="M346.6,134.1c15.7-28.7,46.1-40.9,85.7-28.3c46.9,15,79.7,56.3,84.8,104.9c0,0.4-0.6,0.4-0.6,0.1
					c-5.8-38-26.8-71.7-60.5-91c-16.8-9.6-38.1-16.7-57.6-13.9c-26.9,3.9-42.9,18.8-51.2,40.1c-26,67.1-36.3,176.3-44.6,194.5
					C304.4,289.6,313.8,194.1,346.6,134.1z"/>
				<g>
					<path class="st12" d="M499.7,153.5c5.1,0,9.2,3.8,10,8.7c0.7-0.2,1.3-0.4,2-0.4c3.8,0,6.9,3.1,6.9,6.9c0,2.2-1.1,4.1-2.8,5.4
						c1.2,0.5,2.3,1.3,3.2,2.2c1.3-1.3,3-2.2,5-2.2c3.8,0,6.9,3.1,6.9,6.9c0,2.9-1.8,5.4-4.4,6.4c2.4,1.7,4,4.4,4,7.6
						c0,5.2-4.2,9.5-9.5,9.5c-1.9,0-3.6-0.7-5-1.7c-1.2,2-3.3,3.5-5.9,3.5c-3.8,0-6.9-3.1-6.9-6.9c0,0,0,0,0-0.1
						c-0.1,0-0.2,0.1-0.3,0.1c-3.8,0-6.9-3.1-6.9-6.9c0-3.4,2.5-6.1,5.7-6.7c-0.2-0.8-0.5-1.5-0.5-2.3c0-0.1,0.1-0.2,0.1-0.3
						c-3-0.7-5.3-3.3-5.3-6.6c0-1.1,0.3-2.1,0.8-3c-4.3-1.2-7.5-5-7.5-9.7C489.4,158.1,494,153.5,499.7,153.5z"/>
					<path class="st12" d="M357.2,129.4c1.2,0,2.3,0.4,3.3,1c0-0.2-0.1-0.3-0.1-0.5c0-1.8,0.7-3.5,1.9-4.7c-3.7-1.6-6.2-5.2-6.2-9.4
						c0-5.7,4.6-10.3,10.3-10.3c1,0,1.9,0.3,2.8,0.6c-0.5-0.9-0.8-1.9-0.8-3c0-3.3,2.3-5.9,5.4-6.6c-0.4-1.2-0.7-2.4-0.7-3.7
						c0-5.7,4.6-10.3,10.3-10.3c5.4,0,9.8,4.3,10.2,9.6c0.4,0,0.8-0.2,1.2-0.2c2,0,3.8,0.8,5.5,1.8c-0.1-0.6-0.4-1.2-0.4-1.8
						c0-1.8,0.6-3.3,1.3-4.8c-2.2-0.4-4-2.2-4-4.6c0-2.6,2.1-4.7,4.7-4.7c2.5,0,4.6,2,4.7,4.5c1.1-0.4,2.3-0.7,3.5-0.7c0,0,0,0,0,0
						c0-3.8,3.1-6.8,6.9-6.8c1.9,0,3.6,0.8,4.9,2c0.7-5,4.8-8.8,10-8.8c3.8,0,7,2.1,8.8,5.2c1-0.5,2-0.9,3.2-0.9
						c3.8,0,6.9,3.1,6.9,6.9c0,3.8-3.1,6.9-6.9,6.9c-1.6,0-2.9-0.6-4.1-1.5c-1,1.3-2.3,2.4-3.8,3.1c0.9,1.5,1.6,3.2,1.6,5.2
						c0,1-0.3,1.9-0.6,2.8c0.6-0.2,1.1-0.4,1.8-0.4c2.2,0,4,1.1,5.3,2.6c1.8-1.6,4.1-2.6,6.7-2.6c5.7,0,10.3,4.6,10.3,10.3
						c0,2.6-1.1,5-2.7,6.8c1.1-0.8,2.4-1.3,3.9-1.3c1.2,0,2.3,0.4,3.3,0.9c0.4-2.5,1.6-4.7,3.5-6.3c-3.5-1.6-6-5.1-6-9.3
						c0-5.7,4.6-10.3,10.3-10.3c5.7,0,10.3,4.6,10.3,10.3c0,0,0,0.1,0,0.1c0.5-0.1,0.9-0.3,1.4-0.3c3.8,0,6.9,3.1,6.9,6.9
						c0,3.8-3,6.8-6.8,6.9c0.4,1.1,0.7,2.2,0.7,3.4c0,1-0.3,1.9-0.6,2.8c0.6-0.1,1.1-0.3,1.7-0.3c1.6,0,3.1,0.4,4.4,1.1c0,0,0,0,0,0
						c0-2.6,2.1-4.7,4.7-4.7c2.4,0,4.3,1.8,4.6,4.1c0.8-0.2,1.5-0.5,2.3-0.5c5.7,0,10.3,4.6,10.3,10.3c0,3.3-1.6,6.1-4,7.9
						c1.4,1.7,2.3,3.8,2.3,6.2c0,5.7-4.6,10.3-10.3,10.3c-4.2,0-7.9-2.6-9.5-6.2c-1.6,3.7-5.2,6.2-9.5,6.2c-5.1,0-9.2-3.8-10-8.7
						c-1.2,2.2-3.4,3.7-6,3.7c-3.8,0-6.9-3.1-6.9-6.9c0-3.8,3.1-6.9,6.9-6.9c3,0,5.5,2,6.5,4.7c1-2.4,2.8-4.3,5.2-5.5
						c-0.8-1.5-1.4-3.1-1.4-4.9c0-1,0.3-1.9,0.6-2.8c-0.6,0.1-1.1,0.3-1.7,0.3c-2.7,0-5.2-1.1-7.1-2.9c-1.1,2.3-3.4,4-6.2,4
						c-3.8,0-6.9-3.1-6.9-6.9c0-1.7,0.7-3.2,1.7-4.4c-1.8,1.4-3.9,2.3-6.3,2.3c-1.2,0-2.2-0.3-3.2-0.7c0.1,0.6,0.4,1.1,0.4,1.7
						c0,5.7-4.6,10.3-10.3,10.3c-5.7,0-10.3-4.6-10.3-10.3c0-4.5,3-8.2,7-9.6c-1.4-1.3-2.4-3.1-2.4-5.1c0-0.1,0.1-0.2,0.1-0.3
						c-1.4,0.7-3,1.2-4.7,1.2c-1.1,0-2.2-0.3-3.2-0.7c-0.8,1.2-1.8,2.1-3.1,2.6c1.3,1.3,2.1,3,2.1,4.9c0,3.8-3.1,6.9-6.9,6.9
						c-3.8,0-6.9-3.1-6.9-6.9c0-2.9,1.8-5.4,4.4-6.4c-0.6-0.5-1-1.2-1.3-1.9c-0.7,0.2-1.4,0.5-2.2,0.5c-2,0-3.8-0.8-5.5-1.8
						c0.1,0.6,0.4,1.2,0.4,1.8c0,4.6-3.1,8.4-7.4,9.7c0,0.2,0.1,0.4,0.1,0.6c0,3.8-3.1,6.9-6.9,6.9c-3.8,0-6.9-3.1-6.9-6.9
						c0-2,0.8-3.7,2.2-5c-0.9-1.4-1.4-2.9-1.6-4.6c-0.4,0-0.8,0.2-1.2,0.2c-0.4,0-0.7-0.2-1.1-0.2c0,0.1,0,0.1,0,0.2
						c0,3.8-3.1,6.9-6.9,6.9c-0.3,0-0.5-0.1-0.8-0.2c1.3,1.7,2.1,3.7,2.1,6c0,0.3-0.2,0.6-0.2,0.9c0.1,0,0.1,0,0.2,0
						c3.5,0,6.4,2.9,6.4,6.4s-2.9,6.4-6.4,6.4c-1,0-1.9-0.3-2.7-0.7c0.1,0.4,0.2,0.8,0.2,1.2c0,3.8-3.1,6.9-6.9,6.9
						c-1.2,0-2.3-0.4-3.3-1c0,0.2,0.1,0.3,0.1,0.5c0,3.8-3.1,6.9-6.9,6.9c-3.8,0-6.9-3.1-6.9-6.9
						C350.3,132.4,353.4,129.4,357.2,129.4z"/>
					<path class="st12" d="M511.7,215.2C511.7,215.2,511.8,215.2,511.7,215.2c0.1-0.1,0-0.3,0-0.4c0-3.8,3.1-6.9,6.9-6.9
						c3.8,0,6.9,3.1,6.9,6.9s-3.1,6.9-6.9,6.9c0,0-0.1,0-0.1,0c0,0.2,0.1,0.3,0.1,0.4c0,0.8-0.2,1.6-0.5,2.3c0.2,0,0.3-0.1,0.5-0.1
						c2.6,0,4.7,2.1,4.7,4.7c0,2.6-2.1,4.7-4.7,4.7c-2.6,0-4.7-2.1-4.7-4.7c0-0.2,0.1-0.3,0.1-0.5c-0.7,0.3-1.5,0.5-2.3,0.5
						c-3.8,0-6.9-3.1-6.9-6.9S507.9,215.2,511.7,215.2z"/>
					<path class="st12" d="M453.7,124.6c2.6,0,4.7,2.1,4.7,4.7c0,2.6-2.1,4.7-4.7,4.7c-2.6,0-4.7-2.1-4.7-4.7
						C449,126.7,451.1,124.6,453.7,124.6z"/>
					<path class="st12" d="M361.9,102.9c-2.6,0-4.7-2.1-4.7-4.7c0-2.6,2.1-4.7,4.7-4.7c2.6,0,4.7,2.1,4.7,4.7
						C366.6,100.8,364.5,102.9,361.9,102.9z"/>
					<path class="st12" d="M523.3,171.3c-2.6,0-4.7-2.1-4.7-4.7c0-2.6,2.1-4.7,4.7-4.7c2.6,0,4.7,2.1,4.7,4.7
						C528.1,169.1,525.9,171.3,523.3,171.3z"/>
					<path class="st12" d="M457,93.1c-2.6,0-4.7-2.1-4.7-4.7c0-2.6,2.1-4.7,4.7-4.7c2.6,0,4.7,2.1,4.7,4.7
						C461.7,90.9,459.6,93.1,457,93.1z"/>
				</g>
				<g>
					<path class="st12" d="M31.3,183.3c-5.1,0-9.2,3.8-10,8.7c-0.7-0.2-1.3-0.4-2-0.4c-3.8,0-6.9,3.1-6.9,6.9c0,2.2,1.1,4.1,2.8,5.4
						c-1.2,0.5-2.3,1.3-3.2,2.2c-1.3-1.3-3-2.2-5-2.2c-3.8,0-6.9,3.1-6.9,6.9c0,2.9,1.8,5.4,4.4,6.4c-2.4,1.7-4,4.4-4,7.6
						c0,5.2,4.2,9.5,9.5,9.5c1.9,0,3.6-0.7,5-1.7c1.2,2,3.3,3.5,5.9,3.5c3.8,0,6.9-3.1,6.9-6.9c0,0,0,0,0-0.1c0.1,0,0.2,0.1,0.3,0.1
						c3.8,0,6.9-3.1,6.9-6.9c0-3.4-2.5-6.1-5.7-6.7c0.2-0.8,0.5-1.5,0.5-2.3c0-0.1-0.1-0.2-0.1-0.3c3-0.7,5.3-3.3,5.3-6.6
						c0-1.1-0.3-2.1-0.8-3c4.3-1.2,7.5-5,7.5-9.7C41.6,187.9,37,183.3,31.3,183.3z"/>
					<path class="st12" d="M173.8,159.1c-1.2,0-2.3,0.4-3.3,1c0-0.2,0.1-0.3,0.1-0.5c0-1.8-0.7-3.5-1.9-4.7c3.7-1.6,6.2-5.2,6.2-9.4
						c0-5.7-4.6-10.3-10.3-10.3c-1,0-1.9,0.3-2.8,0.6c0.5-0.9,0.8-1.9,0.8-3c0-3.3-2.3-5.9-5.4-6.6c0.4-1.2,0.7-2.4,0.7-3.7
						c0-5.7-4.6-10.3-10.3-10.3c-5.4,0-9.8,4.3-10.2,9.6c-0.4,0-0.8-0.2-1.2-0.2c-2,0-3.8,0.8-5.5,1.8c0.1-0.6,0.4-1.2,0.4-1.8
						c0-1.8-0.6-3.3-1.3-4.8c2.2-0.4,4-2.2,4-4.6c0-2.6-2.1-4.7-4.7-4.7c-2.5,0-4.6,2-4.7,4.5c-1.1-0.4-2.3-0.7-3.5-0.7c0,0,0,0,0,0
						c0-3.8-3.1-6.8-6.9-6.8c-1.9,0-3.6,0.8-4.9,2c-0.7-5-4.8-8.8-10-8.8c-3.8,0-7,2.1-8.8,5.2c-1-0.5-2-0.9-3.2-0.9
						c-3.8,0-6.9,3.1-6.9,6.9c0,3.8,3.1,6.9,6.9,6.9c1.6,0,2.9-0.6,4.1-1.5c1,1.3,2.3,2.4,3.8,3.1c-0.9,1.5-1.6,3.2-1.6,5.2
						c0,1,0.3,1.9,0.6,2.8c-0.6-0.2-1.1-0.4-1.8-0.4c-2.2,0-4,1.1-5.3,2.6c-1.8-1.6-4.1-2.6-6.7-2.6c-5.7,0-10.3,4.6-10.3,10.3
						c0,2.6,1.1,5,2.7,6.8c-1.1-0.8-2.4-1.3-3.9-1.3c-1.2,0-2.3,0.4-3.3,0.9c-0.4-2.5-1.6-4.7-3.5-6.3c3.5-1.6,6-5.1,6-9.3
						c0-5.7-4.6-10.3-10.3-10.3c-5.7,0-10.3,4.6-10.3,10.3c0,0,0,0.1,0,0.1c-0.5-0.1-0.9-0.3-1.4-0.3c-3.8,0-6.9,3.1-6.9,6.9
						c0,3.8,3,6.8,6.8,6.9c-0.4,1.1-0.7,2.2-0.7,3.4c0,1,0.3,1.9,0.6,2.8c-0.6-0.1-1.1-0.3-1.7-0.3c-1.6,0-3.1,0.4-4.4,1.1
						c0,0,0,0,0,0c0-2.6-2.1-4.7-4.7-4.7c-2.4,0-4.3,1.8-4.6,4.1c-0.8-0.2-1.5-0.5-2.3-0.5c-5.7,0-10.3,4.6-10.3,10.3
						c0,3.3,1.6,6.1,4,7.9c-1.4,1.7-2.3,3.8-2.3,6.2c0,5.7,4.6,10.3,10.3,10.3c4.2,0,7.9-2.6,9.5-6.2c1.6,3.7,5.2,6.2,9.5,6.2
						c5.1,0,9.2-3.8,10-8.7c1.2,2.2,3.4,3.7,6,3.7c3.8,0,6.9-3.1,6.9-6.9c0-3.8-3.1-6.9-6.9-6.9c-3,0-5.5,2-6.5,4.7
						c-1-2.4-2.8-4.3-5.2-5.5c0.8-1.5,1.4-3.1,1.4-4.9c0-1-0.3-1.9-0.6-2.8c0.6,0.1,1.1,0.3,1.7,0.3c2.7,0,5.2-1.1,7.1-2.9
						c1.1,2.3,3.4,4,6.2,4c3.8,0,6.9-3.1,6.9-6.9c0-1.7-0.7-3.2-1.7-4.4c1.8,1.4,3.9,2.3,6.3,2.3c1.2,0,2.2-0.3,3.2-0.7
						c-0.1,0.6-0.4,1.1-0.4,1.7c0,5.7,4.6,10.3,10.3,10.3c5.7,0,10.3-4.6,10.3-10.3c0-4.5-2.9-8.2-7-9.6c1.4-1.3,2.4-3.1,2.4-5.1
						c0-0.1-0.1-0.2-0.1-0.3c1.4,0.7,3,1.2,4.7,1.2c1.1,0,2.2-0.3,3.2-0.7c0.8,1.2,1.8,2.1,3.1,2.6c-1.3,1.3-2.1,3-2.1,4.9
						c0,3.8,3.1,6.9,6.9,6.9c3.8,0,6.9-3.1,6.9-6.9c0-2.9-1.8-5.4-4.4-6.4c0.6-0.5,1-1.2,1.3-1.9c0.7,0.2,1.4,0.4,2.2,0.4
						c2,0,3.8-0.8,5.5-1.8c-0.1,0.6-0.4,1.2-0.4,1.8c0,4.6,3.1,8.4,7.4,9.7c0,0.2-0.1,0.4-0.1,0.6c0,3.8,3.1,6.9,6.9,6.9
						c3.8,0,6.9-3.1,6.9-6.9c0-2-0.8-3.7-2.2-5c0.9-1.4,1.4-2.9,1.6-4.6c0.4,0,0.8,0.2,1.2,0.2c0.4,0,0.7-0.2,1.1-0.2
						c0,0.1,0,0.1,0,0.2c0,3.8,3.1,6.9,6.9,6.9c0.3,0,0.5-0.1,0.8-0.2c-1.3,1.7-2.1,3.7-2.1,6c0,0.3,0.2,0.6,0.2,0.9
						c-0.1,0-0.1,0-0.2,0c-3.5,0-6.4,2.9-6.4,6.4c0,3.5,2.9,6.4,6.4,6.4c1,0,1.9-0.3,2.7-0.7c-0.1,0.4-0.2,0.8-0.2,1.2
						c0,3.8,3.1,6.9,6.9,6.9c1.2,0,2.3-0.4,3.3-1c0,0.2-0.1,0.3-0.1,0.5c0,3.8,3.1,6.9,6.9,6.9c3.8,0,6.9-3.1,6.9-6.9
						C180.7,162.2,177.6,159.1,173.8,159.1z"/>
					<path class="st12" d="M19.3,245C19.2,245,19.2,245,19.3,245c-0.1-0.1,0-0.3,0-0.4c0-3.8-3.1-6.9-6.9-6.9
						c-3.8,0-6.9,3.1-6.9,6.9c0,3.8,3.1,6.9,6.9,6.9c0,0,0.1,0,0.1,0c0,0.2-0.1,0.3-0.1,0.4c0,0.8,0.2,1.6,0.5,2.3
						c-0.2,0-0.3-0.1-0.5-0.1c-2.6,0-4.7,2.1-4.7,4.7c0,2.6,2.1,4.7,4.7,4.7c2.6,0,4.7-2.1,4.7-4.7c0-0.2-0.1-0.3-0.1-0.5
						c0.7,0.3,1.5,0.5,2.3,0.5c3.8,0,6.9-3.1,6.9-6.9C26.2,248.1,23.1,245,19.3,245z"/>
					<path class="st12" d="M77.2,154.4c-2.6,0-4.7,2.1-4.7,4.7c0,2.6,2.1,4.7,4.7,4.7c2.6,0,4.7-2.1,4.7-4.7
						C82,156.5,79.8,154.4,77.2,154.4z"/>
					<path class="st12" d="M169.1,132.7c2.6,0,4.7-2.1,4.7-4.7c0-2.6-2.1-4.7-4.7-4.7c-2.6,0-4.7,2.1-4.7,4.7
						C164.3,130.6,166.5,132.7,169.1,132.7z"/>
					<path class="st12" d="M7.6,201c2.6,0,4.7-2.1,4.7-4.7s-2.1-4.7-4.7-4.7c-2.6,0-4.7,2.1-4.7,4.7S5,201,7.6,201z"/>
					<path class="st12" d="M74,122.8c2.6,0,4.7-2.1,4.7-4.7c0-2.6-2.1-4.7-4.7-4.7c-2.6,0-4.7,2.1-4.7,4.7
						C69.3,120.7,71.4,122.8,74,122.8z"/>
				</g>
				<path class="st13" d="M280.7,208.4c15.7-28.8,46.1-40.9,85.7-28.3c46.9,15,79.7,56.3,84.8,104.9c0,0.4-0.6,0.4-0.6,0.1
					c-5.8-38-26.8-71.7-60.5-91c-16.8-9.6-38.1-16.7-57.6-13.9c-26.9,3.9-42.9,18.8-51.2,40.1c-26,67.1-23.6,145-28.1,177.8
					C246.3,342.7,247.8,268.3,280.7,208.4z"/>
				<g>
					<path class="st12" d="M433.7,227.8c5.1,0,9.2,3.8,10,8.7c0.7-0.2,1.3-0.4,2-0.4c3.8,0,6.9,3.1,6.9,6.9c0,2.2-1.1,4.1-2.8,5.4
						c1.2,0.5,2.3,1.3,3.2,2.2c1.3-1.3,3-2.2,5-2.2c3.8,0,6.9,3.1,6.9,6.9c0,2.9-1.8,5.4-4.4,6.4c2.4,1.7,4.1,4.4,4.1,7.5
						c0,5.2-4.2,9.5-9.5,9.5c-1.9,0-3.6-0.7-5-1.7c-1.2,2-3.3,3.5-5.9,3.5c-3.8,0-6.9-3.1-6.9-6.9c0,0,0,0,0-0.1
						c-0.1,0-0.2,0.1-0.3,0.1c-3.8,0-6.9-3.1-6.9-6.9c0-3.4,2.5-6.1,5.7-6.7c-0.2-0.8-0.5-1.5-0.5-2.3c0-0.1,0.1-0.2,0.1-0.3
						c-3-0.7-5.3-3.3-5.3-6.6c0-1.1,0.3-2.1,0.8-3c-4.3-1.2-7.5-5-7.5-9.7C423.4,232.4,428,227.8,433.7,227.8z"/>
					<path class="st12" d="M291.2,203.6c1.2,0,2.3,0.4,3.3,1c0-0.2-0.1-0.3-0.1-0.5c0-1.8,0.7-3.5,1.9-4.7c-3.7-1.6-6.2-5.2-6.2-9.4
						c0-5.7,4.6-10.3,10.3-10.3c1,0,1.9,0.3,2.8,0.6c-0.5-0.9-0.8-1.9-0.8-3c0-3.3,2.3-5.9,5.4-6.6c-0.4-1.2-0.7-2.4-0.7-3.7
						c0-5.7,4.6-10.3,10.3-10.3c5.4,0,9.8,4.3,10.2,9.6c0.4-0.1,0.8-0.2,1.2-0.2c2,0,3.8,0.8,5.5,1.8c-0.1-0.6-0.4-1.1-0.4-1.8
						c0-1.8,0.6-3.3,1.3-4.8c-2.2-0.4-4-2.2-4-4.6c0-2.6,2.1-4.7,4.7-4.7c2.5,0,4.6,2,4.7,4.5c1.1-0.4,2.3-0.7,3.5-0.7c0,0,0,0,0,0
						c0-3.8,3.1-6.8,6.9-6.8c1.9,0,3.6,0.8,4.9,2c0.7-5,4.8-8.8,10-8.8c3.8,0,7,2.1,8.8,5.2c1-0.5,2-0.9,3.2-0.9
						c3.8,0,6.9,3.1,6.9,6.9c0,3.8-3.1,6.9-6.9,6.9c-1.6,0-2.9-0.6-4.1-1.5c-1,1.3-2.3,2.4-3.8,3.1c0.9,1.5,1.6,3.2,1.6,5.2
						c0,1-0.3,1.9-0.6,2.8c0.6-0.2,1.1-0.4,1.8-0.4c2.2,0,4,1.1,5.3,2.6c1.8-1.6,4.1-2.6,6.7-2.6c5.7,0,10.3,4.6,10.3,10.3
						c0,2.6-1.1,5-2.7,6.8c1.1-0.8,2.4-1.3,3.9-1.3c1.2,0,2.3,0.4,3.3,0.9c0.4-2.5,1.6-4.7,3.5-6.3c-3.5-1.6-6-5.1-6-9.3
						c0-5.7,4.6-10.3,10.3-10.3s10.3,4.6,10.3,10.3c0,0,0,0.1,0,0.1c0.5-0.1,0.9-0.3,1.4-0.3c3.8,0,6.9,3.1,6.9,6.9
						c0,3.8-3,6.8-6.8,6.9c0.4,1.1,0.7,2.2,0.7,3.4c0,1-0.3,1.9-0.6,2.8c0.6-0.1,1.1-0.3,1.7-0.3c1.6,0,3.1,0.4,4.4,1.1c0,0,0,0,0,0
						c0-2.6,2.1-4.7,4.7-4.7c2.4,0,4.3,1.8,4.6,4.1c0.8-0.2,1.5-0.5,2.3-0.5c5.7,0,10.3,4.6,10.3,10.3c0,3.3-1.6,6.1-4,7.9
						c1.4,1.7,2.3,3.8,2.3,6.2c0,5.7-4.6,10.3-10.3,10.3c-4.2,0-7.9-2.6-9.5-6.2c-1.6,3.7-5.2,6.2-9.5,6.2c-5.1,0-9.2-3.8-10-8.7
						c-1.2,2.2-3.4,3.7-6,3.7c-3.8,0-6.9-3.1-6.9-6.9c0-3.8,3.1-6.9,6.9-6.9c3,0,5.5,2,6.5,4.7c1-2.4,2.8-4.3,5.2-5.5
						c-0.8-1.5-1.4-3.1-1.4-4.9c0-1,0.3-1.9,0.6-2.8c-0.6,0.1-1.1,0.3-1.7,0.3c-2.7,0-5.2-1.1-7.1-2.9c-1.1,2.3-3.4,4-6.2,4
						c-3.8,0-6.9-3.1-6.9-6.9c0-1.7,0.7-3.2,1.7-4.4c-1.8,1.4-3.9,2.3-6.3,2.3c-1.2,0-2.2-0.3-3.2-0.7c0.1,0.6,0.4,1.1,0.4,1.7
						c0,5.7-4.6,10.3-10.3,10.3s-10.3-4.6-10.3-10.3c0-4.5,3-8.2,7-9.6c-1.4-1.3-2.4-3.1-2.4-5.1c0-0.1,0.1-0.2,0.1-0.3
						c-1.4,0.7-3,1.2-4.7,1.2c-1.1,0-2.2-0.3-3.2-0.7c-0.8,1.2-1.8,2.1-3.1,2.6c1.3,1.3,2.1,3,2.1,4.9c0,3.8-3.1,6.9-6.9,6.9
						c-3.8,0-6.9-3.1-6.9-6.9c0-2.9,1.8-5.4,4.4-6.4c-0.6-0.5-1-1.2-1.3-1.9c-0.7,0.2-1.4,0.5-2.2,0.5c-2,0-3.8-0.8-5.5-1.8
						c0.1,0.6,0.4,1.2,0.4,1.8c0,4.6-3.1,8.4-7.4,9.7c0,0.2,0.1,0.4,0.1,0.6c0,3.8-3.1,6.9-6.9,6.9c-3.8,0-6.9-3.1-6.9-6.9
						c0-2,0.8-3.7,2.2-5c-0.9-1.4-1.4-2.9-1.6-4.6c-0.4,0.1-0.8,0.2-1.2,0.2c-0.4,0-0.7-0.2-1.1-0.2c0,0.1,0,0.1,0,0.2
						c0,3.8-3.1,6.9-6.9,6.9c-0.3,0-0.5-0.1-0.8-0.2c1.3,1.7,2.1,3.7,2.1,6c0,0.3-0.2,0.6-0.2,0.9c0.1,0,0.1,0,0.2,0
						c3.5,0,6.4,2.9,6.4,6.4s-2.9,6.4-6.4,6.4c-1,0-1.9-0.3-2.7-0.7c0.1,0.4,0.2,0.8,0.2,1.2c0,3.8-3.1,6.9-6.9,6.9
						c-1.2,0-2.3-0.4-3.3-1c0,0.2,0.1,0.3,0.1,0.5c0,3.8-3.1,6.9-6.9,6.9c-3.8,0-6.9-3.1-6.9-6.9
						C284.3,206.7,287.4,203.6,291.2,203.6z"/>
					<path class="st12" d="M445.7,289.5C445.8,289.5,445.8,289.5,445.7,289.5c0.1-0.1,0-0.3,0-0.4c0-3.8,3.1-6.9,6.9-6.9
						c3.8,0,6.9,3.1,6.9,6.9s-3.1,6.9-6.9,6.9c0,0-0.1,0-0.1,0c0,0.2,0.1,0.3,0.1,0.4c0,0.8-0.2,1.6-0.5,2.3c0.2,0,0.3-0.1,0.5-0.1
						c2.6,0,4.7,2.1,4.7,4.7c0,2.6-2.1,4.7-4.7,4.7c-2.6,0-4.7-2.1-4.7-4.7c0-0.2,0.1-0.3,0.1-0.5c-0.7,0.3-1.5,0.5-2.3,0.5
						c-3.8,0-6.9-3.1-6.9-6.9C438.8,292.6,441.9,289.5,445.7,289.5z"/>
					<path class="st12" d="M387.8,198.9c2.6,0,4.7,2.1,4.7,4.7c0,2.6-2.1,4.7-4.7,4.7c-2.6,0-4.7-2.1-4.7-4.7
						C383.1,201,385.2,198.9,387.8,198.9z"/>
					<path class="st12" d="M295.9,177.2c-2.6,0-4.7-2.1-4.7-4.7c0-2.6,2.1-4.7,4.7-4.7c2.6,0,4.7,2.1,4.7,4.7
						C300.7,175,298.6,177.2,295.9,177.2z"/>
					<path class="st12" d="M457.4,245.5c-2.6,0-4.7-2.1-4.7-4.7c0-2.6,2.1-4.7,4.7-4.7c2.6,0,4.7,2.1,4.7,4.7
						C462.1,243.4,460,245.5,457.4,245.5z"/>
					<path class="st12" d="M391,167.3c-2.6,0-4.7-2.1-4.7-4.7c0-2.6,2.1-4.7,4.7-4.7c2.6,0,4.7,2.1,4.7,4.7
						C395.7,165.2,393.6,167.3,391,167.3z"/>
				</g>
				<path class="st10" d="M192.1,51.8c-22.3-30.1-68.6-46.2-94.2-10.9c-0.4,0.6,0.5,1.3,1,0.8c15.8-19.3,44.5-20.1,64.9-7.7
					c19,11.5,30.4,32,38.8,51.8c17.7,41.3,27.9,123.9,27.9,195.3C238.2,189.6,224.4,95.4,192.1,51.8z"/>
				<g>
					<path class="st12" d="M216,93.9c-2.6,0-4.8,1.4-6.2,3.4c-0.1-0.2-0.3-0.3-0.4-0.4c2-1.1,3.3-3.2,3.3-5.6c0-2.3-1.2-4.1-2.9-5.3
						c4.7-1.3,8.1-5.4,8.1-10.5c0-6.1-5-11.1-11.1-11.1c-0.3,0-0.6,0.2-0.9,0.2c1.1-0.9,1.8-2.2,1.8-3.7c0-2.7-2.2-4.9-4.9-4.9
						c-0.7,0-1.4,0.2-2,0.5c-0.8-4.1-3.9-7.3-7.9-8.4c0.8-1.1,1.4-2.4,1.4-3.9c0-3.4-2.6-6.1-6-6.4c0.2-0.4,0.3-0.9,0.3-1.4
						c0-1.9-1.5-3.4-3.4-3.4s-3.4,1.5-3.4,3.4c0,1.3,0.7,2.3,1.7,2.9c-1.4,1.2-2.4,2.9-2.4,5c0,0.3,0.1,0.5,0.2,0.8
						c-0.7-0.5-1.6-0.8-2.5-0.8c-1.7,0-3.1,0.9-4,2.2c-1.9-3.4-5.4-5.7-9.5-5.7c-0.6,0-1.2,0.3-1.8,0.4c0.2-0.6,0.4-1.1,0.4-1.8
						c0-3.6-2.9-6.6-6.6-6.6c-1.3,0-2.5,0.5-3.6,1.2c-0.9-0.8-2-1.3-3.2-1.3c-2.7,0-4.9,2.2-4.9,4.9c0,2.7,2.2,4.9,4.9,4.9
						c0.4,0,0.7-0.1,1-0.2c0.9,1.8,2.7,3,4.8,3.4c-1.2,1.8-2.1,3.8-2.1,6.1c0,6.1,5,11.1,11.1,11.1c1.8,0,3.5-0.6,5-1.4
						c0.7,1.7,2.1,3.1,3.7,3.9c-0.7,0.6-1.1,1.5-1.1,2.5c0,1.9,1.5,3.4,3.4,3.4c1.9,0,3.4-1.5,3.4-3.4c0-0.7-0.3-1.4-0.7-1.9
						c0.8-0.2,1.6-0.5,2.3-0.9c2,2.7,5.1,4.6,8.8,4.6c3.9,0,7.2-2.2,9.2-5.3c0.7,0.7,1.6,1.1,2.6,1.3c-3.7,1.8-6.2,5.5-6.2,9.9
						c0,2.4,0.9,4.5,2.2,6.3c-2.4,0.3-4.3,2.3-4.3,4.8c0,0.1,0.1,0.2,0.1,0.3c-2.6,0.9-4.5,3.3-4.5,6.1c0,3.6,2.9,6.6,6.6,6.6
						c2.6,0,4.7-1.5,5.8-3.6c0.4,0.4,0.9,0.7,1.4,0.9c-1,0.9-1.7,2.2-1.7,3.6c0,1.7,1,3.2,2.3,4.1c-1.7,1.4-2.9,3.5-2.9,5.9
						c0,4.2,3.4,7.7,7.7,7.7c4.2,0,7.7-3.4,7.7-7.7c0-0.4-0.2-0.8-0.2-1.2c0.1,0,0.2,0,0.2,0c4.2,0,7.7-3.4,7.7-7.7
						S220.2,93.9,216,93.9z"/>
					<path class="st12" d="M110.3,27.6c-2.9,0-5.4,2-6.2,4.7c-0.2-0.2-0.5-0.4-0.8-0.5c0.4-0.7,0.8-1.5,0.8-2.5
						c0-2.7-2.2-4.9-4.9-4.9c-2.7,0-4.9,2.2-4.9,4.9c0,0.9,0.3,1.7,0.8,2.5c-1.8,1.3-3,3.3-3,5.7c0,0.6,0.2,1.2,0.4,1.8
						c-0.1,0-0.2-0.1-0.4-0.1c-2.7,0-4.9,2.2-4.9,4.9c0,0.3,0.1,0.6,0.2,0.9c-1.6,0.3-2.8,1.6-2.8,3.3c0,1.9,1.5,3.4,3.4,3.4
						c1.7,0,3-1.2,3.3-2.8c0.3,0.1,0.5,0.2,0.8,0.2c0.8,0,1.5-0.2,2.1-0.5c0.7,1.9,2.5,3.2,4.6,3.2c2.7,0,4.9-2.2,4.9-4.9
						c0-1.1-0.5-2.2-1.1-3c1.8-1,3.1-2.6,3.6-4.7c1.2,1,2.6,1.7,4.3,1.7c3.6,0,6.6-2.9,6.6-6.6C116.9,30.5,113.9,27.6,110.3,27.6z"
						/>
					<path class="st12" d="M145.4,26.3c0-6.1-5-11.1-11.1-11.1c-2.9,0-5.4,1.2-7.4,2.9c-1.4-1.7-3.5-2.9-5.9-2.9
						c-4.2,0-7.7,3.4-7.7,7.7c0,4.2,3.4,7.7,7.7,7.7c1,0,2-0.2,2.9-0.6c0.6,1.8,1.6,3.3,3,4.5c-0.6,0.8-1.1,1.8-1.1,2.9
						c0,2.7,2.2,4.9,4.9,4.9c2.7,0,4.9-2.2,4.9-4.9c0-0.1-0.1-0.2-0.1-0.3C141.2,36.4,145.4,32,145.4,26.3z"/>
					<circle class="st12" cx="91.9" cy="55" r="3.4"/>
					<circle class="st12" cx="155.3" cy="18.6" r="3.4"/>
					<circle class="st12" cx="217.9" cy="89.5" r="3.4"/>
					<circle class="st12" cx="216" cy="60.8" r="3.4"/>
					<path class="st12" d="M108,24.2c1.9,0,3.4-1.5,3.4-3.4c0-1.9-1.5-3.4-3.4-3.4c-1.9,0-3.4,1.5-3.4,3.4
						C104.5,22.7,106.1,24.2,108,24.2z"/>
					<path class="st12" d="M185.2,71.7c-2.7,0-4.9,2.2-4.9,4.9c0,2.7,2.2,4.9,4.9,4.9c2.7,0,4.9-2.2,4.9-4.9
						C190.1,73.9,187.9,71.7,185.2,71.7z"/>
					<path class="st12" d="M173.8,36.2c2.7,0,4.9-2.2,4.9-4.9s-2.2-4.9-4.9-4.9c-2.7,0-4.9,2.2-4.9,4.9S171.1,36.2,173.8,36.2z"/>
					<path class="st12" d="M202.8,49.7c2.7,0,4.9-2.2,4.9-4.9s-2.2-4.9-4.9-4.9s-4.9,2.2-4.9,4.9S200,49.7,202.8,49.7z"/>
				</g>
				<path class="st10" d="M293.6,38.5C316,8.4,362.3-7.7,387.9,27.6c0.4,0.6-0.5,1.3-1,0.8C371.1,9.1,342.4,8.3,322,20.7
					c-19,11.5-30.4,32-38.8,51.8c-17.7,41.3-27.9,123.9-27.9,195.3C247.6,176.3,261.3,82,293.6,38.5z"/>
				<g>
					<path class="st12" d="M269.8,80.6c2.6,0,4.8,1.4,6.2,3.4c0.1-0.2,0.3-0.3,0.4-0.4c-2-1.1-3.3-3.2-3.3-5.6
						c0-2.3,1.2-4.1,2.9-5.3c-4.7-1.3-8.1-5.4-8.1-10.5c0-6.1,5-11.1,11.1-11.1c0.3,0,0.6,0.2,0.9,0.2c-1.1-0.9-1.8-2.2-1.8-3.7
						c0-2.7,2.2-4.9,4.9-4.9c0.7,0,1.4,0.2,2,0.4c0.8-4.1,3.9-7.3,7.9-8.4c-0.8-1.1-1.4-2.4-1.4-3.9c0-3.4,2.6-6.1,6-6.4
						c-0.2-0.4-0.3-0.9-0.3-1.4c0-1.9,1.5-3.4,3.4-3.4c1.9,0,3.4,1.5,3.4,3.4c0,1.3-0.7,2.3-1.7,2.9c1.4,1.2,2.4,2.9,2.4,5
						c0,0.3-0.1,0.5-0.2,0.8c0.7-0.5,1.6-0.8,2.5-0.8c1.7,0,3.1,0.9,4,2.2c1.9-3.4,5.4-5.7,9.5-5.7c0.6,0,1.2,0.3,1.8,0.4
						c-0.2-0.6-0.4-1.1-0.4-1.8c0-3.6,2.9-6.6,6.6-6.6c1.3,0,2.5,0.5,3.6,1.2c0.9-0.8,2-1.3,3.2-1.3c2.7,0,4.9,2.2,4.9,4.9
						c0,2.7-2.2,4.9-4.9,4.9c-0.4,0-0.7-0.1-1-0.2c-0.9,1.8-2.7,3-4.8,3.4c1.2,1.8,2.1,3.8,2.1,6.1c0,6.1-5,11.1-11.1,11.1
						c-1.8,0-3.5-0.6-5-1.4c-0.7,1.7-2.1,3.1-3.7,3.9c0.7,0.6,1.1,1.5,1.1,2.5c0,1.9-1.5,3.4-3.4,3.4c-1.9,0-3.4-1.5-3.4-3.4
						c0-0.7,0.3-1.4,0.7-1.9c-0.8-0.2-1.6-0.5-2.3-0.9c-2,2.7-5.1,4.6-8.8,4.6c-3.9,0-7.2-2.2-9.2-5.3c-0.7,0.7-1.6,1.1-2.6,1.3
						c3.7,1.8,6.2,5.5,6.2,9.9c0,2.4-0.9,4.5-2.2,6.3c2.4,0.3,4.3,2.3,4.3,4.8c0,0.1-0.1,0.2-0.1,0.3c2.6,0.9,4.5,3.3,4.5,6.1
						c0,3.6-2.9,6.6-6.6,6.6c-2.6,0-4.7-1.5-5.8-3.6c-0.4,0.4-0.9,0.7-1.4,0.9c1,0.9,1.7,2.2,1.7,3.6c0,1.7-1,3.2-2.3,4.1
						c1.7,1.4,2.9,3.5,2.9,5.9c0,4.2-3.4,7.7-7.7,7.7c-4.2,0-7.7-3.4-7.7-7.7c0-0.4,0.2-0.8,0.2-1.2c-0.1,0-0.2,0-0.2,0
						c-4.2,0-7.7-3.4-7.7-7.7C262.1,84,265.5,80.6,269.8,80.6z"/>
					<path class="st12" d="M375.4,14.3c2.9,0,5.4,2,6.2,4.7c0.2-0.2,0.5-0.4,0.8-0.5c-0.4-0.7-0.8-1.5-0.8-2.5
						c0-2.7,2.2-4.9,4.9-4.9c2.7,0,4.9,2.2,4.9,4.9c0,0.9-0.3,1.7-0.8,2.5c1.8,1.3,3,3.3,3,5.7c0,0.6-0.2,1.2-0.4,1.8
						c0.1,0,0.2-0.1,0.4-0.1c2.7,0,4.9,2.2,4.9,4.9c0,0.3-0.1,0.6-0.2,0.9c1.6,0.3,2.8,1.6,2.8,3.3c0,1.9-1.5,3.4-3.4,3.4
						c-1.7,0-3-1.2-3.3-2.8c-0.3,0.1-0.5,0.2-0.8,0.2c-0.8,0-1.5-0.2-2.1-0.5c-0.7,1.9-2.5,3.2-4.6,3.2c-2.7,0-4.9-2.2-4.9-4.9
						c0-1.1,0.5-2.2,1.1-3c-1.8-1-3.1-2.6-3.6-4.7c-1.2,1-2.6,1.7-4.3,1.7c-3.6,0-6.6-2.9-6.6-6.6C368.9,17.2,371.8,14.3,375.4,14.3
						z"/>
					<path class="st12" d="M340.3,13c0-6.1,5-11.1,11.1-11.1c2.9,0,5.4,1.2,7.4,2.9c1.4-1.7,3.5-2.9,5.9-2.9c4.2,0,7.7,3.4,7.7,7.7
						c0,4.2-3.4,7.7-7.7,7.7c-1,0-2-0.2-2.9-0.6c-0.6,1.8-1.6,3.3-3,4.5c0.6,0.8,1.1,1.8,1.1,2.9c0,2.7-2.2,4.9-4.9,4.9
						s-4.9-2.2-4.9-4.9c0-0.1,0.1-0.2,0.1-0.3C344.6,23.1,340.3,18.6,340.3,13z"/>
					<circle class="st12" cx="393.8" cy="41.7" r="3.4"/>
					<circle class="st12" cx="330.5" cy="5.3" r="3.4"/>
					<circle class="st12" cx="267.9" cy="76.2" r="3.4"/>
					<path class="st12" d="M269.8,50.9c-1.9,0-3.4-1.5-3.4-3.4c0-1.9,1.5-3.4,3.4-3.4c1.9,0,3.4,1.5,3.4,3.4
						C273.2,49.3,271.7,50.9,269.8,50.9z"/>
					<path class="st12" d="M377.8,10.9c-1.9,0-3.4-1.5-3.4-3.4s1.5-3.4,3.4-3.4c1.9,0,3.4,1.5,3.4,3.4S379.7,10.9,377.8,10.9z"/>
					<circle class="st12" cx="300.6" cy="63.3" r="4.9"/>
					<circle class="st12" cx="312" cy="17.9" r="4.9"/>
					<path class="st12" d="M283,36.4c-2.7,0-4.9-2.2-4.9-4.9s2.2-4.9,4.9-4.9s4.9,2.2,4.9,4.9S285.7,36.4,283,36.4z"/>
				</g>
				<path class="st10" d="M365.3,118c-25.6-35.3-71.9-19.2-94.2,10.9C242.4,167.5,230.9,246,233.5,327c0.9-2.6,2.5-6,3.5-8.5
					c2.9-60.7,9-121.8,23.6-155.7c8.5-19.8,19.8-40.3,38.8-51.8c20.4-12.4,49.1-11.6,64.9,7.7C364.7,119.3,365.7,118.6,365.3,118z"
					/>
				<g>
					<path class="st12" d="M247.2,171c2.6,0,4.8,1.4,6.2,3.4c0.1-0.2,0.3-0.3,0.4-0.4c-2-1.1-3.3-3.2-3.3-5.6c0-2.3,1.2-4.1,2.9-5.3
						c-4.7-1.3-8.1-5.4-8.1-10.5c0-6.1,5-11.1,11.1-11.1c0.3,0,0.6,0.2,0.9,0.2c-1.1-0.9-1.8-2.2-1.8-3.7c0-2.7,2.2-4.9,4.9-4.9
						c0.7,0,1.4,0.2,2,0.5c0.8-4.1,3.9-7.3,7.9-8.4c-0.8-1.1-1.4-2.4-1.4-3.9c0-3.4,2.6-6.1,6-6.4c-0.2-0.4-0.3-0.9-0.3-1.4
						c0-1.9,1.5-3.4,3.4-3.4c1.9,0,3.4,1.5,3.4,3.4c0,1.3-0.7,2.3-1.7,2.9c1.4,1.2,2.4,2.9,2.4,5c0,0.3-0.1,0.5-0.2,0.8
						c0.7-0.5,1.6-0.8,2.5-0.8c1.7,0,3.1,0.9,4,2.2c1.9-3.4,5.4-5.7,9.5-5.7c0.6,0,1.2,0.3,1.8,0.4c-0.2-0.6-0.4-1.1-0.4-1.8
						c0-3.6,2.9-6.6,6.6-6.6c1.3,0,2.5,0.5,3.6,1.2c0.9-0.8,2-1.3,3.2-1.3c2.7,0,4.9,2.2,4.9,4.9c0,2.7-2.2,4.9-4.9,4.9
						c-0.4,0-0.7-0.1-1-0.2c-0.9,1.8-2.7,3-4.8,3.4c1.2,1.8,2.1,3.8,2.1,6.1c0,6.1-5,11.1-11.1,11.1c-1.8,0-3.5-0.6-5-1.4
						c-0.7,1.7-2.1,3.1-3.7,3.9c0.7,0.6,1.1,1.5,1.1,2.5c0,1.9-1.5,3.4-3.4,3.4c-1.9,0-3.4-1.5-3.4-3.4c0-0.7,0.3-1.4,0.7-1.9
						c-0.8-0.2-1.6-0.5-2.3-0.9c-2,2.7-5.1,4.6-8.8,4.6c-3.9,0-7.2-2.2-9.2-5.3c-0.7,0.7-1.6,1.1-2.6,1.3c3.7,1.8,6.2,5.5,6.2,9.9
						c0,2.4-0.9,4.5-2.2,6.3c2.4,0.3,4.3,2.3,4.3,4.8c0,0.1-0.1,0.2-0.1,0.3c2.6,0.9,4.5,3.3,4.5,6.1c0,3.6-2.9,6.6-6.6,6.6
						c-2.6,0-4.7-1.5-5.8-3.6c-0.4,0.4-0.9,0.7-1.4,0.9c1,0.9,1.7,2.2,1.7,3.6c0,1.7-1,3.2-2.3,4.1c1.7,1.4,2.9,3.5,2.9,5.9
						c0,4.2-3.4,7.7-7.7,7.7c-4.2,0-7.7-3.4-7.7-7.7c0-0.4,0.2-0.8,0.2-1.2c-0.1,0-0.2,0-0.2,0c-4.2,0-7.7-3.4-7.7-7.7
						C239.5,174.4,242.9,171,247.2,171z"/>
					<path class="st12" d="M352.8,104.7c2.9,0,5.4,2,6.2,4.7c0.2-0.2,0.5-0.4,0.8-0.5c-0.4-0.7-0.8-1.5-0.8-2.5
						c0-2.7,2.2-4.9,4.9-4.9c2.7,0,4.9,2.2,4.9,4.9c0,0.9-0.3,1.7-0.8,2.5c1.8,1.3,3,3.3,3,5.7c0,0.6-0.2,1.2-0.4,1.8
						c0.1,0,0.2-0.1,0.4-0.1c2.7,0,4.9,2.2,4.9,4.9c0,0.3-0.1,0.6-0.2,0.9c1.6,0.3,2.8,1.6,2.8,3.3c0,1.9-1.5,3.4-3.4,3.4
						c-1.7,0-3-1.2-3.3-2.8c-0.3,0.1-0.5,0.2-0.8,0.2c-0.8,0-1.5-0.2-2.1-0.5c-0.7,1.9-2.5,3.2-4.6,3.2c-2.7,0-4.9-2.2-4.9-4.9
						c0-1.1,0.5-2.2,1.1-3c-1.8-1-3.1-2.6-3.6-4.7c-1.2,1-2.6,1.7-4.3,1.7c-3.6,0-6.6-2.9-6.6-6.6
						C346.2,107.6,349.2,104.7,352.8,104.7z"/>
					<path class="st12" d="M317.7,103.4c0-6.1,5-11.1,11.1-11.1c2.9,0,5.4,1.2,7.4,2.9c1.4-1.7,3.5-2.9,5.9-2.9
						c4.2,0,7.7,3.4,7.7,7.7c0,4.2-3.4,7.7-7.7,7.7c-1,0-2-0.2-2.9-0.6c-0.6,1.8-1.6,3.3-3,4.5c0.6,0.8,1.1,1.8,1.1,2.9
						c0,2.7-2.2,4.9-4.9,4.9s-4.9-2.2-4.9-4.9c0-0.1,0.1-0.2,0.1-0.3C321.9,113.5,317.7,109.1,317.7,103.4z"/>
					<circle class="st12" cx="371.2" cy="132.1" r="3.4"/>
					<circle class="st12" cx="307.8" cy="95.7" r="3.4"/>
					<circle class="st12" cx="245.2" cy="166.6" r="3.4"/>
					<circle class="st12" cx="247.2" cy="137.9" r="3.4"/>
					<path class="st12" d="M355.2,101.3c-1.9,0-3.4-1.5-3.4-3.4s1.5-3.4,3.4-3.4c1.9,0,3.4,1.5,3.4,3.4S357.1,101.3,355.2,101.3z"/>
					<circle class="st12" cx="278" cy="153.8" r="4.9"/>
					<circle class="st12" cx="289.3" cy="108.3" r="4.9"/>
					<circle class="st12" cx="260.4" cy="121.9" r="4.9"/>
				</g>
				<path class="st10" d="M199.8,325.7c-1-54.8-12.1-81.5-37.4-115.6C140,180,93.7,163.9,68.1,199.2c-0.4,0.6,0.5,1.3,1,0.8
					c15.8-19.3,44.5-20.1,64.9-7.7c19,11.5,30.4,32,38.8,51.8c10.9,25.4,16.6,45.8,20.3,72.8C195.9,319.2,198.1,322.3,199.8,325.7z"
					/>
				<g>
					<path class="st12" d="M186.2,252.2c-2.6,0-4.8,1.4-6.2,3.4c-0.1-0.2-0.3-0.3-0.4-0.4c2-1.1,3.3-3.2,3.3-5.6
						c0-2.3-1.2-4.1-2.9-5.3c4.7-1.3,8.1-5.4,8.1-10.5c0-6.1-5-11.1-11.1-11.1c-0.3,0-0.6,0.2-0.9,0.2c1.1-0.9,1.8-2.2,1.8-3.7
						c0-2.7-2.2-4.9-4.9-4.9c-0.7,0-1.4,0.2-2,0.5c-0.8-4.1-3.9-7.3-7.9-8.4c0.8-1.1,1.4-2.4,1.4-3.9c0-3.4-2.6-6.1-6-6.4
						c0.2-0.4,0.3-0.9,0.3-1.4c0-1.9-1.5-3.4-3.4-3.4s-3.4,1.5-3.4,3.4c0,1.3,0.7,2.3,1.7,2.9c-1.4,1.2-2.4,2.9-2.4,5
						c0,0.3,0.1,0.5,0.2,0.8c-0.7-0.5-1.6-0.8-2.5-0.8c-1.7,0-3.1,0.9-4,2.2c-1.9-3.4-5.4-5.7-9.5-5.7c-0.6,0-1.2,0.3-1.8,0.4
						c0.2-0.6,0.4-1.1,0.4-1.8c0-3.6-2.9-6.6-6.6-6.6c-1.3,0-2.5,0.5-3.6,1.2c-0.9-0.8-2-1.3-3.2-1.3c-2.7,0-4.9,2.2-4.9,4.9
						c0,2.7,2.2,4.9,4.9,4.9c0.4,0,0.7-0.1,1-0.2c0.9,1.8,2.7,3,4.8,3.4c-1.2,1.8-2.1,3.8-2.1,6.1c0,6.1,5,11.1,11.1,11.1
						c1.8,0,3.5-0.6,5-1.4c0.7,1.7,2.1,3.1,3.7,3.9c-0.7,0.6-1.1,1.5-1.1,2.5c0,1.9,1.5,3.4,3.4,3.4c1.9,0,3.4-1.5,3.4-3.4
						c0-0.7-0.3-1.4-0.7-1.9c0.8-0.2,1.6-0.5,2.3-0.9c2,2.7,5.1,4.6,8.8,4.6c3.9,0,7.2-2.2,9.2-5.3c0.7,0.7,1.6,1.1,2.6,1.3
						c-3.7,1.8-6.2,5.5-6.2,9.9c0,2.4,0.9,4.5,2.2,6.3c-2.4,0.3-4.3,2.3-4.3,4.8c0,0.1,0.1,0.2,0.1,0.3c-2.6,0.9-4.5,3.3-4.5,6.1
						c0,3.6,2.9,6.6,6.6,6.6c2.6,0,4.7-1.5,5.8-3.6c0.4,0.4,0.9,0.7,1.4,0.9c-1,0.9-1.7,2.2-1.7,3.6c0,1.7,1,3.2,2.3,4.1
						c-1.7,1.4-2.9,3.5-2.9,5.9c0,4.2,3.4,7.7,7.7,7.7c4.2,0,7.7-3.4,7.7-7.7c0-0.4-0.2-0.8-0.2-1.2c0.1,0,0.2,0,0.2,0
						c4.2,0,7.7-3.4,7.7-7.7C193.9,255.6,190.5,252.2,186.2,252.2z"/>
					<path class="st12" d="M80.6,185.9c-2.9,0-5.4,2-6.2,4.7c-0.2-0.2-0.5-0.4-0.8-0.5c0.4-0.7,0.8-1.5,0.8-2.5
						c0-2.7-2.2-4.9-4.9-4.9c-2.7,0-4.9,2.2-4.9,4.9c0,0.9,0.3,1.7,0.8,2.5c-1.8,1.3-3,3.3-3,5.7c0,0.6,0.2,1.2,0.4,1.8
						c-0.1,0-0.2-0.1-0.4-0.1c-2.7,0-4.9,2.2-4.9,4.9c0,0.3,0.1,0.6,0.2,0.9c-1.6,0.3-2.8,1.6-2.8,3.3c0,1.9,1.5,3.4,3.4,3.4
						c1.7,0,3-1.2,3.3-2.8c0.3,0.1,0.5,0.2,0.8,0.2c0.8,0,1.5-0.2,2.1-0.5c0.7,1.9,2.5,3.2,4.6,3.2c2.7,0,4.9-2.2,4.9-4.9
						c0-1.1-0.5-2.2-1.1-3c1.8-1,3.1-2.6,3.6-4.7c1.2,1,2.6,1.7,4.3,1.7c3.6,0,6.6-2.9,6.6-6.6S84.2,185.9,80.6,185.9z"/>
					<path class="st12" d="M115.7,184.6c0-6.1-5-11.1-11.1-11.1c-2.9,0-5.4,1.2-7.4,2.9c-1.4-1.7-3.5-2.9-5.9-2.9
						c-4.2,0-7.7,3.4-7.7,7.7c0,4.2,3.4,7.7,7.7,7.7c1,0,2-0.2,2.9-0.6c0.6,1.8,1.7,3.3,3,4.5c-0.6,0.8-1.1,1.8-1.1,2.9
						c0,2.7,2.2,4.9,4.9,4.9c2.7,0,4.9-2.2,4.9-4.9c0-0.1-0.1-0.2-0.1-0.3C111.4,194.7,115.7,190.2,115.7,184.6z"/>
					<circle class="st12" cx="62.2" cy="213.3" r="3.4"/>
					<path class="st12" d="M125.5,180.4c1.9,0,3.4-1.5,3.4-3.4c0-1.9-1.5-3.4-3.4-3.4s-3.4,1.5-3.4,3.4
						C122.1,178.8,123.7,180.4,125.5,180.4z"/>
					<circle class="st12" cx="188.1" cy="247.8" r="3.4"/>
					<circle class="st12" cx="186.2" cy="219.1" r="3.4"/>
					<path class="st12" d="M78.2,182.5c1.9,0,3.4-1.5,3.4-3.4s-1.5-3.4-3.4-3.4c-1.9,0-3.4,1.5-3.4,3.4S76.3,182.5,78.2,182.5z"/>
					<path class="st12" d="M155.4,230c-2.7,0-4.9,2.2-4.9,4.9c0,2.7,2.2,4.9,4.9,4.9c2.7,0,4.9-2.2,4.9-4.9
						C160.3,232.2,158.1,230,155.4,230z"/>
					<path class="st12" d="M144.1,194.5c2.7,0,4.9-2.2,4.9-4.9c0-2.7-2.2-4.9-4.9-4.9c-2.7,0-4.9,2.2-4.9,4.9
						C139.1,192.3,141.3,194.5,144.1,194.5z"/>
					<path class="st12" d="M173,208c2.7,0,4.9-2.2,4.9-4.9c0-2.7-2.2-4.9-4.9-4.9s-4.9,2.2-4.9,4.9C168.1,205.8,170.3,208,173,208z"
						/>
				</g>
			</g>
			<path class="st13" d="M157.2,398.6c-2.5-19-10-38.1-32.5-38.1c-23.8,0-33.3,23.3-37.9,41.9c-4.6,18.6-4.1,42.3-1.8,48.4
				c1.2-4.1,2.6-54.5,22.8-69.4c15.9-11.8,31-6.4,35.4,6.1c6.2,17.8,2.8,53,2.8,53l10.7,5.4C156.5,445.8,160.9,426.5,157.2,398.6z"
				/>
			<path class="st14" d="M117.3,356.5c0,0,11.8-18.4,41.3-13c29.5,5.4,33.2,34.3,34.6,48.4c1.4,14.1-3.2,35.7-3.2,35.7l-4.5-4.6
				c0,0,0-27.1-4.9-45.1c-4.5-16.4-10.7-23.3-28-26.7C133,347.2,117.3,356.5,117.3,356.5z"/>
			<path class="st14" d="M370.2,323.3c0,0-11.8-18.4-41.3-13c-29.5,5.4-33.2,34.3-34.6,48.4c-1.4,14.1,3.2,35.7,3.2,35.7l4.5-4.6
				c0,0,0-27.1,4.9-45.1c4.5-16.4,10.7-23.3,28-26.7C354.6,314,370.2,323.3,370.2,323.3z"/>
			<path class="st13" d="M188.5,413c-2.5-19-10-38.1-32.5-38.1c-23.8,0-33.3,23.3-37.9,41.9c-4.6,18.6-4.1,42.3-1.8,48.4
				c1.2-4.1,2.6-54.5,22.8-69.4c15.9-11.8,31-6.4,35.4,6.1c6.2,17.8,4.3,52.6,4.3,52.6l11.3,3.1C190.1,457.6,192.3,440.9,188.5,413z
				"/>
			<path class="st13" d="M259.8,384.3c28.1-2.4,35.7,18.4,40.3,37c4.6,18.6-0.9,58.3-2.1,54.2s-2.3-65.7-19.6-75.3
				c-17.4-9.6-24.5-0.8-31.5,10.4c-11.7,18.7-10.8,53.8-10.8,53.8l-12.6-0.9C223.5,463.5,223.5,387.5,259.8,384.3z"/>
			<path class="st13" d="M311,384.3c28.1-2.4,35.7,18.4,40.3,37c4.6,18.6-0.9,58.3-2.1,54.2c-1.2-4.1-2.3-65.7-19.6-75.3
				c-17.4-9.6-24.5-0.8-31.5,10.4c-11.7,18.7-11.4,53.4-11.4,53.4l-12,1.1C274.7,465.1,274.7,387.5,311,384.3z"/>
			<path class="st13" d="M96,340.1c0,0,10.4-35.9,51.7-26.6c31.2,7,40.7,43.4,40.7,43.4S168,327.6,150,324
				C125.5,319,105.5,327.6,96,340.1z"/>
			<path class="st13" d="M195.2,458.8c0,0,0.7-60.9,15.9-96.9c13.2-31.2,46.8-18,56.5,4.3c9.7,22.3-0.9,53.7-0.9,53.7
				s3.4-38.7-8.8-53.8c-9.8-12.2-25.8-18.9-35.2-5.7c-9.4,13.2-14.3,43.5-16.1,63.2c-1.1,11.6-1.6,37.2-1.6,37.2L195.2,458.8z"/>
			<path class="st13" d="M322.4,457.3c0,0-9.1-68.8,7.9-103.9c13.5-27.9,51.4-22.3,61.1,0c9.7,22.3,6.6,45.3,6.6,45.3
				s-4.7-39.9-16.9-48.4c-12.7-9-27.5-7.9-36.9,5.3c-9.4,13.2-10.4,45.6-10.5,62.4c0,11.6,3,34.1,3,34.1L322.4,457.3z"/>
			<path class="st13" d="M319.6,343.6c0,0,6.3-37.1,46.1-45.8c39.8-8.7,57.9,10.7,57.9,10.7s-29.9-11.7-53.7-3.8
				C332.9,316.9,319.6,343.6,319.6,343.6z"/>
			<path class="st13" d="M122.9,263.1c0,0,38.6-14.8,67.8,12.5c20.8,19.5,26.7,65.6,26.7,65.6s3.5-36.7-14.8-65.6
				C184.2,246.6,137.7,251.1,122.9,263.1z"/>
			<path class="st13" d="M135.9,292.9c0,0,34.3-9,52.4,19.9c16.7,26.8,17,83,17,83l6.1-23.4c0,0,0.3-52.6-24.9-75.2
				C161.2,274.5,135.9,292.9,135.9,292.9z"/>
			<path class="st13" d="M276,391.9c0,0-8.4-85.8,16.5-111.9c24.9-26.1,49.8-9,49.8-9s-20.3-12.7-45.4,16.6
				c-13.4,15.6-11.9,108.3-11.9,108.3L276,391.9z"/>
			<path class="st13" d="M232.5,349.8c0,0-8.9-67.2,15.5-96.7c19.6-23.7,41.3-25.1,41.3-25.1s-19.9,13.4-30.1,29.5
				c-21.3,33.7-17.9,91.8-17.9,91.8L232.5,349.8z"/>
			<path class="st13" d="M308.4,306.5c0.4-3.8,5.3-35.8,35.4-48.3c30-12.6,47.7,12.9,47.7,12.9s-25.5-12.8-46.2-3.6
				C319.9,278.8,308.4,306.5,308.4,306.5z"/>
			<path class="st13" d="M320.7,207.1c0,0-16.5,2.2-26.8,25.6c-10.4,23.5-4.5,57.3-4.5,57.3s2.2-42.1,11.9-58.7
				C311,214.7,320.7,207.1,320.7,207.1z"/>
			<path class="st14" d="M265.5,328c0,0-15.9,4.5-32,28.9c-25.7,38.9-22.1,105-22.1,105l8,1.1c0,0-1.6-44.3,14.1-83.1
				C245.9,349.2,265.5,328,265.5,328z"/>
			<path class="st14" d="M206.4,202.6c0,0,20.9,9.5,29.9,29.2c9,19.8,10,35.6,10,35.6s-7.2-17.5-15.8-33
				C222,218.8,206.4,202.6,206.4,202.6z"/>
			<path class="st14" d="M341.4,386.3c0,0,15.7-17.1,40.6-23.1c24.9-6,35.1,1.6,35.1,1.6s-11.2-13.8-34-11.3
				C360.3,356,341.4,386.3,341.4,386.3z"/>
		</g>
	</g>
	<g>
		<path class="st15" d="M747.4,615.3c0.6-0.5,0.4-1.2,1.7-1.1c0.7-6.5-3.8-11.2-3.3-18.1c0.5-5.9,3-14.3,5.5-19.8
			c6.4-14.2,23.3-21.4,38.2-22c16.4-0.8,40.2,9.5,46.9-10c5.2-15.2-0.6-33.2,13.9-44.6c7-5.5,16-6.5,24.4-8
			c10.2-1.8,20.2-5.2,30.3-7.5h-6.4c7.2-3.1,12.9-8.6,19.6-12.5c5.8-3.4,11.4-5.4,17.1-8.4c3.5-4,6.4-12.6,12.3-15.2
			c0.6-6,9.7-12.4,15.5-14.9c-0.2,0.4-0.2,0.7,0,1.1c6.8-0.8,13.6,1.6,20.9,0.4c4.6-0.4,13.4,1.5,17.9,1.8c1.4,1,1.9,1.3,3.2,1.8
			c1.2,1.9,0.5,0.9,2.1,1.8c1.5,2.5,3.1,3.8,6.2,5.2c3.7,4.9,10.9,6.2,17.4,9.9c4.8-0.2,9.6,4.6,14.8,5.8c0.6,2.8,1.2,3.4,3.3,6
			c-0.8,4.2,2.6,9.8,4,14.5c0.3-0.1,0.5-0.2,0.7-0.4c0.4,3.5,2.1,6,4.8,7.3c3.2,8.2,10.6,8.4,17.9,7.9c0.8-0.4,1.1-1.1,1.9-1.5
			c0.1,0,0.4,0.5,0.1,0.5c1.6-0.9,3.6-1.8,5.2-2.7c0.6,1.6,0.9,0.4,2.6,1.5c-1,0.2-1.7,0-2.1-0.7c8.6,0.1,16.6,0.4,24.9,1.8
			c9.9,1.7,13.7,6.9,21.8,11.2c13.3,6.9,30.7,5.7,44.4,13.6c5.5,3.2,9.9,8.1,15,11.6c6.2,4.3,13.4,6.4,20.8,9.2
			c6.2,2.3,14.4,4.2,18.4,10c4.5,6.5,0,14.9,5.3,21l-3.6,1.8c11.5,4.9,24.4,10.5,36.4,15.7c8.5,3.7,28.6,1.7,29.9,15.1
			c-12-0.2-23.5-3.3-36.3-2.6c-8.3,0.4-10.5,3.4-17.5,6.2c-5.5,2.1-11.4,0.7-17.1,0.4c-5.6-0.3-13.6-1.6-19.1-0.2
			c-5.4,1.3-9.4,5.8-14.5,8.2c-9.8,4.7-30.5,3-21.2,18.2c4.9,8,29.7,23.7,22.1,33.5c-7.2,9.4-51.8,5-61.7,3.6
			c-17.2-2.3-33.2-12-49.6-17.1c-14.3-4.5-31.3-13.3-46.2-12.7l2.7,0.9c-8,0.7-16.5-1.5-24.6-1.1c-5.6,0.3-12,0.9-17.2,1.2
			c-12.5,0.6-24.1,3-36.3,4.6c-1.6,7.8,8.3,7.5,10.7,12.4c-25.6,1.5-51.3,5.5-77.3,3.8c-12.7-0.8-12-4.1-17.5-13.7
			c-6.2-10.8-14.5-8.7-25.3-10.9c-16.6-3.3-30.6-10-47.5-3.9c-7.6,2.7-14.9,8.9-23.5,7.4c-4.6-0.8-5.8-4.5-11.8-4.4
			c-3.9,0.1-7.4,1.7-11.1,3c-17.7,5.8-33.2,11.8-51.7,8c-7.6-1.6-14.3-7.5-21.8-8.3c-7-0.8-14,2.9-20.8,3.5
			c-1.8-8.8,10-10.5,16.2-10.8c10-0.5,13.4,2,22.1-4.4c12.2-8.9,26-7.7,37.7-15.5C741.8,611.8,745.5,612.5,747.4,615.3L747.4,615.3z
			"/>
		<g>
			<path class="st16" d="M981.9,335.5c4.4,67.2,8.2,132.4,8.6,156.4c-0.1,0-0.1,0-0.2,0c-5.3-1.6-11.1-2.5-17.6-2.5
				c-0.1,0-0.2,0-0.3,0c-0.9-21.2-3-71.1-4.8-126.4c-0.7-2.8-1.2-5.6-1.9-7.5c-2.4-5.9-6.2-11.1-9.6-16.3
				c-4.3-6.3-13.2-13.3-13.3-21.1c9.7,7.7,17.6,15.7,24.3,25.8c-3.2-100.6-5.2-209.2,1.9-199.6c0,0,5,69.8,10.3,148.1
				c19.1-19.4,67.1-102.1,79.1-105.5C1058.1,186.8,989.9,290.4,981.9,335.5L981.9,335.5z"/>
			<path class="st17" d="M1065.5,63.7c-5.2,6.4-7.4,15-8.9,23c-2.5,13.8-6.4,27.8-14.4,39.6c-8.7,12.8-18.7,19.2-35.1,19.6
				c-8.7,0.2-16.3-4-25.1-3.3c-2.3,0.2-4.5,0.5-6.5,1.6c0.1-3.8-3.6-8.1-5.7-11.1c-4-5.7-6.6-11.2-8.6-17.8
				c-3.7-11.8-3-23.9,5.2-33.4c6-7,18.9-8.2,27.8-8.6c11.9-0.5,23.4,1.1,35.2-0.2C1041.9,71.8,1065.8,63.9,1065.5,63.7z"/>
			<path class="st18" d="M966.5,81.9c4.3-5,12-7,19.3-7.9c-0.7,7.6,1,15.4,4.9,22.2c10.2,17.5,36.3,26.9,54.6,16
				c2-1.2,3.9-2.5,5.8-3.9c-2.2,6.3-5.1,12.4-8.9,17.9c-8.7,12.8-18.7,19.2-35.1,19.6c-8.7,0.2-16.3-4-25.1-3.3
				c-2.3,0.2-4.5,0.5-6.5,1.6c0.1-3.8-3.6-8.1-5.7-11.1c-4-5.7-6.6-11.2-8.6-17.8C957.6,103.5,958.4,91.4,966.5,81.9z"/>
			<path class="st17" d="M1156.5,188.6c-6.2,2.7-13.4,5.3-19.5-2.1c-5.1-6.2-7.1-14-11.3-20.7c-9.8-15.4-25.4-26.7-44.1-26.9
				c-15.2-0.2-26.7,8.1-31.1,21.9c-3.4,10.7-1.4,24.9-0.1,36.3c3.4-6.2,8.8-12.2,16.1-14.4c8-2.5,15.8,1.8,22.9,6.1
				c8.9,5.4,14.9,9.5,25.8,9.6c8.1,0.1,14.6-3.4,22.8-1.3C1145.9,199,1158.6,199.7,1156.5,188.6z"/>
			<path class="st18" d="M1089.9,164c23,13.1,38.5,30.7,63.7,32.7c-3.9,2.3-10.7,1.6-15.5,0.4c-8.3-2.1-14.8,1.4-22.8,1.3
				c-10.8-0.1-16.9-4.3-25.8-9.6c-7.1-4.3-14.9-8.6-22.9-6.1c-7.3,2.3-12.8,8.3-16.1,14.4c-0.5-5.1-1.3-10.8-1.6-16.4
				C1053,169.5,1068.5,151.8,1089.9,164z"/>
			<path class="st17" d="M963.4,150.8c2.7-6.7,12-11.2,18.5-13.8c11.4-4.4,23.4-6.1,35.9-2.6c25.1,6.9,41.1,29.7,43.5,54.2
				c1.3,13.3-3.7,25.3-5.1,38.3c-1.1,10.5,1.9,17,6.1,26.5c-8.2-6.7-13.2-13.1-23.8-16.8c-11.9-4.1-22.5-2.7-34.5-3.5
				c-18.6-1.3-45-13.8-41.9-35.6c1.3-9.2,6-17.8,7.3-26.9C970.1,164.6,971.5,152.3,963.4,150.8z"/>
			<path class="st18" d="M966.3,182.3c12.2,8.4,23.9,16.6,40.4,16.2c20.2-0.6,40.5-6.7,52-22.6c1.3,4.1,2.1,8.4,2.5,12.7
				c1.3,13.3-3.7,25.3-5.1,38.3c-1.1,10.5,1.9,17,6.1,26.5c-8.2-6.7-13.2-13.1-23.8-16.8c-11.9-4.1-22.5-2.7-34.5-3.5
				c-18.6-1.3-45-13.8-41.9-35.6C962.8,192.2,964.6,187.3,966.3,182.3z"/>
			<path class="st17" d="M924.3,168.9c5.2-5.5,13.6-7.4,20.9-4.4c11.7,4.8,17.7,14.7,18.5,26.9c1.1,16.1-7.8,31.6-20.5,41
				c-11.1,8.3-25,10.3-37.8,14.8c-5.8,2-14,5.7-16.5,11.6c-0.4-5.1-0.3-9.7-3.2-14.3c-3.8-6.1-9.7-10.9-13.6-17.1
				c-7.6-12-9.7-25.5-7.9-39.2c2.9-21.6,20.4-48.2,46-35.6c3.7,1.8,8.1,4.6,10.2,8.1c1,1.7,1.6,3.4,2.1,5.1
				C922.9,167.3,925.3,169.4,924.3,168.9z"/>
			<path class="st18" d="M869.2,171.5c7.8,15.9,19.2,29.6,37.5,36.4c20.4,7.6,39.2,3.6,56.1-5.5c-2.5,11.9-9.9,22.8-19.6,30
				c-11.1,8.3-25,10.3-37.8,14.8c-5.8,2-14,5.7-16.5,11.6c-0.4-5.1-0.3-9.7-3.2-14.3c-3.8-6.1-9.7-10.9-13.6-17.1
				c-7.6-12-9.7-25.5-7.9-39.2C864.9,182.8,866.7,176.9,869.2,171.5z"/>
			<path class="st17" d="M857.8,270.6c3.8,1.2,7.7,1.6,11.8,1.5c9.1-0.2,18.1-4.2,26.7-7c18.2-5.9,38.3-2.1,49.4,15.8
				c4.6,7.3,6,18.2,6.5,26.4c0.4,5.7,1.3,17.8-2.8,21.4c-6.8,5.9-24.1,10.2-32.7,11.1c-10.6,1.1-20,2.4-29.2-4.1
				c-20-14.1-17.6-44.9-25-57.1c-1.4-2.3-4.6-6.3-8-9.3C855.6,269.7,856.6,270.2,857.8,270.6z"/>
			<path class="st18" d="M897.7,312.9c22,0.3,38.1-7.9,52-22.8c1.6,5.7,2.3,11.9,2.6,17.1c0.4,5.7,1.3,17.8-2.8,21.4
				c-6.8,5.9-24.1,10.2-32.7,11.1c-10.6,1.1-20,2.4-29.2-4.1c-10.8-7.6-15-20-17.8-31.7C878,309,888.2,312.8,897.7,312.9z"/>
			<path class="st17" d="M893.9,31.7c0,0,13.9,16.7,49.7,29c24.7,8.5,37,30,36.6,54.7c-0.2,13.6-6,24.5-10.8,36.7
				c-4.3,0.4-8.6-1-13.2-0.5c-5.7,0.7-11.5,1.6-17.2,2.4c-11.1,1.4-21.1-0.6-31.5-4.7c-21.5-8.4-33.4-28.8-29.4-50.9
				c2.3-12.5,11.9-22.9,17.6-34.2C899.5,56.8,900.4,38.3,893.9,31.7z"/>
			<path class="st18" d="M928.2,120.5c9.7-2.1,19.4-6.7,26-14c3.9-4.2,6.9-8,9.9-12.7c0.2-0.3,0.4-0.5,0.5-0.7
				c3.4-3.3,2.5-2.9,1.1-1.3c2.4-2.9,4.4-6,5.9-9.4c5.9,9.4,8.8,20.8,8.6,33c-0.2,13.6-6,24.5-10.8,36.7c-4.3,0.4-8.6-1-13.2-0.5
				c-5.7,0.7-11.5,1.6-17.2,2.4c-11.1,1.4-21.1-0.6-31.5-4.7c-20.4-7.9-32.1-26.7-29.9-47.4C890,116.3,908.1,124.8,928.2,120.5z"/>
			<path class="st19" d="M905.8,54.7c3.5,10,4.9,21.6,9,31.9c3.6,9.1,9.6,18.9,15.5,26.7c6.7,8.8,16.6,15.1,25.8,21.1
				c1.8,1.2,10.4,5.7,8.9,8.3c-1.7,2.9-11.6-4-13.4-5c-14.9-8.3-29.9-21.4-36.4-36.8C909,86.3,905.9,70.6,905.8,54.7z"/>
			<path class="st19" d="M897,73.7c0,0,7.9,13.8,16.1,13c1.7-0.2-0.4,4.8-0.4,4.8S897.8,83.6,897,73.7z"/>
			<path class="st19" d="M918.8,63.5c0,0,4,23.8-4,28.9l-1-3.4C913.8,88.9,919.4,74.3,918.8,63.5z"/>
			<path class="st19" d="M902.5,102.2c0,0,17.5,12.8,25.9,10.8l1.5,4.5C929.9,117.4,909.3,113.9,902.5,102.2z"/>
			<path class="st19" d="M934,77.1c0,0,5.7,29.4-3.4,40.3l-2.1-3.1C928.5,114.3,935,91,934,77.1z"/>
			<path class="st19" d="M950.9,93.5c0,0,12.2,25,0.6,40.6l-2.9-2.2C948.6,131.9,958.1,118.1,950.9,93.5z"/>
			<path class="st19" d="M906.4,129.4c0,0,20.1,19.9,45.2,5.7l-2.3-2.7C949.3,132.4,928.3,142,906.4,129.4z"/>
			<path class="st19" d="M1041.1,83.4c0,0-11.6,20.7-37.6,28.4c-20.9,6.2-29.2,25.3-29.2,25.3s-6-16.8,25.9-28.1
				C1032.2,97.6,1030.7,91.6,1041.1,83.4z"/>
			<path class="st19" d="M1018,85.7c0,0-4.8,11.3-4.1,18.7l-2.3,1.9C1011.6,106.4,1010.7,93.8,1018,85.7z"/>
			<path class="st19" d="M1015,105c0,0,10.4,6.3,21,4.5c0,0-13.8,3.1-24.4-3.2L1015,105z"/>
			<path class="st19" d="M996.8,85.6c0,0-5.9,15.4-0.8,27.8l-3,1.8C992.9,115.2,986.8,94.7,996.8,85.6z"/>
			<path class="st19" d="M1023,125.4c0,0-21-4.6-27.3-12.5l-2.8,2.3C992.9,115.2,1006.5,125.8,1023,125.4z"/>
			<path class="st19" d="M978.9,92c0,0-4.9,17.5,4.3,29.7l-1.9,2.4C981.3,124.1,970.2,108.4,978.9,92z"/>
			<path class="st19" d="M1011.8,134.5c0,0-24-2.8-28.9-13.2l-2.8,3C980.1,124.3,991.9,137,1011.8,134.5z"/>
			<path class="st19" d="M922.2,173.7c0,0-22.6,26.4-26,68.5c0,0-3.2-23.3,8.6-44.4C916.4,176.9,919.8,168.4,922.2,173.7z"/>
			<path class="st19" d="M920,174.8c0,0,23.6,8.7,22.2,36.6c0,0-7.7-29.7-22.9-34L920,174.8z"/>
			<path class="st19" d="M877,183.7c0,0,14.4-15.2,42.4-6.3l1.9-2.6C921.3,174.8,890,163.9,877,183.7z"/>
			<path class="st19" d="M908.9,192.6c0,0,17.6,16.4,15,34.4c0,0-6.4-24.4-16.9-31.6L908.9,192.6z"/>
			<path class="st19" d="M876.4,207c0,0,14.6-14.9,31.4-11l0.7-2.8C908.5,193.1,888,189,876.4,207z"/>
			<path class="st19" d="M900.4,211.9c0,0,14.9,8.8,8.9,26.6c0,0,0.4-19.5-10-23.5L900.4,211.9z"/>
			<path class="st19" d="M884.5,230.1c0,0,6.5-14.4,15.2-14.9l0.7-3.3C900.4,211.9,884.5,215.3,884.5,230.1z"/>
			<path class="st19" d="M1119.3,180.1c0,0-3.6,9.4-21.3,10.8l-2.3-1.2C1095.8,189.7,1111.1,187.2,1119.3,180.1z"/>
			<path class="st19" d="M1106.6,160.9c0,0-16,15.8-29.1,20.3l-3.8-1.9C1073.6,179.3,1097.1,168,1106.6,160.9z"/>
			<path class="st19" d="M1080.2,149.2c0,0-18.5,15.7-15.7,31.9l-2.5,1.3C1062,182.3,1057.6,157.9,1080.2,149.2z"/>
			<path class="st19" d="M976.4,149.4c0,0,65.1,32.9,74,82.1c0,0-29.8-59.7-73.9-76.4C976.5,155.1,973.6,152.9,976.4,149.4z"/>
			<path class="st19" d="M1036.6,157.8c0,0-31.3-11.3-47.2,1.3l-2-2C987.5,157.1,1006.9,140.1,1036.6,157.8z"/>
			<path class="st19" d="M1009.1,172.6l2.9,3.1c0,0,22.3-2.7,36.9,7.5C1048.9,183.2,1037.5,169.4,1009.1,172.6z"/>
			<path class="st19" d="M1029.4,196.2c0,0,14.7-1.5,22.8,7.6c0,0-15.5-5.2-19.4-3.3L1029.4,196.2z"/>
			<path class="st19" d="M981.1,202.4c0,0-2.2-39.7,8.3-43.3l-2-2C987.5,157.1,969.9,160.5,981.1,202.4z"/>
			<path class="st19" d="M1012.5,176.4c0,0-16.1,15.7-11.6,38.7c0,0-10.6-23.5,9.4-41.3L1012.5,176.4z"/>
			<path class="st19" d="M1033.4,199.8c0,0-10.2,7-7.4,24.1c0,0-6-15,4.6-27.1L1033.4,199.8z"/>
			<path class="st19" d="M869.3,277.5c0,0,48.9,6.3,79,47.3c0,0-0.9,2.5-1.9,2.5C945.3,327.3,924.5,293.4,869.3,277.5z"/>
			<path class="st19" d="M897.3,271.9c0,0,7.5,5.2,7.2,15.9l3.1,1.3C907.6,289,907.4,275.5,897.3,271.9z"/>
			<path class="st19" d="M879.4,295.1c0,0,20.1,1.6,25.5-7.1l2.6,1.1C907.6,289,895.7,301.8,879.4,295.1z"/>
			<path class="st19" d="M921,273.5c0,0,7.6,6.7,1.8,24.6l2.9,2.5C925.7,300.6,932.6,279.6,921,273.5z"/>
			<path class="st19" d="M888.1,312.2c0,0,24.8,5.5,37.3-11.5l-2.6-2.5C922.8,298.1,914.3,311.1,888.1,312.2z"/>
			<path class="st19" d="M942.8,286.4c0,0,5.3,16.3-1.3,29.6l-2.6-1.6C938.9,314.4,946.2,299.9,942.8,286.4z"/>
			<path class="st19" d="M900.9,327.6c0,0,27.1,5.5,40.6-11.6l-1.8-3.3C939.7,312.7,930.9,326.3,900.9,327.6z"/>
		</g>
		<path class="st15" d="M1093.5,571.2c-8.8-0.5-26.1-4.3-27-15.6c6.1-0.5,11.4,3.1,17,5.2c8.6,3.2,16.8,2.8,25.8,2.4
			c15.3-0.8,29.3,0.9,43.9,5.5c12.3,3.8,26.2,9.5,36.2,17.4c8,6.3,14.3,14.2,20.9,21.5c-1.1,0.1-2.2,0.2-3.2,0.5
			c-1.8,0.4-3.5,1.3-5.1,2.2c-3.3-3-6.4-7.1-9.2-9.7c-5.6-5.1-10.8-9-17.7-12.1c-11.4-5.1-24.2-10.7-36.3-13.8
			C1124.5,571.1,1108,572,1093.5,571.2z"/>
		<path class="st15" d="M989.3,584.8c-4.5-4.8-7.8-11.1-13.6-14.3c8.7,5.9,20.3,9.3,29.3,15.5c13.2,9,25.4,16.5,40.8,21.8
			c14.6,5.1,25.5,15.8,36.4,26.3c4.5,4.3,7.5,9.3,10.2,15c1.3,2.9,2.4,7,3.9,10.6c-4.7-2-9.4-3.8-14.2-5.3c-2.9-0.9-5.9-2-8.9-3.1
			c-0.3-0.6-0.5-1.2-0.7-1.8c-3.9-12.2-9-22.2-21.1-28.5c-14.4-7.5-29.7-12.3-43.7-20.6C1000.7,596.2,994.9,590.9,989.3,584.8z"/>
		<path class="st15" d="M782.5,631.3c12.8-4.1,24.5-8.1,38.1-8.8c16.7-0.7,29.3-5,44.5-11.3c9.8-4.1,23.5-2.6,31.9-10.9
			c3.4-3.4,5.4-8.7,5.6-12.1c2.6,15.8-12.8,22.5-25.3,27.2c-14.4,5.4-28.4,12.7-43.7,15.7c-4.3,0.9-8.9,0.9-13.3,1.6
			c-5.4-0.3-10.9,0.3-16.7,2.4c-7.6,2.7-14.9,8.9-23.5,7.4c-3.9-0.7-5.4-3.5-9.4-4.2C775.4,634.8,780.4,632,782.5,631.3z"/>
		<path class="st20" d="M751.3,576.4c6.4-14.2,23.3-21.4,38.2-22c10.6-0.5,24.4,3.7,34.6,1.3c9,2.4,18.4,4.3,27.3,6
			c-13.8,10.5-35.1-2.8-51.1-0.6c-16.4,2.2-35.5,8.9-50.2,18.3C750.5,578.3,750.9,577.3,751.3,576.4z"/>
		<path class="st20" d="M1052.3,511.6c8.6,0,15-4.1,23.2-5c12.5-1.3,24.6,5.1,37,7.3c6.5,1.2,13.1,0.3,19.4,2.6
			c6.3,2.3,8.5,7.4,13.7,10.7c4.3,2.7,11.1,3,14,7.6c2.4,3.8,1,9.5-2.2,12.3c-7.8,6.9-22.8-1.4-32.2,1.2c-7.1,1.9-9.9,3-17-0.2
			c-5.1-2.3-7.9-6.9-12.7-9.7c-9.5-5.5-21.5-2.3-28.2-12.3c-2.7-4.1-4.6-4.6-9.5-6.4c-3.5-1.3-8-2.7-6.4-7.3
			C1052.1,510.7,1050.2,511.6,1052.3,511.6z"/>
		<path class="st20" d="M1175.2,544.8c1,0.1,1.6,0.3,2.7,0.2c5.2,4.5,17,2.5,23.7,6.2c9.4,5.2,3.7,11.3-5.5,9.9
			c-4.8-0.7-9.3-3.5-14.1-4.4c-4.2-0.7-9.1,1.3-12.3-1.9C1164.4,549.4,1170.3,540.3,1175.2,544.8z"/>
		<path class="st21" d="M1012.3,554.3c10.8,0.9,21.2-2.6,32,1c5,1.7,11.3,3.3,15.4,6.8c3.8,3.3,2.6,8.2,5.3,11.3
			c2.4,2.7,10.5,2.9,14.1,3.6c5.5,1,11.1,1.4,16.8,1.4c5.5,0,10.7-0.4,16.1-0.9c6.6-0.6,9.7,1.4,15.4,4.2c8.7,4.2,20.1-2.3,28.2,3.4
			c3,2.1,4,7.1,2.2,10.6c-2.4,4.6-10.3,5.1-14.9,5c-12.8-0.3-25.9-5.6-38.6-6.7c-10.8-1-17.6,3.3-26.5,8.4
			c-9.7,5.6-21.9-0.1-30.9-4.9c-5-2.6-9-4.3-14.6-5c-3.8-0.5-9.9,0.1-13.2-1.9c-3.7-2.3-1.7-6.6,1.9-9.1c4.7-3.3,11.1-1.4,15.9-3.7
			c11.9-5.9-15.2-11.8-18.7-12.7c-3.9-1.1-9.1-1.9-9.1-6.7c0-3.6,3.4-6.2,6.4-3.7C1015,554.9,1012.7,554.4,1012.3,554.3z"/>
		<path class="st20" d="M858,500.6c10.8,0,22.5-2.2,31.9-7.3c6.4-3.4,17.4-8.8,24.9-7.7c4.8,0.7,4,6.2,1.4,10
			c-4.5,6.5-13.6,7.6-20.6,9.4c-8.4,2.1-16,6-24.4,8.2c-4.3,1.1-12.9,2.8-16.5-0.8C850.4,508.1,851.6,500.7,858,500.6z"/>
		<path class="st21" d="M844.3,540.2c7.8-7,19.4-3.8,28.6-3.2c6.5,0.4,12.7-0.5,18.9-2.4c6.1-1.8,10.2-5.8,15.7-8.6
			c8.8-4.4,19.9-1.8,29.3-4c6.2-1.4,13.7-1.9,19.4,1.5c5.2,3.1,7.5,6.7,13.7,8.1c4.4,1,8.9,3.4,3.8,7.7c-4.5,3.8-12.5,4.1-18,4.5
			c-6.6,0.5-13.2,0.7-19.9,0.9c-4.4,0.2-12.5-0.8-16.4,1.3c-4.4,2.5-3.5,5.7,0.5,7.4c3.3,1.4,10.5,1.3,3.7,4.4
			c-5.7,2.6-13.7,1.7-19.7,2.7c-6.2,1-12.4,2.6-18.5,3.7c-5.5,1-19.1,5-23.3,0c-1.8-2.2-0.6-4.7-3.5-6.7c-2.4-1.7-6.4-1.9-9.2-1.9
			c-6,0-11.2,3.6-10.4-5C839.4,545.9,837.6,539.4,844.3,540.2z"/>
		<path class="st20" d="M915.8,600.8c9.8-7,27.5-2.6,38.1,0.6c8.7,2.6,20,7.6,29.2,5.7c4.8-1,6.8-3.2,11.9-1.8
			c2,0.5,11.5,2.9,11.3,5.1c-0.3,4-15.4,2.2-18.1,2.3c-5.4,0.2-8.9,2.1-13.5,4.9c-7.8,4.7-15.7,4.7-24.7,4.2c-7-0.4-10.8-3.1-17-5.1
			c-5.4-1.7-11.1-1.1-15.3-5.3c-1.5-1.5-3.7-4.7-3.6-6.8C914.3,601.8,914.9,603,915.8,600.8z"/>
		<path class="st20" d="M773.8,583.5c4.9-1.3,6.7-2.4,9.1-5.9c2.8-4.2,4.8-4.6,10.1-5.4c13.2-1.9,23.8,4.1,36.4,6.6
			c4.2,0.8,35.8-0.9,35.9,1c0.2,4.8-13.2,2.7-13.2,8.2c0,4.6,9,4.2,11.9,4.5c3.7,0.4,12.4,0.5,8.1,5.1c-3.3,3.5-12.5,3.7-16.9,4.1
			c-6.1,0.5-12.6,1.5-18.7,0.3c-6.3-1.3-12.1-2.9-18.6-3.1c-8.7-0.2-20.4,1.3-26.7,6.9c-7.3,6.5-22.3,6-31.9,4.1
			c-8.8-1.8-10-14.4-3.3-19.6c3.5-2.7,7.6-2.7,11.4-4.2C770.5,585,770,584.5,773.8,583.5z"/>
		<path class="st15" d="M1253.5,616.9c5-9.6,15.1-2.5,19.9,2.1c-4.3,3.7-12,5.4-17.8,4.1C1246.2,621,1250.7,622.1,1253.5,616.9z"/>
		<path class="st15" d="M1192,637.4c8.1-5.3,9.5-11.7,20.5-11.6c7.2,0.1,22.4,1.5,26.7,8.2c-2.8,4.3-8.4,6.4-11.8,10.1
			c-2.2,2.3-0.6,3.5-3.9,5.1c-2.8,1.3-6.8,0.1-9.6-0.7c-5.8-1.7-9-5.9-14.3-8.3C1197.4,639.1,1183.7,642.8,1192,637.4z"/>
		<path class="st15" d="M1069.8,675.6c2.9-6.7,24-6.8,22.4,3.3c-5.2,2.2-13.6,5.6-19,5.6C1064.7,684.6,1064.2,679.7,1069.8,675.6z"
			/>
		<path class="st15" d="M998.8,657.2c7.9-1.8,13.5-4.2,21.8-2.7c7.7,1.4,14.9,4.1,22.4,5.5c0.2,4.7-9.8,13.2-14.2,13.6
			c-6.4,0.4-11.7-5.6-19.1-4.1c-5.6,1.1-12.7,7.6-15.9-0.6C991.5,662.6,993.7,658.3,998.8,657.2z"/>
		<path class="st15" d="M921,686.5c1.1-8.2,7.9-11.2,15-12.3c2.9-0.4,18.9-2.9,21-0.6c6.7,7.5-12.4,10.5-15.6,10.8
			c-6.4,0.6-13.5,4.7-19.7,4C921.3,687,920.9,687.5,921,686.5z"/>
		<path class="st15" d="M754.5,658.6c5.6-2,14.7-1.8,20.6-1.9c5.5-0.1,17.9,1.1,8.7,7.5c-4.3,3.1-15.7,4.3-20.6,2.7
			C759.5,665.8,744.4,662.1,754.5,658.6z"/>
		<path class="st15" d="M727.2,661.3c4.3-2.6,18.1-1.6,12.1,6c-2.3,3-16.1,2.2-19.5,2.1C719,662.8,723.4,663.5,727.2,661.3z"/>
		<path class="st22" d="M1059.6,529.5c-22.9-21-54.6-38.8-85.3-44.9c-12.6-2.5-23.4-2.2-34.8,3.8c-10.3,5.4-20.3,8.4-27.2,18.5
			c13.7,0.6,26.6-11.1,39.5-12.8c13.4-1.8,28.7,0.2,41.8,3.4c6.6,1.7,13.6,3.7,19.6,6.7c5.8,2.9,9.3,7.5,14.3,11.6
			c9.6,7.7,18.8,13.7,31.4,13.2c1,0,2.7-0.6,3.9-0.7C1062.2,528.2,1060.2,529.5,1059.6,529.5z"/>
	</g>
	<g>
		<path class="st23" d="M494.8,742c18.1-47.6,29.9-100.5,11.5-133.1c0,0,1.9,72.8-55,133.1H494.8z"/>
		<path class="st23" d="M433,742h58.7c19.2-109.9-35.1-163.3-35.1-163.3C481.1,639.9,458.3,700,433,742z"/>
		<path class="st24" d="M434.4,742h34.8c41.6-82.4-46.3-125.8-46.3-125.8C460.8,666.7,462.3,711.6,434.4,742z"/>
		<path class="st24" d="M620.7,742c-11-36.6-9.4-83.2,11.6-126c0,0-57.9,42.1-44.8,126H620.7z"/>
		<path class="st23" d="M426.9,742c-3.1-33.9-23.4-75.7-74.2-118.7c0,0,105.9,25.8,96.8,118.7H426.9z"/>
		<path class="st23" d="M625.5,742c5.8-30.8,26.1-67.5,68.3-101.3c0,0-96.9,14.1-97.9,101.3H625.5z"/>
		<path class="st23" d="M612,742c-48.2-64.5-23.8-132.4-23.8-132.4c-27.3,41.2-36,81.9-20.8,132.4H612z"/>
		<path class="st23" d="M532.6,742c-8.8-31.6-13.8-62.4,3.5-101c0,0-36.8,50.8-36.1,101H532.6z"/>
		<path class="st24" d="M571.8,742c-10.8-35.9-28.5-110.3-7.6-157.7c0,0-41.5,69.9-25.5,157.7H571.8z"/>
		<path class="st23" d="M552.3,742c-16.9-34-1.3-68,10.6-93.4c0,0-53.3,42-44.9,93.4H552.3z"/>
		<path class="st24" d="M536.3,742c-21.2-24.7-47.2-63.3-39-96.6c0,0-22,39.3-4.4,96.6H536.3z"/>
	</g>
</g>
</svg>
