<?xml version="1.0" encoding="utf-8"?>
<!-- Generator: Adobe Illustrator 24.0.2, SVG Export Plug-In . SVG Version: 6.00 Build 0)  -->
<svg version="1.1" id="Layer_1" xmlns="http://www.w3.org/2000/svg" xmlns:xlink="http://www.w3.org/1999/xlink" x="0px" y="0px"
	 viewBox="0 0 438 457" style="enable-background:new 0 0 438 457;" height="457" width="438" xml:space="preserve">
<style type="text/css">
	.st0{fill:#333532;}
	.st1{fill:#4BA647;}
	.st2{fill:#599B43;}
	.st3{opacity:0.32;fill:#599B43;}
	.st4{fill:#3F7A3A;}
	.st5{fill:#6A6B69;}
	.st6{fill:#515250;}
	.st7{fill:#131512;}
</style>
<g>
	<path class="st0" d="M58.7,402.4c0.4-0.3,0.3-0.8,1.1-0.7c0.5-4.5-2.6-7.7-2.3-12.4c0.3-4.1,2.1-9.9,3.8-13.7
		c4.4-9.8,16.1-14.7,26.3-15.2c11.3-0.5,27.7,6.6,32.3-6.9c3.6-10.5-0.4-22.9,9.6-30.8c4.8-3.8,11-4.5,16.8-5.5
		c7.1-1.3,13.9-3.6,20.9-5.2h-4.4c5-2.1,8.9-5.9,13.5-8.6c4-2.3,7.9-3.8,11.8-5.8c2.4-2.8,4.4-8.7,8.5-10.5
		c0.4-4.1,6.7-8.5,10.7-10.3c-0.1,0.2-0.1,0.5,0,0.7c4.7-0.5,9.4,1.1,14.4,0.2c3.2-0.3,9.2,1,12.3,1.2c0.9,0.7,1.3,0.9,2.2,1.3
		c0.8,1.3,0.4,0.6,1.4,1.3c1,1.7,2.1,2.6,4.3,3.6c2.6,3.4,7.5,4.3,12,6.8c3.3-0.2,6.6,3.2,10.2,4c0.4,1.9,0.9,2.3,2.3,4.1
		c-0.6,2.9,1.8,6.8,2.8,10c0.2-0.1,0.4-0.2,0.5-0.3c0.3,2.4,1.4,4.1,3.3,5c2.2,5.7,7.3,5.8,12.3,5.4c0.5-0.3,0.8-0.8,1.3-1
		c0.1,0,0.3,0.3,0.1,0.4c1.1-0.7,2.5-1.3,3.6-1.8c0.4,1.1,0.6,0.3,1.8,1.1c-0.7,0.2-1.1,0-1.4-0.5c5.9,0,11.4,0.3,17.1,1.3
		c6.8,1.2,9.4,4.8,15,7.7c9.2,4.7,21.2,4,30.6,9.4c3.8,2.2,6.8,5.6,10.3,8c4.3,3,9.2,4.4,14.3,6.3c4.3,1.6,9.9,2.9,12.7,6.9
		c3.1,4.5,0,10.3,3.6,14.5l-2.5,1.3c7.9,3.4,16.8,7.2,25.1,10.8c5.9,2.6,19.7,1.1,20.6,10.4c-8.3-0.2-16.2-2.3-25-1.8
		c-5.7,0.3-7.2,2.4-12.1,4.3c-3.8,1.5-7.9,0.5-11.8,0.3c-3.9-0.2-9.4-1.1-13.2-0.2c-3.8,0.9-6.4,4-10,5.7
		c-6.7,3.2-21.1,2.1-14.6,12.5c3.4,5.5,20.4,16.3,15.2,23.1c-5,6.5-35.7,3.4-42.5,2.5c-11.8-1.6-22.9-8.3-34.2-11.8
		c-9.9-3.1-21.6-9.2-31.8-8.8l1.9,0.6c-5.5,0.5-11.3-1-17-0.8c-3.9,0.2-8.3,0.6-11.9,0.8c-8.7,0.4-16.6,2.1-25,3.2
		c-1.1,5.4,5.7,5.1,7.3,8.6c-17.6,1-35.4,3.8-53.3,2.6c-8.7-0.6-8.3-2.8-12-9.4c-4.3-7.5-10-6-17.4-7.5c-11.4-2.3-21.1-6.9-32.8-2.7
		c-5.2,1.9-10.2,6.2-16.2,5.1c-3.2-0.6-4-3.1-8.2-3c-2.7,0.1-5.1,1.2-7.7,2c-12.2,4-22.9,8.1-35.6,5.5c-5.2-1.1-9.9-5.2-15-5.7
		c-4.8-0.5-9.6,2-14.4,2.4c-1.2-6.1,6.9-7.2,11.2-7.4c6.9-0.3,9.2,1.4,15.2-3c8.4-6.1,17.9-5.3,26-10.7
		C54.9,400,57.4,400.5,58.7,402.4L58.7,402.4z"/>
	<g>
		<path class="st1" d="M220.4,209.5c3,46.3,5.7,91.3,5.9,107.8c0,0-0.1,0-0.1,0c-3.6-1.1-7.7-1.7-12.2-1.7c-0.1,0-0.1,0-0.2,0
			c-0.6-14.6-2.1-49-3.3-87.2c-0.5-1.9-0.8-3.9-1.3-5.2c-1.6-4.1-4.2-7.7-6.6-11.2c-2.9-4.4-9.1-9.1-9.2-14.5
			c6.7,5.3,12.1,10.8,16.7,17.8c-2.2-69.3-3.6-144.2,1.3-137.6c0,0,3.5,48.1,7.1,102.1c13.2-13.4,46.2-70.4,54.5-72.8
			C273,107,225.9,178.5,220.4,209.5L220.4,209.5z"/>
		<path class="st2" d="M278,22.1c-3.6,4.4-5.1,10.3-6.1,15.9c-1.7,9.5-4.4,19.2-9.9,27.3c-6,8.8-12.9,13.2-24.2,13.5
			c-6,0.2-11.2-2.8-17.3-2.3c-1.6,0.1-3.1,0.4-4.5,1.1c0.1-2.6-2.5-5.6-3.9-7.6c-2.8-4-4.5-7.7-6-12.3c-2.6-8.1-2-16.5,3.6-23
			c4.1-4.8,13-5.7,19.2-5.9c8.2-0.3,16.1,0.8,24.3-0.1C261.8,27.7,278.2,22.3,278,22.1z"/>
		<path class="st3" d="M209.8,34.7c2.9-3.4,8.3-4.8,13.3-5.4c-0.5,5.2,0.7,10.6,3.4,15.3c7,12.1,25,18.5,37.6,11
			c1.4-0.8,2.7-1.8,4-2.7c-1.5,4.3-3.5,8.5-6.1,12.4c-6,8.8-12.9,13.2-24.2,13.5c-6,0.2-11.2-2.8-17.3-2.3c-1.6,0.1-3.1,0.4-4.5,1.1
			c0.1-2.6-2.5-5.6-3.9-7.6c-2.8-4-4.5-7.7-6-12.2C203.6,49.6,204.2,41.2,209.8,34.7z"/>
		<path class="st2" d="M340.8,108.3c-4.3,1.9-9.3,3.6-13.4-1.4c-3.5-4.3-4.9-9.7-7.8-14.3C312.8,81.9,302,74.2,289.2,74
			c-10.5-0.1-18.4,5.6-21.4,15.1c-2.4,7.4-0.9,17.2-0.1,25c2.3-4.3,6.1-8.4,11.1-10c5.5-1.7,10.9,1.2,15.8,4.2
			c6.1,3.7,10.3,6.6,17.8,6.6c5.6,0.1,10.1-2.4,15.7-0.9C333.4,115.5,342.2,115.9,340.8,108.3z"/>
		<path class="st3" d="M294.8,91.3c15.9,9.1,26.6,21.2,43.9,22.6c-2.7,1.6-7.4,1.1-10.7,0.2c-5.7-1.4-10.2,1-15.7,0.9
			c-7.5-0.1-11.6-2.9-17.8-6.6c-4.9-3-10.3-5.9-15.8-4.2c-5.1,1.6-8.8,5.7-11.1,10c-0.4-3.5-0.9-7.4-1.1-11.3
			C269.4,95.1,280.1,82.9,294.8,91.3z"/>
		<path class="st2" d="M207.6,82.2c1.9-4.6,8.2-7.8,12.8-9.5c7.9-3,16.1-4.2,24.7-1.8c17.3,4.7,28.3,20.5,30,37.3
			c0.9,9.2-2.6,17.5-3.5,26.4c-0.8,7.3,1.3,11.7,4.2,18.3c-5.6-4.6-9.1-9.1-16.4-11.6c-8.2-2.8-15.5-1.9-23.8-2.4
			c-12.8-0.9-31.1-9.5-28.9-24.6c0.9-6.4,4.2-12.2,5-18.6C212.3,91.7,213.2,83.3,207.6,82.2z"/>
		<path class="st3" d="M209.6,103.9c8.4,5.8,16.5,11.5,27.8,11.1c13.9-0.4,27.9-4.6,35.9-15.6c0.9,2.9,1.5,5.8,1.8,8.8
			c0.9,9.2-2.6,17.5-3.5,26.4c-0.8,7.3,1.3,11.7,4.2,18.3c-5.6-4.6-9.1-9.1-16.4-11.6c-8.2-2.8-15.5-1.9-23.8-2.4
			c-12.8-0.9-31.1-9.5-28.9-24.6C207.2,110.8,208.5,107.3,209.6,103.9z"/>
		<path class="st2" d="M180.7,94.7c3.6-3.8,9.4-5.1,14.4-3.1c8.1,3.3,12.2,10.2,12.7,18.6c0.7,11.1-5.4,21.8-14.1,28.3
			c-7.6,5.7-17.2,7.1-26.1,10.2c-4,1.4-9.7,4-11.4,8c-0.3-3.5-0.2-6.7-2.2-9.9c-2.6-4.2-6.7-7.5-9.4-11.8c-5.2-8.3-6.7-17.6-5.4-27
			c2-14.9,14.1-33.2,31.7-24.5c2.6,1.3,5.6,3.2,7,5.6c0.7,1.2,1.1,2.4,1.5,3.5C179.8,93.6,181.4,95,180.7,94.7z"/>
		<path class="st3" d="M142.7,96.5c5.4,10.9,13.3,20.4,25.9,25.1c14,5.2,27,2.5,38.7-3.8c-1.7,8.2-6.8,15.7-13.5,20.7
			c-7.6,5.7-17.2,7.1-26.1,10.2c-4,1.4-9.7,4-11.4,8c-0.3-3.5-0.2-6.7-2.2-9.9c-2.6-4.2-6.7-7.5-9.4-11.8c-5.2-8.3-6.7-17.6-5.4-27
			C139.8,104.2,141,100.2,142.7,96.5z"/>
		<path class="st2" d="M134.9,164.8c2.6,0.8,5.3,1.1,8.1,1.1c6.3-0.1,12.5-2.9,18.4-4.8c12.5-4.1,26.4-1.4,34.1,10.9
			c3.1,5.1,4.1,12.5,4.5,18.2c0.3,3.9,0.9,12.2-1.9,14.7c-4.7,4.1-16.6,7-22.6,7.6c-7.3,0.8-13.8,1.6-20.1-2.8
			c-13.8-9.7-12.1-31-17.2-39.4c-1-1.6-3.2-4.3-5.5-6.4C133.3,164.2,134,164.5,134.9,164.8z"/>
		<path class="st3" d="M162.3,194c15.1,0.2,26.3-5.4,35.8-15.7c1.1,3.9,1.6,8.2,1.8,11.8c0.3,3.9,0.9,12.2-1.9,14.7
			c-4.7,4.1-16.6,7-22.6,7.6c-7.3,0.8-13.8,1.6-20.1-2.8c-7.4-5.2-10.4-13.8-12.3-21.9C148.8,191.2,155.8,193.9,162.3,194z"/>
		<path class="st2" d="M159.7,0.1c0,0,9.6,11.5,34.3,20c17,5.8,25.5,20.7,25.2,37.7c-0.1,9.4-4.2,16.9-7.4,25.3
			c-3,0.3-5.9-0.7-9.1-0.4c-4,0.5-7.9,1.1-11.9,1.6c-7.6,1-14.6-0.4-21.7-3.2c-14.9-5.8-23-19.9-20.3-35.1
			c1.6-8.7,8.2-15.8,12.1-23.6C163.6,17.4,164.2,4.6,159.7,0.1z"/>
		<path class="st3" d="M183.4,61.3c6.7-1.4,13.4-4.6,17.9-9.6c2.7-2.9,4.8-5.5,6.8-8.7c0.1-0.2,0.2-0.3,0.4-0.5
			c2.3-2.3,1.7-2,0.7-0.9c1.7-2,3-4.2,4-6.5c4.1,6.5,6.1,14.3,5.9,22.7c-0.1,9.4-4.2,16.9-7.4,25.3c-3,0.3-5.9-0.7-9.1-0.4
			c-4,0.5-7.9,1.1-11.9,1.6c-7.6,1-14.6-0.4-21.7-3.2C155,75.7,147,62.7,148.5,48.5C157,58.4,169.5,64.3,183.4,61.3z"/>
		<path class="st4" d="M167.9,16c2.4,6.9,3.4,14.9,6.2,22c2.5,6.3,6.6,13,10.7,18.4c4.6,6.1,11.4,10.4,17.8,14.6
			c1.3,0.8,7.2,3.9,6.2,5.7c-1.2,2-8-2.8-9.3-3.5c-10.3-5.7-20.6-14.7-25.1-25.4C170.1,37.7,168,26.9,167.9,16z"/>
		<path class="st4" d="M161.9,29.1c0,0,5.5,9.5,11.1,9c1.2-0.1-0.3,3.3-0.3,3.3S162.5,35.9,161.9,29.1z"/>
		<path class="st4" d="M176.9,22c0,0,2.7,16.4-2.8,19.9l-0.7-2.3C173.5,39.6,177.3,29.5,176.9,22z"/>
		<path class="st4" d="M165.6,48.7c0,0,12,8.8,17.9,7.4l1,3.1C184.6,59.2,170.4,56.8,165.6,48.7z"/>
		<path class="st4" d="M187.4,31.4c0,0,3.9,20.3-2.3,27.8l-1.5-2.1C183.6,57,188.1,41,187.4,31.4z"/>
		<path class="st4" d="M199.1,42.7c0,0,8.4,17.3,0.4,28l-2-1.5C197.5,69.2,204,59.7,199.1,42.7z"/>
		<path class="st4" d="M168.4,67.5c0,0,13.9,13.7,31.1,3.9l-1.6-1.9C197.9,69.5,183.5,76.1,168.4,67.5z"/>
		<path class="st4" d="M261.2,35.7c0,0-8,14.3-25.9,19.6c-14.4,4.3-20.1,17.5-20.1,17.5s-4.1-11.6,17.8-19.4
			C255.1,45.5,254.1,41.4,261.2,35.7z"/>
		<path class="st4" d="M245.3,37.3c0,0-3.3,7.8-2.8,12.9l-1.6,1.3C240.9,51.6,240.2,42.9,245.3,37.3z"/>
		<path class="st4" d="M243.2,50.6c0,0,7.2,4.3,14.5,3.1c0,0-9.5,2.1-16.8-2.2L243.2,50.6z"/>
		<path class="st4" d="M230.6,37.3c0,0-4.1,10.6-0.6,19.2l-2.1,1.2C228,57.7,223.8,43.5,230.6,37.3z"/>
		<path class="st4" d="M248.7,64.7c0,0-14.5-3.2-18.8-8.6l-1.9,1.6C228,57.7,237.4,64.9,248.7,64.7z"/>
		<path class="st4" d="M218.3,41.6c0,0-3.4,12.1,3,20.5l-1.3,1.7C220,63.8,212.3,53,218.3,41.6z"/>
		<path class="st4" d="M241,71c0,0-16.6-1.9-19.9-9.1l-1.9,2.1C219.2,64,227.3,72.7,241,71z"/>
		<path class="st4" d="M179.2,98c0,0-15.6,18.2-18,47.2c0,0-2.2-16,5.9-30.6C175.2,100.2,177.6,94.4,179.2,98z"/>
		<path class="st4" d="M177.7,98.8c0,0,16.2,6,15.3,25.2c0,0-5.3-20.4-15.8-23.4L177.7,98.8z"/>
		<path class="st4" d="M148.1,104.9c0,0,9.9-10.5,29.2-4.3l1.3-1.8C178.6,98.8,157.1,91.2,148.1,104.9z"/>
		<path class="st4" d="M170.1,111c0,0,12.1,11.3,10.4,23.7c0,0-4.4-16.8-11.7-21.8L170.1,111z"/>
		<path class="st4" d="M147.7,120.9c0,0,10.1-10.2,21.6-7.6l0.5-2C169.8,111.4,155.6,108.6,147.7,120.9z"/>
		<path class="st4" d="M164.2,124.3c0,0,10.3,6.1,6.1,18.3c0,0,0.2-13.4-6.9-16.2L164.2,124.3z"/>
		<path class="st4" d="M153.2,136.8c0,0,4.5-9.9,10.5-10.3l0.5-2.2C164.2,124.3,153.3,126.7,153.2,136.8z"/>
		<path class="st4" d="M315.2,102.4c0,0-2.5,6.5-14.7,7.5l-1.6-0.8C298.9,109,309.5,107.3,315.2,102.4z"/>
		<path class="st4" d="M306.4,89.2c0,0-11,10.9-20.1,14l-2.6-1.3C283.7,101.9,299.8,94,306.4,89.2z"/>
		<path class="st4" d="M288.2,81.1c0,0-12.7,10.8-10.8,22l-1.7,0.9C275.6,103.9,272.6,87.1,288.2,81.1z"/>
		<path class="st4" d="M216.6,81.3c0,0,44.9,22.7,51,56.6c0,0-20.5-41.2-50.9-52.7C216.7,85.1,214.7,83.7,216.6,81.3z"/>
		<path class="st4" d="M258.1,87c0,0-21.5-7.8-32.5,0.9l-1.3-1.4C224.3,86.6,237.6,74.8,258.1,87z"/>
		<path class="st4" d="M239.1,97.2l2,2.1c0,0,15.4-1.8,25.4,5.2C266.6,104.5,258.7,95.1,239.1,97.2z"/>
		<path class="st4" d="M253.2,113.5c0,0,10.1-1,15.7,5.2c0,0-10.7-3.6-13.4-2.3L253.2,113.5z"/>
		<path class="st4" d="M219.9,117.8c0,0-1.5-27.4,5.7-29.8l-1.3-1.4C224.3,86.6,212.2,88.9,219.9,117.8z"/>
		<path class="st4" d="M241.5,99.8c0,0-11.1,10.8-8,26.7c0,0-7.3-16.2,6.5-28.5L241.5,99.8z"/>
		<path class="st4" d="M255.9,116c0,0-7,4.9-5.1,16.6c0,0-4.1-10.3,3.2-18.7L255.9,116z"/>
		<path class="st4" d="M142.7,169.6c0,0,33.7,4.3,54.5,32.6c0,0-0.6,1.7-1.3,1.7C195.2,203.9,180.8,180.5,142.7,169.6z"/>
		<path class="st4" d="M162.1,165.7c0,0,5.2,3.6,4.9,10.9l2.1,0.9C169.2,177.5,169.1,168.2,162.1,165.7z"/>
		<path class="st4" d="M149.8,181.7c0,0,13.9,1.1,17.6-4.9l1.8,0.7C169.2,177.5,161,186.3,149.8,181.7z"/>
		<path class="st4" d="M178.4,166.8c0,0,5.2,4.6,1.2,17l2,1.7C181.7,185.5,186.4,171,178.4,166.8z"/>
		<path class="st4" d="M155.7,193.4c0,0,17.1,3.8,25.7-8l-1.8-1.7C179.6,183.7,173.8,192.7,155.7,193.4z"/>
		<path class="st4" d="M193.4,175.7c0,0,3.6,11.3-0.9,20.4l-1.8-1.1C190.8,195,195.8,185,193.4,175.7z"/>
		<path class="st4" d="M164.6,204.1c0,0,18.7,3.8,28-8l-1.3-2.3C191.3,193.8,185.2,203.2,164.6,204.1z"/>
	</g>
	<path class="st0" d="M297.4,372c-6-0.3-18-3-18.6-10.7c4.2-0.3,7.8,2.1,11.7,3.6c5.9,2.2,11.6,1.9,17.8,1.6
		c10.6-0.5,20.2,0.6,30.2,3.8c8.5,2.6,18.1,6.5,25,12c5.5,4.4,9.8,9.8,14.4,14.8c-0.8,0.1-1.5,0.2-2.2,0.3c-1.3,0.3-2.4,0.9-3.5,1.5
		c-2.3-2.1-4.4-4.9-6.4-6.7c-3.8-3.5-7.4-6.2-12.2-8.4c-7.8-3.5-16.7-7.4-25.1-9.5C318.7,371.9,307.4,372.6,297.4,372z"/>
	<path class="st0" d="M225.5,381.4c-3.1-3.3-5.4-7.7-9.4-9.8c6,4.1,14,6.4,20.2,10.7c9.1,6.2,17.5,11.3,28.1,15.1
		c10,3.5,17.6,10.9,25.1,18.1c3.1,3,5.2,6.4,7,10.4c0.9,2,1.6,4.8,2.7,7.3c-3.2-1.3-6.5-2.6-9.8-3.6c-2-0.6-4-1.4-6.1-2.1
		c-0.2-0.4-0.3-0.8-0.5-1.3c-2.7-8.4-6.2-15.3-14.6-19.7c-9.9-5.2-20.5-8.5-30.1-14.2C233.3,389.3,229.4,385.6,225.5,381.4z"/>
	<path class="st0" d="M82.9,413.5c8.8-2.8,16.9-5.6,26.2-6c11.5-0.5,20.2-3.4,30.7-7.8c6.8-2.8,16.2-1.8,22-7.5
		c2.3-2.3,3.8-6,3.9-8.4c1.8,10.9-8.8,15.5-17.4,18.7c-9.9,3.7-19.6,8.7-30.1,10.8c-3,0.6-6.1,0.7-9.2,1.1
		c-3.7-0.2-7.5,0.2-11.5,1.6c-5.2,1.9-10.2,6.2-16.2,5.1c-2.7-0.5-3.7-2.4-6.5-2.9C78.1,415.9,81.5,413.9,82.9,413.5z"/>
	<path class="st5" d="M61.4,375.6c4.4-9.8,16.1-14.7,26.3-15.2c7.3-0.3,16.8,2.5,23.9,0.9c6.2,1.7,12.7,3,18.8,4.1
		c-9.5,7.3-24.2-2-35.2-0.4c-11.3,1.5-24.4,6.1-34.6,12.6C60.9,376.9,61.1,376.2,61.4,375.6z"/>
	<path class="st5" d="M268.9,330.9c5.9,0,10.3-2.8,16-3.4c8.6-0.9,17,3.5,25.5,5c4.5,0.8,9,0.2,13.3,1.8c4.3,1.6,5.8,5.1,9.5,7.4
		c3,1.8,7.6,2,9.7,5.3c1.7,2.6,0.7,6.5-1.5,8.5c-5.4,4.8-15.7-0.9-22.2,0.8c-4.9,1.3-6.8,2.1-11.7-0.2c-3.5-1.6-5.5-4.8-8.8-6.7
		c-6.6-3.8-14.8-1.6-19.5-8.5c-1.9-2.8-3.2-3.2-6.6-4.4c-2.4-0.9-5.5-1.9-4.4-5C268.8,330.3,267.5,330.9,268.9,330.9z"/>
	<path class="st5" d="M353.7,353.8c0.7,0.1,1.1,0.2,1.8,0.1c3.6,3.1,11.7,1.7,16.4,4.3c6.5,3.6,2.6,7.8-3.8,6.8
		c-3.3-0.5-6.4-2.4-9.7-3c-2.9-0.5-6.3,0.9-8.5-1.3C346.2,357,350.3,350.7,353.7,353.8z"/>
	<path class="st6" d="M241.3,360.4c7.5,0.6,14.6-1.8,22,0.7c3.4,1.2,7.8,2.3,10.6,4.7c2.6,2.3,1.8,5.7,3.7,7.8
		c1.7,1.9,7.2,2,9.7,2.5c3.8,0.7,7.7,0.9,11.6,0.9c3.8,0,7.4-0.3,11.1-0.6c4.5-0.4,6.7,1,10.6,2.9c6,2.9,13.9-1.6,19.5,2.4
		c2.1,1.4,2.7,4.9,1.5,7.3c-1.7,3.2-7.1,3.5-10.3,3.5c-8.8-0.2-17.8-3.9-26.6-4.6c-7.5-0.7-12.2,2.3-18.3,5.8
		c-6.7,3.8-15.1-0.1-21.3-3.4c-3.4-1.8-6.2-3-10-3.4c-2.6-0.3-6.8,0.1-9.1-1.3c-2.6-1.6-1.2-4.5,1.3-6.3c3.2-2.3,7.7-0.9,10.9-2.6
		c8.2-4.1-10.4-8.1-12.9-8.8c-2.7-0.7-6.2-1.3-6.3-4.6c0-2.5,2.4-4.3,4.4-2.6C243.2,360.8,241.7,360.5,241.3,360.4z"/>
	<path class="st5" d="M135,323.4c7.5,0,15.5-1.5,22-5c4.4-2.4,12-6,17.2-5.3c3.3,0.5,2.8,4.3,1,6.9c-3.1,4.5-9.4,5.3-14.2,6.5
		c-5.8,1.5-11.1,4.1-16.8,5.6c-2.9,0.8-8.9,1.9-11.4-0.5C129.7,328.6,130.5,323.4,135,323.4z"/>
	<path class="st6" d="M125.6,350.7c5.4-4.8,13.3-2.6,19.7-2.2c4.5,0.3,8.8-0.4,13-1.7c4.2-1.3,7-4,10.8-6c6-3,13.7-1.3,20.2-2.7
		c4.3-1,9.4-1.3,13.4,1c3.6,2.1,5.2,4.6,9.4,5.6c3,0.7,6.1,2.4,2.6,5.3c-3.1,2.6-8.6,2.8-12.4,3.1c-4.6,0.4-9.1,0.5-13.7,0.6
		c-3,0.1-8.6-0.6-11.3,0.9c-3.1,1.7-2.4,3.9,0.3,5.1c2.2,0.9,7.2,0.9,2.5,3.1c-3.9,1.8-9.4,1.2-13.6,1.9c-4.3,0.7-8.5,1.8-12.8,2.5
		c-3.8,0.7-13.2,3.4-16.1,0c-1.3-1.5-0.4-3.2-2.4-4.6c-1.7-1.2-4.4-1.3-6.3-1.3c-4.2,0-7.7,2.5-7.1-3.5
		C122.1,354.6,120.9,350.1,125.6,350.7z"/>
	<path class="st5" d="M174.8,392.4c6.8-4.8,19-1.8,26.3,0.4c6,1.8,13.8,5.2,20.1,3.9c3.3-0.7,4.7-2.2,8.2-1.3c1.4,0.4,7.9,2,7.8,3.5
		c-0.2,2.7-10.6,1.5-12.5,1.6c-3.7,0.2-6.2,1.5-9.3,3.4c-5.4,3.2-10.8,3.2-17,2.9c-4.8-0.3-7.5-2.1-11.7-3.5
		c-3.7-1.2-7.6-0.7-10.6-3.7c-1-1-2.6-3.2-2.5-4.7C173.8,393.1,174.2,394,174.8,392.4z"/>
	<path class="st5" d="M76.9,380.5c3.4-0.9,4.6-1.6,6.3-4.1c1.9-2.9,3.3-3.2,7-3.7c9.1-1.3,16.4,2.9,25.1,4.6
		c2.9,0.6,24.7-0.6,24.7,0.7c0.2,3.3-9.1,1.9-9.1,5.6c0,3.1,6.2,2.9,8.2,3.1c2.6,0.3,8.6,0.3,5.6,3.5c-2.2,2.4-8.6,2.5-11.7,2.8
		c-4.2,0.4-8.7,1-12.9,0.2c-4.4-0.9-8.3-2-12.8-2.1c-6-0.2-14,0.9-18.4,4.8c-5,4.5-15.4,4.2-22,2.8c-6.1-1.2-6.9-9.9-2.3-13.5
		c2.4-1.9,5.3-1.9,7.9-2.9C74.7,381.5,74.3,381.2,76.9,380.5z"/>
	<path class="st0" d="M407.6,403.5c3.5-6.6,10.4-1.7,13.7,1.4c-3,2.5-8.3,3.7-12.3,2.8C402.6,406.4,405.7,407.1,407.6,403.5z"/>
	<path class="st0" d="M365.3,417.7c5.6-3.6,6.5-8.1,14.1-8c4.9,0.1,15.5,1.1,18.4,5.6c-1.9,3-5.8,4.4-8.2,6.9
		c-1.5,1.6-0.4,2.4-2.7,3.5c-1.9,0.9-4.7,0.1-6.6-0.5c-4-1.2-6.2-4.1-9.9-5.7C368.9,418.9,359.5,421.4,365.3,417.7z"/>
	<path class="st0" d="M281,444c2-4.6,16.5-4.7,15.5,2.3c-3.6,1.5-9.4,3.8-13.1,3.9C277.5,450.2,277.1,446.8,281,444z"/>
	<path class="st0" d="M232.1,431.3c5.4-1.2,9.3-2.9,15-1.9c5.3,1,10.3,2.9,15.5,3.8c0.1,3.2-6.7,9.1-9.8,9.3
		c-4.4,0.3-8.1-3.9-13.2-2.9c-3.8,0.8-8.7,5.2-10.9-0.4C227,435.1,228.6,432.1,232.1,431.3z"/>
	<path class="st0" d="M178.4,451.5c0.8-5.7,5.4-7.7,10.4-8.5c2-0.3,13-2,14.5-0.4c4.6,5.2-8.5,7.3-10.7,7.5
		c-4.4,0.4-9.3,3.2-13.6,2.8C178.6,451.8,178.3,452.2,178.4,451.5z"/>
	<path class="st0" d="M63.6,432.3c3.9-1.4,10.1-1.3,14.2-1.3c3.8-0.1,12.3,0.7,6,5.2c-3,2.1-10.8,3-14.2,1.9
		C67.1,437.2,56.6,434.7,63.6,432.3z"/>
	<path class="st0" d="M44.8,434.1c3-1.8,12.5-1.1,8.4,4.1c-1.6,2.1-11.1,1.5-13.5,1.4C39.1,435.2,42.2,435.7,44.8,434.1z"/>
	<path class="st7" d="M274,343.3c-15.8-14.5-37.6-26.7-58.8-31c-8.7-1.7-16.2-1.5-24,2.6c-7.1,3.8-14,5.8-18.8,12.7
		c9.4,0.4,18.3-7.6,27.2-8.8c9.3-1.3,19.8,0.1,28.8,2.4c4.6,1.1,9.4,2.5,13.5,4.6c4,2,6.4,5.2,9.9,8c6.6,5.3,13,9.4,21.7,9.1
		c0.7,0,1.8-0.4,2.7-0.5C275.8,342.4,274.4,343.3,274,343.3z"/>
</g>
</svg>
