<?xml version="1.0" encoding="utf-8"?>
<!-- Generator: Adobe Illustrator 24.0.2, SVG Export Plug-In . SVG Version: 6.00 Build 0)  -->
<svg version="1.1" id="Layer_1" xmlns="http://www.w3.org/2000/svg" xmlns:xlink="http://www.w3.org/1999/xlink" x="0px" y="0px"
	 viewBox="0 0 1370 896" style="enable-background:new 0 0 1370 896;" height="896" width="1370" xml:space="preserve">
<style type="text/css">
	.st0{opacity:0.2;fill:#00689A;}
	.st1{clip-path:url(#SVGID_2_);fill:#7EA840;}
	.st2{opacity:0.3;clip-path:url(#SVGID_2_);fill:#EAE5E1;}
	.st3{opacity:0.6;clip-path:url(#SVGID_2_);fill:#FDFDFB;}
	.st4{fill:#5F824A;}
	.st5{fill:#405438;}
	.st6{fill:#BFD298;}
	.st7{fill:#F1F4EE;}
	.st8{fill:#234836;}
	.st9{fill:#9AC2A5;}
	.st10{fill:#4B8F46;}
	.st11{fill:#60A95E;}
	.st12{fill:#52994D;}
	.st13{fill:#44883F;}
	.st14{fill:#F5877B;}
	.st15{fill:#F16257;}
	.st16{fill:#FFD348;}
	.st17{fill:#D9D3C8;}
	.st18{fill:#C6BFB0;}
	.st19{fill:#EAE5E1;}
	.st20{opacity:0.5;fill:#60A95E;}
	.st21{fill:#949BC4;}
	.st22{fill:#7A85AE;}
	.st23{opacity:0.5;fill:#B3B8DD;}
	.st24{fill:#B3B8DD;}
	.st25{fill:#6CAF44;}
	.st26{fill:#5C9741;}
</style>
<rect x="-4.8" y="-3.6" class="st0" width="1387.2" height="544.4"/>
<g>
	<defs>
		<polygon id="SVGID_1_" points="-0.7,898.6 1374.6,896.6 1372.2,161.6 -0.7,161.6 		"/>
	</defs>
	<clipPath id="SVGID_2_">
		<use xlink:href="#SVGID_1_"  style="overflow:visible;"/>
	</clipPath>
	<path class="st1" d="M1384.4,897.7l-1.4-454.6c-194.7-61.5-431.7-79.1-605.3-49.7c-187.8,31.7-273.9,96.5-498,92
		c-94.8-1.9-192-5.1-286.5-14.3v426.6H1384.4z"/>
	<path class="st2" d="M-69.2,416.7c54.9,28.9,210.8,75,439.6,24.2c156.4-34.7,304.6-41.3,440.5,4.7c122.2,41.4,204.3-30.5,387.6-47
		c107.4-9.6,282.2,47,282.2,47s-46.2-192.5-51.8-192.8c-5.6-0.4-1451.8-4.6-1451.8-4.6L-69.2,416.7z"/>
	<path class="st3" d="M-20.5,204.1c67.5-7,152.6-10.1,265.7,33.5c120,46.2,203.5,60.2,300,27.5s188.1-60.9,281.1-48.7
		s195.8,65.7,315.2,36.7c119.4-29,248.2-36.7,248.2-36.7l-1.9-80.2l-1418.9-3.2L-20.5,204.1z"/>
</g>
<g>
	<path class="st4" d="M1276.1,342.9c0,0,71.3,93.9,82.1,202.9c11.5,116.8,35.8,170.2,35.8,170.2l94.7-25.4
		C1488.6,690.5,1434.8,373.7,1276.1,342.9z"/>
	<path class="st5" d="M1449.4,701.1l-2,0.5c-2.8-21.6-7-42.9-12.4-64c-13.9-54.2-38.3-110.9-64.8-164.6
		c-12.7-26-26.5-50.8-43.1-74.5c-8.3-11.9-16.4-24.2-26.8-34.4c-7.2-7.1-15.1-13.5-23.2-19.7c0,0,0,0,0,0c-0.6-0.9-1-1.4-1.1-1.5
		c0.6,0.1,1.2,0.2,1.8,0.3l0,0c9.1,6.8,18.1,13.9,26,22.1c10.7,11,19.3,24.2,28,36.8c17.2,24.8,30.9,51.1,44.1,78.2
		c13,26.7,25.3,53.8,36.1,81.5C1429.6,606.6,1443.5,653.3,1449.4,701.1z"/>
</g>
<g>
	<path class="st4" d="M1251.2,454.1c0,0,88.7,77.8,121,182.3c34.7,112.1,69.1,159.6,69.1,159.6l87.7-43.9
		C1529,752.1,1412.8,452.5,1251.2,454.1z"/>
	<path class="st5" d="M1492.6,770.3l-1.8,0.9c-7-20.6-15.4-40.6-25-60.2c-24.5-50.3-59.8-100.9-96.4-148.4
		c-17.7-22.9-36.1-44.4-57.1-64.4c-10.5-10-20.9-20.4-33.1-28.3c-8.5-5.5-17.5-10.2-26.7-14.7c0,0,0,0,0,0c-0.8-0.8-1.3-1.2-1.4-1.3
		c0.6,0,1.2,0,1.8,0l0,0c10.3,4.8,20.5,10,29.9,16.4c12.6,8.6,23.7,19.9,34.8,30.4c21.8,20.8,40.6,43.9,58.9,67.8
		c18.1,23.6,35.6,47.7,51.7,72.6C1454.4,681.7,1477.3,724.7,1492.6,770.3z"/>
</g>
<g>
	<g>
		<path class="st6" d="M102.7,270.4c5.8-11.9,19.9-44.9,1.7-48.8c-29.9-6.5-41.7,46.4-36,61.8C76.9,306.2,97,282.2,102.7,270.4z"/>
		<path class="st6" d="M54.5,316c1.3-16.8-5.2-34.8-16.5-47.1c-7.6-8.4-20.6-10.3-28,2.4c-8.1,18.5-2.8,37.9,12.4,55
			c4.7,5.3,11.9,11.3,19.6,9.4C50.6,333.5,53.9,323.7,54.5,316z"/>
		<path class="st6" d="M123.2,286.9c-15-2.5-28.2,5.1-38.2,15c-10.9,10.8-18,31.2,2.5,35.8c17,3.8,43.4-7,52.2-22.3
			C142.7,310.1,147.7,291,123.2,286.9z"/>
		<path class="st6" d="M128.8,352.5c-7.7-18.5-43.5-14.1-59,0c-13.9,12.7-22.1,36.1,0.5,44c16.2,5.7,35.6-2.7,46.4-15.1
			C125.7,371.3,132.2,360.6,128.8,352.5z"/>
		<path class="st6" d="M14.9,336.2c-12.1-12.3-25.2-3.9-26,11.1c-1.5,17.1-1.1,27.2,2.3,36.6c5.1,14,22.1,23,32.6,8.7
			C35.5,376.9,27.6,349,14.9,336.2z"/>
		<path class="st6" d="M63.2,418.1c-11.6,3.7-21.5,14.5-23.8,25.3c-2.8,13.5,8.4,25.4,21.7,24.2c14.3-1.3,28.8-14.1,33.8-28.2
			C99,428.2,90,409.6,63.2,418.1z"/>
		<path class="st6" d="M47,497.2c-12.5,4-23.3,15.6-25.7,27.4c-3,14.6,9.1,27.4,23.5,26.1c15.4-1.4,31.1-15.2,36.5-30.4
			C85.6,508.1,75.9,488,47,497.2z"/>
		<path class="st6" d="M-38.1,400.5c-17.9,8.7-8.3,37.8-3.3,49.2c5,11.4,16.4,27.4,31.1,23.1C9,467,13.8,437.5,5.6,421.9
			C-1.9,407.8-24.6,394-38.1,400.5z"/>
		<path class="st6" d="M-61.3,470.4c-18.9,6-13.8,36.2-10.5,48.2c3.3,12,12.2,29.5,27.3,27.4c20-2.9,29.1-31.3,23.2-47.9
			C-26.6,482.9-47.1,465.9-61.3,470.4z"/>
	</g>
	<path class="st7" d="M124.9,307.3c1.6-1.1-0.1-3.5-1.7-2.4c-26.8,16.9-50.8,37.8-77.4,55.1c12.6-36.6,26.9-72.5,44.3-106.9
		c0.9-1.7-1.8-2.9-2.7-1.3c-15.6,29.4-28.7,60-40.2,91.3c-6.8-16.9-12.7-33.8-12.8-52.5c0-1-1.7-1.1-1.8-0.1
		c-1.3,18.5,2.9,41.2,12.8,57.3c-1.9,5.3-14.8,43.5-18.5,55.6c-9.8-15.9-18.4-35.2-16.6-53.9c0.1-0.9-1.3-1.4-1.6-0.5
		c-5.8,18.2,5.7,43.9,16.9,58.5C20.3,425.1,6.9,472,5.2,478.2C-6,457.6-10.6,436-17.6,413.7c-0.5-1.6-2.9-0.7-2.4,0.9
		c6.7,22.9,8.9,49.1,23.9,68.6c-7.4,27.8-14,55.8-19.3,84.1c-9-12.3-34.6-49.7-40.3-84.5c-0.2-1-1.5-1.2-1.5-0.3
		c-1.1,34.8,29.2,77,40.8,89.9c-6.7,36.9-11.1,74.2-12.1,111.7c-0.1,2.2,3.7,2.3,3.8,0.1c2.1-35.1,6.4-69.9,12.3-104.4
		c0.4-0.3,52.2-47,79.4-65.4c1.6-1.1-0.1-3.4-1.7-2.4c-28,17-76.3,61.4-76.5,61.1c4.6-25.5,10.1-50.9,16.4-76
		c19.9-31.6,53.8-44,82.2-66.1c1.2-0.9-0.1-2.7-1.4-1.9c-27.1,17.3-61,32.4-78.9,60.3c2.3-8.9,17.4-62.6,22.8-80.5
		c12.8-8.6,27.9-13.4,41-21.6c14.7-9.1,28.6-19.2,43.7-27.5c1.3-0.7,0.1-2.7-1.2-2.2c-15.8,6-29,16.8-43.1,25.9
		c-12.6,8.1-26.8,13.4-39.3,21.5c4.2-13.6,8.5-27.1,13.1-40.6C73.1,348.4,98.3,326.4,124.9,307.3z"/>
</g>
<g>
	<g>
		<path class="st8" d="M366.9,500.6c-3.4-7-11.6-26.3-0.9-28.6c17.5-3.8,24.4,27.2,21,36.2C382,521.5,370.3,507.5,366.9,500.6z"/>
		<path class="st8" d="M395.1,527.3c-0.8-9.8,3.1-20.4,9.7-27.6c4.5-4.9,12-6,16.4,1.4c4.8,10.9,1.6,22.2-7.3,32.2
			c-2.8,3.1-7,6.6-11.5,5.5C397.4,537.5,395.5,531.8,395.1,527.3z"/>
		<path class="st8" d="M354.9,510.2c8.8-1.5,16.5,3,22.3,8.8c6.4,6.3,10.5,18.3-1.5,21c-9.9,2.2-25.4-4.1-30.6-13.1
			C343.5,523.8,340.6,512.6,354.9,510.2z"/>
		<path class="st8" d="M351.6,548.6c4.5-10.8,25.5-8.3,34.5,0c8.1,7.5,12.9,21.1-0.3,25.7c-9.5,3.3-20.8-1.6-27.2-8.8
			C353.4,559.6,349.6,553.3,351.6,548.6z"/>
		<path class="st8" d="M418.3,539.1c7.1-7.2,14.7-2.3,15.2,6.5c0.9,10,0.6,15.9-1.4,21.5c-3,8.2-12.9,13.5-19.1,5.1
			C406.3,562.9,410.9,546.6,418.3,539.1z"/>
		<path class="st8" d="M390,587.1c6.8,2.2,12.6,8.5,13.9,14.8c1.6,7.9-4.9,14.9-12.7,14.2c-8.4-0.8-16.8-8.3-19.8-16.5
			C369,592.9,374.3,582.1,390,587.1z"/>
		<path class="st8" d="M399.4,633.4c7.3,2.3,13.6,9.2,15,16c1.8,8.5-5.3,16.1-13.8,15.3c-9-0.8-18.2-8.9-21.3-17.8
			C376.8,639.7,382.5,628,399.4,633.4z"/>
		<path class="st8" d="M449.3,576.8c10.4,5.1,4.8,22.1,1.9,28.8c-2.9,6.7-9.6,16-18.2,13.5c-11.3-3.4-14.1-20.6-9.3-29.8
			C428.1,581,441.4,573,449.3,576.8z"/>
		<path class="st8" d="M462.9,617.7c11.1,3.5,8,21.2,6.1,28.2c-1.9,7-7.2,17.3-16,16c-11.7-1.7-17-18.3-13.6-28.1
			C442.5,625.1,454.5,615.1,462.9,617.7z"/>
	</g>
	<path class="st9" d="M353.9,522.2c-0.9-0.7,0.1-2,1-1.4c15.7,9.9,29.7,22.2,45.3,32.3c-7.3-21.4-15.7-42.5-25.9-62.6
		c-0.5-1,1.1-1.7,1.6-0.7c9.1,17.2,16.8,35.2,23.5,53.5c4-9.9,7.4-19.8,7.5-30.7c0-0.6,1-0.6,1.1,0c0.7,10.8-1.7,24.2-7.5,33.6
		c1.1,3.1,8.6,25.5,10.8,32.6c5.7-9.3,10.8-20.6,9.8-31.6c0-0.5,0.7-0.8,0.9-0.3c3.4,10.7-3.4,25.7-9.9,34.3
		c3.1,10.1,10.9,37.7,11.9,41.2c6.6-12.1,9.3-24.7,13.4-37.7c0.3-0.9,1.7-0.4,1.4,0.5c-3.9,13.4-5.3,28.7-14,40.1
		c4.3,16.3,8.2,32.7,11.2,49.2c5.3-7.2,20.3-29.1,23.6-49.5c0.1-0.6,0.9-0.7,0.9-0.1c0.6,20.4-17.1,45.1-24,52.6
		c3.9,21.6,6.5,43.4,7,65.4c0,1.3-2.2,1.3-2.2,0.1c-1.2-20.6-3.7-41-7.2-61.2c-0.2-0.2-30.6-27.6-46.5-38.3c-0.9-0.6,0.1-2,1-1.4
		c16.4,10,44.6,36,44.8,35.8c-2.7-14.9-5.9-29.8-9.6-44.5c-11.7-18.5-31.5-25.8-48.1-38.7c-0.7-0.5,0.1-1.6,0.8-1.1
		c15.8,10.1,35.7,19,46.2,35.4c-1.3-5.2-10.1-36.6-13.3-47.1c-7.5-5-16.3-7.9-24-12.6c-8.6-5.3-16.7-11.3-25.6-16.1
		c-0.7-0.4-0.1-1.6,0.7-1.3c9.3,3.5,17,9.9,25.2,15.2c7.4,4.8,15.7,7.9,23,12.6c-2.4-8-5-15.9-7.6-23.8
		C384.2,546.2,369.5,533.3,353.9,522.2z"/>
</g>
<g>
	<path class="st10" d="M432.1,492.3c0,0,10.4-16.2,22.6-5.9c12.1,10.3,13.1,11.9,20,12.6c5.4,0.6,14.3-1.5,23,7.5
		c8.7,9,12.7,16.6,18.3,24.1c5.6,7.5,8.2,17.2,9.3,23.4c-1.7,2.9-4.1,0-4.1,0s-4.4-18.6-9.7-19.1c-5.3-0.6-26.7,4.4-35.7-2.5
		c-9-6.9-9.5-17.7-17.4-22.6c-7.9-4.9-6.8-6.2-9.6-13.8C446.8,490.2,438.4,491.3,432.1,492.3z"/>
	<path class="st10" d="M624.3,492.3c0,0-10.4-16.2-22.6-5.9c-12.1,10.3-13.1,11.9-20,12.6c-5.4,0.6-14.3-1.5-23,7.5
		c-8.7,9-12.7,16.6-18.3,24.1c-5.6,7.5-8.2,17.2-9.3,23.4c1.7,2.9,4.1,0,4.1,0s4.4-18.6,9.7-19.1c5.3-0.6,26.7,4.4,35.7-2.5
		c9-6.9,9.5-17.7,17.4-22.6c7.9-4.9,6.8-6.2,9.6-13.8C609.7,490.2,618,491.3,624.3,492.3z"/>
	<path class="st11" d="M602.5,462.2c-2-3.4-11.8-5.8-15-2.2c-3.2,3.6-5.7,9.9-13.8,9.9c-8.1,0-13.6,2.8-14.8,10
		c-1.2,7.2,2.4,8.5-5.2,9.6c-7.6,1.1-16.7,2.3-16.3,10.4c0.4,8.1,4.8,15.2,2.6,18.2c-2.2,3-6.9,14-7.6,19.3c-0.7,5.3-1.2,19-1.2,19
		s2.1,3.6,4.4,0.4c0.7-3.8-1.7-20.8,3.2-28c4.9-7.2,7.8-5.3,15-7.5c7.1-2.2,15-6.2,17.5-10.4c2.5-4.2-3.3-11.9,4-14.8
		c7.4-3,15.6,3.4,19.5-5.4c2.5-5.7,0.6-14.2-0.3-17.7C593.2,467.8,590.9,463,602.5,462.2z"/>
	<g>
		<path class="st12" d="M524.5,559.3c0,0-3.1-9.6-7.9-14.5c-10.3-10.5-29.7-24.8-42.9-21.8c-19.3,4.4-22.1,12.8-31.6,9.2
			c-9.5-3.5-12.6-8.2-19.9-3.8c-7.8,4.7-10,15.4-10,15.4s4.6-5.4,9.6-7c3.4-1.1,7.5,0.6,8.7,3.2c3,6.4,6.6,14.5,16.3,14.7
			c8.6,0.2,10.4-7.7,20-6.4c6.2,0.9,4,10.9,20.2,9.2c10-1,16.6-10.1,22.4-10.7c2.2-0.2,6.4,2.1,8.7,5.6c2.5,3.7,2.1,5.1,2.9,6.9
			C521.9,561,524.5,559.3,524.5,559.3z"/>
		<path class="st10" d="M423.4,531.9c0,0,7.8-2.5,10.3,3.2c2.5,5.7,7.6,12.2,14.3,10.6c6.7-1.6,11.7-8.4,18.6-7s10.1,4.3,13.8,7.3
			c3.7,2.9,9.9,0.6,13.5-2c3.5-2.7,8.3-2.6,8.3-2.6s-6-1.6-9,0c-3,1.6-8,5.8-11.9,2.5c-3.9-3.4-9.9-9.2-16.4-8.7
			c-6.5,0.5-8,4.8-14.1,6.2c-6.2,1.4-9.7,1.2-12.9-3.5c-3.2-4.7-4.1-7.5-8-8.1C425.9,529.3,423.4,531.9,423.4,531.9z"/>
	</g>
	<g>
		<path class="st12" d="M536.6,556.5c0,0,3.1-9.6,7.9-14.5c10.3-10.5,29.7-24.8,42.9-21.8c19.3,4.4,22.1,12.8,31.6,9.2
			c9.5-3.5,12.6-8.2,19.9-3.8c7.8,4.7,10,15.4,10,15.4s-4.6-5.4-9.6-7c-3.4-1.1-7.5,0.6-8.7,3.2c-3,6.4-6.6,14.5-16.3,14.7
			c-8.6,0.2-10.4-7.7-20-6.4c-6.2,0.9-4,10.9-20.2,9.2c-10-1-16.6-10.1-22.4-10.7c-2.2-0.2-6.4,2.1-8.7,5.6
			c-2.5,3.7-2.1,5.1-2.9,6.9C539.2,558.2,536.6,556.5,536.6,556.5z"/>
		<path class="st10" d="M637.7,529.2c0,0-7.8-2.5-10.3,3.2c-2.5,5.7-7.6,12.2-14.3,10.6c-6.7-1.6-11.7-8.4-18.6-7
			c-6.9,1.4-10.1,4.3-13.8,7.3c-3.7,2.9-9.9,0.6-13.5-2c-3.5-2.7-8.3-2.6-8.3-2.6s6-1.6,9,0s8,5.8,11.9,2.5
			c3.9-3.4,9.9-9.2,16.4-8.7c6.5,0.5,8,4.8,14.1,6.2c6.2,1.4,9.7,1.2,12.9-3.5c3.2-4.7,4.1-7.5,8-8.1
			C635.2,526.5,637.7,529.2,637.7,529.2z"/>
	</g>
	<path class="st12" d="M454.7,460.2c2.1-3.6,12.4-6,15.7-2.3c3.3,3.7,5.9,10.4,14.4,10.4c8.5,0,14.2,2.9,15.5,10.5
		c1.2,7.6-2.5,8.9,5.4,10c7.9,1.2,17.4,2.4,17.1,10.9c-0.4,8.5-5,16-2.7,19c2.3,3.1,7.2,14.7,8,20.2c0.8,5.5,1.3,12.6,1.3,12.6
		s-2.2,3.7-4.6,0.4c-0.8-4,1.8-14.5-3.3-22c-5.1-7.5-8.2-5.5-15.7-7.8c-7.5-2.3-15.8-6.5-18.3-10.9c-2.6-4.4,3.5-12.4-4.2-15.5
		c-7.7-3.1-16.4,3.6-20.4-5.6c-2.6-6-0.6-14.8,0.3-18.5C464.4,466.1,466.8,461.1,454.7,460.2z"/>
	<g>
		<path class="st11" d="M547.1,561.8c0,0,6.9-11.8,12-16.8c5.1-5,10.9-12.5,19.4-9.3c7.1,2.6,14.9,7.7,19.6,6.4
			c4.7-1.3,10.6-5.7,16-6.1c13.1-0.9,14.2,10.5,14.2,10.5s5.1-10.4-2.2-21.3c-3.8-5.8-15.1-10.8-22.2-8.4
			c-7.1,2.3-12.5,1.4-13.9-0.5c-3.6-4.8-9.6-2.4-11.3,0.8c-1.7,3.2-5.6,4.1-9.5,2.1c-4.5-2.4-8.9,2.3-10.3,5.6
			c-1.4,3.3,1.3,10.5,0.6,13.1c-0.7,2.6-12.4,16.8-15.3,21.6C543.1,561.5,545.4,563,547.1,561.8z"/>
		<path class="st13" d="M564.6,526.5c5.9-6.3,17-3.4,25.1-1.4c3.8,0.9,11.1-0.6,19.1-2.1c6.9-1.3,12.4,0.3,16.2,7
			c-7.8-10.1-19.9-4.4-26.4-3.1c-11.5,2.3-27.9-8.8-35.8,3.8C562.8,529.1,564,527.1,564.6,526.5z"/>
	</g>
	<g>
		<path class="st11" d="M512.5,563.3c0,0-5.4-13-10-18.8c-4.5-5.8-9.4-14.3-18.3-12.4c-7.5,1.6-15.9,5.5-20.4,3.5
			c-4.6-2-9.9-7.4-15.3-8.6c-13-2.9-15.6,8.5-15.6,8.5s-3.8-11.2,4.8-21.3c4.6-5.3,16.5-8.6,23.3-5.1c6.8,3.4,12.3,3.3,14,1.6
			c4.3-4.4,9.9-1,11.2,2.5c1.3,3.5,5.1,5,9.3,3.5c4.8-1.7,8.6,3.6,9.6,7.2c1,3.6-2.6,10.5-2.2,13.2c0.4,2.7,10.3,18.8,12.7,24.2
			C516.5,563.5,514.1,564.7,512.5,563.3z"/>
		<path class="st13" d="M499.4,524.9c-5.1-7.2-16.6-6-24.9-5.2c-3.9,0.4-11-2.3-18.9-5c-6.8-2.3-12.5-1.6-17.1,4.7
			c9.1-9.1,20.5-1.5,26.8,0.9c11.3,4.1,29-4.7,35.3,9.2C500.8,527.8,499.9,525.6,499.4,524.9z"/>
	</g>
	<path class="st11" d="M536.6,568.1c0,0,2-22.8,14.6-26.5c12.6-3.7,18.1,8.2,26.7,7.5c10.3-0.9,16.2,1.3,19.6,7.4
		c2.6,4.7,0.1,10.5,2,16.5c1.9,6,7.9,3.5,7.9,3.5s-3.1,6.4-9.9,5.3c-6.7-1.1-7.8-4.3-12.4-4.8c-4.6-0.5-13.8,5.2-19.5-0.5
		c-5.7-5.7-3.3-11.9-8.7-18.6c-5.8-7.3-9.9-5-12.6-0.9c-2.7,4.1-3.2,11-3.2,11S539.3,571.6,536.6,568.1z"/>
	<path class="st12" d="M593.1,573.9c0,0-3.1-2.6-5.6-5.8c-5.5-6.9-11.4-1.9-15.5-5c-4.1-3-6.2-6.7-8.1-9.9
		c-1.9-3.2-10.1-5.3-10.1-5.3s4.4-1.8,10.4,2.5c3,2.2,5.8,10.2,8.8,10.5s9,0.2,12.2,1.5C588.5,563.8,593.1,573.9,593.1,573.9z"/>
	<path class="st11" d="M527.4,564.8c0,0-2-22.8-14.6-26.5c-12.6-3.7-18.1,8.2-26.7,7.5c-10.3-0.9-16.2,1.3-19.6,7.4
		c-2.6,4.7-0.1,10.5-2,16.5c-1.9,6-7.9,3.5-7.9,3.5s3.1,6.4,9.9,5.3c6.7-1.1,7.8-4.3,12.4-4.8c4.6-0.5,13.8,5.2,19.5-0.5
		c5.7-5.7,3.3-11.9,8.7-18.6c5.8-7.3,9.9-5,12.6-0.9c2.7,4.1,3.2,11,3.2,11S524.8,568.3,527.4,564.8z"/>
	<path class="st12" d="M471,570.6c0,0,3.1-2.6,5.6-5.8c5.5-6.9,11.4-1.9,15.5-5c4.1-3,6.2-6.7,8.1-9.9c1.9-3.2,10.1-5.3,10.1-5.3
		s-4.4-1.8-10.4,2.5c-3,2.2-5.8,10.2-8.8,10.5s-9,0.2-12.2,1.5C475.6,560.4,471,570.6,471,570.6z"/>
	<g>
		<path class="st10" d="M513.8,478.9c-6.4-22.2-14.8-47.6-29.1-66.1c-0.1-0.1-0.3,0-0.3,0.1c4.1,10.7,9.7,20.8,14.1,31.4
			c4.8,11.5,8.9,23.3,12.3,35.3c6.8,24.1,10.5,48.9,12.5,73.8c0.1,0.7,1.1,0.7,1.1,0C524.8,528.2,520.9,503.2,513.8,478.9z"/>
		<path class="st14" d="M498.2,433.9c4.1-10-2.4-21.4-12.4-25.4c-13.1-5.2-34.6-0.9-36.6,14.6c-6.1,2.8-11,7.6-10.9,15
			c0,0,2.3-4.8,6-5.6c6.3-1.3,16,1.2,20.5,1.3c8.2,0.2,26.9-1.1,32,6.8C500.1,439.4,499.2,434.9,498.2,433.9z"/>
		<path class="st15" d="M449.2,423c0,0,14-1.3,26.9,0c12.9,1.3,22.1,10.8,22.1,10.8s0.1-7.8-7-15.3c-2.3-2.4-4.6-4.1-6.8-5.3
			c-4.6-2.5-8.3-2.7-8.3-2.7s5.3,2.2,8.3,5.8c1.9,2.2,2.4,6,2.4,6s-5-5.2-15.2-8.3c-6.2-1.8-11.2-1.3-11.2-1.3s6.2,1.7,8.2,3
			c2.9,1.9,3.5,3.2,4.1,4.4c-8.1-1.9-16.3-3.9-22.7-0.7C449.2,421.5,449.2,423,449.2,423z"/>
		<path class="st16" d="M482.9,398c-2.6,0.6,0.2,7.4,3.1,15.3c2.2,6.1,3.8,12.5,5.1,15c2.7,1.5,4.7,3.3,4.7,3.3s-1.7-9.5-4.6-19
			C488.8,404.9,485.5,397.4,482.9,398z"/>
	</g>
	<g>
		<path class="st10" d="M544.6,486c6.4-22.2,14.8-47.6,29.1-66.1c0.1-0.1,0.3,0,0.3,0.1c-4.1,10.7-9.7,20.8-14.1,31.4
			c-4.8,11.5-8.9,23.3-12.3,35.3c-6.8,24.1-10.5,48.9-12.5,73.8c-0.1,0.7-1.1,0.7-1.1,0C533.7,535.2,537.6,510.2,544.6,486z"/>
		<path class="st14" d="M560.2,440.9c-4.1-10,2.4-21.4,12.4-25.4c13.1-5.2,34.6-0.9,36.6,14.6c6.1,2.8,11,7.6,10.9,15
			c0,0-2.3-4.8-6-5.6c-6.3-1.3-16,1.2-20.5,1.3c-8.2,0.2-26.9-1.1-32,6.8C558.4,446.4,559.2,442,560.2,440.9z"/>
		<path class="st15" d="M609.2,430.1c0,0-14-1.3-26.9,0c-12.9,1.3-22.1,10.8-22.1,10.8s-0.1-7.8,7-15.3c2.3-2.4,4.6-4.1,6.8-5.3
			c4.6-2.5,8.3-2.7,8.3-2.7s-5.3,2.2-8.3,5.8c-1.9,2.2-2.4,6-2.4,6s5-5.2,15.2-8.3c6.2-1.8,11.2-1.3,11.2-1.3s-6.2,1.7-8.2,3
			c-2.9,1.9-3.5,3.2-4.1,4.4c8.1-1.9,16.3-3.9,22.7-0.7C609.2,428.6,609.2,430.1,609.2,430.1z"/>
		<path class="st16" d="M575.5,405.1c2.6,0.6-0.2,7.4-3.1,15.3c-2.2,6.1-3.8,12.5-5.1,15c-2.7,1.5-4.7,3.3-4.7,3.3s1.7-9.5,4.6-19
			C569.6,412,572.9,404.5,575.5,405.1z"/>
	</g>
	<path class="st12" d="M529.4,547.4c-9.8-6-11.9-0.6-14.7,7.5c-1.8,5.2-0.9,15.4,3.3,21.3c4.2,5.9,5.7,7,3.2,10.5
		c-2.5,3.5-4.2,5.1-2.3,9c1.9,3.9,5.6,5.7,5.6,5.7s-3.1-4.8,0-8.3c3.1-3.5,10-2.7,14.2-9.6s0.7-11-0.7-13.8
		c-1.4-2.8,3.8-7.3,5.2-14.8C544.7,547.4,540.1,544.6,529.4,547.4z"/>
	<path class="st13" d="M529.4,547.4c0,0-3.2,6.2-4.9,9c-1.7,2.8-3.2,7.6,0.8,11.7c4,4.1,6,6.2,5,10.8c-1.1,4.6-4.4,7.4-4.4,7.4
		s6.4-3.4,7.2-7.6c0.9-4.2-0.1-7.6-3.7-10.6c-3.6-3-5.8-4.1-3-9.9c2.8-5.8,4.8-10.8,4.8-10.8H529.4z"/>
	<path class="st12" d="M588.7,466.5c0,0-3.8,1.8-3.1,5.8c0.7,4,2.2,8.5-0.4,10.7c-2.7,2.3-11.2,2.9-13.1,3.9c-5.2,2.7-5.4,4.7-6,8.3
		c-0.6,3.6,1.3,10.1-3.2,12.4c-4.5,2.3-10.9,4.4-14,5.9c-3.1,1.5-6.7,4.6-6.7,4.6s2.7-3.8,6.8-6.1c4.1-2.2,10.4-4.1,12.7-6.7
		c2.4-2.5,0.6-6.8,1.1-12.1c0.5-5.3,3-8.3,7.6-9.3c4.6-1,8.6-1,11.5-3.3c3-2.2-0.3-7.1,1.2-10.8
		C584.7,466.2,588.7,466.5,588.7,466.5z"/>
	<path class="st10" d="M471.7,466.5c0,0,3.8,1.8,3.1,5.8c-0.7,4-2.2,8.5,0.4,10.7s11.2,2.9,13.1,3.9c5.2,2.7,5.4,4.7,6,8.3
		c0.6,3.6-1.3,10.1,3.2,12.4c4.5,2.3,10.9,4.4,14,5.9c3.1,1.5,6.7,4.6,6.7,4.6s-2.7-3.8-6.8-6.1c-4.1-2.2-10.4-4.1-12.7-6.7
		c-2.4-2.5-0.6-6.8-1.1-12.1c-0.5-5.3-3-8.3-7.6-9.3c-4.6-1-8.6-1-11.5-3.3c-3-2.2,0.3-7.1-1.2-10.8
		C475.7,466.2,471.7,466.5,471.7,466.5z"/>
	<g>
		<path class="st10" d="M529.6,483.9c0.6-17.8,0.7-35.5,2.6-54c0.1-0.8-1.3-3.3-1.7-0.9c-2.7,16.2-2.8,36.9-3.2,54.6
			c-0.4,18.1-0.4,51.1,2.7,69c0.1,0.5,1,0.4,0.9-0.1C530.1,534.3,529,502,529.6,483.9z"/>
		<path class="st14" d="M496.8,396.2c0,0,8.2-1.7,16.3-3.9c8.2-2.2,15.1-0.4,20.8,7.9c3.3,4.7,3.1,15.7,1.5,23.5
			c-1.2,5.9-3.5,9.7-3.5,9.7s-5.1-3.9-9.3-10.9c-4.2-7-6.3-9.7-15-14c-8.7-4.2-12.8-12.8-18.2-10.3c-5.4,2.6-5.4,2.6-5.4,2.6
			S486.5,391,496.8,396.2z"/>
		<path class="st15" d="M496.8,396.2c0,0,7.8,1.2,11.1,4.1c3.3,2.9,4.1,6.4,8.2,6.9c4,0.4,8,0.3,10.3,6.4c2.2,6,3.2,8.9,5.1,12
			c0.6,1.1,2.6,3.2,2.6,3.2s0.9-2.1,1.4-5.1c0-3.7-1.1-8.2-2.7-11.6c-1.5-3.2-3.8-6.9-4.9-10c-1-2.7-1.1-5-1.1-5s-1.3,2.3-0.3,5.8
			c1,3.6,1.2,6.7,1.2,6.7s-4-7.5-10-9.7c-6-2.2-9.5-2.8-10.8-3.2c-2.6-0.8-4.2-1.8-4.2-1.8S498.5,395.8,496.8,396.2z"/>
		<path class="st16" d="M530.1,423.1c0,0,0.4-12.5,1.3-22.1c0.9-9,1.6-10.7,4-10.2c2.4,0.5-0.1,12.5-0.8,19.1
			c-0.7,6.2-1.4,12.7-1.7,17.5C530.6,425.7,530.1,423.1,530.1,423.1z"/>
	</g>
</g>
<g>
	<g>
		<g>
			<path class="st17" d="M753.9,569.5c8.8,2.5,18,4.5,27.2,3.1c15.8-2.5,28-13.4,37.9-25.3c-4.6-8.8-17.3-16.3-26.5-18.9
				c-10.4-3-19.4,3.2-28.8,7.5c-9,4.2-21.7,7.8-25.9,17.7c-1.8,4.2-2,7.8-1.2,11c0,0,0,0,0.1,0C741.8,564.2,749.2,568.2,753.9,569.5
				z"/>
			<path class="st18" d="M777.2,584.4c12.8,0.6,23.4-5.5,33.6-14.3c6.1-5.2,12.3-14.7,8.6-22.3c-0.1-0.1-0.2-0.3-0.3-0.4
				c-9.9,11.9-22.2,22.7-37.9,25.3c-9.2,1.5-18.4-0.6-27.2-3.1c-4.8-1.3-12.1-5.3-17.1-5c0,0,0,0-0.1,0
				C740.6,579.3,767.9,583.9,777.2,584.4z"/>
		</g>
		<path class="st18" d="M784.4,552.3c-3-1.8-5.9,0.9-8.4,2.2c-7.7,3.7-10.1-0.8-15.6-4.6c-1.2-0.9-2.4-1.5-3.9-1.5
			c-1.5,0-7.9,4.3-7.8,8.1c0.1,2.8,5.8,5.1,8.4,6.4c4.3,2.2,8.8,3.3,13.6,2.1c2.8-0.7,5.3-2,7.8-3.4c1.7-0.9,5.2-1.4,7.3-4.8
			C786.8,555.2,786.1,553.3,784.4,552.3z"/>
		<path class="st19" d="M796.2,535.1c-5-2-9.8-1.5-14.6,0.1c-4.5,1.4-11.5,2.5-12.6,5.7c-0.9,2.7,1.8,3.8,4,4.1
			c3.1,0.5,5.8-1.4,8.8-1.8c3.9-0.5,9.9,2.7,12.5,5.1c0.7,0.7,0.9,1.6,1.7,2.2c3.7,2.8,10.2,0.8,14-1c0.5-0.2,0.8-0.9,0.8-1.4
			C811.4,541.6,801.2,537.1,796.2,535.1z"/>
	</g>
	<g>
		<g>
			<g>
				<path class="st10" d="M1074.8,271.2c0,0-0.1,0.1-0.1,0.2c0.1,0.1,0.2,0.2,0.4,0.3C1075,271.5,1074.9,271.4,1074.8,271.2z"/>
				<path class="st10" d="M1071.4,265.1c1.4-1.4,2.2-2.9,2.2-2.9s-0.8-0.5-5.2-1.8c0.2,1.5,0.2,3-0.1,4.6
					C1069.2,264.9,1070.3,265,1071.4,265.1z"/>
				<path class="st10" d="M1121.9,455.4c-0.4-0.3-0.9-0.4-1.3-0.6c4.6-1.4,9.1-4.3,9.1-4.3s-2.3-0.2-9.2-1.9
					c-0.9-0.2-1.7-0.4-2.5-0.5c3.5-5,4.1-11.3,0-18.1c3.3-0.4,6.7-2.7,6.7-2.7s-2.9-2.1-4.4-4.7c-0.1-0.2-0.2-0.4-0.3-0.5
					c2.9,0.8,7.6-1.6,7.6-1.6s-2.7-0.7-6.8-3c-0.7-0.4-1.4-0.6-2.1-0.9c0,0,0.1-0.1,0.1-0.1c2.8-3.5,4.6-7.5,4.6-11.9
					c0-5.1-2.3-9.5-6.1-12.1c4.2-1,7.6-4.7,7.6-4.7s-1.6,0.4-7.7-2.8c-1.3-0.7-2.3-0.9-3.2-1.1c-0.2-5-2.2-9.8-5.7-13.2
					c1.7-1.6,3.3-3.7,4.2-6.3c0,0-2.2-0.2-5.1,0.5c1.5-3.7,1-8.9-1.7-12.8c1.7-0.3,2.9-0.6,2.9-0.6s-0.3-1.1-4.4-4
					c-1.6-1.1-3.4-1.8-5-2.2c2-4.6,2.8-9.8,0.8-13.6c3.1,0.2,6-0.6,6-0.6s-1.9-2.6-5.8-5.9c-1-0.9-2.3-1.3-3.5-1.4
					c0.5-3.3,0-6.6-1.5-9.4c3.3-1.1,6.2-3.4,6.2-3.4s-2.7-0.7-7.3-3.9c-0.9-0.7-2.1-1.1-3.4-1.4c0.6-0.2,1.2-0.4,1.7-0.7
					c3-1.4,3.9-6.4,3.9-6.4s0,0-4.3,1.3c-0.6,0.2-1.1,0.4-1.7,0.7c0-6.1-3.4-11.5-8.7-14.6c2.8-2.3,4.2-5.6,4.2-5.6s-1.6,0.4-5.2,0
					c0.1,1,0.2,2,0.1,3.1c-0.2,2.4-1.2,5-2.7,7.2c1.8,0.9,6,3.6,7.6,7c-1.3,1.8-4,2.2-7.6,3.9c1.2,1,2.1,2.5,2.5,4.2
					c0.2,0.8,0.1,1.5,0,2.3c1,0.2,2.2,0.4,3.4,0.8c4.9,1.4,7,2,7,2s-3.5,2.7-7.6,3.3c1.1,0.7,2,1.6,2.7,2.8c1.6,2.9,1.3,6.2-0.3,8.9
					c0.9,0.1,1.9,0.2,2.9,0.3c6.1,0.7,9.9,2.9,9.9,2.9s-3.1,1.8-6.7,2.6c1.6,1.6,2.7,3.6,3.1,6c0.6,3.6-0.6,7-3,9.4
					c2.4,0.6,5.1,1,6.8,0.2c0,0-2.3,3.7-5.4,5.3c1.6,3.5,0.8,7.9-2.8,9.7c3.1,3.6,3.9,8.5,1.8,12c3.3,1.3,5.6,3.8,5.6,3.8
					c-2.4-0.2-5.3,0-7.7,0.3c4.5,4.2,7.6,10.1,4,16c-0.3,0.5-0.7,0.8-1.1,1.3c3.3,0.2,6.6,0.1,7.7-1.1c-0.5,3.3-2.9,6.9-6.7,8.3
					c0.6,1.1,1.1,2.4,1.1,3.8c0.1,2.6-1,4.8-2.6,6.3c1.6,1,3.4,2.3,4.8,3.5c3.6,3.3,6.8,5.4,6.8,5.4s-4.1,0.6-8.6-1.1
					c1.8,4.1,2,8.8-0.3,13.4c-1.3,2.7-3.8,5.3-6.6,6.9c2.3,0.4,4.6,0.6,6.3,0.2c0,0-3.7,5.3-9.1,5.9c0.3,1.3,0.4,2.6,0,4
					c-0.2,0.6-0.5,1.2-0.8,1.8c1.5,1.2,3.3,2.9,4.1,4.5c1.3,2.9,2.7,5,2.7,5s-3.1-0.1-6.1-1.5c0.3,4.5-1.9,9.6-5.8,12.5
					c1.2,0.6,2.6,1.3,3.8,2.1c-1,0.9-4.4,3.7-7.5,3.6c0.1,1.7-0.2,3.5-1.2,5.3c-2.4,4.2-6.5,5.8-10.9,6.1c-0.1,1.7-0.2,4.1-0.7,6.7
					c-0.9,5-1.6,6-1.6,6s-1.9-2-3.4-4.5c-0.4,1.1-0.9,2.1-1.6,3.1c-4.3,6.2-11.8,7.1-18.3,4.9c1.3,2.4,5.6,7.9,5.6,7.9
					s-7.6-2.2-11.7-5.3c-3.9,5.6-11.6,7.4-17.4,3.2c-0.5,0.6-1.1,1.3-1.8,2.1c-2.7,3.3-3,5.4-3,5.4s-2.6-1.6-3.5-4
					c-2.5,1-5.3,1.2-7.9,0.5c0,0.1,0,0.1,0,0.2c-0.1,4.1-1,5-1,5s-5.4-2.8-8.3-6.8c-8,6.4-19.1,4.4-24.9-3.6c-1,0.4-2.3,0.8-4,1.2
					c-4.8,1.2-7.2,2.4-7.2,2.4s-0.6-2.5,1.5-5.7c-3.7,1.3-7.4,2-11.1,0c-1.4-0.7-2.5-1.6-3.3-2.7c-0.2,0.6-0.4,1.2-0.7,1.7
					c-1.9,3.5-3.3,4.1-3.3,4.1s-2-4.7-2.2-7.9c-3.3,0.6-6.6,0.3-9.1-1.2c0.1,0.5,0.3,0.9,0.5,1.4c1.9,4.5,5.7,6.5,10.1,7.4
					c-0.2,1.7-0.3,4.1-0.1,6.7c0.3,5.1,0.9,6.1,0.9,6.1s2.2-1.7,3.9-4c0.3,1.1,0.6,2.2,1.2,3.3c3.5,6.7,10.8,8.5,17.6,7.2
					c-1.6,2.2-6.5,7.1-6.5,7.1s7.8-1.3,12.3-3.8c3.2,6.1,10.6,8.8,16.8,5.3c0.4,0.6,0.9,1.4,1.5,2.3c2.2,3.6,2.3,5.7,2.3,5.7
					s2.8-1.3,3.9-3.6c2.4,1.3,5.1,1.8,7.8,1.5c0,0.1,0,0.1,0,0.2c-0.4,4,0.4,5.1,0.4,5.1s5.7-2.1,9-5.7c7.2,7.3,18.4,6.8,25.2-0.5
					c0.9,0.5,2.2,1.1,3.8,1.7c4.6,1.8,6.8,3.3,6.8,3.3s0.9-2.4-0.7-5.9c3.5,1.8,7.1,2.9,11,1.4c1.5-0.6,2.7-1.3,3.6-2.2
					c0.1,0.6,0.3,1.2,0.5,1.8c1.4,3.7,2.8,4.5,2.8,4.5s2.6-4.4,3.2-7.6c4.2,1.3,8.4,1.2,11.3-1.5c1.9,1.4,3.9,2.5,5.5,2.2
					c3.5-0.8,5.9-0.8,5.9-0.8s-1.5-2.6-3.3-5c5.2-1.1,9.8-4.3,12.4-8.6c0.8,0.6,1.7,1.1,2.6,1.5c3.8,1.5,6.2,2.8,6.2,2.8
					s-1.1-6-3.7-10.5c3.3-1.8,6.7-5.7,7.6-9.5c1.1-0.2,2.4-0.6,3.6-1.2c4.8-2.2,8.7-6.7,8.7-6.7s-2.2-0.3-5.2-0.3
					c2.3-2.1,4.2-4.3,5.2-5.9c3.3-5.1,3.7-12.1,0.8-16.6c0,0,0,0,0,0c4.8,0.5,6.9-0.2,6.9-0.2s-5.1-4.4-8.9-6.8
					c2.6-4.9,3.2-10.3,1.9-15.2c3.9-0.1,8.3-0.2,8.3-0.2S1126.2,458.7,1121.9,455.4z"/>
			</g>
			<g>
				<path class="st12" d="M1104.3,422.3c0,0-3.2-2.1-6.8-5.4c-1.4-1.3-3.2-2.5-4.8-3.5c1.6-1.5,2.7-3.7,2.6-6.3
					c0-1.5-0.5-2.7-1.1-3.8c3.7-1.4,6.2-5,6.7-8.3c-1.2,1.2-4.5,1.3-7.7,1.1c0.4-0.4,0.8-0.8,1.1-1.3c3.6-5.8,0.5-11.7-4-16
					c2.4-0.3,5.3-0.6,7.7-0.3c0,0-2.3-2.5-5.6-3.8c2.1-3.5,1.4-8.4-1.8-12c3.6-1.8,4.4-6.1,2.8-9.7c3.2-1.5,5.4-5.3,5.4-5.3
					c-1.7,0.8-4.4,0.4-6.8-0.2c2.3-2.4,3.5-5.8,3-9.4c-0.4-2.4-1.5-4.4-3.1-6c3.6-0.8,6.7-2.6,6.7-2.6s-3.7-2.2-9.9-2.9
					c-1.1-0.1-2-0.2-2.9-0.3c1.6-2.7,1.9-5.9,0.3-8.9c-0.6-1.2-1.6-2.1-2.7-2.8c4.1-0.6,7.6-3.3,7.6-3.3s-2.1-0.6-7-2
					c-1.2-0.4-2.4-0.6-3.4-0.8c0.1-0.7,0.1-1.5,0-2.3c-0.4-1.8-1.3-3.2-2.5-4.2c3.7-1.6,6.3-2.1,7.6-3.9c-1.6-3.4-5.9-6.1-7.6-7
					c1.5-2.2,2.5-4.9,2.7-7.2c0.1-1.1,0-2.1-0.1-3.1c-0.5-3.9-2.6-7-5.6-9.1c-0.1-0.1-0.2-0.2-0.4-0.3c0,0,0.1-0.1,0.1-0.2
					c2.2-2.4,3.5-7.1,3.5-7.1s-2.4,1.5-6.1,1c-0.3,0-0.5,0-0.8,0c-1.1-0.1-2.2-0.1-3.1-0.1c0.3-1.5,0.3-3.1,0.1-4.6
					c-0.2-1.4-0.6-2.7-1.3-3.9c0.1,1.7-0.2,3.6-1.3,5.4c1.1,3.1,0.8,6.9-1.5,9.6c1.8,0.9,3.3,2.5,4.2,4.5c1.7,3.7,0.9,7.5-1,10.8
					c1.1,0.4,2.4,0.9,3.6,1.5c3.4,1.7,6.1,1.1,6.1,1.1s-2.9,4.2-5.9,5.7c2.8,3.8,3.8,8.7,1.5,13.7c-1,2.2-2.8,4.3-5,5.9
					c1.3,1.5,4.4,5.4,4.8,9.1c-1.8,1.3-4.5,0.8-8.5,1.1c0.8,1.3,1.2,3,0.9,4.8c-0.1,0.8-0.4,1.5-0.7,2.1c0.9,0.5,1.9,1.1,3,1.9
					c4.2,3,5.9,4.3,5.9,4.3s-4.2,1.3-8.3,0.6c0.8,1.1,1.4,2.2,1.6,3.5c0.6,3.3-0.9,6.3-3.3,8.3c0.8,0.4,1.7,0.8,2.6,1.3
					c5.6,2.7,8.3,6,8.3,6s-3.5,0.7-7.2,0.2c0.9,2,1.4,4.3,0.9,6.7c-0.7,3.5-2.9,6.4-5.9,7.8c2,1.4,4.5,2.7,6.3,2.5
					c0,0-3.4,2.7-6.9,3.1c0.3,3.9-1.9,7.7-5.9,8.2c1.7,4.4,0.8,9.3-2.4,11.9c2.7,2.4,4,5.5,4,5.5c-2.2-1-5-1.8-7.4-2.3
					c2.8,5.5,3.8,12.1-1.6,16.4c-0.4,0.3-1,0.6-1.4,0.8c3,1.3,6.2,2.3,7.7,1.6c-1.6,3-5.1,5.5-9.1,5.6c0.2,1.3,0.2,2.6-0.2,4
					c-0.8,2.5-2.5,4.2-4.6,5.1c1.2,1.5,2.4,3.3,3.3,4.9c2.3,4.3,4.6,7.3,4.6,7.3s-4.1-0.8-7.7-3.9c0.3,4.4-1.1,8.9-4.8,12.6
					c-2.2,2.1-5.4,3.8-8.6,4.3c2,1.1,4.2,2.2,5.9,2.3c0,0-5.3,3.8-10.6,2.5c-0.1,1.3-0.5,2.6-1.4,3.8c-0.4,0.6-0.9,1-1.3,1.4
					c1,1.6,2.2,3.8,2.3,5.6c0.3,3.2,0.8,5.6,0.8,5.6s-2.9-1.2-5.2-3.4c-1.2,4.3-5,8.4-9.7,9.8c1,1,2,2,2.9,3.3
					c-1.3,0.5-5.4,1.9-8.3,0.8c-0.4,1.2-1,2.4-1.9,3.5c-2.9,0.3-5.9-1-8.7-3c-1.6,2.8-5.5,6.1-5.5,6.1s-1-1.2-1.1-5.2
					c0-0.6,0.1-1.2,0.2-1.8c-1.2,0.5-2.5,0.9-4.1,0.9c-4.2,0.1-7.2-2.1-9.9-5c0.3,3.8-1.3,5.8-1.3,5.8s-1.5-2.2-5.3-5.4
					c-1.3-1.1-2.3-2.1-3-2.9c-8.8,4.5-19.6,1.3-23.9-8c-4.3,2.3-10.4,2.4-10.4,2.4s-0.4-1.3,1.4-4.9c0-0.1,0-0.1,0.1-0.2
					c-2.7-0.6-5.1-2-6.9-4c-1,0.9-2.2,1.4-3.2,1.7c0.1,0.3,0.2,0.7,0.3,1c-1.6,1-3.7,2.4-4.6,4c-1.7,2.7-3.3,4.6-3.3,4.6
					s3.1,0.2,6.2-0.7c-0.9,4.4,0.7,9.7,4.3,13.1c-1.3,0.4-2.7,0.9-4.1,1.6c0.9,1,4,4.2,7,4.5c-0.2,1.3-0.2,2.6,0.1,4
					c2.5,1.5,5.7,1.8,9.1,1.2c0.2,3.3,2.2,7.9,2.2,7.9s1.4-0.6,3.3-4.1c0.3-0.5,0.5-1.1,0.7-1.7c0.8,1,1.9,1.9,3.3,2.7
					c3.7,2,7.4,1.3,11.1,0c-2,3.3-1.5,5.7-1.5,5.7s2.4-1.3,7.2-2.4c1.7-0.4,3-0.8,4-1.2c5.8,8,16.9,9.9,24.9,3.6
					c2.8,4,8.3,6.8,8.3,6.8s0.9-0.9,1-5c0-0.1,0-0.1,0-0.2c2.7,0.7,5.4,0.5,7.9-0.5c0.8,2.5,3.5,4,3.5,4s0.3-2.1,3-5.4
					c0.7-0.9,1.3-1.6,1.8-2.1c5.8,4.3,13.5,2.5,17.4-3.2c4.2,3.1,11.7,5.3,11.7,5.3s-4.3-5.5-5.6-7.9c6.6,2.1,14,1.3,18.3-4.9
					c0.7-1,1.2-2,1.6-3.1c1.5,2.5,3.4,4.5,3.4,4.5s0.7-1,1.6-6c0.5-2.6,0.6-5,0.7-6.7c4.4-0.3,8.5-1.9,10.9-6.1
					c1-1.8,1.4-3.6,1.2-5.3c3.1,0.1,6.5-2.6,7.5-3.6c-1.3-0.8-2.6-1.5-3.8-2.1c3.9-3,6.2-8,5.8-12.5c2.9,1.3,6.1,1.5,6.1,1.5
					s-1.3-2.1-2.7-5c-0.7-1.6-2.6-3.3-4.1-4.5c0.3-0.6,0.6-1.1,0.8-1.8c0.4-1.4,0.3-2.8,0-4c5.4-0.6,9.1-5.9,9.1-5.9
					c-1.6,0.4-4,0.2-6.3-0.2c2.8-1.6,5.3-4.2,6.6-6.9c2.2-4.6,2.1-9.3,0.3-13.4C1100.1,422.9,1104.3,422.3,1104.3,422.3z"/>
				<path class="st12" d="M929.3,474c0,0.1,0,0.1-0.1,0.2c-1.8,3.7-1.4,4.9-1.4,4.9s6.1-0.1,10.4-2.4c4.3,9.3,15.1,12.5,23.9,8
					c0.7,0.8,1.7,1.8,3,2.9c3.8,3.2,5.3,5.4,5.3,5.4s1.6-2,1.3-5.8c2.7,2.9,5.7,5.1,9.9,5c1.6,0,3-0.4,4.1-0.9
					c-0.1,0.6-0.2,1.2-0.2,1.8c0.1,4,1.1,5.2,1.1,5.2s3.9-3.3,5.5-6.1c2.7,2,5.8,3.2,8.7,3c0.9-1.1,1.6-2.3,1.9-3.5
					c2.9,1.1,7-0.3,8.3-0.8c-0.9-1.2-1.9-2.3-2.9-3.3c4.7-1.5,8.5-5.5,9.7-9.8c2.3,2.2,5.2,3.4,5.2,3.4s-0.6-2.4-0.8-5.6
					c-0.1-1.8-1.3-4-2.3-5.6c0.5-0.4,1-0.8,1.3-1.4c0.9-1.2,1.2-2.5,1.4-3.8c5.3,1.3,10.6-2.5,10.6-2.5c-1.7-0.1-3.9-1.2-5.9-2.3
					c3.2-0.6,6.4-2.2,8.6-4.3c3.7-3.6,5.1-8.1,4.8-12.6c3.6,3.1,7.7,3.9,7.7,3.9s-2.3-3.1-4.6-7.3c-0.9-1.7-2.1-3.4-3.3-4.9
					c2.1-0.9,3.8-2.6,4.6-5.1c0.4-1.4,0.4-2.7,0.2-4c4-0.1,7.5-2.6,9.1-5.6c-1.5,0.7-4.6-0.3-7.7-1.6c0.5-0.3,1-0.5,1.4-0.8
					c5.4-4.3,4.4-10.9,1.6-16.4c2.4,0.5,5.2,1.3,7.4,2.3c0,0-1.4-3.1-4-5.5c3.2-2.6,4.1-7.5,2.4-11.9c4-0.4,6.2-4.3,5.9-8.2
					c3.5-0.4,6.9-3.1,6.9-3.1c-1.9,0.2-4.3-1.1-6.3-2.5c3-1.5,5.3-4.3,5.9-7.8c0.5-2.4,0-4.7-0.9-6.7c3.7,0.5,7.2-0.2,7.2-0.2
					s-2.8-3.3-8.3-6c-1-0.5-1.8-0.9-2.6-1.3c2.4-2,3.8-4.9,3.3-8.3c-0.2-1.3-0.8-2.5-1.6-3.5c4,0.8,8.3-0.6,8.3-0.6
					s-1.7-1.3-5.9-4.3c-1-0.7-2-1.4-3-1.9c0.3-0.7,0.6-1.4,0.7-2.1c0.2-1.8-0.1-3.5-0.9-4.8c4-0.3,6.7,0.2,8.5-1.1
					c-0.4-3.8-3.5-7.7-4.8-9.1c2.2-1.6,4-3.8,5-5.9c2.3-5,1.3-10-1.5-13.7c3-1.4,5.9-5.7,5.9-5.7s-2.7,0.6-6.1-1.1
					c-1.2-0.6-2.5-1.1-3.6-1.5c1.9-3.3,2.7-7,1-10.8c-0.9-2-2.4-3.5-4.2-4.5c2.3-2.8,2.6-6.5,1.5-9.6c1.1-1.9,1.4-3.7,1.3-5.4
					c-0.4-0.7-0.9-1.4-1.5-2c-1.6-1.6-3.5-2.5-5.4-2.8c0.4-1,0.5-1.9,0.5-2.9c0-0.1,0-0.2,0-0.4c-0.7,0.1-2.6,0.4-6.3,0.3
					c-0.9,0-1.6,0-2.2-0.1c-1-4.8-4.5-9.2-9.6-12.2c3.8-2.1,7-5.5,7-5.5s-2.5-1.6-8,0c-0.9,0.3-1.7,0.5-2.4,0.7
					c-0.3-2.7-1.4-5.2-4.8-7.9c-5.3,1.9-8.2,3.6-9.5,5.4c-3.4-1.9-13.3-0.1-16-4.8c-2.9,2.2-2.5,6.1-1.8,9.4
					c-2.4-1.8-5.1-4.2-6.6-6.5c0,0-0.8,3.9,0.5,7.7c-1.8,0.3-3.6,0.9-5.2,2c-3.3,2.4-4.9,5.3-4.9,8.7c-2.1-1.3-4.4-2.8-6-4.3
					c-0.6-0.6,0,4.8,2.5,7.8c-2.8,0.7-5.3,2.3-7,4.9c-1.1,1.7-1.8,4-2,6.3c-1.9,0.2-4.7,0.4-7.5,1c-5.1,1-6.4,2.8-6.4,2.8
					s3.3,1.8,7.5,2.1c-2.4,2.3-3.8,5.8-3,9.3c-2,0.1-4,0.7-5.7,2.1c-3.2,2.6-4.1,6.3-3.9,10.1c-1.2-0.2-2.5-0.3-3.9-0.3
					c-3.8,0-5.9-1.8-5.9-1.8s0.7,5.1,2.7,7.7c-4.2,2.1-7.3,6.1-7.5,11.6c-0.1,2.4,0.6,5.1,1.8,7.5c-1.9,0.7-6.4,2.8-8.4,6
					c1,1.9,3.7,2.7,7.1,4.8c-1.3,0.8-2.4,2.2-3,3.9c-0.3,0.7-0.3,1.5-0.3,2.2c-1,0.1-2.2,0.2-3.5,0.4c-5.1,0.8-7.2,1.2-7.2,1.2
					s3.2,3.1,7.1,4.2c-1.2,0.6-2.2,1.4-3,2.5c-2,2.7-2,6-0.8,8.9c-0.9,0-1.9,0-2.9,0c-6.2-0.1-10.2,1.6-10.2,1.6s2.8,2.2,6.4,3.4
					c-1.8,1.4-3.1,3.2-3.8,5.6c-1,3.5-0.2,7,1.8,9.7c-2.4,0.3-5.2,0.4-6.8-0.6c0,0,1.8,4,4.8,5.9c-2,3.3-1.8,7.8,1.6,10
					c-3.5,3.2-4.9,8-3.2,11.7c-3.5,0.9-6.1,3.1-6.1,3.1c2.4,0.1,5.3,0.7,7.6,1.3c-4.9,3.6-8.8,9.1-5.9,15.3c0.2,0.5,0.6,0.9,0.9,1.4
					c-3.3-0.2-6.5-0.7-7.5-2c0.1,3.4,2.1,7.2,5.6,9.1c-0.8,1-1.4,2.2-1.6,3.7c-0.4,2.5,0.4,4.9,1.8,6.6c-1.8,0.8-3.7,1.8-5.2,2.9
					c-3.9,2.8-7.4,4.5-7.4,4.5s4,1.1,8.6,0c-2.3,3.8-3,8.5-1.4,13.4c1,2.9,3.1,5.8,5.7,7.7c-2.3,0.1-4.7,0.1-6.3-0.6
					c0,0,3,5.7,8.3,7c-0.5,1.2-0.7,2.5-0.5,4c0,0.3,0.2,0.6,0.3,0.9c1-0.3,2.3-0.8,3.2-1.7C924.3,472,926.7,473.4,929.3,474z"/>
				<path class="st20" d="M929.3,474c0,0.1,0,0.1-0.1,0.2c-1.8,3.7-1.4,4.9-1.4,4.9s6.1-0.1,10.4-2.4c4.3,9.3,15.1,12.5,23.9,8
					c0.7,0.8,1.7,1.8,3,2.9c3.8,3.2,5.3,5.4,5.3,5.4s1.6-2,1.3-5.8c2.7,2.9,5.7,5.1,9.9,5c1.6,0,3-0.4,4.1-0.9
					c-0.1,0.6-0.2,1.2-0.2,1.8c0.1,4,1.1,5.2,1.1,5.2s3.9-3.3,5.5-6.1c2.7,2,5.8,3.2,8.7,3c0.9-1.1,1.6-2.3,1.9-3.5
					c2.9,1.1,7-0.3,8.3-0.8c-0.9-1.2-1.9-2.3-2.9-3.3c4.7-1.5,8.5-5.5,9.7-9.8c2.3,2.2,5.2,3.4,5.2,3.4s-0.6-2.4-0.8-5.6
					c-0.1-1.8-1.3-4-2.3-5.6c0.5-0.4,1-0.8,1.3-1.4c0.9-1.2,1.2-2.5,1.4-3.8c5.3,1.3,10.6-2.5,10.6-2.5c-1.7-0.1-3.9-1.2-5.9-2.3
					c3.2-0.6,6.4-2.2,8.6-4.3c3.7-3.6,5.1-8.1,4.8-12.6c3.6,3.1,7.7,3.9,7.7,3.9s-2.3-3.1-4.6-7.3c-0.9-1.7-2.1-3.4-3.3-4.9
					c2.1-0.9,3.8-2.6,4.6-5.1c0.4-1.4,0.4-2.7,0.2-4c4-0.1,7.5-2.6,9.1-5.6c-1.5,0.7-4.6-0.3-7.7-1.6c0.5-0.3,1-0.5,1.4-0.8
					c5.4-4.3,4.4-10.9,1.6-16.4c2.4,0.5,5.2,1.3,7.4,2.3c0,0-1.4-3.1-4-5.5c3.2-2.6,4.1-7.5,2.4-11.9c4-0.4,6.2-4.3,5.9-8.2
					c3.5-0.4,6.9-3.1,6.9-3.1c-1.9,0.2-4.3-1.1-6.3-2.5c3-1.5,5.3-4.3,5.9-7.8c0.5-2.4,0-4.7-0.9-6.7c3.7,0.5,7.2-0.2,7.2-0.2
					s-2.8-3.3-8.3-6c-1-0.5-1.8-0.9-2.6-1.3c2.4-2,3.8-4.9,3.3-8.3c-0.2-1.3-0.8-2.5-1.6-3.5c4,0.8,8.3-0.6,8.3-0.6
					s-1.7-1.3-5.9-4.3c-1-0.7-2-1.4-3-1.9c0.3-0.7,0.6-1.4,0.7-2.1c0.2-1.8-0.1-3.5-0.9-4.8c4-0.3,6.7,0.2,8.5-1.1
					c-0.4-3.8-3.5-7.7-4.8-9.1c2.2-1.6,4-3.8,5-5.9c2.3-5,1.3-10-1.5-13.7c3-1.4,5.9-5.7,5.9-5.7s-2.7,0.6-6.1-1.1
					c-1.2-0.6-2.5-1.1-3.6-1.5c1.9-3.3,2.7-7,1-10.8c-0.9-2-2.4-3.5-4.2-4.5c2.3-2.8,2.6-6.5,1.5-9.6c1.1-1.9,1.4-3.7,1.3-5.4
					c-0.4-0.7-0.9-1.4-1.5-2c-1.6-1.6-3.5-2.5-5.4-2.8c0.4-1,0.5-1.9,0.5-2.9c0-0.1,0-0.2,0-0.4c-0.7,0.1-2.6,0.4-6.3,0.3
					c-0.9,0-1.6,0-2.2-0.1c-1-4.8-4.5-9.2-9.6-12.2c3.8-2.1,7-5.5,7-5.5s-2.5-1.6-8,0c-0.9,0.3-1.7,0.5-2.4,0.7
					c-0.3-2.7-1.4-5.2-4.8-7.9c-5.3,1.9-8.2,3.6-9.5,5.4c-3.4-1.9-13.3-0.1-16-4.8c-2.9,2.2-2.5,6.1-1.8,9.4
					c-2.4-1.8-5.1-4.2-6.6-6.5c0,0-0.8,3.9,0.5,7.7c-1.8,0.3-3.6,0.9-5.2,2c-3.3,2.4-4.9,5.3-4.9,8.7c-2.1-1.3-4.4-2.8-6-4.3
					c-0.6-0.6,0,4.8,2.5,7.8c-2.8,0.7-5.3,2.3-7,4.9c-1.1,1.7-1.8,4-2,6.3c-1.9,0.2-4.7,0.4-7.5,1c-5.1,1-6.4,2.8-6.4,2.8
					s3.3,1.8,7.5,2.1c-2.4,2.3-3.8,5.8-3,9.3c-2,0.1-4,0.7-5.7,2.1c-3.2,2.6-4.1,6.3-3.9,10.1c-1.2-0.2-2.5-0.3-3.9-0.3
					c-3.8,0-5.9-1.8-5.9-1.8s0.7,5.1,2.7,7.7c-4.2,2.1-7.3,6.1-7.5,11.6c-0.1,2.4,0.6,5.1,1.8,7.5c-1.9,0.7-6.4,2.8-8.4,6
					c1,1.9,3.7,2.7,7.1,4.8c-1.3,0.8-2.4,2.2-3,3.9c-0.3,0.7-0.3,1.5-0.3,2.2c-1,0.1-2.2,0.2-3.5,0.4c-5.1,0.8-7.2,1.2-7.2,1.2
					s3.2,3.1,7.1,4.2c-1.2,0.6-2.2,1.4-3,2.5c-2,2.7-2,6-0.8,8.9c-0.9,0-1.9,0-2.9,0c-6.2-0.1-10.2,1.6-10.2,1.6s2.8,2.2,6.4,3.4
					c-1.8,1.4-3.1,3.2-3.8,5.6c-1,3.5-0.2,7,1.8,9.7c-2.4,0.3-5.2,0.4-6.8-0.6c0,0,1.8,4,4.8,5.9c-2,3.3-1.8,7.8,1.6,10
					c-3.5,3.2-4.9,8-3.2,11.7c-3.5,0.9-6.1,3.1-6.1,3.1c2.4,0.1,5.3,0.7,7.6,1.3c-4.9,3.6-8.8,9.1-5.9,15.3c0.2,0.5,0.6,0.9,0.9,1.4
					c-3.3-0.2-6.5-0.7-7.5-2c0.1,3.4,2.1,7.2,5.6,9.1c-0.8,1-1.4,2.2-1.6,3.7c-0.4,2.5,0.4,4.9,1.8,6.6c-1.8,0.8-3.7,1.8-5.2,2.9
					c-3.9,2.8-7.4,4.5-7.4,4.5s4,1.1,8.6,0c-2.3,3.8-3,8.5-1.4,13.4c1,2.9,3.1,5.8,5.7,7.7c-2.3,0.1-4.7,0.1-6.3-0.6
					c0,0,3,5.7,8.3,7c-0.5,1.2-0.7,2.5-0.5,4c0,0.3,0.2,0.6,0.3,0.9c1-0.3,2.3-0.8,3.2-1.7C924.3,472,926.7,473.4,929.3,474z"/>
			</g>
		</g>
		<path class="st11" d="M1042.8,350.8c0,0-2-0.7-3.9-1.9c-0.8-0.5-1.6-1.2-2.3-1.9c0.6-4.3-1.5-8.9-5.4-11.9
			c2.1-1.7,2.6-4.2,1.5-6.4c2.1-0.1,4.4-1.4,4.4-1.4s-0.8,0.3-2.8-0.5c-0.8-0.3-1.5-0.9-2.1-1.5c2.6-2.7,2.6-6.8,0.3-9.9
			c2.5,0.1,4.9-1.8,4.9-1.8s-1.1-0.1-3.6-0.7c2.5-0.9,4.6-4.2,4.6-4.2s-1.1-0.2-3.2,0.1c-0.6,0.1-1.2,0.2-1.8,0.5
			c0.4-2.9-0.6-6.1-2.8-6.9c1.2-0.6,2.7-3,2.5-5.5c2.3-0.3,4.8-3.2,4.8-3.2s-1.2,0.2-4.1,0.1c-0.1,0-0.2,0-0.3,0
			c0.8-1.3,1.4-3,1-4.4c0,0-0.6,0.5-1.5,1.3c0.4-2.9-1.4-5.3-3.4-7c2.5-0.7,4.6-2.9,4.6-2.9s-1.2,0.3-4.2,0.2c-0.8,0-1.5,0-2,0
			c0.7-1.8,0.6-4.2-0.7-5.9c-1.5-1.9-3.3-2.5-5.3-2.4c0,0,0,0,0,0c2.6-1.1,4.6-3.8,4.6-3.8s-1,0.3-5-0.2c-0.3,0-0.5-0.1-0.8-0.1
			c-2.6-6.1-8.1-8-10.5-7.7c1.8-1.8,2.8-6.2,0.9-7.8c-3,2.4-6.9,3.1-8.3,4.8c-0.7-2-0.1-5.2-2.8-8.1c-4.6,1.8-7,5.4-7.2,10
			c-3.1-0.3-5.5-0.1-8.4,1.8c0.6,3.4,2.5,5.3,4.6,6.3c-1.9,0.5-7.8,1.8-9.8,2c-0.5,3.6,0.9,5.7,2.6,6.9c-1.4,0.2-2.8,0.4-4,0.9
			c-2.8,1.1-4,1.9-4,1.9s2.1,1.4,4.7,1.8c-4,2.4-7.3,5.8-8.6,10.8c-0.4,1.7-0.5,3.7-0.1,5.4c-1.4-0.8-2.8-1.5-4-1.8
			c0,0,0.4,4.3,3.7,4.7c0,0,0,0,0,0c-3.6,2.5-5.5,6.7-1.8,9.7c-2,0.3-3.3,2.5-3.3,4.8c-0.7-0.5-1.4-1-1.9-1.2c0,0,0.1,1.8,0.7,3.5
			c-0.5-0.1-1.1-0.2-1.7-0.4c-2.9-0.6-3.2-0.8-3.2-0.8s1.2,3,4.3,3.7c-1.2,1.4-1.8,3.8-1,6c-2.6,0.6-4.5,3.2-3.5,5.7
			c-0.7,0-1.6,0-2.8,0.3c-2.9,0.6-3.4,1.4-3.4,1.4s3.1,1,5.5,1.1c-0.8,1.1-1.3,2.7-0.8,5.6c-1.7-0.7-3.9-1.3-5.8-0.9
			c0,0,0.1,1.9,1.8,3.3c-1.6,0.7-3.2,1.6-4.8,2c2.2,4.9,3,5.7,7.3,6.9c-3.1,1.5-6.3,4-6.3,7.3c0,1.2,1.1,1.8,1.9,2.5
			c-2.9,2.8-4.6,5.5-6.7,9.3c1.7,2.2,6.2,0.7,8.4-0.8c-2.2,3.7-4.8,8.1-3.4,12.1c-2.5,0-4.4,0.3-4.4,0.3s1.4,1.9,3.2,3.2
			c-2.1,2.5-3.9,6.9-1.3,10.7c-1.7-0.1-3.4-0.2-4.3,0c0,0,2.3,2.5,4.5,3.8c-0.9,1.7-1,4.2-0.4,6.1c-1,0.3-2.1,0.8-3.1,1.1
			c-2.3,0.9-3.8,1.5-3.8,1.5s3.6,1.1,6.5,0.7c-2.2,2.2-4.1,6.6-0.3,10.6c-1.7,0-4,0.2-5,0.7c0,0,2.1,2.6,4.2,3.5
			c-0.6,2.2-0.2,4.1,1.2,5.8c-0.8,0.6-1.8,1.2-2.9,1.6c-2.3,1-3.5,1.3-3.5,1.3s3.8,1.3,6.5,0.1c-1,3.3,0.8,7.5,4,9.1
			c1.9,0.9,5.6,1.1,8.4,0c1,2.8,3.6,6.7,7.6,7.4c0.2-1.6,0.8-4.8,1-8.3c1.3,2.5,6.3,3.6,8.2,0.8c1.7,1.9,6.4,1.7,8.7-2.4
			c0,0,0,0.1,0,0.1c0.7,2.8,1.3,4.1,1.3,4.1s3-2.7,3.5-5.1c3.6,0.7,8.4-1.5,10.8-4.8c0.3,0.5,0.7,1.1,1.2,1.7
			c2.1,2.4,4.4,2.3,4.4,2.3s-0.3-3.6-1.4-6.1c6.1-0.4,11.5-7,10.9-12.5c1.1-0.1,2.3-0.3,3.4-0.9c2.8-1.5,4.5-2.3,4.2-2.3
			c-0.2,0-2.7-0.8-5.2-1.1c3.1-1.4,6-4,5.4-11.9c3.1-2.6,8.2-4.7,8-9.6c0-1-1.6-6.5-3.3-8.4c2.9-1.7,4.6-5.4,4.9-9
			c1.3,0.2,2.7,0.3,3.4-0.1c1.6-1,2.3-1.9,2.3-1.9s-2.3-0.9-4.4-1.2c1-1.2,1.6-2.7,1.7-4.1c0.4-3.2-1-5.7-3.2-7.6
			c1.1,0,2.4-0.1,3.6-0.5c2.5-0.8,2.5-1.7,2.5-1.7s-1.7-0.8-3.9-0.8c1.7-1.4,2.9-3.4,3.1-5.2c0-0.4,0-0.8-0.1-1.2
			C1039.9,351.7,1042.8,350.8,1042.8,350.8z"/>
		<g>
			<path class="st13" d="M953.1,518c0,0-1,3.1,0.2,5.6c1.3,2.5,4.9,5.4,4.6,5.1c-0.2-0.3,0.2-3.2-1.4-5.9
				C955,520.1,953.1,518,953.1,518z"/>
			<path class="st10" d="M949.9,494.5c0,0-1,3.1,0.2,5.6c1.3,2.5,4.9,5.4,4.6,5.1c-0.2-0.3,0.2-3.2-1.4-5.9
				C951.8,496.7,949.9,494.5,949.9,494.5z"/>
			<path class="st12" d="M951.8,467.2c0,0-1,3.1,0.2,5.6c1.3,2.5,4.9,5.4,4.6,5.1c-0.2-0.3,0.2-3.2-1.4-5.9
				C953.6,469.4,951.8,467.2,951.8,467.2z"/>
			<path class="st12" d="M956.1,400.9c0,0,1.8,2.7,4.6,3.3c2.8,0.5,7.2-0.6,6.9-0.5c-0.4,0-2.4-2.1-5.5-2.5
				C958.9,400.8,956.1,400.9,956.1,400.9z"/>
			<path class="st12" d="M978.3,297.6c0,0,1.8,2.7,4.6,3.3c2.8,0.5,7.2-0.6,6.9-0.5c-0.4,0-2.4-2.1-5.5-2.5
				C981.1,297.4,978.3,297.6,978.3,297.6z"/>
			<path class="st12" d="M977.9,348.6c0,0,1.8,2.7,4.6,3.3c2.8,0.5,7.2-0.6,6.9-0.5c-0.4,0-2.4-2.1-5.5-2.5
				C980.8,348.4,977.9,348.6,977.9,348.6z"/>
			<path class="st12" d="M993.9,287.9c0,0,1.8,2.7,4.6,3.3c2.8,0.5,7.2-0.6,6.9-0.5c-0.4,0-2.4-2.1-5.5-2.5
				C996.7,287.7,993.9,287.9,993.9,287.9z"/>
			<path class="st12" d="M928.9,407.4c0,0-1,3.1,0.2,5.6c1.3,2.5,4.9,5.4,4.6,5.1c-0.2-0.3,0.2-3.2-1.4-5.9
				C930.8,409.6,928.9,407.4,928.9,407.4z"/>
			<path class="st12" d="M923.1,422.6c0,0,2,2.6,4.8,3c2.8,0.4,7.2-0.9,6.8-0.9c-0.4,0-2.5-2-5.6-2.2
				C925.9,422.2,923.1,422.6,923.1,422.6z"/>
			<path class="st12" d="M930.4,378.8c0,0,2,2.6,4.8,3c2.8,0.4,7.2-0.9,6.8-0.9c-0.4,0-2.5-2-5.6-2.2
				C933.3,378.4,930.4,378.8,930.4,378.8z"/>
			<path class="st13" d="M1004.5,524.4c0,0-2,1.7-4.3,4.1s-5.4,6-5.4,6s4-0.2,6.7-3C1004.2,528.6,1004.5,524.4,1004.5,524.4z"/>
			<path class="st10" d="M983.1,499.8c0,0-2,1.7-4.3,4.1c-2.3,2.4-5.4,6-5.4,6s4-0.2,6.7-3C982.9,504.1,983.1,499.8,983.1,499.8z"/>
			<path class="st12" d="M979.5,467.1c0,0-2,1.7-4.3,4.1c-2.3,2.4-5.4,6-5.4,6s4-0.2,6.7-3C979.2,471.3,979.5,467.1,979.5,467.1z"/>
			<path class="st12" d="M1000.6,444.2c0,0-2,1.7-4.3,4.1c-2.3,2.4-5.4,6-5.4,6s4-0.2,6.7-3C1000.3,448.5,1000.6,444.2,1000.6,444.2
				z"/>
			<path class="st12" d="M1034.7,441.5c0,0-2,1.7-4.3,4.1c-2.3,2.4-5.4,6-5.4,6s4-0.2,6.7-3C1034.4,445.8,1034.7,441.5,1034.7,441.5
				z"/>
			<path class="st12" d="M934.1,436.7c0,0-2,1.7-4.3,4.1c-2.3,2.4-5.4,6-5.4,6s4-0.2,6.7-3C933.9,441,934.1,436.7,934.1,436.7z"/>
			<path class="st10" d="M1085.8,334.9c0,0-2,1.7-4.3,4.1c-2.3,2.4-5.4,6-5.4,6s4-0.2,6.7-3C1085.5,339.2,1085.8,334.9,1085.8,334.9
				z"/>
			<path class="st13" d="M1113.3,387.5c0,0-2,1.7-4.3,4.1c-2.3,2.4-5.4,6-5.4,6s4-0.2,6.7-3C1113,391.8,1113.3,387.5,1113.3,387.5z"
				/>
			<path class="st13" d="M1065.3,515.5c0,0-2,1.7-4.3,4.1c-2.3,2.4-5.4,6-5.4,6s4-0.2,6.7-3C1065,519.8,1065.3,515.5,1065.3,515.5z"
				/>
			<path class="st13" d="M1090,508.6c0,0,2,1.8,4.7,3.7c2.7,1.9,6.7,4.5,6.7,4.5s-0.8-3.9-3.9-6.2
				C1094.2,508.3,1090,508.6,1090,508.6z"/>
			<path class="st13" d="M1079.2,522.1c0,0-2,1.7-4.3,4.1c-2.3,2.4-5.4,6-5.4,6s4-0.2,6.7-3C1078.9,526.4,1079.2,522.1,1079.2,522.1
				z"/>
			<path class="st13" d="M1089.7,483.2c0,0-2,1.7-4.3,4.1c-2.3,2.4-5.4,6-5.4,6s4-0.2,6.7-3C1089.4,487.5,1089.7,483.2,1089.7,483.2
				z"/>
			<path class="st10" d="M1047.8,457.1c0,0-2,1.7-4.3,4.1c-2.3,2.4-5.4,6-5.4,6s4-0.2,6.7-3C1047.6,461.4,1047.8,457.1,1047.8,457.1
				z"/>
			<path class="st10" d="M1081.3,321.2c0,0-2,1.7-4.3,4.1c-2.3,2.4-5.4,6-5.4,6s4-0.2,6.7-3C1081.1,325.5,1081.3,321.2,1081.3,321.2
				z"/>
			<path class="st12" d="M1059.2,316.6c0,0-2,1.7-4.3,4.1c-2.3,2.4-5.4,6-5.4,6s4-0.2,6.7-3C1058.9,320.8,1059.2,316.6,1059.2,316.6
				z"/>
			<path class="st12" d="M1063.4,288.1c0,0-2,1.7-4.3,4.1c-2.3,2.4-5.4,6-5.4,6s4-0.2,6.7-3C1063.2,292.4,1063.4,288.1,1063.4,288.1
				z"/>
			<path class="st12" d="M1020.5,326.8c0,0-2,1.7-4.3,4.1c-2.3,2.4-5.4,6-5.4,6s4-0.2,6.7-3C1020.2,331.1,1020.5,326.8,1020.5,326.8
				z"/>
			<path class="st12" d="M1027.4,242.8c0,0-2,1.7-4.3,4.1c-2.3,2.4-5.4,6-5.4,6s4-0.2,6.7-3C1027.1,247.1,1027.4,242.8,1027.4,242.8
				z"/>
			<path class="st10" d="M1067.3,401.4c0,0-2,1.7-4.3,4.1c-2.3,2.4-5.4,6-5.4,6s4-0.2,6.7-3C1067,405.7,1067.3,401.4,1067.3,401.4z"
				/>
			<path class="st12" d="M1051.2,382.7c0,0-2.7-0.2-6-0.1c-3.3,0.1-8,0.5-8,0.5s3,2.6,6.9,2.5S1051.2,382.7,1051.2,382.7z"/>
			<path class="st12" d="M1016,382.5c0,0-2.7-0.2-6-0.1c-3.3,0.1-8,0.5-8,0.5s3,2.6,6.9,2.5C1012.8,385.4,1016,382.5,1016,382.5z"/>
			<path class="st12" d="M1007.9,447.8c0,0,0.8,2.5,2,5.6c1.2,3.1,3.3,7.3,3.3,7.3s1.4-3.7,0-7.4
				C1011.7,449.8,1007.9,447.8,1007.9,447.8z"/>
			<path class="st10" d="M1081.1,379.4c0,0-2.7,0.1-5.9,0.4c-3.3,0.4-7.9,1.2-7.9,1.2s3.2,2.3,7.1,1.9S1081.1,379.4,1081.1,379.4z"
				/>
			<path class="st13" d="M1113.2,422.6c0,0-2,1.7-4.3,4.1c-2.3,2.4-5.4,6-5.4,6s4-0.2,6.7-3C1112.9,426.9,1113.2,422.6,1113.2,422.6
				z"/>
			<path class="st13" d="M1083.2,515.4c0,0,1.1,2.4,2.7,5.3c1.6,2.9,4.3,6.8,4.3,6.8s0.9-3.9-1.1-7.3
				C1087.3,516.9,1083.2,515.4,1083.2,515.4z"/>
			<path class="st13" d="M978.8,525.1c0,0-2.6,0.2-5.9,0.9c-3.3,0.6-7.8,1.8-7.8,1.8s3.4,2.1,7.2,1.4
				C976.1,528.5,978.8,525.1,978.8,525.1z"/>
			<path class="st13" d="M1112.7,384.1c0,0-2.2-1.5-5.2-3c-2.9-1.5-7.2-3.5-7.2-3.5s1.4,3.8,4.8,5.6
				C1108.5,385,1112.7,384.1,1112.7,384.1z"/>
			<path class="st13" d="M1108.6,468.2c0,0-2.6,0.2-5.9,0.9c-3.3,0.6-7.8,1.8-7.8,1.8s3.4,2.1,7.2,1.4
				C1105.9,471.6,1108.6,468.2,1108.6,468.2z"/>
			<path class="st10" d="M1065.2,441c0,0-2.6,0.2-5.9,0.9c-3.3,0.6-7.8,1.8-7.8,1.8s3.4,2.1,7.2,1.4
				C1062.6,444.3,1065.2,441,1065.2,441z"/>
			<path class="st10" d="M1091.2,432c0,0-2.6,0.2-5.9,0.9c-3.3,0.6-7.8,1.8-7.8,1.8s3.4,2.1,7.2,1.4
				C1088.5,435.3,1091.2,432,1091.2,432z"/>
			<path class="st10" d="M1073.8,476.4c0,0-2.6,0.2-5.9,0.9c-3.3,0.6-7.8,1.8-7.8,1.8s3.4,2.1,7.2,1.4
				C1071.2,479.7,1073.8,476.4,1073.8,476.4z"/>
			<path class="st10" d="M1077.3,408.4c0,0,2,1.8,4.6,3.8c2.6,2,6.6,4.6,6.6,4.6s-0.7-3.9-3.8-6.3
				C1081.6,408.2,1077.3,408.4,1077.3,408.4z"/>
			<path class="st13" d="M1077.3,504.3c0,0-2.6,0.2-5.9,0.9c-3.3,0.6-7.8,1.8-7.8,1.8s3.4,2.1,7.2,1.4
				C1074.6,507.6,1077.3,504.3,1077.3,504.3z"/>
			<path class="st10" d="M1039.4,473.9c0,0-2.6,0.2-5.9,0.9c-3.3,0.6-7.8,1.8-7.8,1.8s3.4,2.1,7.2,1.4
				C1036.7,477.3,1039.4,473.9,1039.4,473.9z"/>
			<path class="st12" d="M1020.8,442.4c0,0-2.1-1.6-4.9-3.3c-2.8-1.7-7-4-7-4s1.1,3.8,4.4,5.9C1016.6,443,1020.8,442.4,1020.8,442.4
				z"/>
			<path class="st12" d="M1061.1,353.8c0,0-2.1-1.6-4.9-3.3c-2.8-1.7-7-4-7-4s1.1,3.8,4.4,5.9
				C1056.8,354.5,1061.1,353.8,1061.1,353.8z"/>
			<path class="st12" d="M984.6,431.4c0,0,0.7-2.6,1.4-5.8c0.6-3.3,1.2-8,1.2-8s-3.2,2.4-3.9,6.2
				C982.5,427.7,984.6,431.4,984.6,431.4z"/>
			<path class="st12" d="M1047.2,398.1c0,0-2.1-1.6-4.9-3.3c-2.8-1.7-7-4-7-4s1.1,3.8,4.4,5.9
				C1042.9,398.8,1047.2,398.1,1047.2,398.1z"/>
			<path class="st12" d="M1012.3,395.7c0,0-2.1-1.6-4.9-3.3c-2.8-1.7-7-4-7-4s1.1,3.8,4.4,5.9
				C1008.1,396.3,1012.3,395.7,1012.3,395.7z"/>
			<path class="st12" d="M1001.3,277.6c0,0,2.1-1.7,4.5-4c2.4-2.3,5.6-5.8,5.6-5.8s-4,0.1-6.8,2.8
				C1001.7,273.4,1001.3,277.6,1001.3,277.6z"/>
			<path class="st10" d="M1085.6,347.7c0,0-2.6,0.2-5.9,0.9c-3.3,0.6-7.8,1.8-7.8,1.8s3.4,2.1,7.2,1.4
				C1082.9,351,1085.6,347.7,1085.6,347.7z"/>
			<path class="st12" d="M1056.6,334.4c0,0-2.6,0.2-5.9,0.9c-3.3,0.6-7.8,1.8-7.8,1.8s3.4,2.1,7.2,1.4
				C1053.9,337.7,1056.6,334.4,1056.6,334.4z"/>
			<path class="st12" d="M1019.2,344.5c0,0-2.6,0.2-5.9,0.9c-3.3,0.6-7.8,1.8-7.8,1.8s3.4,2.1,7.2,1.4
				C1016.6,347.8,1019.2,344.5,1019.2,344.5z"/>
			<path class="st12" d="M1032.8,373.6c0,0-2.6,0.2-5.9,0.9c-3.3,0.6-7.8,1.8-7.8,1.8s3.4,2.1,7.2,1.4
				C1030.1,377,1032.8,373.6,1032.8,373.6z"/>
			<path class="st12" d="M1020.5,310c0,0-2.6,0.2-5.9,0.9c-3.3,0.6-7.8,1.8-7.8,1.8s3.4,2.1,7.2,1.4
				C1017.8,313.3,1020.5,310,1020.5,310z"/>
			<path class="st12" d="M1024.3,408.6c0,0-2.4-1.1-5.5-2.3c-3.1-1.1-7.6-2.5-7.6-2.5s1.9,3.5,5.5,4.9
				C1020.3,410.1,1024.3,408.6,1024.3,408.6z"/>
			<path class="st12" d="M989.3,398.8c0,0-2.6,0.2-5.9,0.9c-3.3,0.6-7.8,1.8-7.8,1.8s3.4,2.1,7.2,1.4
				C986.6,402.2,989.3,398.8,989.3,398.8z"/>
			<path class="st12" d="M998.6,421.8c0,0-0.9,2.5-1.8,5.7c-0.9,3.2-1.9,7.8-1.9,7.8s3.4-2.1,4.4-5.9
				C1000.4,425.7,998.6,421.8,998.6,421.8z"/>
			<path class="st12" d="M972.5,429.7c0,0-2.6,0.2-5.9,0.9c-3.3,0.6-7.8,1.8-7.8,1.8s3.4,2.1,7.2,1.4
				C969.8,433.1,972.5,429.7,972.5,429.7z"/>
			<path class="st12" d="M1057,271.3c0,0-2.6,0.2-5.9,0.9c-3.3,0.6-7.8,1.8-7.8,1.8s3.4,2.1,7.2,1.4
				C1054.3,274.7,1057,271.3,1057,271.3z"/>
			<path class="st10" d="M1018.5,496.9c0,0-2.6,0.2-5.9,0.9c-3.3,0.6-7.8,1.8-7.8,1.8s3.4,2.1,7.2,1.4
				C1015.9,500.2,1018.5,496.9,1018.5,496.9z"/>
			<path class="st12" d="M957.7,450.2c0,0-2.6,0.2-5.9,0.9c-3.3,0.6-7.8,1.8-7.8,1.8s3.4,2.1,7.2,1.4
				C955.1,453.6,957.7,450.2,957.7,450.2z"/>
			<path class="st12" d="M985.3,310.9c0,0-2.6,0.2-5.9,0.9c-3.3,0.6-7.8,1.8-7.8,1.8s3.4,2.1,7.2,1.4
				C982.7,314.2,985.3,310.9,985.3,310.9z"/>
			<path class="st12" d="M945.6,421.1c0,0,1.1-2.4,2.1-5.6c1-3.1,2.2-7.7,2.2-7.7s-3.5,2-4.7,5.7C944,417.1,945.6,421.1,945.6,421.1
				z"/>
			<path class="st12" d="M992.4,359.6c0,0-2.1,1.6-4.6,3.8c-2.5,2.2-5.8,5.6-5.8,5.6s4,0,6.9-2.5
				C991.8,363.9,992.4,359.6,992.4,359.6z"/>
			<path class="st12" d="M932.5,467.9c0,0,0.5-2.6,0.9-5.9c0.3-3.3,0.5-8,0.5-8s-3,2.7-3.4,6.5C930.1,464.4,932.5,467.9,932.5,467.9
				z"/>
			<path class="st13" d="M1115.5,439.6c0,0-2.6,0.2-5.9,0.9c-3.3,0.6-7.8,1.8-7.8,1.8s3.4,2.1,7.2,1.4
				C1112.9,443,1115.5,439.6,1115.5,439.6z"/>
			<path class="st13" d="M1112.9,488.4c0,0-2.6,0.2-5.9,0.9c-3.3,0.6-7.8,1.8-7.8,1.8s3.4,2.1,7.2,1.4
				C1110.2,491.7,1112.9,488.4,1112.9,488.4z"/>
			<path class="st13" d="M1008.6,534.1c0,0,3.2,3.4,3.9,5.5c0.7,2,0.1,5.4,0.1,5.4s-3.5-1.6-3.8-4.2
				C1008.5,538,1008.6,534.1,1008.6,534.1z"/>
			<path class="st10" d="M996.6,502.4c0,0,4.4,1.5,6,3c1.6,1.5,2.7,4.6,2.7,4.6s-3.9,0.3-5.4-1.9
				C998.4,505.9,996.6,502.4,996.6,502.4z"/>
			<path class="st12" d="M982.3,457.7c0,0,4.4,1.5,6,3c1.6,1.5,2.7,4.6,2.7,4.6s-3.9,0.3-5.4-1.9
				C984.1,461.2,982.3,457.7,982.3,457.7z"/>
			<path class="st12" d="M968.6,412c0,0-2.7,3.8-4.6,4.9c-1.9,1.1-5.2,1.2-5.2,1.2s0.8-3.8,3.4-4.6C964.8,412.7,968.6,412,968.6,412
				z"/>
			<path class="st12" d="M974.3,354.9c0,0-2.7,3.8-4.6,4.9c-1.9,1.1-5.2,1.2-5.2,1.2s0.8-3.8,3.4-4.6
				C970.4,355.6,974.3,354.9,974.3,354.9z"/>
			<path class="st12" d="M954.5,383.6c0,0-2.7,3.8-4.6,4.9c-1.9,1.1-5.2,1.2-5.2,1.2s0.8-3.8,3.4-4.6
				C950.6,384.2,954.5,383.6,954.5,383.6z"/>
			<path class="st12" d="M1045.2,256.4c0,0-0.3,4.7-1.3,6.6c-1,1.9-3.8,3.8-3.8,3.8s-1.3-3.6,0.4-5.7
				C1042.3,259,1045.2,256.4,1045.2,256.4z"/>
			<path class="st12" d="M1018.8,433.8c0,0,4.2-2,6.4-2c2.2,0,5.1,1.5,5.1,1.5s-2.6,2.9-5.2,2.3
				C1022.5,435.1,1018.8,433.8,1018.8,433.8z"/>
			<path class="st12" d="M1004.5,474.7c0,0,4.2-2,6.4-2c2.2,0,5.1,1.5,5.1,1.5s-2.6,2.9-5.2,2.3
				C1008.2,476,1004.5,474.7,1004.5,474.7z"/>
			<path class="st13" d="M1042.8,528.2c0,0,3.2,3.4,3.9,5.5c0.7,2,0.1,5.4,0.1,5.4s-3.5-1.6-3.8-4.2
				C1042.7,532.2,1042.8,528.2,1042.8,528.2z"/>
			<path class="st13" d="M1020.6,519.4c0,0,2.4,1.1,5.5,2.2c3.1,1.1,7.7,2.4,7.7,2.4s-1.9-3.5-5.5-4.8
				C1024.6,517.9,1020.6,519.4,1020.6,519.4z"/>
			<path class="st13" d="M1097.1,496.7c0,0,2.4,1.1,5.5,2.2c3.1,1.1,7.7,2.4,7.7,2.4s-1.9-3.5-5.5-4.8
				C1101.1,495.2,1097.1,496.7,1097.1,496.7z"/>
			<path class="st13" d="M976.3,533.1c0,0-0.4,4.5,1.9,7.6c2.2,3.1,2.2,3.1,2.2,3.1s1.4-2.3,4.7-4.8c3.3-2.5,3.4-6,3.4-6
				s-5.3,4.5-7.4,6.2C979.2,536.3,978.6,534.2,976.3,533.1z"/>
			<path class="st10" d="M936.3,484.1c0,0-3.7,2.6-4.7,6.3c-1,3.7-1,3.7-1,3.7s2.7-0.4,6.7,0.5c4,0.9,6.8-1.2,6.8-1.2
				s-6.8-1.2-9.5-1.7C935.7,488.4,936.9,486.5,936.3,484.1z"/>
			<path class="st12" d="M973.8,332.7c0,0-4.5-0.3-7.6,1.9c-3.1,2.2-3.1,2.2-3.1,2.2s2.3,1.4,4.8,4.7c2.5,3.3,6,3.4,6,3.4
				s-4.5-5.2-6.3-7.4C970.6,335.6,972.7,334.9,973.8,332.7z"/>
			<path class="st13" d="M1104.2,413.6c0,0,4.4-0.8,6.9-3.7c2.5-3,2.5-3,2.5-3s-2.6-0.8-5.9-3.3s-6.7-1.8-6.7-1.8s5.7,4,7.9,5.6
				C1106.5,410,1104.7,411.1,1104.2,413.6z"/>
			<path class="st13" d="M1099.5,370.7c0,0,4.4-0.8,6.9-3.7c2.5-3,2.5-3,2.5-3s-2.6-0.8-5.9-3.3c-3.3-2.5-6.7-1.8-6.7-1.8
				s5.7,4,7.9,5.6C1101.9,367.1,1100.1,368.2,1099.5,370.7z"/>
			<path class="st13" d="M1100.8,463.8c0,0,4.3-1.4,6.3-4.7c2-3.3,2-3.3,2-3.3s-2.7-0.4-6.3-2.4c-3.6-2-6.8-0.8-6.8-0.8
				s6.2,3.1,8.7,4.4C1102.6,459.8,1101,461.2,1100.8,463.8z"/>
			<path class="st10" d="M1073.4,431.3c0,0,4.3-1.4,6.3-4.7c2-3.3,2-3.3,2-3.3s-2.7-0.4-6.3-2.4c-3.6-2-6.8-0.8-6.8-0.8
				s6.2,3.1,8.7,4.4C1075.2,427.4,1073.6,428.8,1073.4,431.3z"/>
			<path class="st12" d="M1047.7,373c0,0,4.3-1.4,6.3-4.7c2-3.3,2-3.3,2-3.3s-2.7-0.4-6.3-2.4c-3.6-2-6.8-0.8-6.8-0.8
				s6.2,3.1,8.7,4.4C1049.5,369.1,1047.9,370.5,1047.7,373z"/>
			<path class="st12" d="M1042.5,294.2c0,0,4.3-1.4,6.3-4.7c2-3.3,2-3.3,2-3.3s-2.7-0.4-6.3-2.4c-3.6-2-6.8-0.8-6.8-0.8
				s6.2,3.1,8.7,4.4C1044.3,290.3,1042.6,291.7,1042.5,294.2z"/>
			<path class="st12" d="M961.8,298.1c0,0-3.6-2.7-7.5-2.4c-3.8,0.3-3.8,0.3-3.8,0.3s1.2,2.4,1.6,6.5c0.4,4.1,3.3,6.1,3.3,6.1
				s-1-6.8-1.4-9.6C957.6,298.9,959.7,299.4,961.8,298.1z"/>
			<path class="st12" d="M986.2,318.6c0,0-0.5,4.5,1.6,7.7c2.1,3.2,2.1,3.2,2.1,3.2s1.5-2.3,4.9-4.7c3.4-2.4,3.6-5.9,3.6-5.9
				s-5.4,4.3-7.6,6C989,321.9,988.4,319.8,986.2,318.6z"/>
			<path class="st12" d="M1006.3,370.3c0,0,4.3-1.4,6.3-4.7c2-3.3,2-3.3,2-3.3s-2.7-0.4-6.3-2.4c-3.6-2-6.8-0.8-6.8-0.8
				s6.2,3.1,8.7,4.4C1008.1,366.4,1006.5,367.8,1006.3,370.3z"/>
			<path class="st10" d="M1080,376.2c0,0,4.3-1.4,6.3-4.7c2-3.3,2-3.3,2-3.3s-2.7-0.4-6.3-2.4c-3.6-2-6.8-0.8-6.8-0.8
				s6.2,3.1,8.7,4.4C1081.7,372.2,1080.1,373.7,1080,376.2z"/>
			<path class="st10" d="M1052.3,464.4c0,0,1.5,4.2,4.9,6.1c3.3,1.9,3.3,1.9,3.3,1.9s0.3-2.7,2.2-6.3c1.9-3.7,0.6-6.9,0.6-6.9
				s-2.9,6.3-4.2,8.8C1056.3,466.1,1054.9,464.5,1052.3,464.4z"/>
			<path class="st12" d="M987,473.7c0,0,1.5,4.2,4.9,6.1c3.3,1.9,3.3,1.9,3.3,1.9s0.3-2.7,2.3-6.3c1.9-3.7,0.6-6.9,0.6-6.9
				s-2.9,6.3-4.2,8.8C991,475.4,989.5,473.8,987,473.7z"/>
			<path class="st12" d="M1027.4,416.8c0,0,1.5,4.2,4.9,6.1c3.3,1.9,3.3,1.9,3.3,1.9s0.3-2.7,2.3-6.3c1.9-3.7,0.6-6.9,0.6-6.9
				s-2.9,6.3-4.2,8.8C1031.4,418.5,1030,416.9,1027.4,416.8z"/>
			<path class="st12" d="M1010.7,296.2c0,0,4.5-0.5,7.1-3.3c2.6-2.8,2.6-2.8,2.6-2.8s-2.5-0.9-5.6-3.7c-3.1-2.8-6.5-2.2-6.5-2.2
				s5.4,4.3,7.5,6.1C1013.3,292.8,1011.4,293.8,1010.7,296.2z"/>
			<path class="st12" d="M932.6,385.7c0,0-4.2,1.6-6,5c-1.8,3.4-1.8,3.4-1.8,3.4s2.7,0.2,6.4,2.1c3.7,1.9,6.9,0.5,6.9,0.5
				s-6.3-2.8-8.9-4C931,389.8,932.5,388.3,932.6,385.7z"/>
			<path class="st12" d="M973.3,373.6c0,0-3.1,3.3-3.3,7.1c-0.2,3.8-0.2,3.8-0.2,3.8s2.5-0.9,6.7-0.8c4.2,0.1,6.4-2.5,6.4-2.5
				s-6.9,0.2-9.7,0.2C973.5,378,974.3,376,973.3,373.6z"/>
			<path class="st12" d="M993.2,412.8c0,0,2.4,3.8,6,5c3.7,1.2,3.7,1.2,3.7,1.2s-0.3-2.7,0.9-6.7c1.1-4-0.8-6.8-0.8-6.8
				s-1.5,6.7-2.2,9.4C997.5,413.7,995.7,412.4,993.2,412.8z"/>
			<path class="st13" d="M1033.4,531.4c0,0-3.4,2.6-3.1,5.5c0.2,2.9,0.4,5.8,0.4,5.8s1.1-1.6,2.4-4.2
				C1034.3,535.9,1033.4,531.4,1033.4,531.4z"/>
			<path class="st10" d="M1040.1,485.2c0,0-3.4,2.6-3.1,5.5c0.2,2.9,0.4,5.8,0.4,5.8s1.1-1.6,2.4-4.2
				C1041.1,489.7,1040.1,485.2,1040.1,485.2z"/>
			<path class="st10" d="M970.8,493.8c0,0-3.4,2.6-3.1,5.5c0.2,2.9,0.4,5.8,0.4,5.8s1.1-1.6,2.4-4.2
				C971.8,498.3,970.8,493.8,970.8,493.8z"/>
			<path class="st12" d="M968,453c0,0-3.4,2.6-3.1,5.5c0.2,2.9,0.4,5.8,0.4,5.8s1.1-1.6,2.4-4.2C968.9,457.5,968,453,968,453z"/>
			<path class="st12" d="M1050.4,305.6c0,0-3.4,2.6-3.1,5.5c0.2,2.9,0.4,5.8,0.4,5.8s1.1-1.6,2.4-4.2
				C1051.4,310.1,1050.4,305.6,1050.4,305.6z"/>
			<path class="st12" d="M1003.6,332.2c0,0-3.4,2.6-3.1,5.5c0.2,2.9,0.4,5.8,0.4,5.8s1.1-1.6,2.4-4.2
				C1004.6,336.7,1003.6,332.2,1003.6,332.2z"/>
			<path class="st12" d="M1029.5,316.7c0,0-4.1-1.1-6.2,0.9c-2.1,2-4.3,3.9-4.3,3.9s2-0.1,4.8-0.7
				C1026.5,320.2,1029.5,316.7,1029.5,316.7z"/>
			<path class="st12" d="M1025.8,357.2c0,0-3.4,2.6-3.1,5.5c0.2,2.9,0.4,5.8,0.4,5.8s1.1-1.6,2.4-4.2
				C1026.7,361.7,1025.8,357.2,1025.8,357.2z"/>
			<path class="st12" d="M992.7,378.3c0,0-3.4,2.6-3.1,5.5c0.2,2.9,0.4,5.8,0.4,5.8s1.1-1.6,2.4-4.2
				C993.6,382.9,992.7,378.3,992.7,378.3z"/>
			<path class="st12" d="M988.9,271.2c0,0-2.2,3.6-1,6.2c1.2,2.6,2.4,5.3,2.4,5.3s0.5-1.9,0.8-4.8
				C991.4,275.1,988.9,271.2,988.9,271.2z"/>
			<path class="st12" d="M995.1,296.9c0,0-2.2,3.6-1,6.2c1.2,2.6,2.4,5.3,2.4,5.3s0.5-1.9,0.8-4.8
				C997.6,300.7,995.1,296.9,995.1,296.9z"/>
			<path class="st12" d="M1030,294.1c0,0-4.2,0.3-5.6,2.8c-1.4,2.5-2.8,5.1-2.8,5.1s1.8-0.7,4.3-2.2
				C1028.3,298.4,1030,294.1,1030,294.1z"/>
			<path class="st12" d="M934.2,361.7c0,0,0.2,4.2,2.8,5.7c2.5,1.4,5,2.9,5,2.9s-0.7-1.8-2.1-4.3
				C938.4,363.5,934.2,361.7,934.2,361.7z"/>
			<path class="st12" d="M946,316.5c0,0,0.2,4.2,2.8,5.7c2.5,1.4,5,2.9,5,2.9s-0.7-1.8-2.1-4.3C950.3,318.2,946,316.5,946,316.5z"/>
			<path class="st12" d="M935.4,349.5c0,0,3.3,2.7,6.1,1.8c2.7-0.9,5.5-1.8,5.5-1.8s-1.8-0.7-4.6-1.3
				C939.6,347.5,935.4,349.5,935.4,349.5z"/>
			<path class="st12" d="M1036.5,237.7c0,0-3.4,2.6-3.1,5.5c0.2,2.9,0.4,5.8,0.4,5.8s1.1-1.6,2.4-4.2
				C1037.4,242.3,1036.5,237.7,1036.5,237.7z"/>
			<path class="st12" d="M1015.1,235.8c0,0-3.4,2.6-3.1,5.5c0.2,2.9,0.4,5.8,0.4,5.8s1.1-1.6,2.4-4.2
				C1016,240.3,1015.1,235.8,1015.1,235.8z"/>
			<path class="st13" d="M1061.7,527.5c0,0-1.9,3.8-0.4,6.3c1.5,2.5,2.9,5,2.9,5s0.3-1.9,0.3-4.8
				C1064.6,531.2,1061.7,527.5,1061.7,527.5z"/>
			<path class="st10" d="M1046.5,480.6c0,0,3.2,3.4,3.9,5.5c0.7,2,0.1,5.4,0.1,5.4s-3.5-1.6-3.8-4.2
				C1046.4,484.5,1046.5,480.6,1046.5,480.6z"/>
			<path class="st10" d="M1077.8,387.3c0,0,3.2,3.4,3.9,5.5c0.7,2,0.1,5.4,0.1,5.4s-3.5-1.6-3.8-4.2
				C1077.7,391.2,1077.8,387.3,1077.8,387.3z"/>
			<path class="st10" d="M1059.2,420.6c0,0,3.2,3.4,3.9,5.5c0.7,2,0.1,5.4,0.1,5.4s-3.5-1.6-3.8-4.2
				C1059.1,424.6,1059.2,420.6,1059.2,420.6z"/>
			<path class="st10" d="M1077.7,445.2c0,0,3.2,3.4,3.9,5.5c0.7,2,0.1,5.4,0.1,5.4s-3.5-1.6-3.8-4.2
				C1077.6,449.1,1077.7,445.2,1077.7,445.2z"/>
			<path class="st10" d="M1027.2,495.3c0,0,3.2,3.4,3.9,5.5c0.7,2,0.1,5.4,0.1,5.4s-3.5-1.6-3.8-4.2
				C1027.1,499.2,1027.2,495.3,1027.2,495.3z"/>
			<path class="st13" d="M1020.9,531.7c0,0-2.8,1.7-3.4,4.5c-0.6,2.8,0.3,7.2,0.3,6.9s2.2-2.3,2.7-5.4
				C1021,534.5,1020.9,531.7,1020.9,531.7z"/>
			<path class="st13" d="M1091.2,474.1c0,0,1.3,3,4,4c2.6,1,7.2,0.7,6.9,0.7c-0.4,0-2-2.5-5-3.4
				C1094,474.4,1091.2,474.1,1091.2,474.1z"/>
			<path class="st10" d="M1061.9,451.1c0,0,1.3,3,4,4c2.6,1,7.2,0.7,6.9,0.7c-0.4,0-2-2.5-5-3.4
				C1064.8,451.4,1061.9,451.1,1061.9,451.1z"/>
		</g>
	</g>
	<g>
		<path class="st10" d="M966.8,538.7c-0.1-3-1.4-5.9-1.4-5.9l3.6,1.2c0,0,0-3.2-0.9-4.8c-1.2-2.2-3.2-2.4-3.2-2.4s3.9-2.3,5.2-5
			c-2-1.6-4-1.5-4.9-1.6c0-1,0-2-0.1-2.9c-0.3-3.2-0.9-4.9-2.3-7.1c3.2,1.3,5.4,0.8,5.4,0.8s-2.3-2.1-3.6-3.7
			c-1.3-1.6-2.3-3.7-2.3-3.7s2.5-0.4,3.8-1.7c1.4-1.4,2-3.6,2-3.6s-1.4,0.8-3.8,0.7c-1.7-0.1-4.6-1-4.6-1s0.3-4-0.8-6
			c-1.7-3-4.4-4.2-4.4-4.2s3-0.3,3.7-0.9c1.2-0.9,2.5-2.4,2.5-2.4s-3.1,0.1-5.1-0.6c-0.5-0.2-1.1-0.4-1.7-0.6
			c-1.3,1.2-3.6,1.6-3.6,1.6s1,2.1,2.3,3.7c1.3,1.6,3.6,3.7,3.6,3.7s-2.2,0.4-5.4-0.8c1.5,2.2,2,3.9,2.3,7.1
			c0.1,0.9,0.1,1.9,0.1,2.9c0.9,0.1,2.9,0.1,4.9,1.6c-1.3,2.7-5.2,5-5.2,5s2,0.3,3.2,2.4c0.9,1.6,0.9,4.8,0.9,4.8l-3.6-1.2
			c0,0,1.3,2.9,1.4,5.9c0.1,3.3,3.3,4.7,3.3,4.7s-1.6,1.5-3,1.9c-1.1,0.3-3.5,0.5-3.5,0.5s1,1,2.3,4c1.1,2.4-0.7,4.6-2,6
			c-1,1.1-2.3,2-2.3,2s0.8,0.9,1.5,4.8c0.7,3.9,3.6,6,3.6,6s-2.2,1-5.2,0.5c-1.7-0.3-3.6-1.5-3.6-1.5s1,2.3-0.4,4.4
			c-1.5,2-3.3,2.2-3.3,2.2s0.3,2.8,1,4.4c0.6,1.4,2.8,2.9,2.8,2.9s-1.7,1-3.9,0.7c-1.3-0.2-3.3-1.3-3.3-1.3s0.5,2.5,0.7,4.4
			c0.2,1.6-0.4,4.4-1.3,5.5c-2.3-1.4-2.8-2.2-3.5-4.2c0,2-3.4,6.7-5.4,8.1c-1.3,0.9-6.3,2.2-6.3,2.2s0.2,4.3-1.1,6.2
			c-1.3,1.9-2,3.3-2,3.3s-1.9-1.3-3.1-4.4c-1,3-2.4,4-4.2,5.1c-2.1,1.2-5.8,0.5-5.8,0.5s-0.2,3-4.8,3.7c-2,0.3-4.2-1.1-4.2-1.1
			s-0.7,2.9-3.7,3.5c-3.6,0.8-5.3-1.1-5.3-1.1s-1.4,2.4-3.4,3.9c-1.4-1.1-2-2.8-2-2.8s-1.7,2.7-5.8,2.8c-1.6,0-5.2-0.8-7.4-1.3
			c-1.3,2.1-4,4.2-4,4.2s-1.8-2-2.7-3.4c-1.2,0.2-3.3,0.5-4.9,0.5c-4.1-0.1-5.8-2.8-5.8-2.8s-0.6,1.8-2,2.8
			c-2.1-1.5-3.4-3.9-3.4-3.9s-1.7,1.8-5.3,1.1c-3-0.6-3.7-3.5-3.7-3.5s-2.2,1.3-4.2,1.1c-4.6-0.7-4.8-3.7-4.8-3.7s-3.6,0.7-5.8-0.5
			c-1.8-1-3.2-2.1-4.2-5.1c-1.2,3.2-3.1,4.4-3.1,4.4s-0.7-1.5-2-3.3c-1.3-1.9-1.1-6.2-1.1-6.2s-5-1.2-6.3-2.2
			c-0.3-0.2-0.6-0.5-0.9-0.8c-0.2,1-0.4,2.4-0.9,3.4c-0.6,1.4-2.8,2.9-2.8,2.9s1.7,1,3.9,0.7c1.3-0.2,3.3-1.3,3.3-1.3
			s-0.5,2.5-0.7,4.4c-0.2,1.6,0.4,4.4,1.3,5.5c2.3-1.4,2.8-2.2,3.5-4.2c0,2,3.4,6.7,5.4,8.1c1.3,0.9,6.3,2.2,6.3,2.2
			s-0.2,4.3,1.1,6.2c1.3,1.9,2,3.3,2,3.3s1.9-1.3,3.1-4.4c1,3,2.4,4,4.2,5.1c2.1,1.2,5.8,0.5,5.8,0.5s0.2,3,4.8,3.7
			c2,0.3,4.2-1.1,4.2-1.1s0.7,2.9,3.7,3.5c3.6,0.8,5.3-1.1,5.3-1.1s1.4,2.4,3.4,3.9c1.4-1.1,2-2.8,2-2.8s1.7,2.7,5.8,2.8
			c1.6,0,3.6-0.3,4.9-0.5c0.9,1.4,2.7,3.4,2.7,3.4s2.7-2.1,4-4.2c2.2,0.5,5.8,1.3,7.4,1.3c4.1-0.1,5.8-2.8,5.8-2.8s0.6,1.8,2,2.8
			c2.1-1.5,3.4-3.9,3.4-3.9s1.7,1.8,5.3,1.1c3-0.6,3.7-3.5,3.7-3.5s2.2,1.3,4.2,1.1c4.6-0.7,4.8-3.7,4.8-3.7s3.6,0.7,5.8-0.5
			c1.8-1,3.2-2.1,4.2-5.1c1.2,3.2,3.1,4.4,3.1,4.4s0.7-1.4,2-3.3c1.3-1.9,1.1-6.2,1.1-6.2s5-1.2,6.3-2.2c2-1.4,5.3-6.1,5.4-8.1
			c0.6,2,1.1,2.9,3.5,4.2c0.9-1.2,1.4-4,1.3-5.5c-0.2-1.9-0.7-4.4-0.7-4.4s2,1.1,3.3,1.3c2.1,0.3,3.9-0.7,3.9-0.7s-2.2-1.5-2.8-2.9
			c-0.7-1.6-1-4.4-1-4.4s1.9-0.1,3.3-2.2c1.5-2,0.4-4.4,0.4-4.4s1.9,1.1,3.6,1.5c3,0.5,5.2-0.5,5.2-0.5s-2.9-2.1-3.6-6
			c-0.7-3.9-1.5-4.8-1.5-4.8s1.3-0.9,2.3-2c1.4-1.4,3.1-3.6,2-6c-1.4-3-2.3-4-2.3-4s2.4-0.2,3.5-0.5c1.4-0.4,3-1.9,3-1.9
			S966.9,542.1,966.8,538.7z"/>
		<path class="st12" d="M954.8,520c-0.1-3-1.4-5.9-1.4-5.9l3.6,1.2c0,0,0-3.2-0.9-4.8c-1.2-2.2-3.2-2.4-3.2-2.4s3.9-2.3,5.2-5
			c-2-1.6-4-1.5-4.9-1.6c0-1,0-2-0.1-2.9c-0.3-3.2-0.9-4.9-2.3-7.1c3.2,1.3,5.4,0.8,5.4,0.8s-2.3-2.1-3.6-3.7
			c-1.3-1.6-2.3-3.7-2.3-3.7s2.3-0.4,3.6-1.6c0.1,0,0.1-0.1,0.2-0.1c1.4-1.4,2-3.6,2-3.6s-1.4,0.8-3.8,0.7c-0.7,0-1.7-0.2-2.5-0.4
			c-1.1-0.3-2-0.6-2-0.6s-0.7-3.4,2-5.2c-2.3-1.3-6.1-1.4-6.1-1.4s0.9-0.9,1.5-1.8c-1.3-1.3-2.6-1.9-2.6-1.9l3.9-1.4
			c0,0-0.7-2.4-4.1-2.9c-3.2-0.5-6.3,0.3-6.3,0.3s-3-4.9-1.1-7.4c-3.8-0.1-8,1.8-8,1.8s1-4-1.2-8.1c-1,1.2-5.9,3.6-5.9,3.6
			s-0.4-0.9-1.1-2.2c-1-2-1-3.6-0.3-6.4c-2.8-0.2-6.5,1.3-8.8,3.6c-0.9-2-1.9-6.2-1.9-6.2c-2.5,0-7.3,3.1-7.4,4c0,0-1.4-3-3.1-3.6
			c-2.9-1-4.9,0.8-4.9,0.8s-1.4-1.1-2.2-2.9c-1.1-2.4-0.6-4.1-0.6-4.1s-4.1,1.8-4.8,5.3c-4.2-0.5-7.1,0.7-8.9,2
			c-0.3-1.3-0.7-2.7-1.3-3.6c-1.7-2.6-4-3.7-4-3.7s0.4,1.7-0.6,4.1c-0.8,1.8-2.2,2.9-2.2,2.9s-2-1.8-4.9-0.8
			c-1.8,0.6-3.1,3.6-3.1,3.6c0-0.9-4.8-4.1-7.4-4c0,0-1,4.2-1.9,6.2c-2.2-2.3-6-3.8-8.8-3.6c0.8,2.8,0.8,4.3-0.3,6.4
			c-0.7,1.3-1.1,2.2-1.1,2.2s-4.9-2.5-5.9-3.6c-2.1,4.2-1.2,8.1-1.2,8.1s-2.9-0.4-4.9-0.4c-2,0-5.5,0.2-5.5,0.2s0.9,1.5,1.1,3.9
			c0.1,1.2-0.7,3.8-0.7,3.8s-2.6-0.5-4.9-0.2c-2.3,0.3-4.5,1-4.5,1s0.4,1.5,0.8,2.5c0.4,1,2,2.6,2,2.6s-3.2,2.1-4.9,4.8
			c-1.4,2.3-1.9,4.8-1.9,4.8s-3.1,0.9-5.1,1.7c-2,0.7-5.1,0.6-5.1,0.6s1.4,1.5,2.5,2.4c0.7,0.6,3.7,0.9,3.7,0.9s-2.7,1.1-4.4,4.2
			c-1.1,2-0.8,6-0.8,6s-2.9,1-4.6,1c-2.4,0.1-3.8-0.7-3.8-0.7s0.7,2.2,2,3.6c1.3,1.3,3.8,1.7,3.8,1.7s-1,2.1-2.3,3.7
			c-1.3,1.6-3.6,3.7-3.6,3.7s2.2,0.4,5.4-0.8c-1.5,2.2-2,3.9-2.3,7.1c-0.1,0.9-0.1,1.9-0.1,2.9c-0.9,0.1-2.9,0.1-4.9,1.6
			c1.3,2.7,5.2,5,5.2,5s-2,0.3-3.2,2.4c-0.9,1.6-0.9,4.8-0.9,4.8l3.6-1.2c0,0-1.3,2.9-1.4,5.9c-0.1,3.3-3.3,4.7-3.3,4.7
			s1.6,1.5,3,1.9c1.1,0.3,3.5,0.5,3.5,0.5s-1,1-2.3,4c-1.1,2.4,0.7,4.6,2,6c1,1.1,2.3,2,2.3,2s-1.6,6.8-1.8,8.7
			c-0.1,0.7,0,1.7,0.2,2.7c0.2,1.1,0.6,2.2,1,2.8c2.2-1.3,3.4-4.1,3.5-4.2c0,0.1,2,4.5,3.1,5.8c0.5,0.6,0.9,1.1,1.4,1.5
			c0.3,0.3,0.6,0.6,0.9,0.8c1.3,0.9,6.3,2.2,6.3,2.2s-0.2,4.3,1.1,6.2c1.3,1.9,2,3.3,2,3.3s1.9-1.3,3.1-4.4c1,3,2.4,4,4.2,5.1
			c2.1,1.2,5.8,0.5,5.8,0.5s0.2,3,4.8,3.7c2,0.3,4.2-1.1,4.2-1.1s0.7,2.9,3.7,3.5c3.6,0.8,5.3-1.1,5.3-1.1s1.4,2.4,3.4,3.9
			c1.4-1.1,2-2.8,2-2.8s1.7,2.7,5.8,2.8c1.6,0,3.6-0.3,4.9-0.5c0.9,1.4,2.7,3.4,2.7,3.4s2.7-2.1,4-4.2c2.2,0.5,5.8,1.3,7.4,1.3
			c4.1-0.1,5.8-2.8,5.8-2.8s0.6,1.8,2,2.8c2.1-1.5,3.4-3.9,3.4-3.9s1.7,1.8,5.3,1.1c3-0.6,3.7-3.5,3.7-3.5s2.2,1.3,4.2,1.1
			c4.6-0.7,4.8-3.7,4.8-3.7s3.6,0.7,5.8-0.5c1.8-1,3.2-2.1,4.2-5.1c1.2,3.2,3.1,4.4,3.1,4.4s0.7-1.5,2-3.3c1.3-1.9,1.1-6.2,1.1-6.2
			s5-1.2,6.3-2.2c2-1.4,5.3-6.1,5.4-8.1c0.6,2,1.1,2.9,3.5,4.2c0.9-1.2,1.4-4,1.3-5.5c-0.2-1.9-0.7-4.4-0.7-4.4s2,1.1,3.3,1.3
			c2.1,0.3,3.9-0.7,3.9-0.7s-2.2-1.5-2.8-2.9c-0.7-1.6-1-4.4-1-4.4s1.9-0.1,3.3-2.2c1.5-2,0.4-4.4,0.4-4.4s1.9,1.1,3.6,1.5
			c3,0.5,5.2-0.5,5.2-0.5s-2.9-2.1-3.6-6c-0.7-3.9-1.5-4.8-1.5-4.8s1.3-0.9,2.3-2c1.4-1.4,3.1-3.6,2-6c-1.4-3-2.3-4-2.3-4
			s2.4-0.2,3.5-0.5c1.4-0.4,3-1.9,3-1.9S954.9,523.3,954.8,520z"/>
		<path class="st20" d="M924.7,518.4c0,0-1.5-2.8-4.1-4.6c0.5-1.4,4.9-1.6,4.9-1.6s-1.2-1.4-2.5-2c-1.3-0.5-3.4-0.4-3.4-0.4
			s1.1-3.3,0.8-5.3c-0.2-2.1-0.7-3.9-1.7-5.3c1,0.1,4,0.5,4,0.5s-1.3-2.5-2.4-3.5c-1.1-1-3.6-2.3-3.6-2.3s0.9-3.4-0.1-6.6
			c-1-3.2-2.5-4.7-4.7-5.9c0.8-0.7,4.8-1,4.8-1s-3.3-2.7-5.7-3.3c-2.4-0.5-4.5-0.5-4.5-0.5s0.2-2.6-1.5-4.5c-1.6-1.8-3-2.1-4.7-2.7
			c2.2-1,3-3.7,3-3.7s-3.3,0.7-5.8,0.4c-2.7-0.3-4.7-1.1-4.7-1.1s-2.1-5.4-9.1-4.9c2.1-1.7,1-5.4,1-5.4s-4,2.5-7.9,3.7
			c0.5-2.1,0-5.3,0-5.3s-0.8,0.8-4.5,2.8c-0.7,0.4-1.2,0.8-1.8,1.2c-0.4-0.5-0.8-0.9-1.3-1.4c-3.1-2.9-3.7-3.8-3.7-3.8
			s-1.3,3-1.3,5.2c-3.5-2.1-6.8-5.5-6.8-5.5s-1.9,3.4-0.3,5.5c-6.7-2.2-10,2.6-10,2.6s-2.1,0.3-4.8,0c-2.5-0.3-5.6-1.8-5.6-1.8
			s0,2.8,2,4.3c-1.8,0.3-3.2,0.1-5.2,1.6c-2,1.4-2.5,4-2.5,4s-2.1-0.5-4.5-0.5c-2.5,0-6.3,1.8-6.3,1.8s3.9,1.3,4.5,2.1
			c-2.5,0.7-4.3,1.8-6,4.6c-1.7,2.8-1.7,6.4-1.7,6.4s-2.7,0.7-4,1.4c-1.3,0.7-3.1,2.8-3.1,2.8s3,0.3,4,0.5c-1.3,1.1-2.2,2.8-2.9,4.8
			c-0.7,2-0.4,5.4-0.4,5.4s-2-0.7-3.4-0.4c-1.4,0.2-2.9,1.3-2.9,1.3s4.2,1.2,4.4,2.7c-2.9,1.1-5,3.5-5,3.5s1.3,4.6,4,5.5
			c-1.1,1.5-4.2,3.1-4.2,3.1s1.7,1.8,3,1.7c0.7,0,1.1-0.2,1.3-0.3c-0.5,0.5-1.5,1.8-1.4,3.7c0.1,2.5,0.4,5.1,0.4,5.1l2.7-1.8
			c0,0-1.2,2.5-0.8,6.2c0.3,2.6,2.5,4.9,3.5,5.3c-1,1.7-5.6,0.4-5.6,0.4s1.3,2,3.6,2.8c2.3,0.8,3.2,0.8,3.2,0.8s-0.2,1.7,0,4
			c0.2,2.3,1.5,3.4,1.5,3.4l1.3-2.3c0,0-0.1,4.9,0.4,8.4c3,2,6.5,0.4,6.5,0.4s0.6,4.7-2.3,5.5c3.4,2.2,6.2-0.7,6.2-0.7
			s-0.2,3.1,1.1,4.5c1.3,1.4,3.7,2.1,3.7,2.1l0.2-3c0,0,2.1,2.9,4.4,3.9c2.3,1,4.8,0.9,4.8,0.9s2.3,4.1,0.4,6.1
			c1.1,0.6,2.7,0.4,3.8-1.3c0.7-1.1,1-2.6,1-2.6s0.1,2.5,1.3,3.7s3.6,1.8,3.6,1.8s-1.3-2.6-0.9-3.4c0.4-0.8,1.8-0.7,2.9,0.1
			c1,0.8,1.7,3.3,1.7,3.3s1.3-1.1,2.3-2.5c0.7,1.5,1.6,2.8,1.6,2.8s1.2-2.3,2.4-2.8c1.2-0.5,2.6-0.3,2.8,0.5
			c0.2,0.9-1.6,3.1-1.6,3.1s2.4,0,3.9-0.9c1.5-0.9,2.2-3.3,2.2-3.3s0,1.5,0.4,2.7c0.7,1.9,2.2,2.4,3.4,2.1c-1.4-2.4,1.8-5.8,1.8-5.8
			s2.3,0.6,4.8,0.2c2.5-0.4,5.2-2.7,5.2-2.7l-0.5,2.9c0,0,2.4-0.1,4.1-1.2c1.6-1.1,2.2-4.1,2.2-4.1s2,3.5,5.8,2.1
			c-2.6-1.4-0.9-5.9-0.9-5.9s2.9,2.3,6.4,1.1c1.3-3.3,2.3-8,2.3-8l0.8,2.5c0,0,1.5-0.8,2.3-2.9c0.8-2.2,1-3.9,1-3.9s0.9,0.2,3.3,0
			c2.4-0.2,4.1-1.8,4.1-1.8s-4.8,0.2-5.3-1.7c1.1-0.1,3.8-1.9,4.7-4.3c1.3-3.5,0.7-6.2,0.7-6.2l2.2,2.3c0,0,0.9-2.5,1.6-4.9
			c0.5-1.8-0.1-3.2-0.5-3.9c0.2,0.2,0.5,0.5,1.2,0.6c1.3,0.3,3.4-1,3.4-1s-2.6-2.3-3.3-4C922.4,522.6,924.7,518.4,924.7,518.4z"/>
		<path class="st11" d="M895.4,505.5c0,0-0.5-1.1-1.5-1.7c-0.9-0.7-2.7-1.2-2.7-1.2s0.9-1.8,0.9-3.1c-0.1-2.3-1.5-3.5-1.5-3.5
			s0.9-0.4,2-0.2c1.2,0.1,2.8,0.7,2.8,0.7s-1-1.4-2-2.4c-1-0.9-2.3-1.1-3.1-1.6c0.4-1.1,0.2-1.8-0.1-3.7c-0.1-1-2.4-3.1-2.4-3.1
			s1,0.5,2.2,0.8c1,0.2,2.2,0,2.2,0s-1.1-0.7-1.9-1.9c-0.9-1.2-2.4-1.7-2.4-1.7s1.6-0.6,2-1.2c0.8-1.1,0.7-2.5,0.7-2.5
			s-1.3,1.1-2.1,1.4c-1.2,0.5-2.1,0.2-3.4,0.1c0,0-0.1-1.8-1.6-3.2c-1.5-1.4-2.7-2.2-2.7-2.2s1.2-0.5,1.7-0.9
			c0.6-0.4,0.9-1.2,0.9-1.2s-1.5-0.5-2.8-0.7c-1.4-0.1-2.6,0.7-2.6,0.7s-0.2-1.5-2-2.7c-1.4-0.9-3.7-1.5-3.7-1.5s0.6-0.4,0.9-1.2
			c0.4-0.8,0.4-1.6,0.4-1.6s-2.2,0-3.6,0c-1.4,0-2.8,0.8-2.8,0.8s0-1.3-0.4-2.2c-0.6-1.3,0.4-2.3,0.4-2.3s-1.4,0-2.6,1.1
			c-1.1,1-1.8,2.1-1.8,2.1s0.1-0.9-0.7-2c-0.8-1.1-2.2-1.9-2.2-1.9c0.4,1.3-1.2,3.1-1.2,3.1s-1.7-2.3-3.4-2.7
			c-0.8,2.4-3.4,2.7-3.4,2.7s-1.6-1.9-1.2-3.1c0,0-1.4,0.8-2.2,1.9c-0.8,1.1-0.7,2-0.7,2s-0.7-1.2-1.8-2.1c-1.2-1.1-2.6-1.1-2.6-1.1
			s1,1.1,0.4,2.3c-0.4,0.8-0.4,2.2-0.4,2.2s-1.3-0.9-2.8-0.8c-1.5,0-3.6,0-3.6,0s0.1,0.8,0.4,1.6c0.4,0.8,0.9,1.2,0.9,1.2
			s-2.3,0.6-3.7,1.5c-1.8,1.2-2,2.7-2,2.7s-1.2-0.8-2.6-0.7c-1.4,0.1-2.8,0.7-2.8,0.7s0.4,0.9,0.9,1.2c0.6,0.4,1.7,0.9,1.7,0.9
			s-1.2,0.9-2.7,2.2c-1.5,1.4-1.6,3.2-1.6,3.2c-1.3,0.1-2.2,0.4-3.4-0.1c-0.8-0.3-2.1-1.4-2.1-1.4s0,1.4,0.7,2.5
			c0.4,0.6,2,1.2,2,1.2s-1.5,0.5-2.4,1.7c-0.8,1.1-1.9,1.9-1.9,1.9s1.2,0.2,2.2,0c1.2-0.3,2.2-0.8,2.2-0.8s-2.2,2-2.4,3.1
			c-0.3,1.8-0.5,2.6-0.1,3.7c-0.9,0.6-2.1,0.7-3.1,1.6c-1,0.9-2,2.4-2,2.4s1.6-0.5,2.8-0.7c1.1-0.1,2,0.2,2,0.2s-1.4,1.2-1.5,3.5
			c-0.1,1.3,0.9,3.1,0.9,3.1s-1.7,0.6-2.7,1.2c-0.9,0.7-1.5,1.7-1.5,1.7s1.3-0.5,2.3-0.4c1,0.1,2.2,0.4,2.2,0.4s-1.2,1.5-1.7,2.4
			c-0.4,0.9-0.8,2.2-0.8,2.2s0.9-0.2,1.7-0.4c0.7-0.2,1.5-0.8,1.5-0.8s1.1,3.9,2,5c-0.6,1.4-3.4,1.3-3.4,1.3s0.6,1.1,1.5,1.7
			c1.3,0.8,3.3,0.1,3.3,0.1s-1.2,1.1-1.6,2.4c-0.3,1-0.2,1.9-0.2,1.9s1-1,1.6-1.3c0.8-0.5,2.3-0.5,2.3-0.5s0,1.6,0.8,2.8
			c0.6,0.9,2.5,1.6,2.5,1.6s0.4,1.7-0.2,2.8c-0.6,1-2,1.5-2,1.5s1.8,0.3,3-0.3c1.2-0.6,1.7-1.1,1.7-1.1s-0.6,2.3,0,3.5
			c0.6,1.2,1.4,1.7,1.4,1.7s-0.2-2.8,0.5-3.1c1.8,3.4,5.8,2.8,5.8,2.8s1.3,1.5,0.9,2.4c-0.4,0.9-1.3,1.5-1.3,1.5s2.2,0.4,3-0.4
			c0.9-0.8,1.1-2,1.1-2s1.2,1.5,2.2,2.4c1.1,1.1,1,2.5,1,2.5s0.9-0.5,1-1.4c0.1-1-0.5-2.5-0.5-2.5s1.3,1.4,3.8,1.5
			c0.3,0,0.6,0,0.9-0.1c0.1,0.4,0.2,0.9,0.3,1.3c0.2,0.8,2.5,2,2.5,2s-0.8-1.1-0.3-2.2c0.2-0.4,0.7-0.8,1.2-1.1
			c0.5,0.3,1,0.7,1.2,1.1c0.5,1.1-0.3,2.2-0.3,2.2s2.3-1.2,2.5-2c0.1-0.4,0.2-0.9,0.3-1.3c0.3,0,0.7,0.1,0.9,0.1
			c2.5-0.1,3.8-1.5,3.8-1.5s-0.6,1.6-0.5,2.5c0.1,0.8,1,1.4,1,1.4s-0.2-1.5,1-2.5c1-1,2.2-2.4,2.2-2.4s0.2,1.2,1.1,2
			c0.9,0.8,3,0.4,3,0.4s-0.9-0.5-1.3-1.5c-0.4-0.9,0.9-2.4,0.9-2.4s4.1,0.6,5.8-2.8c0.7,0.3,0.5,3.1,0.5,3.1s0.9-0.5,1.4-1.7
			c0.6-1.2,0-3.5,0-3.5s0.5,0.5,1.7,1.1c1.2,0.6,3,0.3,3,0.3s-1.5-0.4-2-1.5c-0.6-1-0.2-2.8-0.2-2.8s2-0.7,2.5-1.6
			c0.8-1.2,0.8-2.8,0.8-2.8s1.4,0,2.3,0.5c0.6,0.3,1.6,1.3,1.6,1.3s0.1-0.9-0.2-1.9c-0.4-1.3-1.6-2.4-1.6-2.4s2,0.7,3.3-0.1
			c1-0.6,1.5-1.7,1.5-1.7s-2.8,0.1-3.4-1.3c0.9-1.1,2-5,2-5s0.7,0.6,1.5,0.8c0.7,0.2,1.7,0.4,1.7,0.4s-0.4-1.4-0.8-2.2
			c-0.4-0.9-1.7-2.4-1.7-2.4s1.1-0.4,2.2-0.4C894.1,505,895.4,505.5,895.4,505.5z"/>
		<g>
			<path class="st12" d="M821.8,477.4c0,0,2.4,1.2,5.5,2.4c3.1,1.2,7.6,2.6,7.6,2.6s-1.8-3.6-5.4-5
				C825.9,475.9,821.8,477.4,821.8,477.4z"/>
			<path class="st12" d="M860.4,512.7c0,0-2.1,1.7-4.4,4c-2.4,2.3-5.5,5.8-5.5,5.8s4-0.1,6.8-2.8C860,517,860.4,512.7,860.4,512.7z"
				/>
			<path class="st12" d="M886.6,551.7c0,0-2.1,1.7-4.4,4c-2.4,2.3-5.5,5.8-5.5,5.8s4-0.1,6.8-2.8C886.3,556,886.6,551.7,886.6,551.7
				z"/>
			<path class="st12" d="M854,554.6c0,0-2.1,1.7-4.4,4c-2.4,2.3-5.5,5.8-5.5,5.8s4-0.1,6.8-2.8C853.6,558.9,854,554.6,854,554.6z"/>
			<path class="st12" d="M830.6,513.5c0,0-4.5,0.7-7.7-1.3c-3.3-2-3.3-2-3.3-2s2.2-1.6,4.5-5c2.3-3.5,5.7-3.9,5.7-3.9
				s-4.1,5.6-5.7,7.9C827.2,510.9,829.3,511.4,830.6,513.5z"/>
			<path class="st12" d="M821.1,530.9c0,0-4.5,0.7-7.7-1.3c-3.3-2-3.3-2-3.3-2s2.2-1.6,4.5-5c2.3-3.5,5.7-3.9,5.7-3.9
				s-4.1,5.6-5.7,7.9C817.7,528.2,819.8,528.7,821.1,530.9z"/>
			<path class="st12" d="M843,497.6c0,0-3.6-2.7-4.5-6.4c-0.9-3.7-0.9-3.7-0.9-3.7s2.6,0.5,6.7-0.3c4.1-0.8,6.8,1.4,6.8,1.4
				s-6.8,1-9.6,1.5C842.5,493.3,843.6,495.1,843,497.6z"/>
			<path class="st12" d="M818.5,490.8c0,0,4.9,2.2,7.4,2.1c2.5,0,5.9-1.9,5.9-1.9s-3-3.3-6.1-2.5
				C822.7,489.2,818.5,490.8,818.5,490.8z"/>
			<path class="st12" d="M806.3,513.8c0,0,4.9,2.2,7.4,2.1c2.5,0,5.9-1.9,5.9-1.9s-3-3.3-6.1-2.5
				C810.5,512.2,806.3,513.8,806.3,513.8z"/>
			<path class="st12" d="M840.4,471.3c0,0,3.1,3.5,3.7,5.6c0.6,2.1,0,5.4,0,5.4s-3.5-1.6-3.7-4.3
				C840.2,475.2,840.4,471.3,840.4,471.3z"/>
			<path class="st12" d="M895,547.1c0,0,3.1,3.5,3.7,5.6c0.6,2.1,0,5.4,0,5.4s-3.5-1.6-3.7-4.3C894.8,551,895,547.1,895,547.1z"/>
			<path class="st12" d="M845,519.4c0,0,3.1,3.5,3.7,5.6c0.6,2.1,0,5.4,0,5.4s-3.5-1.6-3.7-4.3C844.8,523.3,845,519.4,845,519.4z"/>
			<path class="st12" d="M871.6,540.6c0,0,3.1,3.5,3.7,5.6c0.6,2.1,0,5.4,0,5.4s-3.5-1.6-3.7-4.3
				C871.4,544.5,871.6,540.6,871.6,540.6z"/>
			<path class="st12" d="M837.1,538.9c0,0,3.1,3.5,3.7,5.6s0,5.4,0,5.4s-3.5-1.6-3.7-4.3C836.9,542.8,837.1,538.9,837.1,538.9z"/>
			<path class="st12" d="M870.9,498.2c0,0,2.4,1.2,5.5,2.4c3.1,1.2,7.6,2.6,7.6,2.6s-1.8-3.6-5.4-5
				C875,496.8,870.9,498.2,870.9,498.2z"/>
			<path class="st12" d="M852.3,545.2c0,0,2.4,1.2,5.5,2.4c3.1,1.2,7.6,2.6,7.6,2.6s-1.8-3.6-5.4-5
				C856.4,543.7,852.3,545.2,852.3,545.2z"/>
			<path class="st12" d="M901.1,490.8c0,0,2.4,1.2,5.5,2.4c3.1,1.2,7.6,2.6,7.6,2.6s-1.8-3.6-5.4-5
				C905.2,489.3,901.1,490.8,901.1,490.8z"/>
			<path class="st12" d="M885.4,494.4c0,0,1.4-4.3,0-7.8C884,483,884,483,884,483s-1.9,1.9-5.7,3.6c-3.8,1.7-4.8,5-4.8,5
				s6.2-3.1,8.7-4.3C883.4,490.6,883.5,492.7,885.4,494.4z"/>
			<path class="st12" d="M858.8,527.8c0,0,1.7,4.2,5.2,5.9c3.4,1.7,3.4,1.7,3.4,1.7s0.2-2.7,1.9-6.4c1.8-3.8,0.3-6.9,0.3-6.9
				s-2.6,6.4-3.7,9C862.9,529.3,861.4,527.8,858.8,527.8z"/>
			<path class="st12" d="M890.2,540c0,0,3.3,3.1,7.1,3.3c3.8,0.2,3.8,0.2,3.8,0.2s-0.9-2.5-0.9-6.7c0.1-4.2-2.6-6.4-2.6-6.4
				s0.2,6.9,0.3,9.7C894.5,539.7,892.5,539,890.2,540z"/>
			<path class="st12" d="M858.5,556.4c0,0-0.5,4.5,1.7,7.7c2.1,3.2,2.1,3.2,2.1,3.2s1.5-2.3,4.8-4.7c3.4-2.4,3.6-5.9,3.6-5.9
				s-5.4,4.3-7.6,6C861.3,559.7,860.7,557.6,858.5,556.4z"/>
			<path class="st10" d="M871,580.8c0,0-2.1,1.7-4.4,4c-2.4,2.3-5.5,5.8-5.5,5.8s4-0.1,6.8-2.8C870.6,585.1,871,580.8,871,580.8z"/>
			<path class="st13" d="M879.2,603.3c0,0-2.1,1.7-4.4,4c-2.4,2.3-5.5,5.8-5.5,5.8s4-0.1,6.8-2.8
				C878.8,607.6,879.2,603.3,879.2,603.3z"/>
			<path class="st13" d="M955.7,560c0,0-2.1,1.7-4.4,4c-2.4,2.3-5.5,5.8-5.5,5.8s4-0.1,6.8-2.8C955.3,564.3,955.7,560,955.7,560z"/>
			<path class="st13" d="M966.3,517.6c0,0-2.1,1.7-4.4,4c-2.4,2.3-5.5,5.8-5.5,5.8s4-0.1,6.8-2.8
				C965.9,521.9,966.3,517.6,966.3,517.6z"/>
			<path class="st13" d="M851.3,601.4c0,0-2.7,0.2-5.9,0.7c-3.3,0.5-7.9,1.6-7.9,1.6s3.4,2.2,7.2,1.6
				C848.6,604.6,851.3,601.4,851.3,601.4z"/>
			<path class="st13" d="M961.3,552.6c0,0-2.7,0.2-5.9,0.7c-3.3,0.5-7.9,1.6-7.9,1.6s3.4,2.2,7.2,1.6
				C958.6,555.9,961.3,552.6,961.3,552.6z"/>
			<path class="st10" d="M856,569.7c0,0,3.1,3.5,3.7,5.6c0.6,2.1,0,5.4,0,5.4s-3.5-1.6-3.7-4.3C855.7,573.6,856,569.7,856,569.7z"/>
			<path class="st13" d="M883,601.1c0,0,3.1,3.5,3.7,5.6c0.6,2.1,0,5.4,0,5.4s-3.5-1.6-3.7-4.3C882.8,605,883,601.1,883,601.1z"/>
			<path class="st13" d="M923.1,587.3c0,0,3.1,3.5,3.7,5.6c0.6,2.1,0,5.4,0,5.4s-3.5-1.6-3.7-4.3
				C922.9,591.2,923.1,587.3,923.1,587.3z"/>
			<path class="st10" d="M905.7,573c0,0,4.3-1.9,6.4-1.8c2.1,0,5.1,1.6,5.1,1.6s-2.6,2.8-5.3,2.2C909.4,574.4,905.7,573,905.7,573z"
				/>
			<path class="st10" d="M895,566.5c0,0,3.1,3.5,3.7,5.6c0.6,2.1,0,5.4,0,5.4s-3.5-1.6-3.7-4.3C894.8,570.4,895,566.5,895,566.5z"/>
			<path class="st10" d="M948.2,519.5c0,0-1.5,4.4-3,6c-1.5,1.5-4.7,2.6-4.7,2.6s-0.3-3.9,2-5.3
				C944.7,521.3,948.2,519.5,948.2,519.5z"/>
			<path class="st10" d="M947.5,484.1c0,0-1.5,4.4-3,6c-1.5,1.5-4.7,2.6-4.7,2.6s-0.3-3.9,2-5.3C944,485.8,947.5,484.1,947.5,484.1z
				"/>
			<path class="st10" d="M836.7,574.3c0,0,2.4,1.2,5.5,2.4c3.1,1.2,7.6,2.6,7.6,2.6s-1.8-3.6-5.4-5
				C840.7,572.9,836.7,574.3,836.7,574.3z"/>
			<path class="st13" d="M905,597.5c0,0,2.4,1.2,5.5,2.4c3.1,1.2,7.6,2.6,7.6,2.6s-1.8-3.6-5.4-5C909,596.1,905,597.5,905,597.5z"/>
			<path class="st10" d="M875.1,574.3c0,0,2.4,1.2,5.5,2.4c3.1,1.2,7.6,2.6,7.6,2.6s-1.8-3.6-5.4-5
				C879.1,572.9,875.1,574.3,875.1,574.3z"/>
			<path class="st10" d="M842.9,585.5c0,0-0.5,4.5,1.7,7.7c2.1,3.2,2.1,3.2,2.1,3.2s1.5-2.3,4.8-4.7c3.4-2.4,3.6-5.9,3.6-5.9
				s-5.4,4.3-7.6,6C845.7,588.8,845.1,586.7,842.9,585.5z"/>
			<path class="st13" d="M855.6,601.1c0,0-0.5,4.5,1.7,7.7c2.1,3.2,2.1,3.2,2.1,3.2s1.5-2.3,4.8-4.7c3.4-2.4,3.6-5.9,3.6-5.9
				s-5.4,4.3-7.6,6C858.4,604.4,857.8,602.3,855.6,601.1z"/>
			<path class="st10" d="M925.1,536.6c0,0,4.3,1.5,7.8,0.1c3.6-1.4,3.6-1.4,3.6-1.4s-1.9-1.9-3.5-5.8c-1.6-3.8-4.9-4.8-4.9-4.8
				s3,6.2,4.1,8.8C928.9,534.6,926.8,534.7,925.1,536.6z"/>
			<path class="st10" d="M930.9,486.3c0,0,3.4-2.9,4-6.7c0.6-3.8,0.6-3.8,0.6-3.8s-2.6,0.7-6.7,0.1c-4.1-0.5-6.6,1.9-6.6,1.9
				s6.9,0.5,9.7,0.8C931.1,482,930.2,483.9,930.9,486.3z"/>
			<path class="st12" d="M865.2,458.3c0,0-3.6,4-4.3,6.4c-0.7,2.4,0,6.2,0,6.2s4-1.9,4.3-5C865.4,462.8,865.2,458.3,865.2,458.3z"/>
			<path class="st12" d="M883.8,458.2c0,0-3.5,4-4.2,6.3c-0.7,2.3,0,6,0,6s3.9-1.9,4.2-4.9C884.1,462.6,883.8,458.2,883.8,458.2z"/>
			<path class="st12" d="M874.2,478.5c0,0-0.9,4.6-2.1,6.3c-1.3,1.7-4.2,3.3-4.2,3.3s-0.8-3.8,1.2-5.6
				C871,480.7,874.2,478.5,874.2,478.5z"/>
			<path class="st12" d="M894.9,467.8c0,0-2.3,4-4.1,5.3c-1.8,1.2-5.1,1.7-5.1,1.7s0.5-3.8,2.9-4.9
				C891.1,468.8,894.9,467.8,894.9,467.8z"/>
			<path class="st12" d="M839,514.9c0,0-4.1,2.2-5.4,3.9c-1.3,1.7-1.8,5-1.8,5s3.9-0.3,5-2.8C837.9,518.7,839,514.9,839,514.9z"/>
			<path class="st12" d="M834.3,544.5c0,0-4.1,2.2-5.4,3.9c-1.3,1.7-1.8,5-1.8,5s3.9-0.3,5-2.8C833.1,548.3,834.3,544.5,834.3,544.5
				z"/>
			<path class="st12" d="M847,460.4c0,0,4.4,1,6.3,3.1s2.4,4.8,2.4,4.8s-4.9-2.1-6.3-3.7C848.1,463,847,460.4,847,460.4z"/>
			<path class="st12" d="M847.5,503.6c0,0-2.8,1.7-3.5,4.4c-0.7,2.7,0.1,7.2,0.1,6.9c0-0.4,2.3-2.3,2.9-5.3
				C847.5,506.5,847.5,503.6,847.5,503.6z"/>
			<path class="st12" d="M885.5,531.3c0,0-2.8,1.7-3.5,4.4c-0.7,2.7,0.1,7.2,0.1,6.9c0-0.4,2.3-2.3,2.9-5.3
				C885.5,534.1,885.5,531.3,885.5,531.3z"/>
			<path class="st12" d="M827,533.2c0,0-2.8,1.7-3.5,4.4c-0.7,2.7,0.1,7.2,0.1,6.9c0-0.4,2.3-2.3,2.9-5.3
				C827.1,536.1,827,533.2,827,533.2z"/>
			<path class="st12" d="M842.9,500.4c0,0-3.9-1.6-6.3,0c-2.4,1.6-4.8,3.2-4.8,3.2s2,0.2,4.8,0C839.4,503.4,842.9,500.4,842.9,500.4
				z"/>
			<path class="st12" d="M845.9,553.3c0,0-3.9-1.6-6.3,0c-2.4,1.6-4.8,3.2-4.8,3.2s2,0.2,4.8,0C842.5,556.4,845.9,553.3,845.9,553.3
				z"/>
			<path class="st10" d="M879.3,585.5c0,0-3.4,2.5-3.3,5.4c0.2,2.9,0.2,5.8,0.2,5.8s1.2-1.6,2.5-4.1
				C880.1,590.1,879.3,585.5,879.3,585.5z"/>
			<path class="st13" d="M934.6,577.4c0,0-3.4,2.5-3.3,5.4c0.2,2.9,0.2,5.8,0.2,5.8s1.2-1.6,2.5-4.1
				C935.4,582,934.6,577.4,934.6,577.4z"/>
			<path class="st13" d="M957.1,533c0,0-2,3.8-0.6,6.3s2.8,5.1,2.8,5.1s0.4-1.9,0.4-4.8C959.8,536.8,957.1,533,957.1,533z"/>
			<path class="st10" d="M821,559.5c0,0,3.1,3.5,3.7,5.6c0.6,2.1,0,5.4,0,5.4s-3.5-1.6-3.7-4.3C820.8,563.4,821,559.5,821,559.5z"/>
			<path class="st10" d="M797.6,545c0,0,4.2-2.1,6.3-2.2c2.1-0.1,5.2,1.4,5.2,1.4s-2.5,3-5.1,2.5C801.3,546.2,797.6,545,797.6,545z"
				/>
			<path class="st10" d="M818.2,565.1c0,0-4.1,2.2-5.4,3.9c-1.3,1.7-1.8,5-1.8,5s3.9-0.3,5-2.8C817,568.9,818.2,565.1,818.2,565.1z"
				/>
			<path class="st10" d="M811,553.8c0,0-2.8,1.7-3.5,4.4c-0.7,2.7,0.1,7.2,0.1,6.9c0-0.4,2.3-2.3,2.9-5.3
				C811,556.7,811,553.8,811,553.8z"/>
			<path class="st10" d="M803.4,525.4c0,0-2.8,1.7-3.5,4.4c-0.7,2.7,0.1,7.2,0.1,6.9c0-0.4,2.3-2.3,2.9-5.3
				C803.4,528.2,803.4,525.4,803.4,525.4z"/>
			<path class="st10" d="M829.8,573.9c0,0-3.9-1.6-6.3,0c-2.4,1.6-4.8,3.2-4.8,3.2s2,0.2,4.8,0C826.4,577,829.8,573.9,829.8,573.9z"
				/>
			<path class="st12" d="M865.3,472.4c-0.4,0.1-3.3,2.4-4,5c-0.7,2.6-0.7,4.9-0.7,4.9s3.2-2.6,4-4.5
				C865.4,476,865.3,472.4,865.3,472.4z"/>
			<path class="st12" d="M849.9,478c0,0,1.7,4.3,3.3,5.4c1.7,1.1,4.5,3.5,4.5,3.5s0.1-1.6-2.1-4.7C853.5,479.1,849.9,478,849.9,478z
				"/>
			<path class="st12" d="M852.6,496.7c0,0-0.5,4.2,1.9,5.8c2.4,1.7,6.5,3.6,6.5,3.6s-0.7-4.1-3.3-5.7
				C855.1,498.8,852.6,496.7,852.6,496.7z"/>
			<path class="st12" d="M855.7,494.1c0,0,3.9-2.3,6.7-1.8c2.9,0.4,5.3,0.7,5.3,0.7s-3.5,3.4-6,3
				C859.2,495.6,855.7,494.1,855.7,494.1z"/>
			<path class="st12" d="M890.9,524.4c0,0,3.9-2.3,6.7-1.8c2.9,0.4,5.3,0.7,5.3,0.7s-3.5,3.4-6,3
				C894.4,525.9,890.9,524.4,890.9,524.4z"/>
			<path class="st12" d="M896.9,483.4c0,0,3.9-2.3,6.7-1.8c2.9,0.4,5.3,0.7,5.3,0.7s-3.5,3.4-6,3
				C900.4,484.9,896.9,483.4,896.9,483.4z"/>
			<path class="st10" d="M922.9,496.6c0,0,3.9-2.3,6.7-1.8c2.9,0.4,5.3,0.7,5.3,0.7s-3.5,3.4-6,3
				C926.4,498.2,922.9,496.6,922.9,496.6z"/>
			<path class="st10" d="M901.1,458.2c0,0,3.9-2.3,6.7-1.8c2.9,0.4,5.3,0.7,5.3,0.7s-3.5,3.4-6,3
				C904.7,459.8,901.1,458.2,901.1,458.2z"/>
			<path class="st12" d="M872.9,502.6c0,0-2.5,4.4-1.7,7.1c0.7,2.7,2.3,5.4,2.3,5.4s1.4-2.5,0.9-5.8
				C874,506.1,872.9,502.6,872.9,502.6z"/>
			<path class="st12" d="M910.1,524.1c0,0-2.4,4.4-1.7,7.1c0.7,2.7,2.3,5.4,2.3,5.4s1.4-2.5,0.9-5.8
				C911.1,527.5,910.1,524.1,910.1,524.1z"/>
			<path class="st10" d="M921,569.1c0,0,3.1,3.5,3.7,5.6c0.6,2.1,0,5.4,0,5.4s-3.5-1.6-3.7-4.3S921,569.1,921,569.1z"/>
			<path class="st13" d="M941.7,575.1c0,0,3.1,3.5,3.7,5.6c0.6,2.1,0,5.4,0,5.4s-3.5-1.6-3.7-4.3
				C941.5,579.1,941.7,575.1,941.7,575.1z"/>
			<path class="st10" d="M886.7,581.7c0,0,3.1,3.5,3.7,5.6c0.6,2.1,0,5.4,0,5.4s-3.5-1.6-3.7-4.3
				C886.5,585.6,886.7,581.7,886.7,581.7z"/>
			<path class="st10" d="M916.2,562.1c0,0,3.3,3.1,7.1,3.3c3.8,0.2,3.8,0.2,3.8,0.2s-0.9-2.5-0.9-6.7c0.1-4.2-2.6-6.4-2.6-6.4
				s0.2,6.9,0.3,9.7C920.5,561.8,918.5,561,916.2,562.1z"/>
			<path class="st10" d="M911.5,553.3c0,0-2.8,1.7-3.5,4.4c-0.7,2.7,0.1,7.2,0.1,6.9c0-0.4,2.3-2.3,2.9-5.3
				C911.5,556.2,911.5,553.3,911.5,553.3z"/>
			<path class="st10" d="M919.2,462.1c0,0-2.8,1.7-3.5,4.4c-0.7,2.7,0.1,7.2,0.1,6.9c0-0.4,2.3-2.3,2.9-5.3
				C919.2,465,919.2,462.1,919.2,462.1z"/>
			<path class="st10" d="M905.5,577.4c0,0-2.8,1.7-3.5,4.4c-0.7,2.7,0.1,7.2,0.1,6.9c0-0.4,2.3-2.3,2.9-5.3
				C905.5,580.2,905.5,577.4,905.5,577.4z"/>
			<path class="st10" d="M836.2,579.9c0,0-2.8,1.7-3.5,4.4c-0.7,2.7,0.1,7.2,0.1,6.9c0-0.4,2.3-2.3,2.9-5.3
				C836.2,582.7,836.2,579.9,836.2,579.9z"/>
			<path class="st13" d="M897.6,599.7c0,0-2.8,1.7-3.5,4.4c-0.7,2.7,0.1,7.2,0.1,6.9c0-0.4,2.3-2.3,2.9-5.3
				C897.6,602.5,897.6,599.7,897.6,599.7z"/>
			<path class="st13" d="M828.5,592.6c0,0-1.1,3.1,0.1,5.6c1.2,2.6,4.7,5.5,4.5,5.2c-0.2-0.3,0.3-3.2-1.2-5.9
				C830.3,594.8,828.5,592.6,828.5,592.6z"/>
			<path class="st10" d="M917,546.4c0,0,3.9-2.3,6.7-1.8c2.9,0.4,5.3,0.7,5.3,0.7s-3.5,3.4-6,3C920.5,548,917,546.4,917,546.4z"/>
			<path class="st10" d="M937.7,538.9c0,0,3.9-2.3,6.7-1.8c2.9,0.4,5.3,0.7,5.3,0.7s-3.5,3.4-6,3
				C941.2,540.4,937.7,538.9,937.7,538.9z"/>
			<path class="st10" d="M930,517.5c0,0,3.9-2.3,6.7-1.8c2.9,0.4,5.3,0.7,5.3,0.7s-3.5,3.4-6,3S930,517.5,930,517.5z"/>
			<path class="st10" d="M891.7,460.3c0,0,0.1-4.5,2-6.7c1.8-2.2,3.4-4.1,3.4-4.1s1,4.7-0.6,6.7
				C894.9,458.2,891.7,460.3,891.7,460.3z"/>
			<path class="st10" d="M936.1,546.1c0,0-2.4,4.4-1.7,7.1c0.7,2.7,2.3,5.4,2.3,5.4s1.4-2.5,0.9-5.8
				C937.1,549.5,936.1,546.1,936.1,546.1z"/>
			<path class="st10" d="M936.8,500.3c0,0,2.6,4.3,5.3,5c2.7,0.7,5.8,0.7,5.8,0.7s-1.5-2.5-4.6-3.7
				C940.3,501.1,936.8,500.3,936.8,500.3z"/>
			<path class="st12" d="M898.8,498.8c0,0,2.6,4.3,5.3,5c2.7,0.7,5.8,0.7,5.8,0.7s-1.5-2.5-4.6-3.7
				C902.2,499.6,898.8,498.8,898.8,498.8z"/>
			<path class="st12" d="M874.2,517.6c0,0,2.9,3,5.6,3.5c2.7,0.6,5.2,1,5.2,1s-1.7-2.8-4.4-3.8C877.8,517.2,874.2,517.6,874.2,517.6
				z"/>
			<path class="st12" d="M903.5,515c0,0,4.2-0.1,6.4-1.6c2.3-1.5,4.3-3,4.3-3s-3.1-0.7-5.8,0.5C905.8,512.1,903.5,515,903.5,515z"/>
		</g>
	</g>
	<g>
		<g>
			<path class="st17" d="M1233.4,635c9.1,4.1,21,7.7,30.8,5c6.1-1.7,11.5-5.4,16.8-8.9c3.1-2,16.4-10.3,20.7-9.9
				c1.4-0.3,2.8-0.4,4.3-0.4c-0.5-5.1-2.3-10.3-5.8-13.2c-3.7-3.1-9.7-3.4-14.2-4.4c-7.4-1.7-15.2-2.1-22.3-5
				c-8.5-3.4-23.2-12.1-36.1,1.9c-6.2,6.7-10.8,14.5-11.3,21.7c0.2,0.1,0.4,0.2,0.5,0.3C1222.9,626.1,1226.3,631.9,1233.4,635z"/>
			<path class="st18" d="M1219.7,633.2c7.2,8.9,19.9,17.2,31.2,19.2c12.2,2.1,25.9-3.3,37.5-6.6c8.4-2.4,14.9-6,17-15.1
				c0.7-2.8,0.9-6.3,0.5-9.8c-1.5,0-2.9,0.2-4.3,0.4c-4.3-0.4-17.6,7.9-20.7,9.9c-5.3,3.4-10.7,7.2-16.8,8.9c-9.8,2.7-21.7-1-30.8-5
				c-7.1-3.2-10.5-8.9-16.6-12.9c-0.2-0.1-0.4-0.2-0.5-0.3C1215.9,625.9,1216.9,629.8,1219.7,633.2z"/>
		</g>
		<path class="st19" d="M1296.2,609.4c-1.4-3.1-9.6-1.4-15-1.7c-8.9-0.4-12.5-6.9-21.3-6.9c-5.9,0-8.6,1.5-5.9,3.4
			c3.1,2.2,4.7,4.8,7.8,6.9c2.8,2,4.1,3.4,5.9,6.2c0.4,0.6,0.4,1.4,0.8,1.9c4.1,4.8,13.9-1.6,18.2-3.2
			C1288.4,615.4,1298,613.5,1296.2,609.4z"/>
		<path class="st18" d="M1276.2,625.4c-0.7-1.2-5.3,0.6-6.3-0.7c-3.6-4.8-4.4-5.6-8.7-8c-6.3-3.4-12.7-8.7-11.3-5.8
			c2,4.1,10,9,9.1,15.6c-0.9,6.6-2.5,8.3,3.7,6.4C1268.8,630.9,1278.9,630.1,1276.2,625.4z"/>
		<path class="st18" d="M1236.1,628.1c-1.4,0.2-2,3.7,4.3,4.1c6.3,0.4,10.1,0,11.7-2.5c1.6-2.5,4.1-6.4,1.2-5.7
			c-2.9,0.7-3,3.4-6.6,4.1C1243.1,628.8,1241.3,627.4,1236.1,628.1z"/>
		<path class="st19" d="M1238.3,599.5c-1.3,0.4-2.5,1.4-3.4,2.5c-2,2.3-3,3.7-5.5,5.5c-1.2,0.9-2.3,1.7-3,3
			c-2.4,4.8,3.4,10.4,7.3,5.9c0.6-0.7,0.9-2.2,1.4-3c0.6-1,1.6-1.8,2.5-2.5c1.3-0.9,2.7-1.6,4.1-2.4c2.1-1.3,4.7-2.9,5.4-5.4
			C1248.5,598.5,1241.7,597.4,1238.3,599.5z"/>
	</g>
	<g>
		<g>
			<path class="st17" d="M1071.6,592.6c12.1-1.4,21.2-9.8,32-13.3c-1.1-2.9-3.2-5.5-5.5-7.4c-6-5.1-12.4-4.1-19.1-5.2
				c-8.7-1.4-19.5-0.6-26.9,2.4c-3,1.2-7.5,3.1-9.7,6c2.8,1.9,5.5,3.9,7.9,6.3C1056.7,587.8,1061.2,593.8,1071.6,592.6z"/>
			<path class="st18" d="M1041.2,579.8c1.1,6.6,11.1,15.8,16.5,18.9c6.9,4,15.1,4.2,22.7,2.1c6.9-1.9,19.6-6.5,23.1-13.3
				c1.4-2.8,1.3-5.7,0.2-8.4c-10.9,3.5-19.9,11.9-32,13.3c-10.4,1.2-14.9-4.8-21.3-11.2c-2.4-2.4-5.1-4.4-7.9-6.3
				C1041.4,576.4,1040.9,578,1041.2,579.8z"/>
		</g>
		<path class="st19" d="M1068.6,568.6c-2.4,0-15.3,0.7-14.4,5.5c1.2,6.2,18.5,1.8,21.1,1.8c3.9,0,25.7,5.4,20.7-0.6
			C1091.4,569.7,1075.9,568.6,1068.6,568.6z"/>
	</g>
	<g>
		<g>
			<path class="st21" d="M965.4,647.2c15.6-5.2,37.4-15.7,43.8-32c5-12.7,0.5-24.3-6.1-34.9c-16.8-9.7-35.4-13.7-49.1-10.8
				c-14.2,3-31.7,16.1-53.4,31.2C891.5,607,886,615,884,623C892.3,653.5,940.3,655.5,965.4,647.2z"/>
			<path class="st22" d="M898.5,653.2c21.7,12.5,74.6,14.1,104.7-6.5c30.1-20.7,30.3-43.5,11.2-58.7c-3.6-2.9-7.4-5.4-11.3-7.7
				c6.6,10.6,11.1,22.2,6.1,34.9c-6.3,16.3-28.1,26.8-43.8,32c-25.2,8.3-73.1,6.3-81.4-24.2C881.3,634.4,885.8,645.9,898.5,653.2z"
				/>
		</g>
		<path class="st23" d="M980.8,587.8c-4.3-5.5-29.3-10.3-35.2-7.9c-11.9,4.9-24.3,13.9-34.5,21.7c-6.3,4.8-12.1,11.7-11.2,20.2
			c1.2,10.6,13.2,15.2,22.3,17c21.5,4.3,43.3-5.7,55.6-23.4C983.4,607.5,987.5,596.5,980.8,587.8z"/>
		<path class="st24" d="M978,594.9c-3.7-2.1-7-1.4-10.1,1.4c-1.5,1.3-2.7,3-3.9,4.6c-3.4,2.7-6.6,5.7-10.4,7.8
			c-9.6,5.3-19,5.6-29.6,5c-4.6-0.2-13.4-0.7-15.8,4.6c-1.7,3.7,1,7.1,4.1,8.8c5.9,3.2,14.7,4,21.3,4.4c6.7,0.5,13.3-0.6,19.5-3.2
			c13.1-5.6,22.7-17.2,25.8-31C979.2,596.4,978.9,595.4,978,594.9z"/>
	</g>
	<g>
		<g>
			<path class="st21" d="M790.4,622.4c6.2,6.4,16.2,8.9,24.6,11.2c9.7,2.7,20,4.3,29.6,0.4c3.4-1.4,6.2-4,9.4-5.7
				c-4.1-10.1-31.2-31.5-35.1-33.6c-13.4-7.4-24-4.2-33.6,4.3C783.7,607.2,784.2,615.9,790.4,622.4z"/>
			<path class="st22" d="M776.6,617.2c-1,11.4,6.6,15.5,13.9,21.1c9.4,7.3,16.6,8.6,28.8,10.1c11.8,1.5,38-1.9,35.2-18.5
				c-0.1-0.5-0.3-1-0.5-1.6c-3.1,1.7-6,4.4-9.4,5.7c-9.6,3.9-19.9,2.3-29.6-0.4c-8.4-2.3-18.4-4.8-24.6-11.2
				c-6.2-6.5-6.7-15.2-5.1-23.5C780.9,602.8,777.2,610.6,776.6,617.2z"/>
		</g>
		<path class="st23" d="M827.5,615.1c-5-5.6-16.6-18.1-24.5-18.1c-7,0-13.6,5.6-12.4,13.5c2.1,14.3,20.4,15.8,31.8,17.2
			c2.9,0.4,9.4,1.9,10.6-2.3C834,621.8,829.6,617.4,827.5,615.1z"/>
		<path class="st24" d="M812.8,613.9c-2.7-2.9-2.7-7.5-6-9.9c-2.3-1.7-6.7-3.1-9.3-1.2c-2,1.4-3,4.3-2.5,6.6c0.3,3,2,6.4,3.6,8
			c2.9,2.9,15,9.8,17.7,3.5C817.5,617.8,814.5,615.8,812.8,613.9z"/>
	</g>
	<g>
		<path class="st21" d="M723.1,524.9c4.9,2.7,13,4.4,18.7,3.9c9.7-0.8,19.7-4.5,25-12.5c-1.8-2.2-4.3-4.3-6.8-6.9
			c-9.9-9.9-28.3-7.8-39.5-4.5c-1.7,0.5-3.2,1.1-4.5,1.8C713.9,514.8,715.3,520.6,723.1,524.9z"/>
		<path class="st22" d="M714.7,527.6c11.4,9.2,26,10.1,34.5,7.8c7.7-2,14.4-4.9,17.5-8.6c3.6-4.2,2.7-7.4,0.1-10.6
			c-5.3,8-15.3,11.7-25,12.5c-5.7,0.4-13.7-1.2-18.7-3.9c-7.8-4.3-9.3-10.2-7.1-18.1C705.5,512.2,708.2,522.4,714.7,527.6z"/>
		<path class="st23" d="M731.3,507.7c-6,1.3-14.4,5.9-7.2,12.2c6.8,6,20.1,6.5,28.3,4.1c3.2-0.9,6.6-2.9,6.5-6.6
			C758.8,513.3,741.4,505.6,731.3,507.7z"/>
		<path class="st24" d="M750.3,518.2c-1-2.1-7.8-1.9-9.6-2.1c-3.1-0.3-6.4-0.9-9.6-0.8c-2.1,0-4.2,1.5-2.5,3.7
			c1.1,1.5,3.7,2,5.3,2.4c2.7,0.8,5.5,1.2,8.3,1.3C745.7,522.8,752,521.9,750.3,518.2z"/>
	</g>
	<g>
		<g>
			<path class="st17" d="M980.4,669.4c-9.4-1.1-16.4-7.6-24.9-10.3c0.8-2.2,2.5-4.2,4.3-5.8c4.7-4,9.6-3.2,14.8-4
				c6.8-1.1,15.1-0.5,20.9,1.8c2.3,0.9,5.8,2.4,7.6,4.7c-2.2,1.5-4.3,3-6.1,4.9C992,665.7,988.5,670.3,980.4,669.4z"/>
			<path class="st18" d="M1004,659.5c-0.9,5.1-8.6,12.3-12.8,14.7c-5.4,3.1-11.7,3.3-17.6,1.7c-5.4-1.5-15.2-5-17.9-10.3
				c-1.1-2.2-1-4.4-0.2-6.5c8.4,2.8,15.5,9.2,24.9,10.3c8.1,0.9,11.6-3.7,16.5-8.7c1.9-1.9,4-3.4,6.1-4.9
				C1003.8,656.8,1004.3,658,1004,659.5z"/>
		</g>
		<path class="st19" d="M982.8,650.7c1.9,0,11.9,0.6,11.2,4.3c-0.9,4.8-14.3,1.4-16.4,1.4c-3.1,0-20,4.2-16.1-0.5
			C965.1,651.6,977.1,650.8,982.8,650.7z"/>
	</g>
</g>
<g>
	<path class="st25" d="M51.6,656.4c5.2-13.8,8.7-29.1,3.3-38.6c0,0,0.5,21.1-15.9,38.6H51.6z"/>
	<path class="st25" d="M33.6,656.4h17c5.6-31.9-10.2-47.4-10.2-47.4C47.6,626.8,41,644.2,33.6,656.4z"/>
	<path class="st26" d="M34,656.4h10.1c12.1-23.9-13.4-36.5-13.4-36.5C41.7,634.5,42.1,647.6,34,656.4z"/>
	<path class="st26" d="M88.1,656.4c-3.2-10.6-2.7-24.1,3.4-36.5c0,0-16.8,12.2-13,36.5H88.1z"/>
	<path class="st25" d="M31.9,656.4c-0.9-9.8-6.8-22-21.5-34.4c0,0,30.7,7.5,28.1,34.4H31.9z"/>
	<path class="st25" d="M89.5,656.4c1.7-8.9,7.6-19.6,19.8-29.4c0,0-28.1,4.1-28.4,29.4H89.5z"/>
	<path class="st25" d="M85.5,656.4c-14-18.7-6.9-38.4-6.9-38.4c-7.9,12-10.4,23.7-6,38.4H85.5z"/>
	<path class="st25" d="M62.5,656.4c-2.5-9.2-4-18.1,1-29.3c0,0-10.7,14.7-10.5,29.3H62.5z"/>
	<path class="st26" d="M73.9,656.4c-3.1-10.4-8.3-32-2.2-45.7c0,0-12,20.3-7.4,45.7H73.9z"/>
	<path class="st25" d="M68.2,656.4c-4.9-9.9-0.4-19.7,3.1-27.1c0,0-15.5,12.2-13,27.1H68.2z"/>
	<path class="st26" d="M63.6,656.4c-6.2-7.2-13.7-18.4-11.3-28c0,0-6.4,11.4-1.3,28H63.6z"/>
</g>
<g>
	<path class="st25" d="M952.6,707.2c5.2-13.8,8.7-29.1,3.3-38.6c0,0,0.5,21.1-15.9,38.6H952.6z"/>
	<path class="st25" d="M934.7,707.2h17c5.6-31.9-10.2-47.4-10.2-47.4C948.6,677.6,942,695.1,934.7,707.2z"/>
	<path class="st26" d="M935.1,707.2h10.1c12.1-23.9-13.4-36.5-13.4-36.5C942.7,685.4,943.2,698.4,935.1,707.2z"/>
	<path class="st26" d="M989.1,707.2c-3.2-10.6-2.7-24.1,3.4-36.5c0,0-16.8,12.2-13,36.5H989.1z"/>
	<path class="st25" d="M932.9,707.2c-0.9-9.8-6.8-22-21.5-34.4c0,0,30.7,7.5,28.1,34.4H932.9z"/>
	<path class="st25" d="M990.5,707.2c1.7-8.9,7.6-19.6,19.8-29.4c0,0-28.1,4.1-28.4,29.4H990.5z"/>
	<path class="st25" d="M986.6,707.2c-14-18.7-6.9-38.4-6.9-38.4c-7.9,12-10.4,23.7-6,38.4H986.6z"/>
	<path class="st25" d="M963.6,707.2c-2.5-9.2-4-18.1,1-29.3c0,0-10.7,14.7-10.5,29.3H963.6z"/>
	<path class="st26" d="M974.9,707.2c-3.1-10.4-8.3-32-2.2-45.7c0,0-12,20.3-7.4,45.7H974.9z"/>
	<path class="st25" d="M969.3,707.2c-4.9-9.9-0.4-19.7,3.1-27.1c0,0-15.5,12.2-13,27.1H969.3z"/>
	<path class="st26" d="M964.6,707.2c-6.2-7.2-13.7-18.4-11.3-28c0,0-6.4,11.4-1.3,28H964.6z"/>
</g>
<g>
	<path class="st25" d="M870,821.5c5.2-13.8,8.7-29.1,3.3-38.6c0,0,0.5,21.1-15.9,38.6H870z"/>
	<path class="st25" d="M852.1,821.5h17c5.6-31.9-10.2-47.4-10.2-47.4C866,791.9,859.4,809.3,852.1,821.5z"/>
	<path class="st26" d="M852.5,821.5h10.1c12.1-23.9-13.4-36.5-13.4-36.5C860.1,799.7,860.5,812.7,852.5,821.5z"/>
	<path class="st26" d="M906.5,821.5c-3.2-10.6-2.7-24.1,3.4-36.5c0,0-16.8,12.2-13,36.5H906.5z"/>
	<path class="st25" d="M850.3,821.5c-0.9-9.8-6.8-22-21.5-34.4c0,0,30.7,7.5,28.1,34.4H850.3z"/>
	<path class="st25" d="M907.9,821.5c1.7-8.9,7.6-19.6,19.8-29.4c0,0-28.1,4.1-28.4,29.4H907.9z"/>
	<path class="st25" d="M903.9,821.5c-14-18.7-6.9-38.4-6.9-38.4c-7.9,12-10.4,23.7-6,38.4H903.9z"/>
	<path class="st25" d="M880.9,821.5c-2.5-9.2-4-18.1,1-29.3c0,0-10.7,14.7-10.5,29.3H880.9z"/>
	<path class="st26" d="M892.3,821.5c-3.1-10.4-8.3-32-2.2-45.7c0,0-12,20.3-7.4,45.7H892.3z"/>
	<path class="st25" d="M886.6,821.5c-4.9-9.9-0.4-19.7,3.1-27.1c0,0-15.5,12.2-13,27.1H886.6z"/>
	<path class="st26" d="M882,821.5c-6.2-7.2-13.7-18.4-11.3-28c0,0-6.4,11.4-1.3,28H882z"/>
</g>
<g>
	<path class="st25" d="M450.9,783.7c5.2-13.8,8.7-29.1,3.3-38.6c0,0,0.5,21.1-15.9,38.6H450.9z"/>
	<path class="st25" d="M433,783.7h17c5.6-31.9-10.2-47.4-10.2-47.4C446.9,754.1,440.3,771.5,433,783.7z"/>
	<path class="st26" d="M433.4,783.7h10.1c12.1-23.9-13.4-36.5-13.4-36.5C441,761.9,441.5,774.9,433.4,783.7z"/>
	<path class="st26" d="M487.4,783.7c-3.2-10.6-2.7-24.1,3.4-36.5c0,0-16.8,12.2-13,36.5H487.4z"/>
	<path class="st25" d="M431.2,783.7c-0.9-9.8-6.8-22-21.5-34.4c0,0,30.7,7.5,28.1,34.4H431.2z"/>
	<path class="st25" d="M488.8,783.7c1.7-8.9,7.6-19.6,19.8-29.4c0,0-28.1,4.1-28.4,29.4H488.8z"/>
	<path class="st25" d="M484.9,783.7c-14-18.7-6.9-38.4-6.9-38.4c-7.9,12-10.4,23.7-6,38.4H484.9z"/>
	<path class="st25" d="M461.8,783.7c-2.5-9.2-4-18.1,1-29.3c0,0-10.7,14.7-10.5,29.3H461.8z"/>
	<path class="st26" d="M473.2,783.7c-3.1-10.4-8.3-32-2.2-45.7c0,0-12,20.3-7.4,45.7H473.2z"/>
	<path class="st25" d="M467.5,783.7c-4.9-9.9-0.4-19.7,3.1-27.1c0,0-15.5,12.2-13,27.1H467.5z"/>
	<path class="st26" d="M462.9,783.7c-6.2-7.2-13.7-18.4-11.3-28c0,0-6.4,11.4-1.3,28H462.9z"/>
</g>
</svg>
