<?xml version="1.0" encoding="utf-8"?>
<!-- Generator: Adobe Illustrator 24.0.2, SVG Export Plug-In . SVG Version: 6.00 Build 0)  -->
<svg version="1.1" id="Layer_1" xmlns="http://www.w3.org/2000/svg" xmlns:xlink="http://www.w3.org/1999/xlink" x="0px" y="0px"
	 viewBox="0 0 440 638" style="enable-background:new 0 0 440 638;" height="638" width="440" xml:space="preserve">
<style type="text/css">
	.st0{fill:#4B8F46;}
	.st1{fill:#52994D;}
	.st2{opacity:0.5;fill:#60A95E;}
	.st3{fill:#60A95E;}
	.st4{fill:#44883F;}
</style>
<g>
	<g>
		<g>
			<path class="st0" d="M330.5,96.3c-0.1,0.1-0.2,0.2-0.2,0.3c0.2,0.2,0.4,0.3,0.7,0.5C330.8,96.8,330.7,96.5,330.5,96.3z"/>
			<path class="st0" d="M324,84.5c2.7-2.7,4.1-5.5,4.1-5.5s-1.4-1-9.9-3.5c0.4,2.9,0.3,5.8-0.2,8.7C319.9,84.2,321.9,84.3,324,84.5z
				"/>
			<path class="st0" d="M420.5,448.6c-0.8-0.6-1.7-0.9-2.6-1.2c8.8-2.7,17.4-8.2,17.4-8.2s-4.4-0.4-17.5-3.5
				c-1.7-0.4-3.3-0.7-4.7-0.9c6.6-9.6,7.8-21.7,0-34.6c6.4-0.8,12.7-5.2,12.7-5.2s-5.5-4-8.4-9c-0.2-0.3-0.3-0.7-0.5-1
				c5.5,1.5,14.6-3.1,14.6-3.1s-5.2-1.4-13-5.7c-1.3-0.7-2.7-1.2-4.1-1.6c0.1-0.1,0.2-0.2,0.3-0.3c5.3-6.6,8.7-14.3,8.8-22.8
				c0-9.8-4.5-18.1-11.8-23.1c8-2,14.5-9,14.5-9s-3.1,0.7-14.8-5.4c-2.4-1.3-4.4-1.8-6.1-2c-0.3-9.6-4.2-18.7-11-25.2
				c3.2-3.1,6.4-7.1,8.1-12.1c0,0-4.1-0.3-9.7,1c3-7.1,1.9-17-3.2-24.4c3.2-0.5,5.6-1.1,5.6-1.1s-0.6-2-8.4-7.7
				c-3-2.2-6.5-3.4-9.6-4.1c3.7-8.9,5.3-18.7,1.5-26c5.9,0.3,11.5-1.1,11.5-1.1s-3.7-5-11.1-11.2c-2-1.7-4.3-2.4-6.7-2.6
				c0.9-6.4-0.1-12.7-2.8-18c6.3-2.2,11.9-6.5,11.9-6.5s-5.2-1.3-14.1-7.5c-1.8-1.2-4.1-2-6.5-2.7c1.1-0.4,2.3-0.8,3.3-1.3
				c5.8-2.6,7.4-12.3,7.4-12.3s0,0-8.1,2.5c-1.1,0.3-2.2,0.8-3.2,1.3c-0.1-11.6-6.5-22.1-16.7-27.9c5.3-4.3,8.1-10.7,8.1-10.7
				s-3,0.7-10,0.1c0.3,1.9,0.4,3.9,0.2,5.9c-0.4,4.5-2.3,9.6-5.1,13.8c3.4,1.8,11.4,6.9,14.6,13.4c-2.4,3.5-7.6,4.3-14.6,7.4
				c2.3,1.9,4,4.7,4.7,8.1c0.3,1.5,0.3,2.9,0.1,4.3c2,0.4,4.2,0.8,6.5,1.5c9.4,2.7,13.4,3.9,13.4,3.9s-6.7,5.1-14.5,6.3
				c2.1,1.4,3.9,3.2,5.1,5.4c3.1,5.6,2.4,11.9-0.6,17c1.7,0.2,3.5,0.5,5.6,0.7c11.7,1.3,18.9,5.5,18.9,5.5s-5.9,3.5-12.9,4.9
				c3,3.1,5.2,6.9,5.9,11.6c1.1,6.8-1.2,13.4-5.7,17.9c4.5,1.2,9.8,1.9,13,0.4c0,0-4.4,7.1-10.4,10.1c3.1,6.8,1.5,15.1-5.4,18.5
				c6,6.9,7.4,16.3,3.4,23c6.4,2.6,10.8,7.3,10.8,7.3c-4.6-0.5-10.2,0-14.8,0.6c8.5,8.1,14.6,19.3,7.6,30.5
				c-0.6,0.9-1.4,1.6-2.1,2.4c6.2,0.4,12.6,0.2,14.8-2.1c-1,6.4-5.6,13.2-12.7,15.9c1.2,2.1,2.1,4.5,2.2,7.3c0.2,4.9-1.8,9.2-5,12.1
				c3.1,2,6.5,4.4,9.2,6.8c6.8,6.2,13,10.3,13,10.3s-7.9,1.2-16.4-2c3.5,7.8,3.8,16.8-0.5,25.7c-2.5,5.2-7.2,10.2-12.6,13.3
				c4.3,0.8,8.9,1.2,12,0.4c0,0-7,10.2-17.5,11.3c0.6,2.4,0.7,4.9-0.1,7.7c-0.3,1.2-0.9,2.3-1.5,3.4c2.9,2.3,6.4,5.5,7.8,8.6
				c2.5,5.6,5.1,9.6,5.1,9.6s-6-0.3-11.6-2.8c0.6,8.6-3.6,18.3-11.2,24c2.4,1.1,4.9,2.4,7.3,4c-2,1.8-8.5,7-14.4,6.8
				c0.2,3.3-0.5,6.7-2.4,10.1c-4.6,8-12.4,11-20.8,11.6c-0.1,3.3-0.5,7.9-1.4,12.8c-1.8,9.6-3.1,11.5-3.1,11.5s-3.7-3.8-6.5-8.6
				c-0.7,2-1.7,4-3,5.9c-8.3,11.9-22.5,13.5-35,9.5c2.4,4.5,10.6,15.1,10.6,15.1s-14.4-4.2-22.4-10.1c-7.5,10.8-22.1,14.2-33.2,6.1
				c-1,1.1-2.1,2.4-3.5,4.1c-5.1,6.3-5.7,10.4-5.7,10.4s-5.1-3-6.6-7.7c-4.8,1.9-10.1,2.3-15.2,0.9c0,0.1,0,0.2,0,0.4
				c-0.1,7.8-1.9,9.6-1.9,9.6s-10.4-5.4-15.8-13c-15.4,12.2-36.5,8.5-47.7-6.8c-1.9,0.7-4.4,1.6-7.6,2.4c-9.2,2.2-13.7,4.7-13.7,4.7
				s-1.1-4.7,2.8-11c-7,2.6-14.2,3.8-21.3,0c-2.7-1.4-4.7-3.1-6.3-5.1c-0.4,1.2-0.8,2.3-1.3,3.3c-3.6,6.7-6.4,7.9-6.4,7.9
				s-3.8-8.9-4.2-15.1c-6.4,1.1-12.6,0.6-17.4-2.3c0.2,0.9,0.5,1.8,0.9,2.7c3.6,8.6,11,12.5,19.3,14.1c-0.3,3.3-0.5,7.9-0.2,12.9
				c0.6,9.7,1.6,11.8,1.6,11.8s4.2-3.3,7.5-7.7c0.5,2.1,1.2,4.2,2.3,6.2c6.7,12.8,20.6,16.2,33.6,13.7c-3,4.2-12.4,13.6-12.4,13.6
				s14.9-2.4,23.5-7.3c6.1,11.6,20.2,16.8,32.2,10.1c0.8,1.2,1.8,2.6,3,4.5c4.3,6.9,4.4,11,4.4,11s5.4-2.4,7.6-6.9
				c4.6,2.5,9.7,3.5,15,2.8c0,0.1,0,0.2,0,0.4c-0.8,7.7,0.7,9.7,0.7,9.7s10.9-4,17.3-11c13.7,14,35.2,12.9,48.2-0.9
				c1.8,1,4.2,2.1,7.3,3.3c8.8,3.4,13,6.3,13,6.3s1.6-4.6-1.4-11.2c6.7,3.4,13.6,5.5,21.1,2.6c2.8-1.1,5.1-2.5,6.8-4.3
				c0.2,1.2,0.5,2.4,0.9,3.4c2.8,7.1,5.4,8.6,5.4,8.6s4.9-8.4,6-14.5c8,2.4,16.1,2.3,21.6-2.8c3.6,2.6,7.5,4.9,10.5,4.2
				c6.6-1.5,11.2-1.6,11.2-1.6s-2.8-5-6.2-9.6c10-2.1,18.7-8.3,23.8-16.4c1.5,1.1,3.2,2.1,4.9,2.8c7.3,2.9,11.9,5.3,11.9,5.3
				s-2-11.5-7.2-20.1c6.3-3.4,12.8-10.9,14.6-18.2c2.2-0.4,4.5-1.1,6.9-2.2c9.1-4.2,16.6-12.9,16.6-12.9s-4.2-0.6-9.9-0.6
				c4.4-4.1,8-8.3,9.9-11.2c6.3-9.8,7.1-23.1,1.5-31.8c0,0,0,0,0,0c9.2,1,13.3-0.4,13.3-0.4s-9.7-8.4-17-13c5.1-9.3,6.2-19.7,3.6-29
				c7.5-0.2,15.9-0.4,15.9-0.4S428.9,454.9,420.5,448.6z"/>
		</g>
		<g>
			<path class="st1" d="M386.9,385.2c0,0-6.1-4-13-10.3c-2.7-2.4-6-4.8-9.2-6.8c3.1-2.9,5.1-7.2,5-12.1c-0.1-2.8-1-5.2-2.2-7.3
				c7.1-2.7,11.8-9.5,12.7-15.9c-2.2,2.3-8.5,2.5-14.8,2.1c0.7-0.8,1.5-1.5,2.1-2.4c7-11.2,0.9-22.4-7.6-30.5
				c4.6-0.6,10.1-1.1,14.8-0.6c0,0-4.5-4.8-10.8-7.3c4-6.7,2.6-16.1-3.4-23c6.9-3.4,8.5-11.7,5.4-18.5c6-2.9,10.4-10.1,10.4-10.1
				c-3.3,1.5-8.5,0.8-13-0.4c4.4-4.5,6.7-11.1,5.7-17.9c-0.7-4.7-2.9-8.5-5.9-11.6c7-1.5,12.9-4.9,12.9-4.9s-7.1-4.2-18.9-5.5
				c-2-0.2-3.8-0.4-5.6-0.7c3-5.1,3.7-11.4,0.6-17c-1.2-2.2-3.1-4-5.1-5.4c7.8-1.2,14.5-6.3,14.5-6.3s-4-1.2-13.4-3.9
				c-2.4-0.7-4.6-1.2-6.5-1.5c0.2-1.4,0.2-2.9-0.1-4.3c-0.7-3.3-2.4-6.2-4.7-8.1c7-3.2,12.1-4,14.6-7.4
				c-3.1-6.5-11.2-11.6-14.6-13.4c2.9-4.3,4.7-9.3,5.1-13.8c0.2-2.1,0.1-4-0.2-5.9c-1-7.4-5-13.3-10.7-17.3
				c-0.2-0.2-0.4-0.4-0.7-0.5c0.1-0.1,0.2-0.2,0.2-0.3c4.3-4.6,6.7-13.7,6.7-13.7s-4.6,2.8-11.7,1.9c-0.5-0.1-1,0-1.5-0.1
				c-2-0.2-4.1-0.3-5.9-0.2c0.5-2.9,0.5-5.9,0.2-8.7c-0.3-2.6-1.1-5.1-2.4-7.5c0.2,3.3-0.3,6.8-2.5,10.3c2.2,6,1.6,13.2-2.9,18.4
				c3.4,1.8,6.2,4.7,8,8.6c3.3,7.2,1.6,14.3-1.9,20.6c2.2,0.7,4.6,1.6,6.9,2.8c6.4,3.2,11.7,2.1,11.7,2.1s-5.5,8.1-11.2,10.8
				c5.4,7.2,7.2,16.7,2.9,26.3c-1.9,4.1-5.4,8.3-9.5,11.3c2.6,2.8,8.5,10.3,9.2,17.5c-3.5,2.4-8.6,1.5-16.2,2.1
				c1.6,2.5,2.2,5.8,1.7,9.2c-0.2,1.5-0.7,2.8-1.4,4.1c1.7,1,3.6,2.2,5.6,3.6c8,5.7,11.3,8.2,11.3,8.2s-8.1,2.6-15.8,1.1
				c1.5,2,2.6,4.3,3,6.8c1.1,6.4-1.7,12-6.2,15.8c1.6,0.8,3.2,1.6,5,2.5c10.6,5.1,16,11.5,16,11.5s-6.7,1.3-13.8,0.3
				c1.8,3.9,2.6,8.2,1.7,12.9c-1.3,6.8-5.6,12.2-11.3,15c3.9,2.6,8.6,5.1,12.1,4.7c0,0-6.5,5.3-13.2,6c0.6,7.4-3.6,14.8-11.3,15.6
				c3.3,8.5,1.5,17.8-4.5,22.8c5.1,4.5,7.7,10.5,7.7,10.5c-4.2-2-9.6-3.4-14.1-4.4c5.3,10.5,7.3,23.1-3,31.3
				c-0.8,0.7-1.8,1.1-2.7,1.6c5.7,2.5,11.8,4.4,14.6,3c-3,5.7-9.7,10.5-17.3,10.7c0.4,2.4,0.5,4.9-0.4,7.6c-1.5,4.7-4.8,8-8.7,9.7
				c2.3,2.9,4.7,6.3,6.4,9.5c4.4,8.2,8.8,14,8.8,14s-7.9-1.5-14.8-7.4c0.6,8.5-2.1,17.1-9.1,24c-4.1,4.1-10.3,7.2-16.4,8.3
				c3.8,2.2,8,4.1,11.2,4.4c0,0-10.1,7.2-20.2,4.8c-0.3,2.4-1,4.9-2.7,7.2c-0.7,1.1-1.6,1.9-2.6,2.7c1.9,3.1,4.2,7.3,4.5,10.7
				c0.5,6.1,1.6,10.7,1.6,10.7s-5.5-2.3-10-6.5c-2.3,8.3-9.6,16-18.6,18.8c1.9,1.8,3.8,3.9,5.5,6.2c-2.5,1-10.4,3.7-15.8,1.6
				c-0.7,2.4-1.9,4.7-3.7,6.8c-5.6,0.5-11.3-1.9-16.6-5.7c-3.1,5.4-10.5,11.6-10.5,11.6s-2-2.3-2.2-9.9c0-1.1,0.1-2.3,0.3-3.5
				c-2.2,1.1-4.9,1.6-7.9,1.7c-8,0.2-13.9-4.1-19-9.6c0.6,7.3-2.5,11.1-2.5,11.1s-2.9-4.2-10.1-10.3c-2.5-2.1-4.4-4-5.7-5.5
				c-16.9,8.7-37.4,2.5-45.7-15.3c-8.3,4.4-20,4.5-20,4.5s-0.8-2.4,2.6-9.4c0.1-0.1,0.1-0.2,0.1-0.3c-5.1-1.1-9.7-3.8-13.1-7.7
				c-1.8,1.8-4.3,2.8-6.2,3.3c0.2,0.6,0.3,1.3,0.6,1.8c-3.1,1.9-7,4.7-8.8,7.6c-3.2,5.2-6.2,8.9-6.2,8.9s6,0.5,11.9-1.4
				c-1.7,8.5,1.4,18.6,8.1,25.2c-2.5,0.8-5.1,1.8-7.8,3.1c1.8,2,7.6,8,13.4,8.5c-0.5,2.4-0.4,5,0.2,7.7c4.7,2.9,11,3.4,17.4,2.3
				c0.4,6.2,4.2,15.1,4.2,15.1s2.8-1.1,6.4-7.9c0.5-1,1-2.1,1.3-3.3c1.5,1.9,3.6,3.7,6.3,5.1c7.1,3.8,14.2,2.6,21.3,0
				c-3.8,6.2-2.8,11-2.8,11s4.5-2.4,13.7-4.7c3.2-0.8,5.7-1.6,7.6-2.4c11.2,15.3,32.3,19,47.7,6.8c5.4,7.7,15.8,13,15.8,13
				s1.8-1.8,1.9-9.6c0-0.1,0-0.2,0-0.4c5.1,1.3,10.3,1,15.2-0.9c1.6,4.7,6.6,7.7,6.6,7.7s0.6-4.1,5.7-10.4c1.4-1.7,2.5-3,3.5-4.1
				c11.1,8.1,25.7,4.7,33.2-6.1c8,5.9,22.4,10.1,22.4,10.1s-8.2-10.5-10.6-15.1c12.5,4,26.8,2.4,35-9.5c1.3-1.9,2.3-3.9,3-5.9
				c2.8,4.8,6.5,8.6,6.5,8.6s1.3-1.9,3.1-11.5c0.9-4.9,1.2-9.5,1.4-12.8c8.4-0.5,16.3-3.5,20.8-11.6c1.9-3.4,2.6-6.9,2.4-10.1
				c5.9,0.2,12.4-5,14.4-6.8c-2.4-1.6-4.9-2.9-7.3-4c7.5-5.6,11.8-15.3,11.2-24c5.6,2.5,11.6,2.8,11.6,2.8s-2.6-4-5.1-9.6
				c-1.4-3.1-4.9-6.3-7.8-8.6c0.6-1.1,1.2-2.1,1.5-3.4c0.8-2.8,0.6-5.3,0.1-7.7c10.4-1.1,17.5-11.3,17.5-11.3
				c-3.2,0.8-7.7,0.4-12-0.4c5.4-3.1,10.1-8,12.6-13.3c4.3-8.9,4-17.9,0.5-25.7C379,386.4,386.9,385.2,386.9,385.2z"/>
			<path class="st1" d="M52.3,484.2c-0.1,0.1-0.1,0.2-0.1,0.3c-3.4,7-2.6,9.4-2.6,9.4s11.7-0.1,20-4.5c8.2,17.8,28.8,24,45.7,15.3
				c1.4,1.5,3.2,3.4,5.7,5.5c7.2,6.1,10.1,10.3,10.1,10.3s3.1-3.8,2.5-11.1c5.1,5.5,11,9.8,19,9.6c3-0.1,5.6-0.7,7.9-1.7
				c-0.2,1.2-0.3,2.4-0.3,3.5c0.2,7.6,2.2,9.9,2.2,9.9s7.4-6.2,10.5-11.6c5.2,3.9,11,6.2,16.6,5.7c1.8-2.1,3-4.4,3.7-6.8
				c5.5,2.1,13.4-0.6,15.8-1.6c-1.7-2.3-3.7-4.4-5.5-6.2c9-2.8,16.3-10.5,18.6-18.8c4.4,4.3,10,6.5,10,6.5s-1.1-4.6-1.6-10.7
				c-0.3-3.4-2.5-7.6-4.5-10.7c0.9-0.8,1.8-1.6,2.6-2.7c1.7-2.3,2.4-4.8,2.7-7.2c10.2,2.5,20.2-4.8,20.2-4.8
				c-3.3-0.3-7.4-2.2-11.2-4.4c6.1-1.1,12.2-4.2,16.4-8.3c7-6.9,9.7-15.5,9.1-24c6.9,5.9,14.8,7.4,14.8,7.4s-4.4-5.9-8.8-14
				c-1.7-3.2-4.1-6.5-6.4-9.5c3.9-1.7,7.2-5,8.7-9.7c0.9-2.7,0.8-5.2,0.4-7.6c7.6-0.2,14.3-5,17.3-10.7c-2.9,1.4-8.9-0.5-14.6-3
				c0.9-0.5,1.9-0.9,2.7-1.6c10.3-8.2,8.4-20.8,3-31.3c4.5,1,9.9,2.4,14.1,4.4c0,0-2.6-6-7.7-10.5c6.1-4.9,7.8-14.3,4.5-22.8
				c7.7-0.9,11.9-8.2,11.3-15.6c6.7-0.7,13.2-6,13.2-6c-3.6,0.3-8.3-2.1-12.1-4.7c5.7-2.8,10.1-8.2,11.3-15c0.9-4.7,0.1-9-1.7-12.9
				c7.1,1,13.8-0.3,13.8-0.3s-5.3-6.4-16-11.5c-1.8-0.9-3.5-1.7-5-2.5c4.5-3.8,7.3-9.5,6.2-15.8c-0.4-2.5-1.5-4.8-3-6.8
				c7.7,1.5,15.8-1.1,15.8-1.1s-3.3-2.5-11.3-8.2c-2-1.4-3.9-2.6-5.6-3.6c0.7-1.3,1.2-2.6,1.4-4.1c0.5-3.4-0.2-6.7-1.7-9.2
				c7.6-0.6,12.8,0.3,16.2-2.1c-0.8-7.2-6.7-14.7-9.2-17.5c4.1-3.1,7.6-7.2,9.5-11.3c4.4-9.6,2.5-19.1-2.9-26.3
				c5.7-2.7,11.2-10.8,11.2-10.8s-5.2,1.1-11.7-2.1c-2.3-1.1-4.7-2.1-6.9-2.8c3.6-6.3,5.2-13.4,1.9-20.6c-1.8-3.9-4.6-6.7-8-8.6
				c4.5-5.3,5-12.4,2.9-18.4c2.2-3.5,2.7-7,2.5-10.3c-0.8-1.3-1.6-2.6-2.8-3.8c-3-3-6.6-4.8-10.4-5.4c0.7-1.8,1-3.7,1-5.5
				c0-0.2,0-0.5-0.1-0.7c-1.4,0.3-4.9,0.7-12,0.5c-1.6-0.1-3-0.1-4.2-0.1c-1.9-9.1-8.6-17.7-18.3-23.4c7.3-3.9,13.4-10.5,13.4-10.5
				s-4.7-3-15.4,0c-1.7,0.5-3.2,0.9-4.6,1.4c-0.6-5.1-2.7-10-9.1-15.2c-10.1,3.6-15.6,6.8-18.2,10.4c-6.5-3.6-25.4-0.1-30.5-9.1
				c-5.6,4.2-4.8,11.7-3.5,18c-4.5-3.5-9.8-8.1-12.6-12.4c0,0-1.5,7.4,0.9,14.8c-3.4,0.5-6.9,1.7-9.9,3.8
				c-6.3,4.5-9.4,10.1-9.3,16.6c-4.1-2.4-8.5-5.3-11.5-8.3c-1.1-1.1,0,9.1,4.9,14.9c-5.3,1.4-10.2,4.4-13.5,9.4
				c-2.1,3.2-3.5,7.7-3.8,12.1c-3.7,0.3-9,0.8-14.3,1.9c-9.7,1.9-12.2,5.3-12.2,5.3s6.3,3.4,14.4,4.1c-4.6,4.4-7.4,11-5.7,17.8
				c-3.8,0.1-7.7,1.4-11,4.1c-6.2,4.9-7.9,12-7.5,19.3c-2.3-0.3-4.8-0.6-7.4-0.6c-7.2,0-11.4-3.4-11.4-3.4s1.3,9.7,5.1,14.7
				c-8.1,4-13.9,11.6-14.4,22.2c-0.2,4.5,1.1,9.8,3.4,14.4c-3.6,1.3-12.2,5.4-16.1,11.5c2,3.7,7,5.2,13.5,9.2
				c-2.5,1.6-4.6,4.2-5.7,7.4c-0.5,1.4-0.6,2.9-0.6,4.3c-2,0.1-4.2,0.3-6.7,0.7c-9.7,1.5-13.8,2.2-13.8,2.2s6.1,5.9,13.6,8.1
				c-2.2,1.1-4.2,2.7-5.7,4.7c-3.8,5.2-3.8,11.5-1.5,16.9c-1.7,0-3.6,0-5.6,0c-11.8-0.2-19.4,3.1-19.4,3.1s5.4,4.2,12.2,6.5
				c-3.4,2.7-6,6.2-7.3,10.7c-1.9,6.6-0.4,13.4,3.4,18.5c-4.6,0.6-9.9,0.7-13-1.2c0,0,3.5,7.6,9.1,11.3c-3.9,6.4-3.4,14.8,3.1,19
				c-6.8,6.1-9.4,15.3-6.2,22.4c-6.6,1.8-11.6,5.9-11.6,5.9c4.6,0.1,10.1,1.3,14.6,2.4c-9.5,7-16.9,17.4-11.3,29.3
				c0.4,1,1.2,1.8,1.7,2.6c-6.2-0.4-12.5-1.4-14.4-3.9c0.2,6.4,4,13.8,10.7,17.4c-1.5,2-2.6,4.2-3.1,7c-0.8,4.9,0.7,9.3,3.4,12.6
				c-3.4,1.6-7,3.5-9.9,5.6c-7.6,5.3-14.1,8.6-14.1,8.6s7.7,2.2,16.5,0c-4.4,7.3-5.8,16.2-2.7,25.5c1.9,5.5,5.9,11,10.9,14.7
				c-4.4,0.2-9,0.1-12-1.1c0,0,5.7,11,15.9,13.4c-0.9,2.3-1.3,4.8-0.9,7.6c0.1,0.6,0.3,1.1,0.5,1.7c1.9-0.5,4.4-1.5,6.2-3.3
				C42.6,480.4,47.1,483,52.3,484.2z"/>
			<path class="st2" d="M52.3,484.2c-0.1,0.1-0.1,0.2-0.1,0.3c-3.4,7-2.6,9.4-2.6,9.4s11.7-0.1,20-4.5c8.2,17.8,28.8,24,45.7,15.3
				c1.4,1.5,3.2,3.4,5.7,5.5c7.2,6.1,10.1,10.3,10.1,10.3s3.1-3.8,2.5-11.1c5.1,5.5,11,9.8,19,9.6c3-0.1,5.6-0.7,7.9-1.7
				c-0.2,1.2-0.3,2.4-0.3,3.5c0.2,7.6,2.2,9.9,2.2,9.9s7.4-6.2,10.5-11.6c5.2,3.9,11,6.2,16.6,5.7c1.8-2.1,3-4.4,3.7-6.8
				c5.5,2.1,13.4-0.6,15.8-1.6c-1.7-2.3-3.7-4.4-5.5-6.2c9-2.8,16.3-10.5,18.6-18.8c4.4,4.3,10,6.5,10,6.5s-1.1-4.6-1.6-10.7
				c-0.3-3.4-2.5-7.6-4.5-10.7c0.9-0.8,1.8-1.6,2.6-2.7c1.7-2.3,2.4-4.8,2.7-7.2c10.2,2.5,20.2-4.8,20.2-4.8
				c-3.3-0.3-7.4-2.2-11.2-4.4c6.1-1.1,12.2-4.2,16.4-8.3c7-6.9,9.7-15.5,9.1-24c6.9,5.9,14.8,7.4,14.8,7.4s-4.4-5.9-8.8-14
				c-1.7-3.2-4.1-6.5-6.4-9.5c3.9-1.7,7.2-5,8.7-9.7c0.9-2.7,0.8-5.2,0.4-7.6c7.6-0.2,14.3-5,17.3-10.7c-2.9,1.4-8.9-0.5-14.6-3
				c0.9-0.5,1.9-0.9,2.7-1.6c10.3-8.2,8.4-20.8,3-31.3c4.5,1,9.9,2.4,14.1,4.4c0,0-2.6-6-7.7-10.5c6.1-4.9,7.8-14.3,4.5-22.8
				c7.7-0.9,11.9-8.2,11.3-15.6c6.7-0.7,13.2-6,13.2-6c-3.6,0.3-8.3-2.1-12.1-4.7c5.7-2.8,10.1-8.2,11.3-15c0.9-4.7,0.1-9-1.7-12.9
				c7.1,1,13.8-0.3,13.8-0.3s-5.3-6.4-16-11.5c-1.8-0.9-3.5-1.7-5-2.5c4.5-3.8,7.3-9.5,6.2-15.8c-0.4-2.5-1.5-4.8-3-6.8
				c7.7,1.5,15.8-1.1,15.8-1.1s-3.3-2.5-11.3-8.2c-2-1.4-3.9-2.6-5.6-3.6c0.7-1.3,1.2-2.6,1.4-4.1c0.5-3.4-0.2-6.7-1.7-9.2
				c7.6-0.6,12.8,0.3,16.2-2.1c-0.8-7.2-6.7-14.7-9.2-17.5c4.1-3.1,7.6-7.2,9.5-11.3c4.4-9.6,2.5-19.1-2.9-26.3
				c5.7-2.7,11.2-10.8,11.2-10.8s-5.2,1.1-11.7-2.1c-2.3-1.1-4.7-2.1-6.9-2.8c3.6-6.3,5.2-13.4,1.9-20.6c-1.8-3.9-4.6-6.7-8-8.6
				c4.5-5.3,5-12.4,2.9-18.4c2.2-3.5,2.7-7,2.5-10.3c-0.8-1.3-1.6-2.6-2.8-3.8c-3-3-6.6-4.8-10.4-5.4c0.7-1.8,1-3.7,1-5.5
				c0-0.2,0-0.5-0.1-0.7c-1.4,0.3-4.9,0.7-12,0.5c-1.6-0.1-3-0.1-4.2-0.1c-1.9-9.1-8.6-17.7-18.3-23.4c7.3-3.9,13.4-10.5,13.4-10.5
				s-4.7-3-15.4,0c-1.7,0.5-3.2,0.9-4.6,1.4c-0.6-5.1-2.7-10-9.1-15.2c-10.1,3.6-15.6,6.8-18.2,10.4c-6.5-3.6-25.4-0.1-30.5-9.1
				c-5.6,4.2-4.8,11.7-3.5,18c-4.5-3.5-9.8-8.1-12.6-12.4c0,0-1.5,7.4,0.9,14.8c-3.4,0.5-6.9,1.7-9.9,3.8
				c-6.3,4.5-9.4,10.1-9.3,16.6c-4.1-2.4-8.5-5.3-11.5-8.3c-1.1-1.1,0,9.1,4.9,14.9c-5.3,1.4-10.2,4.4-13.5,9.4
				c-2.1,3.2-3.5,7.7-3.8,12.1c-3.7,0.3-9,0.8-14.3,1.9c-9.7,1.9-12.2,5.3-12.2,5.3s6.3,3.4,14.4,4.1c-4.6,4.4-7.4,11-5.7,17.8
				c-3.8,0.1-7.7,1.4-11,4.1c-6.2,4.9-7.9,12-7.5,19.3c-2.3-0.3-4.8-0.6-7.4-0.6c-7.2,0-11.4-3.4-11.4-3.4s1.3,9.7,5.1,14.7
				c-8.1,4-13.9,11.6-14.4,22.2c-0.2,4.5,1.1,9.8,3.4,14.4c-3.6,1.3-12.2,5.4-16.1,11.5c2,3.7,7,5.2,13.5,9.2
				c-2.5,1.6-4.6,4.2-5.7,7.4c-0.5,1.4-0.6,2.9-0.6,4.3c-2,0.1-4.2,0.3-6.7,0.7c-9.7,1.5-13.8,2.2-13.8,2.2s6.1,5.9,13.6,8.1
				c-2.2,1.1-4.2,2.7-5.7,4.7c-3.8,5.2-3.8,11.5-1.5,16.9c-1.7,0-3.6,0-5.6,0c-11.8-0.2-19.4,3.1-19.4,3.1s5.4,4.2,12.2,6.5
				c-3.4,2.7-6,6.2-7.3,10.7c-1.9,6.6-0.4,13.4,3.4,18.5c-4.6,0.6-9.9,0.7-13-1.2c0,0,3.5,7.6,9.1,11.3c-3.9,6.4-3.4,14.8,3.1,19
				c-6.8,6.1-9.4,15.3-6.2,22.4c-6.6,1.8-11.6,5.9-11.6,5.9c4.6,0.1,10.1,1.3,14.6,2.4c-9.5,7-16.9,17.4-11.3,29.3
				c0.4,1,1.2,1.8,1.7,2.6c-6.2-0.4-12.5-1.4-14.4-3.9c0.2,6.4,4,13.8,10.7,17.4c-1.5,2-2.6,4.2-3.1,7c-0.8,4.9,0.7,9.3,3.4,12.6
				c-3.4,1.6-7,3.5-9.9,5.6c-7.6,5.3-14.1,8.6-14.1,8.6s7.7,2.2,16.5,0c-4.4,7.3-5.8,16.2-2.7,25.5c1.9,5.5,5.9,11,10.9,14.7
				c-4.4,0.2-9,0.1-12-1.1c0,0,5.7,11,15.9,13.4c-0.9,2.3-1.3,4.8-0.9,7.6c0.1,0.6,0.3,1.1,0.5,1.7c1.9-0.5,4.4-1.5,6.2-3.3
				C42.6,480.4,47.1,483,52.3,484.2z"/>
		</g>
	</g>
	<path class="st3" d="M269.2,248.5c0,0-3.9-1.4-7.5-3.6c-1.5-0.9-3.1-2.3-4.5-3.6c1.1-8.3-2.8-17-10.4-22.8c4-3.3,4.9-8.1,2.9-12.3
		c4-0.3,8.5-2.7,8.5-2.7s-1.6,0.6-5.3-1c-1.5-0.7-2.9-1.8-4.1-2.8c4.9-5.2,5.1-13.1,0.6-18.9c4.7,0.2,9.3-3.4,9.3-3.4
		s-2.1-0.3-6.9-1.4c4.8-1.8,8.7-8.1,8.7-8.1s-2.1-0.3-6.1,0.2c-1.1,0.1-2.3,0.5-3.4,0.9c0.8-5.5-1.1-11.7-5.3-13.2
		c2.3-1.2,5.2-5.7,4.9-10.5c4.5-0.6,9.2-6.1,9.2-6.1s-2.4,0.4-7.9,0.2c-0.2,0-0.4-0.1-0.6-0.1c1.6-2.5,2.6-5.8,1.9-8.5
		c0,0-1.2,1-2.8,2.4c0.7-5.6-2.6-10.2-6.5-13.3c4.7-1.4,8.8-5.6,8.8-5.6s-2.4,0.5-8,0.3c-1.5-0.1-2.8,0-3.9,0
		c1.3-3.4,1.2-8.1-1.3-11.3c-2.9-3.6-6.3-4.7-10.2-4.7c0,0,0,0,0,0c5-2,8.8-7.2,8.8-7.2s-1.9,0.6-9.6-0.4c-0.6-0.1-0.9-0.2-1.5-0.3
		c-5-11.7-15.5-15.3-20.2-14.8c3.5-3.5,5.4-12,1.7-14.9c-5.7,4.6-13.2,6-15.9,9.1c-1.3-3.8-0.3-9.9-5.3-15.4
		c-8.7,3.4-13.4,10.3-13.7,19.1c-5.9-0.6-10.6-0.3-16.1,3.4c1.2,6.5,4.7,10.1,8.9,12.1c-3.7,0.9-14.9,3.5-18.7,3.9
		c-0.9,7,1.8,10.9,5.1,13.3c-2.6,0.3-5.4,0.9-7.6,1.7c-5.4,2-7.6,3.6-7.6,3.6s4.1,2.6,9,3.4c-7.7,4.7-14,11-16.5,20.7
		c-0.8,3.2-0.9,7.1-0.1,10.4c-2.6-1.4-5.4-2.8-7.7-3.4c0,0,0.7,8.2,7.1,9c0,0,0,0,0.1,0c-6.9,4.7-10.5,12.9-3.4,18.6
		c-3.9,0.7-6.3,4.9-6.3,9.2c-1.3-1-2.6-1.8-3.6-2.3c0,0,0.1,3.5,1.3,6.7c-1-0.2-2.1-0.4-3.2-0.7c-5.5-1.2-6.2-1.5-6.2-1.5
		s2.3,5.8,8.2,7.2c-2.4,2.7-3.5,7.2-1.9,11.4c-5,1.1-8.6,6-6.7,10.9c-1.4,0-3.1,0.1-5.3,0.5c-5.6,1.2-6.4,2.7-6.4,2.7
		s6,1.9,10.5,2.2c-1.4,2.1-2.5,5.2-1.5,10.7c-3.3-1.4-7.4-2.4-11.2-1.7c0,0,0.2,3.6,3.5,6.3c-3,1.4-6.2,3.1-9.2,3.8
		c4.2,9.5,5.8,10.9,14,13.1c-5.9,2.9-12.1,7.7-12,14c0,2.3,2.1,3.4,3.6,4.7c-5.5,5.4-8.8,10.5-12.9,17.8c3.2,4.2,11.9,1.3,16-1.5
		c-4.3,7.1-9.3,15.5-6.5,23.2c-4.8,0.1-8.5,0.7-8.5,0.7s2.7,3.7,6.1,6.1c-4,4.7-7.4,13.2-2.5,20.4c-3.2-0.2-6.5-0.3-8.3,0
		c0,0,4.3,4.8,8.6,7.3c-1.8,3.3-1.9,8-0.7,11.7c-1.9,0.7-4.1,1.4-6,2.2c-4.4,1.7-7.3,2.9-7.3,2.9s7,2.2,12.4,1.3
		c-4.2,4.1-7.8,12.6-0.6,20.3c-3.3,0-7.6,0.3-9.7,1.4c0,0,4.1,5,8.1,6.6c-1.2,4.1-0.5,7.8,2.3,11.1c-1.6,1.1-3.5,2.3-5.5,3.1
		c-4.4,1.8-6.8,2.4-6.8,2.4s7.3,2.5,12.5,0.2c-1.9,6.4,1.5,14.4,7.7,17.4c3.7,1.8,10.8,2.1,16,0.1c1.9,5.4,6.9,12.8,14.6,14.2
		c0.4-3,1.5-9.1,2-15.8c2.5,4.7,12,6.9,15.6,1.5c3.3,3.7,12.2,3.2,16.7-4.6c0,0.1,0,0.1,0,0.2c1.3,5.3,2.5,7.8,2.5,7.8
		s5.7-5.1,6.7-9.7c6.9,1.4,16-2.9,20.7-9.3c0.6,1,1.3,2.1,2.3,3.3c4.1,4.7,8.3,4.4,8.3,4.4s-0.6-7-2.6-11.6
		c11.7-0.8,21.9-13.4,20.9-23.9c2.1-0.2,4.4-0.6,6.6-1.7c5.4-2.9,8.6-4.3,8.1-4.3c-0.3,0-5.2-1.5-9.9-2.1c6-2.7,11.6-7.6,10.3-22.7
		c5.9-5,15.6-9,15.3-18.3c-0.1-1.9-3.1-12.4-6.2-16c5.5-3.2,8.7-10.3,9.4-17.2c2.4,0.4,5.1,0.6,6.5-0.3c3-1.9,4.5-3.7,4.5-3.7
		s-4.3-1.7-8.4-2.4c1.8-2.2,3-5.2,3.3-7.7c0.7-6.1-2-10.9-6-14.6c2.1,0,4.6-0.2,6.8-1c4.8-1.5,4.8-3.3,4.8-3.3s-3.2-1.5-7.5-1.5
		c3.2-2.7,5.6-6.4,5.9-9.9c0.1-0.7,0-1.5-0.1-2.2C263.9,250.2,269.2,248.5,269.2,248.5z"/>
	<g>
		<path class="st4" d="M97.7,568.2c0,0-2,6,0.4,10.8c2.4,4.8,9.3,10.3,8.9,9.8c-0.4-0.5,0.4-6.1-2.6-11.3
			C101.3,572.3,97.7,568.2,97.7,568.2z"/>
		<path class="st0" d="M91.7,523.4c0,0-2,6,0.4,10.8c2.4,4.8,9.3,10.3,8.9,9.8c-0.4-0.5,0.4-6.1-2.6-11.3
			C95.3,527.5,91.7,523.4,91.7,523.4z"/>
		<path class="st1" d="M95.1,471.2c0,0-2,6,0.4,10.8c2.4,4.8,9.3,10.3,8.9,9.8c-0.4-0.5,0.4-6.1-2.6-11.3
			C98.8,475.3,95.1,471.2,95.1,471.2z"/>
		<path class="st1" d="M103.4,344.4c0,0,3.5,5.2,8.8,6.3c5.3,1,13.8-1.1,13.1-1c-0.7,0-4.6-4-10.5-4.8
			C108.8,344,103.4,344.4,103.4,344.4z"/>
		<path class="st1" d="M145.9,146.6c0,0,3.5,5.2,8.8,6.3c5.3,1,13.8-1.1,13.1-1c-0.7,0-4.6-4-10.5-4.8
			C151.4,146.2,145.9,146.6,145.9,146.6z"/>
		<path class="st1" d="M145.2,244.3c0,0,3.5,5.2,8.8,6.3c5.3,1,13.8-1.1,13.1-1c-0.7,0-4.6-4-10.5-4.8
			C150.7,243.9,145.2,244.3,145.2,244.3z"/>
		<path class="st1" d="M175.7,128.1c0,0,3.5,5.2,8.8,6.3c5.3,1,13.8-1.1,13.1-1c-0.7,0-4.6-4-10.5-4.8
			C181.1,127.7,175.7,128.1,175.7,128.1z"/>
		<path class="st1" d="M51.5,356.8c0,0-2,6,0.4,10.8c2.4,4.8,9.3,10.3,8.9,9.8c-0.4-0.5,0.4-6.1-2.6-11.3
			C55.1,360.9,51.5,356.8,51.5,356.8z"/>
		<path class="st1" d="M40.2,385.7c0,0,3.8,5,9.1,5.8c5.4,0.8,13.8-1.8,13.1-1.7c-0.7,0.1-4.8-3.8-10.8-4.2
			C45.7,385.1,40.2,385.7,40.2,385.7z"/>
		<path class="st1" d="M54.3,302c0,0,3.8,5,9.1,5.8c5.4,0.8,13.8-1.8,13.1-1.7c-0.7,0.1-4.8-3.8-10.8-4.2S54.3,302,54.3,302z"/>
		<path class="st4" d="M196,580.5c0,0-3.9,3.3-8.3,7.8c-4.4,4.5-10.3,11.4-10.3,11.4s7.6-0.5,12.8-5.8
			C195.4,588.7,196,580.5,196,580.5z"/>
		<path class="st0" d="M155.2,533.5c0,0-3.9,3.3-8.3,7.8c-4.4,4.5-10.3,11.4-10.3,11.4s7.6-0.5,12.8-5.8
			C154.6,541.7,155.2,533.5,155.2,533.5z"/>
		<path class="st1" d="M148.3,470.9c0,0-3.9,3.3-8.3,7.8c-4.4,4.5-10.3,11.4-10.3,11.4s7.6-0.5,12.8-5.8
			C147.7,479,148.3,470.9,148.3,470.9z"/>
		<path class="st1" d="M188.5,427.1c0,0-3.9,3.3-8.3,7.8c-4.4,4.5-10.3,11.4-10.3,11.4s7.6-0.5,12.8-5.8
			C188,435.3,188.5,427.1,188.5,427.1z"/>
		<path class="st1" d="M253.9,421.9c0,0-3.9,3.3-8.3,7.8c-4.4,4.5-10.3,11.4-10.3,11.4s7.6-0.5,12.8-5.8
			C253.3,430.1,253.9,421.9,253.9,421.9z"/>
		<path class="st1" d="M61.5,412.8c0,0-3.9,3.3-8.3,7.8c-4.4,4.5-10.3,11.4-10.3,11.4s7.6-0.5,12.8-5.8
			C60.9,421,61.5,412.8,61.5,412.8z"/>
		<path class="st0" d="M351.6,218c0,0-3.9,3.3-8.3,7.8c-4.4,4.5-10.3,11.4-10.3,11.4s7.6-0.5,12.8-5.8
			C351,226.2,351.6,218,351.6,218z"/>
		<path class="st4" d="M404.2,318.7c0,0-3.9,3.3-8.3,7.8c-4.4,4.5-10.3,11.4-10.3,11.4s7.6-0.5,12.8-5.8
			C403.7,326.9,404.2,318.7,404.2,318.7z"/>
		<path class="st4" d="M312.4,563.6c0,0-3.9,3.3-8.3,7.8c-4.4,4.5-10.3,11.4-10.3,11.4s7.6-0.5,12.8-5.8
			C311.9,571.8,312.4,563.6,312.4,563.6z"/>
		<path class="st4" d="M359.5,550.4c0,0,3.8,3.4,8.9,7.1c5.1,3.7,12.8,8.6,12.8,8.6s-1.5-7.5-7.5-11.9
			C367.7,549.7,359.5,550.4,359.5,550.4z"/>
		<path class="st4" d="M338.9,576.3c0,0-3.9,3.3-8.3,7.8c-4.4,4.5-10.3,11.4-10.3,11.4s7.6-0.5,12.8-5.8
			C338.4,584.4,338.9,576.3,338.9,576.3z"/>
		<path class="st4" d="M359,501.7c0,0-3.9,3.3-8.3,7.8c-4.4,4.5-10.3,11.4-10.3,11.4s7.6-0.5,12.8-5.8
			C358.4,509.9,359,501.7,359,501.7z"/>
		<path class="st0" d="M279,451.8c0,0-3.9,3.3-8.3,7.8c-4.4,4.5-10.3,11.4-10.3,11.4s7.6-0.5,12.8-5.8
			C278.4,460,279,451.8,279,451.8z"/>
		<path class="st0" d="M343,191.8c0,0-3.9,3.3-8.3,7.8c-4.4,4.5-10.3,11.4-10.3,11.4s7.6-0.5,12.8-5.8
			C342.5,200,343,191.8,343,191.8z"/>
		<path class="st1" d="M300.7,183c0,0-3.9,3.3-8.3,7.8s-10.3,11.4-10.3,11.4s7.6-0.5,12.8-5.8C300.2,191.2,300.7,183,300.7,183z"/>
		<path class="st1" d="M308.8,128.6c0,0-3.9,3.3-8.3,7.8c-4.4,4.5-10.3,11.4-10.3,11.4s7.6-0.5,12.8-5.8
			C308.3,136.7,308.8,128.6,308.8,128.6z"/>
		<path class="st1" d="M226.6,202.6c0,0-3.9,3.3-8.3,7.8c-4.4,4.5-10.3,11.4-10.3,11.4s7.6-0.5,12.8-5.8
			C226.1,210.8,226.6,202.6,226.6,202.6z"/>
		<path class="st1" d="M239.9,41.9c0,0-3.9,3.3-8.3,7.8c-4.4,4.5-10.3,11.4-10.3,11.4s7.6-0.5,12.8-5.8
			C239.3,50.1,239.9,41.9,239.9,41.9z"/>
		<path class="st0" d="M316.1,345.3c0,0-3.9,3.3-8.3,7.8c-4.4,4.5-10.3,11.4-10.3,11.4s7.6-0.5,12.8-5.8
			C315.6,353.5,316.1,345.3,316.1,345.3z"/>
		<path class="st1" d="M285.5,309.6c0,0-5.1-0.3-11.4-0.1c-6.3,0.2-15.3,1.1-15.3,1.1s5.8,5,13.3,4.8
			C279.4,315.1,285.5,309.6,285.5,309.6z"/>
		<path class="st1" d="M218.1,309.2c0,0-5.1-0.3-11.4-0.1c-6.3,0.2-15.3,1.1-15.3,1.1s5.8,4.9,13.3,4.8
			C212,314.7,218.1,309.2,218.1,309.2z"/>
		<path class="st1" d="M202.6,434c0,0,1.4,4.9,3.8,10.7c2.4,5.9,6.3,14.1,6.3,14.1s2.6-7.2-0.1-14.1
			C209.9,437.8,202.6,434,202.6,434z"/>
		<path class="st0" d="M342.6,303.2c0,0-5.1,0.1-11.4,0.9c-6.3,0.7-15.2,2.4-15.2,2.4s6.2,4.4,13.6,3.6
			C337,309.2,342.6,303.2,342.6,303.2z"/>
		<path class="st4" d="M403.9,385.8c0,0-3.9,3.3-8.3,7.8c-4.4,4.5-10.3,11.4-10.3,11.4s7.6-0.5,12.8-5.8
			C403.4,394,403.9,385.8,403.9,385.8z"/>
		<path class="st4" d="M346.7,563.4c0,0,2.1,4.6,5.3,10.1c3.2,5.5,8.1,13.1,8.1,13.1s1.6-7.5-2-13.9
			C354.4,566.1,346.7,563.4,346.7,563.4z"/>
		<path class="st4" d="M146.9,582c0,0-5.1,0.5-11.3,1.7c-6.2,1.2-15,3.5-15,3.5s6.5,4,13.8,2.6C141.8,588.4,146.9,582,146.9,582z"/>
		<path class="st4" d="M403,312.1c0,0-4.3-2.8-9.9-5.7c-5.6-2.9-13.9-6.7-13.9-6.7s2.6,7.2,9.2,10.7
			C395.1,313.9,403,312.1,403,312.1z"/>
		<path class="st4" d="M395.2,473.1c0,0-5.1,0.5-11.3,1.7c-6.2,1.2-15,3.5-15,3.5s6.5,4,13.8,2.6
			C390.1,479.5,395.2,473.1,395.2,473.1z"/>
		<path class="st0" d="M312.2,421c0,0-5.1,0.5-11.3,1.7c-6.2,1.2-15,3.5-15,3.5s6.5,4,13.8,2.6C307.1,427.4,312.2,421,312.2,421z"/>
		<path class="st0" d="M361.9,403.8c0,0-5.1,0.5-11.3,1.7c-6.2,1.2-15,3.5-15,3.5s6.5,4,13.8,2.6
			C356.7,410.2,361.9,403.8,361.9,403.8z"/>
		<path class="st0" d="M328.7,488.7c0,0-5.1,0.5-11.3,1.7c-6.2,1.2-15,3.5-15,3.5s6.5,4,13.8,2.6
			C323.6,495.1,328.7,488.7,328.7,488.7z"/>
		<path class="st0" d="M335.3,358.7c0,0,3.7,3.5,8.8,7.3c5,3.8,12.6,8.9,12.6,8.9s-1.4-7.5-7.3-12.1
			C343.5,358.2,335.3,358.7,335.3,358.7z"/>
		<path class="st4" d="M335.3,542c0,0-5.1,0.5-11.3,1.7c-6.2,1.2-15,3.5-15,3.5s6.5,4,13.8,2.6C330.2,548.4,335.3,542,335.3,542z"/>
		<path class="st0" d="M262.8,484c0,0-5.1,0.5-11.3,1.7c-6.2,1.2-15,3.5-15,3.5s6.5,4,13.8,2.6C257.6,490.4,262.8,484,262.8,484z"/>
		<path class="st1" d="M227.3,423.6c0,0-4.1-3.1-9.5-6.4c-5.4-3.3-13.4-7.6-13.4-7.6s2.1,7.3,8.4,11.3
			C219.2,424.9,227.3,423.6,227.3,423.6z"/>
		<path class="st1" d="M304.3,254.2c0,0-4.1-3.1-9.5-6.4c-5.4-3.3-13.4-7.6-13.4-7.6s2.1,7.3,8.4,11.3
			C296.2,255.5,304.3,254.2,304.3,254.2z"/>
		<path class="st1" d="M158.1,402.6c0,0,1.4-4.9,2.6-11.1c1.2-6.2,2.3-15.2,2.3-15.2s-6.1,4.6-7.5,11.9
			C154,395.5,158.1,402.6,158.1,402.6z"/>
		<path class="st1" d="M277.6,339c0,0-4.1-3.1-9.5-6.4c-5.4-3.3-13.4-7.6-13.4-7.6s2.1,7.3,8.4,11.3
			C269.5,340.3,277.6,339,277.6,339z"/>
		<path class="st1" d="M211.1,334.3c0,0-4.1-3.1-9.5-6.4c-5.4-3.3-13.4-7.6-13.4-7.6s2.1,7.3,8.4,11.3
			C203,335.6,211.1,334.3,211.1,334.3z"/>
		<path class="st1" d="M189.9,108.5c0,0,4-3.2,8.5-7.6c4.6-4.4,10.7-11.1,10.7-11.1s-7.6,0.2-13,5.3
			C190.7,100.3,189.9,108.5,189.9,108.5z"/>
		<path class="st0" d="M351.2,242.5c0,0-5.1,0.5-11.3,1.7c-6.2,1.2-15,3.5-15,3.5s6.5,4,13.8,2.6
			C346.1,248.9,351.2,242.5,351.2,242.5z"/>
		<path class="st1" d="M295.7,217c0,0-5.1,0.5-11.3,1.7c-6.2,1.2-15,3.5-15,3.5s6.5,4,13.8,2.6C290.6,223.4,295.7,217,295.7,217z"/>
		<path class="st1" d="M224.3,236.4c0,0-5.1,0.5-11.3,1.7c-6.2,1.2-15,3.5-15,3.5s6.5,4,13.8,2.6
			C219.1,242.8,224.3,236.4,224.3,236.4z"/>
		<path class="st1" d="M250.2,292.1c0,0-5.1,0.5-11.3,1.7c-6.2,1.2-15,3.5-15,3.5s6.5,4,13.8,2.6
			C245.1,298.5,250.2,292.1,250.2,292.1z"/>
		<path class="st1" d="M226.6,170.3c0,0-5.1,0.5-11.3,1.7c-6.2,1.2-15,3.5-15,3.5s6.5,4,13.8,2.6
			C221.5,176.7,226.6,170.3,226.6,170.3z"/>
		<path class="st1" d="M234,359c0,0-4.6-2.2-10.5-4.4c-5.9-2.2-14.6-4.8-14.6-4.8s3.5,6.8,10.5,9.4C226.3,361.9,234,359,234,359z"/>
		<path class="st1" d="M167,340.4c0,0-5.1,0.5-11.3,1.7c-6.2,1.2-15,3.5-15,3.5s6.5,4,13.8,2.6C161.8,346.8,167,340.4,167,340.4z"/>
		<path class="st1" d="M184.8,384.3c0,0-1.8,4.7-3.5,10.9c-1.7,6.1-3.6,15-3.6,15s6.5-4.1,8.5-11.2
			C188.3,391.7,184.8,384.3,184.8,384.3z"/>
		<path class="st1" d="M134.7,399.5c0,0-5.1,0.5-11.3,1.7c-6.2,1.2-15,3.5-15,3.5s6.5,4,13.8,2.6
			C129.6,405.9,134.7,399.5,134.7,399.5z"/>
		<path class="st1" d="M296.4,96.4c0,0-5.1,0.5-11.3,1.7c-6.2,1.2-15,3.5-15,3.5s6.5,4,13.8,2.6C291.3,102.8,296.4,96.4,296.4,96.4z
			"/>
		<path class="st0" d="M222.9,527.9c0,0-5.1,0.5-11.3,1.7c-6.2,1.2-15,3.5-15,3.5s6.5,4,13.8,2.6
			C217.8,534.3,222.9,527.9,222.9,527.9z"/>
		<path class="st1" d="M106.6,438.7c0,0-5.1,0.5-11.3,1.7c-6.2,1.2-15,3.5-15,3.5s6.5,4,13.8,2.6
			C101.5,445.1,106.6,438.7,106.6,438.7z"/>
		<path class="st1" d="M159.4,172.1c0,0-5.1,0.5-11.3,1.7c-6.2,1.2-15,3.5-15,3.5s6.5,4,13.8,2.6
			C154.3,178.5,159.4,172.1,159.4,172.1z"/>
		<path class="st1" d="M83.5,382.9c0,0,2-4.7,4-10.7c2-6,4.3-14.8,4.3-14.8s-6.6,3.8-9,10.8C80.4,375.3,83.5,382.9,83.5,382.9z"/>
		<path class="st1" d="M172.9,265.3c0,0-4.1,3-8.8,7.2c-4.7,4.2-11.1,10.6-11.1,10.6s7.6,0.1,13.2-4.8
			C171.8,273.4,172.9,265.3,172.9,265.3z"/>
		<path class="st1" d="M58.3,472.6c0,0,1-5,1.7-11.3c0.7-6.3,1-15.4,1-15.4s-5.7,5.1-6.5,12.5C53.7,465.8,58.3,472.6,58.3,472.6z"/>
		<path class="st4" d="M408.5,418.4c0,0-5.1,0.5-11.3,1.7c-6.2,1.2-15,3.5-15,3.5s6.5,4,13.8,2.6
			C403.3,424.8,408.5,418.4,408.5,418.4z"/>
		<path class="st4" d="M403.4,511.7c0,0-5.1,0.5-11.3,1.7c-6.2,1.2-15,3.5-15,3.5s6.5,4,13.8,2.6
			C398.3,518.1,403.4,511.7,403.4,511.7z"/>
		<path class="st4" d="M204,599c0,0,6.1,6.5,7.4,10.4s0.3,10.2,0.3,10.2s-6.8-3-7.3-8.1C203.8,606.5,204,599,204,599z"/>
		<path class="st0" d="M181,538.5c0,0,8.5,2.9,11.4,5.7c3,2.8,5.1,8.9,5.1,8.9s-7.4,0.6-10.3-3.7C184.4,545.2,181,538.5,181,538.5z"
			/>
		<path class="st1" d="M153.6,453c0,0,8.5,2.9,11.4,5.7c3,2.8,5.1,8.9,5.1,8.9s-7.4,0.6-10.3-3.7C157,459.7,153.6,453,153.6,453z"/>
		<path class="st1" d="M127.4,365.5c0,0-5.2,7.3-8.8,9.3c-3.6,2-10,2.3-10,2.3s1.6-7.2,6.5-8.8C120,366.8,127.4,365.5,127.4,365.5z"
			/>
		<path class="st1" d="M138.2,256.4c0,0-5.2,7.3-8.8,9.3c-3.6,2-10,2.3-10,2.3s1.6-7.2,6.5-8.8C130.8,257.7,138.2,256.4,138.2,256.4
			z"/>
		<path class="st1" d="M100.4,311.1c0,0-5.2,7.3-8.8,9.3c-3.6,2-10,2.3-10,2.3s1.6-7.2,6.5-8.8C93,312.4,100.4,311.1,100.4,311.1z"
			/>
		<path class="st1" d="M273.9,67.9c0,0-0.5,8.9-2.4,12.5c-1.9,3.6-7.2,7.3-7.2,7.3s-2.5-7,0.8-10.9
			C268.3,72.9,273.9,67.9,273.9,67.9z"/>
		<path class="st1" d="M223.4,407.2c0,0,8.1-3.8,12.2-3.8c4.1,0,9.8,2.9,9.8,2.9s-4.9,5.5-9.9,4.5
			C230.4,409.7,223.4,407.2,223.4,407.2z"/>
		<path class="st1" d="M196,485.5c0,0,8.1-3.8,12.2-3.8c4.1,0,9.8,2.9,9.8,2.9s-4.9,5.5-9.9,4.5C203.1,488,196,485.5,196,485.5z"/>
		<path class="st4" d="M269.3,587.9c0,0,6.1,6.5,7.4,10.4c1.3,3.9,0.3,10.2,0.3,10.2s-6.8-3-7.3-8.1
			C269.1,595.4,269.3,587.9,269.3,587.9z"/>
		<path class="st4" d="M226.8,571.1c0,0,4.6,2.2,10.6,4.3c6,2.1,14.7,4.6,14.7,4.6s-3.6-6.7-10.6-9.3
			C234.5,568.1,226.8,571.1,226.8,571.1z"/>
		<path class="st4" d="M373.1,527.6c0,0,4.6,2.2,10.6,4.3c6,2.1,14.7,4.6,14.7,4.6s-3.6-6.7-10.6-9.3
			C380.8,524.6,373.1,527.6,373.1,527.6z"/>
		<path class="st4" d="M142.2,597.2c0,0-0.7,8.6,3.6,14.6c4.3,6,4.3,6,4.3,6s2.7-4.4,9-9.2c6.3-4.8,6.6-11.4,6.6-11.4
			s-10.1,8.5-14.2,11.9C147.7,603.3,146.4,599.4,142.2,597.2z"/>
		<path class="st0" d="M65.6,503.4c0,0-7.1,5-8.9,12.1c-1.9,7.1-1.9,7.1-1.9,7.1s5.1-0.8,12.8,1s13-2.3,13-2.3s-13-2.3-18.3-3.3
			C64.5,511.6,66.6,508.1,65.6,503.4z"/>
		<path class="st1" d="M137.3,213.8c0,0-8.6-0.7-14.6,3.6c-6,4.3-6,4.3-6,4.3s4.4,2.6,9.3,8.9c4.8,6.3,11.5,6.5,11.5,6.5
			s-8.6-10-12-14.2C131.2,219.4,135.1,218.1,137.3,213.8z"/>
		<path class="st4" d="M386.7,368.6c0,0,8.5-1.5,13.2-7.2c4.7-5.7,4.7-5.7,4.7-5.7s-4.9-1.5-11.2-6.3c-6.3-4.9-12.7-3.4-12.7-3.4
			s10.8,7.6,15.1,10.7C391.2,361.6,387.7,363.9,386.7,368.6z"/>
		<path class="st4" d="M377.9,286.6c0,0,8.5-1.5,13.2-7.2c4.7-5.7,4.7-5.7,4.7-5.7s-4.9-1.5-11.2-6.3c-6.3-4.9-12.7-3.4-12.7-3.4
			s10.8,7.6,15.1,10.7C382.4,279.6,378.9,281.8,377.9,286.6z"/>
		<path class="st4" d="M380.3,464.5c0,0,8.2-2.8,12-9c3.8-6.3,3.8-6.3,3.8-6.3s-5.1-0.7-12-4.6c-6.9-3.9-13.1-1.5-13.1-1.5
			s11.8,5.9,16.6,8.4C383.7,457,380.6,459.7,380.3,464.5z"/>
		<path class="st0" d="M327.9,402.5c0,0,8.2-2.8,12-9c3.8-6.3,3.8-6.3,3.8-6.3s-5.1-0.7-12-4.6c-6.9-3.9-13.1-1.5-13.1-1.5
			s11.8,5.9,16.6,8.4C331.3,394.9,328.2,397.7,327.9,402.5z"/>
		<path class="st1" d="M278.7,291c0,0,8.2-2.8,12-9c3.8-6.3,3.8-6.3,3.8-6.3s-5.1-0.7-12-4.6c-6.9-3.9-13.1-1.5-13.1-1.5
			s11.8,5.9,16.6,8.4C282.1,283.4,279,286.2,278.7,291z"/>
		<path class="st1" d="M268.7,140.2c0,0,8.2-2.8,12-9c3.8-6.3,3.8-6.3,3.8-6.3s-5.1-0.7-12-4.6c-6.9-3.9-13.1-1.5-13.1-1.5
			s11.8,5.9,16.6,8.4C272.1,132.7,269,135.4,268.7,140.2z"/>
		<path class="st1" d="M114.4,147.6c0,0-7-5.1-14.3-4.6c-7.3,0.5-7.3,0.5-7.3,0.5s2.3,4.6,3.1,12.5c0.8,7.9,6.3,11.6,6.3,11.6
			s-2-13.1-2.7-18.4C106.3,149.1,110.3,150.1,114.4,147.6z"/>
		<path class="st1" d="M161,186.8c0,0-1,8.6,3.1,14.7c4.1,6.1,4.1,6.1,4.1,6.1s2.8-4.3,9.3-8.9c6.5-4.6,6.9-11.2,6.9-11.2
			s-10.3,8.2-14.6,11.4C166.4,193.1,165.2,189.2,161,186.8z"/>
		<path class="st1" d="M199.6,285.8c0,0,8.2-2.8,12-9c3.8-6.3,3.8-6.3,3.8-6.3s-5.1-0.7-12-4.6c-6.9-3.9-13.1-1.5-13.1-1.5
			s11.8,5.9,16.6,8.4C203,278.3,199.9,281,199.6,285.8z"/>
		<path class="st0" d="M340.4,297c0,0,8.2-2.8,12-9c3.8-6.3,3.8-6.3,3.8-6.3s-5.1-0.7-12-4.6c-6.9-3.9-13.1-1.5-13.1-1.5
			s11.8,5.9,16.6,8.4C343.8,289.5,340.7,292.2,340.4,297z"/>
		<path class="st0" d="M287.6,465.8c0,0,3,8.1,9.3,11.7c6.4,3.6,6.4,3.6,6.4,3.6s0.6-5.1,4.3-12.1c3.7-7,1.2-13.1,1.2-13.1
			s-5.6,12-8,16.8C295.2,469,292.4,466,287.6,465.8z"/>
		<path class="st1" d="M162.5,483.6c0,0,3,8.1,9.3,11.7c6.4,3.6,6.4,3.6,6.4,3.6s0.6-5.1,4.3-12.1c3.7-7,1.2-13.1,1.2-13.1
			s-5.6,12-8,16.8C170.1,486.9,167.4,483.8,162.5,483.6z"/>
		<path class="st1" d="M239.9,374.7c0,0,3,8.1,9.3,11.7c6.4,3.6,6.4,3.6,6.4,3.6s0.6-5.1,4.3-12.1c3.7-7,1.2-13.1,1.2-13.1
			s-5.6,12-8,16.8C247.6,377.9,244.8,374.9,239.9,374.7z"/>
		<path class="st1" d="M208,144.1c0,0,8.6-0.9,13.6-6.3c5.1-5.3,5.1-5.3,5.1-5.3s-4.8-1.8-10.8-7.1c-5.9-5.3-12.5-4.3-12.5-4.3
			s10.3,8.3,14.4,11.7C212.9,137.4,209.3,139.4,208,144.1z"/>
		<path class="st1" d="M58.5,315.3c0,0-8,3.1-11.5,9.6c-3.5,6.5-3.5,6.5-3.5,6.5s5.1,0.5,12.2,4s13.2,0.9,13.2,0.9
			s-12.1-5.3-16.9-7.6C55.4,323,58.4,320.1,58.5,315.3z"/>
		<path class="st1" d="M136.3,292.2c0,0-5.9,6.3-6.3,13.6c-0.4,7.3-0.4,7.3-0.4,7.3s4.8-1.8,12.8-1.6c7.9,0.2,12.3-4.8,12.3-4.8
			s-13.2,0.4-18.6,0.4C136.8,300.4,138.3,296.6,136.3,292.2z"/>
		<path class="st1" d="M174.5,367.2c0,0,4.6,7.3,11.6,9.6c7,2.2,7,2.2,7,2.2s-0.5-5.1,1.7-12.8c2.2-7.6-1.6-13.1-1.6-13.1
			s-3,12.9-4.3,18.1C182.6,368.7,179.2,366.4,174.5,367.2z"/>
		<path class="st4" d="M251.3,594c0,0-6.5,4.9-6,10.4s0.8,11.1,0.8,11.1s2.2-3.1,4.6-8C253.1,602.6,251.3,594,251.3,594z"/>
		<path class="st0" d="M264.2,505.5c0,0-6.5,4.9-6,10.4c0.4,5.5,0.8,11.1,0.8,11.1s2.2-3.1,4.6-8C266,514.1,264.2,505.5,264.2,505.5
			z"/>
		<path class="st0" d="M131.6,522.1c0,0-6.5,4.9-6,10.4c0.4,5.5,0.8,11.1,0.8,11.1s2.2-3.1,4.6-8
			C133.4,530.7,131.6,522.1,131.6,522.1z"/>
		<path class="st1" d="M126.2,444c0,0-6.5,4.9-6,10.4c0.4,5.5,0.8,11.1,0.8,11.1s2.2-3.1,4.6-8C128,452.7,126.2,444,126.2,444z"/>
		<path class="st1" d="M283.9,161.9c0,0-6.5,4.9-6,10.4c0.4,5.5,0.8,11.1,0.8,11.1s2.2-3.1,4.6-8
			C285.7,170.6,283.9,161.9,283.9,161.9z"/>
		<path class="st1" d="M194.4,212.8c0,0-6.5,4.9-6,10.4c0.4,5.5,0.8,11.1,0.8,11.1s2.2-3.1,4.6-8
			C196.2,221.5,194.4,212.8,194.4,212.8z"/>
		<path class="st1" d="M243.8,183.3c0,0-7.9-2-11.9,1.7c-4.1,3.7-8.2,7.4-8.2,7.4s3.8-0.2,9.1-1.3
			C238.1,190,243.8,183.3,243.8,183.3z"/>
		<path class="st1" d="M236.7,260.8c0,0-6.5,4.9-6,10.4c0.4,5.5,0.8,11.1,0.8,11.1s2.2-3.1,4.6-8
			C238.5,269.4,236.7,260.8,236.7,260.8z"/>
		<path class="st1" d="M173.4,301.1c0,0-6.5,4.9-6,10.4s0.8,11.1,0.8,11.1s2.2-3.1,4.6-8C175.2,309.8,173.4,301.1,173.4,301.1z"/>
		<path class="st1" d="M166.3,96.3c0,0-4.3,6.9-1.9,11.9c2.4,5,4.6,10.1,4.6,10.1s0.9-3.7,1.5-9.1C171,103.7,166.3,96.3,166.3,96.3z
			"/>
		<path class="st1" d="M178.1,145.3c0,0-4.3,6.9-1.9,11.9c2.4,5,4.6,10.1,4.6,10.1s0.9-3.7,1.5-9.1
			C182.8,152.7,178.1,145.3,178.1,145.3z"/>
		<path class="st1" d="M244.8,140.1c0,0-8.1,0.6-10.8,5.4c-2.6,4.8-5.4,9.7-5.4,9.7s3.5-1.4,8.2-4.2
			C241.6,148.3,244.8,140.1,244.8,140.1z"/>
		<path class="st1" d="M61.5,269.3c0,0,0.5,8.1,5.3,10.8c4.8,2.7,9.6,5.6,9.6,5.6s-1.4-3.5-4-8.3C69.7,272.7,61.5,269.3,61.5,269.3z
			"/>
		<path class="st1" d="M84.2,182.8c0,0,0.5,8.1,5.3,10.8c4.8,2.7,9.6,5.6,9.6,5.6s-1.4-3.5-4-8.3C92.4,186.2,84.2,182.8,84.2,182.8z
			"/>
		<path class="st1" d="M63.9,245.9c0,0,6.3,5.1,11.6,3.3c5.2-1.8,10.6-3.4,10.6-3.4s-3.5-1.4-8.9-2.6
			C71.9,242.1,63.9,245.9,63.9,245.9z"/>
		<path class="st1" d="M257.3,32.2c0,0-6.5,4.9-6,10.4c0.4,5.5,0.8,11.1,0.8,11.1s2.2-3.1,4.6-8C259.1,40.8,257.3,32.2,257.3,32.2z"
			/>
		<path class="st1" d="M216.2,28.5c0,0-6.5,4.9-6,10.4C210.7,44.4,211,50,211,50s2.2-3.1,4.6-8C218,37.1,216.2,28.5,216.2,28.5z"/>
		<path class="st4" d="M305.5,586.5c0,0-3.6,7.3-0.8,12c2.8,4.7,5.6,9.6,5.6,9.6s0.6-3.7,0.6-9.2
			C310.9,593.5,305.5,586.5,305.5,586.5z"/>
		<path class="st0" d="M276.4,496.7c0,0,6.1,6.5,7.4,10.4c1.3,3.9,0.3,10.2,0.3,10.2s-6.8-3-7.3-8.1
			C276.2,504.2,276.4,496.7,276.4,496.7z"/>
		<path class="st0" d="M336.3,318.2c0,0,6.1,6.5,7.4,10.4c1.3,3.9,0.3,10.2,0.3,10.2s-6.8-3-7.3-8.1
			C336.1,325.7,336.3,318.2,336.3,318.2z"/>
		<path class="st0" d="M300.6,382.1c0,0,6.1,6.5,7.4,10.4c1.3,3.9,0.3,10.2,0.3,10.2s-6.8-3-7.3-8.1
			C300.4,389.6,300.6,382.1,300.6,382.1z"/>
		<path class="st0" d="M336.1,429c0,0,6.1,6.5,7.4,10.4c1.3,3.9,0.3,10.2,0.3,10.2s-6.8-3-7.3-8.1C335.9,436.5,336.1,429,336.1,429z
			"/>
		<path class="st0" d="M239.4,524.8c0,0,6.1,6.5,7.4,10.4c1.3,3.9,0.3,10.2,0.3,10.2s-6.8-3-7.3-8.1
			C239.2,532.3,239.4,524.8,239.4,524.8z"/>
		<path class="st4" d="M227.5,594.5c0,0-5.3,3.3-6.6,8.6c-1.2,5.3,0.6,13.9,0.6,13.2s4.2-4.4,5.2-10.4
			C227.6,599.9,227.5,594.5,227.5,594.5z"/>
		<path class="st4" d="M361.8,484.3c0,0,2.5,5.8,7.6,7.7c5,2,13.8,1.4,13.1,1.3c-0.7-0.1-3.8-4.8-9.5-6.6
			C367.3,484.9,361.8,484.3,361.8,484.3z"/>
		<path class="st0" d="M305.9,440.3c0,0,2.5,5.8,7.6,7.7c5,2,13.8,1.4,13.1,1.3c-0.7-0.1-3.8-4.8-9.5-6.6
			C311.3,440.9,305.9,440.3,305.9,440.3z"/>
	</g>
</g>
</svg>
