<?xml version="1.0" encoding="utf-8"?>
<!-- Generator: Adobe Illustrator 24.0.2, SVG Export Plug-In . SVG Version: 6.00 Build 0)  -->
<svg version="1.1" id="Layer_1" xmlns="http://www.w3.org/2000/svg" xmlns:xlink="http://www.w3.org/1999/xlink" x="0px" y="0px"
	 viewBox="0 0 438 457" style="enable-background:new 0 0 438 457;" height="457" width="438" xml:space="preserve">
<style type="text/css">
	.st0{fill:#8C6E2A;}
	.st1{fill:#4E4226;}
	.st2{fill:#8E732D;}
	.st3{fill:#B2933F;}
	.st4{fill:url(#SVGID_1_);}
	.st5{fill:#EBD6A2;}
	.st6{fill:#E9D397;}
	.st7{fill:#351D11;}
	.st8{fill:#016257;}
	.st9{fill:#189684;}
	.st10{fill:#DBBE7C;}
	.st11{fill:#362A14;}
	.st12{fill:#DFD0B0;}
	.st13{fill:#5F471B;}
	.st14{fill:#02574B;}
	.st15{fill:#E8BB48;}
	.st16{fill:#5E3816;}
	.st17{fill:#27190F;}
	.st18{fill:#C3966B;}
	.st19{fill:#017B6D;}
	.st20{fill:#3DBCA6;}
	.st21{fill:#0E463E;}
	.st22{fill:#7DBFB6;}
	.st23{fill:#54C2B7;}
	.st24{fill:#95D4CA;}
	.st25{fill:url(#SVGID_2_);}
	.st26{fill:#3E3126;}
	.st27{fill:#1D1813;}
</style>
<g>
	<path class="st0" d="M320.9,138.4c33.8,19.1,63.6,37.2,63.6,39.7c0,3.3-21.2,27.6-41,46.9c-12.5-13.9-22-19.3-28.7-21.1
		C328.3,191.3,341.5,169.2,320.9,138.4z"/>
	<path class="st0" d="M291.2,121.9c-2.6,4.5-4.1,7.3-4.1,7.3c-22.4-3.3-37.8,17.5-46.8,36h0c-10.4-1.9-18.6-3.3-18.6-3.3
		s-36.1-28.5-57.9-27.7c-21.8,0.9-68.2,47.6-68.2,47.6c-24.4-32.8-48.3-70.1-45.9-76.1c3.4-8.4,154.4-24.4,179.6-15.1
		C238.9,94.1,264,107.1,291.2,121.9z"/>
	<path class="st1" d="M320.9,138.4c7.1,10.6,10.1,20.1,10.6,28.5c13.7,8.9,26.9,18.6,39.6,29c8-9.1,13.4-16.2,13.4-17.8
		C384.5,175.6,354.7,157.5,320.9,138.4z"/>
	<path class="st1" d="M287.2,129.2c0,0,1.5-2.8,4.1-7.3c-27.3-14.9-52.3-27.8-62-31.3c-25.2-9.3-176.2,6.7-179.6,15.1
		c-0.7,1.8,1,6.6,4.4,13.1c58.8-5.1,112.5-11.8,170.3-1.3c15,2.7,29.1,9.2,43.2,15.2C273.4,129.6,279.9,128.1,287.2,129.2z"/>
	<path class="st2" d="M406.3,365.8c0,0,32,23.8,30.9,36.3c-13.6-1.8-45.7-32.9-45.7-32.9c1.9-55.2-15.6-116.5-16.2-118.7
		c4.3-5.2,7.9-9.9,10.6-13.6C405.8,288.3,406.3,365.8,406.3,365.8z"/>
	<path class="st3" d="M437.2,402.1c-0.2,2-1.1,3.7-3.2,4.9c-15.1,9.2-71.3-5-71.3-5s-122.5,20.1-149.8,20.1
		c-27.3,0-117.3-23.5-117.3-23.5s-56.8,15.8-82.1,7.1C-6,390.8,40,318.8,40,318.8c-6.1-19.3-0.5-106.5-0.1-113.7
		c0.1-0.3,0.1-0.5,0.1-0.5c1.1-7.1,1.8-11.4,1.8-11.4c15.3,25.1,51.6,81.5,74.3,91.2c29.4,12.6,160.3,24.3,194.7,16.8
		c22.6-4.9,48.3-31.2,64.6-50.8c0.7,2.3,18.1,63.5,16.2,118.7C391.5,369.2,423.6,400.3,437.2,402.1z"/>
	<linearGradient id="SVGID_1_" gradientUnits="userSpaceOnUse" x1="222.9448" y1="430.9508" x2="222.9448" y2="294.1719">
		<stop  offset="0" style="stop-color:#E9CB82"/>
		<stop  offset="1" style="stop-color:#95782E"/>
	</linearGradient>
	<path class="st4" d="M437.2,402.1c-0.2,2-1.1,3.7-3.2,4.9c-15.1,9.2-71.3-5-71.3-5s-122.5,20.1-149.8,20.1
		c-27.3,0-117.3-23.5-117.3-23.5s-56.8,15.8-82.1,7.1C-6,390.8,40,318.8,40,318.8c-6.1-19.3-0.5-106.5-0.1-113.7
		c0.1-0.3,0.1-0.5,0.1-0.5c1.1-7.1,1.8-11.4,1.8-11.4c15.3,25.1,51.6,81.5,74.3,91.2c29.4,12.6,160.3,24.3,194.7,16.8
		c22.6-4.9,48.3-31.2,64.6-50.8c0.7,2.3,18.1,63.5,16.2,118.7C391.5,369.2,423.6,400.3,437.2,402.1z"/>
	<path class="st5" d="M375.3,250.5c0.2,0.9,2.9,10.2,6,24.4c3.9-5.8,7.5-11.9,11-18.4c-1.9-6.8-4-13.4-6.4-19.6
		C383.2,240.6,379.6,245.3,375.3,250.5z"/>
	<path class="st2" d="M391.5,369.2c0,0,32,31.1,45.7,32.9c1.1-12.4-30.9-36.3-30.9-36.3s-0.4-59.9-14-109.3
		c-3.5,6.4-7.1,12.6-11,18.4C386.4,298.2,392.7,334.9,391.5,369.2z"/>
	<path class="st6" d="M310.7,301.2c-34.4,7.6-165.3-4.2-194.7-16.8c-22.7-9.7-59-66.2-74.3-91.2c0,0-0.2,1.3-0.6,3.7
		c23.7,43.5,48.5,93.2,91,107.3c65.5,25.2,146,35.2,211.5,5c16.2-7.2,27.8-19.5,37.7-34.4c-3.1-14.2-5.8-23.5-6-24.4
		C359,270.1,333.2,296.3,310.7,301.2z"/>
	<path class="st7" d="M308.4,349.6c16-10.2,26-23.7,31.5-38.7c-64.8,28.2-143.5,18.1-207.7-6.6c-42.5-14.2-67.3-63.8-91-107.3
		c-0.3,1.9-0.7,4.5-1.2,7.7c0,0,0,0.2-0.1,0.5c-0.5,7.2-6,94.5,0.1,113.7c0,0-0.2,0.3-0.5,0.8C115.2,379.5,224.6,405.4,308.4,349.6z
		"/>
	<path class="st8" d="M391.4,38.7c4.5,19-6.2,39.4-16.1,45.2c-36.6,21.4-54.4,54.5-54.4,54.5s-3-1.3-6.7,0
		c9.4-31.1,51.1-57,58.6-61.2C380,73.1,392.5,46.2,391.4,38.7z"/>
	<path class="st9" d="M291.2,121.9c10.3-18,37.6-64,52.3-74.1c18.3-12.6,45.2-16,47.7-10.1c0.1,0.3,0.2,0.7,0.2,1
		c1.1,7.5-11.5,34.4-18.7,38.5c-7.6,4.2-49.2,30.2-58.6,61.2c0,0,5.7,7.9,6.3,20.6c-10.5-17.6-26.6-14.7-26.6-14.7
		c-31.5,3.4-40.4,45.5-40.4,45.5c-11.8,0.7-23.3,2.3-23.3,2.3s3.3-12.8,10.2-26.9c9.1-18.5,24.4-39.3,46.8-36
		C287.2,129.2,288.7,126.4,291.2,121.9z M373,55.5c0.7-3.2,0.4-6.2-0.9-7c-2.5-1.6-11-0.3-17.6,4.7c-6.6,5-5.1,12.3-3.2,13.5
		c1.7,1.1,4.1,1.2,6.7,0.7c3.3-0.6,6.9-2.2,9.9-3.9C370.7,62,372.4,58.7,373,55.5z"/>
	<path class="st10" d="M375.3,250.5c-16.3,19.6-42.1,45.8-64.6,50.8c-34.4,7.6-165.3-4.2-194.7-16.8c-22.7-9.7-59-66.2-74.3-91.2
		c-4.5-7.4-7.1-12-7.1-12c-1.7-35.2,15.1-75.5,15.1-75.5c-2.4,6,21.5,43.3,45.9,76.1c18.3,24.6,36.8,46.7,44.7,51.4
		c18.5,10.9,158.6,21.8,174.6,15.1c5.9-2.5,17-12.1,28.7-23.4c19.7-19.2,41-43.6,41-46.9c4.1,17.3,6.7,51,6.7,51
		c-0.7,1.3-2.6,4.1-5.3,7.8C383.2,240.6,379.6,245.3,375.3,250.5z"/>
	<path class="st11" d="M95.6,181.8c-24.4-32.8-48.3-70.1-45.9-76.1c0,0-16.8,40.3-15.1,75.5c0,0,2.7,4.6,7.1,12
		c15.3,25.1,51.6,81.5,74.3,91.2c0.4,0.2,0.9,0.3,1.3,0.5c5.6-17.6,13.4-34.9,22.4-52.1C131.4,227.4,113.4,205.8,95.6,181.8z"/>
	<path class="st10" d="M314.3,248.5c-18,6.3-155.7-4.4-174-15.3c-0.2-0.1-0.4-0.3-0.7-0.4c-8.9,17.2-16.8,34.6-22.4,52.1
		c31.6,12.4,159.4,23.7,193.4,16.3c3.2-0.7,6.5-1.9,9.8-3.4C320.7,281.5,318.8,265,314.3,248.5z"/>
	<path class="st12" d="M384.5,178.1c0,3.3-21.2,27.6-41,46.9c-11.6,11.3-22.7,20.9-28.7,23.4c-0.1,0.1-0.4,0.1-0.5,0.2
		c4.5,16.5,6.4,33,6.2,49.3c19.9-9,40.8-30.6,54.8-47.4c4.3-5.2,7.9-9.9,10.6-13.6c2.8-3.7,4.6-6.5,5.3-7.8
		C391.2,229.1,388.6,195.4,384.5,178.1z"/>
	<path class="st13" d="M343.5,224.9c-11.6,11.3-22.7,20.9-28.7,23.4c-16,6.7-156.1-4.2-174.6-15.1c-7.9-4.7-26.4-26.8-44.7-51.4
		c-24.4-32.8-48.3-70.1-45.9-76.1c0,0-3.4,8.1-6.9,20.1c15.6,52.2,59.2,111,79.3,123c39.4,26,152.7,26,203.1,19.3
		c19-9.5,46.5-36.8,64.9-52.2c-1.2-11.4-3.1-27.5-5.5-37.9C384.5,181.3,363.2,205.7,343.5,224.9z"/>
	<path class="st14" d="M372.2,48.4c1.3,0.8,1.6,3.8,0.9,7c-14.5-3-14.9,11.9-14.9,11.9c-2.6,0.5-5.1,0.4-6.7-0.7
		c-2-1.3-3.5-8.5,3.2-13.5C361.1,48.1,369.6,46.9,372.2,48.4z"/>
	<path class="st15" d="M337.4,147.9c-5.3-3.1-10.9-6.2-16.5-9.5c20.6,30.8,7.4,52.9-6,65.4c5.8,1.6,13.8,6,24.2,16.4
		C345.5,196.5,345.7,171.5,337.4,147.9z"/>
	<path class="st16" d="M230.1,192.1c0,0,11.5-1.7,23.3-2.3c10.5-0.6,21.3-0.5,24.5,2.3c3.7,3.3,10.6,11.7,15.9,18.6
		c1.5,1.9,2.8,3.6,3.9,5.1c0,0,8.6-4.1,17.1-12c6.6,1.8,16.1,7.3,28.7,21.1c-11.6,11.3-22.7,20.9-28.7,23.4
		c-16,6.7-156.1-4.2-174.6-15.1c-7.9-4.7-26.4-26.8-44.7-51.4c0,0,46.4-46.8,68.2-47.6c21.8-0.8,57.9,27.7,57.9,27.7
		s8.2,1.4,18.6,3.3h0C233.4,179.3,230.1,192.1,230.1,192.1z"/>
	<path class="st17" d="M234.5,178.9c1.5-4.1,3.5-8.8,5.9-13.7h0c-10.4-1.9-18.6-3.3-18.6-3.3s-36.1-28.5-57.9-27.7
		c-14.5,0.6-39.7,21.3-55.1,35.2c0.5,0.5,1,1.1,1.5,1.6C150.6,139.2,191.1,166.8,234.5,178.9z"/>
	<path class="st17" d="M301.8,213.6c-2.4,1.4-4,2.2-4,2.2c-1.2-1.5-2.5-3.3-3.9-5.1c-5.3-6.8-12.2-15.3-15.9-18.6
		c-3.2-2.8-14-2.9-24.5-2.3c-3.6,0.2-7.1,0.5-10.3,0.8c19.8,5.9,32.6,21.5,38.7,40.4c8.5-0.5,16.9-1.3,25.3-2.5
		C306.2,223.5,304.6,218.5,301.8,213.6z"/>
	<path class="st18" d="M340.8,222.1c-11.2-11.7-19.8-16.6-25.9-18.3c-4.9,4.6-9.8,7.9-13.1,9.8c2.8,4.8,4.5,9.8,5.3,14.9
		c-39,5.5-79.5,4-119.5-4.9c-32-7.1-56.5-29.4-78.8-54.2c-7.8,7.1-13.1,12.4-13.1,12.4c18.3,24.6,36.8,46.7,44.7,51.4
		c18.5,10.9,158.6,21.8,174.6,15.1c5.9-2.5,17-12.1,28.7-23.4C342.6,223.9,341.7,223,340.8,222.1z"/>
	<path class="st19" d="M320.9,138.4c20.6,30.8,7.4,52.9-6,65.4c-8.5,8-17.1,12-17.1,12c-1.2-1.5-2.5-3.3-3.9-5.1
		c22.4-20.1,27.2-38.5,26.6-51.7c-0.6-12.7-6.3-20.6-6.3-20.6C317.9,137.1,320.9,138.4,320.9,138.4z"/>
	<path class="st20" d="M320.5,159c0.7,13.2-4.2,31.6-26.6,51.7c-5.3-6.8-12.2-15.3-15.9-18.6c-3.2-2.8-14-2.9-24.5-2.3
		c0,0,9-42.1,40.4-45.5C293.9,144.3,309.9,141.4,320.5,159z"/>
	<path class="st9" d="M299.4,134.1c-7,0.4-14.1,1.7-21.2,4c-18.5,4.6-32.8,22.1-38.9,48.4c5.3-0.8,10.6-1.6,15.8-2.4
		c3.7-11.6,14.6-37.2,38.8-39.8c0,0,8-1.4,16.5,4C308.1,143.2,304.5,138.4,299.4,134.1z"/>
	<path class="st21" d="M391.4,38.7c0-0.3-0.1-0.7-0.2-1c-2.5-5.9-29.4-2.5-47.7,10.1c-14.7,10.1-41.9,56.1-52.3,74.1
		c-2.6,4.5-4.1,7.3-4.1,7.3c-22.4-3.3-37.8,17.5-46.8,36c-4.4,9-7.4,17.4-8.9,22.4c2.6-0.3,5.2-0.7,7.8-1.1
		c6.1-26.3,20.3-43.8,38.9-48.4c7.2-2.4,14.3-3.7,21.2-4c5.1,4.4,8.7,9.2,10.9,14.2c3.5,2.2,7,5.6,10.1,10.7
		c-0.6-12.7-6.3-20.6-6.3-20.6c0.4-1.2,0.9-2.4,1.3-3.6c11.3-29.5,50-53.6,57.3-57.7C380,73.1,392.5,46.2,391.4,38.7z M373,55.5
		c-0.7,3.2-2.3,6.5-5,8.1c-3,1.7-6.6,3.3-9.9,3.9c-2.6,0.5-5.1,0.4-6.7-0.7c-2-1.3-3.5-8.5,3.2-13.5c6.6-5,15.1-6.3,17.6-4.7
		C373.4,49.2,373.7,52.3,373,55.5z"/>
	<path class="st21" d="M372.8,77.2c0.2-0.1,0.5-0.4,0.8-0.5c-21,3.8-41.9,8.2-62.9,13.2c-6.2,9.7-11.9,19.2-16.1,26.5
		c11.4-1,22.9-2.1,34.5-3.2C344.9,94.1,367.4,80.1,372.8,77.2z"/>
	<path class="st21" d="M351.4,66.7c-1.9-1.2-3.4-8.4,3-13.4c-7.9,2.5-15.9,5.1-23.7,7.8c-3.8,4.8-7.9,10.5-11.9,16.4
		c11.2-4,22.6-7.4,34-10.2C352.2,67.2,351.8,67,351.4,66.7z"/>
	<path class="st21" d="M391,43.5c-6.5,1.4-12.9,3-19.3,4.7c0.2,0.1,0.4,0.1,0.5,0.2c1.3,0.8,1.6,3.8,0.9,7c-0.7,3.2-2.3,6.5-5,8.1
		c-0.3,0.2-0.7,0.3-1,0.5c5.8-1.2,11.6-2.2,17.4-3.2C387.4,54.8,390,48.2,391,43.5z"/>
	<path class="st22" d="M230.1,192.1c0,0,11.5-1.7,23.3-2.3c0,0,0.5-2.3,1.6-5.7c-7.7,1.2-15.7,2.6-23.6,3.5
		C230.6,190.4,230.1,192.1,230.1,192.1z"/>
	<path class="st19" d="M314.9,203.8c13.4-12.5,26.7-34.6,6-65.4c0,0-3-1.3-6.7,0c0,0,5.7,7.9,6.3,20.6c0.5,10.4-2.4,24-14.6,39.2
		c2,2.7,4,5.5,6,8.3C312.8,205.6,313.8,204.7,314.9,203.8z"/>
	<path class="st23" d="M305.8,198.2c-3.3,4.1-7.2,8.3-12,12.5c1.5,1.9,2.8,3.6,3.9,5.1c0,0,6.6-3.2,14-9.4
		C309.9,203.6,307.9,200.9,305.8,198.2z"/>
	<path class="st20" d="M310.3,148.3c-8.4-5.4-16.5-4-16.5-4c-24.2,2.6-35.1,28.2-38.8,39.8c18-2.9,34.2-4.6,43.2,4.4
		c1.8,2.3,3.6,4.6,5.4,7C312.3,181,317.2,163.5,310.3,148.3z"/>
	<path class="st21" d="M320.5,159c-3.1-5.1-6.6-8.5-10.1-10.7c6.8,15.3,2,32.8-6.6,47.2c0.7,0.9,1.4,1.8,2.1,2.7
		C318,183,321,169.4,320.5,159z"/>
	<path class="st24" d="M298.3,188.4c-9-9-25.2-7.3-43.2-4.4c-1.1,3.5-1.6,5.7-1.6,5.7c10.5-0.6,21.3-0.5,24.5,2.3
		c3.7,3.3,10.6,11.7,15.9,18.6c4.8-4.3,8.7-8.5,12-12.5C303.3,194.8,300.8,191.6,298.3,188.4z"/>
	<linearGradient id="SVGID_2_" gradientUnits="userSpaceOnUse" x1="56.1771" y1="104.4835" x2="162.7438" y2="174.1325">
		<stop  offset="0" style="stop-color:#A2914E"/>
		<stop  offset="1" style="stop-color:#FFFFFF"/>
	</linearGradient>
	<path class="st25" d="M49.7,105.7c-2.4,6,21.5,43.3,45.9,76.1c0,0,46.4-46.8,68.2-47.6c7-0.3,15.4,2.5,23.6,6.3
		c-26.6-22.3-58.4-38.4-92.1-45C70,99,50.9,102.8,49.7,105.7z"/>
	<path class="st10" d="M39.9,205.1c-0.5,7.2-6,94.5,0.1,113.7c0,0-45.9,72-26.5,86.8c-4.4-1.5-7.9-3.8-9.9-7.1
		c-13.4-21.8,26-88.1,26-88.1C28.3,286.5,36.2,229.8,39.9,205.1z"/>
	<g>
		<g>
			<path class="st26" d="M274,228.2c0.2,2.5,8.8,3.1,9,0C283.1,225,273.6,224.2,274,228.2z"/>
		</g>
		<g>
			<path class="st26" d="M262.4,198.3c0.9,1.7,7.1-0.3,6.3-2.6C267.9,193.4,261,195.7,262.4,198.3z"/>
		</g>
		<g>
			<path class="st26" d="M229.5,228.1c1.9,2.5,11.4-2.5,9.5-5.9C237.2,218.7,226.5,224.2,229.5,228.1z"/>
		</g>
		<g>
			<path class="st26" d="M236.4,202c1,2.1,8.8,0.1,8-2.8C243.6,196.4,234.9,198.7,236.4,202z"/>
		</g>
		<g>
			<path class="st26" d="M177.7,217.8c1.2,1.8,8-1.2,6.9-3.7C183.4,211.7,175.8,215,177.7,217.8z"/>
		</g>
		<g>
			<path class="st26" d="M210.7,202.4c-1.2,3.3,9.2,9.1,11.3,5.2C224.1,203.7,212.5,197.2,210.7,202.4z"/>
		</g>
		<g>
			<path class="st26" d="M303,228.1c1.5,2.2,9.9-1.8,8.4-4.8C309.9,220.2,300.5,224.6,303,228.1z"/>
		</g>
		<g>
			<path class="st26" d="M208.7,190.8c1,2.9,11.3,1.3,10.6-2.5C218.6,184.5,207.1,186.2,208.7,190.8z"/>
		</g>
		<g>
			<path class="st26" d="M195.6,176.9c1.9,3.4,14.5-1,12.8-5.7C206.7,166.6,192.6,171.6,195.6,176.9z"/>
		</g>
		<g>
			<path class="st26" d="M190.2,161.6c0.9,1.9,7.8,0.1,7.1-2.5C196.6,156.6,188.8,158.6,190.2,161.6z"/>
		</g>
		<g>
			<path class="st26" d="M176.5,177.2c-0.9,2.6,7.3,7,8.9,4C187,178.2,177.9,173.2,176.5,177.2z"/>
		</g>
		<g>
			<path class="st26" d="M159,139.4c0.5,2.4,9,2.1,8.8-1C167.6,135.3,158.1,135.6,159,139.4z"/>
		</g>
		<g>
			<path class="st26" d="M150.5,192.9c0.7,2.3,9,1.1,8.5-1.9C158.5,188,149.3,189.3,150.5,192.9z"/>
		</g>
		<g>
			<path class="st26" d="M137.7,175.4c-0.6,1.4,4,4.2,4.9,2.5C143.6,176.2,138.6,173.1,137.7,175.4z"/>
		</g>
	</g>
	<g>
		<g>
			<path class="st27" d="M237.9,341.7c-42.4,0-73-9.9-88.7-14.9l-3.5-1.1c-34.9-11-64.1-32.5-64.3-32.8c-1.1-0.8-1.3-2.4-0.5-3.5
				c0.8-1.1,2.4-1.3,3.5-0.5c0.3,0.2,28.8,21.3,62.9,32l3.5,1.1c26.8,8.6,98,31.6,197.7-7.2c1.3-0.5,2.8,0.1,3.3,1.4
				c0.5,1.3-0.1,2.8-1.4,3.3C307.2,336.3,269.3,341.7,237.9,341.7z"/>
		</g>
		<g>
			<path class="st27" d="M240.5,355.8c-32.3,0-64.9-5.3-97.6-15.9c-1.3-0.4-2-1.8-1.6-3.2c0.4-1.3,1.8-2.1,3.2-1.6
				c69.2,22.4,137.9,20.7,204.2-5.1c1.3-0.5,2.8,0.1,3.3,1.4c0.5,1.3-0.1,2.8-1.4,3.3C314.5,348.8,277.7,355.8,240.5,355.8z"/>
		</g>
		<g>
			<path class="st27" d="M237.4,369.2c-49.2,0-97.3-12.2-143.6-36.5c-1.2-0.6-1.7-2.2-1.1-3.4c0.6-1.2,2.2-1.7,3.4-1.1
				c64.4,33.9,132.4,43.9,202,29.8c1.4-0.3,2.7,0.6,3,2c0.3,1.4-0.6,2.7-2,3C278.4,367.1,257.8,369.2,237.4,369.2z"/>
		</g>
		<g>
			<path class="st27" d="M124,332.2c-0.3,0-0.7-0.1-1-0.2c-15.1-6.9-29-14.9-41.3-23.8c-1.1-0.8-1.4-2.4-0.6-3.5
				c0.8-1.1,2.4-1.4,3.5-0.6c12.1,8.7,25.7,16.6,40.5,23.3c1.3,0.6,1.8,2.1,1.2,3.3C125.9,331.7,125,332.2,124,332.2z"/>
		</g>
		<g>
			<path class="st27" d="M177,376c-0.1,0-0.2,0-0.3,0c-1.4-0.2-2.4-1.4-2.2-2.8c1.9-14.5,8.2-50.6,8.3-50.9c0.2-1.4,1.6-2.3,2.9-2
				c1.4,0.2,2.3,1.5,2,2.9c-0.1,0.4-6.4,36.3-8.3,50.7C179.4,375,178.3,376,177,376z"/>
		</g>
		<g>
			<path class="st27" d="M189.3,390.2c-0.1,0-0.2,0-0.3,0c-1.4-0.2-2.3-1.5-2.2-2.8c4.2-31,12-79.4,12-79.9c0.2-1.4,1.5-2.3,2.9-2.1
				c1.4,0.2,2.3,1.5,2.1,2.9c-0.1,0.5-7.8,48.8-12,79.8C191.7,389.3,190.6,390.2,189.3,390.2z"/>
		</g>
		<g>
			<path class="st27" d="M205.1,375.5C205.1,375.5,205.1,375.5,205.1,375.5c-1.4,0-2.5-1.2-2.5-2.6c0.3-19.6,8.2-54.5,8.5-56
				c0.3-1.4,1.6-2.2,3-1.9c1.4,0.3,2.2,1.7,1.9,3c-0.1,0.4-8.1,35.9-8.4,55C207.6,374.4,206.5,375.5,205.1,375.5z"/>
		</g>
		<g>
			<path class="st27" d="M269.5,382.1c-1.4,0-2.5-1.1-2.5-2.5c-0.3-35.3-1-60.6-1-60.9c0-1.4,1.1-2.6,2.4-2.6c0,0,0.1,0,0.1,0
				c1.4,0,2.5,1.1,2.5,2.4c0,0.3,0.8,25.6,1,61C272,380.9,270.9,382,269.5,382.1C269.5,382.1,269.5,382.1,269.5,382.1z"/>
		</g>
		<g>
			<path class="st27" d="M282,374.2c-1.4,0-2.5-1.1-2.5-2.5c-0.1-14.9-2.6-50.1-2.6-50.5c-0.1-1.4,0.9-2.6,2.3-2.7
				c1.3-0.1,2.6,0.9,2.7,2.3c0,0.4,2.5,35.7,2.6,50.8C284.5,373,283.4,374.2,282,374.2C282,374.2,282,374.2,282,374.2z"/>
		</g>
		<g>
			<path class="st27" d="M219.6,396.1C219.5,396.1,219.5,396.1,219.6,396.1c-72.3-2.5-116.8-26.9-117.2-27.2c-1.2-0.7-1.6-2.2-1-3.4
				c0.7-1.2,2.2-1.6,3.4-1c0.4,0.2,43.9,24.1,114.8,26.6c1.4,0,2.5,1.2,2.4,2.6C222,395.1,220.9,396.1,219.6,396.1z"/>
		</g>
		<g>
			<path class="st27" d="M217.1,410.1c-42.5,0-69.5-10.6-70.9-11.2c-1.3-0.5-1.9-2-1.4-3.3c0.5-1.3,2-1.9,3.3-1.4
				c0.4,0.2,44.1,17.3,106.6,8c1.4-0.2,2.7,0.7,2.9,2.1c0.2,1.4-0.8,2.7-2.1,2.9C241.6,409.3,228.8,410.1,217.1,410.1z"/>
		</g>
		<g>
			<path class="st27" d="M23.9,396.1c-0.2,0-0.4,0-0.6-0.1c-1.4-0.3-2.2-1.7-1.8-3.1c7.5-30,27-53.8,31.3-58.7
				c-5.4-39.8,0.1-83.7,0.2-84.2c0.2-1.4,1.5-2.4,2.8-2.2c1.4,0.2,2.4,1.4,2.2,2.8c-0.1,0.4-5.6,44.5,0,84l0.2,1.2l-0.8,0.9
				c-0.2,0.3-23,25.7-30.9,57.5C26.1,395.4,25,396.1,23.9,396.1z"/>
		</g>
		<g>
			<path class="st27" d="M67.2,341.7c-1.1,0-2.2-0.8-2.5-1.9c-6.4-27.5-3.3-63.6-3.1-65.1c0.1-1.4,1.4-2.4,2.7-2.3
				c1.4,0.1,2.4,1.3,2.3,2.7c0,0.4-3.2,36.9,3,63.5c0.3,1.4-0.5,2.7-1.9,3C67.6,341.7,67.4,341.7,67.2,341.7z"/>
		</g>
		<g>
			<path class="st27" d="M367,371.7c-0.1,0-0.3,0-0.4,0c-1.4-0.2-2.3-1.5-2.1-2.9c6.3-42.3-5.3-88-5.4-88.4
				c-0.3-1.3,0.5-2.7,1.8-3.1c1.3-0.4,2.7,0.5,3.1,1.8c0.1,0.5,12,47.1,5.5,90.4C369.3,370.8,368.3,371.7,367,371.7z"/>
		</g>
		<g>
			<path class="st27" d="M379,351.6c-0.1,0-0.3,0-0.4,0c-1.4-0.2-2.3-1.5-2.1-2.9c4.4-27.9-3.5-50.3-3.6-50.5
				c-0.5-1.3,0.2-2.8,1.5-3.2c1.3-0.5,2.7,0.2,3.2,1.5c0.3,1,8.4,23.9,3.8,53C381.3,350.7,380.2,351.6,379,351.6z"/>
		</g>
	</g>
</g>
</svg>
