<?xml version="1.0" encoding="utf-8"?>
<!-- Generator: Adobe Illustrator 24.0.2, SVG Export Plug-In . SVG Version: 6.00 Build 0)  -->
<svg version="1.1" id="Layer_1" xmlns="http://www.w3.org/2000/svg" xmlns:xlink="http://www.w3.org/1999/xlink" x="0px" y="0px"
	 viewBox="0 0 1370 742" style="enable-background:new 0 0 1370 742;" height="742" width="1370" xml:space="preserve">
<style type="text/css">
	.st0{fill:#D9D3C8;}
	.st1{fill:#C6BFB0;}
	.st2{fill:#EAE5E1;}
	.st3{fill:#9C9C9D;}
	.st4{fill:#6F6F6F;}
	.st5{fill:#E79B4F;}
	.st6{opacity:0.55;fill:#CE934F;enable-background:new    ;}
	.st7{opacity:0.55;fill:#E79B4F;enable-background:new    ;}
	.st8{fill:#676765;}
	.st9{opacity:0.32;fill:url(#SVGID_1_);enable-background:new    ;}
	.st10{fill:#323431;}
	.st11{opacity:0.32;fill:#676765;enable-background:new    ;}
	.st12{fill:#424341;}
	.st13{fill:#333532;}
	.st14{fill:#60615F;}
	.st15{fill:#424241;}
	.st16{fill:#343533;}
	.st17{fill:#727371;}
	.st18{opacity:0.75;fill:#727371;enable-background:new    ;}
	.st19{fill:#6A6B69;}
	.st20{fill:#515250;}
	.st21{fill:#131512;}
	.st22{fill:#8C6E2A;}
	.st23{fill:#4E4226;}
	.st24{fill:#8E732D;}
	.st25{fill:#B2933F;}
	.st26{fill:url(#SVGID_2_);}
	.st27{fill:#EBD6A2;}
	.st28{fill:#E9D397;}
	.st29{fill:#351D11;}
	.st30{fill:#016257;}
	.st31{fill:#189684;}
	.st32{fill:#DBBE7C;}
	.st33{fill:#362A14;}
	.st34{fill:#DFD0B0;}
	.st35{fill:#5F471B;}
	.st36{fill:#02574B;}
	.st37{fill:#E8BB48;}
	.st38{fill:#5E3816;}
	.st39{fill:#27190F;}
	.st40{fill:#C3966B;}
	.st41{fill:#017B6D;}
	.st42{fill:#3DBCA6;}
	.st43{fill:#0E463E;}
	.st44{fill:#7DBFB6;}
	.st45{fill:#54C2B7;}
	.st46{fill:#95D4CA;}
	.st47{fill:url(#SVGID_3_);}
	.st48{fill:#3E3126;}
	.st49{fill:#1D1813;}
</style>
<g>
	<g>
		<path class="st0" d="M775.1,713.7c33.1-3.9,57.8-26.7,87.5-36.4c-3-7.8-8.7-14.9-15-20.3c-16.4-13.9-33.8-11.2-52.2-14.1
			c-23.8-3.7-53.1-1.7-73.4,6.4c-8.2,3.3-20.6,8.3-26.6,16.5c7.6,5.2,15,10.7,21.6,17.3C734.3,700.6,746.6,717.1,775.1,713.7z"/>
		<path class="st1" d="M692,678.9c3.1,18,30.2,43.2,45,51.7c18.9,10.9,41.2,11.5,61.9,5.9c18.9-5.2,53.6-17.7,63-36.2
			c3.9-7.7,3.5-15.6,0.7-22.9c-29.7,9.7-54.4,32.5-87.5,36.4c-28.5,3.3-40.7-13.1-58.1-30.6c-6.5-6.6-13.9-12.1-21.6-17.3
			C692.7,669.6,691.1,673.8,692,678.9z"/>
	</g>
	<path class="st2" d="M766.8,648.1c-6.5-0.1-41.8,2-39.3,15.1c3.2,16.9,50.4,4.9,57.6,4.8c10.8-0.1,70.3,14.7,56.6-1.8
		C829.1,651.1,786.7,648.3,766.8,648.1z"/>
</g>
<g>
	<g>
		<path class="st0" d="M48.6,685.6c24.8,11.1,57.3,21.1,84,13.7c16.7-4.6,31.4-14.9,45.8-24.2c8.5-5.5,44.8-28.2,56.5-27.1
			c3.8-0.7,7.8-1.1,11.8-1.2c-1.4-14-6.3-28.1-15.9-36.1c-10.2-8.5-26.4-9.3-38.7-12.1c-20.3-4.6-41.6-5.8-60.9-13.7
			c-23.2-9.4-63.2-33.1-98.6,5.3c-16.9,18.3-29.4,39.6-30.8,59.4c0.5,0.3,1,0.6,1.5,0.9C20,661.3,29.3,677,48.6,685.6z"/>
		<path class="st1" d="M11.1,680.6c19.8,24.3,54.2,47,85.3,52.3c33.3,5.7,70.6-9.1,102.3-18.1c23-6.6,40.6-16.5,46.5-41.3
			c1.8-7.7,2.4-17.2,1.4-26.7c-4,0.1-8,0.5-11.8,1.2c-11.7-1.1-48,21.6-56.5,27.1c-14.4,9.3-29.1,19.5-45.8,24.2
			c-26.7,7.4-59.2-2.6-84-13.7C29.3,677,20,661.3,3.2,650.5c-0.5-0.3-1-0.6-1.5-0.9C0.9,660.8,3.6,671.4,11.1,680.6z"/>
	</g>
	<path class="st2" d="M220,615.7c-3.8-8.4-26.3-3.9-40.8-4.6c-24.3-1.2-34.2-18.7-58.3-18.7c-16.1,0-23.4,4-16,9.2
		c8.5,5.9,13,13.1,21.3,19c7.6,5.4,11.2,9.2,16.1,16.8c1,1.6,1,3.7,2.3,5.2c11.2,13,37.9-4.4,49.8-8.8
		C198.9,632,225,626.8,220,615.7z"/>
	<path class="st1" d="M165.3,659.3c-1.8-3.2-14.5,1.6-17.1-2c-9.8-13.2-12-15.4-23.9-21.9c-17.1-9.4-34.7-23.8-30.8-15.8
		c5.4,11.1,27.4,24.5,24.9,42.5s-6.7,22.7,10,17.5C145.3,674.5,172.7,672.1,165.3,659.3z"/>
	<path class="st1" d="M56,666.7c-3.9,0.5-5.4,10.2,11.7,11.2s27.5,0,31.8-6.8s11.1-17.6,3.3-15.6s-8.3,9.3-18.1,11.2
		C75,668.6,70.1,664.7,56,666.7z"/>
	<path class="st2" d="M61.9,588.7c-3.5,1.1-6.8,3.8-9.4,7c-5.4,6.4-8.3,10.1-15.1,14.9c-3.3,2.4-6.2,4.6-8.1,8.3
		c-6.6,13.2,9.2,28.5,20,16.1c1.7-2,2.5-6.1,3.7-8.2c1.7-2.8,4.2-5,6.9-6.8c3.5-2.5,7.5-4.3,11.2-6.5c5.8-3.4,12.7-7.9,14.8-14.8
		C89.8,586,71.3,582.9,61.9,588.7z"/>
</g>
<g>
	<g>
		<g>
			<path class="st3" d="M1083.5,37.6c0,0-12.4-22.3-27.1-18.1c-14.8,4.2-20.2,21.1-14.4,33.6L1083.5,37.6z"/>
			<path class="st4" d="M1063.1,45.2l-21.1,7.9c-5.5-11.9-0.8-27.7,12.2-32.9C1046.4,29.2,1053.3,42.4,1063.1,45.2z"/>
			<path class="st5" d="M1144.4,214.9l-60.9-177.3c0,0-28.4-11.2-41.5,15.5l76.6,165.6L1144.4,214.9z"/>
			<path class="st6" d="M1125.9,218.7h-7.4L1042,53.1c1.3-2.6,7.1-8.5,8.6-10.4C1073.4,103.4,1125.9,218.7,1125.9,218.7z"/>
			<path class="st7" d="M1062.1,36.1c3.2-0.8,6.3-1,9.2-0.9c-1.3-1.1,65.7,180.6,65.7,180.6l-8.2,1.9
				C1122.1,202.5,1072.8,63.6,1062.1,36.1z"/>
			<path class="st8" d="M1144.4,214.9c0,0,3.4,32.7,19.7,40c16.3,7.2,22.5-1.4,26.7-4.4s15.6-17.2,26.9-4.6
				c11.2,12.7,43.7,91.7,45.3,104.5c1.6,12.8-8,49-29.4,106.7c0,0-37.1-11.5-62.7-31.3s-76.2-99.5-103.3-148.6c0,0-3.8-15.4,2-22.1
				c5.8-6.7,11,2.3,21.4,6.9c10.3,4.6,28.4-3,29.5-21.1s-2.2-21.9-2.2-21.9S1129.7,199.9,1144.4,214.9z"/>
			
				<linearGradient id="SVGID_1_" gradientUnits="userSpaceOnUse" x1="45.6725" y1="655.9106" x2="109.2943" y2="683.7252" gradientTransform="matrix(-0.7539 -0.657 0.657 -0.7539 774.3634 911.3247)">
				<stop  offset="3.743320e-02" style="stop-color:#676765"/>
				<stop  offset="1" style="stop-color:#4E4F4D"/>
			</linearGradient>
			<path class="st9" d="M1142.7,340.3c6.8,3,12.8,5.2,20.2,6.4c3,0.5,5.7-0.1,8.5-0.1c6.1,14.9,13.2,30.3,19.4,44.8
				c-11-4.3-22-8.7-32.9-12.8c-11.5-11.5-28-36.4-34.6-51C1129.4,332.6,1135.8,337.2,1142.7,340.3z"/>
			<path class="st10" d="M1171.9,257.3c1.9,9.9,3.5,20.5,4.4,29.7c0.7,7.5,1.9,17.4-2.5,24.1c-7,10.8-20.9-3-25.3-7.8
				c-13.6-14.6-25.3-29.6-38.4-43.9c5.5-3.7,9.8-9.8,10.3-18.4c1.1-18.1-2.2-21.9-2.2-21.9s11.4-19.1,26.1-4.2c0,0,3.4,32.7,19.7,40
				C1167,256.1,1169.6,256.9,1171.9,257.3z"/>
			<path class="st11" d="M1175.6,329.2c-11.6-25.1-36.1-105.8-40.7-119.8c2.9,0.5,6.1,2.1,9.5,5.5c0,0,3.4,32.7,19.7,40
				c16.3,7.2,22.5-1.4,26.7-4.4s15.6-17.2,26.9-4.6c11.2,12.7,43.7,91.7,45.3,104.5c1.6,12.8-8,49-29.4,106.7c0,0-0.3-0.1-0.8-0.2
				C1209.2,417.1,1194.9,371,1175.6,329.2z"/>
			<path class="st12" d="M1253.9,340c-8.3-27-20.4-48.3-34-76.9c-5.2-11-15-20-25.5-10.6c-31.8,28.4-49.3-12.9-54.5-41.2
				c1.5,0.9,3,2,4.5,3.6c0,0,3.4,32.7,19.7,40c16.3,7.2,22.5-1.4,26.7-4.4s15.6-17.2,26.9-4.6c11.2,12.7,43.7,91.7,45.3,104.5
				c0.7,5.4-0.7,14.9-4,28.4C1259.7,358.6,1256.7,349.1,1253.9,340z"/>
			<path class="st13" d="M1078.5,254.3c5.3,10.5,9.9,22.1,14.8,32.2c7.3,15.1,14.3,30.3,21.6,45.5c10.3,21.6,20.6,42.8,29.5,64.7
				c-25.7-33.3-57.2-84.2-76.7-119.4c0,0-3.8-15.4,2-22.1C1072.5,251.9,1075.2,252.4,1078.5,254.3z"/>
			<path class="st14" d="M1145.4,262.7c-3.6-15.3-8-32.3-8.6-47.9c3.3,6.2,6.4,12.6,9.4,19.1c4.1,11.1,10.8,23.4,14.1,35.2
				c4.5,16.2,7,30.6,7.6,46C1167.4,315.1,1151.8,289.6,1145.4,262.7z"/>
			<g>
				<path class="st15" d="M1083.5,37.6l2.7,8.1c-8.4-3.5-27.9-4.8-40.3,16l-3.9-8.6c4.5-9.2,11.2-15.3,17.6-17.5
					C1071.7,31.4,1083.5,37.6,1083.5,37.6z"/>
			</g>
		</g>
		<path class="st6" d="M1089.3,78.8c0.1,20-3.1,39.8-8.1,59.2l-32.5-70.3C1067.3,59.9,1089.3,54.6,1089.3,78.8z"/>
		<g>
			<path class="st3" d="M1027.9,90.9c0,0,8.1-34.1,32.2-24.9c22,8.4,6.7,39.9,6.7,39.9L1027.9,90.9z"/>
			<path class="st4" d="M1062.1,66.8c19,9.5,4.7,39,4.7,39l-22.9-8.8C1053.7,91.8,1063.5,79.1,1062.1,66.8z"/>
			<path class="st15" d="M1053.7,82.4c8,2.3,12.4,7.4,16.8,13.3c-1.4,5.8-3.7,10.1-3.7,10.1l-38.9-15c0,0,1-3.9,3.3-8.4
				C1038.5,80.5,1046.7,80.3,1053.7,82.4z"/>
			<path class="st5" d="M984.8,235.2l43.1-144.4c0,0,30.5-6.4,38.9,15l-54.2,137.4L984.8,235.2z"/>
			<path class="st6" d="M1060,96.5c2.8,2.3,5.2,5.3,6.7,9.3l-54.2,137.4l-10.3-1.2L1060,96.5z"/>
			<path class="st7" d="M995.6,242.6l-6.2,0.5l52.1-153c3.9,0.3,8.2,1,12.1,2.6C1048.7,105.2,997.5,234.6,995.6,242.6z"/>
			<path class="st16" d="M1012.6,243.2c0,0-6.3-14.4-27.7-8c0,0-2.5,24.9-7.5,34.5s-16.1,18.5-30.7,19.2c-14.6,0.6-17.1-3-20,7.1
				c-2.9,10-16.2,93.7-55.7,143.9c0,0-3.8,6.2,4.1,4.8c7.9-1.4,20.4-12.8,30.7-33.3c10.3-20.4,34.9-82.2,37.7-84.6s8.4-0.5,7.3,8.2
				c-1.1,8.7-8.9,36.2-21.9,65.5s-33.3,50.7-33.9,55.3c-0.9,7.3,18.9,3.6,39-28.4c18.4-29.4,40.3-77.6,48.9-86.1
				c8.5-8.5,16.3-0.1,11.2,17c-4.9,16.3-41.9,78.6-64.6,104.3c-3.1,3.5-0.8,5.7,1.2,5.7c6.2,0.1,17.1-6.4,29.9-22.3
				c19.1-23.7,40.7-53.7,54.7-80.8c10.8-20.9,21.4-45.7,7-51.9c-14.4-6.2-30.7-21.4-24.9-39.3
				C1003.2,256.1,1012.6,243.2,1012.6,243.2z"/>
			<path class="st17" d="M989.2,267.6c0,0,15.7-29.1,9.4-30.3C995.1,236.6,989.9,264,989.2,267.6z"/>
			<path class="st17" d="M991.3,240.6c0,0,1-4.4-1-4.6c-2-0.2-3.1,8.2-5.5,18.9c-2.4,10.7-4,16-6,19.7s-15,12.5-20.9,17.6
				c-6,5.1,2.4,5.4,5,2.7c1.4-1.4,19.6-18.1,19.8-19.4C982.9,274,991.3,240.6,991.3,240.6z"/>
			<path class="st18" d="M961.8,306c2.3,1.2,4.6,2.2,7.1,3.1c3.3,1.3,6.8,1.6,10.2,2.3c2.8,0.5,6.2-0.1,8.5,1.8
				c2.1,1.8,3.8,4.7,1.8,7.2c-4.9,6-13.7-1.4-18.4-3.9c-3.7-2-7.4-2.6-11.5-3.6c-3.6-0.8-8.5-2.2-11.5-4.4c-4.5-3.3-1.7-9.4,3.5-9
				C955.3,299.8,958.8,304.4,961.8,306z"/>
			<path class="st18" d="M879.1,432.8c0,0,26.2-28.1,43.6-84.1c0.8-2.7,1.7-5.3,2.7-8c2.3-6.6,4.4-13.4,5.4-20.3
				c0.3-1.8,1.3-12.9-3.8-9.1c-1.2,0.9-5.5,20.5-6.7,25.9C914.9,361.4,900.6,397.3,879.1,432.8z"/>
			<path class="st18" d="M905.4,447.3c0,0,28-27.1,50.2-83c1-2.6,12.3-25.6,12.8-32.6c0.5-6.8-4.7-9.9-9.6-5.9
				c-3.5,2.8-7.2,20.2-8.4,25.6C945,375.6,931.7,408,905.4,447.3z"/>
			<path class="st18" d="M997.5,364.7c1.8-5.2,12.6-31.8,3.4-38.9c-4.2-3.2,2.6-6.5,2.6-6.5c12.9-1.1,12.1,12.6,8.4,24.1
				c-1.6,5.2-12.2,30.5-13.3,33c-23.5,53.7-56.9,80.2-56.9,80.2C967,423.8,989.4,388.1,997.5,364.7z"/>
		</g>
	</g>
	<g>
		<path class="st13" d="M808.8,471.3c4.3-0.2,5.7,0.7,9.4-1.6c5.2-3.3,11-2.9,16-5.8c1.2-0.7,2.8-0.4,3.6,0.6l0,0
			c0.3-0.2,0.2-0.4,0.7-0.4c0.3-2.4-1.6-4.2-1.4-6.8c0.2-2.2,1.3-5.4,2.3-7.4c2.7-5.3,9.9-8,16.2-8.3c6-0.2,14.4,2.6,18.4-1.4
			c9.6-1,18.1-2.5,27.5-6.2c9.2-3.7,16.8-7.3,27-4.8c16.4,4,33.1,7.3,50,8.3c12.2,3.7,25,5.3,38.8,8.5c8.7,2,17.9,1.6,26.7,2.3
			l-1.1,0.5c4.9,1.9,10.4,3.9,15.5,5.9c3.6,1.4,12.2,0.6,12.7,5.7c-5.1-0.1-10-1.2-15.4-1c-3.5,0.2-4.5,1.3-7.4,2.3
			c-2.3,0.8-4.9,0.3-7.3,0.2c-2.4-0.1-5.8-0.6-8.1-0.1c-2.3,0.5-4,2.2-6.2,3.1c-4.2,1.8-13,1.1-9,6.8c2.1,3,12.6,8.9,9.4,12.6
			c-3.1,3.5-22,1.9-26.2,1.4c-7.3-0.9-14.1-4.5-21-6.4c-6.1-1.7-13.3-5-19.6-4.8l1.2,0.3c-3.4,0.3-7-0.6-10.4-0.4
			c-2.4,0.1-5.1,0.3-7.3,0.4c-5.3,0.2-10.2,1.1-15.4,1.7c-0.7,2.9,3.5,2.8,4.5,4.7c-10.8,0.6-21.8,2.1-32.8,1.4
			c-5.4-0.3-5.1-1.5-7.4-5.1c-2.6-4.1-6.1-3.3-10.7-4.1c-7-1.2-13-3.8-20.2-1.5c-3.2,1-6.3,3.4-10,2.8c-1.9-0.3-2.4-1.7-5-1.7
			c-1.7,0-3.1,0.6-4.7,1.1c-7.5,2.2-14.1,4.4-21.9,3c-3.2-0.6-6.1-2.8-9.3-3.1c-3-0.3-5.9,1.1-8.8,1.3
			C801.2,472,806.1,471.4,808.8,471.3z"/>
		<path class="st13" d="M984.7,447.9c-3.7-0.2-11.1-1.6-11.5-5.8c2.6-0.2,4.8,1.2,7.2,1.9c3.6,1.2,7.2,1.1,10.9,0.9
			c6.5-0.3,12.4,0.3,18.6,2.1c5.2,1.4,11.1,3.6,15.4,6.5c3.4,2.4,6.1,5.3,8.9,8.1c-0.5,0-0.9,0.1-1.4,0.2c-0.8,0.2-1.5,0.5-2.2,0.8
			c-1.4-1.1-2.7-2.7-3.9-3.6c-2.4-1.9-4.6-3.4-7.5-4.5c-4.8-1.9-10.3-4-15.4-5.2C997.9,447.8,990.9,448.2,984.7,447.9z"/>
		<path class="st13" d="M940.5,453c-1.9-1.8-3.3-4.2-5.8-5.3c3.7,2.2,8.6,3.5,12.5,5.8c5.6,3.4,10.8,6.2,17.3,8.2
			c6.2,1.9,10.8,5.9,15.4,9.9c1.9,1.6,3.2,3.5,4.3,5.6c0.6,1.1,1,2.6,1.7,4c-2-0.7-4-1.4-6-2c-1.2-0.3-2.5-0.7-3.8-1.2
			c-0.1-0.2-0.2-0.4-0.3-0.7c-1.6-4.6-3.8-8.3-9-10.7c-6.1-2.8-12.6-4.6-18.5-7.7C945.3,457.3,942.9,455.3,940.5,453z"/>
		<path class="st13" d="M852.7,470.4c5.4-1.5,10.4-3.1,16.2-3.3c7.1-0.3,12.4-1.9,18.9-4.2c4.2-1.5,10-1,13.5-4.1
			c1.4-1.3,2.3-3.3,2.4-4.5c1.1,5.9-5.4,8.4-10.7,10.2c-6.1,2-12,4.7-18.5,5.9c-1.8,0.3-3.8,0.4-5.6,0.6c-2.3-0.1-4.6,0.1-7.1,0.9
			c-3.2,1-6.3,3.4-10,2.8c-1.7-0.3-2.3-1.3-4-1.6C849.7,471.8,851.8,470.7,852.7,470.4z"/>
		<path class="st19" d="M839.4,449.8c2.7-5.3,9.9-8,16.2-8.3c4.5-0.2,10.4,1.4,14.7,0.5c3.8,0.9,7.8,1.6,11.6,2.3
			c-5.9,4-14.9-1.1-21.7-0.2c-7,0.8-15.1,3.3-21.3,6.9C839.1,450.5,839.3,450.2,839.4,449.8z"/>
		<path class="st20" d="M950.2,441.6c4.6,0.4,9-1,13.6,0.4c2.1,0.6,4.8,1.2,6.5,2.6c1.6,1.2,1.1,3.1,2.3,4.2c1,1,4.5,1.1,6,1.4
			c2.3,0.4,4.7,0.5,7.1,0.5c2.4,0,4.6-0.1,6.9-0.3c2.8-0.2,4.1,0.5,6.5,1.6c3.7,1.6,8.5-0.9,12,1.3c1.3,0.8,1.7,2.7,0.9,4
			c-1,1.7-4.4,1.9-6.3,1.9c-5.4-0.1-11-2.1-16.4-2.5c-4.6-0.4-7.5,1.2-11.2,3.2c-4.1,2.1-9.3,0-13.1-1.8c-2.1-1-3.8-1.6-6.2-1.9
			c-1.6-0.2-4.2,0-5.6-0.7c-1.6-0.8-0.7-2.5,0.8-3.4c2-1.3,4.7-0.5,6.7-1.4c5.1-2.2-6.4-4.4-7.9-4.8c-1.7-0.4-3.8-0.7-3.9-2.5
			c0-1.4,1.5-2.3,2.7-1.4C951.4,441.8,950.4,441.6,950.2,441.6z"/>
		<path class="st20" d="M876.6,439.9c8.6-1,16.4-2.5,24.9-5.9c3.8-1.5,7.4-3,11-4.1c1.9,0,3.9-0.1,5.6-0.4c2.6-0.5,5.8-0.7,8.2,0.6
			c2.2,1.2,3.2,2.5,5.8,3c1.9,0.4,3.8,1.3,1.6,2.9c-1.9,1.4-5.3,1.5-7.6,1.7c-2.8,0.2-5.6,0.3-8.4,0.4c-1.9,0.1-5.3-0.3-7,0.5
			c-1.9,0.9-1.5,2.1,0.2,2.8c1.4,0.5,4.5,0.5,1.6,1.7c-2.4,1-5.8,0.7-8.4,1c-2.6,0.4-5.3,1-7.9,1.4c-2.4,0.4-8.1,1.9-9.9,0
			c-0.8-0.8-0.3-1.8-1.5-2.5c-1-0.6-2.7-0.7-3.9-0.7c-2.6,0-4.8,1.3-4.4-1.9C876.6,440.1,876.6,440,876.6,439.9z"/>
		<path class="st19" d="M909.3,459c4.2-2.6,11.7-1,16.2,0.2c3.7,1,8.5,2.8,12.4,2.1c2-0.4,2.9-1.2,5.1-0.7c0.9,0.2,4.9,1.1,4.8,1.9
			c-0.1,1.5-6.5,0.8-7.7,0.9c-2.3,0.1-3.8,0.8-5.7,1.8c-3.3,1.8-6.6,1.8-10.5,1.6c-3-0.1-4.6-1.2-7.2-1.9c-2.3-0.7-4.7-0.4-6.5-2
			c-0.6-0.6-1.6-1.8-1.5-2.6C908.6,459.4,908.9,459.8,909.3,459z"/>
		<path class="st19" d="M849,452.5c2.1-0.5,2.8-0.9,3.9-2.2c1.2-1.6,2-1.7,4.3-2c5.6-0.7,10.1,1.6,15.4,2.5
			c1.8,0.3,15.2-0.4,15.2,0.4c0.1,1.8-5.6,1-5.6,3.1c0,1.7,3.8,1.6,5.1,1.7c1.6,0.1,5.3,0.2,3.4,1.9c-1.4,1.3-5.3,1.4-7.2,1.5
			c-2.6,0.2-5.3,0.6-7.9,0.1c-2.7-0.5-5.1-1.1-7.9-1.2c-3.7-0.1-8.6,0.5-11.3,2.6c-3.1,2.4-9.5,2.3-13.5,1.5
			c-3.8-0.7-4.3-5.4-1.4-7.3c1.5-1,3.2-1,4.8-1.6C847.6,453.1,847.4,452.9,849,452.5z"/>
		<path class="st13" d="M1052.6,465c2.1-3.6,6.4-0.9,8.4,0.8c-1.8,1.4-5.1,2-7.6,1.5C1049.5,466.6,1051.5,467,1052.6,465z"/>
		<path class="st13" d="M1026.5,472.7c3.4-2,4-4.4,8.7-4.4c3,0,9.5,0.6,11.3,3.1c-1.2,1.6-3.6,2.4-5,3.8c-0.9,0.9-0.2,1.3-1.7,1.9
			c-1.2,0.5-2.9,0-4.1-0.3c-2.5-0.6-3.8-2.2-6.1-3.1C1028.8,473.4,1023,474.8,1026.5,472.7z"/>
		<path class="st13" d="M974.7,487.1c1.2-2.5,10.2-2.6,9.5,1.2c-2.2,0.8-5.8,2.1-8.1,2.1C972.5,490.5,972.2,488.6,974.7,487.1z"/>
		<path class="st13" d="M944.5,480.2c3.3-0.7,5.7-1.6,9.3-1c3.3,0.5,6.3,1.6,9.5,2.1c0.1,1.8-4.1,5-6,5.1c-2.7,0.2-5-2.1-8.1-1.6
			c-2.4,0.4-5.4,2.8-6.7-0.2C941.4,482.2,942.4,480.6,944.5,480.2z"/>
		<path class="st13" d="M911.5,491.2c0.5-3.1,3.3-4.2,6.4-4.6c1.3-0.2,8-1.1,8.9-0.2c2.8,2.8-5.3,4-6.6,4.1
			c-2.7,0.2-5.7,1.8-8.4,1.5C911.6,491.3,911.4,491.5,911.5,491.2z"/>
		<path class="st13" d="M840.8,480.7c2.4-0.7,6.2-0.7,8.8-0.7c2.3,0,7.6,0.4,3.7,2.8c-1.8,1.1-6.7,1.6-8.8,1
			C842.9,483.4,836.5,482,840.8,480.7z"/>
		<path class="st13" d="M829.2,481.7c1.8-1,7.7-0.6,5.2,2.2c-1,1.1-6.8,0.8-8.3,0.8C825.7,482.3,827.6,482.5,829.2,481.7z"/>
	</g>
	<g>
		<path class="st13" d="M981.7,495.2c0.3-0.3,0.2-0.6,1-0.6c0.4-3.4-2.3-5.8-1.9-9.4c0.3-3.1,1.8-7.4,3.2-10.3
			c3.7-7.4,13.7-11.1,22.4-11.4c9.6-0.4,23.6,4.9,27.5-5.2c3.1-7.9-0.3-17.2,8.1-23.1c4.1-2.9,9.4-3.4,14.3-4.1
			c6-1,11.8-2.7,17.8-3.9h-3.7c4.2-1.6,7.6-4.4,11.5-6.5c3.4-1.8,6.7-2.8,10.1-4.4c2-2.1,3.8-6.5,7.2-7.9c0.4-3.1,5.7-6.4,9.1-7.7
			c-0.1,0.2-0.1,0.4,0,0.6c4-0.4,8,0.8,12.3,0.2c2.7-0.2,7.9,0.8,10.5,0.9c0.8,0.5,1.1,0.7,1.9,1c0.7,1,0.3,0.4,1.2,1
			c0.9,1.3,1.8,2,3.6,2.7c2.2,2.6,6.4,3.2,10.2,5.1c2.8-0.1,5.6,2.4,8.7,3c0.4,1.4,0.7,1.8,2,3.1c-0.5,2.2,1.5,5.1,2.4,7.5
			c0.2,0,0.3-0.1,0.4-0.2c0.3,1.8,1.2,3.1,2.8,3.8c1.9,4.3,6.2,4.4,10.5,4.1c0.5-0.2,0.6-0.6,1.1-0.8c0.1,0,0.2,0.3,0,0.3
			c0.9-0.5,2.1-0.9,3-1.4c0.3,0.9,0.5,0.2,1.6,0.8c-0.6,0.1-1,0-1.2-0.4c5,0,9.7,0.2,14.6,1c5.8,0.9,8,3.6,12.8,5.8
			c7.8,3.6,18,3,26,7.1c3.3,1.7,5.8,4.2,8.8,6c3.6,2.2,7.8,3.3,12.2,4.7c3.6,1.2,8.4,2.2,10.8,5.2c2.7,3.4,0,7.7,3.1,10.9l-2.1,0.9
			c6.8,2.6,14.3,5.4,21.4,8.2c5,1.9,16.8,0.9,17.5,7.8c-7-0.1-13.8-1.7-21.3-1.3c-4.9,0.2-6.2,1.8-10.3,3.2c-3.2,1.1-6.7,0.4-10,0.2
			c-3.3-0.1-8-0.8-11.2-0.1c-3.2,0.7-5.5,3-8.5,4.3c-5.7,2.4-17.9,1.6-12.4,9.4c2.9,4.1,17.4,12.3,13,17.4
			c-4.2,4.9-30.4,2.6-36.2,1.9c-10.1-1.2-19.5-6.2-29.1-8.9c-8.4-2.3-18.4-6.9-27.1-6.6l1.6,0.5c-4.7,0.4-9.7-0.8-14.4-0.6
			c-3.3,0.1-7.1,0.5-10.1,0.6c-7.4,0.3-14.1,1.6-21.3,2.4c-1,4,4.8,3.9,6.3,6.5c-15,0.8-30.1,2.8-45.3,2c-7.4-0.4-7-2.1-10.2-7.1
			c-3.6-5.6-8.5-4.5-14.8-5.6c-9.7-1.7-18-5.2-27.9-2c-4.4,1.4-8.7,4.6-13.8,3.8c-2.7-0.4-3.4-2.3-6.9-2.3c-2.3,0-4.3,0.9-6.5,1.5
			c-10.4,3-19.5,6.1-30.3,4.2c-4.4-0.8-8.4-3.9-12.8-4.3c-4.1-0.4-8.2,1.5-12.2,1.8c-1-4.6,5.9-5.4,9.5-5.6c5.9-0.3,7.9,1,13-2.3
			c7.1-4.6,15.2-4,22.1-8C978.4,493.4,980.6,493.7,981.7,495.2L981.7,495.2z"/>
		<path class="st13" d="M1184.8,472.3c-5.1-0.3-15.3-2.3-15.8-8.1c3.6-0.2,6.7,1.6,9.9,2.7c5,1.7,9.9,1.5,15.1,1.2
			c9-0.4,17.2,0.5,25.7,2.8c7.2,2,15.4,4.9,21.2,9c4.7,3.3,8.4,7.4,12.3,11.2c-0.7,0-1.3,0.1-1.9,0.2c-1.1,0.2-2,0.7-3,1.2
			c-1.9-1.6-3.8-3.7-5.4-5c-3.3-2.6-6.3-4.7-10.4-6.3c-6.7-2.7-14.2-5.6-21.3-7.2C1203,472.2,1193.3,472.7,1184.8,472.3z"/>
		<path class="st13" d="M1123.6,479.4c-2.6-2.5-4.6-5.8-8-7.4c5.1,3.1,11.9,4.8,17.2,8c7.8,4.6,14.9,8.5,23.9,11.3
			c8.5,2.7,14.9,8.2,21.3,13.6c2.6,2.2,4.4,4.8,6,7.8c0.8,1.5,1.4,3.6,2.3,5.5c-2.8-1-5.5-2-8.3-2.7c-1.7-0.5-3.4-1-5.2-1.6
			c-0.1-0.3-0.3-0.6-0.4-0.9c-2.3-6.3-5.3-11.5-12.4-14.8c-8.4-3.9-17.4-6.4-25.6-10.7C1130.3,485.3,1126.9,482.5,1123.6,479.4z"/>
		<path class="st13" d="M1002.3,503.5c7.5-2.1,14.4-4.2,22.3-4.5c9.8-0.4,17.2-2.6,26.1-5.8c5.8-2.1,13.8-1.4,18.7-5.7
			c2-1.7,3.2-4.5,3.3-6.3c1.5,8.2-7.5,11.7-14.8,14.1c-8.5,2.8-16.6,6.6-25.6,8.1c-2.5,0.4-5.2,0.5-7.8,0.9
			c-3.1-0.1-6.4,0.1-9.8,1.2c-4.4,1.4-8.7,4.6-13.8,3.8c-2.3-0.4-3.2-1.8-5.5-2.2C998.1,505.3,1001,503.8,1002.3,503.5z"/>
		<path class="st19" d="M984,475c3.7-7.4,13.7-11.1,22.4-11.4c6.2-0.3,14.3,1.9,20.3,0.7c5.3,1.3,10.8,2.2,16,3.1
			c-8.1,5.5-20.6-1.5-30-0.3c-9.6,1.2-20.8,4.6-29.5,9.5C983.5,476,983.7,475.5,984,475z"/>
		<path class="st19" d="M1160.6,441.4c5,0,8.8-2.1,13.6-2.6c7.4-0.7,14.4,2.6,21.7,3.8c3.8,0.6,7.7,0.2,11.4,1.3
			c3.7,1.2,5,3.8,8.1,5.6c2.5,1.4,6.5,1.5,8.2,4c1.4,2,0.6,4.9-1.3,6.4c-4.6,3.6-13.4-0.7-18.9,0.6c-4.2,1-5.8,1.5-10-0.1
			c-3-1.2-4.7-3.6-7.5-5c-5.6-2.8-12.6-1.2-16.6-6.4c-1.6-2.1-2.7-2.4-5.6-3.3c-2-0.7-4.7-1.4-3.7-3.8
			C1160.4,440.9,1159.3,441.4,1160.6,441.4z"/>
		<path class="st19" d="M1232.7,458.6c0.6,0,0.9,0.1,1.6,0.1c3.1,2.3,10,1.3,13.9,3.2c5.5,2.7,2.2,5.8-3.2,5.1
			c-2.8-0.4-5.5-1.8-8.3-2.3c-2.5-0.4-5.3,0.7-7.2-1C1226.4,461,1229.8,456.3,1232.7,458.6z"/>
		<path class="st20" d="M1137.1,463.6c6.4,0.5,12.5-1.3,18.8,0.5c2.9,0.9,6.6,1.7,9,3.5c2.3,1.7,1.5,4.3,3.1,5.9
			c1.4,1.4,6.2,1.5,8.3,1.9c3.2,0.5,6.5,0.7,9.9,0.7c3.2,0,6.3-0.2,9.5-0.5c3.8-0.3,5.7,0.7,9,2.2c5.1,2.2,11.8-1.2,16.6,1.8
			c1.7,1.1,2.3,3.7,1.3,5.5c-1.4,2.4-6.1,2.6-8.7,2.6c-7.5-0.2-15.2-2.9-22.6-3.5c-6.4-0.5-10.4,1.7-15.5,4.4
			c-5.7,2.9-12.8,0-18.2-2.5c-2.9-1.4-5.3-2.2-8.5-2.6c-2.2-0.2-5.8,0.1-7.7-1c-2.2-1.2-1-3.4,1.1-4.7c2.8-1.7,6.5-0.7,9.3-1.9
			c7-3.1-8.9-6.1-10.9-6.6c-2.3-0.6-5.3-1-5.3-3.5c0-1.9,2-3.2,3.7-1.9C1138.7,463.8,1137.4,463.6,1137.1,463.6z"/>
		<path class="st19" d="M1046.6,435.7c6.4,0,13.2-1.1,18.7-3.8c3.7-1.8,10.2-4.5,14.6-4c2.8,0.3,2.4,3.2,0.8,5.2
			c-2.6,3.4-8,4-12.1,4.9c-5,1.1-9.4,3.1-14.3,4.3c-2.5,0.6-7.6,1.4-9.7-0.4C1042.1,439.6,1042.8,435.7,1046.6,435.7z"/>
		<path class="st20" d="M1038.6,456.2c4.6-3.6,11.4-2,16.8-1.7c3.8,0.2,7.5-0.3,11.1-1.2c3.6-1,6-3,9.2-4.5c5.2-2.3,11.7-1,17.2-2.1
			c3.6-0.7,8-1,11.4,0.8c3.1,1.6,4.4,3.5,8,4.2c2.6,0.5,5.2,1.8,2.2,4c-2.6,2-7.3,2.1-10.5,2.3c-3.9,0.3-7.7,0.4-11.7,0.5
			c-2.6,0.1-7.3-0.4-9.6,0.7c-2.6,1.3-2.1,3,0.3,3.8c1.9,0.7,6.2,0.7,2.2,2.3c-3.3,1.4-8,0.9-11.6,1.4s-7.3,1.3-10.9,1.9
			c-3.3,0.5-11.2,2.6-13.7,0c-1.1-1.1-0.4-2.4-2.1-3.5c-1.4-0.9-3.8-1-5.4-1c-3.5,0-6.6,1.9-6.1-2.6
			C1035.6,459.2,1034.6,455.8,1038.6,456.2z"/>
		<path class="st19" d="M1080.5,487.6c5.7-3.6,16.1-1.4,22.4,0.3c5.1,1.3,11.7,3.9,17.1,3c2.8-0.5,4-1.7,7-1
			c1.2,0.3,6.7,1.5,6.6,2.7c-0.2,2.1-9.1,1.1-10.6,1.2c-3.2,0.1-5.2,1.1-7.9,2.5c-4.6,2.4-9.2,2.4-14.5,2.2c-4.1-0.2-6.4-1.6-10-2.6
			c-3.2-0.9-6.5-0.6-9-2.8c-0.9-0.8-2.2-2.4-2.1-3.5C1079.6,488.2,1080,488.8,1080.5,487.6z"/>
		<path class="st19" d="M997.2,478.7c2.9-0.7,3.9-1.2,5.3-3.1c1.7-2.2,2.8-2.4,5.9-2.8c7.7-1,14,2.1,21.4,3.4
			c2.5,0.4,21-0.5,21.1,0.5c0.1,2.5-7.7,1.4-7.8,4.2c0,2.4,5.3,2.2,7,2.4c2.2,0.2,7.3,0.2,4.7,2.7c-1.9,1.8-7.4,1.9-9.9,2.1
			c-3.6,0.3-7.4,0.8-10.9,0.1c-3.7-0.7-7.1-1.5-10.9-1.6c-5.1-0.1-12,0.7-15.7,3.6c-4.3,3.4-13.1,3.1-18.7,2.1
			c-5.2-0.9-5.9-7.5-1.9-10.1c2-1.4,4.5-1.4,6.7-2.2C995.3,479.5,995,479.2,997.2,478.7z"/>
		<path class="st13" d="M1278.6,496c3-5,8.8-1.3,11.7,1.1c-2.5,1.9-7,2.8-10.5,2.1C1274.3,498.1,1277,498.7,1278.6,496z"/>
		<path class="st13" d="M1242.5,506.6c4.8-2.7,5.6-6.1,12-6c4.2,0,13.2,0.8,15.7,4.2c-1.7,2.2-4.9,3.3-6.9,5.2
			c-1.3,1.2-0.3,1.8-2.3,2.6c-1.6,0.7-4,0.1-5.6-0.4c-3.4-0.9-5.3-3.1-8.4-4.3C1245.7,507.5,1237.7,509.4,1242.5,506.6z"/>
		<path class="st13" d="M1170.9,526.5c1.7-3.5,14.1-3.5,13.2,1.7c-3,1.2-8,2.9-11.2,2.9C1167.9,531.1,1167.5,528.6,1170.9,526.5z"/>
		<path class="st13" d="M1129.2,516.9c4.6-0.9,7.9-2.2,12.8-1.4c4.5,0.7,8.8,2.1,13.2,2.9c0.1,2.4-5.7,6.9-8.3,7
			c-3.7,0.2-6.8-2.9-11.2-2.1c-3.3,0.6-7.4,3.9-9.3-0.3C1124.9,519.7,1126.2,517.5,1129.2,516.9z"/>
		<path class="st13" d="M1083.6,532.1c0.7-4.3,4.6-5.8,8.8-6.4c1.7-0.2,11.1-1.5,12.3-0.3c3.9,3.9-7.3,5.5-9.1,5.6
			c-3.8,0.3-7.9,2.4-11.6,2.1C1083.7,532.3,1083.5,532.6,1083.6,532.1z"/>
		<path class="st13" d="M985.8,517.6c3.3-1,8.6-0.9,12.1-1c3.2,0,10.5,0.6,5.1,3.9c-2.5,1.6-9.2,2.2-12.1,1.4
			C988.8,521.4,979.9,519.5,985.8,517.6z"/>
		<path class="st13" d="M969.8,519c2.5-1.3,10.6-0.8,7.1,3.1c-1.4,1.5-9.5,1.1-11.5,1.1C965,519.8,967.6,520.2,969.8,519z"/>
		<path class="st21" d="M1164.9,450.7c-13.4-10.9-32-20.1-50.1-23.3c-7.4-1.3-13.7-1.1-20.4,2c-6.1,2.8-11.9,4.4-16,9.6
			c8,0.3,15.6-5.7,23.2-6.7c7.9-1,16.9,0.1,24.5,1.8c3.9,0.9,8,1.9,11.5,3.5c3.4,1.5,5.4,3.9,8.4,6c5.6,4,11.1,7.1,18.4,6.8
			c0.6,0,1.6-0.3,2.3-0.4C1166.4,450,1165.2,450.7,1164.9,450.7z"/>
	</g>
</g>
<g>
	<path class="st22" d="M672.3,152.7c49.9,28.2,93.8,54.8,93.8,58.5c0,4.8-31.4,40.8-60.5,69.2c-18.5-20.5-32.5-28.5-42.3-31.2
		C683.1,230.8,702.7,198.2,672.3,152.7z"/>
	<path class="st22" d="M628.5,128.4c-3.8,6.6-6,10.7-6,10.7c-33.1-4.9-55.7,25.8-69.1,53.1h-0.1c-15.4-2.8-27.4-4.8-27.4-4.8
		s-53.3-42.1-85.4-40.9c-32.2,1.3-100.7,70.3-100.7,70.3c-36-48.4-71.3-103.4-67.8-112.3c5-12.4,227.9-36,265-22.3
		C551.3,87.4,588.2,106.5,628.5,128.4z"/>
	<path class="st23" d="M672.3,152.7c10.4,15.6,14.9,29.6,15.6,42.1c20.2,13.2,39.7,27.5,58.4,42.8c11.7-13.4,19.8-23.9,19.8-26.3
		C766.1,207.5,722.2,180.9,672.3,152.7z"/>
	<path class="st23" d="M622.5,139.1c0,0,2.2-4.1,6-10.7c-40.3-21.9-77.2-41-91.5-46.2C499.9,68.5,277,92,272,104.5
		c-1.1,2.7,1.4,9.7,6.4,19.3c86.8-7.6,166-17.4,251.3-2c22.1,4,42.9,13.6,63.8,22.4C602.1,139.7,611.7,137.5,622.5,139.1z"/>
	<path class="st24" d="M798.3,488.3c0,0,47.2,35.1,45.5,53.5c-20.1-2.7-67.4-48.5-67.4-48.5c2.8-81.4-23-171.9-23.9-175.2
		c6.3-7.7,11.7-14.6,15.6-20.1C797.5,373.9,798.3,488.3,798.3,488.3z"/>
	<path class="st25" d="M843.9,541.8c-0.2,2.9-1.6,5.4-4.7,7.2c-22.3,13.6-105.3-7.4-105.3-7.4s-180.8,29.7-221.1,29.7
		c-40.4,0-173.1-34.7-173.1-34.7s-83.9,23.3-121.2,10.5C189.9,525.2,257.7,419,257.7,419c-9-28.5-0.7-157.1-0.1-167.8
		c0.1-0.4,0.1-0.7,0.1-0.7c1.6-10.5,2.6-16.9,2.6-16.9c22.5,37,76.1,120.3,109.6,134.6c43.3,18.6,236.5,35.9,287.3,24.7
		c33.3-7.3,71.3-46,95.4-74.9c1,3.3,26.8,93.8,23.9,175.2C776.5,493.3,823.8,539.1,843.9,541.8z"/>
	<linearGradient id="SVGID_2_" gradientUnits="userSpaceOnUse" x1="527.6898" y1="584.4246" x2="527.6898" y2="382.5673">
		<stop  offset="0" style="stop-color:#E9CB82"/>
		<stop  offset="1" style="stop-color:#95782E"/>
	</linearGradient>
	<path class="st26" d="M843.9,541.8c-0.2,2.9-1.6,5.4-4.7,7.2c-22.3,13.6-105.3-7.4-105.3-7.4s-180.8,29.7-221.1,29.7
		c-40.4,0-173.1-34.7-173.1-34.7s-83.9,23.3-121.2,10.5C189.9,525.2,257.7,419,257.7,419c-9-28.5-0.7-157.1-0.1-167.8
		c0.1-0.4,0.1-0.7,0.1-0.7c1.6-10.5,2.6-16.9,2.6-16.9c22.5,37,76.1,120.3,109.6,134.6c43.3,18.6,236.5,35.9,287.3,24.7
		c33.3-7.3,71.3-46,95.4-74.9c1,3.3,26.8,93.8,23.9,175.2C776.5,493.3,823.8,539.1,843.9,541.8z"/>
	<path class="st27" d="M752.6,318.1c0.4,1.3,4.3,15,8.9,36c5.7-8.5,11-17.6,16.2-27.1c-2.8-10-5.9-19.8-9.4-29
		C764.2,303.5,758.9,310.4,752.6,318.1z"/>
	<path class="st24" d="M776.5,493.3c0,0,47.3,45.8,67.4,48.5c1.6-18.4-45.5-53.5-45.5-53.5s-0.6-88.4-20.7-161.3
		c-5.1,9.5-10.5,18.5-16.2,27.1C769,388.5,778.3,442.6,776.5,493.3z"/>
	<path class="st28" d="M657.2,393c-50.8,11.1-244-6.2-287.3-24.7c-33.5-14.3-87.1-97.6-109.6-134.6c0,0-0.3,2-0.9,5.4
		c35,64.2,71.6,137.5,134.3,158.4c96.6,37.2,215.5,52,312.1,7.4c23.8-10.6,41-28.8,55.7-50.8c-4.6-21-8.5-34.7-8.9-36
		C728.5,347,690.5,385.7,657.2,393z"/>
	<path class="st29" d="M653.8,464.3c23.6-15,38.4-34.9,46.5-57.1c-95.6,41.6-211.8,26.7-306.5-9.7c-62.8-20.9-99.3-94.2-134.3-158.4
		c-0.4,2.9-1,6.7-1.7,11.4c0,0,0,0.2-0.1,0.7c-0.7,10.7-8.9,139.4,0.1,167.8c0,0-0.3,0.4-0.8,1.2
		C368.6,508.5,530.2,546.7,653.8,464.3z"/>
	<path class="st30" d="M776.4,5.6c6.6,28.1-9.2,58.2-23.8,66.7c-53.9,31.7-80.3,80.5-80.3,80.5s-4.5-1.9-10,0
		c13.9-45.8,75.3-84.2,86.5-90.4C759.4,56.4,778,16.6,776.4,5.6z"/>
	<path class="st31" d="M628.5,128.4C643.7,101.8,684,33.9,705.6,19c27-18.6,66.7-23.6,70.4-14.9c0.2,0.4,0.2,1,0.3,1.4
		c1.6,11.1-16.9,50.8-27.6,56.8c-11.1,6.2-72.6,44.5-86.5,90.4c0,0,8.4,11.7,9.3,30.4c-15.5-25.9-39.2-21.7-39.2-21.7
		c-46.4,5-59.7,67.2-59.7,67.2c-17.4,1-34.4,3.4-34.4,3.4s4.8-18.9,15.1-39.8c13.4-27.3,36-58,69.1-53.1
		C622.5,139.1,624.7,135,628.5,128.4z M749.2,30.3c1-4.8,0.6-9.2-1.3-10.4c-3.7-2.3-16.3-0.4-26,7c-9.8,7.4-7.6,18.1-4.7,20
		c2.5,1.6,6.1,1.8,10,1c4.9-0.9,10.3-3.2,14.6-5.7C745.7,39.9,748.2,35,749.2,30.3z"/>
	<path class="st32" d="M752.6,318.1c-24.1,28.9-62.1,67.6-95.4,74.9c-50.8,11.1-244-6.2-287.3-24.7
		c-33.5-14.3-87.1-97.6-109.6-134.6c-6.6-10.8-10.6-17.7-10.6-17.7c-2.5-52,22.3-111.5,22.3-111.5c-3.6,8.9,31.7,63.9,67.8,112.3
		c27,36.3,54.3,69,66,75.9c27.3,16.1,234.1,32.2,257.6,22.3c8.8-3.6,25.1-17.8,42.3-34.5c29.1-28.4,60.5-64.3,60.5-69.2
		c6,25.6,10,75.3,10,75.3c-1,1.9-3.8,6-7.9,11.5C764.2,303.5,758.9,310.4,752.6,318.1z"/>
	<path class="st33" d="M339.8,216.8c-36-48.4-71.3-103.4-67.8-112.3c0,0-24.7,59.4-22.3,111.5c0,0,3.9,6.8,10.6,17.7
		c22.5,37,76.1,120.3,109.6,134.6c0.6,0.3,1.3,0.5,1.9,0.8c8.2-25.9,19.8-51.5,33-77C392.6,284,366,252.2,339.8,216.8z"/>
	<path class="st32" d="M662.5,315.2c-26.6,9.3-229.8-6.6-256.8-22.5c-0.3-0.2-0.6-0.4-1-0.6c-13.2,25.4-24.7,51-33,77
		c46.7,18.3,235.3,35,285.4,24c4.8-1,9.6-2.8,14.5-5C672,363.9,669.1,339.5,662.5,315.2z"/>
	<path class="st34" d="M766.1,211.2c0,4.8-31.4,40.8-60.5,69.2c-17.2,16.7-33.5,30.9-42.3,34.5c-0.2,0.1-0.6,0.2-0.8,0.3
		c6.6,24.3,9.5,48.6,9.1,72.8c29.4-13.2,60.3-45.1,80.9-69.9c6.3-7.7,11.7-14.6,15.6-20.1c4.1-5.5,6.8-9.6,7.9-11.5
		C776.1,286.5,772.1,236.8,766.1,211.2z"/>
	<path class="st35" d="M705.6,280.4c-17.2,16.7-33.5,30.9-42.3,34.5c-23.6,9.9-230.3-6.2-257.6-22.3c-11.7-6.9-39-39.5-66-75.9
		c-36-48.4-71.3-103.4-67.8-112.3c0,0-4.9,11.9-10.2,29.7c23,77.1,87.3,163.9,117,181.5c58.2,38.4,225.4,38.4,299.7,28.5
		c28.1-14,68.6-54.3,95.7-77.1c-1.7-16.8-4.6-40.6-8.2-55.9C766.1,216.1,734.7,252,705.6,280.4z"/>
	<path class="st36" d="M747.9,19.9c1.9,1.2,2.3,5.6,1.3,10.4c-21.5-4.5-22,17.6-22,17.6c-3.9,0.7-7.5,0.6-10-1
		c-2.9-1.9-5.1-12.6,4.7-20C731.6,19.5,744.2,17.6,747.9,19.9z"/>
	<path class="st37" d="M696.7,166.6c-7.9-4.5-16-9.2-24.4-14c30.5,45.5,10.8,78.1-8.9,96.5c8.6,2.3,20.4,8.8,35.7,24.2
		C708.6,238.5,708.9,201.5,696.7,166.6z"/>
	<path class="st38" d="M538.3,232c0,0,17-2.5,34.4-3.4c15.5-0.9,31.5-0.7,36.2,3.4c5.5,4.8,15.6,17.3,23.5,27.4
		c2.2,2.7,4.1,5.4,5.8,7.6c0,0,12.6-6,25.2-17.8c9.8,2.7,23.8,10.7,42.3,31.2c-17.2,16.7-33.5,30.9-42.3,34.5
		c-23.6,9.9-230.3-6.2-257.6-22.3c-11.7-6.9-39-39.5-66-75.9c0,0,68.5-69,100.7-70.3c32.2-1.2,85.4,40.9,85.4,40.9s12,2,27.4,4.8
		h0.1C543.1,213,538.3,232,538.3,232z"/>
	<path class="st39" d="M544.7,212.4c2.3-6,5.2-13,8.7-20.2h-0.1c-15.4-2.8-27.4-4.8-27.4-4.8s-53.3-42.1-85.4-40.9
		c-21.3,0.8-58.6,31.4-81.3,52c0.7,0.8,1.4,1.6,2.2,2.4C420.9,153.8,480.7,194.6,544.7,212.4z"/>
	<path class="st39" d="M644,263.7c-3.5,2.1-5.8,3.2-5.8,3.2c-1.7-2.2-3.6-4.8-5.8-7.6c-7.9-10.1-18-22.6-23.5-27.4
		c-4.7-4.1-20.7-4.3-36.2-3.4c-5.3,0.3-10.5,0.7-15.2,1.2c29.3,8.7,48,31.7,57.1,59.7c12.5-0.8,25-1.9,37.3-3.7
		C650.6,278.2,648.2,270.9,644,263.7z"/>
	<path class="st40" d="M701.6,276.1c-16.5-17.3-29.2-24.5-38.3-26.9c-7.3,6.8-14.5,11.6-19.3,14.5c4.2,7.1,6.6,14.5,7.8,22
		c-57.6,8.1-117.3,6-176.4-7.2c-47.3-10.5-83.4-43.3-116.3-80c-11.5,10.4-19.4,18.3-19.4,18.3c27,36.3,54.3,69,66,75.9
		c27.3,16.1,234.1,32.2,257.6,22.3c8.8-3.6,25.1-17.8,42.3-34.5C704.2,278.9,702.9,277.5,701.6,276.1z"/>
	<path class="st41" d="M672.3,152.7c30.5,45.5,10.8,78.1-8.9,96.5c-12.6,11.7-25.2,17.8-25.2,17.8c-1.7-2.2-3.6-4.8-5.8-7.6
		c33.1-29.6,40.2-56.8,39.2-76.3c-0.9-18.7-9.3-30.4-9.3-30.4C667.8,150.8,672.3,152.7,672.3,152.7z"/>
	<path class="st42" d="M671.6,183.1c1,19.5-6.2,46.7-39.2,76.3c-7.9-10.1-18-22.6-23.5-27.4c-4.7-4.1-20.7-4.3-36.2-3.4
		c0,0,13.2-62.2,59.7-67.2C632.4,161.4,656.1,157.1,671.6,183.1z"/>
	<path class="st31" d="M640.5,146.3c-10.3,0.5-20.7,2.4-31.3,6c-27.4,6.8-48.4,32.6-57.4,71.4c7.8-1.1,15.7-2.4,23.3-3.6
		c5.5-17.1,21.5-54.9,57.3-58.7c0,0,11.9-2.1,24.3,5.9C653.3,159.8,648.1,152.7,640.5,146.3z"/>
	<path class="st43" d="M776.4,5.6c-0.1-0.4-0.1-1-0.3-1.4c-3.7-8.7-43.4-3.7-70.4,14.9c-21.6,14.9-61.9,82.8-77.1,109.4
		c-3.8,6.6-6,10.7-6,10.7c-33.1-4.9-55.7,25.8-69.1,53.1c-6.5,13.2-10.8,25.7-13.1,33c3.9-0.4,7.7-1,11.6-1.6
		c9-38.8,30-64.6,57.4-71.4c10.6-3.5,21.1-5.4,31.3-6c7.6,6.4,12.8,13.5,16.2,21c5.1,3.3,10.4,8.2,14.9,15.8
		c-0.9-18.7-9.3-30.4-9.3-30.4c0.5-1.8,1.3-3.5,1.9-5.3c16.7-43.5,73.8-79.2,84.5-85.1C759.4,56.4,778,16.6,776.4,5.6z M749.2,30.3
		c-1,4.7-3.4,9.6-7.4,11.9c-4.4,2.5-9.7,4.8-14.6,5.7c-3.9,0.7-7.5,0.6-10-1c-2.9-1.9-5.1-12.6,4.7-20c9.7-7.4,22.3-9.3,26-7
		C749.8,21.1,750.2,25.5,749.2,30.3z"/>
	<path class="st43" d="M748.8,62.3c0.4-0.2,0.8-0.5,1.1-0.8C719,67.1,688,73.6,657.1,81c-9.1,14.3-17.5,28.3-23.8,39
		c16.8-1.5,33.8-3.1,50.8-4.7C707.7,87.3,740.9,66.7,748.8,62.3z"/>
	<path class="st43" d="M717.2,46.9c-2.9-1.8-5-12.4,4.4-19.8c-11.7,3.6-23.4,7.5-35,11.5c-5.7,7.1-11.7,15.5-17.6,24.3
		c16.6-5.9,33.3-10.9,50.2-15C718.5,47.6,717.8,47.3,717.2,46.9z"/>
	<path class="st43" d="M775.7,12.7c-9.5,2.1-19.1,4.4-28.5,7c0.2,0.1,0.5,0.1,0.7,0.3c1.9,1.2,2.3,5.6,1.3,10.4
		c-1,4.7-3.4,9.6-7.4,11.9c-0.5,0.3-1,0.5-1.5,0.8c8.5-1.8,17.1-3.3,25.7-4.7C770.5,29.3,774.2,19.6,775.7,12.7z"/>
	<path class="st44" d="M538.3,232c0,0,17-2.5,34.4-3.4c0,0,0.7-3.4,2.4-8.5c-11.3,1.8-23.1,3.9-34.8,5.2
		C538.9,229.4,538.3,232,538.3,232z"/>
	<path class="st41" d="M663.3,249.2c19.8-18.4,39.4-51,8.9-96.5c0,0-4.5-1.9-10,0c0,0,8.4,11.7,9.3,30.4
		c0.8,15.3-3.6,35.5-21.6,57.8c3,4,5.9,8.1,8.9,12.3C660.4,251.9,661.8,250.6,663.3,249.2z"/>
	<path class="st45" d="M650,240.9c-4.9,6-10.6,12.2-17.7,18.5c2.2,2.7,4.1,5.4,5.8,7.6c0,0,9.8-4.7,20.7-13.8
		C656,249,653,244.9,650,240.9z"/>
	<path class="st42" d="M656.7,167.3c-12.4-8-24.3-5.9-24.3-5.9c-35.8,3.8-51.8,41.5-57.3,58.7c26.6-4.2,50.5-6.8,63.8,6.5
		c2.7,3.4,5.4,6.8,8,10.3C659.6,215.6,666.7,189.8,656.7,167.3z"/>
	<path class="st43" d="M671.6,183.1c-4.5-7.6-9.8-12.5-14.9-15.8c10.1,22.5,2.9,48.4-9.8,69.6c1,1.4,2.1,2.6,3.1,4
		C668,218.5,672.4,198.4,671.6,183.1z"/>
	<path class="st46" d="M638.9,226.5c-13.3-13.3-37.2-10.7-63.8-6.5c-1.6,5.1-2.4,8.5-2.4,8.5c15.5-0.9,31.5-0.7,36.2,3.4
		c5.5,4.8,15.6,17.3,23.5,27.4c7-6.3,12.8-12.5,17.7-18.5C646.3,236,642.6,231.2,638.9,226.5z"/>
	<linearGradient id="SVGID_3_" gradientUnits="userSpaceOnUse" x1="281.5753" y1="102.6267" x2="438.8456" y2="205.4141">
		<stop  offset="0" style="stop-color:#A2914E"/>
		<stop  offset="1" style="stop-color:#FFFFFF"/>
	</linearGradient>
	<path class="st47" d="M272,104.5c-3.6,8.9,31.7,63.9,67.8,112.3c0,0,68.5-69,100.7-70.3c10.3-0.4,22.7,3.7,34.9,9.3
		c-39.3-33-86.1-56.6-135.9-66.4C301.9,94.5,273.7,100.1,272,104.5z"/>
	<path class="st32" d="M257.6,251.1c-0.7,10.7-8.9,139.4,0.1,167.8c0,0-67.8,106.3-39.1,128.1c-6.5-2.2-11.7-5.6-14.6-10.5
		c-19.8-32.2,38.3-130,38.3-130C240.4,371.3,252.1,287.6,257.6,251.1z"/>
	<g>
		<g>
			<path class="st48" d="M603,285.1c0.3,3.7,13,4.6,13.2,0C616.5,280.5,602.5,279.3,603,285.1z"/>
		</g>
		<g>
			<path class="st48" d="M585.9,241.2c1.3,2.5,10.5-0.5,9.3-3.9C594.1,233.9,583.8,237.2,585.9,241.2z"/>
		</g>
		<g>
			<path class="st48" d="M537.4,285.1c2.8,3.7,16.9-3.6,14.1-8.8C548.7,271.2,533,279.3,537.4,285.1z"/>
		</g>
		<g>
			<path class="st48" d="M547.6,246.6c1.4,3.1,13,0.1,11.8-4.1C558.2,238.3,545.3,241.6,547.6,246.6z"/>
		</g>
		<g>
			<path class="st48" d="M460.9,269.9c1.8,2.7,11.9-1.8,10.2-5.4C469.3,260.8,458,265.7,460.9,269.9z"/>
		</g>
		<g>
			<path class="st48" d="M509.5,247.1c-1.7,4.8,13.6,13.5,16.7,7.7C529.3,249.1,512.2,239.4,509.5,247.1z"/>
		</g>
		<g>
			<path class="st48" d="M645.8,285c2.3,3.2,14.6-2.6,12.4-7.1C656,273.4,642.2,279.9,645.8,285z"/>
		</g>
		<g>
			<path class="st48" d="M506.6,229.9c1.4,4.2,16.6,1.9,15.6-3.7C521.3,220.7,504.4,223.3,506.6,229.9z"/>
		</g>
		<g>
			<path class="st48" d="M487.4,209.5c2.8,5,21.4-1.5,18.9-8.4C503.7,194.3,482.9,201.6,487.4,209.5z"/>
		</g>
		<g>
			<path class="st48" d="M479.4,187c1.3,2.8,11.5,0.1,10.4-3.6C488.8,179.6,477.4,182.6,479.4,187z"/>
		</g>
		<g>
			<path class="st48" d="M459.2,210c-1.3,3.8,10.8,10.4,13.1,5.9C474.6,211.3,461.2,204,459.2,210z"/>
		</g>
		<g>
			<path class="st48" d="M433.3,154.2c0.7,3.5,13.3,3.1,13-1.5C446,148.1,432.1,148.6,433.3,154.2z"/>
		</g>
		<g>
			<path class="st48" d="M420.8,233.2c1.1,3.4,13.3,1.7,12.5-2.8C432.6,225.9,419,227.8,420.8,233.2z"/>
		</g>
		<g>
			<path class="st48" d="M401.8,207.2c-0.8,2.1,5.8,6.2,7.3,3.7C410.6,208.5,403.2,203.9,401.8,207.2z"/>
		</g>
	</g>
	<g>
		<g>
			<path class="st49" d="M549.7,452.8c-62.6,0-107.7-14.5-130.9-22l-5.2-1.6c-51.5-16.2-94.5-48-95-48.3c-1.6-1.2-2-3.6-0.8-5.2
				c1.2-1.6,3.6-2,5.2-0.8c0.4,0.3,42.5,31.4,92.8,47.2l5.2,1.7c39.6,12.8,144.7,46.6,291.7-10.6c1.9-0.7,4.1,0.2,4.8,2.1
				c0.7,1.9-0.2,4.1-2.1,4.8C652,444.8,596.1,452.8,549.7,452.8z"/>
		</g>
		<g>
			<path class="st49" d="M553.6,473.5c-47.6,0-95.7-7.8-144-23.4c-2-0.6-3-2.7-2.4-4.7c0.6-2,2.7-3,4.7-2.4
				c102.2,33.1,203.6,30.5,301.3-7.5c1.9-0.8,4.1,0.2,4.8,2.1c0.7,1.9-0.2,4.1-2.1,4.8C662.8,463.1,608.5,473.5,553.6,473.5z"/>
		</g>
		<g>
			<path class="st49" d="M549,493.4c-72.7,0-143.6-18-211.9-53.9c-1.8-1-2.5-3.2-1.6-5c1-1.8,3.2-2.5,5-1.6
				c95.1,50,195.4,64.8,298.2,43.9c2-0.4,4,0.9,4.4,2.9c0.4,2-0.9,4-2.9,4.4C609.6,490.2,579.1,493.4,549,493.4z"/>
		</g>
		<g>
			<path class="st49" d="M381.7,438.7c-0.5,0-1-0.1-1.5-0.3c-22.3-10.2-42.8-22-61-35.2c-1.7-1.2-2-3.5-0.8-5.2
				c1.2-1.7,3.5-2,5.2-0.8c17.8,12.9,37.9,24.5,59.7,34.4c1.9,0.9,2.7,3.1,1.8,4.9C384.5,437.9,383.1,438.7,381.7,438.7z"/>
		</g>
		<g>
			<path class="st49" d="M460,503.3c-0.2,0-0.3,0-0.5,0c-2-0.3-3.5-2.1-3.2-4.2c2.8-21.4,12.2-74.6,12.3-75.1c0.4-2,2.3-3.4,4.3-3
				c2,0.4,3.4,2.3,3,4.3c-0.1,0.5-9.5,53.6-12.2,74.8C463.4,501.9,461.8,503.3,460,503.3z"/>
		</g>
		<g>
			<path class="st49" d="M478.1,524.3c-0.2,0-0.3,0-0.5,0c-2-0.3-3.5-2.2-3.2-4.2c6.2-45.8,17.7-117.2,17.8-117.9
				c0.3-2,2.2-3.4,4.3-3.1c2,0.3,3.4,2.2,3.1,4.3c-0.1,0.7-11.5,72-17.8,117.7C481.5,523,479.9,524.3,478.1,524.3z"/>
		</g>
		<g>
			<path class="st49" d="M501.4,502.6C501.4,502.6,501.3,502.6,501.4,502.6c-2.1,0-3.7-1.7-3.7-3.8c0.4-29,12.1-80.5,12.6-82.7
				c0.5-2,2.4-3.3,4.4-2.8c2,0.5,3.3,2.4,2.8,4.4c-0.1,0.5-12,52.9-12.4,81.1C505.1,500.9,503.4,502.6,501.4,502.6z"/>
		</g>
		<g>
			<path class="st49" d="M596.4,512.3c-2,0-3.7-1.6-3.7-3.7c-0.4-52.2-1.5-89.5-1.5-89.8c-0.1-2.1,1.6-3.8,3.6-3.8c0,0,0.1,0,0.1,0
				c2,0,3.7,1.6,3.7,3.6c0,0.4,1.2,37.8,1.5,90C600.1,510.6,598.5,512.2,596.4,512.3C596.4,512.3,596.4,512.3,596.4,512.3z"/>
		</g>
		<g>
			<path class="st49" d="M614.8,500.6c-2,0-3.7-1.6-3.7-3.7c-0.2-22-3.9-73.9-3.9-74.5c-0.1-2,1.4-3.8,3.4-4c1.9-0.1,3.8,1.4,4,3.4
				c0,0.5,3.7,52.7,3.9,74.9C618.6,498.9,616.9,500.6,614.8,500.6C614.9,500.6,614.9,500.6,614.8,500.6z"/>
		</g>
		<g>
			<path class="st49" d="M522.7,533c0,0-0.1,0-0.1,0c-106.6-3.7-172.2-39.8-172.8-40.1c-1.8-1-2.4-3.3-1.4-5.1
				c1-1.8,3.3-2.4,5.1-1.4c0.6,0.4,64.8,35.5,169.5,39.2c2,0.1,3.7,1.8,3.6,3.8C526.3,531.5,524.7,533,522.7,533z"/>
		</g>
		<g>
			<path class="st49" d="M519,553.6c-62.6,0-102.5-15.6-104.7-16.5c-1.9-0.8-2.8-2.9-2.1-4.8c0.8-1.9,2.9-2.8,4.8-2.1
				c0.6,0.3,65.1,25.5,157.4,11.8c2.1-0.3,3.9,1.1,4.2,3.1c0.3,2-1.1,3.9-3.1,4.2C555.2,552.5,536.3,553.6,519,553.6z"/>
		</g>
		<g>
			<path class="st49" d="M233.9,533c-0.3,0-0.6,0-0.9-0.1c-2-0.5-3.2-2.5-2.7-4.5c11.1-44.2,39.9-79.4,46.1-86.7
				c-7.9-58.8,0.1-123.6,0.2-124.2c0.3-2,2.1-3.5,4.2-3.2c2,0.3,3.5,2.1,3.2,4.2c-0.1,0.6-8.2,65.7,0,124l0.2,1.7l-1.2,1.3
				c-0.3,0.4-33.9,38-45.6,84.8C237.1,531.9,235.6,533,233.9,533z"/>
		</g>
		<g>
			<path class="st49" d="M297.9,452.7c-1.7,0-3.2-1.2-3.6-2.9c-9.4-40.5-4.8-93.8-4.6-96.1c0.2-2,2-3.6,4-3.4c2,0.2,3.5,2,3.4,4
				c-0.1,0.5-4.7,54.4,4.4,93.7c0.5,2-0.8,4-2.8,4.5C298.5,452.7,298.2,452.7,297.9,452.7z"/>
		</g>
		<g>
			<path class="st49" d="M740.3,496.9c-0.2,0-0.4,0-0.6,0c-2-0.3-3.4-2.2-3.1-4.2c9.3-62.5-7.9-129.9-8-130.5c-0.5-2,0.7-4,2.7-4.5
				c2-0.5,4,0.7,4.5,2.7c0.2,0.7,17.7,69.5,8.2,133.5C743.7,495.6,742.1,496.9,740.3,496.9z"/>
		</g>
		<g>
			<path class="st49" d="M758,467.3c-0.2,0-0.4,0-0.6,0c-2-0.3-3.4-2.2-3.1-4.2c6.5-41.1-5.1-74.2-5.3-74.5
				c-0.7-1.9,0.3-4.1,2.2-4.8c1.9-0.7,4.1,0.3,4.8,2.2c0.5,1.4,12.4,35.2,5.6,78.2C761.4,466,759.8,467.3,758,467.3z"/>
		</g>
	</g>
</g>
</svg>
