<?xml version="1.0" encoding="utf-8"?>
<!-- Generator: Adobe Illustrator 24.0.2, SVG Export Plug-In . SVG Version: 6.00 Build 0)  -->
<svg version="1.1" id="Layer_1" xmlns="http://www.w3.org/2000/svg" xmlns:xlink="http://www.w3.org/1999/xlink" x="0px" y="0px"
	 viewBox="0 0 630 638" style="enable-background:new 0 0 630 638;" height="638" width="630" xml:space="preserve">
<style type="text/css">
	.st0{fill:#573936;}
	.st1{fill:#6D4E43;}
	.st2{fill:#888A35;}
	.st3{fill:#BCBF45;}
	.st4{fill:#9D9B36;}
	.st5{fill:#94CB68;}
</style>
<g>
	<g>
		<path class="st0" d="M305.7,421.2l3-9.3c0,0,7.1-15.3,12.8-34.1c3.6-11.8,6.1-39.6,8.3-51.4c2-11,23.5-20.5,49.3-37.8
			c25.8-17.3,35.4-62.9,35.4-62.9l-20.7-6.4c0,0-14.6,52.1-30.5,60.7c-15.9,8.6-42.5,29.9-48.2,28c-8.3-2.7-31.2-31.5-38.1-42.7
			c-6.9-11.3-28.8-70-28.8-70.7c0-0.7-9.9-2.4-7,7.8c0.4,1.4,1.3,3.8,2.5,6.8c1.3-0.4,2.3-0.4,2.8,0.3c5.4,7.1,27.8,58.9,32.4,69.1
			c4.6,10.2,26.6,34.5,33.1,48.8c6.5,14.2-4.5,36.1-11.3,62c-6.8,25.9-16.5,48.8-28.9,42.7c-12.4-6.1-31.8-39.6-39.2-58.9
			c-7.4-19.3-14.9-42.7-19.4-52.3c-4.5-9.6-18.4-25-23.8-39.7c-0.4-1-0.6-2-0.9-3c0,0,0,0,0-0.1c-0.2-0.4-0.3-0.9-0.4-1.5
			c-0.6-2.6-0.9-5-1-7.1c-1-10.4-1.3-26.4-0.6-31.7c1-7.4,10.1-52.9,10.1-52.9s-14.1,0.3-17.1,9.8c-3,9.5-6.9,62.7-8.9,65
			c-2,2.3-21.8,0.7-29.8,0c-7.9-0.7-20.8-14.6-20.8-14.6l-5,6.2c0,0,13.1,20.6,25.8,18.3c26.6-4.7,60.4,38.2,68.6,57.5
			c8.2,19.3,15.9,52.5,24.7,72c3.2,7,14.9,19.8,24.6,38.1c9.7,18.3,14.9,24,16.2,37.6c0.9,9,0.3,31.9,1,43
			c1.2,18.3,7.7,104.4,7.7,104.4c12.9,20.8,35.9,5.1,37.2,1.5c1.3-3.6-17.1-87.3-20.1-99.4c-3-12.1-5.3-41.2-5-53
			c0.4-15.2,7.3-32.3,14.7-39.5c10.1-9.9,40.9-18.9,48.9-21c3.9-1,7.4-9.8,10.1-19.2c-8.4,6.6-17.1,11.2-24.1,14.6
			C330.4,413.1,305.7,421.2,305.7,421.2z"/>
		<path class="st0" d="M400.5,346.3c5.7-2.6,31.1-29.3,53.5-48.9c16.6-14.5,32.4-23.4,32.4-23.4s-2-6.4-4.2-8.6
			c-10.4,10-35.2,32.1-45.9,41.5C426,316,411.3,327.9,400.5,346.3z"/>
		<path class="st1" d="M388.2,335.9c-19.7,4.6-18.3,44-26.2,54.7c-7.9,10.7-53.3,21.3-53.3,21.3l-3,9.3c0,0,24.7-8.1,39.6-15.2
			c7-3.3,15.7-8,24.1-14.6c2.8-9.5,4.8-19.7,5.8-23c2-6.6,16.9-19.8,24.8-21.8c0.1,0,0.3-0.2,0.5-0.2c10.8-18.4,25.5-30.3,35.9-39.4
			c10.7-9.4,35.5-31.5,45.9-41.5c-0.6-0.6-1.2-1-1.8-0.7C455,278.1,407.9,331.3,388.2,335.9z"/>
		<path class="st1" d="M306.2,343.4c-4.2,19.3-20.3,78.6-27.3,81c-10.7,3.7-23.3-19.7-30.1-29.1c-4.1-5.7-21.6-51.8-25.6-64
			c-4-12.2-32.5-48.5-34.7-53.3c0.3,1,0.5,1.9,0.9,3c5.5,14.7,19.4,30.1,23.8,39.7c4.5,9.6,11.9,33,19.4,52.3
			c7.4,19.3,26.8,52.8,39.2,58.9c12.4,6.1,22.1-16.8,28.9-42.7c6.8-25.9,17.8-47.8,11.3-62c-6.5-14.2-28.5-38.6-33.1-48.8
			c-4.6-10.2-27-62-32.4-69.1c-0.5-0.7-1.6-0.6-2.8-0.3c8,19.6,30.8,68.9,37.2,79.5C293.5,309.9,309.1,330.2,306.2,343.4z"/>
	</g>
	<path class="st2" d="M215.6,64.2c-13.5-9.7-27.8-3.6-34.1,8c-2.6-3.8-6.3-6.4-12-6.3c-8,0.2-11.8,7.1-13.8,14.3
		c-4.6-8.2-12-16.5-20.9-12.1c-7.2,3.5-6.7,10.6-4.2,16.9c-7.7-3.3-16.6-4.8-22.1,3.1c-5.5,8,0.6,18.2,6.5,25.5
		c-10.8,20.7-8.8,56,11,67.1c31.8,17.9,59.3-19.9,70.8-44.7c4.5-9.6,8.3-19.7,13.6-28.9c3.8-6.7,12.5-13.8,14.5-21.3
		C227.2,77.4,222.4,69.1,215.6,64.2z"/>
	<path class="st2" d="M544.3,90c-4.7-1.9-16.8,2.8-16.8,2.8s-1.1-10.5-3.4-13.1c-5.3-6-11.9-5.9-17.5-2.7
		c-1.9-15.5-19.2-24.6-27.4-11.1c-4.3-8.6-12.3-16.2-22.5-10.9c-8.1,4.2-8.2,12.8-6.5,20.9c-13.2,9.7-18.5,35-9.1,47.8
		c8.6,11.7,25.3,7.1,37.4,7.1c12.4,0,24.9,1,37.1,3.1c4.6,0.8,12.2,3.8,17.1,1.9C547.7,129.9,566.1,98.8,544.3,90z"/>
	<path class="st2" d="M402.7,188.5c-25-17.1-61.9-31.5-90.7-15.4c-17.9,10-28.1,31.5-23.2,50.9c-0.2,0.1-0.4,0.1-0.6,0.3
		c-27.2,27.5,11.3,64.3,38.5,43.4c1.2,11.4,4.6,23.6,16.4,26.9c6.7,1.9,13.3,0.1,17.4-4.5c5.2,10.2,12.6,20.1,24.7,19.8
		c8.4-0.2,15.2-5.1,17.4-12.5c21.9,8.3,42.9-6.8,46.9-31.1C454.9,234,426.5,204.8,402.7,188.5z"/>
	<g>
		<path class="st3" d="M46.9,165.3c-12,19.3,5.5,53.1,36.2,47.9c-1,20.2,11.4,30.7,26.9,30.3c11.2,2.7,28-9.5,29.6-20
			c9.4,9.9,31.4,9.9,37-9.7c19.7,8.4,39.9-1.9,43.9-24.9c14.7,10,40.3,8.7,49.7-9.4c22.7,9.4,33.1-6.2,37.2-21.4
			c12.1,7.9,39.1,5.1,48.3-4.8c0,18.7,21.4,33.4,44.9,24.5c-3.5,11.6,18,28.2,35.9,17.9c3.4,20.2,30.2,20.2,36.6,13
			c7.6,11.8,29.9,13,37.9,0c2.2,7.3,14.3,7.9,18,2.2c31.7,40,69.8,14.6,78.2-22.4c-2.9-3.2-7.7-5.7-15.5-7c2.1-4.2,4.8-9,3.1-14
			c-3.8-11.1-23.8-10.1-36.4-9.5c7.4-12.1,13.7-28.8,0.7-39.1c-8.8-7-23.2-4.2-36.7,1.1c1-9.3-2.2-20.2-8.8-23.2
			c-5.3-2.4-11.3,2.8-14.5,6.7c-2.6,3.2-4.3,7.2-4.8,11.2c-10.9-4.4-22.1-4.7-33.4-1.9c3.5-12.3,5.6-27.3-3.1-37.1
			c-13.6-15.3-41.6-25-62.9-13.7c-6.2-16.4-22.4-25.8-29.3-28.1c-11-3.5-21.2,1.1-28.2,9.5c-12.3-20.2-37.7-40.6-60.5-37.7
			C267,7,256.8,12.9,252.3,25c-19.4-5.7-36.8-8.3-52.6,6.4c-10.3,9.6-11.8,34.4-3.8,47.3c-6,1.5-13.2,3.7-20.2,9
			c-9.8,7.4-8.3,22.9-2.5,32.9c-5.1,0.3-10.1,2.2-13.7,5.8c-2.7,2.7-4.5,6.9-3.5,10.9c-4.1,0.7-8.1,1.6-12.2,2.6
			c-0.1-14.6-6.4-29.9-22-33.1c-11.7-2.4-22.4,3.9-27,13.9c-6.8-9.8-16.1-18.5-28.3-14.5c-5.1,1.7-9,5-11.2,9.2
			c0.6,7.2,2.8,19.9,10.9,27.2C60.4,148.4,50.2,160.1,46.9,165.3z"/>
		<path class="st4" d="M26.3,129.9c-8.1,12.5-5.6,26.6-0.1,39.9c-6.9,0-16,0.6-19.7,8c-4.6,9.2,15.6,13.8,24,17.7
			c-17.3,7.3-11,33.8,6.5,34c-7.4,9.5-12.7,21.5-5.4,32.8c6.5,10.2,15.9,9.3,24.5,4.9c-3.5,20.2,18,37.2,37.6,24.3
			c16.7,20.1,38.3-0.2,49.2-18.4c13.8,22.5,43.3,24.5,60,2.7c11.1,6.2,28,12.5,35-1.2c6.9-13.5,2.9-25.2-4.5-32.8
			c10.3,2,12.7-5.5,16-17c0.6-2.1,0.8-4,0.9-6c3.8,2.1,7.9,3.5,12.6,4c12.4,1.4,25-1.7,28.3-13.2c8.9,0.7,21.9,1.2,29.2-9.8
			c5.3-7.9,5.1-16.8,2.1-25c9.8,0.4,18.6-2.2,27-8.9c-7.9,16.6,2.2,34.9,18.9,40.5c-6.4,9.6-3.3,26.6,5.7,35.4
			c7.8,7.7,36.2,25.2,45.9,13.3c2.1,5.4,6.3,9.5,12.2,9c3.6-0.3,7.1-2.5,9.9-5.6c4.5,5.9,21.5,7.8,31.6,3.7
			c-1.6,10.6,1.9,21.7,9.6,30.5c5.3,6.1,14,8.6,20.2,9.5c-7.5,15.9-8,29.8-3.1,39c4.8,9.1,15.5,14,25.3,13.1
			c16-1.4,40.8-22.4,36.6-40.7c23.8-0.3,51.5-10.5,56.5-37.1c1.9-9.9-2.1-21.4-7.7-29.8c14-3.4,23.5-27.1-4.3-33.9
			c2-3.2,8.6-16,0.8-24.4c-8.4,37-46.5,62.4-78.2,22.4c-3.7,5.7-15.9,5.1-18-2.2c-8,13-30.3,11.8-37.9,0c-6.4,7.3-33.2,7.3-36.6-13
			c-17.9,10.3-39.4-6.3-35.9-17.9c-23.5,8.9-44.9-5.9-44.9-24.5c-9.2,9.9-36.2,12.7-48.3,4.8c-4.1,15.2-14.4,30.8-37.2,21.4
			c-9.4,18.1-34.9,19.4-49.7,9.4c-4.1,22.9-24.2,33.3-43.9,24.9c-5.6,19.6-27.6,19.6-37,9.7c-1.6,10.5-18.3,22.6-29.6,20
			c-15.5,0.4-27.9-10.1-26.9-30.3c-30.7,5.3-48.2-28.6-36.2-47.9c3.3-5.2,13.5-16.9,19.4-22.7c-8.1-7.4-10.3-20.1-10.9-27.2
			c-0.8,1.5-1.4,3-1.7,4.6C44.1,116.4,32.7,120,26.3,129.9z"/>
	</g>
	<path class="st3" d="M469.5,383.6c6.5-3.1,10.7-12,5.7-21.8c-5.8-11.4-18.6-10.4-30.6-11.7c2.4-2.9,3.6-12.4,0.2-16.1
		c-7.6-8.1-21.8-2-28.9,2.9c0.7-9.1-11.9-15.1-22-8.2c-5.2-15.3-30.2-7.6-24.5,11.9c-11.8,0.7-14.5,14.4-7.8,19.9
		c-9.5,5.8-11.7,16.9-2.3,26.3c-5.8,3.8-10.5,12.5-7.3,20.9c5.3,13.9,18.8,14.4,31.7,13.7c0.1,9.9,11.4,24.5,26.3,24.3
		c18.4-0.2,32.5-11.6,29-24.9c12.7,4,27.5,1.1,35-11.6C479.6,399.7,476.8,389.1,469.5,383.6z"/>
	<path class="st5" d="M237.4,43.2c0.1-0.3-0.1-0.6-0.4-0.7c-7.6-1.3-10,13.8-3.6,16.7c0.9,0.4,2.3,0,2.2-1.3c-0.2-2.7-1.4-5-0.9-7.7
		C235.1,47.6,236.9,45.7,237.4,43.2z"/>
	<path class="st5" d="M76.4,155.9c-0.8-0.4-1.7,0.3-1.5,1.1c0.7,2.6,1.7,4.9,2,7.5c0.2,2.2,0,3.5,1.1,5.4c0.4,0.8,1.7,1,2.3,0.3
		C84.1,166.2,80.8,158.4,76.4,155.9z"/>
	<path class="st5" d="M286.3,45.8c-0.8-0.4-1.7,0.3-1.5,1.1c0.7,2.6,1.7,4.9,2,7.5c0.2,2.2,0,3.5,1.1,5.4c0.4,0.8,1.7,1,2.3,0.3
		C294,56.1,290.6,48.3,286.3,45.8z"/>
	<path class="st5" d="M65.2,177.5c-6.1,0.1-7.1,8.1-2.6,11.3c0.8,0.6,1.7-0.2,1.8-1c0.2-3,1.3-5.8,2-8.7
		C66.5,178.2,65.9,177.5,65.2,177.5z"/>
	<path class="st5" d="M361.1,138.7c-6.1,0.1-7.1,8.1-2.6,11.3c0.8,0.6,1.7-0.2,1.8-1c0.2-3,1.3-5.8,2-8.7
		C362.4,139.5,361.8,138.7,361.1,138.7z"/>
	<path class="st5" d="M122.3,206.8c-0.6-0.4-2.2-1.2-2.8-0.2c-1.4,2.5-2,7.6-0.4,10.1c0.5,0.7,1.3,1.1,2.1,0.9
		c0.3-0.1,0.6-0.1,0.9-0.2c1-0.3,1.9-1.2,2.2-2.2C124.9,212.6,124.8,208.4,122.3,206.8z"/>
	<path class="st5" d="M59.6,232.8c-3.5,1.7-6.1,5.4-4.5,9.4c0.4,1,1.7,1.6,2.5,0.7c2.1-2.5,2.7-5.8,3.4-9
		C61.1,233,60.3,232.4,59.6,232.8z"/>
	<path class="st5" d="M395.6,349.4c-3.5,1.7-6.1,5.4-4.5,9.4c0.4,1,1.7,1.6,2.5,0.7c2.1-2.5,2.7-5.8,3.4-9
		C397.1,349.7,396.3,349.1,395.6,349.4z"/>
	<path class="st5" d="M125.5,166c-1.1,0.2-1.4,1.6-1,2.5c1.6,3.3,4.1,4.7,7.6,3.7c0.8-0.2,1.5-1.2,1.1-2
		C131.9,166.5,129.2,165.4,125.5,166z"/>
	<path class="st5" d="M186.2,174.9c-3,2.4-4.4,5.7-2.3,9.1c0.6,0.9,1.7,0.8,2.3,0c1.7-2.3,1.9-4.9,2.3-7.7
		C188.7,174.8,187.3,174,186.2,174.9z"/>
	<path class="st5" d="M421.6,408.9c-3,2.4-4.4,5.7-2.3,9.1c0.6,0.9,1.7,0.8,2.3,0c1.7-2.3,1.9-4.9,2.3-7.7
		C424.1,408.9,422.7,408.1,421.6,408.9z"/>
	<path class="st5" d="M489.7,145.5c-3,2.4-4.4,5.7-2.3,9.1c0.6,0.9,1.7,0.8,2.3,0c1.7-2.3,1.9-4.9,2.3-7.7
		C492.2,145.4,490.8,144.6,489.7,145.5z"/>
	<path class="st5" d="M425.7,354.8c-0.8-0.4-1.7,0.3-1.5,1.1c0.7,2.6,1.7,4.8,2,7.5c0.2,2.2,0,3.5,1.1,5.4c0.4,0.8,1.7,1,2.3,0.3
		C433.3,365,430,357.2,425.7,354.8z"/>
	<path class="st5" d="M504.9,186.2c-6.1,0.1-7.1,8.1-2.6,11.3c0.8,0.6,1.7-0.2,1.8-1c0.2-3,1.3-5.8,2-8.7
		C506.2,186.9,505.6,186.2,504.9,186.2z"/>
	<path class="st5" d="M562,215.5c-0.6-0.4-2.2-1.2-2.8-0.2c-1.4,2.5-2,7.6-0.4,10.1c0.5,0.7,1.3,1.1,2.1,0.9
		c0.3-0.1,0.6-0.1,0.9-0.2c1-0.3,1.9-1.2,2.2-2.2C564.6,221.3,564.5,217.1,562,215.5z"/>
	<path class="st5" d="M565.2,174.7c-1.1,0.2-1.4,1.6-1,2.5c1.6,3.3,4.1,4.7,7.6,3.7c0.8-0.2,1.5-1.2,1.1-2
		C571.6,175.2,568.9,174.1,565.2,174.7z"/>
	<path class="st5" d="M392.3,379c-0.5,0.1-0.6,0.7-0.4,1.1c1.5,3.4,4.5,7.6,8.5,7.5c1,0,1.7-0.8,1.8-1.8
		C402.6,380.7,396.5,378,392.3,379z"/>
	<path class="st5" d="M87.2,253.7c-0.1-1.2-1.4-1.8-2.3-1c-2.5,2.3-3.3,4-2.6,7.3c0.2,0.9,1.4,1.5,2.2,0.9
		C87.1,258.9,87.6,257.2,87.2,253.7z"/>
	<path class="st5" d="M224.9,93c-3.2-3.5-8.4-4.2-12.1-1.3c-0.5,0.4-0.7,1.3,0,1.7c3.2,1.4,6.8,2.6,10.2,3.1
		C224.8,96.7,226.4,94.6,224.9,93z"/>
	<path class="st5" d="M440,390.7c-3.2-3.5-8.4-4.2-12.1-1.3c-0.5,0.4-0.7,1.3,0,1.7c3.2,1.4,6.8,2.6,10.2,3.1
		C440,394.5,441.5,392.3,440,390.7z"/>
	<path class="st5" d="M257.5,122.1c-5.7,1.4-10.7,9.6-5.9,14.5c0.9,0.9,2.4,0.7,3-0.4c2.1-3.7,2.2-8.3,4.2-12.3
		C259.4,123,258.6,121.9,257.5,122.1z"/>
	<path class="st5" d="M439.5,169.9c-5.7,1.4-10.7,9.6-5.9,14.5c0.9,0.9,2.4,0.7,3-0.4c2.1-3.7,2.2-8.3,4.2-12.3
		C441.4,170.8,440.6,169.7,439.5,169.9z"/>
	<path class="st5" d="M354.1,100.9c-5.7,1.4-10.7,9.6-5.9,14.5c0.9,0.9,2.4,0.7,3-0.4c2.1-3.7,2.2-8.3,4.2-12.3
		C356,101.8,355.2,100.7,354.1,100.9z"/>
	<path class="st5" d="M422.6,141.3c-1.4,0.5-1.8,2.4-0.4,3.3c3.4,2.2,6.4,3.4,10.3,3.7c1.3,0.1,1.7-1.4,1.3-2.4
		C431.9,141.2,427.3,139.5,422.6,141.3z"/>
	<path class="st5" d="M248.4,175.5c-0.2-1.1-1.7-1.5-2.4-0.7c-2.5,2.9-3.8,6.8-0.8,9.7c0.9,0.8,2,0.6,2.7-0.4
		C249.8,181.5,249.1,178.6,248.4,175.5z"/>
	<path class="st5" d="M405.5,85.6c-0.2-1.1-1.7-1.5-2.4-0.7c-2.5,2.9-3.8,6.8-0.8,9.7c0.9,0.8,2,0.6,2.7-0.4
		C406.9,91.6,406.1,88.7,405.5,85.6z"/>
	<path class="st5" d="M296.8,96.7c-0.2-1.1-1.7-1.5-2.4-0.7c-2.5,2.9-3.8,6.8-0.8,9.7c0.9,0.8,2,0.6,2.7-0.4
		C298.2,102.7,297.5,99.8,296.8,96.7z"/>
</g>
</svg>
