<?xml version="1.0" encoding="utf-8"?>
<!-- Generator: Adobe Illustrator 24.0.2, SVG Export Plug-In . SVG Version: 6.00 Build 0)  -->
<svg version="1.1" id="Layer_1" xmlns="http://www.w3.org/2000/svg" xmlns:xlink="http://www.w3.org/1999/xlink" x="0px" y="0px"
	 viewBox="0 0 840 720" style="enable-background:new 0 0 840 720;" height="720" width="840" xml:space="preserve">
<style type="text/css">
	.st0{fill:#A1B1B1;}
	.st1{fill:#FFFFFF;}
	.st2{opacity:0.4;fill:#414141;enable-background:new    ;}
	.st3{fill:#FFE5CE;}
	.st4{opacity:0.5;fill:#C7D7D7;enable-background:new    ;}
	.st5{fill:#493E3F;}
	.st6{fill:#F8AA66;}
	.st7{fill:url(#SVGID_1_);}
	.st8{opacity:0.2;fill:#3A2416;enable-background:new    ;}
	.st9{fill:#593B19;}
	.st10{fill:#858F8B;}
	.st11{opacity:0.5;fill:#FFFFFF;enable-background:new    ;}
	.st12{opacity:0.7;}
	.st13{opacity:0.8;fill:#AD725E;enable-background:new    ;}
	.st14{fill:#E7D6A8;}
	.st15{fill:#E1C38B;}
	.st16{fill:#FFF4E8;}
	.st17{opacity:0.2;fill:#FFFFFF;enable-background:new    ;}
	.st18{opacity:0.5;}
</style>
<g>
	<g>
		<g>
			<path class="st0" d="M840,669.8c-1.1,28.1-61.1,50.5-134.1,50.2c-73-0.3-131.2-23.4-130.2-51.5c1.1-28.1,61.1-50.5,134.1-50.2
				C782.7,618.7,841.1,641.7,840,669.8z"/>
			<path class="st1" d="M838.3,667.4c-1,27.4-60.4,49.4-132.5,49c-72.2-0.3-129.8-22.9-128.8-50.3c1.1-27.4,60.4-49.4,132.5-49
				S839.3,640,838.3,667.4z"/>
			<path class="st2" d="M818,663.8c-0.9,23.1-51,41.7-111.9,41.3c-60.9-0.3-109.6-19.3-108.8-42.4c0.9-23.1,51-41.7,111.9-41.4
				C770.2,621.6,818.8,640.6,818,663.8z"/>
		</g>
		<g>
			<g>
				<g>
					<path class="st3" d="M650.1,616.1C650.1,616,650.1,616,650.1,616.1c-0.8-1.1-1.7-2.1-2.7-3c-1.7-1.4-4.2-3-6.4-3.7
						c-3.9-1.4-7.8-3-11.7-4.5c-8.5-3.3-16.6-7.4-24.5-11.8c-13.9-7.8-40.6-23.2-43.7-39.1c-2.7-13.5,10-27.3,25-20.3
						c7.7,3.6,12.8,13.3,20.5,17.6c28,15.7,18.1-28.8,8-39.1c-9.4-9.5-25-13.3-38.6-12.4c-35.2,2.1-47.1,31.7-42.6,56.6
						c4.4,23.9,24.5,42.3,45.3,55.8c10,6.5,20.9,11.9,32.1,16.5c11.4,4.6,23.2,9.7,35.1,5.6C654.5,631.3,656.3,622.2,650.1,616.1z"
						/>
					<path class="st4" d="M591.9,585.4c0.2,4.1-0.4,8.1-2.4,11.7c-0.9,1.6-2,2.8-3.1,3.7c-4.1,1.7-9.2,2.1-14.4,1.4
						c-5.1-1.5-10.6-4.5-15.5-7.5c6.9,6.5,14.6,12.3,22.5,17.4c9.9,6.4,20.5,11.7,31.4,16.2c3.4-9.8,0-23-2.7-31.8
						c-0.2-0.8-0.5-1.6-0.7-2.4c-0.7-0.3-1.2-0.7-1.9-1C601.2,591,596.6,588.4,591.9,585.4z"/>
					<path class="st4" d="M616.6,521.4c1.7,8.9,1.8,16.6,1.5,25.4c-0.1,2.2,1.7,6.3-0.6,7.6c-2.6,1.5-8.7-2-10.8-3.1
						c-7.8-4.3-12.8-14-20.5-17.6c-15-7-27.7,6.8-25,20.3c0.5,2.7,1.7,5.2,3.4,7.8c-7.9-5.8-11.4-18.1-8.5-26
						c2.7-7.5,9.3-13.6,17.9-14.7c4.3-0.6,8.5,1.2,12.8,0.8c7.1-0.6,8.8-4.1,10.2-9.2l1.8-9.9c0,0,5.7,2,7.8,4
						C608.7,508.6,616.6,521.4,616.6,521.4z"/>
					<path class="st5" d="M587.5,509.5c-14.6-7.6-33.4-0.5-41.3,11.5c-4.9,7.4-7.2,15.5-7.5,24.2c-0.2,7.3,1.8,17.2,7.4,22.9
						c2.2,2.2,5.7,0.7,6.4-1.7c1.4-5.5-2.2-11.8-2.9-17.2c-1.1-7.5,1.2-14.8,5-21.3c3.6-6.3,9.9-10.2,17.6-11.4
						c5.5-0.8,10.6-0.7,15.6-3.1C589.4,512.6,589,510.3,587.5,509.5z"/>
				</g>
			</g>
			<path class="st3" d="M815.1,665.8l2.5-169.4l-0.8-33.9c0-9.5-6.2-18.7-14-24.9c-17.6-13.9-42.3-16.7-63.9-18.8
				c-10.1-1-20.2-1.5-30.4-1.4c-10.2-0.1-20.3,0.4-30.4,1.4c-21.5,2.2-46.5,4.9-64.1,18.8c-7.8,6.2-14.2,14.6-14.2,24.9l2.5,203.3
				c0,0,17.7,34.2,99.3,34.2C788.2,700,815.1,665.8,815.1,665.8z"/>
			<g>
				<path class="st4" d="M600,477.6l0.3,27.4c8,8.6,33.8,28.7,101,28.7c75.2,0,107.5-22.4,116.3-30l0.1-7.3l-0.5-19.5
					c-9.3,7.9-41.6,29.7-115.8,29.7C633.2,506.6,607.6,486,600,477.6z"/>
				<path class="st4" d="M815.5,644.8l0.4-27.4C805.1,626,772.4,646,701.3,646c-63.6,0-90.2-18.1-99.6-27.3l0.3,27.4
					c9.7,9.3,36.4,26.9,99.3,26.9C771.6,673.1,804.3,653.6,815.5,644.8z"/>
				<path class="st4" d="M701.3,602.2c72.6,0,105.1-20.8,115.2-29.2l0.4-27.4c-9.6,8-42,29.5-115.6,29.5
					c-65.8,0-91.9-19.2-100.4-28.1l0.3,27.4C610.1,583.4,636.4,602.2,701.3,602.2z"/>
			</g>
			<g>
				<g>
					<g>
						<path class="st6" d="M607,463.3c0.3,0.8,5.5-5,5.9-5.8c1.6-3.4,3.4-6.5,8.5-9.2c5.6-2.9,13.3-4.6,20.8-6c17-3,35.6-4,53.5-4.4
							c20.9-0.5,40.8,0.3,60.9,3.5c10.8,1.7,21,4.1,30.7,7c4.6,1.4,8.8,3,12.3,5.1c3.4,2,3.6,4.1,3.9,6.5c0.2,1.7,4.5,7,6,5.2
							c0,0,21.4-41.5-99.1-41.5C589.9,423.7,605.5,460.7,607,463.3"/>
						
							<radialGradient id="SVGID_1_" cx="737.1624" cy="-96.3733" r="85.8281" fx="652.3588" fy="-109.5942" gradientTransform="matrix(0.9705 -3.885018e-02 -1.116161e-02 -0.4007 -12.7341 448.6169)" gradientUnits="userSpaceOnUse">
							<stop  offset="0.2688" style="stop-color:#E9BE93"/>
							<stop  offset="0.507" style="stop-color:#DAA676"/>
							<stop  offset="0.8333" style="stop-color:#93602A"/>
						</radialGradient>
						<path class="st7" d="M791.2,442.3c-7.3-3.5-16.1-6-23.9-7.5c-17.2-3.2-36.2-4.7-54.3-4.9c-22.8-0.2-44.5,1.1-66.1,4.7
							c-16.2,2.7-35.2,8.8-38.3,19.6c-3,10.5,9,18.4,23.2,23.9c25.4,9.9,59.7,13.5,89.7,12.2c17-0.7,33.7-3.1,48.6-8
							c11.9-3.9,24.3-8.5,31.8-15.3C812.7,457.3,804.3,448.4,791.2,442.3z"/>
						<path class="st8" d="M803.1,450.4c5.3,5.3,5.6,10.8-1,16.7c-7.5,6.8-20.6,11.7-32.6,15.7c-14.9,4.9-31.2,6.6-48.1,7.4
							c-19.1,0.8-54.4,2.6-89.7-11.1c-14.2-5.5-26.2-13.3-23.2-23.9c2-7.1,9.9-12.3,19.9-15.7c-3.6,1.7-9.8,5.1-10.7,8.4
							c-2.7,9.7,12,17.6,25,22.6c23.4,9,54.7,12.3,82.3,11.2c15.6-0.7,30.9-2.9,44.6-7.4c0,0,50.3-18.1,7.8-36.8
							C777.3,437.5,793.6,440.9,803.1,450.4"/>
						<path class="st9" d="M608.7,454.5c3.1-10.9,22-16.8,38.3-19.6c21.6-3.6,43.3-4.9,66.1-4.7c18.1,0.2,37,1.6,54.3,4.9
							c7.8,1.5,16.6,4.1,23.9,7.5c8.3,3.9,14.7,8.9,15.6,14.5c1.1-6.6-6-12.5-15.6-17.1c-7.3-3.5-16.1-6-23.9-7.5
							c-17.2-3.2-36.2-4.7-54.3-4.9c-22.8-0.2-44.5,1.1-66.1,4.7c-16.2,2.7-35.2,8.8-38.3,19.6c-0.4,1.6-0.6,3.1-0.4,4.5
							C608.4,455.8,608.6,455.1,608.7,454.5z"/>
						<path class="st10" d="M801.7,460c-5.6,12.8-29.7,18.5-44.5,25.4c-0.5,0.2-0.7,0.6-0.7,0.8c4.7-1.1,9.4-2.2,13.8-3.7
							c11.9-3.9,24.2-8.6,31.8-15.3c8-7,5.5-13.2-1.1-18.6C803.3,451.2,803.5,456.1,801.7,460z"/>
						<path class="st10" d="M631.9,478.3c23.7,9.1,54.2,12.5,82.6,11.9c-9.6-0.8-16.9-1.4-27.3-2.7c-25.4-3.1-46.4-10.5-56.3-17.1
							c-9-6-13.4-19.9,6.6-28.9c12.2-5.5,33.9-8.8,55.7-11.1c0.2,0,0.3-0.1,0.6-0.2c-15.9,0.5-31.3,1.9-46.7,4.5
							c-16.2,2.7-35.2,8.8-38.3,19.6C605.8,465,617.8,472.8,631.9,478.3z"/>
					</g>
					<g>
						<g>
							<path class="st10" d="M805.5,459.1c-5.7,12.5-30.2,18-45.2,24.6c-0.5,0.2-0.7,0.5-0.7,0.8c4.8-1,9.4-2.2,14-3.6
								c12.2-3.8,24.7-8.3,32.3-14.9c7.6-6.6,5.6-12.8-1.1-18.1C806.8,451.5,807.3,455.3,805.5,459.1z"/>
						</g>
						<path class="st3" d="M708.3,422.2c-58.3,0-105.6,14.9-105.6,33.4c0,21.2,47.2,36.1,105.6,36.1c58.3,0,105.6-13.6,105.6-36.1
							C814,437.1,766.7,422.2,708.3,422.2z M708.3,481.8c-53.4,0-96.7-12.8-96.7-28.4s43.3-28.4,96.7-28.4
							c53.4,0,96.7,12.8,96.7,28.4C805.1,469.1,761.8,481.8,708.3,481.8z"/>
						<path class="st11" d="M692.8,484.7c-0.1,0.2-0.2,0.5-0.3,0.7c-1.7,3-11.6,0.6-14.2,0.3c-9.9-1.2-19.7-2.3-29.5-4.4
							c-4.9-1.1-9.8-2.3-14.6-3.9c-18.8-6-29.7-13.9-29.7-21.9c0-6.5,7.3-13.1,20.2-18.5c-9.8,4.7-15,10.4-15,16.3
							c0,8.5,10.5,16.2,29.7,21.8c14.9,4.4,30.4,6.4,45.9,7.5C686.5,482.9,693.3,482.7,692.8,484.7z"/>
					</g>
					<path class="st11" d="M743.6,482.5c0,0-8.6,0.6-10.4,2.1c-1.8,1.5,6,3.3,23,0.5c17-2.8,36.4-7.9,40.8-12.8
						c4.4-4.9-3.2-1.2-13.2,2.4C773.7,478.3,743.6,482.5,743.6,482.5z"/>
				</g>
				<g>
					<g class="st12">
						<path class="st13" d="M723,432.2c-7.1,0-12.8,3.5-12.8,5.6c0-2.1-5.7-5.6-12.8-5.6c-7.1,0-12.9,1.7-12.9,3.8
							c0,4.9,25.9,5.2,25.9,7.4c0-2.2,25.9-2.5,25.9-7.4C735.9,433.9,730.1,432.2,723,432.2z M710.2,442.8c0-1.8-21.7-2.5-21.7-6.5
							c0-1.7,4.9-3.2,10.9-3.2c6,0,10.9,3.2,10.9,5c0-1.7,4.8-5,10.9-5s10.9,1.4,10.9,3.2C731.9,440.4,710.2,441,710.2,442.8z"/>
						<path class="st14" d="M720.9,433.1c-6,0-10.9,3.2-10.9,5c0-1.7-4.8-5-10.9-5s-10.9,1.4-10.9,3.2c0,4.1,21.7,4.7,21.7,6.5
							c0-1.8,21.7-2.5,21.7-6.5C731.9,434.6,727,433.1,720.9,433.1z M710.2,442.3c0-1.5-18.1-2.4-18.1-5.8c0-1.5,4.1-2.7,9-2.7
							s9,3,9,4.5c0-1.5,4-4.5,9-4.5c5,0,9,1.2,9,2.7C728.2,439.9,710.2,440.9,710.2,442.3z"/>
						<path class="st15" d="M719.1,433.9c-5,0-9,3-9,4.5c0-1.5-4-4.5-9-4.5c-5,0-9,1.2-9,2.7c0,3.4,18.1,4.3,18.1,5.8
							c0-1.5,18.1-2.4,18.1-5.8C728.2,435.1,724.2,433.9,719.1,433.9z M710.2,441.8c0-1.2-13.8-2.5-13.8-5.1c0-1.2,3.1-2.1,6.9-2.1
							s6.9,2.7,6.9,3.8c0-1.2,3.1-3.8,6.9-3.8c3.8,0,6.9,0.9,6.9,2.1C723.9,439.4,710.2,440.7,710.2,441.8z"/>
						<path class="st16" d="M710.2,441.8c0-1.2-13.8-2.5-13.8-5.1c0-1.2,3.1-2.1,6.9-2.1s6.9,2.7,6.9,3.8c0-1.2,3.1-3.8,6.9-3.8
							c3.8,0,6.9,0.9,6.9,2.1C723.9,439.4,710.2,440.7,710.2,441.8z"/>
					</g>
					<g class="st12">
						<path class="st13" d="M728.5,441.8c-10.2,0-18.3,5-18.3,8c0-3-8.1-8-18.3-8s-18.4,2.4-18.4,5.4c0,7,36.7,7.4,36.7,10.4
							c0-3.1,36.7-3.5,36.7-10.4C746.9,444.2,738.6,441.8,728.5,441.8z M710.2,456.9c0-2.6-30.8-3.5-30.8-9.4c0-2.5,7-4.6,15.5-4.6
							s15.4,4.6,15.4,7.1c0-2.5,6.9-7.1,15.4-7.1c8.5,0,15.5,2.1,15.5,4.6C741,453.4,710.2,454.4,710.2,456.9z"/>
						<path class="st14" d="M725.5,443.1c-8.5,0-15.4,4.6-15.4,7.1c0-2.5-6.9-7.1-15.4-7.1s-15.5,2.1-15.5,4.6
							c0,5.8,30.8,6.8,30.8,9.4c0-2.6,30.8-3.5,30.8-9.4C741,445.2,734,443.1,725.5,443.1z M710.2,456.3c0-2.2-25.7-3.5-25.7-8.3
							c0-2.1,5.8-3.8,12.8-3.8c7.1,0,12.8,4.2,12.8,6.4c0-2.1,5.7-6.4,12.8-6.4c7.1,0,12.8,1.7,12.8,3.8
							C735.8,452.9,710.2,454.2,710.2,456.3z"/>
						<path class="st15" d="M722.9,444.2c-7.1,0-12.8,4.2-12.8,6.4c0-2.1-5.7-6.4-12.8-6.4c-7.1,0-12.8,1.7-12.8,3.8
							c0,4.9,25.7,6.2,25.7,8.3c0-2.2,25.7-3.5,25.7-8.3C735.8,445.9,730,444.2,722.9,444.2z M710.2,455.6c0-1.7-19.6-3.5-19.6-7.2
							c0-1.6,4.4-2.9,9.9-2.9s9.8,3.9,9.8,5.5c0-1.6,4.3-5.5,9.8-5.5s9.9,1.3,9.9,2.9C729.7,452,710.2,453.9,710.2,455.6z"/>
						<path class="st16" d="M710.2,455.6c0-1.7-19.6-3.5-19.6-7.2c0-1.6,4.4-2.9,9.9-2.9s9.8,3.9,9.8,5.5c0-1.6,4.3-5.5,9.8-5.5
							s9.9,1.3,9.9,2.9C729.7,452,710.2,453.9,710.2,455.6z"/>
					</g>
					<g class="st12">
						<path class="st13" d="M736.6,454.2c-14.7,0-26.5,7.2-26.5,11.5c0-4.3-11.8-11.5-26.5-11.5c-14.7,0-26.6,3.5-26.6,7.9
							c0,10,53.1,10.7,53.1,15.1c0-4.4,53.1-5.1,53.1-15.1C763.3,457.8,751.3,454.2,736.6,454.2z M710.2,476.1
							c0-3.7-44.7-5.1-44.7-13.5c0-3.6,10-6.6,22.4-6.6s22.3,6.6,22.3,10.3c0-3.6,9.9-10.3,22.3-10.3c12.3,0,22.4,3,22.4,6.6
							C754.8,471.1,710.2,472.4,710.2,476.1z"/>
						<path class="st14" d="M732.4,456.1c-12.3,0-22.3,6.6-22.3,10.3c0-3.6-9.9-10.3-22.3-10.3c-12.3,0-22.4,3-22.4,6.6
							c0,8.5,44.7,9.8,44.7,13.5c0-3.7,44.7-5.1,44.7-13.5C754.8,459,744.8,456.1,732.4,456.1z M710.2,475.2c0-3.1-37.1-5-37.1-12
							c0-3.1,8.4-5.5,18.6-5.5s18.6,6.1,18.6,9.2c0-3.1,8.2-9.2,18.6-9.2c10.3,0,18.6,2.5,18.6,5.5
							C747.3,470.2,710.2,472.1,710.2,475.2z"/>
						<path class="st15" d="M728.6,457.7c-10.3,0-18.6,6.1-18.6,9.2c0-3.1-8.2-9.2-18.6-9.2c-10.3,0-18.6,2.5-18.6,5.5
							c0,7,37.1,8.9,37.1,12c0-3.1,37.1-5,37.1-12C747.3,460.2,739,457.7,728.6,457.7z M710.2,474.2c0-2.3-28.3-5.1-28.3-10.4
							c0-2.3,6.4-4.2,14.3-4.2c7.9,0,14.2,5.6,14.2,7.9c0-2.3,6.3-7.9,14.2-7.9c7.9,0,14.3,1.9,14.3,4.2
							C738.5,469,710.2,471.8,710.2,474.2z"/>
						<path class="st16" d="M710.2,474.2c0-2.3-28.3-5.1-28.3-10.4c0-2.3,6.4-4.2,14.3-4.2c7.9,0,14.2,5.6,14.2,7.9
							c0-2.3,6.3-7.9,14.2-7.9c7.9,0,14.3,1.9,14.3,4.2C738.5,469,710.2,471.8,710.2,474.2z"/>
					</g>
				</g>
				<path class="st17" d="M739.4,455.1c0,9.9-24.3,17.8-54.3,17.8c-30,0-54.3-8-54.3-17.8c0-9.9,24.3-19.4,54.3-19.4
					C715.1,435.8,739.4,445.3,739.4,455.1z"/>
			</g>
		</g>
	</g>
	<g class="st18">
		<path class="st1" d="M666.8,296.1c0,0,33,18.3,17.8,40.8c-15.2,22.4,0,42.9,0,42.9c-2.3-3.3-1.6-9.8-1.4-13.3
			c0.5-8.4,2.5-16.8,7-24.5c3.1-5.1,7.6-9.9,8.3-15.7c1.2-9.8-9.2-17.2-18.5-22.8C675.9,301,671.4,298.5,666.8,296.1z"/>
		<path class="st1" d="M702.4,311.5c0,0,14.4,11.6,4.6,23c-9.8,11.4-1.2,23-1.2,23c-1-1.9-0.2-5.3,0.2-7.2c0.8-4.5,2.6-8.9,5.6-12.8
			c2-2.7,4.8-5,5.6-8c1.4-5.2-3.6-9.7-8.3-13.1C706.8,314.6,704.6,313,702.4,311.5z"/>
		<path class="st1" d="M686.2,380.2c0,0,11,8.9,3.6,17.5s-0.9,17.5-0.9,17.5c-0.7-1.4-0.1-4.1,0.2-5.5c0.7-3.4,2-6.8,4.2-9.8
			c1.6-2,3.6-3.8,4.3-6.1c1.1-4-2.8-7.4-6.3-10C689.6,382.5,687.9,381.3,686.2,380.2z"/>
		<path class="st1" d="M699.9,336.2c0,0-14.3,26.5-3.1,42.7c10.6,15.2-1.6,24.4-1.6,24.4s19.1-6.8,8.8-23.8
			C691.2,358.3,699.9,336.2,699.9,336.2z"/>
	</g>
</g>
</svg>
