<?xml version="1.0" encoding="utf-8"?>
<!-- Generator: Adobe Illustrator 24.0.2, SVG Export Plug-In . SVG Version: 6.00 Build 0)  -->
<svg version="1.1" id="Layer_1" xmlns="http://www.w3.org/2000/svg" xmlns:xlink="http://www.w3.org/1999/xlink" x="0px" y="0px"
	 viewBox="0 0 840 720" style="enable-background:new 0 0 840 720;" height="720" width="840" xml:space="preserve">
<style type="text/css">
	.st0{fill:#A1B1B1;}
	.st1{fill:#FFFFFF;}
	.st2{opacity:0.4;fill:#414141;}
	.st3{fill:#DCDCDB;}
	.st4{fill:#C7D7D7;}
	.st5{opacity:0.5;fill:#A4B9B9;}
	.st6{opacity:0.3;fill:#FFFFFF;}
	.st7{opacity:0.2;fill:#FFFFFF;}
	.st8{display:none;}
	.st9{display:inline;}
	.st10{fill:#150F10;}
	.st11{opacity:0.7;fill:#451D12;}
	.st12{fill:#7A3A22;}
	.st13{fill:#8F4D36;}
	.st14{opacity:0.5;fill:#7A3A22;}
	.st15{opacity:0.7;fill:#7A3A22;}
	.st16{fill:#CA8469;}
	.st17{opacity:0.8;fill:#AD725E;}
	.st18{opacity:0.5;fill:#672D1E;}
	.st19{fill:#E4C27A;}
	.st20{fill:#F2E0B8;}
	.st21{opacity:0.8;fill:#F2E0B8;}
	.st22{fill:#D8B56A;}
	.st23{fill:url(#SVGID_1_);}
	.st24{fill:#858F8B;}
	.st25{fill:#493E3F;}
	.st26{opacity:0.5;fill:#493E3F;}
	.st27{display:inline;opacity:0.5;fill:#493E3F;}
	.st28{fill:#CBCAC9;}
	.st29{fill:#A9784B;}
	.st30{clip-path:url(#XMLID_3_);}
	.st31{fill:#C08E5E;}
	.st32{fill:url(#SVGID_2_);}
	.st33{fill:#151517;}
	.st34{fill:#AF8561;}
	.st35{opacity:0.5;fill:#FFFFFF;}
	.st36{opacity:0.5;}
	.st37{opacity:0.7;fill:#FFFFFF;}
</style>
<g>
	<g>
		<g>
			<g>
				<path class="st0" d="M633.3,650.9c-1.5,38.6-84.1,69.6-184.6,69.1c-100.5-0.5-180.7-32.2-179.3-70.9
					c1.5-38.6,84.1-69.6,184.6-69.1C554.5,580.5,634.7,612.2,633.3,650.9z"/>
				<path class="st1" d="M631,647.6c-1.4,37.8-83.1,68-182.5,67.5c-99.3-0.5-178.7-31.5-177.3-69.2c1.4-37.7,83.1-68,182.5-67.5
					C553,578.8,632.4,609.8,631,647.6z"/>
				<path class="st2" d="M565.2,635.3c-0.9,23.4-51.5,42.1-112.9,41.8c-61.5-0.3-110.6-19.5-109.7-42.8
					c0.9-23.4,51.5-42.1,112.9-41.8C516.9,592.7,566.1,611.9,565.2,635.3z"/>
			</g>
			<g>
				<g>
					<path class="st3" d="M355.7,559.9C355.7,559.8,355.7,559.8,355.7,559.9c-1.2-0.9-2.5-1.7-3.8-2.4c-2.2-1.1-5.6-2-8.3-2.4
						c-4.9-0.6-9.7-1.3-14.6-1.9c-10.6-1.5-21-3.7-31.2-6.4c-18-4.7-52.6-14.4-60.3-29.8c-6.6-13.1,4.5-29.9,23.6-26.1
						c9.8,1.9,18.1,10.6,28.1,13.2c36.2,9.5,13.5-33.2-0.8-41.3c-13.3-7.6-32.2-7.8-47.6-4c-40,10-46.2,42.6-34.6,66.8
						c11.1,23.2,39,37.3,66.4,46.2c13.2,4.3,27.1,7.3,41.1,9.5c14.3,2.2,29.1,4.7,41.8-2.2C364.7,574.2,364.5,564.7,355.7,559.9z"/>
					<path class="st4" d="M281,541.9c1.4,4.1,1.6,8.3,0.2,12.3c-0.6,1.8-1.5,3.3-2.7,4.5c-4.3,2.7-10.1,4.2-16.2,4.6
						c-6.3-0.4-13.4-2.1-19.8-4.1c9.6,5.1,20,9.2,30.3,12.6c13,4.2,26.5,7.2,40.3,9.3c1.5-10.7-5.8-23.2-11.2-31.5
						c-0.5-0.7-1-1.5-1.5-2.3c-0.8-0.2-1.6-0.4-2.4-0.6C293.2,545.5,287.2,543.9,281,541.9z"/>
					<path class="st5" d="M243.5,524.1c-2.6-2.2-4.6-4.6-5.9-7.2c-6.6-13.1,4.5-29.9,23.6-26.1c9.8,1.9,18.1,10.6,28.1,13.2
						c2.7,0.7,10.6,2.8,13.2,0.8c2.4-1.9-0.8-5.6-1.3-7.9c-1.9-9-4-16.7-8.2-25.3c-2.9-6-6.9-19.3-17.6-18.9
						c-8.3,0.3-9.7,9.6-10,14.6c-0.3,5.5,1.3,9.2-6.7,11.4c-4.8,1.3-10.1,0.4-14.9,2c-9.6,3.1-15.6,10.8-16.9,18.9
						C225.7,508.4,233,520,243.5,524.1z"/>
					<path class="st3" d="M634.6,445.5c-3.9-12.5-16.7-25-27.4-31.9c-18.4-11.8-40.8-16.6-61.9-21.1c-46.9-9.8-95.3-12.1-142.9-7.3
						c-36.8,3.7-79.1,8.3-109.1,32.1c-13.3,10.6-21.5,25.9-23.9,42.6c-1.4,9.7,0.7,19.7,2.9,29.1c3,12.7,6.5,25.3,9.5,38
						c11.4,48.4,31.3,95.5,85.9,122.7c50.9,25.5,116.5,24.6,167.7,0.8c21.8-10.1,41-23.7,54-41.1c11.8-15.8,20.2-32.8,27.5-50.2
						C631.6,524.5,646.2,482.5,634.6,445.5z"/>
					<path class="st6" d="M619.3,553.7c4.1-9.9,8-20.4,11.3-31c-183.9,103.1-321.9,17.1-350.8-3.7c0.7,2.7,1.3,5.4,2,8.1
						c1.7,7.4,3.7,14.7,5.9,22C327.4,575.2,453.7,640.6,619.3,553.7z"/>
					<path class="st6" d="M256.6,466.2c-18.7-4.4-38.5,7-44.6,20.9c-3.8,8.6-4.4,17.2-2.4,26.2c1.6,7.4,6.5,17.1,14.3,21.5
						c3,1.7,6.8-0.6,6.9-3.2c0.2-5.9-5.4-11.4-7.7-16.8c-3.1-7.4-2.4-15.3,0.3-22.7c2.6-7.2,8.9-12.6,17.4-15.4
						c6.1-2,12-3.1,17.1-6.6C259.6,468.8,258.5,466.6,256.6,466.2z"/>
					<path class="st7" d="M542.7,515.9c0,0,60.3-9.5,87.7-37.7c0,0-19.1,168.8-155.9,178.9C474.5,657.2,525.1,620.9,542.7,515.9z"/>
				</g>
				<g class="st8">
					<g class="st9">
						<g>
							<g>
								<path class="st10" d="M283,440.6c-0.8,4.1-5.9,10.5-4.2,13.9c0.7,1.4,9.8-2.5,10.5-4c2.7-5.9,5.7-11.2,14.2-15.7
									c9.3-4.9,22.2-8,34.9-10.2c28.5-5.1,59.8-6.8,89.9-7.5c35-0.8,68.7,0.5,102.2,5.9c18.1,2.9,35.4,7.1,51.6,12.1
									c7.7,2.4,14.8,5.1,20.7,8.6c5.8,3.3,6.1,6.9,6.5,11c0.3,2.8,10.7,4.4,13.5,1.6c0,0,20.4-66.3-182.2-66.3
									C440.7,390,291.8,395.5,283,440.6z"/>
								<path class="st11" d="M286.4,438.3c-2.8,3.4-5.9,11.5-4.2,15.2c0.7,1.5,9.7-2.8,10.4-4.4c2.7-6.4,5.7-12.3,14.1-17.2
									c9.2-5.4,22-8.7,34.5-11.2c28.2-5.6,59.2-7.4,89-8.2c34.7-0.9,68,0.6,101.2,6.5c17.9,3.2,35,7.8,51,13.2
									c7.7,2.6,14.7,5.6,20.5,9.4c5.7,3.7,6.1,7.6,6.5,12.1c0.3,3,10.6,4.8,13.4,1.7c0,0,11.1-56.3-180.4-56.3
									C442.5,399.2,317.4,400.5,286.4,438.3z"/>
								<path class="st12" d="M592.8,423.3c-12-5.7-27.2-10.2-40-12.6c-28.4-5.4-59.6-7.9-89.4-8.1c-37.6-0.3-73.3,1.8-108.9,7.9
									c-26.8,4.6-58.1,14.6-63.1,32.7c-4.9,17.6,14.9,30.8,38.2,39.9c42,16.4,98.3,22.5,147.8,20.3c28-1.3,55.6-5.3,80.1-13.4
									c19.7-6.5,40-14.3,52.4-25.6C627.5,448.4,614.4,433.7,592.8,423.3z"/>
								<path class="st13" d="M592.1,422.7c-12-5.7-26.5-10.1-39.3-12.6c-28.4-5.4-59.6-7.9-89.4-8.1c-37.6-0.3-73.3,1.8-108.9,7.9
									c-26.8,4.6-58.1,14.6-63.1,32.7c-4.9,17.6,14.9,30.8,38.2,39.9c42,16.4,98.3,22.5,147.8,20.3c28-1.3,55.6-5.3,80.1-13.4
									c19.7-6.5,40-14.3,52.4-25.6C627.5,447.8,613.7,433.1,592.1,422.7z"/>
								<path class="st14" d="M609.4,452.4c-9.3,21.4-49,30.9-73.3,42.4c-0.8,0.4-1,0.9-1.1,1.4c7.8-1.7,15.4-3.8,22.7-6.2
									c19.7-6.5,40-14.3,52.4-25.6c12.4-11.3,9.6-22.1-1.1-31.1C612.1,439.4,612.3,445.8,609.4,452.4z"/>
								<path class="st15" d="M329.7,483.1c39,15.3,90.5,21.6,137.3,20.6c-15.8-1.3-29.1-3.1-46.2-5.2
									c-41.9-5.2-76.4-17.5-92.8-28.5c-15-10-22.2-33.3,10.9-48.3c20.1-9.1,55.2-14.8,91.2-18.7c0.3,0,1.5-0.6,1.8-0.7
									c-26.2,0.9-52.7,3.3-78.1,7.6c-26.8,4.6-57.4,15.1-62.4,33.2C286.6,460.8,306.4,473.9,329.7,483.1z"/>
								<g>
									<path class="st16" d="M546.5,466.1c-24.4,9.5-49.9,16.3-79.4,18c-17,0.9-34.4-0.1-51.1-2c-30.1-3.4-77.5-12.2-74.7-34.8
										c1.8-14,24.4-23.7,44.6-27.4c22-4.1,45.8-4.6,68.8-3.9c20.6,0.6,65.7,8.3,68.1,26c1,7.5-13.6,12.6-23.3,15.4
										c-11.1,3.2-24.2,4.8-36.4,5.4c-19.3,1-56.3-0.8-63.9-13.7c-9.1-15.4,33.2-21.6,51.3-20c10.3,0.9,20.3,2.8,29,6.2
										c15.8,6-5.4,14.6-15.4,16.2c-6.4,1.1-13.3,1.1-19.8,0.3c-7.4-0.9-21.2-6.2-10.1-10.2c4.9-1.8,13.2-2.1,18.4-0.8
										c3,0.8,5.9,2,6,4c0.1,0.8-2.6,1.6-1.6,2.4c1,0.8,3.6-0.4,4.6-0.7c6.8-2.6,2.6-7.6-3.2-9.4c-5.3-1.7-12.2-1.9-18.1-1.6
										c-12.5,0.6-24.9,5.3-17.7,13.4c7.3,8.1,24.8,9.9,38.9,8.7c13.8-1.2,32.8-5.7,33.7-14.7c1.6-16.8-45.7-19.9-54.8-19.7
										c-16.8,0.4-38.2,1.3-49.5,9.7c-10.8,8.1-7.5,19.8,4.1,27c13.3,8.2,34,9.1,52.3,10c35.5,1.8,108.4-12.7,77.5-39.7
										c-23.6-20.6-85.3-23.3-127.6-17.6c-36.3,4.9-78.5,19-66.6,44.7c9,19.5,50.5,27.4,80.1,31c48.3,5.9,104.5,3.6,140.3-18.6
										C554.2,467.9,550.3,464.7,546.5,466.1z"/>
									<path class="st16" d="M585.1,439.9c-11.3-15-38.3-25.2-65.5-27.5c-1-0.1-1.8,0.7-0.8,1.1c21,6.9,42,10.6,56,23
										c7,6.3,9,13.7,5.8,20.9c-3.3,7.3-13.5,12.3-22.3,17.3c-1.9,1.1,0.5,2.6,2.7,2.1C584.1,470.7,595.4,453.6,585.1,439.9z"/>
									<path class="st17" d="M548.8,431c-1.9-1.2-5.6,0-4.7,1.6c3.8,6.5,7.4,10.9,1.6,17.6c-4.9,5.6-15,10.2-23.6,13.7
										c-0.8,0.3-0.3,1.3,0.7,1C543.4,459.9,569.6,444,548.8,431z"/>
								</g>
							</g>
							<g>
								<g>
									<path class="st18" d="M376.7,443.5c-0.4-2.2-3.4-1.4-3,0.8c0.1,0.6,0.2,1.2,0.1,1.8c-0.1,0-0.2,0-0.2,0
										c-1.1,0-2.3-1-3.4-0.2c-0.3,0.3-0.5,0.6-0.4,1c0.1,2.1,3.7,3.7,5.1,3.4C377.3,449.8,377,445.6,376.7,443.5z"/>
									<path class="st19" d="M375.9,442.4c0-1.5-1-2.7-2.3-2.3c-1.3,0.4-2.5,0.8-3.7,1.4c-0.6,0.3-0.9,0.9-1,1.6
										c-0.5,0.6-0.7,1.4-0.6,2.2c0.3,1.8,2.2,2.6,3.4,3.4c0.9,0.6,2.2,0.4,2.8-0.8C375.4,446.3,375.9,444.2,375.9,442.4z"/>
									<path class="st20" d="M374,441.5c-0.2-0.3-0.5-0.4-0.8-0.3c-1.1,0.2-2.1,0.8-3,1.5c-0.7,0.6,0.1,1.9,0.8,1.4
										c0.6-0.4,1.3-0.6,1.9-0.8c0.4-0.1,0.9-0.1,1.2-0.6C374.3,442.3,374.2,441.9,374,441.5z"/>
									<path class="st19" d="M368.5,445.6C368.4,445.6,368.4,445.5,368.5,445.6c0.4,1.5,2.1,2.3,3.3,3.1c0.9,0.6,2.2,0.4,2.8-0.8
										c0.5-0.9,0.8-2,1.1-3.1c-0.8,0.5-1.5,1.1-2.3,1.5C371.7,447,369.7,447.2,368.5,445.6z"/>
								</g>
								<path class="st13" d="M367,446.6c-0.3-0.5,7,1.2,11.2-0.4c4.3-1.7,1.9,5.3,1.9,5.3s-4.6,5.8-5,5.1c-0.4-0.7-3-1.7-3.8-2.2
									C370.6,453.8,369.1,450.8,367,446.6z"/>
							</g>
							<g>
								<g>
									<path class="st18" d="M450.5,443.7c0-1.4-1.8-1.5-1.8-0.1c0,0.4,0,0.8-0.1,1.1c0,0-0.1,0-0.1,0c-0.6-0.2-1.2-1.1-1.9-0.8
										c-0.2,0.1-0.3,0.3-0.4,0.5c-0.2,1.3,1.7,3,2.6,3.1C450.2,447.7,450.5,445.1,450.5,443.7z"/>
									<path class="st19" d="M450.2,442.9c0.2-0.9-0.3-1.8-1.1-1.8c-0.8,0-1.5,0-2.3,0.1c-0.4,0.1-0.6,0.4-0.8,0.7
										c-0.3,0.2-0.6,0.7-0.6,1.2c0,1.1,1,2,1.6,2.8c0.4,0.6,1.3,0.7,1.7,0.1C449.4,445.2,450,444.1,450.2,442.9z"/>
									<path class="st20" d="M449.2,442c-0.1-0.2-0.3-0.3-0.5-0.4c-0.7-0.1-1.3,0-1.9,0.3c-0.5,0.2-0.2,1.1,0.3,1
										c0.4-0.1,0.8-0.1,1.2-0.1c0.3,0,0.5,0.1,0.7-0.1C449.3,442.6,449.3,442.3,449.2,442z"/>
									<path class="st19" d="M445.5,443.4C445.5,443.4,445.5,443.4,445.5,443.4c0.1,1,1,1.8,1.5,2.5c0.4,0.6,1.3,0.7,1.7,0.1
										c0.4-0.5,0.7-1,1-1.6c-0.5,0.2-1,0.4-1.5,0.4C447.2,444.9,446,444.6,445.5,443.4z"/>
								</g>
								<path class="st13" d="M444.5,443.7c-0.1-0.4,3.9,2.1,6.6,2c2.7-0.2,0.5,3.5,0.5,3.5s-3.4,2.6-3.5,2.1
									c-0.2-0.5-1.6-1.6-1.9-2.1C445.8,448.8,445.3,446.7,444.5,443.7z"/>
							</g>
							<g>
								<g>
									<path class="st18" d="M517.5,469.4c0.1-0.5,0.1-1.2-0.2-1.6c-0.8-0.9-1.6-0.7-2.3,0.3c-0.5,0.7-0.8,0.9-1.6,1
										c-1.1,0.1-2.8-0.6-2.7-2.2c0-0.8-0.7-1.2-1.2-0.6c-1.5,2.2,0.5,5,2.2,5.9C513.7,473.1,516.7,472.2,517.5,469.4z"/>
									<path class="st19" d="M515.8,470c0.7-0.3,1.4-1.1,1.8-1.8c0.5-0.9,0.7-1.6,0.8-2.6c0.2-1.5-0.2-3.3-1-4.5
										c-1.3-1.7-3.1-2.1-4.9-1.3c-0.8,0.4-1.3,1-1.8,1.7c-0.2,0.3-0.6,0.8-0.7,1.2c0,0.1,0,0.2-0.1,0.3c-0.4,0.6-0.7,1.3-0.8,2.1
										c-0.1,1.4,0.3,3,1.3,3.8c0.3,0.3,0.7,0.5,1,0.7c0.2,0.1,0.5,0.3,0.7,0.4c0.9,0.3,1.2,0.4,2.2,0.3
										C515,470.4,515.4,470.2,515.8,470z"/>
									<path class="st20" d="M517,462.5c-1.5-2.2-4.3-1.9-5.9,0c-0.2,0.3-0.4,0.7-0.2,1.2c0.1,0.2,0.2,0.4,0.4,0.5
										c0.2,0.1,0.6,0.1,0.8-0.1c1.1-1.2,2.8-1.6,4-0.4C516.7,464.1,517.4,463.1,517,462.5z"/>
									<path class="st19" d="M515.8,470c0.7-0.3,1.4-1.1,1.8-1.8c0.5-0.9,0.7-1.6,0.8-2.6c0.1-0.4,0.1-0.9,0-1.3
										c0,0.6-1.8,1.5-2.1,1.7c-1.2,0.7-2.7,1.3-4,1.1c-1.1-0.2-2.7-1-2.3-2.7c0.1-0.4,0.1-0.8-0.1-1.1c-0.4,0.6-0.7,1.3-0.7,2
										c-0.1,1.4,0.3,3,1.3,3.8c0.3,0.3,0.7,0.5,1,0.7c0.2,0.1,0.5,0.3,0.7,0.4c0.9,0.3,1.2,0.4,2.2,0.3
										C515,470.4,515.4,470.2,515.8,470z"/>
								</g>
								<path class="st13" d="M507.5,467c-0.2-0.4,5.9,0.8,9.4-0.9c3.5-1.6,1.9,4.5,1.9,4.5s-3.5,5.2-3.9,4.6
									c-0.4-0.6-2.7-1.3-3.3-1.8C511,473,509.5,470.5,507.5,467z"/>
							</g>
							<g>
								<g>
									<path class="st18" d="M566.2,450.9c-0.2-1.4-1.4-2.8-2.7-2.3c-0.4,0.2-0.7,0.6-0.7,1.1c0,0.9,0.4,1.4,0.6,2.1
										c0.2,0.7-0.3,1.6-0.6,2.2c-0.7,1.3-2.1,2.9-3.3,3.6c-0.6,0.4-0.3,1.5,0.3,1.5c2.4,0.1,4.3-1.7,5.6-4.1
										C566.2,453.8,566.5,452.3,566.2,450.9z"/>
									<path class="st19" d="M564.9,449.2c-0.4-0.6-0.8-1.4-1.4-1.7c-1-0.5-1.9-0.8-3-0.5c-1,0.3-1.6,1-2.2,1.9
										c0-0.1,0.1-0.1,0.1-0.1c-0.1,0.1-0.1,0.2-0.2,0.3c0,0,0,0,0,0.1c0,0,0,0,0,0c-0.4,0.6-0.8,1.2-1.2,1.9
										c0.2-0.3,0.4-0.6,0.6-0.9c-0.3,0.5-0.7,1-1.1,1.5c-1.1,1.4-1.3,3.4-0.5,5.1c1,2,3.1,2.6,4.7,1.5c1.3-0.9,2.6-2,3.6-3.4
										c0.5-0.6,0.8-1.3,1-2.1C565.6,451.7,565.5,450.1,564.9,449.2z"/>
									<path class="st21" d="M560.4,449.8c-0.9-0.1-1.7,1.2-2.3,1.8c-0.8,0.8-1.2,1.6-1.4,2.8c-0.1,0.4,0.3,0.8,0.6,0.6
										c0.4-0.3,0.7-0.4,1.1-0.8c0.3-0.3,0.7-0.7,1-1c0.7-0.7,1.7-1.3,1.8-2.5C561.1,450.2,560.8,449.8,560.4,449.8z"/>
									<path class="st19" d="M565.3,452.8c0.2-1.1,0.2-2.7-0.4-3.6c0,0,0,0,0-0.1c-0.3,1.4-1,2.7-1.7,3.8
										c-1.8,2.8-4.5,4.4-7.3,3.6c0,0.1,0.1,0.2,0.1,0.2c1,2,3.1,2.6,4.7,1.5c1.3-0.9,2.6-2,3.6-3.4
										C564.8,454.3,565.1,453.6,565.3,452.8z"/>
								</g>
								<path class="st13" d="M554.5,457.6c-0.3-0.4,6.6-0.6,10.2-3.1c3.6-2.6,2.8,4.4,2.8,4.4s-3,6.5-3.6,6
									c-0.5-0.6-3.1-0.8-3.9-1.2C559.3,463.4,557.3,461,554.5,457.6z"/>
							</g>
							<g>
								<g>
									<path class="st18" d="M416.4,441.7c-0.6-1.4-2.6-2.5-3.3-0.4c-0.4,1.3,0.6,2.2,0.4,3.3c-0.3,1-1.4,1.6-2.1,2
										c-0.9,0.5-2.2,0.6-3.2,0.5c-0.9-0.1-1.3,1.3-0.7,2.1C410.9,453.3,418.8,447.3,416.4,441.7z"/>
									<path class="st19" d="M415.6,438.2c0-0.2,0-0.3,0-0.5c0,0.1-0.3-1.1-0.3-1.3c-0.4-1.3-1.4-1.8-2.5-1.6
										c-1.2,0.2-2.4,1.9-3.3,2.8c-0.7,0.7-1.8,1.6-2.2,2.7c-0.7,0.8-1.3,1.7-1.9,2.7c-0.6,1.1-0.4,2.7,0.4,3.6
										c1.3,1.5,2.7,2.7,4.5,2.9c1.7,0.1,3-1.3,3.9-2.8c0.8-1.5,1.1-3.3,1.3-5c0.1-0.8,0.1-1.5,0.1-2.3
										C415.7,438.9,415.7,438.5,415.6,438.2z"/>
									<path class="st21" d="M413.1,436.3c-0.1-0.5-0.6-0.7-0.9-0.6c-1.1,0.3-1.7,1.8-2.4,2.8c-0.8,1.1-1.5,2.3-2,3.6
										c-0.3,0.7,0.4,1.2,0.8,0.8c1-1,2-1.8,2.9-2.9C412.3,438.9,413.4,437.8,413.1,436.3z"/>
									<path class="st19" d="M414.3,446.6c0.8-1.5,1.1-3.3,1.3-5c0-0.1,0-0.1,0-0.2c-1,1.3-2,2.7-3.4,3.6c-2,1.4-5.9,1.2-6.8-1.8
										c-0.4,1.1-0.2,2.5,0.5,3.3c1.3,1.5,2.7,2.7,4.5,2.9C412.1,449.5,413.5,448.1,414.3,446.6z"/>
								</g>
								<path class="st13" d="M403.7,446.5c-0.4-0.5,7.3-0.6,11.2-3.4c3.9-2.8,3.1,4.9,3.1,4.9s-3.4,7.2-3.9,6.6
									c-0.6-0.6-3.5-0.9-4.3-1.3C409,452.9,406.8,450.3,403.7,446.5z"/>
							</g>
							<g>
								<g>
									<path class="st18" d="M494.6,423.8c-0.3-0.4-0.9-0.5-1.3-0.2c-0.3,0.3-0.5,0.6-0.6,1.1c0,0.1,0,0.2-0.1,0.3
										c0,0-0.1,0.2-0.1,0.2c0,0.1-0.1,0.1-0.1,0.2c0,0-0.1,0.1-0.1,0.2c0,0.1-0.1,0.1-0.1,0.2c-0.1,0.2-0.1,0,0,0
										c-0.9,0.4-0.7,1.9,0.2,1.9c0.7,0.1,1.4-0.2,1.9-0.9C494.9,426,495.2,424.7,494.6,423.8z"/>
									<path class="st19" d="M492.5,422.6c-1.9-0.7-4.5-0.3-3.7,2.5c0.4,1.6,2.6,3.8,4,2.4c0.7-0.7,1.1-1.5,1.4-2.5
										C494.5,424,493.6,423.1,492.5,422.6z"/>
									<path class="st20" d="M491.1,424.2c-0.3-0.4-0.7-0.7-1.2-0.9c-0.3-0.1-0.7,0.1-0.9,0.4c-0.2,0.5-0.1,1,0.3,1.3
										c0.2,0.2,0.4,0.6,0.7,0.7C490.9,426.2,491.8,425,491.1,424.2z"/>
									<path class="st19" d="M492.8,422.8c-0.4,2.2-0.9,4.5-2.5,4.6c0.8,0.6,1.7,0.9,2.4,0.2c0.7-0.7,1.1-1.5,1.4-2.5
										C494.4,424.1,493.8,423.2,492.8,422.8z"/>
								</g>
								<path class="st13" d="M485.5,427.8c-0.3-0.4,5.8-0.5,9-2.7c3.1-2.2,2.4,3.9,2.4,3.9s-2.7,5.8-3.1,5.3
									c-0.5-0.5-2.8-0.7-3.4-1C489.7,432.9,488,430.8,485.5,427.8z"/>
							</g>
							<g>
								<g>
									<path class="st18" d="M359.5,450.8c-0.8,0.1-1.4,1.1-1,2c0.9,1.8,4,3.2,3.5,5.6c-0.6,2.7-3.8,2.3-5.4,1.6
										c-1-0.5-1.6,1.2-1,2.1c2.4,3.4,7.3,1.6,9-1.8C366.6,456.6,362.9,450.4,359.5,450.8z"/>
									<path class="st22" d="M362.7,455.1c-1.5-2.6-4.4-8.3-7.5-8c-4.4,0.4-6.4,6.5-3.9,10.8c1.9,3.2,5.7,5.9,9,4.3
										c1-0.5,1.8-1,2.3-2.2C363.4,458.5,363.5,456.4,362.7,455.1z"/>
									<path class="st21" d="M354.8,448.2c-0.9,0.2-1.8,1.2-2.4,2c-0.4,0.5-0.6,1-0.8,1.6c-0.1,0.3-0.1,0.5-0.2,0.8
										c0,0.3,0.1,0.6,0,0.8c-0.1,1,1,1.1,1.4,0.5c0.5-0.4,0.9-1,1.4-1.5c0.5-0.6,1.3-1,1.8-1.7
										C357,449.6,356.1,447.9,354.8,448.2z"/>
									<path class="st19" d="M362.7,459.9c0.7-1.4,0.8-3.5,0-4.8c-0.9-1.5-2.1-3.9-3.6-5.7c1.1,2.8,2.4,5.6,1.1,8.7
										c-0.8,1.9-3.6,3.3-5.8,3.1c1.8,1.3,4,1.9,6,0.9C361.4,461.6,362.2,461,362.7,459.9z"/>
								</g>
								<path class="st13" d="M350.6,458.9c-0.4-0.5,7.9-0.7,12.2-3.7c4.3-3.1,3.3,5.3,3.3,5.3s-3.6,7.8-4.3,7.2
									c-0.6-0.7-3.7-1-4.6-1.4C356.3,465.9,353.9,463,350.6,458.9z"/>
							</g>
							<g>
								<g>
									<path class="st19" d="M455.2,471.8c0-0.8,0.1-1.6-0.2-2.3c-0.5-1.2-1-2.1-2-2.6c-0.9-0.5-1.7-0.4-2.6-0.1c0,0,0.1,0,0.1,0
										c-0.1,0-0.2,0.1-0.3,0.1c0,0,0,0-0.1,0c0,0,0,0,0,0c-0.6,0.2-1.3,0.3-1.9,0.5c0.3-0.1,0.6-0.2,0.9-0.3
										c-0.5,0.1-1,0.2-1.6,0.3c-1.5,0.2-2.8,1.6-3,3.5c-0.3,2.3,1,4.3,2.9,4.7c1.5,0.3,3,0.4,4.5,0.1c0.7-0.1,1.3-0.4,1.8-0.8
										C454.4,474.2,455.2,473,455.2,471.8z"/>
									<path class="st21" d="M451.5,468.9c-0.6-0.7-1.9-0.4-2.7-0.4c-1,0.1-1.7,0.3-2.5,1.1c-0.2,0.3-0.2,0.8,0.2,0.9
										c0.4,0.1,0.8,0.2,1.2,0.2c0.4,0,0.9,0,1.3,0c0.9,0,2,0.3,2.6-0.5C451.8,469.7,451.7,469.2,451.5,468.9z"/>
									<path class="st19" d="M453.7,474.9c0.7-0.7,1.5-1.9,1.5-3.1c0,0,0-0.1,0-0.1c-1,0.8-2.1,1.3-3.2,1.6
										c-2.8,0.8-5.7-0.1-7.5-2.8c0,0.1,0,0.2,0,0.2c-0.3,2.3,1,4.3,2.9,4.7c1.5,0.3,3,0.4,4.5,0.1
										C452.5,475.6,453.1,475.3,453.7,474.9z"/>
								</g>
								<path class="st13" d="M444.4,474.9c-0.3-0.4,6.4-0.5,9.8-3c3.4-2.5,2.7,4.3,2.7,4.3s-2.9,6.3-3.4,5.8
									c-0.5-0.6-3-0.8-3.7-1.1C449,480.5,447.1,478.2,444.4,474.9z"/>
							</g>
							<g>
								<g>
									<path class="st18" d="M399.6,466.4c-0.5,0-0.8,0.6-0.7,1.1c0.4,1.5,2,2.4,1.3,4.3c-0.7,1.8-3.1,1.5-4.4,1.7
										c-0.5,0-0.6,0.9-0.1,1.1c2.1,0.9,5,0.7,6.2-2C402.6,470.6,401.7,466.4,399.6,466.4z"/>
									<path class="st19" d="M400.3,467.4c-0.2-0.3-0.4-0.6-0.6-0.8c-0.4-0.6-1-0.9-1.6-1c-1.2-0.1-2.6,0.2-3.6,1.1
										c-0.8,0.7-1.3,1.5-1.7,2.6c-0.4,1.4,0.1,2.8,0.9,3.9c0.5,0.8,1.6,1.5,2.3,1.6c1.1,0.3,2.2,0.1,3.1-0.7
										c0.8-0.8,1.5-1.7,1.7-2.9C401.1,469.9,401,468.5,400.3,467.4z"/>
									<path class="st20" d="M395.9,467.1c-0.3,0.1-0.5,0.2-0.8,0.5c-0.3,0.2-0.5,0.4-0.7,0.7c-0.4,0.4-0.9,1.3-0.7,2
										c0.1,0.5,0.7,0.9,1.1,0.6c0.1-0.1,0.2-0.2,0.3-0.4c-0.1,0.2,0.2-0.1,0,0c0.2-0.2,0.4-0.3,0.5-0.4c0.2-0.2,0.4-0.3,0.6-0.5
										c0.3-0.2,0.4-0.5,0.6-0.8C397.3,467.9,396.7,466.8,395.9,467.1z"/>
									<path class="st19" d="M400.2,467.1c-0.3,1.8-1.2,3.3-2.5,4.4c-1.4,1.1-2.8,1.3-4.3,1.1c0.1,0.2,0.2,0.4,0.4,0.6
										c0.5,0.8,1.6,1.5,2.3,1.6c1.1,0.3,2.2,0.1,3.1-0.7c0.8-0.8,1.5-1.7,1.7-2.9c0.3-1.3,0.1-2.7-0.5-3.9
										C400.3,467.3,400.2,467.2,400.2,467.1z"/>
								</g>
								<path class="st13" d="M392.1,473c-0.3-0.3,5.7-0.4,8.8-2.5c3.1-2.1,2.4,3.8,2.4,3.8s-2.6,5.5-3.1,5c-0.5-0.5-2.7-0.7-3.4-1
									C396.3,478,394.5,475.9,392.1,473z"/>
							</g>
							<g>
								<g>
									<path class="st18" d="M333.9,429.7c-0.3-0.5-1.1-0.6-1.5-0.2c-0.4,0.4-0.6,0.7-0.7,1.3c0,0.1,0,0.3-0.1,0.4
										c0,0-0.1,0.2-0.1,0.3c0,0.1-0.1,0.2-0.1,0.2c0,0-0.1,0.2-0.1,0.2c-0.1,0.1-0.1,0.1-0.2,0.2c-0.2,0.2-0.1,0,0,0
										c-1,0.4-0.8,2.2,0.3,2.3c0.8,0.1,1.6-0.2,2.2-1C334.3,432.3,334.7,430.8,333.9,429.7z"/>
									<path class="st19" d="M331.5,428.3c-2.2-0.9-5.2-0.3-4.4,2.9c0.5,1.9,3.1,4.5,4.7,2.8c0.8-0.8,1.3-1.8,1.6-2.9
										C333.8,429.9,332.8,428.9,331.5,428.3z"/>
									<path class="st20" d="M329.8,430.1c-0.4-0.5-0.9-0.8-1.4-1c-0.4-0.2-0.8,0.1-1,0.5c-0.3,0.6-0.1,1.2,0.3,1.5
										c0.2,0.2,0.5,0.7,0.9,0.9C329.6,432.6,330.6,431.2,329.8,430.1z"/>
									<path class="st19" d="M331.8,428.5c-0.4,2.6-1,5.4-2.9,5.4c0.9,0.7,2,1,2.9,0.2c0.8-0.8,1.3-1.8,1.6-2.9
										C333.7,430,332.9,429.1,331.8,428.5z"/>
								</g>
								<path class="st13" d="M326,433.6c-0.3-0.3,5.4-0.4,8.2-2.4c2.9-2,3.4,0.2,3.4,0.2s-4.1,5-4.4,4.3c-1.5-3.3-2.1,3-2.8,2.7
									C329.9,438.2,328.3,436.3,326,433.6z"/>
							</g>
							<g>
								<g>
									<path class="st18" d="M587.3,423.2c-0.3-0.5-1.1-0.6-1.5-0.2c-0.4,0.4-0.6,0.7-0.8,1.3c0,0.1,0,0.3-0.1,0.4
										c0,0-0.1,0.2-0.1,0.3c0,0.1-0.1,0.2-0.1,0.2c0,0-0.1,0.2-0.1,0.2c-0.1,0.1-0.1,0.1-0.2,0.2c-0.2,0.2-0.1,0,0,0
										c-1,0.4-0.8,2.2,0.3,2.3c0.9,0.1,1.7-0.2,2.3-1.1C587.7,425.9,588.1,424.3,587.3,423.2z"/>
									<path class="st19" d="M584.8,421.8c-2.2-0.9-5.4-0.3-4.5,3c0.5,2,3.2,4.6,4.8,2.9c0.8-0.8,1.3-1.8,1.7-3
										C587.1,423.4,586.1,422.4,584.8,421.8z"/>
									<path class="st20" d="M583.1,423.7c-0.4-0.5-0.9-0.8-1.4-1c-0.4-0.2-0.9,0.1-1.1,0.5c-0.3,0.6-0.1,1.2,0.3,1.5
										c0.2,0.2,0.5,0.7,0.9,0.9C582.9,426.1,583.9,424.7,583.1,423.7z"/>
									<path class="st19" d="M585.1,422c-0.4,2.7-1,5.5-3,5.5c1,0.8,2.1,1.1,2.9,0.2c0.8-0.8,1.3-1.8,1.7-3
										C587.1,423.5,586.3,422.6,585.1,422z"/>
								</g>
								<path class="st13" d="M579.7,426.6c-0.3-0.3,5.5-0.4,8.4-2.4c2.9-2,2.3,3.6,2.3,3.6s-2.5,5.2-2.9,4.8
									c-0.4-0.5-2.6-0.7-3.2-1C583.7,431.4,582.1,429.4,579.7,426.6z"/>
							</g>
							<g>
								<g>
									<path class="st18" d="M511.6,409.4c-0.4-1.4-1.6-2.6-2.9-2.1c-0.7,0.3-0.9,1.1-0.6,1.9c0.2,0.6,0.9,1.1,1.1,1.5
										c0-0.1,0,0,0,0c0,0.1-0.1,0.3-0.2,0.4c-0.3,0.4-0.6,0.7-1.1,0.8c-0.4,0.1-1.3,0.6-1.2,1.3c0.1,1.4,1.4,1.5,2.3,1.3
										c0.9-0.2,1.8-1,2.3-1.9C511.8,411.7,512,410.5,511.6,409.4z"/>
									<path class="st22" d="M510.6,410.1c-0.4-1.1-0.8-2.1-1.5-2.9c-0.8-0.9-2.2-1.6-3.2-0.9c-0.2,0.1-0.3,0.2-0.4,0.4
										c-0.6,0.1-1,0.7-1.1,1.5c0,0.6,0,1.2,0.2,1.8c0.1,0.3,0.1,0.6,0.2,0.9c0,0.1,0,0.2,0,0.2c-0.3,1.4,0.6,3,1.9,2.9
										c1.1-0.1,2.1-0.7,3.1-1.3C510.4,412.4,510.9,411,510.6,410.1z"/>
									<path class="st21" d="M507.4,407.3c-0.7-1-2.1,0.6-1.2,1.5c0.4,0.5,1,1,1.5,0.4C508.2,408.5,507.7,407.8,507.4,407.3z"/>
									<path class="st19" d="M509.7,412.8c0.7-0.4,1.2-1.7,0.9-2.6c-0.1-0.3-0.2-0.7-0.4-1c-0.6,0.6-1.3,1.1-2,1.5
										c-1.1,0.6-2.3,0.7-3.5,0.6c-0.2,1.3,0.7,2.8,1.9,2.8C507.8,413.9,508.8,413.3,509.7,412.8z"/>
								</g>
								<path class="st13" d="M502.2,413.4c-0.3-0.3,5.2-0.4,8-2.3c2.8-1.9,2.2,3.4,2.2,3.4s-2.3,5-2.8,4.5c-0.4-0.4-2.5-0.7-3-0.9
									C506,417.9,504.4,416.1,502.2,413.4z"/>
							</g>
						</g>
						
							<radialGradient id="SVGID_1_" cx="485.0019" cy="456.9621" r="179.0867" gradientTransform="matrix(0.9741 0 0 0.3174 -21.1161 288.3321)" gradientUnits="userSpaceOnUse">
							<stop  offset="1.075270e-02" style="stop-color:#CD765B;stop-opacity:0"/>
							<stop  offset="0.3714" style="stop-color:#CB7459;stop-opacity:0.3645"/>
							<stop  offset="0.5578" style="stop-color:#C36F54;stop-opacity:0.553"/>
							<stop  offset="0.7044" style="stop-color:#B6654B;stop-opacity:0.7011"/>
							<stop  offset="0.8301" style="stop-color:#A3573E;stop-opacity:0.8283"/>
							<stop  offset="0.9415" style="stop-color:#8A462D;stop-opacity:0.9409"/>
							<stop  offset="1" style="stop-color:#7A3A22"/>
						</radialGradient>
						<path class="st23" d="M594.5,423.8c-12.5-5.2-27.9-9.5-41.3-11.7c-29.5-4.9-61.5-6.4-92.4-6.6c-39.1-0.3-77.9,1.7-114.9,7.1
							c-27.9,4.1-58.6,13.1-63.8,29.3c-5.1,15.8,15.5,27.6,39.7,35.8c43.6,14.7,102.1,20.2,153.6,18.2c29.1-1.1,57.7-4.8,83.3-12.1
							c20.5-5.9,41.5-12.8,54.5-23C631.3,446.5,616.9,433,594.5,423.8z"/>
					</g>
					<g class="st9">
						<g>
							<path class="st24" d="M620.7,455.4c-9.8,19.3-51.7,27.8-77.4,38.1c-0.8,0.3-1.1,0.8-1.2,1.2c8.2-1.6,16.2-3.4,23.9-5.6
								c20.8-5.9,42.2-12.8,55.3-23c13.1-10.2,9.5-19.8-1.8-27.9C622.9,443.7,623.8,449.5,620.7,455.4z"/>
						</g>
						<path class="st25" d="M454.6,387.4c-98.4,0-178.2,29.8-178.2,61.3c0,36.1,79.8,55.6,178.2,55.6c98.4,0,178.2-19.1,178.2-57.5
							C632.8,415.3,553,387.4,454.6,387.4z M454.6,489.1c-90.2,0-163.2-21.7-163.2-48.5c0-26.8,73.1-48.5,163.2-48.5
							c90.2,0,163.2,21.7,163.2,48.5C617.8,467.4,544.7,489.1,454.6,489.1z"/>
						<path class="st26" d="M428.4,494c-0.1,0.4-0.2,0.8-0.5,1.3c-3,5-19.6,1-24,0.5c-16.7-2-33.2-4-49.7-7.5
							c-8.3-1.8-16.6-4-24.7-6.6c-31.8-10.2-50.1-23.8-50.1-37.4c0-11.1,12.2-22.3,34.1-31.5c-16.5,8.1-25.4,17.7-25.4,27.8
							c0,14.4,17.8,27.6,50,37.2c25.2,7.5,51.4,10.9,77.5,12.9C417.8,490.9,429.2,490.7,428.4,494z"/>
					</g>
					<path class="st27" d="M509.9,491.1c0,0-14.7,1.1-17.8,3.6c-3.1,2.6,10.3,5.6,39.2,0.8c28.9-4.9,62.1-13.4,69.6-21.8
						c7.5-8.3-5.5-2-22.5,4.1C561.4,483.9,509.9,491.1,509.9,491.1z"/>
				</g>
				<g>
					<g>
						<path class="st28" d="M284.2,457.3c0.6,1.5,11.1-8.5,11.7-9.9c2.7-5.9,5.8-6.3,14.3-10.8c9.3-4.9,22.4-8,35-10.2
							c28.6-5.1,60.1-11.7,90.4-12.4c35.2-0.8,69,0.5,102.8,5.9c18.2,2.9,35.6,7.1,51.8,12.1c7.8,2.4,14.9,5.1,20.8,8.6
							c5.8,3.3,6.2,6.9,6.6,11c0.3,2.8,9.7,7.3,12.3,4.2c0,0,24.6-62.6-169.5-62.6C265,393.2,281.6,452.8,284.2,457.3z"/>
						<path class="st24" d="M621.7,450c-9.8,21.1-51.5,30.4-77,41.6c-0.8,0.4-1.1,0.9-1.2,1.3c8.2-1.7,16.1-3.7,23.8-6.1
							c20.7-6.4,42-14,55-25.2c13-11.1,9.5-21.7-1.8-30.5C623.9,437.2,624.7,443.6,621.7,450z"/>
					</g>
					<g>
						<g>
							<path class="st29" d="M630.7,450.8c0,28.1-77.2,50.8-172.5,50.8c-95.3,0-172.5-22.8-172.5-50.8c0-28.1,77.2-50.8,172.5-50.8
								C553.5,400,630.7,422.7,630.7,450.8z"/>
						</g>
						<g>
							<defs>
								<path id="XMLID_1_" d="M630.7,450.8c0,28.1-77.2,50.8-172.5,50.8c-95.3,0-172.5-22.8-172.5-50.8
									c0-28.1,77.2-50.8,172.5-50.8C553.5,400,630.7,422.7,630.7,450.8z"/>
							</defs>
							<use xlink:href="#XMLID_1_"  style="overflow:visible;opacity:0;fill:#A9784B;"/>
							<clipPath id="XMLID_3_">
								<use xlink:href="#XMLID_1_"  style="overflow:visible;opacity:0;"/>
							</clipPath>
							<g class="st30">
								<path class="st29" d="M311.4,420.9c12.9-6.2,28.5-10.9,42.3-13.5c30.6-5.8,64.1-8.4,96.1-8.7c40.4-0.3,78.8,1.9,117.1,8.5
									c28.8,4.9,62.4,15.7,67.8,35.1c5.3,18.9-16,33-41.1,42.8c-45.1,17.6-105.7,24.2-159,21.8c-30.1-1.3-59.8-5.7-86.2-14.4
									c-21.2-7-43-15.3-56.4-27.5C273.3,447.8,288.2,432,311.4,420.9z"/>
								<path class="st31" d="M453.8,488.4c-7,0-14-0.2-20.8-0.5c-31.6-1.5-59.6-6.4-83.2-14.6c-19.1-6.6-40.3-14.9-52-26.1
									c-2.7-2.6-3.5-4.2-3.7-4.8c0.7-2,5.4-8.4,20.1-15.7c11.2-5.6,25.6-10.4,39.5-13.2c27.8-5.6,60.3-8.6,94.1-8.9
									c2.5,0,5,0,7.5,0c39.5,0,74.7,2.9,107.7,8.7c39,7,55.9,19.6,57.7,26.5c1.4,5.4-8.3,15.9-33.2,26.1
									C552.4,480.2,503.8,488.4,453.8,488.4z"/>
								
									<radialGradient id="SVGID_2_" cx="460.9746" cy="920.4338" r="187.8113" gradientTransform="matrix(0.984 0 0 0.2557 7.1309 213.0893)" gradientUnits="userSpaceOnUse">
									<stop  offset="0.2673" style="stop-color:#151517"/>
									<stop  offset="0.4525" style="stop-color:#171718"/>
									<stop  offset="0.5541" style="stop-color:#1F1C1B"/>
									<stop  offset="0.6355" style="stop-color:#2D2621"/>
									<stop  offset="0.7062" style="stop-color:#413429"/>
									<stop  offset="0.7699" style="stop-color:#5A4634"/>
									<stop  offset="0.8286" style="stop-color:#795C41"/>
									<stop  offset="0.8824" style="stop-color:#9D7550"/>
									<stop  offset="0.9255" style="stop-color:#C08E5E"/>
								</radialGradient>
								<path class="st32" d="M453.2,492.4c-7.8,0-15.6-0.2-23.2-0.7c-34.9-2.1-68-4.3-93.9-15.7c-16.5-7.3-36.6-8.3-46.6-32.8
									c2.5-2.1,5.7-4.5,9.7-7.1c11.9-7.6,27.3-14.1,42.3-17.9c30.9-7.8,67.2-12.2,104.9-12.6c2.8,0,5.6,0,8.4,0
									c44.2,0,83.6,4,120.3,12.4c30.3,6.9,46.3,17.2,53.1,23.6c-4.2,4.6-10.7,16.9-25.5,24.6C564.3,486.2,508.6,492.4,453.2,492.4
									z"/>
								<path class="st33" d="M449.8,500c-7.7,0-15.5-0.3-23-0.8c-34.5-2.5-64.5-11.2-91.4-21.5c-10.4-4-15.4-6.3-22.8-10.5
									c-5.6-3.2-18.5-11.6-14.8-21.3c2.2-5.6,25-14,32-16c28.5-8.1,55-13.8,83-15.9c10-0.8,20-1.2,30.1-1.4c2.8,0,5.6-0.1,8.4-0.1
									c36.4,0,72.9,3.3,108.6,11.8c9.6,2.3,19.2,4.5,28.7,7.6c5.7,1.9,26.4,6.8,24.8,16.8c-1.1,7.3-8.9,12.4-13.7,15.4
									C561.8,487.7,504.7,500,449.8,500z"/>
							</g>
						</g>
						<path class="st34" d="M318.7,420.9c0,0-18.9,7-26.7,15.7l1.3,1.4C293.2,437.9,310.7,423.8,318.7,420.9z"/>
						<path class="st34" d="M607.3,425.2c0,0,8.3,4.1,12.9,7.9l-0.3,1L607.3,425.2z"/>
					</g>
					<path class="st3" d="M455.4,389.2c-98.5,0-178.3,24.9-178.3,55.6c0,38.9,79.8,60.3,178.3,60.3c98.5,0,178.3-13.1,178.3-60.3
						C633.7,414,553.9,389.2,455.4,389.2z M455.4,488.5c-90.2,0-163.3-21.2-163.3-47.3c0-26.2,73.1-47.4,163.3-47.4
						c90.2,0,163.3,21.2,163.3,47.4C618.7,467.3,545.6,488.5,455.4,488.5z"/>
					<path class="st35" d="M429.3,493.2c-0.1,0.4-0.2,0.8-0.5,1.3c-3,4.9-19.6,1-24,0.5c-16.7-1.9-33.3-3.9-49.7-7.3
						c-8.3-1.7-16.6-3.9-24.7-6.5c-31.8-9.9-50.1-23.2-50.1-36.5c0-10.9,12.2-21.7,34.2-30.8c-16.5,7.9-25.4,17.3-25.4,27.2
						c0,14.1,17.8,27,50,36.3c25.2,7.3,51.4,10.6,77.6,12.6C418.6,490.2,430,490,429.3,493.2z"/>
					<path class="st7" d="M593.6,447.3c0,13.9-43,25.1-96,25.1c-53,0-30.2-22.6-18.2-25.1c64.5-13.7-34.8-25.1,18.2-25.1
						C550.7,422.2,593.7,438.8,593.6,447.3z"/>
					<path class="st35" d="M515.5,488.9c0,0-14.5,1.2-17.5,4c-3,2.9,10.1,6.3,38.6,0.9c28.5-5.4,61.1-15,68.5-24.4
						c7.4-9.3-5.4-2.3-22.2,4.6C566.1,481,515.5,488.9,515.5,488.9z"/>
				</g>
			</g>
		</g>
		<g class="st36">
			<path class="st1" d="M398.8,159.6c0,0,59.8,41.4,32.3,91.9c-27.5,50.5,0,96.9,0,96.9c-4.1-7.4-2.8-22-2.5-29.9
				c0.8-18.9,4.5-38,12.8-55.3c5.5-11.6,13.8-22.5,15.1-35.4c2.2-22.1-16.6-38.9-33.5-51.3C415.1,170.6,407,165,398.8,159.6z"/>
			<path class="st1" d="M463.3,194.4c0,0,26.2,26.1,8.5,51.7c-17.8,25.5-2.1,51.7-2.1,51.7c-1.8-4.2-0.2-12,0.4-16.2
				c1.6-10.1,4.7-20.2,10.1-29c3.6-5.9,8.7-11.3,10.2-18.2c2.5-11.7-6.7-21.9-15-29.5C471.4,201.3,467.4,197.8,463.3,194.4z"/>
			<path class="st1" d="M458.9,250c0,0-26,59.8-5.7,96.1c19.2,34.4-2.8,54.8-2.8,54.8s34.7-15.3,15.9-53.7
				C443,299.9,458.9,250,458.9,250z"/>
		</g>
	</g>
	<path class="st37" d="M435.4,351.6c0,0,19.4,15.5,6.2,30.7c-13.1,15.2-1.6,30.7-1.6,30.7c-1.3-2.5-0.2-7.1,0.3-9.6
		c1.1-6,3.4-12,7.5-17.2c2.7-3.5,6.5-6.7,7.5-10.8c1.8-7-4.9-13-11.1-17.6C441.4,355.7,438.5,353.6,435.4,351.6z"/>
</g>
</svg>
