<?xml version="1.0" encoding="utf-8"?>
<!-- Generator: Adobe Illustrator 24.0.2, SVG Export Plug-In . SVG Version: 6.00 Build 0)  -->
<svg version="1.1" id="Layer_1" xmlns="http://www.w3.org/2000/svg" xmlns:xlink="http://www.w3.org/1999/xlink" x="0px" y="0px"
	 viewBox="0 0 840 720" style="enable-background:new 0 0 840 720;" height="720" width="840" xml:space="preserve">
<style type="text/css">
	.st0{fill:#F0A747;}
	.st1{fill:#F6C46C;}
	.st2{fill:#E18137;}
	.st3{fill:#E89B49;}
	.st4{fill:#B26228;}
	.st5{fill:#D2712C;}
	.st6{fill:#E79843;}
	.st7{fill:#25130A;}
	.st8{fill:#F8F1F1;}
</style>
<g>
	<g>
		<g id="XMLID_3_">
			<g>
				<path class="st0" d="M617.3,369.9c0,0,44.3,51.3,65.4,104.6c-24.1-36.2-97.5-104.6-97.5-104.6
					C603.2,366.9,617.3,369.9,617.3,369.9z"/>
				<path class="st0" d="M482.6,409.2c0,0,47.2,58.3,71.4,104c-54.3-22.6-104.6-104-104.6-104H482.6z"/>
				<path class="st0" d="M346.8,460.4c0,0,50.3,66.4,103.6,117.7C379,554,320.6,463.5,320.6,463.5L346.8,460.4z"/>
				<path class="st0" d="M308.5,618.2c-3.5-1-59.4-17.7-95.4-70.3l11.1-8C224.1,539.9,267.3,578,308.5,618.2z"/>
				<path class="st1" d="M633.1,357.8c50.9,40.3,49.6,116.7,49.6,116.7c-21.1-53.3-65.4-104.6-65.4-104.6
					C620.4,360.9,633.1,357.8,633.1,357.8z"/>
				<path class="st1" d="M482.6,409.2l11.1-14.1C548,436.3,554,513.2,554,513.2C529.8,467.5,482.6,409.2,482.6,409.2z"/>
				<path class="st1" d="M346.8,460.4c3-7.1,15.1-12,15.1-12c76.4,39.2,88.5,129.7,88.5,129.7C397.1,526.8,346.8,460.4,346.8,460.4z
					"/>
				<path class="st1" d="M229.2,526.8c0,0,47.2,29.1,79.4,91.5c-0.1-0.1-0.1-0.1-0.1-0.1c-41.2-40.2-84.3-78.3-84.3-78.3
					L229.2,526.8z"/>
				<path class="st2" d="M153.7,670.6C126.6,611,213,547.9,213,547.9c36,52.6,91.9,69.3,95.4,70.3c0.1,0,0.1,0,0.1,0.1
					c-32.2-62.3-79.4-91.5-79.4-91.5c15.1-24.1,91.5-63.4,91.5-63.4S379,554,450.4,578.1c0,0-12.1-90.5-88.5-129.7
					c46.3-33.2,87.5-39.2,87.5-39.2s50.3,81.4,104.6,104c0,0-6-76.9-60.3-118.2c34.2-19.1,91.5-25.1,91.5-25.1s73.4,68.4,97.5,104.6
					c0,0,1.3-76.4-49.6-116.7c0,0,146.1-10.7,194.4,60.4c48.3,71.1-85.8,159.5-245.4,218.5C372.9,714.1,194,759.1,153.7,670.6z"/>
			</g>
		</g>
	</g>
	<g>
		<g>
			<path class="st3" d="M828.2,478c-0.7-13-2.3-23.7-7-31.3c-2.1-3.8-4.6-6.9-7.3-9.6c-1.4-1.3-2.8-2.7-4.2-3.9
				c-0.7-0.5-1.7-1.5-2.1-1.6c-1-0.8-2.3-2.3-3-2.7c-12.9-9.7-29.1-17.5-47-24.4c-18-6.9-37.9-13.1-58.6-19.9
				c-20.9-7-42.5-14.1-65.8-25l-0.3-3.4c23.1-1.9,46.2-1.5,69.2,1c23,2.5,45.9,7,67.8,15.1c21.6,8.5,42.5,21.1,57,40.2
				c7.2,9.2,12.4,20.9,13,33c0.6,12.1-3.1,23.9-8.6,34.1L828.2,478z"/>
		</g>
	</g>
	<g>
		<g>
			<path class="st4" d="M226.7,716.6c27.7,1.1,55.1-2.1,82-7.8c27-5,53.6-11.8,80-19.7c26.3-8.1,52.7-16,78.8-25
				c26.2-8.7,52.3-17.8,78.2-27.3c52.4-18.2,103.2-38.1,152.7-62c24.7-11.9,48.7-25.2,71.2-40.7c22.7-15,44.3-32.5,59.5-55.6
				l1.2,0.6c-6.3,12.5-15.2,23.5-24.9,33.4c-9.7,10-20.4,19-31.5,27.4c-22.2,16.8-46.1,31.2-70.6,44.3c-49,26.3-100.8,47-153.1,65.6
				c-52.3,18.6-105.1,36-159,49.7c-26.9,6.8-54.1,12.7-81.7,16.5c-27.5,3.7-55.5,5.7-83.2,1.9L226.7,716.6z"/>
		</g>
	</g>
	<g>
		<g>
			<path class="st3" d="M214.1,549.3c-7.9,21.5-16.4,39-23.1,55.2c-6.8,16.1-11.1,30.5-11.4,40.3c-0.3,2.5-0.1,4.8,0.1,7.1
				c0.1,2.5,0.6,4.4,1.4,7.5c1.6,5.7,3.8,11.3,7.3,17.2c6.8,12,20.8,24.2,38.4,38.9l-0.5,3.4c-9.9-1.1-19.8-3.1-29.4-6.4
				c-9.5-3.4-18.6-8.3-26.5-14.9c-7.9-6.6-14.3-14.9-18.9-24.2c-4.6-9.2-7-19.8-6.5-30.2c1.3-21,11.7-39.6,23.8-55.4
				c12.3-16,26.9-29.7,43.2-41.3L214.1,549.3z"/>
		</g>
	</g>
	<g>
		<g>
			<path class="st1" d="M229.5,526.9c1.5,3.1,1.8,5.7,1.8,8.2c0,2.5-0.6,4.8-1.4,7l-0.7,1.9l-1.5,1c-1.9,1.2-3.9,2.3-6.3,2.9
				c-2.4,0.6-4.9,0.9-8.2,0.3l-0.4-0.6l10.9-8.3l-0.2,0.3l5.3-13L229.5,526.9z"/>
		</g>
	</g>
	<g>
		<g>
			<path class="st3" d="M321.1,464.4c-4.8,10.8-11.1,18.5-17.6,25.5c-6.7,6.8-13.8,12.5-21.4,17.3c-7.6,4.8-15.6,8.7-24,12
				c-4.2,1.6-8.8,2.8-13.2,4.3c-4.8,1.2-9.2,2.4-14.9,4l-1.8-1.1c5-8.3,12.4-14.5,19.8-20.3c7.4-5.8,15.1-11.2,23-16.3
				c8-4.9,16.1-9.7,24.2-14.2c8.1-4.6,16.5-8.9,25-12.9L321.1,464.4z"/>
		</g>
	</g>
	<g>
		<g>
			<path class="st1" d="M362,448.7c-2.1,3.2-4.2,5.8-6,8.2c-1.8,2.3-3.3,4.7-3.6,5.9l-0.8,2.8l-4.1,0.8c-2.2,0.4-4.3,0.7-6.5,0.8
				c-2.2,0.2-4.4,0-6.6,0c-4.5-0.5-9-1.1-13.6-3.4l-0.1-0.7l13.1-1.7c4.4-0.5,8.7-1.2,13.1-1.6l-0.5,0.4c1.5-3.2,4.1-5.4,6.8-7.4
				c2.7-1.9,5.6-3.5,8.7-4.8L362,448.7z"/>
		</g>
	</g>
	<g>
		<g>
			<path class="st3" d="M449.5,410.2c-6.4,8.6-12.5,14.3-18.8,19.2c-6.3,4.8-12.7,8.7-19.4,11.7c-6.8,3.1-13.9,5.4-21.7,7
				c-7.9,1.5-16.4,2.4-27.1,1.1l-1.2-1.7c12.6-10.1,26.9-18.2,41.5-25.3c7.4-3.3,15-6.2,22.8-8.6c7.7-2.5,15.6-4.5,23.7-5.5
				L449.5,410.2z"/>
		</g>
	</g>
	<g>
		<g>
			<path class="st1" d="M493.9,395.3c-0.5,3.4-1.4,6.5-2.6,9.3c-1.2,2.9-2.6,5.6-4.2,8.1l-1.1,1.7l-3.5,0.5
				c-2.8,0.4-5.5,0.4-8.3,0.4c-2.8-0.1-5.5-0.2-8.3-0.6c-2.8-0.3-5.5-0.9-8.3-1.8c-2.8-0.8-5.5-1.9-8.3-3.5v-0.7
				c11.1-0.1,22.1-0.5,33.2-0.2l-0.5,0.2l11.3-13.9L493.9,395.3z"/>
		</g>
	</g>
	<g>
		<g>
			<path class="st3" d="M585.2,370.9c-7,8.2-13.9,13.1-21,17.2c-7.1,3.9-14.2,6.7-21.4,8.5c-7.3,1.8-14.6,2.7-22.4,2.8
				c-7.9-0.1-15.9-0.8-26.3-3.4l-1-1.8c6.8-4.3,14.2-7.6,21.7-10.4c7.5-2.8,15.2-5.2,22.9-7.3c7.8-1.9,15.6-3.4,23.5-4.7
				c7.9-1.4,15.8-2.4,23.8-2.9L585.2,370.9z"/>
		</g>
	</g>
	<g>
		<g>
			<path class="st1" d="M633.2,358.2c-2.7,2.7-5.2,5.1-7,7.4c-1.9,2.3-3,4.5-3.2,6.2l-0.6,5l-6.3-1.1c-2.1-0.3-4.8-0.4-7.2-0.8
				c-2.5-0.2-5-0.6-7.6-1c-5.1-0.9-10.3-1.7-16.1-3.8l-0.1-0.7c5.3-0.9,10.7-1.5,16.1-1.5c5.4-0.1,10.9,0.2,16.2,1.3l-0.7,0.4
				c1.2-3.4,3.8-6.1,6.7-8.1c2.9-1.9,6.2-3.3,9.5-4.1L633.2,358.2z"/>
		</g>
	</g>
	<g>
		<g>
			<path class="st5" d="M308.5,618.6c-9.7-2.9-19-6.9-28-11.5c-9-4.6-17.6-9.9-25.8-15.8c-16.2-12-30.6-26.6-41.9-43.3l0.6-0.4
				c3.9,3.4,7.4,7,11.3,10.2c3.6,3.4,7.3,6.7,11.1,9.8c7.6,6.2,15.1,12.4,23.1,18c7.8,5.8,16,11.2,24.3,16.5
				c8.4,5.2,16.8,10.6,25.6,15.7L308.5,618.6z"/>
		</g>
	</g>
	<g>
		<g>
			<path class="st6" d="M229.3,526.5c9.9,3.7,18.9,9.2,27.1,15.6c8.3,6.3,15.8,13.7,22.7,21.5c6.7,8,12.9,16.4,17.9,25.6
				c2.4,4.6,4.8,9.2,6.9,14c1.8,4.9,3.8,9.7,5,14.9l-0.6,0.3c-9.5-18-21-35-34.4-50.3c-6.6-7.8-13.6-15.1-21.1-22
				c-7.5-6.9-15.3-13.4-23.8-19L229.3,526.5z"/>
		</g>
	</g>
	<g>
		<g>
			<path class="st6" d="M450,578.1c-2.2-13.3-6.1-26.4-11.1-39c-5-12.6-11.1-24.7-18.5-36c-14.5-22.7-34.6-42.1-58.7-54.5l0.3-0.6
				c6.6,2,12.9,5,19.1,8.2c6,3.5,11.7,7.5,17.2,11.9c11,8.8,20.2,19.6,27.9,31.3c7.6,11.8,13.6,24.5,17.8,37.8
				c4.3,13.2,6.8,27,6.7,40.8L450,578.1z"/>
		</g>
	</g>
	<g>
		<g>
			<path class="st5" d="M320.9,463.2c8.2,12.1,17.2,23.7,26.6,34.9C357,509.3,367,520,377.7,530c21.2,20,45.1,38.1,72.8,47.8
				l-0.2,0.6c-7.4-1.1-14.5-3.6-21.5-6.1c-6.9-2.9-13.6-6.4-20.1-10.1c-13-7.6-24.5-17.3-35.7-27.1c-10.5-10.6-20.7-21.5-29.5-33.4
				c-4.3-6-8.6-12.1-12.6-18.4c-3.7-6.5-7.6-12.8-10.5-19.7L320.9,463.2z"/>
		</g>
	</g>
	<g>
		<g>
			<path class="st6" d="M553.6,513.2c-1.2-11.3-3.6-22.4-6.8-33.2c-3.2-10.9-7.2-21.5-12.1-31.7c-9.6-20.4-23.3-39.2-41.4-53
				l0.4-0.6c5.3,2.4,10.1,5.8,14.9,9.2c4.5,3.7,8.8,7.8,12.8,12.1c8.1,8.6,14.3,18.8,19.5,29.3c5,10.6,8.8,21.7,11.1,33.2
				c2.4,11.4,3.3,23.1,2.2,34.7L553.6,513.2z"/>
		</g>
	</g>
	<g>
		<g>
			<path class="st5" d="M449.7,408.9c13.5,20.9,28.8,40.6,45.8,58.8c8.5,9.1,17.4,17.8,27.1,25.6c9.7,7.8,20.1,14.7,31.5,19.6
				l-0.3,0.6c-6.3-1.2-12.2-3.7-18.1-6.3c-5.7-2.9-11.2-6.2-16.5-9.8c-10.7-7.1-20-15.9-28.8-25.1c-8.6-9.3-16.5-19.2-23.5-29.8
				c-7.1-10.5-13.1-21.6-17.9-33.4L449.7,408.9z"/>
		</g>
	</g>
	<g>
		<g>
			<path class="st6" d="M682.4,474.5c-0.1-10.9-1.5-21.7-3.5-32.4c-2.1-10.7-5.1-21.2-9-31.3c-7.7-20.2-19.9-39.1-36.9-52.7l0.4-0.5
				c5.1,2.4,9.6,5.7,14.1,9.2c4.3,3.7,8.2,7.8,11.9,12.2c7.4,8.7,12.8,18.9,17,29.4c4,10.6,6.8,21.6,7.9,32.8
				c1.3,11.1,1.1,22.4-1.2,33.4L682.4,474.5z"/>
		</g>
	</g>
	<g>
		<g>
			<path class="st5" d="M585.4,369.7c17.5,16.3,34.6,32.9,51.3,50c8.2,8.6,16.3,17.4,24.2,26.4c7.8,9,15.5,18.2,22.1,28.2l-0.6,0.4
				l-25.6-25c-8.6-8.2-16.8-16.7-25.1-25.2c-16.4-17.2-32.6-34.6-46.8-54.3L585.4,369.7z"/>
		</g>
	</g>
	<g>
		<path class="st7" d="M738.9,409.1c5.2,5.3,12.5,9.3,13.5,0c2.2,1,5.8-0.4,11.2-6.2c0.1-0.1,0.1-0.1,0.1-0.2
			c4.5,4.2,7.7-1.6,6.9-5.2c0.6-3.3-1.4-7.7-4.2-8.4c-4.4-4-14.7-3.3-16.2,2.1c-0.2,0.9-0.5,1.9-0.6,3c-2.1-2.9-4.9-3.3-7.6-2.2
			c1-0.7,2.2-2.1,3.5-4.7c5.6-11.4-9.2-9.2-9-4.1c0.1,3.6,1.7,9.6,4.5,9.2c-0.9,0.5-1.7,1.1-2.4,1.7c-6.5-6.7-16.3-11.9-14.1,6.9
			C726.1,414.7,734,413.7,738.9,409.1z"/>
		<path class="st7" d="M765.1,454.9c-0.8,0.5-1.6,1.2-2.4,1.9c-1.1-0.7-2.1-1.1-3.1-1.2c2.4-2.8,2.6-5.8-4.6-6.5
			c0.1-4-1.2-7.9-4.4-9c-3.4-1.2-8.2-2.2-12.3-2.1c-0.6-0.4-1.2-0.8-1.9-1.2c-16.8-10.2-15.4,12.8-7.5,13.3c1.4,0.1,3,0,4.6-0.1
			c0.9,1.2,1.8,2.4,3.1,3.8c5.1,5.6,9.3,6.9,12.3,5.8c1.4,1,2.9,1.4,4.2,0.8c-1.5,3.9-0.9,8.9,2.2,10.3c0.1,0,0.2,0.1,0.3,0.1
			c1.2,1.2,3.5,1.9,7.4,1.9c1.8,0.2,3.5,0.2,4.9-0.1c4.5,3.9,8,0.3,8.9-3.7C783.1,462.4,771.1,450.8,765.1,454.9z"/>
		<path class="st7" d="M817,420.1c1.8-3.1-0.1-6.6-10.1-9.9c-19.4-6.3-16,12.7-8.7,16.8c-0.8,0.8-1.3,1.7-1.5,2.7
			c-1.4-2.4-4.4-3.7-7.5-4c-0.7-1.1-1.8-2.4-3.3-3.9c-7.4-7.3-11.4-2.4-11.9,2.6c-1.1,0.7-1.5,2.4-0.9,5.5
			c-5.9-0.6-11.5,1.2-3.3,10.1c3.2,3.4,5.7,4.2,7.7,3.7c1.2,6.8,5.3,10.7,15.3-0.9c3.4-4,4.7-7.2,4.7-9.8c1.4,2.2,4.8,4.5,11,6.8
			C832.3,448.9,826.8,422,817,420.1z"/>
		<path class="st7" d="M808.7,473.6c-6.3-4.3-21.6-9.5-12.8,7.3C804.7,497.7,815.1,478,808.7,473.6z"/>
		<path class="st7" d="M786.9,396.3c4.8,1.1,15.3,0.7,6-7.4C783.7,380.8,782.1,395.2,786.9,396.3z"/>
		<path class="st7" d="M767,380.9c9.2-10.4-7-12.3-8.3-6.8C757.4,379.5,757.9,391.2,767,380.9z"/>
		<path class="st7" d="M703.3,381.3c1.8,23.2,23,5.9,18-2.1C716.2,371.3,701.5,358.1,703.3,381.3z"/>
		<path class="st7" d="M689.8,408c6.9-2.3,19.4-10.9,1.7-13.8C673.9,391.3,682.9,410.3,689.8,408z"/>
		<path class="st7" d="M701,369c3.3-4.3,7.4-14.9-4.7-9.3C684.1,365.4,697.7,373.3,701,369z"/>
		<path class="st7" d="M665.6,377.1c2.5,0.5,6.4,0.7,8.8-0.2c-4.6,6.2-5.3,12.9,10.7,10.6c23.4-3.3,4.5-23.7-3.2-18.1
			c-1.7,1.2-3.6,3-5.4,4.9c-0.1-1.4-1.3-3.2-4.2-5.7C661.6,359.7,660.1,375.9,665.6,377.1z"/>
		<path class="st7" d="M631.1,511.2c2.2-16.2-14.9-7.5-12.6-1.3C620.8,516.1,628.9,527.4,631.1,511.2z"/>
		<path class="st7" d="M665,404.5c1.1-4.6,0.7-14.6-7.1-5.8C650.2,407.5,663.9,409.1,665,404.5z"/>
		<path class="st7" d="M682.7,425.6c-0.6-0.7-1.2-1.2-1.8-1.7c-0.3-1.4-0.7-3-1.4-5c-0.9-2.3-1.8-4.1-2.9-5.4
			c0.4-0.8,0.9-1.6,1.4-2.6c7.4-16.1-13.1-12.5-12.7-5.3c0.1,1.5,0.4,3.4,0.9,5.2c-5.5-0.7-11.8,0.7-3.8,8.7
			c0.3,0.3,0.6,0.5,0.9,0.8c-0.2,1.9,0.2,3.7,1.5,4.8c1.8,1.6,4.3,3.3,6.8,4.5c0.2,2.1,1,4,2.7,4.6
			C680.1,436.2,693.3,436.9,682.7,425.6z"/>
		<path class="st7" d="M718.4,424c-0.8-2-2.2-4.5-3.8-6.4c0.6-5-0.6-9.1-5.8-8c-0.9-2.1-4-2.7-10.8,0.1c-8.8,3.6-8.3,8.5-5,11.6
			c-2.3,5.4,2.5,9.5,7.9,10.8c0.1,2.4,1.5,4.9,3.5,6.9c-0.2,0.5-0.5,1.1-0.7,1.7c-11.7-0.3-7.3,18.8,0.6,18.4
			c7.1-0.4,19.6-4.1,15.6-10.3c2.4-3.1,3.2-6.4-1.2-7.3c-0.1-0.8-0.3-1.6-0.8-2.3C724,433.7,729.9,424.9,718.4,424z"/>
		<path class="st7" d="M672.4,449.9c-4.6-0.8-14.5,0.3-5.2,7.4C676.5,464.4,677.1,450.7,672.4,449.9z"/>
		<path class="st7" d="M719.7,474.5c0.2-0.5,0.4-0.9,0.6-1.5c6.6-17.8-13.9-13.1-14.6-5.7c-1.2,1.9-2.1,5-2.6,9.9
			c-2.5,23.7,22.1,10.2,18.5,1.3C721.1,477.1,720.5,475.8,719.7,474.5z"/>
		<path class="st7" d="M708,495.8c-2.3-1.4-5.5-2.7-8.6-3.5c1.7-9.2,0.4-22.3-13.5-8.4c-10.2,10.1-3.1,15.7,3.9,16
			c-1,1.2-1.4,3.7-0.8,8.3c1.7,11.5,9.4,7.8,12,3C708.8,513.6,713.7,499.2,708,495.8z"/>
		<path class="st7" d="M673.4,501.7c-9.5,13.9,10.3,13.8,11.1,7C685.2,501.9,682.9,487.8,673.4,501.7z"/>
		<path class="st7" d="M665.9,510.3c2.8-7.8-11.4-9.9-13.3-4.3c-1.9,5.6-2.6,16.9,4.6,13.2c0.4,0.2,0.8,0.4,1.3,0.4
			C664.3,519.9,676,517.3,665.9,510.3z"/>
		<path class="st7" d="M659.3,483.8c0-2.6-0.5-4.5-1.2-5.8c0.5,0.2,1,0.3,1.6,0.2c3.2-0.6,8.1-2.7,8.7-5.1c0.5,3.8,3.6,7.8,6.8,7.2
			c2.4-0.5,5.7-1.6,8-3.2c3.1,1,6.9,0.5,8-2c2.4-5.5,4-17.4-5.7-11.1c0-0.1,0.1-0.1,0.1-0.2c1.3-4.8,1.1-15.1-7.2-6.2
			c-6.1,6.7,0.1,9.5,4.3,8.5c-0.9,0.7-1.5,1.4-2.1,2.1c-0.6-0.2-1.3-0.5-2.1-0.7c-7.6-2.3-10.2,0.7-10.2,4.3c-0.5-1.2-2.2-2.5-6-3.6
			c-0.4-0.1-0.8-0.2-1.2-0.3c0.1-4.1-1.4-7.8-7.1-1.8c-0.1,0.1-0.1,0.1-0.2,0.2c0-0.3,0.1-0.5,0.1-0.8c3.1-1.5,3.8-6-1.4-15.8
			c-1-1.9-2-3.3-3-4.6c0.9-6.5-3.5-15.1-9.2-14.7c-0.6,0-1.3,0.1-2,0.2c2.7-1.3,3-4.4-2.5-10.9c-12-14.2-17.7,6.9-10.7,9.7
			c2.6,1,6.3,1.9,9.4,1.9c-2.1,0.5-4.3,1.1-6.2,1.9c-1.2-5-5.9-4.2-8.9-1.7c0-0.1,0.1-0.1,0.1-0.2c1.1-3.4,1.8-8.3,1.5-12.3
			c1.8-1,3.2-2.5,3-4.2c-0.6-5.8-5.1-17.2-10.5-3.8c-0.3,0.6-0.4,1.2-0.6,1.8c-2,1-4.3,2.7-7.3,5.6c-15.1,15,4.4,20.8,11.6,15.9
			c-0.4,1-0.6,2-0.2,2.9c1.4,3.3,4.8,8.2,7.6,8.2c1.8,1.4,4.2,2.8,7.6,4.4c-0.7,2.3-0.8,4.7-0.3,6.7c-3.5-3.4-9.9-4.9-13.7-2.9
			c-1.1-1.9-2.6-3.2-4.5-3.6c-10.5-1.9-32.8,0.2-12.1,16.5c3.9,3.1,7.1,4.5,9.7,4.7c0.6,4.4,4.4,6.3,14.9,0.3
			c2.5-1.4,4.3-2.9,5.5-4.3c-4.1,9.6,10.2,14.3,16.8,10.6c-1.9,1.9-3.1,4.5-2,6.4C649.8,490.1,659.4,499.9,659.3,483.8z M634,463.9
			c0.5-1.3,0.5-2.6,0.2-3.8c0.1,0.1,0.2,0.2,0.3,0.3c0.6,0.4,1.2,0.8,1.8,1.1C635.4,462.3,634.7,463.1,634,463.9z M650.5,476.5
			c0.4-0.4,0.7-0.9,0.9-1.5c0.3-0.7,0.6-1.6,0.9-2.4c0.6,0.6,1.4,1.1,2.3,1.3c0.2,0.6,0.4,1.1,0.7,1.6
			C653.9,475.1,652.1,475.5,650.5,476.5z"/>
		<path class="st7" d="M589.4,428.6c-2.5-5.2-10.4-14.5-11.1-0.2C577.5,442.7,591.8,433.8,589.4,428.6z"/>
		<path class="st7" d="M597.1,410.9c3.7,12.7,17.9,0.1,14-5.8c-1.7-2.7-4.8-6-7.8-7.8c1.1-1.4,1.6-3,1.2-4.5
			c-2.1-7.8-10.8-22.4-15.3-2.9c-1.6,7,0.2,10.4,3.1,11.4c-5.9-1.2-13.3-0.5-5.2,8.7C592.1,415.5,595.6,414,597.1,410.9z
			 M596.3,401.5c0,0.3,0,0.7-0.1,1.1c-0.2-0.2-0.5-0.3-0.8-0.5c-0.6-0.2-1.2-0.4-1.9-0.6C594.5,401.7,595.4,401.7,596.3,401.5z"/>
		<path class="st7" d="M532.1,406.6c-1.5,0.4-2.9,2.5-3.9,7.3c-2.6,12,7.7,9.8,10.8,5.4c-2.2,8.3,4.7,8.6,8.6,6
			c0.5,1.4,1.5,3.1,3.2,5.3c10.4,13.4,16.4-5.6,10.1-8.4c-3-1.4-8-2.6-11-1.9c-0.1-0.6-0.3-1.3-0.5-2c2,0.3,4,0.2,5.6-0.5
			c5,9.7,18.4-2.6,14.5-8.8c-1.3-2.1-3.4-4.6-5.7-6.5c6.7-3.3,4-14.4-1.3-18.7c4.3-5.8,5.6-12.3-9.1-9.9c-4.5,0.7-7.2,2.2-8.6,3.9
			c-1.3,0-2.6,0-4.3,0.1c-12.5,1.1-12.3,8.1-8.5,12.9c-0.4,0.7-0.7,1.3-1.1,2.1C527.5,400.6,528.9,404.8,532.1,406.6z M539.9,416.8
			c0-0.3,0-0.6-0.1-0.8c-0.8-2.8-2.7-6.7-4.9-8.5c1.4,0.2,2.8,0.1,4.3-0.2c-0.7,2.5,0.2,4.9,2,6.8
			C540.7,414.7,540.3,415.7,539.9,416.8z"/>
		<path class="st7" d="M522.5,412.4c9.2,0.2,7.4-8.3,3.3-11.8c-0.3-0.9-0.8-1.6-1.6-2.2c-7.3-5.4-25.2-12.3-15.6,8.1
			C513.4,416.4,518.9,416,522.5,412.4z"/>
		<path class="st7" d="M550.3,474.4c3.9,1.4,8.1,1.3,10.2-1.5c1.6-2.1,3.3-5,4.6-7.9c8.7-0.4,9.5-17.5,2.2-19.4
			c-6.6-1.8-18.7-2.2-19.4,3.3c-2.3-0.9-4.7,0.1-6.7,4.5c-0.6-2.4-1.8-4.4-3.9-5.2c-2.2-0.9-5.1-1.7-8-2.2c0.1-0.7,0.3-1.4,0.3-2.3
			c1.1-11.4-10.7-4.8-8.9-0.5c0.3,0.7,0.7,1.6,1.2,2.4c-1.1,0.1-2.1,0.3-3,0.6c-2.1-1.4-4.4-0.4-6,6.4c-2.1,8.9,3.4,9.7,7.4,7.7
			c0.5,0.6,0.9,1.2,1.5,1.9c7.3,8.6,12.9,8.2,16.3,4.5c0,1.8,0.2,3.4,0.7,4.6c-4.7-0.7-9.7,0.6-11.1,4.2
			c-3.7,9.9-5.6,31.9,13.9,14.7c1.5-1.3,2.6-2.5,3.5-3.7c0.9,0.4,1.9,0.8,3.2,1.2c15.3,4.5,9.4-13.3,3.1-12
			c-1.1,0.2-2.5,0.6-3.8,1.2c-0.2-0.5-0.5-1-0.8-1.4C548,475.2,549.2,474.8,550.3,474.4z"/>
		<path class="st7" d="M586.6,522.4c-15.9-3.1-8.2,14.3-2,12.4C590.9,532.9,602.5,525.5,586.6,522.4z"/>
		<path class="st7" d="M584.5,550.3c-9.2,0.5-27.5,6.8-6.8,16.3C598.3,576.1,593.6,549.8,584.5,550.3z"/>
		<path class="st7" d="M567.1,536.1c3.2-1.2,4.5-4.1,4.6-7.4c0.9-0.6,1.4-1.4,1.5-2.2c2.9-1.8,4.9-4.5,4.4-7.3
			c-0.5-2.3-1.4-5.2-2.6-7.8c10.7,3.2,12.7-10.1,8.8-16.8c2.3-1,4-2.6,4.2-4.7c0.3-3.5-0.1-8.7-1.6-12.1c0.5-1.6,1-3.6,1.3-6.1
			c3.2-23.3-21.5-10.7-18.2-1.8c1.2,3.2,3.4,7.3,6,10.2c-0.4,0.5-0.8,1-1.2,1.7c-1.3,2-2.1,3.8-2.5,5.3c-0.7-4-7.6-7.2-10.2-4.2
			c-3.1,3.6-7.2,11.6-1.5,11.8c-1.7,2.3-0.9,5.6,4.7,10.4c-0.4,0.4-0.8,0.9-1.2,1.5c-0.5,0.1-1,0.3-1.5,0.5
			c-4.3-0.2-9.9,4.6-8.4,8.3c0.3,0.7,0.6,1.4,1,2.2c-5.1,1.7-10,4.5-10.6,7.8c-3.4,0.2-7.2,2.6-6.9,5.5c0.4,4.6,3.2,12.7,7,10.3
			c0.9,1.6,2.3,3.1,3.9,4.3c-0.1,1-0.1,2.2,0,3.3c-0.1,0-0.2-0.1-0.3-0.1c-9.4-0.3-28.6,4.3-8.4,15.9c14.5,8.3,17.3-3.4,14.3-10.7
			c1-0.7,2.1-1.9,3.3-3.7c1-1.4,1.6-2.6,1.9-3.7C561.9,544,565.4,539.9,567.1,536.1z M571.4,489.5c0,0.5,0.1,0.9,0.1,1.4
			c-0.4,0-0.8,0-1.2,0.1C570.8,490.5,571.2,490,571.4,489.5z"/>
		<path class="st7" d="M527.8,550.1c6.3-0.9,18.4-6.4,3.6-11.6c-3.1-1.1-5.3-1.1-6.9-0.6c3.2-4.7-5-10.4-9-8.3
			c0.5-4.5-1.7-9.9-5.5-10.2c-0.5,0-1-0.1-1.6-0.1c2.6-5.7-4.3-15.5-10-13.6c-1.5,0.5-3.1,1.2-4.8,2.1c1.8-2.4,0.4-5.8-7.5-10.3
			c-17.1-9.8-16.6,10.6-9.7,14.2c0.1,1.4,0.8,3.2,2.3,5.8c3.6,6,7.1,5.4,9.2,2.8c1.1,0.6,2.5,1.2,4.3,1.6c0.4,1.7,1.3,3.2,2.8,3.7
			c0,0,0.1,0,0.1,0c0.5,1.9,2.6,4.2,7.1,7c3.8,2.4,6.6,3,8.7,2.6c-2.5,4.7-2.7,9.6,7.8,6.2c1.4-0.5,2.5-1,3.4-1.5
			C520.4,543.8,523.8,550.7,527.8,550.1z M488.3,511.5c0,0-0.1-0.1-0.1-0.1c-0.2-0.1-0.3-0.2-0.5-0.3c0.6-0.2,1.2-0.3,1.7-0.5
			C489.1,510.9,488.7,511.2,488.3,511.5z"/>
		<path class="st7" d="M522,555.5c-0.4-0.7-0.9-1.6-1.4-2.4c-5-7.8-9.5-6.3-11.9-2.6c-1.9-0.6-3.9-0.4-4.9,0.9c0,0,0,0.1,0,0.1
			c-3.1-1.9-6.8-2.5-9-0.5c-0.1,0.1-0.2,0.2-0.3,0.3c-0.1-0.1-0.1-0.3-0.2-0.4c-0.3-4.6-2.7-9.3-6.5-9.6c-0.6-0.1-1.3-0.1-2-0.1
			c-1.2-9.5-17.1-4.2-16.1,2.6c0.1,0.7,0.3,1.4,0.4,2.2c-0.9,1.7-0.4,3.9,2.4,6.7c0.8,1.5,1.6,2.8,2.6,3.6c1,1.6,3.7,3.1,8.9,4.3
			c1.1,0.3,2,0.4,2.9,0.5c-2.6,5.6-1.2,10.3,12.4,7.3c6.8-1.5,9.7-4.3,10.3-7.2c1.1,0.6,2.4,1.2,3.7,1.7c-2.1,4.5-1.6,8.5,8.6,5.6
			C534.1,564.8,527.6,556.7,522,555.5z"/>
		<path class="st7" d="M493.9,485.8c3.6,12.2,14.9,0.2,11.2-4.4c-0.7-0.8-1.5-1.7-2.5-2.5c5.5-8.5-9.5-11.2-11.4-5.8
			C489.6,477.8,488.7,487,493.9,485.8z"/>
		<path class="st7" d="M454.6,471.2c-0.3,1.2-0.4,2.4,0.1,3.6c2.1,5.9,7.6,14.5,12.4,15.3c2.1,3.6,5.9,4,11.9-4.6c0.1,0,0.1,0,0.2,0
			c17.6,3.2,8.9-16,2-13.8c-0.1,0-0.2,0.1-0.2,0.1c-1.5-1.3-3.5-2-5.8-2c-0.1-0.7-0.2-1.4-0.4-2c0.1-4.2-1.4-8.2-4.7-9.3
			C460.4,455.6,439.9,454.7,454.6,471.2z"/>
		<path class="st7" d="M462.6,437.7c11.5-12.7-8.5-15.3-10.2-8.6C450.7,435.9,451.1,450.4,462.6,437.7z"/>
		<path class="st7" d="M434.7,435.2c-2.2,8.1-2.1,23.5,11.7,9.8c5-4.9,5.4-8.6,3.7-11.1c0.2-0.2,0.3-0.4,0.4-0.7
			c2.7-6.4,4.6-20.8-8.7-10.1c-4.1,3.3-5.1,6.2-4.4,8.3c-1.1,0.6-2,1.5-2.4,2.6c0.8-2.9,0.4-6-1.7-7.3c-6.3-3.8-21.2-8-11.9,7.6
			C427.2,444.3,432.8,440.4,434.7,435.2z"/>
		<path class="st7" d="M390.5,449.6c0.4,0.2,0.7,0.3,1.1,0.5c-0.8,2.2-0.8,5.6,0.4,11c3.8,17.2,15.2,10.4,18.3,2.7
			c1.9-1,3.4-2.3,4.5-3.7c0.8,0.7,1.7,1.1,2.7,0.9c5.1-0.9,14.9-5.6,2.8-9.6c-2.3-0.7-3.9-0.8-5.2-0.5c-2.9-9.4-10-20.3-16.3-6.5
			c-0.2,0-0.4-0.1-0.6-0.1c-0.4-0.1-0.7,0-1.1-0.1c-0.6-1.4-1.7-2.5-3-2.5C389.7,441.8,380.7,444.5,390.5,449.6z"/>
		<path class="st7" d="M416.4,513.5c0.4-0.9,0.7-2,1-3.2c1.4,0.1,2.8-0.2,3.8-1.1c4.4-3.7,10.3-11.6,8.2-15.4c0.3-0.3,0.6-0.6,0.8-1
			c0.2-0.5,0.5-1.2,0.7-1.8c1.8-1.6,3.1-3.6,3.7-5.7c7.6-5.1,17.9-16.8,0.6-17.2c0-0.7-0.1-1.4-0.3-2.1c2.8,1.2,6.3-2.2,6.8-5.2
			c2.5,4,6.5,7,7.9-2.6c1.7-12.1-10.7-6.2-9.8-1.4c-3.8-3.7-10.5-7.3-8.2,3.7c0.1,0.5,0.3,1,0.4,1.5c-0.9-0.6-1.8-0.8-2.7-0.5
			c-2.2,0.7-5.3,2.2-6.9,3.9c-1.1,0.5-1.6,1.5-1.4,3.1c-3.4-0.4-6,2.9-5.7,13.4c0.2,5.2,1.4,8.4,3.1,10.3c-0.5,0.1-1,0.2-1.5,0.3
			c-12,2.6-11.5,9.3-7.5,13.7C400,514.2,414.3,518.3,416.4,513.5z"/>
		<path class="st7" d="M440.3,492.1c-4,8-7.6,26.5,10.5,13.7C468.9,492.9,444.3,484,440.3,492.1z"/>
		<path class="st7" d="M423,533c17.5-16.4-10.1-22.3-13.2-13.1C406.6,529.1,405.6,549.4,423,533z"/>
		<path class="st7" d="M363.9,635.8c1.9,5.4,8.9,15.2,10.9,1.2C376.8,622.9,362,630.4,363.9,635.8z"/>
		<path class="st7" d="M468,521.4c-2.7-10.1-13.8-29-19.7-3.8C442.5,542.6,470.6,531.5,468,521.4z"/>
		<path class="st7" d="M450.7,549.5c3.4-3,5.1-6.6-0.1-8.4c-0.4-0.7-1-1.4-1.7-1.8c-2.4-1.3-5.9-2.5-9.1-3c1.5-6.1-9.2-6.1-9.9-1.9
			c-0.7,3.8-0.2,10.8,3.5,9.6c0.6,1.3,1.4,2.7,2.5,4.3c0.9,2,2.5,3.9,4.3,4.9C445.1,557,449.1,553.8,450.7,549.5z"/>
		<path class="st7" d="M438.1,555.8c-3-5-12-13.5-11.2,1C427.6,571.3,441.2,560.8,438.1,555.8z"/>
		<path class="st7" d="M469.8,570.9c1,5.5,6,16,10.3,2.9C484.3,560.8,468.8,565.4,469.8,570.9z"/>
		<path class="st7" d="M454,566c-8-1.6-16.6-0.2-6.2,12.5c1.1,1.3,2,2.2,3,3c-2.9,1-3.8,3.4,2,8.1c8.4,6.8,10.8-1.8,8.8-6.2
			c5.2,2.6,9.8,1.5,7.3-11.5C466.4,558.4,458.3,560.7,454,566z"/>
		<path class="st7" d="M451.7,597.8c-6.8,2-19.5,9.8-2.3,13.4C466.6,614.8,458.5,595.8,451.7,597.8z"/>
		<path class="st7" d="M438.2,589.7c1.2-0.7,2.2-2.7,2.8-6.8c2.1-13.8-12.7-6.6-10.8-1.3c0.5,1.4,1.3,3.1,2.3,4.6
			c-3.5,1.1-6.7,5.9-4.8,8.6c3.4,4.9,13,12.8,11.3-1.7C438.8,591.8,438.5,590.7,438.2,589.7z"/>
		<path class="st7" d="M410.4,590.6c-19.2-10.4-16.7,15.6-7.6,15.8c1.6,0,3.5-0.1,5.4-0.3c6.5,19.9,23.2-0.2,16.9-7
			C421.5,595.3,414.7,590.4,410.4,590.6z"/>
		<path class="st7" d="M382.7,606.3c2.6,11.4,11.9,1.2,8.8-2.3C388.4,600.4,380.1,594.9,382.7,606.3z"/>
		<path class="st7" d="M408.5,569.2c0-0.2-0.1-0.3-0.1-0.5c0,0,0.1,0,0.1-0.1c0.4,2.9,1.6,5.4,4,6.1c8.2,2.4,26.3,2.7,11.1-12.2
			c-4-4-7.3-5.1-9.8-4.6c-2.7-2.4-8.3-2.8-9.7,0.1c0,0.1-0.1,0.2-0.1,0.3c-1.1-1.7-2.8-2-4.4-1.5c5.1-7.2,6.9-15.6-9.1-12.6
			c-0.7-1.1-1.7-2.2-3.1-3.6c-2.8-2.8-5.2-3.8-7.1-3.8c0-0.2,0-0.4-0.1-0.6c-2.1-6.3-10.1-17.9-12.8-1.6c-1.5,9.3,3.5,10.6,7.7,8.8
			c-0.2,3,0.8,5.9,3,6.8c0,0,0,0,0,0.1c-2.7-0.3-5.5,0.4-6.4,2.5c-2.6,6.2-4.3,20.1,8.5,9.7c0.4-0.4,0.7-0.7,1.1-1
			c2.3,2,5.2,3.3,7.8,3.4c-1.1,2.2-1.6,4.5-1.1,6.5c-4-7.5-20.1-2.3-19.4,5.3c0.9,10.1,8.4,30.2,18.3,7c2.2-5.2,2.4-8.9,1.5-11.4
			c0.2,0.4,0.4,0.8,0.7,1.2C395.7,581.9,413.6,594.3,408.5,569.2z"/>
		<path class="st7" d="M368.1,558.5c-1.6-6.7-8.5-19.3-12.8-2.9C351,571.9,369.7,565.1,368.1,558.5z"/>
		<path class="st7" d="M346.8,546.5c-0.5-0.2-0.9-0.3-1.4-0.4c1.5-1.4,1.1-4-3.7-8.4c-2.9-2.6-5.2-3.5-6.9-3.2
			c-0.5-0.7-1.2-1.3-2-1.4c-5.7-1.2-17.8-0.3-6.8,8.8c2.1,1.8,3.9,2.5,5.3,2.7c0.5,1.2,1.4,2.1,2.5,2.4c0.9,0.3,2.1,0.4,3.3,0.6
			c-2.8,4,1.1,12.5,5.7,11.8C349.7,558.2,363,552.1,346.8,546.5z"/>
		<path class="st7" d="M335.8,526.5c2.8-2.9,6.5-9.1,3.6-10.8c0.8-0.1,1.5-0.5,2-1.1c1-1.5,2-3.7,2.4-5.7c3.2-1.6,5.6-4.6,4.9-7.4
			c-2.1-7.5-10.6-21.5-14.7-2.7c-1,4.6-0.5,7.6,0.8,9.3c-3.7,3-1.5,6,1.4,7.2c-1.1,0.1-2.4,0.4-4,0.9
			C318.7,520.5,331.9,530.5,335.8,526.5z"/>
		<path class="st7" d="M275.1,686.3c-7.8,2.1-22.3,10.9-2.8,15.2C291.7,705.9,282.8,684.2,275.1,686.3z"/>
		<path class="st7" d="M253.1,534c7.4-9.7-6.9-10.4-7.7-5.5C244.6,533.4,245.7,543.7,253.1,534z"/>
		<path class="st7" d="M282.7,513.7c0.7,4.9,2.9,8.3,7.9,5.7c-0.5,1.3-0.6,2.6-0.3,3.7c-1.8,6,2,15.2,7.7,15.1
			c9.1-0.2,26.3-5.3,13.3-14.5c2.6-2.4,4.3-5.4,3.3-8.3c-0.8-2.6-2.2-5.7-3.9-8.5c4.1-1.7,4.9-6.1-3.5-15.3
			c-12-13.2-19-3.2-18.9,5.5c-2.3,0.8-4.1,2.2-4.7,4.3c0,0.2-0.1,0.4-0.1,0.6c-0.6,0.3-1.1,0.7-1.4,1.2
			C280,506.9,278.1,514.3,282.7,513.7z"/>
		<path class="st7" d="M266.7,539.5c1.1-12.4-11.6-5.1-9.6-0.5C259,543.6,265.6,551.8,266.7,539.5z"/>
		<path class="st7" d="M292.9,541.8c-10.2,6.3,2.7,11.9,5.1,7.7C300.5,545.4,303.1,535.5,292.9,541.8z"/>
		<path class="st7" d="M281.8,577.9c2.4-1.2,5.2-3.1,7.7-5.2c3.5-1.9,6.7-4.3,7.9-6.8c0.8,5.1,9.1,9.6,12.7,6.2c2-2,4.4-5.1,5.7-8.1
			c2,0.1,4.6-0.2,8-1.1c-0.7,2,0.8,3.9,7.1,4.3c10.8,0.7,7.9-7.8,3.7-10.2c5.4-7.9-9.7-18.1-15.3-12.6c-3.1,3-6.9,8.2-8.2,12.5
			c-1.5,0.1-3.4,0.5-5.7,1.1c-4.3,1.2-6.6,3-7.5,4.8c-0.5-2.6-4-5.1-12.6-6.8c-1.1-0.2-2-0.3-2.9-0.4c1.5-0.6,3.1-2.4,5-6.2
			c7.2-14.3-11.5-11.7-11.3-5.2c0.1,3.8,1.5,9.8,4,11.3c-4.9-0.1-7.7,1.5-8.9,3.9C261.1,565.2,274,581.8,281.8,577.9z"/>
		<path class="st7" d="M337,579.5c-8.3-3-25.6-4.6-17.9,7.9c-2.5,0.8-4.6,1.9-5.4,3.4c-1.7-1.5-4.1-2.4-6-1.9
			c-0.2-1.8-1-4.2-2.7-7.3c-2.7-5-5.4-6.8-7.8-6.7c-1.4-1.6-4.5-1.4-10.1,2.9c-11.3,8.6-1.3,14.4,5,13.3c-1.5,7.5-0.6,18.3,10.3,8.2
			c0.7,1.5,2.9,1.9,7.8,0.1c2.8-1.1,4.3-2.3,4.9-3.6c0.7,0.7,1.5,1.4,2.6,2.2c-1.5,2.2-2.2,4.7-0.9,6.6c1.3,1.9,3.3,4.2,5.5,5.9
			c-0.2,0.1-0.4,0.3-0.5,0.4c-4.1-0.6-9,2.3-11.6,6c-2.5-0.4-6.2,0.2-11.7,2.3c-2,0.8-3.6,1.6-5,2.5c1.6-12.5-12.3-5.8-10.6-0.7
			c0.9,2.7,3,6.5,5.2,7.8c-0.7,7.9,13.4,14.9,18.3,9.3c1.9-2.2,4-5.4,5.6-8.6c0.6,0.8,1.2,1.6,1.9,2.4c0.1,2.8,1.6,5.6,3.8,5.8
			c1.2,0.1,2.7,0.1,4.2-0.1c0.8,0.1,1.6,0,2.4-0.4c2.7-0.7,4.8-2.1,3.8-4.3c3.9,1.5,7.1-0.8,6.9-12.2c-0.1-6.4-2-9.7-4.4-11.1
			c0.4-1.6,0.5-3.8,0.1-6.8c0-0.2-0.1-0.4-0.1-0.6c1.5-0.6,2.4-1.7,3-3.1C342,598.5,344,582.1,337,579.5z"/>
		<path class="st7" d="M303.9,647c-3.1-5.3-11.6-8.9-16.1-5.8c-0.9-0.7-1.9-1.3-3-2c-10.3-6.4-15.2-2.6-16.3,2.9
			c-0.4-0.1-0.8-0.1-1.2,0c0.5-7.7-1.4-17.8-8.9-12.2c-1.2-0.5-2.5-0.7-3.8-0.4c-0.9,0.2-1.9,0.6-3,0.9c-1.2-1.6-2.4-2.9-3.7-3.9
			c2.2-0.9,3.9-2.4,4.4-4.5c1.5-6.7,1.5-18.6-3.7-19.9c1.7-2.4,2.3-5.3,0.9-7.3c-4.7-6.9-18-18.1-15.8,2.3c0.2,1.4,0.4,2.7,0.7,3.7
			c-0.3,1.8,0.6,3.2,1.9,4.1c0.9,1.1,1.9,1.7,3,2c-0.8,0.8-1.6,1.7-2.5,2.7c-4.5,5.2-5.5,9.2-4.7,12.1c-2,1.7-2.6,3.7,0.2,5.7
			c-0.1,1.3,0,2.6,0.3,3.7c-3,1.5-5.3,6.2-3.2,8.4c2,2.1,5.6,4.8,8.1,4.9c0.2,1.2,0.5,2.2,0.9,3c-1.3,0.7-2.7,1.7-4.3,3
			c-1.1,0.9-2,1.8-2.7,2.7c-1.9-5.8-6.7-4-9.2-0.8c0.6-5.6-2.7-9-15.6-3.4c-0.3,0.1-0.5,0.3-0.7,0.4c-0.6-5-3.8-10.1-8-9.9
			c-0.4,0-0.9,0.1-1.3,0.1c-2.1-11.1-9.7-26.5-18.9-4.1c-0.9,2.2-1.4,4-1.7,5.7c-2.7-1.3-5.2,0.1-5.4,8.2
			c-0.4,13.5,10.7,8.3,12.5,2.9c0,0,0,0,0.1,0c1.6,1.4,3.9,2.9,7.2,4.5c0.4,0.2,0.7,0.3,1.1,0.4c0,0.1-0.1,0.2-0.1,0.3
			c-16.6-6.4-15,19.5-5.3,20.3c5.6,0.5,14.3-0.4,18.2-3.5c-6,6.9,7.9,15.5,12.4,10.5c5.5-6,13.2-21.3-5.8-14.5
			c-2.5,0.9-4.3,1.9-5.6,3c0.7-0.9,1-1.9,0.8-3.1c0.5-0.3,1-0.6,1.4-1c3.1,0.6,6.2,0.2,7.9-1.9c2.1-2.6,4.3-6.4,5.7-10
			c0.1,0.2,0.1,0.4,0.3,0.6c2.4,3.6,8.2,8.8,10.2,5.2c3.9,2.8,11.1,2.8,12.7-1.1c0.8-1.9,1.5-4.4,1.8-6.9c5.6,0.5,13-0.3,13.1-4.4
			c1.8-0.2,3.5-0.7,4.8-1.5c-0.9,7.1,4.1,7.1,7.3,4.9c1.1,1.1,2.3,1.8,3.8,2c1.1,0.1,2.3,0.1,3.5,0c-1.4,5.9,1.6,10,15.5,5.1
			c1.5-0.5,2.8-1.1,3.9-1.7c2.7,1.3,6.1,1.5,7.5-0.6C308.6,654.3,311.9,644.5,303.9,647z"/>
		<path class="st7" d="M221.1,619.5c6.2-2,17.7-9.6,1.8-12.4C207,604.3,214.9,621.5,221.1,619.5z"/>
		<path class="st7" d="M203.3,579.3c11.2-10.4-6.3-14.3-8.4-8.4C192.9,576.7,192.1,589.7,203.3,579.3z"/>
		<path class="st7" d="M629.9,559.1c-24.9,10.4,1.8,27.5,8.7,19.1C645.6,569.8,654.8,548.8,629.9,559.1z"/>
		<path class="st7" d="M181.6,597.2c1-0.8,2.2-1.9,3.2-3.2c-2.7,9.4-3,25.2,12.2,12.5c1.2-0.2,2.3-0.5,3.3-0.9
			c6.3,4.3,12.9,4.8,10-10.8c-2.5-14-10.7-12.1-15.3-6.8c-2.8-0.3-5.7,0.2-7.6,1.6c0.7-2.7-0.9-4.7-8.2-3.4
			C164.9,588.8,177,600.8,181.6,597.2z"/>
	</g>
	<g>
		<path class="st8" d="M244.2,566.5c-9.9-15.5-14.1-5.5-14.8,3.5c-1.2,0-2.3,0.1-3.3,0.3c3-1.1,0.4-7-1.8-9.9
			c-3.1-4-15.6,3.5-4.3,8.6c2.7,1.2,4.5,1.5,5.6,1.4c-2.7,0.8-4.7,2.9-4.5,6.4c-0.8-0.7-1.6-1.3-2.3-1.9c-4.4-3.1-12.6,2.7-13.4,8.5
			c-1.7,2.2-0.5,6.8,2,8.9c1.6,3.2,7.6,5.6,8.4-0.4c0.1,0,0.1,0,0.2,0c7.7,1,11.2-0.1,12.2-2.3c6.5,6.5,9.5-1.1,10.2-8.3
			C244.8,581.8,251.4,577.7,244.2,566.5z"/>
		<path class="st8" d="M257.2,600.6c-0.3,0.8-0.4,1.4-0.6,2.1c-3.1,2.5-6.2,6.2-8,9.2c-1.7,2.8-0.3,6.5,2.3,9.5c-5,5-3,7.1,0.6,7.7
			c-0.6,0.7-1.2,1.6-1.6,2.8c-1,0-2.1,0-3,0.1c-7,0.6-8.9,16.8-0.4,17.8c3.2,2.5,8,3,9-2.7c1.2-0.6,2.5-1.7,3.8-3
			c2.9-2.4,4.2-4.4,4.4-6c0-0.1,0.1-0.2,0.2-0.3c1.6-3-1.2-7.1-4.7-9.1c1.4-0.4,2.3-1.6,2.7-3.2c2.9-1.1,5.3-4.6,5.7-12
			c0.1-1.8,0.1-3.4,0-4.8c1.4-0.9,2.6-1.9,3.6-2.8C276.7,600.8,263.5,582.6,257.2,600.6z"/>
		<path class="st8" d="M225.4,618.3c-1.4-2.7-2.8-3.7-4-3.6c-3.5-3.6-9.5-4.7-10.6,5.3c-0.2,2-0.2,3.7-0.1,5c-2.2,2.2-3.6,5-3.2,7.7
			c-0.7-0.6-1.6-0.9-2.7-1.1c2.9-7.7-6.3-24-16.9-7.3c-5.5,8.7-4.8,12.5-1.5,13.7c-6.2,7.5,6.3,31.1,18.6,9.6
			c3.2-5.6,4.3-9.4,4-11.9c1.6,1.9,4.6,3.6,9.6,4.5c14.7,2.6,15.4-2.9,12.1-8.8c1.8-0.8,3.2-3,3.5-7.5
			C234.8,612.1,229.5,614.2,225.4,618.3z"/>
		<path class="st8" d="M167.2,620.9c-2.1,7.2,17.9,15.7,14.1-2.4C177.6,600.4,169.3,613.8,167.2,620.9z"/>
		<path class="st8" d="M185.1,599.6c-2,11.8,6.2,5.7,9.1,1.9c1.2-1.6,0.2-4.2-1.5-5.9c6.6-0.7,1.1-7.7-2.6-10.5
			c-4.2-3.2-14.5,7.4-3.1,10C186.1,596,185.5,597.4,185.1,599.6z"/>
		<path class="st8" d="M205.2,563.5c5.2-11.7-4.9-7.5-8.9-4.3C192.2,562.3,200.1,575.2,205.2,563.5z"/>
		<path class="st8" d="M247.9,538.4c-12.9-18.6-15.9,0.5-14.8,9.6C234.2,557.1,260.8,557,247.9,538.4z"/>
		<path class="st8" d="M296.9,663.5c-11.5,13.1,3.3,11.8,9.8,9.3C313.3,670.3,308.4,650.4,296.9,663.5z"/>
		<path class="st8" d="M379.6,646.7c-6.4,13.2,5.3,8.9,10.1,5.3C394.5,648.5,386,633.5,379.6,646.7z"/>
		<path class="st8" d="M242,527.7c5.1,1.2,10.5-13.1-2.2-9.9C227.2,521.1,236.9,526.5,242,527.7z"/>
		<path class="st8" d="M265.4,531.8c10.1-6.1,9.9-10.2,6.2-12.7c0.9-1.9,1.7-3.8,2.2-5.5c0.2-0.7,0.2-1.5,0.1-2.2
			c1.8-3.4-3.5-9.8-7.4-7.7c-6.2-2.5-13.5-0.6-10.9,12.7C247.3,519,246.6,543.3,265.4,531.8z"/>
		<path class="st8" d="M285.6,515.6c-2.6,11.6-0.2,15.3,3.8,15.2c0.5,0.5,1.1,1,1.6,1.4c2.5,1.9,7.4-1.9,7.1-5.1
			c2.7-1.9,5.3-4.3,7.1-6.3c4.4-5.1-2.4-16-9.4-16.8c0-0.1-0.1-0.3-0.1-0.4c-2.1-6-20-2.1-9,8.5
			C286.3,513.2,285.9,514.3,285.6,515.6z"/>
		<path class="st8" d="M285.3,545.1c1,0.5,1.8,0.8,2.6,1.2c0,1.6,0.4,3.5,1.2,5.8c0.7,1.9,1.3,3.4,2,4.6c-0.1,0.7-0.2,1.5-0.3,2.4
			c-1,15,8.4,6.4,11.7,1.2c0.9-1.5,0.4-3.4-0.8-5.1c1.1-2.5,2-5.3,2.3-7.6c0.3-1.7-0.5-3.2-1.9-4.5c0.1-0.4,0.1-0.7,0.2-1.1
			c1.1-10.9-4.5-8.1-8.2-4.2c-0.8-1.7-1.7-3.2-2.6-4.4C287.4,527.6,269.8,537.6,285.3,545.1z"/>
		<path class="st8" d="M322,573.4c2.6-11-5.5-5.8-8.5-2.3C310.5,574.5,319.4,584.4,322,573.4z"/>
		<path class="st8" d="M284.3,583.2c-0.5-0.3-1.1-0.6-1.6-0.8c0.3-2.7-0.2-5.5-1.7-7.4c3.2-4.2,4.4-10.3-0.7-13
			c0.5-4.3-2.1-8.3-10.9-5.6c-6.9,2.1-8.8,4.5-8.2,6.7c-4.6,2.4-3,6.2,0.6,9.6c0,2.4,0.4,5.2,1.1,7.2c-8.1,7.8,1.9,10.8,9.9,11
			c0.1,0.8,0.4,1.5,0.9,2.2c-2.8,3.5-0.2,5.4,3.6,6.3c0.7,7.1,12.5,2.2,18.1-1.9C301.5,592.9,292.9,575.7,284.3,583.2z"/>
		<path class="st8" d="M299.1,604.6c-5.1-5.1-23.4,4-7.4,13.3c0.5,0.3,0.9,0.5,1.4,0.8c0.3,1.5,0.6,2.9,1,4.1
			c2.8,9,29.6,3.9,13.1-12.4C303.8,607.1,301.2,605.3,299.1,604.6z"/>
		<path class="st8" d="M331.3,619.5c5.1-4.6,7-13.2-7-14.5c-19.1-1.8-11.9,8.8-5,14.7c-1.9,2.4-3.4,5.5-4.3,7.9
			c-2.2,6.1,10.5,13.9,14.7,7.4c5,2.1,13.1,0.1,7.2-9.7C334.7,621.4,332.8,619.8,331.3,619.5z"/>
		<path class="st8" d="M344.8,610.6c-15.8-4.6-8.8,7.5-4,12.1C345.6,627.3,360.6,615.2,344.8,610.6z"/>
		<path class="st8" d="M363.2,601c-4.8-3-14.3,7.3-7.4,11.4c-3.3,11.5,7.1,6.2,11.3,2.4c0.3-0.3,0.6-0.7,0.7-1.1
			C375.6,612,368,604,363.2,601z"/>
		<path class="st8" d="M357.7,534.9c-1.3,1.5-1.6,3.4-1.2,5.5c-4.1,0.8-7.9,5.9-8.5,10.6c-0.8-1.8-2.4-3.5-4.3-4.9
			c1.6-3.3,2.5-5.9,3-8c2-1.7,1.6-7.5,0.6-10.9c-0.3-0.9-1-1.6-1.9-2.1c8.5-0.7,19.6-17.1-1.1-19.1c-4-0.4-6.8-0.2-8.9,0.3
			c-0.5-0.3-0.9-0.7-1.5-1c-12.3-6.7-8.7,4.6-5.6,9.4c0.9,1.4,2.9,1.7,4.9,1.3c2.3,3.2,5.8,6.4,8.7,8.3c0.1,0,0.2,0.1,0.2,0.1
			c-3.8,0-7.8,2.3-5.6,6.8c-2,0.6-4,1.4-5.9,2.4c2.4-1.9,4.6-4.9,5.9-7.3c3.5-6.4-13.8-18.8-14.1-0.7c-0.1,8.3,2.1,10.5,4.9,9.8
			c-0.6,0.4-1.2,0.7-1.7,1.1c-4.6,3.3-2.5,12.4,2.1,16.7c0,1.6,0.2,3.3,0.6,5.3c2.1,10.5,5.4,13.5,8.7,12.7c0.2,0.2,0.4,0.3,0.5,0.5
			c-0.1,0-0.2,0-0.3,0c-8-1-6.8,2.7-4.2,5.7c-0.2,0.3-0.5,0.6-0.7,1c-2.1,3.2-2.7,5.2-2.3,6.4c-2.2-2.7-6.1-3.3-10.3,3.1
			c-0.4,0.7-0.8,1.2-1.1,1.8c-0.8-0.2-1.8-0.3-2.9-0.3c3.7-1.8,6.7-7.8-2-9c-11.8-1.6-5.5,6.3-1.6,9.1c0,0,0.1,0.1,0.2,0.1
			c-11.3,1.2-2.6,9.2,2.5,11.8c2.3,1.2,5.5-0.8,7.2-3.4c2.7-0.3,5.9-1.4,8-2.6c2.8-1.5,2.6-6.4,0.7-9.6c1.9,1.4,6.9,0,9.7-1.5
			c0.5-0.3,0.8-0.6,1.1-1.1c0.3,1.4,1.1,3.1,2.7,5.1c9.9,12.3,11-1.1,9.8-7.3c-0.4-2.1-2.9-3.4-5.5-3.6c7.3-1.3,15.2-13.7,6.1-18.4
			c1.8,0.3,4.1,0.2,6.8-0.2c11.7-1.9,13.4-5.7,11.1-9.4c1.8-1.8,3.4-4.8,4.4-9.5C382.5,514.8,364.4,527,357.7,534.9z M342.2,579.8
			c-0.1-0.6-0.3-1.1-0.5-1.7c0.6-0.8,0.9-1.6,0.9-2.4c0.7,0.5,1.5,0.9,2.2,1.3c0.5,0.3,1.1,0.4,1.6,0.5
			C344.6,577.7,343,578.5,342.2,579.8z M347.9,557.4c0.2-0.7,0.5-1.4,0.7-2c0-0.1,0-0.2,0-0.4c0.5,1.1,1.3,2.1,2.5,2.8
			C350.1,557.6,349,557.5,347.9,557.4z"/>
		<path class="st8" d="M371.1,496.6c-9.4-10.3-9.7,1.5-8.3,7C364.2,509.1,380.5,507,371.1,496.6z"/>
		<path class="st8" d="M333,488.7c-1.1,3.1-1.4,7.6-1,10.6c0.8,6.9,19.2,7.6,14.1-4.3c3.1,1.4,6.6,0.4,6.9-6.8
			c0.4-12-5.6-7.9-9.3-3.3c1.5-2.6,0.9-6.2-4.7-10.5c-15.4-11.9-12.9,4.4-9.7,11.6C329.9,487.5,331.3,488.3,333,488.7z M343,485.9
			c-0.4,0.6-0.8,1.1-1.1,1.6c-0.1,0.3-0.2,0.5-0.3,0.8c-0.2-0.3-0.5-0.6-0.7-0.8C341.7,487.1,342.4,486.5,343,485.9z"/>
		<path class="st8" d="M366.1,467c-0.7,3.1-0.8,6.8-0.4,9.6c0.9,7.1,18.5,8,16.3-2.4c1.6-0.5,3.2-1.6,4.5-3.1
			c0.3,0.6,0.5,1.2,0.8,1.8c-2.7,1.4-5.7,5.3-7.1,8.3c-3,6,13.3,16.6,12.8,0.1c-0.1-2.6-0.4-4.5-0.9-5.9c4.5-0.5,9.6-5,2.8-9.9
			c5.1,1.4,14.2-3.3,4.8-10.7c-3.7-3-6.1-3.7-7.5-3.1c1.3-3.3-0.2-7.3-7.7-10.9c-16.9-8.1-14.8,3.3-10.5,11.3
			c-3.3,0.5-6.9,3.3-7.2,6.4C362.6,461,363.3,464.2,366.1,467z M390.8,454c-0.5,2.7,0.4,6.8,1.6,9.4c0.1,0.2,0.3,0.5,0.4,0.7
			c-1-0.6-1.9-1-2.7-1.3c0.2-2.5-0.6-4.8-2.7-6.3C388.7,455.9,389.9,455,390.8,454z"/>
		<path class="st8" d="M403.2,450.2c4.9,0.5,9.3-2.7,6.7-13c-5.3-21.3-14.6-5.1-16.7,3.5c-0.2,0.9-0.1,1.8,0.2,2.6
			C392.5,448.5,396.4,456,403.2,450.2z"/>
		<path class="st8" d="M406.6,493.3c-3.9-3.7-12.8,4-16.6,9.5c-4.3,6,6.8,18.4,13.7,13.3c2.8,1.4,5.8,2.5,8.3,3.1
			c3.3,0.8,6.5-1.7,8.6-5.2c1.1-0.3,2.2-0.8,3.2-1.4c0,0.5,0.1,1.1,0.3,1.6c-1.3,0.4-2.6,0.9-3.6,1.5c-5.6,2.9,1,20,9.7,7.2
			c0.7-1.1,1.3-2,1.7-2.9c1.4,0.3,3,0.5,4.9,0.6c25.3,0.9,10.3-14.5,1.4-19.7c-3.3-1.9-7.9,0.2-11,3.7c-0.4-1.2-1.1-2.5-2.3-3.9
			c4.8,0.7,9.3-2.5,9.4-13.4c0-0.9,0-1.5-0.1-2.3c4.3-0.9,7.9-5,0.9-10.3c-5.4-4.1-7.8-3.5-8.5-1.1c-0.9,0.3-1.7,0.8-2.6,1.4
			c-0.1-0.9-0.3-1.8-0.5-2.6c-1.3-4.3-14.3-2-6.4,5.9c0.6,0.6,1.2,1.1,1.7,1.5c-1.9,2.2-3.5,4.6-4.6,6.6c-1,1.9-0.8,4.2,0.3,6.3
			C410.2,490.5,407.8,491.2,406.6,493.3z"/>
		<path class="st8" d="M422.9,572.5c-10.1,12.1,3.3,10.6,9.1,8.1C438,578.2,433,560.4,422.9,572.5z"/>
		<path class="st8" d="M441.8,592.2c-7.2,5.3,5.5,28,15.2,8.1C466.6,580.3,449,586.9,441.8,592.2z"/>
		<path class="st8" d="M468.4,568.4c-0.1,0.1-0.1,0.2-0.2,0.3c-0.6-0.9-1.3-1.8-2-2.5c0.5-1.9,0.6-3.8,0.3-5.7
			c4.4-0.6,1.5-8.4-1.1-12.1c-1.6-2.4-5.9-1.8-8.6,0.2c-2.5-2.1-7.9-1.2-12.8,0.7c-0.2-0.8-0.4-1.6-0.6-2.3
			c-1.2-3.7-8.3-3.9-11.5-1.1c-0.4,0.1-0.9,0.3-1.4,0.6c-0.7-0.2-1.3-0.3-1.9-0.4c1.3-7.1-0.2-10.1-2.9-10.8c4.1-3.7-3.9-7.2-8.5-8
			c-3.7-0.6-7,6.1-5,9.5c-1.3-0.9-3-1.7-5.2-2.5c-0.7-0.2-1.3-0.4-1.9-0.5c0.1-3.8-0.7-8.3-1.8-11.4c-3-8.7-29.3-3-12.5,12.6
			c1.8,1.7,3.3,2.8,4.7,3.8c1,3.5,3.8,7.6,6.3,10.1c1.4,1.5,3.7,1.6,6,1c1.2,7.4,10.9,16.2,17,7.2c0.7,2.7,1.8,5.4,2.9,7.5
			c1.3,2.4,4.5,3.2,7.8,2.8c0.6,0.5,1.4,0.8,2.5,0.7c2,2.4,4.8,3.8,8,2.7c3.6,1.8,8.9,2.7,12.7,2.8c0.9,0.6,2.1,1.2,3.7,1.6
			c2.1,0.6,3.6,0.8,4.8,0.7c2.3,7.4,11.7,14.4,17.4-0.8C492.6,554,475.3,562.4,468.4,568.4z M415.8,538.8c-0.3,0.2-0.7,0.5-1,0.7
			c-0.2-0.4-0.4-0.8-0.7-1.1C414.5,538.6,415.1,538.7,415.8,538.8z"/>
		<path class="st8" d="M501,502.2c-0.4-2.9-1.1-4.7-1.8-5.8c3-7-9.3-22.6-16.1-4.7c-3.2,8.3-2,11.7,0.8,12.4
			c-1.8,0.4-3.5,0.8-4.9,1.4c-5.5,2.1-4.5,13.7,0.9,16.4c-0.4,0.3-0.8,0.7-1.1,1c-2.7,2.6-1,8,2.2,11c-4.3,0.9-6.9,10.2-1.6,11.8
			c-1.5,0.5-3.1,1.9-4.8,4.7c-7.9,13,4.6,9.6,9.9,6.5c3.3-2,1.6-9.3-2.1-11c1-0.1,2.2-0.4,3.5-0.9c10-3.9,6.9-7.5,2-9.5
			c1.8-1,3.6-3.2,4.9-7.3c1.6-4.9,1.7-7.9,1-9.6c0,0,0-0.1,0-0.1c0.8-1.3,0.6-3-0.1-4.5c1.1-1.5,1.8-2.8,2.2-3.9
			C498.9,510.7,502,509,501,502.2z M490.4,503c-0.1,0.2-0.1,0.3-0.2,0.5c0,0,0,0.1,0,0.1c-0.5,0-0.9,0-1.4,0
			C489.3,503.4,489.8,503.2,490.4,503z"/>
		<path class="st8" d="M459.2,487.8c-0.2,1.2-0.3,2.4-0.3,3.4c0,5.8,15.9,7.9,11.1-3.5c4.6-2.3-1.7-8.7-5.9-11.3
			C459.4,473.5,449.8,484.8,459.2,487.8z"/>
		<path class="st8" d="M471.3,469.2c-0.1,0-0.2,0.1-0.2,0.1c-6.5,2.6-1.3,22.4,10,9.1c0-0.1,0.1-0.1,0.1-0.1
			c9.8,2.7,12.4,0.1,11.7-3.9c3.1-3.6,1.9-13.5-0.2-19.2c-0.4-1.1-1.2-2-2.2-2.7c0.8-21.5-14.1-8.2-19.3,0c-1.8,2.8-0.5,6.8,2.2,9.9
			c0.2,0.6,0.6,1.1,0.9,1.7C472.8,465.5,471.6,467.3,471.3,469.2z"/>
		<path class="st8" d="M486.4,439.5c7,6.4,8.1,1.7,7.6-2.9c2.2,2,6.9,2.4,8.4-0.3c0.3,0.7,0.6,1.3,1.1,1.7
			c-12.8,11,2.2,13.4,11.1,12.6c1.7,1.1,4,1.8,6.3,2c0.6,0.4,1.1,0.7,1.7,1c0.4,0.2,0.8,0.3,1.2,0.3c0.8,4.2,10.1,6.4,15.7,6.5
			c1.3,0,2.5-0.6,3.5-1.5c0.9,0.7,1.9,1.3,2.7,1.8c4.5,2.4,12.8-9.6,0.8-9.8c0.3-5.8-3.4-11.1-14.1-5.7c-0.5,0.3-0.9,0.5-1.3,0.7
			c0.1-2.5-1-5.7-4.1-9.7c-6.3-8.1-10.2-9-12.5-6.6c-0.8-1.4-1.8-1.8-2.9-1.5c-2.3-0.3-5.5,0.4-7.6,1.3c-0.9,0.3-1.4,1.1-1.7,2.1
			c-0.2-0.4-0.4-0.9-0.6-1.4c-5.1-9.6-7.9-2.8-8.5,2.3C490.7,428.3,477.6,431.5,486.4,439.5z"/>
		<path class="st8" d="M463.9,432.2c16.5,2.5,7.8-8.8,2.4-12.8C460.8,415.4,447.4,429.7,463.9,432.2z"/>
		<path class="st8" d="M470.2,421.4c0.2,0.1,0.5,0.2,0.7,0.2c0.3,2.9,2.9,5.4,9.7,6c19.6,1.8,8.6-10.8,1.9-15.2
			c-1-0.7-2.2-0.8-3.5-0.5c-0.8-2-3.3-3.6-8.5-3.5C453.9,408.5,464.2,418.3,470.2,421.4z"/>
		<path class="st8" d="M512.2,421.9c0.8-0.5,1.3-1.4,1.5-2.4c1.7,0.4,3.7,0.4,5.7,0c7.1,3.8,19.9,1.9,12.1-13.4
			c-2.4-4.8-4.6-7.4-6.5-8.6c0.2-0.3,0.4-0.6,0.5-1c4.3-9.9-4.2-6.3-7.6-3.6c-1,0.8-1.1,2.2-0.7,3.6c-0.3,0.3-0.5,0.5-0.8,0.8
			c-0.2,0.2-0.2,0.3-0.3,0.5c-13.4-6.5-11.9,6.1-8.3,15c-1.1,0.5-2.3,1.6-3.6,3.6C497.5,427,507.8,424.4,512.2,421.9z"/>
		<path class="st8" d="M514.3,459.3c-8-3.6-21,18.3,0.5,16.8C536.4,474.6,522.2,462.8,514.3,459.3z"/>
		<path class="st8" d="M541,470.1c-3.8,1-6.5,4.4-0.7,9.8c6.6,6.1,8.6,3.2,8.6-1c1.1,0.2,2.2,0.4,3.6,0.5
			c23.3,1.6,9.9-13.1,1.9-18.1C549.9,458.5,542.3,464.3,541,470.1z"/>
		<path class="st8" d="M524,483.4c-19.9-15.3-16.6,5.8-12.4,15C515.8,507.7,543.9,498.7,524,483.4z"/>
		<path class="st8" d="M548.3,484.7c-3.2-2.7-11.2,3.8-6.3,7.5c-2.1,2.3-4,5.4-5,7.9c-0.3,0.8-0.4,1.6-0.2,2.4
			c-2.8,4.5,0.7,6.2,5.1,6.4c3.9,2.2,8.9,2.2,10.3-3.7c0.7-1.9,0.8-4.2,0.2-6.3c-0.2-1.9-0.5-3.5-0.8-4.8
			C555.1,492.8,551.1,487.2,548.3,484.7z"/>
		<path class="st8" d="M555.3,505.9c0.9,5.6,17.5,5.1,9-6.2C556,488.3,554.5,500.3,555.3,505.9z"/>
		<path class="st8" d="M527.5,524.7c0.4-3.9-0.6-5.8-2.4-6.6c-0.3-0.7-0.7-1.4-1-1.9c-3.4-5.7-18.7,0.1-13.7,8
			c-0.5,0.4-1,0.9-1.4,1.3c-2.7,2.6-1.6,7.6,1,11.3c0,0.1,0.1,0.3,0.1,0.4c-0.1,0-0.3,0-0.4,0c-2.9-0.1-5.3,2.6-6.5,6
			c0,0-0.1,0-0.1,0c-1.6-0.4-3.2,0.7-4.2,2.3c-4.1-1.3-8.4,0.4-7.3,9.3c0.1,1,0.3,1.9,0.4,2.7c-3.5,4.4-3.4,14.4,8,9.6
			c9.5-4.1,7.4-7.5,3-9.5c0.7-1.2,1.3-2.4,1.8-3.6c2.2,1.8,6.1,2.1,12.2-0.9c12.1-6.1,10.2-10.5,4.9-13.2c0.6-0.6,1.3-1.3,1.9-2.2
			c3.2-4.1,4.2-6.9,4-8.7C528,527.8,527.8,526.3,527.5,524.7z"/>
		<path class="st8" d="M534.9,545.4c11.3,7.2,8.6-3.9,5.9-8.6C538.2,532.1,523.6,538.2,534.9,545.4z"/>
		<path class="st8" d="M561.7,533.1c0.2-1.2,0.4-2.5,0.4-4.1c0-16-7.4-11.6-12.4-5.5c-6.5-1.4-14,1.9-7.6,13.7
			c6.2,11.3,10.3,9.3,12.6,4.1c1.2,4.6,8.4,9.5,10.5-0.8C566.6,533.3,564.5,532.1,561.7,533.1z"/>
		<path class="st8" d="M571,545.9c-6.3,2.7-0.6,22,10,8.7C591.7,541.2,577.3,543.2,571,545.9z"/>
		<path class="st8" d="M578.4,525.4c-0.2-1.8-0.6-3.6-1.1-4.9c-1.9-5.2-17.5-1.5-7.4,7.6c3,2.7,5,3.5,6.3,3.3c0.3,0.9,0.8,2,1.5,3.2
			c7.7,12,10,0.1,9.6-5.7C587.1,525.7,581.7,524.1,578.4,525.4z"/>
		<path class="st8" d="M597.7,515c-3.4,2.5-5.5,10.4-5.8,15.5c-0.6,9,24.4,13.8,17.1-5.2c1.6-1,3.1-2.1,4.3-3.1
			C619.9,516.4,605.7,495.3,597.7,515z"/>
		<path class="st8" d="M620.2,513.3c-0.1,4.6,13.2,6.5,8.1-3.7C623.2,499.4,620.3,508.7,620.2,513.3z"/>
		<path class="st8" d="M603.3,489.2c0-0.5-0.1-0.9-0.2-1.3c0.9,2.5,3.3,5.1,8.2,7.7c21.8,11.4,15-8.4,9.4-16.6
			c-4.2-6.1-19.6-0.1-17.9,8c-0.9-1.8-2.7-3.3-4.9-4.2c1.9-1.7,3.2-4.5,3.7-7.4c0.5,0,0.9,0.1,1.4,0.1c16.1,0,6.2-9.5,0.4-12.5
			c-2-1-4.5,0.1-6.4,2.1c0,0-0.1,0-0.1,0c1.2-2,0.1-4.9-1.9-7c4.2-1.3,7.2-5.3,0.3-11.4c-12.1-10.6-10.9,3-8.6,9.1
			c0.1,0.2,0.2,0.3,0.3,0.5c-1.4,1.1-2.6,3.3-3,7.2c-0.2,1.9-0.2,3.4-0.1,4.6c-13.9,7.6-7.4,12.7,0.9,15.1c-1.6,0.6-2.6,1.8-2.4,3.8
			c-0.1,0-0.2-0.1-0.3-0.2c-2.9-1.3-6.8,2.4-7.4,5.9c-2.2,1.1-3.9,4-4.5,9.5c-2.2,20.6,11.2,9.2,15.9,2.3c1.3-2,0.7-4.7-0.8-7.1
			c0,0,0.1,0,0.1,0c0.1,0.1,0.1,0.3,0.2,0.4C597.6,519.7,603.3,499.3,603.3,489.2z"/>
		<path class="st8" d="M609.6,464.6c2.9,6,21.2-0.5,7.9-10.1C604.2,444.9,606.7,458.6,609.6,464.6z"/>
		<path class="st8" d="M626.2,437.1c0.8-0.8,1.5-1.7,2.1-2.4c0.7-0.9,0.8-2.1,0.4-3.3c1-1,1.9-2.7,2.4-5.3c2.7-13.7-7-6.8-10.5-2.5
			c-0.5,0.7-0.7,1.5-0.6,2.3c-1.5,0.9-2.7,2.9-3.2,6.7c-0.9,6.3,0.4,8.5,2.4,8.6c-0.3,0.4-0.5,0.7-0.8,1.1
			c-8.7,14.3,5,10.6,10.9,7.2C633.1,447.2,630.8,438.4,626.2,437.1z"/>
		<path class="st8" d="M645.7,440.6c3.1-1.4,5.3-2.8,6.7-4.1c2.8,1.4,6.5,2.3,9.3,2.5c4.8,0.4,8.2-8.2,5.7-12.5
			c2.5,1.1,6.4,1,10.2,0.2c3.2,0.1,6.5-0.3,9-0.8c8.3-1.8,7.7-22.3-3.5-20.4c-2.4-1-5.5-0.5-9.2,2.6c1-2.7-1.6-8.1-3.9-11
			c-3.9-5-19.6,4.6-5.3,10.9c3.8,1.7,6.2,2,7.7,1.6c-0.7,0.7-1.3,1.3-2,2.1c-5.4,6.6-6.5,10.6-5.3,12.9c-1.9-0.8-4.7-0.7-8.7,1
			c-2.1,0.9-3.8,1.8-5,2.7c-3.6-2.5-9.7-4-13.9-4.4c-7.6-0.6-12.7,16.3-3.7,19c-1.6,4.5,1.4,12.7,9.1,5.4
			C647.5,444,647.5,441.7,645.7,440.6z"/>
		<path class="st8" d="M597.3,412.2c1.5,1.2,3.7,2.3,5.3,2.7c0.7,0.2,1.5,0,2.2-0.5c-1.3,3.2,5.4,5.6,9.3,6.1
			c5.5,0.6,9.2-15.1-3.6-10.1c-1.5,0.6-2.7,1.2-3.6,1.8c1.5-2.6,1.2-6.1-3.4-6.2c-0.1-2.1-1.5-4.7-5.2-7.6
			c-14.7-11.6-12.5,4.2-9.4,11.1C590.2,412.2,593.9,413,597.3,412.2z"/>
		<path class="st8" d="M620.9,388.9c0.3,3.6,1.3,7.4,2.4,10.2c1.1,2.7,4.2,4,7.6,4.2c-4.2,15,12,8.2,19,2.7
			c4.4-3.4,1.5-12.7-3.6-16.1c-0.4-1-1.4-1.9-2.5-2.6c5.4-1.1,5-5,2.4-9.2c3.8-2.4-2.2-6.8-6-8.3c-0.6-0.2-1.2-0.2-1.8-0.1
			c-0.2-0.1-0.3-0.3-0.5-0.4c-4-2.9-11,1.2-13.5,6.3c-1.7,0.7-3.4,1.6-4.6,2.5C617,380.3,618.1,385.9,620.9,388.9z"/>
		<path class="st8" d="M671.8,533.1c0,0-0.1-0.1-0.1-0.1c4.8-1.9,7.3-6.9,0.2-15.6c-13.9-17-16.2-1-15,8.9
			c-7.3,2.4-14,16.5-2.4,19.3c-0.3,0.5-0.6,0.9-0.9,1.4c-3.8,7.6-2.8,10.6,0,11.3c0.6,2,3,1.5,5.3,0.4c-0.5,1.7-0.9,3.7-1,6.2
			c-1.3,25.2,14.3,10.4,19.5,1.7c2.4-4-1.2-9.9-5.9-12.7c3.7-1.6,7.1-5.5,8.1-9.5c0.6-0.6,1.1-1.3,1.7-2.1
			C691,528.7,678.7,530.2,671.8,533.1z"/>
		<path class="st8" d="M667,499.3c4.9-6.8-13.1-23.3-15.9-2.7C648.3,517.2,662.1,506.1,667,499.3z"/>
		<path class="st8" d="M681.1,375.1c11.6,2.7,6-5.8,2.4-8.9C679.9,363.1,669.6,372.4,681.1,375.1z"/>
		<path class="st8" d="M681.2,381.3c-1.4-4.7-15.4-2.3-6.9,6.3C682.7,396.3,682.6,386,681.2,381.3z"/>
		<path class="st8" d="M656.9,414.6c4.4,1.6,10.6-10.6-0.9-9C644.4,407.2,652.4,413,656.9,414.6z"/>
		<path class="st8" d="M693.2,495.5c1.2-0.8,2.4-1.7,3.2-2.5c1.6-1.6,0.9-4.6-0.7-6.7c0-1,0-2-0.1-2.9c3.1,1.5,6.7,2.5,9.5,3
			c7.2,1.2,13.5-12.8,8.1-18.3c0.9-2.3,0.1-6.5-0.9-9.1c-1.9-4.9-16.4-1.3-7.5,7.1c-1.6,0.2-3.3,0.5-5.3,1.2
			c-5.5,1.8-8.6,3.7-10.2,5.5c-4.2-1.2-9.7-0.3-12.4,2.7c-0.2,0-0.4,0-0.7,0c0.6-2.6,0.7-5.6,0.5-7.8c-0.2-2.2-2.3-3.7-4.8-4.4
			c0.3-1.3,0.5-2.3,0.6-3.3c1.3,0.6,3.2,0.6,6-0.3c4.8-1.6,6.2-3.4,5.8-4.9c14.4,0.9,8.4-7.8,2.7-12.5c5.4-3.1,9.3-13.7-4.4-13.2
			c-6.9,0.3-9.3,1.9-9.4,4c-1.8,1.5-2.8,4.5-1.7,9.9c0.7,3.4,1.5,5.7,2.5,7.2c-1.7,0.8-3,2.9-3.3,5.1c-1.6-0.6-3.8-0.2-6.2,0.8
			c-1.9-14.2-14-2.3-18.3,5.1c-3.7,6.3,8,17.4,14.5,12.5c1.3,0.7,2.7,1,4.1,0.5c0.1,0.2,0.2,0.3,0.3,0.5c1.7,2.5,3.1,4.1,4.3,5.1
			c-1,2.5-0.3,6.1,3.5,11.1c6.8,8.7,10.7,8.4,12.7,4.9c0.6,2.3,3,2,5.5,0.9C692,496.5,692.6,496.1,693.2,495.5z"/>
		<path class="st8" d="M781.4,448.7c-0.5-5-13.8-5.8-10.5,2.8c-1.1-0.2-2.3-0.3-3.7-0.3c-2.1,0-3.7,0.1-5.1,0.4
			c-0.2-0.9-0.6-1.8-1.2-2.9c1.8-1.6,2.9-5.9,3.1-8.7c0.2-2.9-4.4-5.1-7.6-4.3c-0.4-1.1-1.1-2.1-2-3c0.9-3.2-0.8-4.4-3.4-4.4
			c-1.2-2.7-4.4-5.1-11-6.2c-1.3-0.2-2.5-0.4-3.6-0.5c0.6-0.9,1-2,1-3.3c0.4-1.6,0.2-3.2-1.1-4.3c-0.5-1-1-2.1-1.8-3.2
			c-10.9-16.7-14,0-13.3,8c0.2,2.4,2.5,4.1,5.2,4.9c-3.1,4.2,4.2,13.1,9.6,17.3c1.6,1.3,3.8,1.3,6.1,0.7c-0.4,1.5-0.5,3.3-0.4,5.3
			c-1,0.4-2,0.7-2.8,1.1c-1.2,0.5-2,1.5-2.6,2.6c-9.2,0.5-4.3,9.2,0.8,14.7c-0.4,0.1-0.6,0.4-0.9,0.7c-4.3-3.5-10.3-3.3-14.1,7.9
			c-0.4,1.2-0.7,2.3-1,3.4c-5.2,0.5-9.4,8.4-8.5,14.3c-7.5,3.1,1,8.4,5.9,9.9c2.3,0.7,4.8-1.5,6-4.2c1.2-0.3,2.5-0.6,4-1.2
			c13.5-4.9,13.2-9.8,8.5-13.4c1-0.7,1.9-1.5,2.7-2.2c1-1,1.5-2.3,1.6-3.8c3.7-0.3,7.5-3.4,2.5-8.2c1.5-0.2,3.1-0.9,4.6-1.8
			c2.5,3,8.6-0.9,12.6-4.8c1.8,1.6,3.9,3.1,5.6,4c3.7,2,9-2.5,10.2-7C780.6,460.3,781.8,452.8,781.4,448.7z"/>
		<path class="st8" d="M749,411.5c-10.2,12,3.1,10.6,9,8.3C764,417.4,759.2,399.5,749,411.5z"/>
		<path class="st8" d="M750.9,394.4c7.5,13.5,12.1,9,14.2,1.9c1-0.3,2-0.8,3.1-1.4c20.8,0.1,7.6-13.4-0.3-18.1
			c-2.9-1.7-6.8,0-9.7,2.9C751.5,378.7,744.1,382.4,750.9,394.4z"/>
		<path class="st8" d="M746.5,378.4c14.9,0.9,6.2-8.4,1.1-11.5C742.5,363.8,731.7,377.5,746.5,378.4z"/>
		<path class="st8" d="M698,521.8c-12.4,6.9-0.7,9.9,5,9.8C708.7,531.5,710.4,514.9,698,521.8z"/>
	</g>
</g>
</svg>
