<?xml version="1.0" encoding="utf-8"?>
<!-- Generator: Adobe Illustrator 24.0.2, SVG Export Plug-In . SVG Version: 6.00 Build 0)  -->
<svg version="1.1" id="Layer_1" xmlns="http://www.w3.org/2000/svg" xmlns:xlink="http://www.w3.org/1999/xlink" x="0px" y="0px"
	 viewBox="0 0 840 720" style="enable-background:new 0 0 840 720;" height="720" width="840" xml:space="preserve">
<style type="text/css">
	.st0{fill:#D1ECF6;}
	.st1{fill:#E8F6FB;}
	.st2{fill:#FFFFFF;}
	.st3{fill:#FCDF00;}
	.st4{fill:#FBB315;}
	.st5{fill:#F58B1F;}
	.st6{fill:#FFF9DA;}
	.st7{opacity:0.67;fill:#FFFFFF;}
	.st8{opacity:0.8;fill:#F7FBFF;}
	.st9{opacity:0.64;fill:#FFFFFF;}
	.st10{fill:#67CADE;}
	.st11{fill:#F27244;}
	.st12{fill:#EF4D43;}
	.st13{fill:#6ABC45;}
	.st14{fill:#446730;}
	.st15{fill:#589642;}
	.st16{fill:#AED036;}
	.st17{fill:#4C7D50;}
	.st18{fill:#FFF0A4;}
	.st19{fill:#FFC21C;}
	.st20{fill:#E8E75E;}
</style>
<g>
	<g>
		<g>
			<path class="st0" d="M670.4,133.4c-8.5-1.4-17.5-2.6-26.8-3.6c-14.6-1.5-29.9-2.3-45.5-2.3c-80.9,0-149.7,26.6-149.7,48.3
				c0,1,48.3,448.4,48.3,448.4c0.1,1.3,0.4,2.7,0.9,4.1c0.4,1.1,0.9,2.1,1.5,3c1.7,2.9,4.3,5.7,7.6,8.1c2.2,1.6,4.8,3.2,7.5,4.8
				c3.7,2,8,3.8,12.7,5.6c2.3,0.7,4.8,1.6,7.4,2.3c2.6,0.7,5.2,1.5,7.9,2.1c2.7,0.7,5.5,1.3,8.4,1.9c4.3,0.9,8.8,1.6,13.3,2.2
				c3.1,0.4,6.2,0.7,9.2,1.1c1.6,0.1,3.2,0.4,4.8,0.5c3.6,0.2,7.2,0.4,10.8,0.6c10.2,0.5,20.7,0.4,31-0.2c0.5,0,1.1,0,1.6-0.1
				l1.5-0.1c2.1,0,4.3-0.2,6.5-0.5c2.3-0.2,4.6-0.5,6.8-0.7c4.9-0.6,9.8-1.5,14.4-2.3c1.5-0.2,3.1-0.6,4.7-1c1.5-0.4,3-0.7,4.6-1.1
				c3.6-0.9,6.9-1.8,10.2-3c1.4-0.4,2.7-0.9,4.1-1.5c3.6-1.1,6.9-2.6,10.2-4.2c1.9-0.9,3.8-1.9,5.6-3c1.2-0.6,2.2-1.4,3.3-2.1
				c1.1-0.6,2.1-1.4,3.1-2.1c0.1,0,0.2-0.1,0.4-0.3c2.5-1.7,4.8-3.7,6.8-5.8c1.5-1.5,2.7-3.1,4-4.7l43.5-449.3
				c0.1-0.9,0.2-1.7,0.2-2.6C751.3,157.6,717.5,141.7,670.4,133.4z M740.6,177.1c-1.4,5.2-10.1,11.8-25.3,18
				c-0.2,0.1-0.6,0.2-0.9,0.2c-7,2.6-14.1,4.8-21.2,6.8c-3.5,1-6.9,1.8-10.4,2.7c-1.6,0.4-3.2,0.7-4.8,1c-2.5,0.6-5.1,1.1-7.6,1.6
				c-8.6,1.6-17.4,2.8-26.3,3.7c-0.2,0.1-0.6,0.1-0.9,0.1c-8.5,23.8-14.9,41.7-16.1,44.8c-0.1,0.1-0.1,0-0.1,0
				c-8.4,0.6-17,0.7-25.5,0.5l14.4-43.4c-5.8,0.2-11.7,0.4-17.8,0.4c-35.9,0-66.1-4.2-88.9-10.1c-28.1-7.4-44.9-17.5-46.9-25.9
				c-0.1-0.6-0.1-1.1-0.1-1.6c0-0.5,0.1-1,0.5-1.6c0.1-0.5,0.5-1,0.9-1.5c0.2-0.4,0.6-0.7,1-1.1c0.4-0.5,0.9-1,1.5-1.5
				c0.7-0.7,1.6-1.4,2.6-2.1c0-0.1,0.1-0.1,0.2-0.2c0,0.2-2.7,9.3,5.9,14.1c1,0.5,3.2,2.2,7.4,4.4c0.5,0.2,1,0.5,1.6,0.7
				c6,3.1,15.3,7,29,10.4c0.1,0,0.3,0.1,0.4,0.1l8.5,2.2c0.2-0.1,0.4-0.2,0.6-0.2c19.7,3.9,47.1,6.5,84.2,5.4
				c4.2-0.1,8.3-0.2,12.2-0.5c10-0.5,19.2-1.2,27.6-2.1c11.2-1.2,21.1-2.7,29.8-4.4c42.6-8.4,57.2-21.8,60.7-28.7
				c0.6,0.6,1.1,1.1,1.6,1.7c0.5,0.6,0.9,1.1,1.2,1.7c0.6,1.1,1,2.1,1,3.2C740.7,176.2,740.7,176.7,740.6,177.1z"/>
			<path class="st1" d="M512.8,197.5c-13.7-3.3-22.9-7.3-29-10.4C492.9,191,502.6,194.5,512.8,197.5z"/>
			<path class="st2" d="M740.7,175.9c0,0.4,0,0.9-0.1,1.2c-1.4,5.2-10.1,11.8-25.3,18c-0.2,0.1-0.6,0.2-0.9,0.2
				c-7,2.6-14.1,4.8-21.2,6.8c-3.5,1-6.9,1.8-10.4,2.7c-1.6,0.4-3.2,0.7-4.8,1c-2.5,0.6-5.1,1.1-7.6,1.6c-8.6,1.6-17.4,2.8-26.3,3.7
				c-0.2,0.1-0.6,0.1-0.9,0.1c-4.5,0.5-9.1,0.9-13.7,1.1c-4.4,0.4-9,0.6-13.7,0.7c-5.8,0.2-11.7,0.4-17.8,0.4
				c-35.9,0-66.1-4.2-88.9-10.1c-28.1-7.4-44.9-17.5-46.9-25.9c-0.1-0.6-0.1-1.1-0.1-1.6c0-0.5,0.1-1,0.5-1.6c0.1-0.5,0.5-1,0.9-1.5
				c0.2-0.4,0.6-0.7,1-1.1c0.4-0.5,0.9-1,1.5-1.5c0.7-0.7,1.6-1.4,2.6-2.1c0-0.1,0.1-0.1,0.2-0.2c0,0.2-2.7,9.3,5.9,14.1
				c1,0.5,3.2,2.2,7.4,4.4c0.5,0.2,1,0.5,1.6,0.7c6,3.1,15.3,7,29,10.4c0.1,0,0.3,0.1,0.4,0.1l8.5,2.2c0.2-0.1,0.4-0.2,0.6-0.2
				c19.7,3.9,47.1,6.5,84.2,5.4c4.2-0.1,8.3-0.2,12.2-0.5c10-0.5,19.2-1.2,27.6-2.1c11.2-1.2,21.1-2.7,29.8-4.4
				c42.6-8.4,57.2-21.8,60.7-28.7c0.6,0.6,1.1,1.1,1.6,1.7c0.5,0.6,0.9,1.1,1.2,1.7C740.3,173.8,740.7,174.8,740.7,175.9z"/>
			<path class="st1" d="M740.6,177.1l-44.2,418.1c-6.9,11.1-22.1,18.7-41.7,23.3c-10.1,2.4-21.6,3.9-33.7,4.8
				c-8.3,0.5-16.9,0.8-25.7,0.8c-46.5-0.3-61.4-10.7-68-13.8c-6.7-3.1-19.1-10.4-19.1-10.4c-0.6-4.1-42.9-394.2-46-422.5
				c2,8.4,18.7,18.5,46.9,25.9c22.8,5.9,53,10.1,88.9,10.1c6,0,12-0.1,17.8-0.4l-14.4,43.4c8.5,0.3,17.1,0.1,25.5-0.5
				c0,0,0,0.1,0.1,0c1.2-3.1,7.6-21,16.1-44.8c0.3,0,0.6,0,0.9-0.1c8.9-0.9,17.6-2.1,26.3-3.7c2.6-0.5,5.2-1,7.6-1.6
				c1.6-0.2,3.2-0.6,4.8-1c3.4-0.9,6.9-1.7,10.4-2.7c7.2-2,14.2-4.2,21.2-6.8c0.2,0,0.6-0.1,0.9-0.2
				C730.5,188.9,739.2,182.3,740.6,177.1z"/>
			<path class="st3" d="M725.7,219.3c-2.7-3.3-7-6.5-12.7-9.5c-5.3-2.8-11.7-5.3-19.2-7.5c-0.1,0-0.4-0.1-0.5-0.1
				c-3.5,1-6.9,1.8-10.4,2.7c-1.6,0.4-3.2,0.7-4.8,1c-2.5,0.6-5.1,1.1-7.6,1.6c-8.6,1.6-17.4,2.8-26.3,3.7c-0.2,0.1-0.6,0.1-0.9,0.1
				c-8.5,23.8-14.9,41.7-16.1,44.8c-0.1,0.1-0.1,0-0.1,0c-8.4,0.6-17,0.7-25.5,0.5l14.4-43.4c-5.8,0.2-11.7,0.4-17.8,0.4
				c-35.9,0-66.1-4.2-88.9-10.1c-1.7,0.5-3.5,1-5.1,1.6c-0.1,0-0.2,0.1-0.5,0.2c-1.3,0.4-2.6,0.9-3.8,1.5c-1.1,0.5-2.3,1-3.5,1.5
				c-2.2,1-4.3,2-6.3,3.1c-4.2,2.1-7.6,4.4-10.4,6.8c-0.2,0.1-0.4,0.4-0.5,0.5c-1.2,1.1-2.3,2.2-3.2,3.3c-0.4,0.5-0.7,1-1,1.5
				c-0.9,1.4-1.4,2.6-1.6,3.7c-0.1,0.6-0.2,1.2-0.2,1.8l0.4,2.2c4.2,15.2,51.9,35.5,124.7,35.5c7.9,0,15.6-0.2,22.7-0.7
				c2.1-0.1,4.1-0.2,6-0.4c1.4,0,2.7-0.1,4.1-0.4c2.7-0.1,5.4-0.4,8-0.7c2.8-0.3,5.6-0.6,8.1-1c2.3-0.2,4.6-0.6,6.9-1
				c14.1-2.2,26.3-5.2,36.6-8.5c1.5-0.4,3-0.9,4.5-1.4c4.3-1.6,8.3-3.1,11.8-4.7c13.3-5.9,21.1-12.3,22.4-17.4l0.2-1.6
				C729.7,225.6,728.3,222.4,725.7,219.3z M649.4,193.9c-8.3-0.9-17.1-1.6-26.5-2c-7.9-0.4-16-0.6-24.7-0.6c-30.4,0-56.1,3.3-76,8.3
				c19.7,3.9,47.1,6.5,84.2,5.4c4.2-0.1,8.3-0.2,12.2-0.5c10-0.5,19.2-1.2,27.6-2.1c11.2-1.2,21.1-2.7,29.8-4.4
				C668.1,196.3,659.2,195,649.4,193.9z"/>
			<path class="st4" d="M729.5,230.5l-14.2,102.3c0,0,0,0.2-0.1,0.7c-0.1,0.5-0.2,1.2-0.3,2l-0.2,1.4
				c-5.7,31.4-41.9,235.7-48.3,243.9c-13.6,17.1-116.6,21.4-123.1-0.6c-6.2-21.2-60.3-297.1-67.2-331.5c-0.4-2.3-0.6-3.5-0.6-3.5
				l-1.9-14c4.3,15.2,52,35.5,124.8,35.5C676.6,266.6,725.7,244.1,729.5,230.5z"/>
			<path class="st5" d="M714.6,336.9l-35.2,255c-15.7,35.5-144.8,32.3-154.6,2.6l-48.8-345.8c6.8,34.4,61,310.3,67.2,331.5
				c6.5,22,109.5,17.7,123.1,0.6C672.7,572.6,709,368.3,714.6,336.9z"/>
			<path class="st6" d="M729.7,228.9l-0.2,1.6c-1.3,5.1-9.1,11.5-22.4,17.4c-3.6,1.6-7.5,3.1-11.8,4.7c-1.4,0.5-2.8,1-4.5,1.4
				c-10.4,3.3-22.6,6.3-36.6,8.5c-2.3,0.4-4.6,0.7-6.9,1c-2.6,0.4-5.3,0.7-8.1,1c-2.6,0.4-5.3,0.6-8,0.7c-1.3,0.3-2.7,0.4-4.1,0.4
				c-2,0.1-3.9,0.2-6,0.4c-7.2,0.5-14.8,0.7-22.7,0.7c-72.8,0-120.5-20.4-124.7-35.5l-0.4-2.2c0-0.6,0.1-1.2,0.2-1.8
				c0.2-1.1,0.7-2.3,1.6-3.7c0.2-0.5,0.6-1,1-1.5c0.9-1.1,2-2.2,3.2-3.3c0.1-0.1,0.3-0.4,0.5-0.5c2.7-2.3,6.2-4.7,10.4-6.8
				c2-1.1,4.1-2.1,6.3-3.1c1.1-0.5,2.3-1,3.5-1.5c1.2-0.6,2.5-1.1,3.8-1.5c-4.9,2.7-40,23.3,0.6,36.3c25.5,8.1,61.2,14.3,97.2,15
				c8.5,0.3,17.1,0.1,25.5-0.5c0,0,0,0.1,0.1,0c16.7-0.9,32.9-3.2,47.7-7.4c15.7-4.3,26.4-8,33.9-11.3c18.5-8,16.7-13.3,16.9-18
				C728.3,222.4,729.7,225.6,729.7,228.9z"/>
			<path class="st7" d="M714.4,195.4c-5.9,2.5-13,4.7-20.7,6.9c-3.4,0.9-7,1.7-10.8,2.6c3.4-0.9,6.9-1.7,10.4-2.7
				C700.4,200.2,707.4,197.9,714.4,195.4z"/>
			<path class="st7" d="M736.9,169.2c-3.4,6.9-18.1,20.4-60.7,28.7c-8.7,1.7-18.6,3.2-29.8,4.4c-8.4,0.9-17.6,1.6-27.6,2.1
				c-3.9,0.2-8,0.4-12.2,0.5c-37.1,1.1-64.5-1.5-84.2-5.4c-0.3,0-0.4,0.1-0.6,0.2l-8.5-2.2c-0.1,0-0.3-0.1-0.4-0.1
				c-13.7-3.3-22.9-7.3-29-10.4c-0.6-0.2-1.1-0.5-1.6-0.7c-4.2-2.2-6.4-4-7.4-4.4c-8.6-4.8-5.9-13.8-5.9-14.1
				c16.1-12,61.4-29.7,129.3-29.7c15.1,0,29.1,0.7,42.1,2c9.5,0.9,18.5,2.1,26.8,3.5C703.6,149.8,728,160.3,736.9,169.2z"/>
			<path class="st8" d="M522.3,199.5c-0.3,0-0.4,0.1-0.6,0.2l-8.5-2.2C516,198.2,519,198.9,522.3,199.5z"/>
			<path class="st8" d="M714.4,195.4c-5.9,2.5-13,4.7-20.7,6.9c-3.4,0.9-7,1.7-10.8,2.6c3.4-0.9,6.9-1.7,10.4-2.7
				C700.4,200.2,707.4,197.9,714.4,195.4z"/>
			<path class="st9" d="M715.3,195.1l-2.3,14.7l-4.2,27.5l-1.7,10.6L679.5,424c-2.3,14.6-13.9,26.2-28.6,28.1
				c-12.9,1.7-23.7-9-23.7-22.1L627,265.5v-9c0,0,0,0,0-0.1V256c0,0,0,0.1,0.1,0c1.2-3.1,7.6-21,16.1-44.8c0.3,0,0.6,0,0.9-0.1
				c8.9-0.9,17.6-2.1,26.3-3.7c2.6-0.5,5.2-1,7.6-1.6c1.6-0.2,3.2-0.6,4.8-1c3.4-0.9,6.9-1.7,10.4-2.7c7.2-2,14.2-4.2,21.2-6.8
				C714.7,195.4,715.1,195.2,715.3,195.1z"/>
			<path class="st9" d="M625.4,498.5c0.4-12,10.2-21.4,22.2-22.3c11-0.8,21.6,6.9,20.4,17.9l-17.3,162.3l-30.9,3.9L625.4,498.5z"/>
			<path class="st10" d="M496.7,624.2c3.3,41.3,173.4,54.5,210.7,3.6l4.8-49.4l0,0c-7.8,39.8-21.1,51.9-21.1,51.9
				c-71.3,40.8-169.8,6.8-169.8,6.8c-17-6.8-18.7-19.4-18.7-19.4s-52-418.7-51.7-417.9L496.7,624.2z"/>
		</g>
		<path class="st11" d="M840,127.5l-13.7,18.3c0,0-95.2-76.2-118.3-92.1c-5.8-3.9-13.6,4.1-18.5,21.2c-4,13.8-11.1,35.3-19.1,58.6
			c-1,3.3-2.2,6.7-3.5,10.1c-5.7,16.9-11.8,34.3-17.5,50.3c-1,2.8-2.1,5.7-3.1,8.5c-8.4,0.9-17.6,1.6-27.6,2.1l4.2-12.6l17.3-51.8
			l3.5-10.2l35-105.3c0,0,7.8-21.2,33.5,1.1L840,127.5z"/>
		<path class="st12" d="M643.3,211.3c-8.5,23.8-14.9,41.7-16.1,44.8c-0.1,0.1-0.1,0-0.1,0c-8.4,0.6-17,0.7-25.5,0.5l14.4-43.4
			c4.7-0.1,9.2-0.4,13.7-0.7C634.1,212.1,638.7,211.8,643.3,211.3z"/>
	</g>
	<g>
		<g>
			<path class="st13" d="M703.9,561.2c-3.2-4.1-7-11.2-5.2-19.6c0,0-9.5-21.1-13.5-9.4c0,0-11.3-9-11.4-1.2c0,0-17.8-7.8-15.8,3.5
				c0,0-19.6-1.4-13.9,4.4c0,0-17.3,3.1-11.8,8.6c0.3,0.3,0.5,0.5,0.7,0.7c-2.8,0.2-14.1,1.3-11.4,5.5c0,0-14.2,7.9-12.4,12.6
				c0,0,0.1,0.1,0.2,0.3C672.1,545.3,695.9,554.9,703.9,561.2z"/>
			<path class="st14" d="M609.5,566.7c0,0,81.3-19.4,99.1-1C708.6,565.7,696.7,530.6,609.5,566.7z"/>
			<path class="st15" d="M634.5,577.1c0,0-2,9.7,11,0.6c0,0-5.7,14.3,12.5,3.1c0,0,3.1,9,11.6-3.4c0,0,1.6,10.6,9.3-0.7
				c0,0-0.2,10.9,5.1-4.7c0,0,1,8.4,6.7-3.2c0,0,2.8,4.1,8.1-4.6c0,0,6.4-0.3,8.8,0.9c0,0-1.7-1.4-3.7-4c-8.1-6.3-31.8-16-94.5,5.4
				c0.7,1.1,3.4,4.4,9.4,4.5c0,0-4.8,7.6,7.4,5.2C626.3,576.3,624.2,583.4,634.5,577.1z"/>
		</g>
		<g>
			<path class="st16" d="M706.6,566.8c-1-4.4-3.5-10.8-10.1-14.2c0,0-8.8-17.8,1.2-14.1c0,0,0.2-12.4,5.5-8.2c0,0,4.6-16,11-8.5
				c0,0,9.8-13.7,10.6-6.7c0,0,11.6-9.7,12.2-3.1c0,0.3,0.1,0.6,0.1,0.9c1.7-1.8,8.6-8.6,9.9-4.5c0,0,13-5,15.1-1.3
				c0,0,0,0.1,0.1,0.3C713.5,537,706.8,558,706.6,566.8z"/>
			<path class="st17" d="M762,507.3c0,0-57.4,43.1-55,65C707,572.3,690.3,545.2,762,507.3z"/>
			<path class="st15" d="M755.2,529.6c0,0,7.5,4-5.6,7.6c0,0,12.6,4.1-4.8,10c0,0,4.3,7-8.6,5.8c0,0,6.1,6.9-5.6,5.8
				c0,0,7.3,5.8-5.9,0.8c0,0,5,5.3-5.8,2.7c0,0,1.2,4.1-7.5,2.8c0,0-3.7,4-4.2,6.3c0,0,0-1.9-0.6-4.6c0.2-8.8,6.9-29.8,55.4-59.5
				c0.3,1,1,4.7-2.2,8.7c0,0,7.6,1-0.6,7.7C759.1,523.7,765,526.2,755.2,529.6z"/>
		</g>
	</g>
	<g>
		<path class="st4" d="M549.5,672.9c0,0,10.2,42.9,95,47c84.8,4.1,137.5-93.8,88.3-174.5L549.5,672.9z"/>
		<path class="st5" d="M579.7,697.6c0,0,56.1,36.2,122.1-15.6c22.7-17.9,51.1-40.9,37.7-113L579.7,697.6z"/>
		<path class="st18" d="M726,550.2l6.8-4.8c0,0,5.9,1.4,7.7,35.9c1.8,34.5-13.5,58.9-38.9,85.7c-25.3,26.8-71.1,36.5-101.3,35.5
			c-30.2-1-50.7-29.7-50.7-29.7l53.7-37.2L726,550.2z"/>
		<path class="st3" d="M558.4,667.1c40.9,52.1,201.7,6.3,167.6-116.9L558.4,667.1z"/>
		<path class="st19" d="M626.7,619.2l-49.4,51.2c0,0-3,4.8,14.7,6c17.7,1.2,27.5,5.2,30.5-1.8C626.1,666.1,626.7,619.2,626.7,619.2z
			"/>
		<path class="st19" d="M631.9,615.8v54.4c0,0-2.3,9,14.8,5.1c17.1-3.9,25.3-11.4,26.2-12.6c0,0,4.4-3.1-8.4-16.6
			C651.8,632.7,631.9,615.8,631.9,615.8z"/>
		<path class="st19" d="M639.3,610.5c0,0,39,43.1,51.7,42c17.1-1.6,28.6-28.4,8.4-30.6C687.6,620.6,639.3,610.5,639.3,610.5z"/>
		<path class="st19" d="M648.4,604.3c0,0,67.3,22.3,72.5,4.8c5.2-17.4,3.4-21.3-8.1-19.5C701.3,591.4,648.4,604.3,648.4,604.3z"/>
		<path class="st19" d="M658.1,597.5c0,0,68-11,67.5-24.5C725.1,559.4,715.1,564.3,658.1,597.5z"/>
		<path class="st20" d="M648.4,616.5c12.6-8.9,11-17.4,10.2-19.3l-29.8,20.8C629.4,620.2,637.8,624,648.4,616.5z"/>
	</g>
</g>
</svg>
