<?xml version="1.0" encoding="utf-8"?>
<!-- Generator: Adobe Illustrator 24.0.2, SVG Export Plug-In . SVG Version: 6.00 Build 0)  -->
<svg version="1.1" id="Layer_1" xmlns="http://www.w3.org/2000/svg" xmlns:xlink="http://www.w3.org/1999/xlink" x="0px" y="0px"
	 viewBox="0 0 840 720" style="enable-background:new 0 0 840 720;" height="720" width="840" xml:space="preserve">
<style type="text/css">
	.st0{fill:#7BAE42;}
	.st1{fill:#8BBE41;}
	.st2{fill:#E07726;}
	.st3{fill:#FAA919;}
	.st4{fill:#FDF7E0;}
	.st5{fill:#F68E1E;}
</style>
<g>
	<g>
		<g>
			<path class="st0" d="M598.4,670.6c83.4,66.6,138.5,47.9,148.5,44.3c10.5-3.8,30.6-10.1,56.7-35c19.9-19,39-44.4,36.2-56.2
				l-241.9,46.5L598.4,670.6z"/>
		</g>
		<g>
			<path class="st1" d="M839.7,623.7c-0.3-1.3-0.8-2.4-1.7-3.3c-40.4-45.1-88-54.2-146.2-39.6c-58.2,14.5-95.1,88.7-95.1,88.7l1,0.7
				L839.7,623.7z"/>
		</g>
	</g>
	<g>
		<g>
			<path class="st0" d="M699.7,579.5c60.6,13.4,84.6-10.4,88.9-14.9c4.5-4.7,13.4-13.1,20.6-32.8c5.5-15,9-33.2,4.5-38.6
				l-114.5,86.2L699.7,579.5z"/>
		</g>
		<g>
			<path class="st1" d="M813.7,493.3c-0.5-0.6-1-1-1.7-1.3c-32.6-13.2-59.8-5.8-86.5,16.7c-26.7,22.5-26.9,70.7-26.9,70.7l0.7,0.1
				L813.7,493.3z"/>
		</g>
	</g>
	<g>
		<g>
			<path class="st2" d="M768.8,463.8c0,130.5-101.8,236.4-227.4,236.4c-125.6,0-227.4-105.8-227.4-236.4
				c0-130.5,101.8-236.4,227.4-236.4C667,227.4,768.8,333.2,768.8,463.8z"/>
		</g>
		<g>
			<g>
				<g>
					<path class="st3" d="M453,238.1c-115.5,39.1-175.1,171.7-133,296.1C362.2,658.6,490,727.7,605.5,688.6
						c115.5-39.1,175.1-171.7,132.9-296.1C696.4,268.2,568.6,199,453,238.1z M594.7,656.6c-99.1,33.6-208.7-25.7-244.9-132.4
						c-36.1-106.7,14.9-220.4,114-253.9c99.1-33.6,208.7,25.7,244.9,132.4C744.9,509.3,693.8,623,594.7,656.6z"/>
				</g>
				<g>
					<path class="st4" d="M733.3,394.3c41.1,121.3-17,250.5-129.6,288.7C491,721.1,366.4,653.7,325.3,532.4
						c-41.1-121.3,17-250.5,129.6-288.7C567.6,205.6,692.2,273,733.3,394.3z"/>
				</g>
			</g>
			<g>
				<g>
					<polygon class="st5" points="529.7,462.9 530.2,461.8 529.4,462.1 					"/>
					<polygon class="st4" points="529.6,464.6 528.6,461.7 531.4,460.7 					"/>
				</g>
				<g>
					<polygon class="st5" points="526.3,463.2 529,464.5 529.7,462.9 529.4,462.1 					"/>
					<path class="st4" d="M529.3,465.3l-4.7-2.3l5.3-1.8l0.6,1.6L529.3,465.3z M528,463.3l0.7,0.3l0.3-0.7L528,463.3z"/>
				</g>
				<g>
					<polygon class="st5" points="530.5,465.2 529.7,462.9 529,464.5 					"/>
					<polygon class="st4" points="531.6,466.5 528.1,464.8 529.8,461.1 					"/>
				</g>
				<g>
					<path class="st5" d="M529.9,460.9c0,0,68.4-152.8,71.9-160.7c3.5-7.8,8.9-19.8-0.6-34.8c-11.8-18.6-105-29.5-126.7-12.2
						c-11.5,9.1-11.2,18.9-7.3,30c3.9,11.1,62,177.9,62,177.9L529.9,460.9z"/>
					<path class="st4" d="M528.7,462l-0.2-0.6c-0.6-1.7-58.2-166.9-62-177.9c-3.5-10.1-5-20.8,7.5-30.7c7.2-5.7,22.5-8.8,43.3-8.8
						c33.6,0,76.5,8.7,84.4,21.2c9.6,15.3,4.2,27.4,0.6,35.4c-3.5,7.9-71.9,160.7-71.9,160.7l-0.1,0.3L528.7,462z M517.2,245.3
						c-20.5,0-35.5,3-42.5,8.5c-11.2,8.9-11,18.2-7.1,29.3c3.7,10.6,57.5,165,61.8,177.1c4-9,68.3-152.6,71.7-160.2
						c3.5-7.8,8.7-19.5-0.6-34.2C594.4,256.1,558.7,245.3,517.2,245.3z"/>
				</g>
				<g>
					<path class="st5" d="M530.7,461.3c0,0,153.2-49.9,161-52.5c7.9-2.6,19.9-6.5,23.1-23.6c4-21.4-56.8-99.4-84.4-104.4
						c-14.6-2.6-20.9,4.1-25.6,14.5c-4.7,10.4-74.8,165.7-74.8,165.7L530.7,461.3z"/>
					<path class="st4" d="M530.7,462l-1.5-0.8l0.2-0.5c0,0,70.2-155.3,74.8-165.7c3.4-7.6,8.5-15.4,20.3-15.4c1.9,0,3.9,0.2,6,0.6
						c17.3,3.1,46.8,34.1,65.7,61.6c13.6,19.8,20.6,35.7,19.1,43.6c-3.3,17.5-15.4,21.5-23.5,24.1c-7.8,2.6-161,52.5-161,52.5
						L530.7,462z M624.6,280.8c-11,0-15.6,7-19.1,14.7c-4.5,10-69.8,154.4-74.6,165.1c8.3-2.7,153.1-49.9,160.7-52.4
						c7.8-2.5,19.5-6.4,22.6-23.1c1.4-7.5-5.7-23.4-18.9-42.6c-25.2-36.6-52.3-58.7-64.9-61C628.3,281,626.3,280.8,624.6,280.8z"/>
				</g>
				<g>
					<path class="st5" d="M528.2,461.5c0,0-55.6-164.3-58.4-172.7c-2.8-8.4-7.2-21.3-23.6-25.3c-20.4-5-90.7,56.8-93.9,85.9
						c-1.7,15.4,5,22.3,15.1,27.7c10.1,5.4,160.5,85.2,160.5,85.2L528.2,461.5z"/>
					<path class="st4" d="M528.2,463.1l-0.6-0.3c-1.5-0.8-150.6-79.9-160.5-85.2c-9.1-4.8-17.2-11.6-15.4-28.3
						c1.7-15.2,20.9-37.9,38.4-54c21.6-19.9,42.6-32.8,53.6-32.8c1,0,1.9,0.1,2.7,0.3c16.7,4.1,21.1,17.1,24,25.7l58.5,173
						L528.2,463.1z M443.7,263.8c-10.5,0-31.7,13-52.8,32.4c-17.3,15.9-36.3,38.3-38,53.2c-1.8,16,6,22.4,14.7,27
						c9.6,5.1,148.3,78.7,159.8,84.8L469.2,289c-2.8-8.4-7.1-21-23.1-24.9C445.4,263.9,444.6,263.8,443.7,263.8z"/>
				</g>
				<g>
					<path class="st5" d="M527,462.4c0,0-147-80.2-154.5-84.3c-7.5-4.1-19.1-10.4-32.8-1.1c-17.1,11.6-23.7,110-6.5,133.9
						c9.1,12.6,18.3,12.8,28.6,9.2c10.4-3.6,165.5-56.9,165.5-56.9L527,462.4z"/>
					<path class="st4" d="M351.5,522.8L351.5,522.8c-7.3,0-13.3-3.7-18.9-11.5c-11.6-16.2-12.7-66.8-6.3-102.1
						c3.1-17.6,7.8-29.2,13-32.7c4.8-3.3,9.9-4.9,15-4.9c7.5,0,13.8,3.5,18.5,6c7.5,4.1,154.5,84.3,154.5,84.3l0.2,0.1l0.5,1.6
						l-0.6,0.2c0,0-155.1,53.4-165.5,56.9C357.9,522.1,354.6,522.8,351.5,522.8z M354.3,372.8c-4.9,0-9.6,1.5-14.3,4.7
						c-4.9,3.3-9.4,14.7-12.4,31.9c-6.3,35.1-5.3,85.2,6.1,101.1c5.4,7.5,11,11,17.8,11h0c2.9,0,6.1-0.6,10-2
						c10-3.4,153.8-52.9,164.8-56.7c-7.4-4.1-146.9-80.2-154.2-84.2C367.6,376.2,361.4,372.8,354.3,372.8z"/>
				</g>
				<g>
					<polygon class="st5" points="528.8,464 528.3,465 529.1,464.7 					"/>
					<polygon class="st4" points="527.2,466.1 528.9,462.2 529.9,465.1 					"/>
				</g>
				<g>
					<polygon class="st5" points="532.2,463.6 529.5,462.3 528.8,464 529.1,464.7 					"/>
					<path class="st4" d="M528.7,465.6l-0.6-1.6l1.1-2.5l4.7,2.2L528.7,465.6z M529.8,463.2l-0.3,0.7l1-0.4L529.8,463.2z"/>
				</g>
				<g>
					<polygon class="st5" points="528,461.6 528.8,464 529.5,462.3 					"/>
					<polygon class="st4" points="528.7,465.7 526.8,460.4 530.4,462 					"/>
				</g>
				<g>
					<path class="st5" d="M528.7,465.9c0,0-67.9,153.1-71.4,160.9c-3.5,7.8-8.8,19.9,0.7,34.8c11.8,18.6,105.1,29.1,126.8,11.8
						c11.5-9.2,11.1-18.9,7.2-30c-3.9-11.1-62.6-177.7-62.6-177.7L528.7,465.9z"/>
					<path class="st4" d="M541.2,682.8C541.2,682.8,541.2,682.8,541.2,682.8c-42.2,0-77.4-10.8-83.8-20.9
						c-9.7-15.2-4.3-27.4-0.8-35.4c3.5-7.9,71.4-161,71.4-161l0.1-0.3l1.6-0.6l0.2,0.6c0,0,58.7,166.6,62.6,177.7
						c3.5,10.1,5.1,20.7-7.4,30.8C577.9,679.6,562.3,682.8,541.2,682.8z M529,466.6c-4.1,9.3-67.8,152.9-71.2,160.5
						c-3.5,7.8-8.7,19.5,0.7,34.2c7.6,12,49.7,20.3,82.7,20.3c20.8,0,36.1-3.1,43.1-8.7c11.2-9,10.9-18.2,7-29.3
						C587.6,632.8,533.3,478.8,529,466.6z"/>
				</g>
				<g>
					<path class="st5" d="M527.6,465c0,0-153,50.5-160.9,53.1c-7.8,2.6-19.8,6.5-23,23.7c-3.9,21.4,57.1,99.2,84.7,104.1
						c14.6,2.6,20.9-4.1,25.6-14.6c4.7-10.4,74.3-166,74.3-166L527.6,465z"/>
					<path class="st4" d="M434.3,647.1C434.3,647.1,434.3,647.1,434.3,647.1c-1.8,0-3.8-0.2-6-0.6c-17.3-3.1-46.8-33.9-65.9-61.3
						c-13.7-19.8-20.8-35.6-19.3-43.6c3.2-17.5,15.4-21.6,23.4-24.2c7.9-2.6,160.9-53.1,160.9-53.1l0.3-0.1l1.5,0.8l-0.2,0.5
						c0,0-69.7,155.6-74.3,166C451.1,639.3,446,647.1,434.3,647.1z M527.4,465.8c-8.4,2.8-152.9,50.4-160.5,52.9
						c-7.8,2.6-19.5,6.4-22.6,23.2c-1.4,7.5,5.8,23.4,19.1,42.6c25.3,36.5,52.4,58.5,65.1,60.8c2,0.4,4,0.5,5.7,0.5
						c11,0,15.7-7.1,19.1-14.7C457.9,621.1,522.6,476.5,527.4,465.8z"/>
				</g>
				<g>
					<path class="st5" d="M530.3,465.3c0,0,56.1,164.2,58.9,172.6c2.9,8.4,7.3,21.3,23.7,25.2c20.4,4.9,90.5-57.2,93.6-86.3
						c1.6-15.4-5.1-22.3-15.2-27.6c-10.1-5.3-160.7-84.6-160.7-84.6L530.3,465.3z"/>
					<path class="st4" d="M615.4,664C615.4,664,615.4,664,615.4,664c-1,0-1.9-0.1-2.7-0.3c-16.7-4-21.2-17-24.1-25.6l-59-172.8
						l0.7-1.6l0.6,0.3c0,0,150.7,79.3,160.7,84.6c9.1,4.8,17.3,11.5,15.5,28.3c-1.6,15.3-20.8,38-38.2,54.2
						C647.4,651.1,626.4,664,615.4,664z M531,465.6l58.8,172.1c2.8,8.3,7.2,20.9,23.2,24.8c0.7,0.2,1.5,0.3,2.4,0.3h0
						c10.5,0,31.7-13.1,52.6-32.6c17.2-16,36.2-38.4,37.8-53.4c1.7-16-6.1-22.4-14.8-27C681.4,544.7,542.4,471.5,531,465.6z"/>
				</g>
				<g>
					<path class="st5" d="M531.7,464.9c0,0,147.2,79.7,154.8,83.8c7.6,4.1,19.1,10.3,32.8,1c17.1-11.6,23.3-110.1,6.1-133.9
						c-9.1-12.6-18.3-12.8-28.6-9.1c-10.4,3.6-165.3,57.5-165.3,57.5L531.7,464.9z"/>
					<path class="st4" d="M704.6,555.2L704.6,555.2c-7.4,0-13.8-3.4-18.4-6c-7.5-4-153.3-83-154.8-83.8l-0.2-0.1l-0.6-1.6l0.6-0.2
						c0,0,154.9-53.9,165.3-57.5c4.1-1.4,7.4-2.1,10.5-2.1c7.2,0,13.2,3.6,18.9,11.5c11.7,16.1,12.9,66.7,6.7,102.1
						c-3.1,17.6-7.7,29.2-12.9,32.8C714.8,553.6,709.7,555.2,704.6,555.2z M532.3,464.5c7.6,4.1,147.2,79.7,154.4,83.6
						c4.5,2.4,10.7,5.8,17.8,5.8c4.9,0,9.6-1.6,14.3-4.8c4.9-3.4,9.3-14.7,12.4-31.9c6.2-35.1,5-85.2-6.4-101.1
						c-5.4-7.4-11-10.9-17.8-10.9c-3,0-6.2,0.6-10.1,2C687,410.7,543.4,460.7,532.3,464.5z"/>
				</g>
			</g>
		</g>
	</g>
</g>
</svg>
